<svg width="26" height="76" viewBox="0 0 26 76" fill="none" xmlns="http://www.w3.org/2000/svg">
<path d="M22.0988 18.4928H3.86729C2.84162 18.4928 1.85796 18.9003 1.1327 19.6256C0.407446 20.3508 0 21.3345 0 22.3601L0 71.5802C-1.50117e-06 72.1615 0.114651 72.737 0.337393 73.2739C0.560135 73.8108 0.886591 74.2985 1.29807 74.709C1.70955 75.1196 2.19796 75.4449 2.73535 75.6665C3.27274 75.888 3.84855 76.0013 4.42981 76H21.5062C22.6784 76 23.8025 75.5343 24.6314 74.7055C25.4603 73.8766 25.9259 72.7524 25.9259 71.5802V22.3601C25.9286 21.3406 25.5275 20.3615 24.8104 19.6368C24.0932 18.9121 23.1183 18.5008 22.0988 18.4928Z" fill="#4292A6"/>
<path d="M22.0989 13.2394H3.55594V18.4929H22.0989V13.2394Z" fill="#333333"/>
<path d="M16.0017 6.90098H9.66332C8.66162 6.90098 7.70096 7.2989 6.99265 8.0072C6.28435 8.71551 5.88643 9.67617 5.88643 10.6779V13.2393H19.7785V10.6779C19.7785 9.67617 19.3806 8.71551 18.6723 8.0072C17.964 7.2989 17.0034 6.90098 16.0017 6.90098Z" fill="#474747"/>
<path d="M12.8474 0.000112877C12.6118 -0.001211 12.3782 0.0440597 12.1601 0.133322C11.942 0.222584 11.7437 0.354077 11.5766 0.52024C11.4096 0.686402 11.2769 0.883957 11.1865 1.10154C11.096 1.31913 11.0494 1.55246 11.0494 1.78811V6.90097H14.6555V1.78811C14.6555 1.55161 14.6086 1.31745 14.5175 1.0992C14.4264 0.88095 14.2929 0.682944 14.1248 0.516648C13.9566 0.350352 13.7571 0.219071 13.5379 0.130406C13.3186 0.0417415 13.0839 -0.00254446 12.8474 0.000112877Z" fill="#474747"/>
<path d="M14.6354 5.25347H11.0293V6.90084H14.6354V5.25347Z" fill="#2E2E2E"/>
<path d="M21.1447 72.0826C20.9394 72.0839 20.7358 72.0446 20.5458 71.967C20.3557 71.8893 20.1829 71.7748 20.0372 71.6301C19.8916 71.4854 19.776 71.3133 19.6971 71.1238C19.6183 70.9342 19.5776 70.7309 19.5777 70.5256V48.0049C19.5603 47.7893 19.5879 47.5724 19.6585 47.3679C19.7292 47.1634 19.8414 46.9758 19.9881 46.8168C20.1349 46.6578 20.3129 46.5309 20.5111 46.4441C20.7093 46.3574 20.9233 46.3126 21.1396 46.3126C21.356 46.3126 21.57 46.3574 21.7682 46.4441C21.9663 46.5309 22.1444 46.6578 22.2911 46.8168C22.4379 46.9758 22.5501 47.1634 22.6207 47.3679C22.6914 47.5724 22.7189 47.7893 22.7016 48.0049V70.5256C22.703 70.7305 22.6636 70.9335 22.5858 71.123C22.5081 71.3125 22.3934 71.4847 22.2486 71.6295C22.1037 71.7744 21.9316 71.889 21.7421 71.9668C21.5526 72.0446 21.3495 72.0839 21.1447 72.0826Z" fill="white"/>
<path d="M25.9661 27.1718H0V41.6566H25.9661V27.1718Z" fill="#163138"/>
<path d="M12.6567 29.3412H7.35295C4.71781 29.3412 2.58161 31.4774 2.58161 34.1125V34.2029C2.58161 36.838 4.71781 38.9742 7.35295 38.9742H12.6567C15.2918 38.9742 17.428 36.838 17.428 34.2029V34.1125C17.428 31.4774 15.2918 29.3412 12.6567 29.3412Z" fill="#295C69"/>
<path d="M5.02254 14.1934C4.77744 14.1934 4.54239 14.2908 4.36908 14.4641C4.19577 14.6374 4.0984 14.8724 4.0984 15.1175V18.4926H5.95671V15.1175C5.95672 14.9953 5.93249 14.8743 5.88542 14.7616C5.83835 14.6488 5.76938 14.5464 5.6825 14.4605C5.59562 14.3746 5.49256 14.3067 5.37927 14.2608C5.26599 14.215 5.14474 14.1921 5.02254 14.1934Z" fill="#212121"/>
<path d="M8.15642 14.1934C7.91133 14.1934 7.67627 14.2907 7.50296 14.464C7.32966 14.6373 7.23229 14.8724 7.23229 15.1175V18.4926H9.04038V15.1175C9.0406 14.8792 8.94877 14.65 8.78406 14.4778C8.61935 14.3056 8.39449 14.2037 8.15642 14.1934Z" fill="#212121"/>
<path d="M11.2805 14.1936C11.0354 14.1936 10.8003 14.2909 10.627 14.4642C10.4537 14.6375 10.3564 14.8726 10.3564 15.1177V18.4928H12.2247V15.1177C12.2248 14.9946 12.2002 14.8728 12.1525 14.7593C12.1048 14.6459 12.0349 14.5431 11.947 14.457C11.859 14.371 11.7548 14.3033 11.6403 14.2581C11.5259 14.2128 11.4035 14.1909 11.2805 14.1936Z" fill="#212121"/>
<path d="M14.4043 14.1936C14.1592 14.1936 13.9242 14.2909 13.7509 14.4642C13.5776 14.6375 13.4802 14.8726 13.4802 15.1177V18.4928H15.3486V15.1177C15.3486 14.9946 15.324 14.8728 15.2763 14.7593C15.2286 14.6459 15.1588 14.5431 15.0708 14.457C14.9829 14.371 14.8786 14.3033 14.7642 14.2581C14.6497 14.2128 14.5274 14.1909 14.4043 14.1936Z" fill="#212121"/>
<path d="M17.5284 14.1936C17.4071 14.1936 17.2869 14.2175 17.1748 14.2639C17.0626 14.3104 16.9608 14.3784 16.8749 14.4642C16.7891 14.5501 16.7211 14.6519 16.6746 14.7641C16.6282 14.8762 16.6043 14.9963 16.6043 15.1177V18.4928H18.4726V15.1177C18.4727 14.9946 18.4481 14.8728 18.4004 14.7593C18.3527 14.6459 18.2828 14.5431 18.1949 14.457C18.1069 14.371 18.0027 14.3033 17.8882 14.2581C17.7738 14.2128 17.6514 14.1909 17.5284 14.1936Z" fill="#212121"/>
<path d="M20.6522 14.1934C20.5309 14.1934 20.4107 14.2173 20.2986 14.2638C20.1865 14.3102 20.0846 14.3783 19.9988 14.4641C19.913 14.5499 19.8449 14.6518 19.7985 14.7639C19.752 14.876 19.7281 14.9962 19.7281 15.1175V18.4926H21.5864V15.1175C21.5864 14.9953 21.5622 14.8743 21.5151 14.7616C21.4681 14.6488 21.3991 14.5464 21.3122 14.4605C21.2253 14.3746 21.1223 14.3067 21.009 14.2608C20.8957 14.215 20.7744 14.1921 20.6522 14.1934Z" fill="#212121"/>
</svg>
