<svg width="50" height="50" viewBox="0 0 50 50" fill="none" xmlns="http://www.w3.org/2000/svg">
<circle opacity="0.3" cx="25" cy="25" r="25" fill="url(#paint0_linear_414_5628)"/>
<mask id="mask0_414_5628" style="mask-type:alpha" maskUnits="userSpaceOnUse" x="0" y="0" width="50" height="50">
<circle cx="25" cy="25" r="25" fill="#C4C4C4"/>
</mask>
<g mask="url(#mask0_414_5628)">
<g clip-path="url(#clip0_414_5628)">
<g opacity="0.3">
<path opacity="0.3" d="M17.2124 29.7038H17.1925L16.4284 29.4817C16.4022 29.4735 16.3802 29.4552 16.367 29.4306C16.3539 29.4061 16.3507 29.3772 16.3582 29.3503C16.3657 29.3234 16.3832 29.3005 16.407 29.2866C16.4307 29.2727 16.4589 29.2689 16.4855 29.2759L17.2442 29.4953C17.2683 29.5033 17.2887 29.52 17.3017 29.5422C17.3146 29.5644 17.3193 29.5906 17.3147 29.6161C17.3102 29.6415 17.2968 29.6644 17.277 29.6805C17.2572 29.6966 17.2324 29.7049 17.2071 29.7038H17.2124Z" fill="black"/>
<path opacity="0.3" d="M16.4284 30.305C16.4068 30.303 16.3863 30.2943 16.3697 30.28C16.3531 30.2657 16.3412 30.2466 16.3356 30.2252C16.3314 30.2111 16.3301 30.1963 16.3317 30.1817C16.3334 30.1672 16.338 30.1531 16.3452 30.1404C16.3524 30.1277 16.3621 30.1166 16.3737 30.1079C16.3853 30.0992 16.3985 30.093 16.4125 30.0898L17.1766 29.8921C17.2031 29.8862 17.2308 29.8911 17.2539 29.9057C17.277 29.9202 17.2936 29.9434 17.3003 29.9702C17.307 29.997 17.3032 30.0255 17.2898 30.0495C17.2764 30.0736 17.2544 30.0914 17.2284 30.0992L16.4629 30.2969C16.452 30.3016 16.4403 30.3044 16.4284 30.305Z" fill="black"/>
<path opacity="0.3" d="M16.8185 31.0254C16.7933 31.0229 16.7698 31.0114 16.7521 30.9929C16.7328 30.9729 16.7219 30.9459 16.7219 30.9178C16.7219 30.8896 16.7328 30.8626 16.7521 30.8426L17.3173 30.2807C17.3269 30.2699 17.3386 30.2612 17.3516 30.2551C17.3646 30.2491 17.3787 30.2459 17.393 30.2456C17.4073 30.2454 17.4215 30.2481 17.4348 30.2537C17.448 30.2592 17.46 30.2675 17.4699 30.278C17.4799 30.2884 17.4877 30.3009 17.4928 30.3145C17.4979 30.3282 17.5002 30.3427 17.4996 30.3573C17.4989 30.3719 17.4954 30.3862 17.4891 30.3993C17.4829 30.4125 17.474 30.4242 17.4632 30.4337L16.9007 30.9983C16.8896 31.0084 16.8765 31.016 16.8624 31.0207C16.8482 31.0253 16.8333 31.027 16.8185 31.0254Z" fill="black"/>
<path opacity="0.3" d="M17.5042 31.4519H17.4843C17.4707 31.4481 17.4581 31.4415 17.4471 31.4325C17.4361 31.4235 17.427 31.4124 17.4203 31.3998C17.4136 31.3871 17.4095 31.3732 17.4082 31.3589C17.4069 31.3446 17.4084 31.3302 17.4126 31.3165L17.6222 30.542C17.6302 30.5152 17.6482 30.4928 17.6723 30.4794C17.6964 30.466 17.7246 30.4627 17.751 30.4703C17.7774 30.478 17.7998 30.4958 17.8134 30.5201C17.827 30.5444 17.8308 30.5732 17.8239 30.6002L17.609 31.3748C17.6025 31.3977 17.5886 31.4178 17.5696 31.4318C17.5506 31.4458 17.5276 31.4529 17.5042 31.4519Z" fill="black"/>
</g>
<path d="M38.2281 19.4276L36.3272 20.5447L32.1644 21.1595C32.1644 21.1595 29.1252 16.4988 28.6596 15.7662C28.194 15.0337 27.6488 14.5638 26.3872 14.5652L26.626 18.2834C26.6658 18.404 29.1823 21.5684 30.8418 23.2935C31.4282 23.9015 31.7877 24.0572 32.699 23.7972C35.0377 23.1351 37.8726 21.173 38.1008 20.6828C38.4072 20.0424 38.2056 19.4412 38.2281 19.4276Z" fill="#FFEDE5"/>
<path d="M37.4463 17.0704C37.6957 16.239 38.7145 15.562 39.6603 15.8328C39.8101 15.8751 39.9538 15.9374 40.0875 16.0183C41.0161 16.5599 41.755 17.8801 41.755 18.9661C41.758 19.1495 41.733 19.3322 41.6807 19.5077C41.4326 20.3378 40.4165 21.0202 39.4667 20.748C39.3171 20.7052 39.1735 20.6428 39.0395 20.5625C38.1189 20.0209 37.372 18.6993 37.372 17.6134C37.3693 17.4296 37.3944 17.2464 37.4463 17.0704Z" fill="#455A64"/>
<path d="M39.041 20.5543C38.1204 20.0127 37.3735 18.6911 37.3735 17.6052C37.3735 16.5192 38.1204 16.0805 39.041 16.6221C39.9617 17.1638 40.7045 18.484 40.7045 19.5699C40.7045 20.6559 39.9617 21.096 39.041 20.5543Z" fill="#37474F"/>
<path d="M39.041 17.8258C38.6868 17.6173 38.3989 17.7866 38.3989 18.2036C38.411 18.431 38.4754 18.6522 38.587 18.8494C38.6985 19.0465 38.8541 19.2141 39.041 19.3383C39.3952 19.5469 39.6817 19.3776 39.6817 18.9605C39.6699 18.7333 39.6057 18.5121 39.4944 18.3149C39.3831 18.1177 39.2277 17.9502 39.041 17.8258Z" fill="#455A64"/>
<path d="M38.8209 18.4531C38.8251 18.5309 38.8473 18.6067 38.8855 18.6742C38.9238 18.7417 38.9771 18.7991 39.0411 18.8417C39.0621 18.8571 39.0866 18.8671 39.1122 18.8706C39.1379 18.8742 39.1641 18.8712 39.1883 18.862L39.2043 18.8525C39.2232 18.8359 39.2381 18.815 39.2478 18.7915C39.2575 18.768 39.2617 18.7425 39.26 18.7171C39.2558 18.6394 39.2338 18.5637 39.1958 18.4963C39.1578 18.4288 39.1048 18.3713 39.0411 18.3285C39.0201 18.313 38.9956 18.3031 38.97 18.2995C38.9443 18.296 38.9181 18.299 38.8939 18.3082L38.8779 18.3177C38.8586 18.334 38.8434 18.3548 38.8335 18.3784C38.8236 18.4019 38.8193 18.4275 38.8209 18.4531Z" fill="#37474F"/>
<path d="M35.2987 20.5288C35.3028 20.6066 35.3248 20.6823 35.3628 20.7498C35.4008 20.8173 35.4539 20.8747 35.5176 20.9175C35.5461 20.9362 35.5792 20.9465 35.6131 20.9472C35.6389 20.9467 35.6641 20.9393 35.6861 20.9256L39.1882 18.862L39.2041 18.8525C39.2231 18.8359 39.238 18.815 39.2477 18.7915C39.2574 18.768 39.2615 18.7425 39.2599 18.7171C39.2557 18.6394 39.2337 18.5637 39.1957 18.4963C39.1576 18.4288 39.1047 18.3713 39.041 18.3285C39.02 18.313 38.9955 18.3031 38.9698 18.2995C38.9442 18.296 38.918 18.299 38.8937 18.3082L38.8778 18.3177L35.3757 20.3812C35.3505 20.396 35.33 20.4176 35.3164 20.4437C35.3028 20.4698 35.2967 20.4993 35.2987 20.5288Z" fill="#FAFAFA"/>
<path d="M31.8618 20.3623C32.1099 19.5322 33.126 18.8457 34.0758 19.1179C34.2258 19.161 34.3697 19.2233 34.5043 19.3034C35.4249 19.845 36.1718 21.1666 36.1718 22.2526C36.1741 22.4359 36.149 22.6185 36.0975 22.7942C35.8481 23.6242 34.8333 24.3067 33.8835 24.0359C33.734 23.9928 33.5904 23.9304 33.4563 23.8504C32.5357 23.3087 31.7888 21.9872 31.7888 20.9026C31.7858 20.7197 31.8104 20.5375 31.8618 20.3623Z" fill="#455A64"/>
<path d="M33.4548 23.8448C32.5342 23.3032 31.7874 21.9816 31.7874 20.897C31.7874 19.8124 32.5342 19.371 33.4548 19.9126C34.3755 20.4543 35.1223 21.7758 35.1223 22.8618C35.1223 23.9477 34.3768 24.3878 33.4548 23.8448Z" fill="#37474F"/>
<path d="M33.4547 21.1138C33.1005 20.9039 32.814 21.0732 32.814 21.4916C32.826 21.7186 32.8902 21.9395 33.0016 22.1365C33.1129 22.3334 33.2681 22.5007 33.4547 22.6249C33.8089 22.8335 34.0968 22.6642 34.0968 22.2471C34.0845 22.02 34.02 21.7991 33.9084 21.6021C33.7969 21.4052 33.6414 21.2379 33.4547 21.1138Z" fill="#455A64"/>
<path d="M33.2359 21.7431C33.24 21.8209 33.262 21.8965 33.3 21.964C33.338 22.0315 33.3911 22.089 33.4548 22.1317C33.4758 22.1472 33.5003 22.1571 33.5259 22.1607C33.5516 22.1642 33.5778 22.1612 33.6021 22.152C33.6079 22.15 33.6133 22.1468 33.618 22.1426C33.6372 22.1261 33.6524 22.1053 33.6623 22.0818C33.6722 22.0583 33.6765 22.0327 33.675 22.0071C33.6707 21.9293 33.6485 21.8536 33.6102 21.7861C33.572 21.7186 33.5187 21.6612 33.4548 21.6185C33.4338 21.6035 33.4096 21.5939 33.3841 21.5906C33.3587 21.5873 33.3329 21.5904 33.3089 21.5996L33.293 21.6091C33.2737 21.6252 33.2585 21.6457 33.2486 21.669C33.2386 21.6923 33.2343 21.7177 33.2359 21.7431Z" fill="#37474F"/>
<path d="M32.7052 22.0615C32.709 22.1393 32.7308 22.2151 32.7689 22.2827C32.8069 22.3502 32.8601 22.4076 32.9241 22.4501C32.9526 22.4689 32.9857 22.4792 33.0196 22.4799C33.0454 22.4793 33.0705 22.4718 33.0926 22.4582L33.602 22.1576C33.6079 22.1556 33.6133 22.1524 33.6179 22.1482C33.6371 22.1317 33.6523 22.1109 33.6622 22.0874C33.6721 22.0639 33.6765 22.0383 33.675 22.0128C33.6706 21.9349 33.6484 21.8592 33.6102 21.7917C33.5719 21.7242 33.5187 21.6668 33.4547 21.6241C33.4338 21.6091 33.4095 21.5996 33.3841 21.5963C33.3587 21.593 33.3328 21.596 33.3088 21.6052L33.2929 21.6147L32.7822 21.9139C32.757 21.9286 32.7365 21.9503 32.7229 21.9764C32.7093 22.0025 32.7031 22.032 32.7052 22.0615Z" fill="#FAFAFA"/>
<path d="M32.7052 22.0614C32.7091 22.1393 32.731 22.2153 32.769 22.283C32.8071 22.3508 32.8602 22.4085 32.9241 22.4513C32.9454 22.4664 32.9698 22.4759 32.9955 22.4792C33.0211 22.4825 33.0471 22.4795 33.0714 22.4703L33.0873 22.4608C33.1067 22.4445 33.1219 22.4237 33.1319 22.4002C33.1418 22.3766 33.1461 22.351 33.1443 22.3254C33.1399 22.2474 33.1176 22.1715 33.0794 22.1038C33.0412 22.0361 32.988 21.9785 32.9241 21.9354C32.9029 21.9204 32.8784 21.9108 32.8528 21.9075C32.8271 21.9042 32.8011 21.9073 32.7769 21.9165L32.761 21.926C32.7419 21.9425 32.7269 21.9633 32.7173 21.9869C32.7076 22.0104 32.7035 22.0359 32.7052 22.0614Z" fill="#E0E0E0"/>
<path d="M37.0128 21.6363C37.818 21.0093 38.5901 21.0134 38.4508 19.4806C38.3327 18.8036 38.1682 18.7548 37.5222 18.4975C37.2383 18.3852 36.8589 18.2998 36.6321 18.5652C36.6072 18.5986 36.5797 18.6298 36.5498 18.6587C36.4829 18.7022 36.4062 18.7274 36.327 18.7318C36.1757 18.7393 36.0319 18.8012 35.921 18.9065C35.8454 18.9945 35.8162 19.115 35.7419 19.203C35.6706 19.272 35.5938 19.3349 35.5125 19.3912C35.4541 19.4429 35.4071 19.5064 35.3744 19.5778C35.3418 19.6492 35.3241 19.7268 35.3228 19.8056C35.3281 19.8956 35.3527 19.9834 35.3949 20.0627C35.4371 20.142 35.4958 20.2109 35.5668 20.2646L35.9728 20.0263C36.1386 19.9098 36.4808 20.3255 36.3336 20.5449C36.0988 20.8942 37.0128 21.6363 37.0128 21.6363Z" fill="#FFEDE5"/>
<path d="M27.6342 24.7181C27.8916 23.6565 27.9658 21.0039 27.9658 21.0039L20.4336 21.2341L20.8435 22.9091C20.9111 23.2867 20.9471 23.6694 20.951 24.0533C20.951 24.0533 21.6819 25.4358 23.8495 25.6781C25.1814 25.8077 26.5167 25.469 27.6342 24.7181Z" fill="#FFEDE5"/>
<path d="M27.9697 21.004C27.979 21.088 27.9259 21.8909 27.9259 21.8909C26.9628 22.7183 23.8732 23.1367 20.6298 22.0358L19.9426 19.3277C19.9426 19.3277 22.2747 18.2824 20.6988 14.7753L22.3928 14.6399L25.4001 14.5627H26.3871C27.1986 15.3675 27.8845 16.2945 28.4207 17.3115C28.8147 18.0616 29.3161 19.1611 27.9697 21.004Z" fill="#455A64"/>
<path d="M23.7075 21.0284C22.3504 20.675 22.0108 19.8097 21.914 19.1733C21.914 19.1733 21.658 21.0284 23.5974 21.4604C25.643 21.9153 26.484 20.262 26.484 20.262C26.484 20.262 25.3445 21.4549 23.7075 21.0284Z" fill="#37474F"/>
<path d="M12.1557 41.6709C11.7577 41.9674 10.8411 42.0392 10.0332 41.6519C9.22531 41.2646 8.88837 40.1624 9.03959 39.3107C9.22266 38.2722 9.72543 37.7048 9.85278 37.0792C9.98013 36.4537 9.85278 35.5898 10.0465 35.0319C10.1263 34.8175 10.2506 34.6232 10.4109 34.4624C10.5712 34.3016 10.7636 34.1781 10.9751 34.1003C11.1098 34.0471 11.2548 34.0262 11.3987 34.0391C11.5427 34.052 11.6818 34.0984 11.8055 34.1748L12.0443 34.3183L12.1557 41.6709Z" fill="#263238"/>
<path d="M13.104 37.7102L12.4752 39.6357C12.4752 39.6357 12.8732 41.0087 12.649 41.3743C12.3187 41.9159 11.7363 42.0107 10.756 41.7047C9.63506 41.3567 9.37107 40.3208 9.42944 39.5165C9.50904 38.3696 10.5477 37.5071 10.4283 36.4022C10.37 35.8606 10.4429 35.2553 10.7335 34.7895C11.0585 34.2695 11.5917 34.172 12.1449 34.3413C12.6198 34.4875 13.0364 34.7922 13.4383 35.0779C13.5537 35.1529 13.6582 35.244 13.7487 35.3487C13.8208 35.4467 13.8747 35.5573 13.9079 35.675C13.9807 35.9117 14.0024 36.1616 13.9716 36.4076C13.9424 36.6378 13.7978 36.7718 13.6638 36.9492L13.104 37.7102Z" fill="url(#paint1_linear_414_5628)"/>
<path d="M15.8143 36.7991C15.7759 36.7842 13.855 35.5303 13.648 35.4356C13.4411 35.3408 12.9317 35.2067 12.4395 36.3699C12.088 37.1972 12.5934 37.5032 12.5934 37.5032L14.8486 38.8708L15.8143 36.7991Z" fill="#FFEDE5"/>
<path d="M12.4753 39.6358C12.0689 39.4285 11.619 39.3257 11.1647 39.3366C11.131 39.3398 11.097 39.3345 11.0657 39.3212C11.0345 39.3079 11.0069 39.2869 10.9854 39.2602C10.9639 39.2334 10.9492 39.2017 10.9425 39.1678C10.9359 39.1339 10.9374 39.0989 10.9471 39.0658C10.9599 39.0263 10.9839 38.9916 11.016 38.966C11.0481 38.9405 11.0869 38.9252 11.1276 38.9222C11.4313 38.8978 12.1689 38.8884 12.6584 39.3C12.7884 39.5681 12.4753 39.6358 12.4753 39.6358Z" fill="url(#paint2_linear_414_5628)"/>
<path d="M12.7064 38.7555C12.3111 38.527 11.867 38.401 11.413 38.3885C11.3788 38.3903 11.3447 38.3833 11.3138 38.3683C11.2829 38.3533 11.2561 38.3307 11.2359 38.3025C11.2156 38.2743 11.2025 38.2414 11.1978 38.2068C11.1931 38.1722 11.1968 38.137 11.2087 38.1042C11.2233 38.0653 11.2489 38.0317 11.2822 38.0076C11.3154 37.9835 11.355 37.97 11.3957 37.9688C11.7008 37.9607 12.4384 37.9918 12.9067 38.4278C13.0221 38.7054 12.7064 38.7555 12.7064 38.7555Z" fill="url(#paint3_linear_414_5628)"/>
<path opacity="0.3" d="M12.4753 39.6358C12.0689 39.4285 11.619 39.3257 11.1647 39.3366C11.131 39.3398 11.097 39.3345 11.0657 39.3212C11.0345 39.3079 11.0069 39.2869 10.9854 39.2602C10.9639 39.2334 10.9492 39.2017 10.9425 39.1678C10.9359 39.1339 10.9374 39.0989 10.9471 39.0658C10.9599 39.0263 10.9839 38.9916 11.016 38.966C11.0481 38.9405 11.0869 38.9252 11.1276 38.9222C11.4313 38.8978 12.1689 38.8884 12.6584 39.3C12.7884 39.5681 12.4753 39.6358 12.4753 39.6358Z" fill="black"/>
<path opacity="0.3" d="M12.7064 38.7555C12.3111 38.527 11.867 38.401 11.413 38.3885C11.3788 38.3903 11.3447 38.3833 11.3138 38.3683C11.2829 38.3533 11.2561 38.3307 11.2359 38.3025C11.2156 38.2743 11.2025 38.2414 11.1978 38.2068C11.1931 38.1722 11.1968 38.137 11.2087 38.1042C11.2233 38.0653 11.2489 38.0317 11.2822 38.0076C11.3154 37.9835 11.355 37.97 11.3957 37.9688C11.7008 37.9607 12.4384 37.9918 12.9067 38.4278C13.0221 38.7054 12.7064 38.7555 12.7064 38.7555Z" fill="black"/>
<path d="M32.2823 41.8797L34.7776 40.8696C34.7351 40.2128 34.576 39.3381 34.7418 37.6198L31.9109 37.0701V39.9623L32.2823 41.8797Z" fill="#FFEDE5"/>
<path d="M39.4021 44.1163C39.4684 44.3213 39.4561 44.5444 39.3676 44.7405C39.2827 44.9233 38.3475 45.4609 37.0859 45.3742C36.1504 45.3073 35.2495 44.9861 34.4766 44.444C33.9963 44.119 33.4949 44.0581 32.8714 44.0215C32.2479 43.9849 31.4255 43.6667 31.2888 43.3688C31.1522 43.0709 31.3101 42.5564 31.3101 42.5564L39.4021 44.1163Z" fill="#263238"/>
<path d="M34.3118 40.0973L34.4113 40.0756C34.4654 40.0608 34.5219 40.058 34.5771 40.0675C34.6384 40.0868 34.6928 40.124 34.7337 40.1745C34.8571 40.3352 34.9647 40.508 35.0547 40.6904C35.32 41.1304 35.8745 41.496 36.4807 41.8278C36.8933 42.0539 37.2966 42.234 37.7224 42.4249C38.1482 42.6158 38.7319 42.7458 39.0715 42.9801C39.5663 43.32 39.6313 44.1757 39.0715 44.5129C38.586 44.8054 37.3059 45.1209 35.9634 44.7322C35.2311 44.521 34.4193 43.7235 33.4601 43.649C32.8499 43.6003 31.6945 43.4256 31.3018 42.953C31.1572 42.7431 31.3509 42.0769 31.5101 41.5028C31.6839 40.8759 31.7476 39.771 31.9518 39.8265C31.9518 39.8265 31.8961 39.9822 31.9757 40.0661C32.0553 40.1501 32.3352 40.318 32.4175 40.3884C32.555 40.5316 32.666 40.6991 32.7451 40.8826C32.778 40.9655 32.8393 41.0334 32.9176 41.0736C33.0211 41.1128 33.098 41.0465 33.1829 41.0045C33.2977 40.9521 33.427 40.943 33.5477 40.9788C33.5361 40.8544 33.5143 40.7312 33.4827 40.6105C33.4691 40.5723 33.4659 40.5312 33.4734 40.4913C33.4901 40.4542 33.5174 40.423 33.5517 40.402C33.7814 40.2473 34.0404 40.1435 34.3118 40.0973Z" fill="url(#paint4_linear_414_5628)"/>
<path d="M35.9106 41.4894C35.9106 41.4894 35.823 41.2498 35.4609 41.1821C35.1823 41.1293 34.6915 41.3378 34.3864 41.5883C34.3577 41.6125 34.3351 41.6434 34.3208 41.6785C34.3064 41.7135 34.3006 41.7516 34.3039 41.7895C34.3071 41.8273 34.3194 41.8638 34.3395 41.8957C34.3597 41.9277 34.3871 41.9541 34.4195 41.9728C34.4612 41.9971 34.5093 42.0074 34.5569 42.002C34.6046 41.9966 34.6494 41.976 34.6848 41.9431C35.0207 41.6359 35.4599 41.4734 35.9106 41.4894Z" fill="url(#paint5_linear_414_5628)"/>
<path d="M36.7712 41.981C36.7111 41.8944 36.6316 41.8238 36.5393 41.7751C36.447 41.7263 36.3445 41.7008 36.2406 41.7007C36.2406 41.7007 35.515 41.7223 35.0653 42.1489C35.0379 42.1724 35.0164 42.2023 35.0028 42.2361C34.9891 42.2698 34.9836 42.3064 34.9867 42.3428C34.9898 42.3792 35.0015 42.4143 35.0207 42.4451C35.0399 42.476 35.0661 42.5016 35.0971 42.5199C35.1365 42.5422 35.1818 42.5514 35.2265 42.546C35.2713 42.5407 35.3132 42.5211 35.3465 42.4901C35.5317 42.3021 35.7558 42.1587 36.0023 42.0706C36.2489 41.9825 36.5116 41.9519 36.7712 41.981Z" fill="url(#paint6_linear_414_5628)"/>
<path d="M37.7225 42.4254C37.6533 42.345 37.568 42.2809 37.4723 42.2372C37.3766 42.1935 37.2728 42.1713 37.168 42.1721C37.168 42.1721 36.4915 42.1979 36.0431 42.6244C36.0154 42.6476 35.9936 42.6774 35.9796 42.7112C35.9657 42.7449 35.9599 42.7816 35.9629 42.8181C35.9659 42.8546 35.9776 42.8898 35.9969 42.9207C36.0161 42.9516 36.0425 42.9772 36.0736 42.9954C36.1133 43.0177 36.1587 43.0268 36.2037 43.0214C36.2486 43.0161 36.2908 42.9966 36.3243 42.9656C36.5001 42.7707 36.7181 42.6204 36.9608 42.5266C37.2035 42.4328 37.4644 42.3981 37.7225 42.4254Z" fill="url(#paint7_linear_414_5628)"/>
<path opacity="0.3" d="M35.9106 41.4894C35.9106 41.4894 35.823 41.2498 35.4609 41.1821C35.1823 41.1293 34.6915 41.3378 34.3864 41.5883C34.3577 41.6125 34.3351 41.6434 34.3208 41.6785C34.3064 41.7135 34.3006 41.7516 34.3039 41.7895C34.3071 41.8273 34.3194 41.8638 34.3395 41.8957C34.3597 41.9277 34.3871 41.9541 34.4195 41.9728C34.4612 41.9971 34.5093 42.0074 34.5569 42.002C34.6046 41.9966 34.6494 41.976 34.6848 41.9431C35.0207 41.6359 35.4599 41.4734 35.9106 41.4894Z" fill="black"/>
<path opacity="0.3" d="M36.7712 41.981C36.7111 41.8944 36.6316 41.8238 36.5393 41.7751C36.447 41.7263 36.3445 41.7008 36.2406 41.7007C36.2406 41.7007 35.515 41.7223 35.0653 42.1489C35.0379 42.1724 35.0164 42.2023 35.0028 42.2361C34.9891 42.2698 34.9836 42.3064 34.9867 42.3428C34.9898 42.3792 35.0015 42.4143 35.0207 42.4451C35.0399 42.476 35.0661 42.5016 35.0971 42.5199C35.1365 42.5422 35.1818 42.5514 35.2265 42.546C35.2713 42.5407 35.3132 42.5211 35.3465 42.4901C35.5317 42.3021 35.7558 42.1587 36.0023 42.0706C36.2489 41.9825 36.5116 41.9519 36.7712 41.981Z" fill="black"/>
<path opacity="0.3" d="M37.7225 42.4254C37.6533 42.345 37.568 42.2809 37.4723 42.2372C37.3766 42.1935 37.2728 42.1713 37.168 42.1721C37.168 42.1721 36.4915 42.1979 36.0431 42.6244C36.0154 42.6476 35.9936 42.6774 35.9796 42.7112C35.9657 42.7449 35.9599 42.7816 35.9629 42.8181C35.9659 42.8546 35.9776 42.8898 35.9969 42.9207C36.0161 42.9516 36.0425 42.9772 36.0736 42.9954C36.1133 43.0177 36.1587 43.0268 36.2037 43.0214C36.2486 43.0161 36.2908 42.9966 36.3243 42.9656C36.5001 42.7707 36.7181 42.6204 36.9608 42.5266C37.2035 42.4328 37.4644 42.3981 37.7225 42.4254Z" fill="black"/>
<path d="M33.9883 27.3544C32.0913 26.9198 27.5611 25.953 27.5611 25.953L27.6341 24.7181C25.9958 25.5847 22.5427 25.3396 20.9508 24.0532L20.7001 25.3626C20.0966 26.1002 19.5739 26.9029 19.1414 27.7566C18.7779 28.4918 18.1704 29.6387 18.7753 32.3103C19.1308 33.8797 19.6044 38.0109 19.6044 38.0109L14.9614 36.2642C14.9614 36.2642 14.5634 36.3332 14.2265 37.2215C14.0275 37.7469 13.9612 38.2519 14.1628 38.5133C15.8608 39.8822 18.6121 42.1178 21.3926 43.3716C23.2498 44.0974 24.2367 42.5037 24.327 41.9133C24.6758 39.652 25.0778 32.3861 25.0778 32.3861L31.2861 32.1844C31.0805 33.3841 31.9162 38.0718 31.9162 38.0718C31.9162 38.0718 33.4444 38.7489 34.71 38.0556C34.71 38.0556 35.5563 32.661 35.6386 30.8614C35.7221 28.8547 35.823 27.7755 33.9883 27.3544Z" fill="url(#paint8_linear_414_5628)"/>
<path opacity="0.15" d="M31.286 32.1845C31.286 31.8609 31.497 30.7302 32.2146 30.1277C32.2146 30.1277 31.2303 30.3078 30.7793 32.2008L31.286 32.1845Z" fill="black"/>
<path opacity="0.15" d="M19.6042 38.011C19.6042 38.011 19.7369 39.7943 20.0712 40.6636C20.0712 40.6636 19.2341 39.12 19.1426 37.835L19.6042 38.011Z" fill="black"/>
<path opacity="0.15" d="M27.5598 25.9531L27.6327 24.7195C25.9944 25.5848 22.5427 25.3397 20.9521 24.0547L20.7014 25.3627C20.7147 25.3749 21.7361 26.4527 24.3919 26.5922C27.0477 26.7317 27.5598 25.9531 27.5598 25.9531Z" fill="black"/>
<path opacity="0.15" d="M25.0829 32.3861C25.061 31.7159 24.9057 31.0572 24.6265 30.4501C24.3474 29.8431 23.9503 29.3003 23.4592 28.8547C23.4592 28.8547 24.8866 29.5318 25.3642 31.6753C25.3642 31.6753 26.4254 31.1702 26.9799 29.6563C26.9799 29.6563 26.8101 31.1702 25.9558 32.0314L28.5307 32.2737L25.0829 32.3861Z" fill="black"/>
<path d="M24.2553 5.00025C23.7103 4.99936 23.1704 5.10814 22.6666 5.32038C22.1628 5.53261 21.705 5.84414 21.3192 6.23713C20.9334 6.63013 20.6274 7.09689 20.4185 7.61072C20.2096 8.12456 20.102 8.67538 20.1018 9.2317C20.1018 9.78813 20.2093 10.3391 20.4181 10.8531C20.6269 11.3671 20.933 11.834 21.3187 12.2271C21.7045 12.6203 22.1624 12.9319 22.6663 13.1442C23.1702 13.3566 23.7102 13.4654 24.2553 13.4645C25.3538 13.4627 26.4067 13.0159 27.1828 12.2223C27.9588 11.4286 28.3945 10.353 28.3942 9.2317C28.3942 8.11062 27.9583 7.03536 27.1823 6.242C26.4063 5.44865 25.3536 5.00204 24.2553 5.00025Z" fill="#263238"/>
<path d="M19.9241 7.57291C20.074 7.56591 20.2243 7.57453 20.3725 7.59864C20.4227 7.60201 20.4699 7.62419 20.5051 7.66093C20.5256 7.69131 20.5371 7.72701 20.5383 7.76384C20.5725 7.99892 20.5512 8.23896 20.4759 8.46389C20.4176 8.62096 20.2358 8.70085 20.1204 8.81459C19.672 9.25872 19.6362 9.99398 19.8127 10.6047C19.9891 11.2153 20.3433 11.7597 20.5728 12.35C20.8023 12.9404 20.9243 13.6513 20.5993 14.2457C20.4733 14.4732 20.2438 14.652 20.2717 14.9228C20.3035 15.2545 20.5874 15.5714 20.7094 15.8706C20.8434 16.2251 20.889 16.6081 20.8421 16.985C20.8085 17.4537 20.638 17.9013 20.3526 18.27C20.1344 18.5295 19.8528 18.7254 19.5363 18.8377C19.2199 18.9499 18.8799 18.9746 18.5511 18.9091C18.4125 18.8844 18.2813 18.8274 18.1677 18.7426C17.9727 18.5828 17.8945 18.3215 17.7883 18.0899C17.4474 17.3411 16.7271 16.7968 16.5082 16.002C16.2707 15.1557 16.6661 14.2755 17.1516 13.5565C17.3784 13.2207 17.6318 12.8917 17.7432 12.499C17.8931 11.9696 17.7618 11.4063 17.7273 10.8552C17.6944 10.3168 17.755 9.77683 17.9064 9.26008C18.0152 8.88635 18.1836 8.45576 18.4689 8.18766C18.8691 7.81621 19.3837 7.59882 19.9241 7.57291Z" fill="#263238"/>
<path d="M26.8475 6.93652C27.3011 7.21411 27.8596 8.38537 27.7946 10.8362C27.7389 12.9134 27.077 13.4238 26.7453 13.5714C26.4137 13.719 25.7743 13.6242 25.1534 13.5159V14.763C25.1534 14.763 26.0077 15.784 25.9494 16.3567C25.891 16.9295 24.7077 17.0581 23.9065 16.4921C23.1052 15.9261 22.4327 14.8388 22.4327 14.8388L22.4592 11.9709C22.4592 11.9709 22.0891 12.3365 21.4696 11.7814C20.9615 11.3223 20.7917 10.5519 21.1923 10.1457C21.5929 9.73943 22.3292 9.84911 22.6104 10.4395C22.6104 10.4395 23.6 10.4801 24.9226 9.7462C25.4371 9.46514 25.8795 9.06429 26.214 8.57613C26.5484 8.08798 26.7654 7.52627 26.8475 6.93652Z" fill="#FFEDE5"/>
<path d="M25.5235 10.3054C25.5238 10.3567 25.5092 10.407 25.4816 10.4499C25.454 10.4928 25.4146 10.5265 25.3684 10.5467C25.3222 10.567 25.2712 10.5729 25.2217 10.5637C25.1722 10.5545 25.1265 10.5306 25.0902 10.4951C25.0539 10.4595 25.0287 10.4139 25.0177 10.3638C25.0067 10.3137 25.0104 10.2614 25.0283 10.2134C25.0462 10.1655 25.0776 10.124 25.1185 10.0941C25.1593 10.0642 25.208 10.0473 25.2582 10.0454C25.3268 10.0454 25.3927 10.0724 25.4422 10.1209C25.4916 10.1693 25.5208 10.2355 25.5235 10.3054Z" fill="#263238"/>
<g style="mix-blend-mode:multiply" opacity="0.5">
<g style="mix-blend-mode:multiply" opacity="0.5">
<path d="M25.582 12.0671L26.175 12.2621C26.1642 12.3028 26.1455 12.3407 26.12 12.3738C26.0945 12.4069 26.0627 12.4344 26.0265 12.4546C25.9903 12.4748 25.9505 12.4874 25.9095 12.4915C25.8684 12.4957 25.827 12.4914 25.7876 12.4788C25.7077 12.4509 25.6415 12.3923 25.6031 12.3155C25.5647 12.2387 25.5572 12.1496 25.582 12.0671Z" fill="#F28F8F"/>
</g>
</g>
<path d="M27.6261 9.51202L27.1101 9.14372C27.1317 9.10805 27.1603 9.07727 27.194 9.05329C27.2277 9.0293 27.2658 9.0126 27.3061 9.00423C27.3464 8.99586 27.3879 8.99599 27.4281 9.00461C27.4683 9.01323 27.5064 9.03015 27.5399 9.05435C27.6085 9.10526 27.6555 9.18085 27.6715 9.26582C27.6875 9.35079 27.6713 9.43879 27.6261 9.51202Z" fill="#263238"/>
<path d="M27.504 10.1241C27.5045 10.1755 27.4901 10.2259 27.4627 10.269C27.4353 10.3121 27.396 10.346 27.3498 10.3664C27.3036 10.3869 27.2525 10.3929 27.203 10.3839C27.1534 10.3749 27.1076 10.3511 27.0711 10.3156C27.0347 10.2801 27.0094 10.2345 26.9983 10.1844C26.9871 10.1342 26.9908 10.0819 27.0086 10.0338C27.0265 9.9858 27.0579 9.9442 27.0988 9.91426C27.1397 9.88431 27.1884 9.86734 27.2387 9.86548C27.307 9.86541 27.3728 9.89226 27.4222 9.94044C27.4716 9.98862 27.5009 10.0544 27.504 10.1241Z" fill="#263238"/>
<g style="mix-blend-mode:multiply" opacity="0.5">
<g style="mix-blend-mode:multiply" opacity="0.5">
<path d="M26.2969 9.96948L26.3314 11.5429L27.1432 11.2897L26.2969 9.96948Z" fill="#F28F8F"/>
</g>
</g>
<g style="mix-blend-mode:multiply" opacity="0.5">
<g style="mix-blend-mode:multiply" opacity="0.5">
<path d="M25.1547 13.5162C24.4993 13.4268 23.1542 13.026 22.9473 12.4817C23.0306 12.7568 23.1945 12.9992 23.4169 13.1763C23.8175 13.5311 25.152 13.9373 25.152 13.9373L25.1547 13.5162Z" fill="#F28F8F"/>
</g>
</g>
<path d="M20.6987 14.7766C19.4146 14.87 18.8853 15.0366 18.1703 16.6561C17.5269 18.1117 15.9881 21.8787 15.6034 22.7182C15.2187 23.5577 15.1457 23.8949 15.4707 24.7737C15.7361 25.49 17.9037 29.605 18.1411 30.2048C18.3786 30.8047 18.4834 31.4113 18.888 32.11C19.2926 32.8087 19.932 33.4911 20.4374 33.6523C21.1869 33.8919 22.1619 33.5588 22.1898 33.0971C22.2177 32.6354 21.0901 31.8649 20.7836 30.8399C20.9876 30.9766 21.2023 31.0957 21.4257 31.196C21.7295 31.3233 22.0691 31.2948 22.1699 31.1188C22.2707 30.9428 21.9669 30.8358 21.6963 30.5609C21.5345 30.3971 21.2479 30.0288 20.8818 29.7038C20.6337 29.4844 20.2278 29.4195 20.0447 29.1784C19.9466 29.0498 19.5009 27.9354 19.1652 26.9429C18.7513 25.712 18.2061 24.0736 18.2061 24.0736L20.4374 19.3344C20.4374 19.3344 22.1871 17.5524 20.6987 14.7766Z" fill="#FFEDE5"/>
<path d="M18.1373 30.2047C18.1373 30.2047 18.6507 29.1445 20.0409 29.1783L19.6735 28.3442C19.6735 28.3442 18.3164 28.4417 17.7446 29.3801L18.1373 30.2047Z" fill="#37474F"/>
<path d="M17.9873 29.3043L18.2858 29.7362C18.3074 29.7676 18.335 29.7942 18.3669 29.8145C18.3988 29.8348 18.4344 29.8483 18.4715 29.8543C18.5087 29.8602 18.5466 29.8585 18.5831 29.8491C18.6195 29.8398 18.6538 29.823 18.6838 29.7998L19.2144 29.3936C19.2761 29.3454 19.3174 29.275 19.33 29.1968C19.3425 29.1185 19.3254 29.0383 19.282 28.9725L19.0048 28.5555C18.9839 28.5233 18.9569 28.4957 18.9253 28.4746C18.8936 28.4534 18.8581 28.439 18.8209 28.4323C18.7837 28.4256 18.7455 28.4267 18.7087 28.4355C18.6719 28.4444 18.6372 28.4607 18.6068 28.4837L18.0443 28.8899C17.9831 28.9372 17.9427 29.0074 17.932 29.0851C17.9213 29.1627 17.9412 29.2415 17.9873 29.3043Z" fill="#263238"/>
<path d="M17.8878 29.2937L18.1889 29.7256C18.2107 29.7569 18.2383 29.7834 18.2702 29.8035C18.3021 29.8237 18.3377 29.8372 18.3748 29.8431C18.4119 29.849 18.4498 29.8473 18.4862 29.8381C18.5226 29.8288 18.5569 29.8122 18.5869 29.7892L19.1175 29.383C19.1792 29.3348 19.2206 29.2645 19.2334 29.1864C19.2462 29.1082 19.2294 29.028 19.1865 28.9619L18.9093 28.5449C18.8883 28.5128 18.8612 28.4855 18.8295 28.4644C18.7979 28.4433 18.7625 28.429 18.7253 28.4223C18.6881 28.4156 18.65 28.4167 18.6132 28.4254C18.5764 28.4341 18.5418 28.4503 18.5113 28.4731L17.9488 28.8861C17.8886 28.9325 17.8485 29.0011 17.8371 29.0772C17.8257 29.1534 17.8439 29.231 17.8878 29.2937Z" fill="#455A64"/>
<path d="M19.1321 29.1512C19.1254 29.2047 19.0982 29.2534 19.0564 29.2866L18.5258 29.6928C18.5074 29.7078 18.486 29.7186 18.4631 29.7245C18.4402 29.7303 18.4164 29.731 18.3932 29.7266C18.3704 29.7231 18.3486 29.7149 18.329 29.7025C18.3094 29.6902 18.2924 29.674 18.2791 29.6549L17.9766 29.2216C17.9511 29.1856 17.9397 29.1411 17.9448 29.097C17.9466 29.0702 17.9542 29.0442 17.967 29.0208C17.9799 28.9974 17.9976 28.9772 18.0191 28.9616L18.5815 28.5554C18.6003 28.5411 18.6218 28.531 18.6447 28.5257C18.6675 28.5203 18.6912 28.5198 18.7142 28.5242C18.7369 28.5283 18.7586 28.537 18.778 28.5498C18.7973 28.5626 18.814 28.5792 18.8269 28.5987L19.1042 29.0158C19.1302 29.0556 19.1415 29.1036 19.136 29.1512H19.1321Z" fill="url(#paint9_linear_414_5628)"/>
</g>
</g>
<defs>
<linearGradient id="paint0_linear_414_5628" x1="50" y1="50" x2="-16.6397" y2="44.8434" gradientUnits="userSpaceOnUse">
<stop stop-color="#C58BF2"/>
<stop offset="1" stop-color="#EEA4CE"/>
</linearGradient>
<linearGradient id="paint1_linear_414_5628" x1="13.9852" y1="41.8774" x2="7.87996" y2="41.5942" gradientUnits="userSpaceOnUse">
<stop stop-color="#92A3FD"/>
<stop offset="1" stop-color="#9DCEFF"/>
</linearGradient>
<linearGradient id="paint2_linear_414_5628" x1="12.69" y1="39.6358" x2="10.4213" y2="39.2106" gradientUnits="userSpaceOnUse">
<stop stop-color="#92A3FD"/>
<stop offset="1" stop-color="#9DCEFF"/>
</linearGradient>
<linearGradient id="paint3_linear_414_5628" x1="12.9321" y1="38.7555" x2="10.6699" y2="38.3697" gradientUnits="userSpaceOnUse">
<stop stop-color="#92A3FD"/>
<stop offset="1" stop-color="#9DCEFF"/>
</linearGradient>
<linearGradient id="paint4_linear_414_5628" x1="39.4674" y1="44.9131" x2="28.6204" y2="43.5578" gradientUnits="userSpaceOnUse">
<stop stop-color="#92A3FD"/>
<stop offset="1" stop-color="#9DCEFF"/>
</linearGradient>
<linearGradient id="paint5_linear_414_5628" x1="35.9106" y1="42.0034" x2="33.8026" y2="41.6873" gradientUnits="userSpaceOnUse">
<stop stop-color="#92A3FD"/>
<stop offset="1" stop-color="#9DCEFF"/>
</linearGradient>
<linearGradient id="paint6_linear_414_5628" x1="36.7712" y1="42.5475" x2="34.4395" y2="42.1671" gradientUnits="userSpaceOnUse">
<stop stop-color="#92A3FD"/>
<stop offset="1" stop-color="#9DCEFF"/>
</linearGradient>
<linearGradient id="paint7_linear_414_5628" x1="37.7225" y1="43.0229" x2="35.4213" y2="42.6545" gradientUnits="userSpaceOnUse">
<stop stop-color="#92A3FD"/>
<stop offset="1" stop-color="#9DCEFF"/>
</linearGradient>
<linearGradient id="paint8_linear_414_5628" x1="35.6755" y1="43.5575" x2="6.88006" y2="41.0858" gradientUnits="userSpaceOnUse">
<stop stop-color="#92A3FD"/>
<stop offset="1" stop-color="#9DCEFF"/>
</linearGradient>
<linearGradient id="paint9_linear_414_5628" x1="19.1374" y1="29.7295" x2="17.5461" y2="29.6078" gradientUnits="userSpaceOnUse">
<stop stop-color="#92A3FD"/>
<stop offset="1" stop-color="#9DCEFF"/>
</linearGradient>
<clipPath id="clip0_414_5628">
<rect width="32.7556" height="40.3836" fill="white" transform="translate(9 5.00024)"/>
</clipPath>
</defs>
</svg>
