<svg width="40" height="40" viewBox="0 0 40 40" fill="none" xmlns="http://www.w3.org/2000/svg">
<circle opacity="0.2" cx="20" cy="20" r="20" fill="url(#paint0_linear_430_21)"/>
<g clip-path="url(#clip0_430_21)">
<path d="M16.5592 17.7328C16.5592 17.7328 17.1497 12.966 17.0164 11.2251C16.9481 10.3322 16.513 10.1302 15.8481 10.1811C15.1832 10.232 11.3809 12.2394 11.3809 12.2394L11.9227 13.5381L15.0849 12.5501C15.0849 12.5501 14.7627 14.4047 14.6884 14.7569C14.614 15.1092 14.4585 15.5837 14.3345 16.0089C14.2738 16.2186 14.1892 16.4902 14.1892 16.6217C14.1909 16.9324 16.5592 17.7328 16.5592 17.7328Z" fill="#FFEDE5"/>
<path d="M15.0848 12.5503C15.5258 12.4654 15.966 12.2065 16.1044 12.0002C16.0333 12.2322 15.8764 12.4287 15.6652 12.5503C15.4641 12.679 15.2512 12.7884 15.0293 12.877L15.0848 12.5503Z" fill="#F28F8F"/>
<path d="M22.5451 17.6479C22.4793 17.4051 22.0502 17.1496 20.7717 16.9366C19.4931 16.7235 18.3299 16.9366 18.3231 17.0868C18.3163 17.2371 18.6385 18.2412 20.1127 18.4245C21.587 18.6079 22.6801 18.1809 22.5451 17.6479Z" fill="#263238"/>
<path d="M18.6993 19.7117C18.6993 19.7117 17.866 14.3439 17.9856 13.2481C18.1096 12.1158 18.542 11.5904 19.2676 11.5166C20.2154 12.0632 20.7205 13.3695 21.3265 14.6571C21.9324 15.9447 22.5888 18.7067 22.6238 20.0266C22.6589 21.3464 21.6076 22.2869 20.4171 22.4584C19.2266 22.6298 18.6993 19.7117 18.6993 19.7117Z" fill="#FFEDE5"/>
<path d="M20.0084 15.509C19.6239 15.202 19.3641 14.7673 19.2769 14.2851L20.4691 13.8726L21.2733 14.5372L21.2973 14.5889C21.3075 14.611 21.3178 14.6331 21.3289 14.6551C21.352 14.7044 21.375 14.7561 21.3981 14.8088C21.4041 14.8241 21.4109 14.8393 21.4178 14.8555C21.4357 14.8962 21.4528 14.9403 21.4707 14.9828L21.4887 15.0269C21.5126 15.0855 21.5357 15.1457 21.5596 15.2077C21.5827 15.2697 21.6058 15.3333 21.6289 15.3978C21.634 15.4123 21.6391 15.4258 21.6434 15.4394L21.7049 15.6177C21.7049 15.6262 21.7109 15.6355 21.7143 15.644C21.7622 15.7883 21.81 15.9377 21.8562 16.0904L21.8639 16.1151C21.887 16.1906 21.9092 16.267 21.9314 16.3442C21.9314 16.3442 20.8238 16.1864 20.0084 15.509Z" fill="#F28F8F"/>
<path d="M19.0161 11.5624C19.4691 11.385 20.0204 11.8001 20.3118 11.9868C20.9041 12.3637 24.5252 15.1664 25.3696 15.8234C25.5525 15.9337 25.7388 16.0398 25.9285 16.14L24.9337 17.6848C24.852 17.4627 24.7242 17.2603 24.5585 17.0906C23.656 16.4506 21.9091 16.1018 20.7844 15.6672C19.9092 15.3277 19.7264 15.1375 19.4315 14.641C19.2059 14.248 18.3914 11.8561 19.0161 11.5624Z" fill="#FFEDE5"/>
<path d="M18.6811 19.7413L18.323 17.0872C18.323 17.0872 18.6443 17.8188 20.2989 18.0115C21.9536 18.2042 22.5868 17.9266 22.545 17.6482C22.545 17.6482 22.9774 19.3101 22.8099 20.3898C22.6424 21.4695 20.9818 22.6196 20.9818 22.6196L18.6811 19.7413Z" fill="#37474F"/>
<path opacity="0.15" d="M19.4137 20.1045C19.2615 20.1045 19.1188 20.1139 18.9863 20.1223L20.8255 22.42H21.2529C21.7298 22.044 22.6861 21.1986 22.8109 20.3923C22.934 19.6003 22.734 18.4969 22.6186 17.9639C22.6844 18.5767 21.3041 20.0646 19.4137 20.1045Z" fill="black"/>
<path d="M27.6969 13.8939C27.0986 13.7835 26.8209 14.2122 26.6004 14.5661C26.3799 14.9201 26.0107 15.5694 25.8457 15.6789C25.6808 15.7884 25.5893 15.6789 25.3543 15.8546C25.1193 16.0303 24.9475 16.3639 25.0201 16.4852L25.191 16.7806C25.0925 16.7699 24.9928 16.7824 24.9 16.817C24.8072 16.8517 24.7239 16.9075 24.6569 16.9801C24.4005 17.2347 24.5338 17.2772 24.6783 17.4215C24.8227 17.5658 25.162 18.2176 25.5021 18.395C25.5021 18.395 26.4183 18.1226 27.0824 17.0904C27.7464 16.0583 27.6969 13.8939 27.6969 13.8939Z" fill="url(#paint1_linear_430_21)"/>
<path d="M25.6913 18.5316C25.6562 18.5254 25.6228 18.5121 25.5933 18.4924C25.5637 18.4727 25.5386 18.4471 25.5196 18.4172C25.5005 18.3874 25.4879 18.3539 25.4826 18.3189C25.4773 18.284 25.4794 18.2483 25.4887 18.2142C25.5899 17.8959 25.742 17.5959 25.9391 17.3255C26.169 17.0013 26.5997 16.3918 26.6724 16.0583C26.745 15.7247 26.9014 14.7902 27.157 14.3989C27.4125 14.0076 27.6749 13.7818 28.0116 13.9083C28.3484 14.0347 27.2852 16.5395 26.9732 16.9639C26.6613 17.3883 25.6913 18.5316 25.6913 18.5316Z" fill="#37474F"/>
<path d="M25.8877 18.4774C26.7295 18.0318 27.0064 17.5989 27.2551 17.0345C27.5038 16.47 28.085 15.9497 28.2354 15.443C28.3858 14.9363 28.4012 13.6368 27.8226 13.9517C27.244 14.2666 27.1235 15.4286 26.8697 16.1C26.6158 16.7713 25.0621 18.9162 25.8877 18.4774Z" fill="#263238"/>
<path d="M20.8281 19.8499C21.2127 19.7913 21.952 19.9492 22.6229 20.8795C23.3433 21.8785 23.4775 23.6219 23.0254 23.7654C23.0254 23.7654 21.9776 23.6431 21.258 23.2688C20.5384 22.8945 19.3291 20.366 20.8281 19.8499Z" fill="#263238"/>
<path d="M33.1181 28.1681C32.002 27.7326 31.0884 26.984 30.2978 26.1471C29.6619 25.2898 26.9373 21.6188 26.4647 21.1019C26.2938 20.9185 25.8887 20.4466 25.3272 20.3286C23.3392 19.9042 19.6583 19.967 19.6583 19.967L18.243 19.7302L15.4226 22.3666C15.8115 22.7782 16.2995 23.1373 17.0131 23.5065C17.7267 23.8757 18.4985 24.1439 19.5395 24.0565C21.6231 23.8817 22.8726 23.2968 23.9879 23.038C24.311 22.9633 24.646 22.8945 24.8998 23.4208C25.1537 23.947 25.1742 24.211 25.9254 24.7703C26.8886 25.4884 28.4791 26.2914 29.1731 27.147C29.2874 27.3567 29.3555 27.5881 29.3731 27.826C29.4389 28.7283 30.2012 28.5509 30.8157 28.943C31.1507 29.1569 31.3994 29.4166 31.8028 29.5049C32.1701 29.5799 32.5496 29.573 32.9139 29.4845C33.2421 29.4073 33.7121 29.1722 33.8737 28.8547C34.0856 28.432 33.4395 28.2928 33.1181 28.1681Z" fill="#FFEDE5"/>
<path d="M33.1181 28.1681C32.002 27.7326 31.0884 26.984 30.2978 26.1471C29.6619 25.2898 26.9373 21.6188 26.4647 21.1019C26.2938 20.9185 25.8887 20.4466 25.3272 20.3286C23.3392 19.9042 19.6583 19.967 19.6583 19.967L18.243 19.7302L15.4226 22.3666C15.8115 22.7782 16.2995 23.1373 17.0131 23.5065C17.7267 23.8757 18.4985 24.1439 19.5395 24.0565C21.6231 23.8817 22.8726 23.2968 23.9879 23.038C24.311 22.9633 24.646 22.8945 24.8998 23.4208C25.1537 23.947 25.1742 24.211 25.9254 24.7703C26.8886 25.4884 28.4791 26.2914 29.1731 27.147C29.2874 27.3567 29.3555 27.5881 29.3731 27.826C29.4389 28.7283 30.2012 28.5509 30.8157 28.943C31.1507 29.1569 31.3994 29.4166 31.8028 29.5049C32.1701 29.5799 32.5496 29.573 32.9139 29.4845C33.2421 29.4073 33.7121 29.1722 33.8737 28.8547C34.0856 28.432 33.4395 28.2928 33.1181 28.1681Z" fill="#FFEDE5"/>
<path d="M25.8612 24.3424C25.6496 24.1095 25.489 23.8355 25.3895 23.5378C25.313 23.2889 25.2146 23.0472 25.0955 22.8155C24.7485 22.2213 22.4461 22.9793 21.4265 23.2899C21.3692 23.3748 21.1299 23.6295 21.0444 23.8417C22.2794 23.5913 23.1682 23.2271 23.9861 23.037C24.3092 22.9623 24.6442 22.8936 24.8981 23.4198C25.1519 23.9461 25.1724 24.21 25.9236 24.7694C26.3151 25.0614 26.8099 25.3635 27.3065 25.6852C26.7518 25.2574 26.3339 24.8288 25.8612 24.3424Z" fill="#F28F8F"/>
<path d="M18.4615 19.7302C18.4615 19.7302 20.4845 19.8287 20.828 19.8533C20.828 19.8533 20.0665 20.057 20.993 21.9167C21.9194 23.7764 23.0262 23.7662 23.0262 23.7662C21.5733 24.228 20.8186 24.7466 18.9666 24.5301C16.759 24.2135 15.4207 22.572 15.4207 22.572L18.4615 19.7302Z" fill="#455A64"/>
<path opacity="0.15" d="M23.0211 23.7662C23.0043 23.7672 22.9874 23.7672 22.9706 23.7662C22.8057 23.7475 22.3151 23.6406 21.7656 23.0591C21.3293 23.1747 20.8868 23.2651 20.44 23.3299C18.7888 23.5701 17.5504 23.2807 15.7053 22.3037L15.4207 22.5702C16.1529 23.3904 17.0923 24.0016 18.1419 24.3408C18.206 24.3603 18.2718 24.3799 18.3384 24.3977C18.4008 24.4138 18.4641 24.4299 18.5273 24.4444L18.5444 24.4486C18.6025 24.4622 18.6623 24.4741 18.7222 24.486L18.7538 24.4919C18.8239 24.5055 18.894 24.5174 18.9657 24.5275C19.082 24.5411 19.1931 24.5513 19.3008 24.5598C19.4085 24.5683 19.5119 24.5725 19.6127 24.5759H19.7606C19.8093 24.5759 19.8571 24.5759 19.9041 24.5759C20.0452 24.5759 20.1793 24.5649 20.3084 24.5522C20.3939 24.5437 20.4776 24.5335 20.5597 24.5216C20.7573 24.4919 20.953 24.4511 21.146 24.3994C21.2212 24.379 21.2955 24.3578 21.369 24.3349C21.5545 24.2788 21.7374 24.216 21.9254 24.1481L22.1536 24.0633C22.4237 23.9648 22.7074 23.8612 23.0253 23.7602L23.0211 23.7662Z" fill="black"/>
<path d="M11.6971 17.1983C10.875 17.4818 10.0981 17.9775 10.757 19.4281C11.6971 21.5229 15.9584 23.8486 18.1463 24.3425C17.0353 22.673 17.96 20.9032 18.6856 19.7413L18.4899 18.3221C18.4899 18.3221 17.8335 18.0089 16.7464 17.1745C15.6593 16.3402 15.208 16.1135 13.5902 16.6024C12.4783 16.9385 11.6971 17.1983 11.6971 17.1983Z" fill="url(#paint2_linear_430_21)"/>
<path opacity="0.05" d="M15.0274 21.9327C12.79 20.6595 12.0866 19.5255 11.2088 18.4365L10.6345 19.1325C10.6499 19.1775 10.667 19.2234 10.6858 19.2709C10.6855 19.2734 10.6855 19.276 10.6858 19.2785C10.7046 19.3269 10.726 19.377 10.749 19.4279C11.1661 20.3446 12.2131 21.3054 13.4438 22.1415C13.6147 22.2603 13.7993 22.3766 13.9805 22.4895C14.0719 22.5464 14.1634 22.6024 14.2557 22.6593C14.8816 23.0314 15.5294 23.3659 16.1957 23.6608C16.8209 23.9474 17.4719 24.1748 18.1401 24.3399C17.8967 23.9807 17.7341 23.5736 17.6632 23.1465C16.8854 22.9139 16.0513 22.5158 15.0274 21.9327Z" fill="black"/>
<path d="M11.08 17.4826C11.08 17.4826 8.32032 16.0176 7.88359 15.8198L10.2988 14.4117L9.78604 13.0901C9.78604 13.0901 6.19651 14.3573 5.51279 14.7215C5.15469 14.9141 5 15.0729 5 15.3462C5 15.802 5.43673 16.3927 6.04182 16.9046C7.32807 17.9935 9.07326 19.0079 10.7732 19.9347C11.1629 20.2216 11.568 20.5824 11.568 20.5824C12.015 20.8047 12.6654 18.7524 11.08 17.4826Z" fill="#FFEDE5"/>
<path d="M13.6636 12.3907C13.4912 11.9933 13.1669 11.6801 12.7621 11.5201C12.3572 11.3602 11.9049 11.3665 11.5047 11.5377C11.1046 11.7089 10.7892 12.0309 10.6282 12.433C10.4671 12.8351 10.4734 13.2843 10.6458 13.6817C10.6569 13.7089 10.6706 13.7335 10.6834 13.7589L10.2664 14.6604L9.65015 13.5323C9.6504 13.4435 9.6174 13.3577 9.55754 13.2916C9.49768 13.2256 9.41524 13.184 9.32624 13.175C9.2811 13.1711 9.23566 13.1765 9.19266 13.1906C9.14966 13.2048 9.11001 13.2275 9.07612 13.2573C9.04222 13.2872 9.0148 13.3236 8.9955 13.3643C8.9762 13.405 8.96544 13.4492 8.96387 13.4941L9.43478 13.5349C9.33144 13.6029 9.25223 13.7015 9.2083 13.8167C9.09634 14.1069 9.48606 14.6986 10.0082 15.218C10.0082 15.218 10.7475 16.2544 10.927 16.3995C11.0426 16.4869 11.1876 16.527 11.3321 16.5116L11.3765 14.4745C11.6767 14.6354 12.0199 14.6994 12.3584 14.6577C12.6969 14.616 13.014 14.4706 13.2655 14.2418C13.517 14.0129 13.6904 13.7119 13.7618 13.3806C13.8331 13.0494 13.7988 12.7043 13.6636 12.3932V12.3907Z" fill="#263238"/>
<path d="M10.6296 15.0119C10.5612 15.1061 10.3527 14.9864 10.1877 14.9168C10.0228 14.8472 9.58094 14.8447 9.56385 15.3123C9.54675 15.78 10.1254 16.1611 10.4578 16.1263C11.0304 16.0678 10.9706 15.7138 10.9706 15.7138L11.8116 17.5633C12.785 18.093 14.5969 17.2595 13.5098 16.7358L13.2696 16.1866C13.4774 16.1311 13.6781 16.0523 13.8679 15.9515C14.2097 15.7359 14.3217 15.3454 14.261 14.8981C14.1644 14.1809 14.0046 13.6343 13.3089 12.4366C12.5397 11.1278 10.9159 11.8051 10.2818 12.7244C9.6476 13.6436 10.6296 15.0119 10.6296 15.0119Z" fill="#FFEDE5"/>
<path d="M10.697 15.1688C10.6509 15.19 10.3475 14.9744 10.1842 14.9192C9.96286 14.8437 9.60305 13.4525 9.60305 13.4525C9.60305 13.4525 9.30906 13.1937 9.47058 12.7268C9.60305 12.344 10.0919 12.0877 10.4304 11.9179C11.0406 11.6115 11.7234 11.2627 12.0226 10.621C12.0465 10.57 12.0807 10.5123 12.1371 10.5115C12.1546 10.513 12.1716 10.518 12.1872 10.5262C12.2028 10.5344 12.2165 10.5455 12.2277 10.559C12.3686 10.7161 12.448 10.9182 12.4516 11.1285C12.4516 11.1481 12.4576 11.1727 12.4772 11.1786C12.4969 11.1846 12.5114 11.1684 12.5234 11.154C12.5855 11.0785 12.6327 10.9922 12.6627 10.8994C12.7037 10.7729 12.9191 11.0946 12.9345 11.1387C12.9849 11.2784 13.0066 11.4266 12.9984 11.5747C12.9902 11.7228 12.9522 11.8678 12.8866 12.0011C12.7533 12.2668 12.479 12.4314 12.2277 12.5766C11.6679 12.9008 10.7107 13.2098 10.5774 13.2463C10.3962 13.2964 10.4312 13.4771 10.5338 13.9669C10.6278 14.3998 10.8517 15.0966 10.697 15.1688Z" fill="#263238"/>
<path d="M13.2696 16.1865C13.2696 16.1865 12.2697 16.3962 11.9142 16.3698C11.7056 16.3548 11.5065 16.2773 11.3433 16.1475C11.4593 16.2971 11.6047 16.4218 11.7706 16.5141C12.0988 16.6924 13.3637 16.408 13.3637 16.408L13.2696 16.1865Z" fill="#F28F8F"/>
<path d="M11.7074 13.6021L11.41 13.9246C11.3671 13.8833 11.3421 13.827 11.34 13.7677C11.3379 13.7084 11.359 13.6506 11.3989 13.6063C11.4186 13.5856 11.4424 13.569 11.4687 13.5575C11.4951 13.5461 11.5235 13.54 11.5522 13.5396C11.581 13.5392 11.6095 13.5445 11.6362 13.5552C11.6628 13.566 11.687 13.5819 11.7074 13.6021Z" fill="#263238"/>
<path d="M12.6653 15.2496L13.1054 15.2292C13.1081 15.258 13.1049 15.287 13.0961 15.3145C13.0872 15.342 13.0729 15.3675 13.0539 15.3893C13.0349 15.4112 13.0117 15.429 12.9856 15.4418C12.9595 15.4545 12.9311 15.4619 12.902 15.4635C12.8424 15.4652 12.7844 15.4438 12.7402 15.404C12.6961 15.3641 12.6692 15.3088 12.6653 15.2496Z" fill="#F28F8F"/>
<path d="M13.5174 13.0901L13.0901 12.9815C13.0959 12.9532 13.1074 12.9264 13.124 12.9027C13.1405 12.879 13.1618 12.8589 13.1864 12.8436C13.211 12.8282 13.2385 12.818 13.2672 12.8136C13.2959 12.8091 13.3252 12.8105 13.3533 12.8177C13.4105 12.8338 13.4592 12.871 13.4897 12.9216C13.5202 12.9722 13.5301 13.0325 13.5174 13.0901Z" fill="#263238"/>
<path d="M12.6055 13.7546L12.8969 14.7961L13.4097 14.4871L12.6055 13.7546Z" fill="#F28F8F"/>
<path d="M11.7944 14.2215C11.7946 14.2591 11.806 14.2957 11.8271 14.3269C11.8483 14.358 11.8782 14.3823 11.9132 14.3965C11.9482 14.4108 11.9867 14.4145 12.0237 14.407C12.0608 14.3996 12.0949 14.3814 12.1215 14.3548C12.1482 14.3282 12.1664 14.2943 12.1737 14.2574C12.181 14.2206 12.1772 14.1824 12.1627 14.1477C12.1481 14.113 12.1236 14.0834 12.0921 14.0625C12.0607 14.0416 12.0237 14.0305 11.9859 14.0305C11.9607 14.0305 11.9357 14.0355 11.9124 14.0451C11.8891 14.0547 11.868 14.0688 11.8502 14.0865C11.8324 14.1043 11.8183 14.1253 11.8088 14.1485C11.7992 14.1716 11.7943 14.1965 11.7944 14.2215Z" fill="#263238"/>
<path d="M13.1799 13.6826C13.1798 13.7191 13.1905 13.7548 13.2108 13.7853C13.2311 13.8157 13.2601 13.8394 13.294 13.8535C13.3279 13.8675 13.3653 13.8712 13.4014 13.8641C13.4374 13.8571 13.4705 13.8395 13.4965 13.8137C13.5225 13.7879 13.5402 13.755 13.5473 13.7192C13.5545 13.6834 13.5507 13.6463 13.5366 13.6126C13.5224 13.5789 13.4985 13.5501 13.4679 13.53C13.4373 13.5098 13.4013 13.4991 13.3645 13.4993C13.3156 13.4995 13.2688 13.5189 13.2343 13.5532C13.1997 13.5875 13.1802 13.6341 13.1799 13.6826Z" fill="#263238"/>
<path d="M29.2618 28.0151C29.1892 28.0644 29.302 28.375 29.3678 28.4514C29.5049 28.5838 29.6742 28.6785 29.8592 28.7264C30.1957 28.8288 30.5101 28.9922 30.7865 29.2085C31.1274 29.4826 31.5239 29.6804 31.9488 29.7883C32.4531 29.8994 33.0359 29.7577 33.5445 29.4581C34.0778 29.1449 34.0282 28.8444 33.9555 28.6441L29.2618 28.0151Z" fill="#37474F"/>
<path d="M30.4156 26.272C30.5865 26.4519 31.5164 27.3652 32.23 27.5978C32.7983 27.7828 33.5376 27.9594 33.8615 28.3031C34.1982 28.6613 33.6966 29.1197 33.0069 29.3828C32.2873 29.6561 31.7984 29.4354 31.3206 29.1969C30.9848 29.0271 30.4899 28.6876 30.2412 28.551C29.9925 28.4143 29.5319 28.3396 29.3396 28.1368C29.2336 28.0247 29.1575 27.7124 29.1114 27.4382C29.0695 27.1836 28.9003 26.9536 28.9866 26.94L29.1268 27.0919C29.7763 27.2107 30.4532 26.6149 30.4156 26.272Z" fill="url(#paint3_linear_430_21)"/>
<path d="M7.88367 15.8198C7.47409 16.0396 7.03179 16.1929 6.57349 16.2739C6.57349 16.2739 7.29908 16.4547 8.16228 15.9582L7.88367 15.8198Z" fill="#F28F8F"/>
</g>
<defs>
<linearGradient id="paint0_linear_430_21" x1="40" y1="40" x2="-13.3117" y2="35.8747" gradientUnits="userSpaceOnUse">
<stop stop-color="#92A3FD"/>
<stop offset="1" stop-color="#9DCEFF"/>
</linearGradient>
<linearGradient id="paint1_linear_430_21" x1="27.6977" y1="18.395" x2="23.439" y2="18.1627" gradientUnits="userSpaceOnUse">
<stop stop-color="#92A3FD"/>
<stop offset="1" stop-color="#9DCEFF"/>
</linearGradient>
<linearGradient id="paint2_linear_430_21" x1="18.6856" y1="24.3425" x2="7.79186" y2="23.4805" gradientUnits="userSpaceOnUse">
<stop stop-color="#92A3FD"/>
<stop offset="1" stop-color="#9DCEFF"/>
</linearGradient>
<linearGradient id="paint3_linear_430_21" x1="33.9689" y1="29.5091" x2="27.3511" y2="28.7171" gradientUnits="userSpaceOnUse">
<stop stop-color="#92A3FD"/>
<stop offset="1" stop-color="#9DCEFF"/>
</linearGradient>
<clipPath id="clip0_430_21">
<rect width="29" height="19.6529" fill="white" transform="translate(5 10.1736)"/>
</clipPath>
</defs>
</svg>
