<svg width="284" height="114" viewBox="0 0 284 114" fill="none" xmlns="http://www.w3.org/2000/svg">
<path opacity="0.3" d="M3.10289 95.1809C3.10289 95.1809 13.6444 41.135 50.1429 41.135C76.6655 41.135 95.6816 69.6584 120.703 69.6584C154.337 69.6584 167.637 15.6126 201.271 15.6126C226.293 15.6126 202.272 64.655 235.801 64.655C266.827 64.655 254.316 23.1197 283.6 14.1131" stroke="white" stroke-width="0.8" stroke-linecap="round"/>
<path opacity="0.7" d="M1.10128 68.1583C7.6068 92.1784 26.9281 123.085 54.1463 108.192C80.6689 93.6797 90.9644 1.10103 130.211 1.10103C160.737 1.10103 156.458 90.6772 182.255 90.6772C211.28 90.6772 206.276 26.1222 237.302 26.1222C257.319 26.1222 263.824 69.6591 282.841 68.1578" stroke="white" stroke-width="2.2" stroke-linecap="round"/>
</svg>
