<svg width="121" height="82" viewBox="0 0 121 82" fill="none" xmlns="http://www.w3.org/2000/svg">
<path d="M48.2299 31.5393C48.2299 31.5393 50.6939 11.6502 50.1376 4.3865C49.8524 0.660822 48.0373 -0.18206 45.263 0.0304315C42.4886 0.242923 26.6236 8.61862 26.6236 8.61862L28.8845 14.0371L42.0786 9.91481C42.0786 9.91481 40.7342 17.653 40.4239 19.1228C40.1137 20.5925 39.4647 22.5722 38.9476 24.3465C38.6944 25.2213 38.3414 26.3545 38.3414 26.9035C38.3485 28.1997 48.2299 31.5393 48.2299 31.5393Z" fill="#FFEDE5"/>
<path d="M42.0784 9.91505C43.9184 9.5609 45.7549 8.48074 46.3326 7.62015C46.0359 8.58784 45.381 9.40789 44.4997 9.91505C43.6609 10.4522 42.7726 10.9087 41.8466 11.2785L42.0784 9.91505Z" fill="#F28F8F"/>
<path d="M73.2059 31.1853C72.9313 30.1724 71.1412 29.1064 65.8065 28.2175C60.4718 27.3286 55.6185 28.2175 55.59 28.8444C55.5615 29.4712 56.9059 33.6608 63.0572 34.4258C69.2085 35.1908 73.7693 33.4094 73.2059 31.1853Z" fill="#263238"/>
<path d="M57.1589 39.795C57.1589 39.795 53.6821 17.3984 54.1813 12.8263C54.6984 8.1019 56.5028 5.9097 59.5303 5.60159C63.485 7.88232 65.5924 13.3327 68.1207 18.7052C70.649 24.0777 73.3877 35.6018 73.5339 41.1089C73.6801 46.6159 69.2939 50.5399 64.3265 51.2553C59.3591 51.9707 57.1589 39.795 57.1589 39.795Z" fill="#FFEDE5"/>
<path d="M62.622 22.2607C61.0176 20.9798 59.9335 19.1661 59.5696 17.1539L64.5441 15.4327L67.8997 18.2057L67.9995 18.4217C68.0423 18.5138 68.0851 18.6059 68.1315 18.698C68.2278 18.9034 68.324 19.1194 68.4203 19.339C68.4453 19.4027 68.4738 19.4665 68.5023 19.5338C68.5772 19.7038 68.6485 19.8879 68.7234 20.065L68.7983 20.2491C68.8982 20.4935 68.9944 20.745 69.0943 21.0035C69.1906 21.262 69.2869 21.5276 69.3831 21.7968C69.4045 21.857 69.4259 21.9137 69.4438 21.9703L69.7005 22.714C69.7005 22.7495 69.7255 22.7884 69.7397 22.8238C69.9394 23.4259 70.1391 24.0492 70.3317 24.6867L70.3638 24.7894C70.4601 25.1046 70.5528 25.4233 70.6455 25.7456C70.6455 25.7456 66.024 25.0869 62.622 22.2607Z" fill="#F28F8F"/>
<path d="M58.4821 5.79281C60.3721 5.05263 62.6721 6.78444 63.8881 7.56357C66.3593 9.13601 81.4683 20.8301 84.9915 23.5712C85.7546 24.0316 86.532 24.4743 87.3236 24.8922L83.1729 31.3378C82.832 30.4115 82.2986 29.5668 81.6074 28.8587C77.8417 26.1884 70.5529 24.7329 65.8601 22.9196C62.2085 21.503 61.4454 20.7097 60.2151 18.6379C59.2737 16.9982 55.8754 7.01818 58.4821 5.79281Z" fill="#FFEDE5"/>
<path d="M57.0842 39.9187L55.5901 28.8444C55.5901 28.8444 56.9309 31.8971 63.8346 32.7011C70.7383 33.505 73.3807 32.3469 73.206 31.1853C73.206 31.1853 75.0103 38.1196 74.3114 42.6244C73.6125 47.1292 66.6838 51.928 66.6838 51.928L57.0842 39.9187Z" fill="#37474F"/>
<path opacity="0.15" d="M60.1402 41.4343C59.5054 41.4343 58.9099 41.4732 58.3572 41.5087L66.0311 51.0955H67.8141C69.8039 49.5267 73.7943 45.9993 74.3149 42.6349C74.8284 39.3306 73.994 34.7266 73.5125 32.5026C73.7871 35.0595 68.0281 41.2678 60.1402 41.4343Z" fill="black"/>
<path d="M94.7015 15.521C92.2053 15.0606 91.0464 16.8491 90.1264 18.3259C89.2064 19.8027 87.6659 22.512 86.9776 22.9689C86.2894 23.4257 85.9078 22.9689 84.9272 23.7019C83.9466 24.435 83.2298 25.8269 83.5329 26.3333L84.2461 27.5657C83.8349 27.521 83.4189 27.573 83.0317 27.7176C82.6445 27.8622 82.297 28.0953 82.0174 28.398C80.9476 29.4605 81.5039 29.6375 82.1065 30.2396C82.7092 30.8416 84.1249 33.5615 85.5441 34.3017C85.5441 34.3017 89.3668 33.1649 92.1376 28.8584C94.9083 24.5519 94.7015 15.521 94.7015 15.521Z" fill="url(#paint0_linear_326_4971)"/>
<path d="M86.3321 34.8718C86.1859 34.8459 86.0466 34.7902 85.9233 34.708C85.8 34.6258 85.6952 34.519 85.6157 34.3944C85.5362 34.2698 85.4837 34.1301 85.4615 33.9843C85.4394 33.8384 85.448 33.6896 85.487 33.5472C85.9094 32.2193 86.5439 30.9673 87.3662 29.8393C88.3255 28.4864 90.1227 25.9436 90.4258 24.5518C90.7289 23.16 91.3815 19.2607 92.4477 17.6281C93.514 15.9955 94.6087 15.0534 96.0137 15.5811C97.4187 16.1088 92.9826 26.5598 91.6811 28.3306C90.3795 30.1013 86.3321 34.8718 86.3321 34.8718Z" fill="#37474F"/>
<path d="M87.1524 34.6453C90.6648 32.786 91.8202 30.9798 92.8579 28.6247C93.8956 26.2696 96.3205 24.0986 96.9481 21.9843C97.5757 19.87 97.6399 14.448 95.2257 15.7619C92.8116 17.0758 92.3087 21.9241 91.2497 24.7255C90.1906 27.5268 83.7076 36.4762 87.1524 34.6453Z" fill="#263238"/>
<path d="M66.0418 40.3718C67.6465 40.1274 70.7311 40.7862 73.5304 44.6677C76.5365 48.836 77.0964 56.1103 75.21 56.7088C75.21 56.7088 70.8381 56.1988 67.8355 54.637C64.833 53.0752 59.7871 42.525 66.0418 40.3718Z" fill="#263238"/>
<path d="M117.32 75.079C112.663 73.2622 108.851 70.1385 105.553 66.6466C102.9 63.0697 91.5313 47.7526 89.5593 45.5958C88.8461 44.8308 87.1559 42.8618 84.813 42.3695C76.5186 40.5987 61.1599 40.8608 61.1599 40.8608L55.2547 39.8727L43.487 50.8727C45.1095 52.5903 47.1457 54.0884 50.1233 55.6289C53.1008 57.1695 56.3209 58.2886 60.6643 57.9238C69.3581 57.1943 74.5716 54.7542 79.2251 53.674C80.5731 53.3624 81.9709 53.0755 83.03 55.2712C84.0891 57.467 84.1747 58.5684 87.3092 60.9023C91.328 63.8984 97.9643 67.2487 100.86 70.8185C101.337 71.6936 101.621 72.6593 101.694 73.6517C101.969 77.4164 105.15 76.6762 107.714 78.3124C109.112 79.2048 110.149 80.2885 111.832 80.6569C113.365 80.97 114.948 80.941 116.468 80.5719C117.837 80.2496 119.799 79.2686 120.473 77.9441C121.357 76.1804 118.661 75.5996 117.32 75.079Z" fill="#FFEDE5"/>
<path d="M117.32 75.079C112.663 73.2622 108.851 70.1385 105.553 66.6466C102.9 63.0697 91.5313 47.7526 89.5593 45.5958C88.8461 44.8308 87.1559 42.8618 84.813 42.3695C76.5186 40.5987 61.1599 40.8608 61.1599 40.8608L55.2547 39.8727L43.487 50.8727C45.1095 52.5903 47.1457 54.0884 50.1233 55.6289C53.1008 57.1695 56.3209 58.2886 60.6643 57.9238C69.3581 57.1943 74.5716 54.7542 79.2251 53.674C80.5731 53.3624 81.9709 53.0755 83.03 55.2712C84.0891 57.467 84.1747 58.5684 87.3092 60.9023C91.328 63.8984 97.9643 67.2487 100.86 70.8185C101.337 71.6936 101.621 72.6593 101.694 73.6517C101.969 77.4164 105.15 76.6762 107.714 78.3124C109.112 79.2048 110.149 80.2885 111.832 80.6569C113.365 80.97 114.948 80.941 116.468 80.5719C117.837 80.2496 119.799 79.2686 120.473 77.9441C121.357 76.1804 118.661 75.5996 117.32 75.079Z" fill="#FFEDE5"/>
<path d="M87.0417 59.1172C86.1588 58.1453 85.4885 57.0021 85.0733 55.7598C84.7542 54.7214 84.3437 53.7129 83.8466 52.746C82.3988 50.267 72.7921 53.4295 68.5379 54.7257C68.2989 55.0799 67.3005 56.1423 66.9439 57.0277C72.0967 55.983 75.8053 54.4637 79.2179 53.6704C80.5659 53.3587 81.9637 53.0718 83.0228 55.2676C84.0819 57.4633 84.1675 58.5647 87.302 60.8986C88.9352 62.1169 90.9999 63.3777 93.0717 64.7199C90.7574 62.935 89.0137 61.1465 87.0417 59.1172Z" fill="#F28F8F"/>
<path d="M56.1676 39.8727C56.1676 39.8727 64.6083 40.2835 66.0418 40.3862C66.0418 40.3862 62.8645 41.2362 66.73 48.9957C70.5955 56.7551 75.2135 56.7126 75.2135 56.7126C69.1513 58.6392 66.0026 60.8031 58.2751 59.9C49.0642 58.579 43.4799 51.7297 43.4799 51.7297L56.1676 39.8727Z" fill="#455A64"/>
<path opacity="0.15" d="M75.1921 56.7126C75.122 56.717 75.0517 56.717 74.9817 56.7126C74.2935 56.6347 72.2466 56.1884 69.9537 53.7625C68.1335 54.2447 66.2868 54.6219 64.4228 54.8922C57.5334 55.8945 52.3663 54.6868 44.6674 50.6106L43.4799 51.7226C46.5353 55.1446 50.4548 57.6949 54.834 59.1102C55.1014 59.1917 55.376 59.2731 55.6541 59.3475C55.9144 59.4148 56.1783 59.4821 56.4422 59.5423L56.5135 59.56C56.756 59.6166 57.0056 59.6662 57.2552 59.7158L57.3872 59.7406C57.6796 59.7973 57.972 59.8468 58.2716 59.8893C58.7565 59.946 59.2201 59.9885 59.6694 60.0239C60.1187 60.0593 60.5502 60.077 60.971 60.0912H61.5879C61.7912 60.0912 61.9909 60.0912 62.187 60.0912C62.7754 60.0912 63.3352 60.0452 63.8737 59.992C64.2303 59.9566 64.5797 59.9141 64.9221 59.8645C65.7465 59.7405 66.5633 59.5702 67.3683 59.3546C67.6821 59.2696 67.9924 59.181 68.2991 59.0854C69.0729 58.8517 69.836 58.5896 70.6205 58.3063L71.5726 57.9521C72.6995 57.5413 73.8834 57.1092 75.2099 56.6878L75.1921 56.7126Z" fill="black"/>
<path d="M27.9428 29.3081C24.5124 30.491 21.2709 32.5592 24.0203 38.6117C27.9428 47.3521 45.7228 57.0559 54.8516 59.1171C50.2159 52.1509 54.0743 44.7668 57.1018 39.9185L56.2852 33.9971C56.2852 33.9971 53.5465 32.6902 49.0106 29.2089C44.4747 25.7276 42.5918 24.782 35.8415 26.8219C31.2021 28.2244 27.9428 29.3081 27.9428 29.3081Z" fill="url(#paint1_linear_326_4971)"/>
<path opacity="0.05" d="M41.8397 49.0627C32.504 43.7505 29.5692 39.019 25.9069 34.4752L23.5106 37.3793C23.5748 37.567 23.6461 37.7582 23.7246 37.9565C23.7232 37.9671 23.7232 37.9778 23.7246 37.9884C23.803 38.1903 23.8922 38.3992 23.9884 38.6117C25.7286 42.4366 30.0969 46.4456 35.2319 49.934C35.9451 50.4298 36.7154 50.915 37.4714 51.386C37.8529 51.6233 38.2345 51.857 38.6196 52.0943C41.2311 53.6471 43.9342 55.0426 46.7144 56.2733C49.3228 57.4691 52.039 58.4178 54.8269 59.1065C53.8116 57.6077 53.1329 55.9095 52.8371 54.1271C49.5921 53.1567 46.1117 51.4958 41.8397 49.0627Z" fill="black"/>
<path d="M25.3683 30.4949C25.3683 30.4949 13.8538 24.3822 12.0316 23.5571L22.109 17.6817L19.9694 12.1675C19.9694 12.1675 4.99236 17.455 2.13958 18.9743C0.645441 19.7783 0 20.4405 0 21.5809C0 23.4827 1.82221 25.9476 4.34692 28.0831C9.7137 32.6269 16.9954 36.859 24.0881 40.7263C25.7142 41.9234 27.4045 43.4285 27.4045 43.4285C29.2695 44.3564 31.9832 35.793 25.3683 30.4949Z" fill="#FFEDE5"/>
<path d="M36.1484 9.24894C35.4291 7.59066 34.0761 6.28406 32.3868 5.61657C30.6975 4.94909 28.8105 4.9754 27.1408 5.68971C25.471 6.40403 24.1554 7.74783 23.4833 9.42551C22.8112 11.1032 22.8377 12.9773 23.557 14.6356C23.6033 14.7489 23.6604 14.8516 23.7139 14.9579L21.9737 18.719L19.4026 14.0123C19.4037 13.6415 19.2659 13.2837 19.0162 13.0081C18.7664 12.7326 18.4225 12.5591 18.0511 12.5213C17.8628 12.5053 17.6731 12.5276 17.4937 12.5867C17.3143 12.6457 17.1489 12.7404 17.0075 12.865C16.8661 12.9895 16.7516 13.1413 16.6711 13.3112C16.5906 13.481 16.5457 13.6653 16.5391 13.8529L18.504 14.0229C18.0728 14.3069 17.7423 14.7182 17.559 15.1987C17.0919 16.4099 18.7179 18.8783 20.8967 21.0457C20.8967 21.0457 23.9813 25.3699 24.7302 25.9755C25.2127 26.3403 25.8175 26.5075 26.4204 26.443L26.6059 17.9434C27.8583 18.6147 29.2903 18.8819 30.7027 18.7079C32.1151 18.5339 33.4379 17.9273 34.4872 16.9724C35.5366 16.0175 36.2604 14.7617 36.5581 13.3795C36.8558 11.9972 36.7126 10.5573 36.1484 9.25957V9.24894Z" fill="#263238"/>
<path d="M23.4889 20.1856C23.2036 20.5787 22.3335 20.0793 21.6453 19.7889C20.9571 19.4985 19.1135 19.4879 19.0421 21.4393C18.9708 23.3907 21.385 24.9808 22.7722 24.8356C25.1614 24.5912 24.9117 23.1144 24.9117 23.1144L28.4206 30.8314C32.4823 33.0413 40.0421 29.5635 35.5062 27.3784L34.5042 25.087C35.3712 24.8557 36.2087 24.5265 37.0004 24.106C38.4268 23.2065 38.8939 21.5774 38.6407 19.711C38.2378 16.7184 37.5709 14.4377 34.6682 9.44062C31.4589 3.97959 24.6835 6.80573 22.0376 10.6412C19.3916 14.4767 23.4889 20.1856 23.4889 20.1856Z" fill="#FFEDE5"/>
<path d="M23.7709 20.8405C23.5783 20.9291 22.3124 20.0295 21.6313 19.7993C20.7077 19.4841 19.2064 13.6796 19.2064 13.6796C19.2064 13.6796 17.9797 12.5994 18.6537 10.6516C19.2064 9.05435 21.2462 7.98481 22.6583 7.27651C25.2044 5.99802 28.0536 4.54245 29.3017 1.86506C29.4015 1.65257 29.5442 1.41175 29.7795 1.40821C29.8526 1.41468 29.9237 1.43556 29.9886 1.46961C30.0535 1.50366 30.1109 1.55021 30.1575 1.60653C30.7454 2.262 31.0769 3.10522 31.0918 3.98289C31.0918 4.06435 31.1168 4.16705 31.1988 4.19184C31.2808 4.21663 31.3414 4.14934 31.3913 4.08914C31.6503 3.7742 31.8475 3.41382 31.9726 3.02668C32.1438 2.499 33.0424 3.84123 33.1066 4.02539C33.3168 4.60802 33.4075 5.22656 33.3732 5.84454C33.3389 6.46252 33.1803 7.06742 32.9069 7.62357C32.3506 8.73207 31.2059 9.41912 30.1575 10.0247C27.8218 11.3776 23.8279 12.6667 23.2716 12.819C22.5157 13.0279 22.6619 13.7823 23.0898 15.8257C23.482 17.6319 24.4163 20.5395 23.7709 20.8405Z" fill="#263238"/>
<path d="M34.5044 25.0868C34.5044 25.0868 30.3322 25.9616 28.8487 25.8518C27.9785 25.789 27.1478 25.4655 26.4667 24.9239C26.9508 25.5483 27.5574 26.0687 28.2496 26.4539C29.619 27.1976 34.8966 26.0112 34.8966 26.0112L34.5044 25.0868Z" fill="#F28F8F"/>
<path d="M27.9856 14.303L26.7446 15.6488C26.5659 15.4761 26.4612 15.2415 26.4526 14.994C26.444 14.7465 26.532 14.5052 26.6983 14.3207C26.7808 14.2342 26.8799 14.165 26.9899 14.1171C27.0998 14.0693 27.2182 14.0438 27.3382 14.0421C27.4582 14.0405 27.5773 14.0627 27.6885 14.1075C27.7996 14.1523 27.9007 14.2188 27.9856 14.303Z" fill="#263238"/>
<path d="M31.9833 21.1769L33.8198 21.0919C33.831 21.2119 33.8177 21.3329 33.7807 21.4476C33.7438 21.5624 33.6839 21.6686 33.6047 21.7598C33.5254 21.8511 33.4285 21.9255 33.3196 21.9787C33.2108 22.0319 33.0922 22.0627 32.9711 22.0693C32.7222 22.0763 32.4802 21.9872 32.2961 21.8208C32.1119 21.6544 31.9998 21.4236 31.9833 21.1769Z" fill="#F28F8F"/>
<path d="M35.5385 12.1674L33.7555 11.7141C33.7797 11.5962 33.8279 11.4843 33.8969 11.3854C33.966 11.2865 34.0545 11.2026 34.1572 11.1386C34.2599 11.0747 34.3746 11.0322 34.4944 11.0136C34.6141 10.995 34.7364 11.0008 34.8538 11.0306C35.0922 11.0979 35.2958 11.253 35.423 11.4643C35.5502 11.6755 35.5915 11.927 35.5385 12.1674Z" fill="#263238"/>
<path d="M31.7335 14.9405L32.9495 19.2859L35.0891 17.9968L31.7335 14.9405Z" fill="#F28F8F"/>
<path d="M28.3495 16.8882C28.3502 17.045 28.3976 17.198 28.4858 17.328C28.574 17.458 28.699 17.5591 28.845 17.6186C28.9911 17.6781 29.1516 17.6933 29.3063 17.6623C29.461 17.6313 29.603 17.5555 29.7143 17.4444C29.8257 17.3333 29.9014 17.1919 29.9319 17.0381C29.9625 16.8844 29.9465 16.725 29.8859 16.5803C29.8253 16.4355 29.723 16.3118 29.5917 16.2248C29.4604 16.1378 29.3061 16.0914 29.1483 16.0914C29.0431 16.0914 28.9389 16.112 28.8418 16.1521C28.7446 16.1922 28.6564 16.2509 28.5822 16.325C28.508 16.399 28.4492 16.4869 28.4093 16.5835C28.3693 16.6802 28.349 16.7837 28.3495 16.8882Z" fill="#263238"/>
<path d="M34.1298 14.6395C34.1291 14.7918 34.174 14.9409 34.2587 15.0678C34.3435 15.1948 34.4643 15.2938 34.6058 15.3524C34.7474 15.411 34.9032 15.4265 35.0537 15.397C35.2041 15.3675 35.3423 15.2942 35.4508 15.1865C35.5592 15.0788 35.633 14.9415 35.6627 14.7921C35.6925 14.6427 35.6768 14.4879 35.6178 14.3473C35.5588 14.2068 35.4591 14.0868 35.3313 14.0026C35.2035 13.9184 35.0534 13.8739 34.9 13.8746C34.696 13.8755 34.5007 13.9564 34.3564 14.0997C34.2122 14.2429 34.1307 14.4369 34.1298 14.6395Z" fill="#263238"/>
<path d="M101.231 74.4412C100.928 74.6466 101.398 75.9428 101.673 76.2616C102.245 76.8138 102.952 77.2091 103.723 77.409C105.127 77.8361 106.439 78.5181 107.593 79.4206C109.015 80.5642 110.669 81.3893 112.442 81.8394C114.546 82.3034 116.978 81.7119 119.1 80.4618C121.325 79.155 121.118 77.9013 120.815 77.0655L101.231 74.4412Z" fill="#37474F"/>
<path d="M106.045 67.1673C106.758 67.9181 110.638 71.7287 113.615 72.6991C115.987 73.4712 119.071 74.2078 120.423 75.6421C121.828 77.1366 119.735 79.0491 116.857 80.1469C113.854 81.2873 111.815 80.3665 109.821 79.3713C108.42 78.663 106.355 77.2464 105.317 76.6762C104.28 76.1061 102.358 75.7944 101.555 74.948C101.113 74.4805 100.796 73.1772 100.603 72.0333C100.428 70.9709 99.7224 70.0111 100.083 69.9544L100.667 70.5884C103.377 71.0842 106.202 68.598 106.045 67.1673Z" fill="url(#paint2_linear_326_4971)"/>
<path d="M12.0316 23.5567C10.3227 24.4736 8.47719 25.1132 6.56497 25.4514C6.56497 25.4514 9.59248 26.2058 13.1941 24.134L12.0316 23.5567Z" fill="#F28F8F"/>
<defs>
<linearGradient id="paint0_linear_326_4971" x1="94.705" y1="34.3017" x2="76.9359" y2="33.3323" gradientUnits="userSpaceOnUse">
<stop stop-color="#92A3FD"/>
<stop offset="1" stop-color="#9DCEFF"/>
</linearGradient>
<linearGradient id="paint1_linear_326_4971" x1="57.1018" y1="59.1171" x2="11.6484" y2="55.5203" gradientUnits="userSpaceOnUse">
<stop stop-color="#92A3FD"/>
<stop offset="1" stop-color="#9DCEFF"/>
</linearGradient>
<linearGradient id="paint2_linear_326_4971" x1="120.871" y1="80.6739" x2="93.2585" y2="77.3693" gradientUnits="userSpaceOnUse">
<stop stop-color="#92A3FD"/>
<stop offset="1" stop-color="#9DCEFF"/>
</linearGradient>
</defs>
</svg>
