<svg width="75" height="106" viewBox="0 0 75 106" fill="none" xmlns="http://www.w3.org/2000/svg">
<path d="M35.8709 106C34.1917 106.003 32.5171 105.825 30.8758 105.469C28.0072 104.877 25.3049 103.655 22.9638 101.891C20.6227 100.126 18.7009 97.8625 17.337 95.2632C16.2547 92.8319 15.4506 90.2854 14.9403 87.6724L14.8226 87.1748C13.1408 79.9889 11.0216 72.3896 7.11133 65.5242C6.48064 64.4193 5.79108 63.3144 5.12675 62.2517C3.51954 59.8455 2.15874 57.2825 1.06509 54.6019C-0.616754 50.0053 -0.305612 45.4339 1.99011 42.4229C2.29252 41.9551 2.68599 41.5534 3.14695 41.2418C3.6079 40.9302 4.12684 40.7152 4.67265 40.6096C5.00525 40.5693 5.34255 40.5979 5.66367 40.6936C5.9848 40.7894 6.2829 40.9502 6.53951 41.1662C6.73968 41.3263 6.90384 41.5271 7.02123 41.7553C7.13862 41.9835 7.20658 42.234 7.22065 42.4904H6.67405C6.6609 42.3116 6.61073 42.1375 6.52675 41.9792C6.44278 41.8209 6.32683 41.6819 6.18632 41.5711C5.98666 41.4048 5.75581 41.2803 5.50738 41.2049C5.25896 41.1296 4.998 41.105 4.73993 41.1325C3.79254 41.3491 2.96451 41.9229 2.42739 42.735C0.249397 45.6111 -0.095382 49.9715 1.58647 54.3911C2.67086 57.0525 4.02335 59.596 5.6229 61.9818C6.28723 63.053 6.97679 64.1579 7.61589 65.2712C11.5346 72.1872 13.6789 79.8286 15.3608 87.0567L15.4785 87.5543C15.9781 90.1241 16.7681 92.6283 17.8331 95.0186C19.1586 97.5445 21.0266 99.7438 23.3025 101.458C25.5784 103.171 28.2053 104.357 30.9936 104.929C36.6317 106.049 42.4814 105.254 47.6186 102.668C49.6756 101.749 51.5326 100.434 53.0846 98.7971C54.6634 96.8806 55.8802 94.6912 56.6754 92.3365C58.0797 88.6424 59.1981 84.7458 60.2072 80.9925C61.763 75.3922 63.3691 69.5979 66.0937 64.3519C66.9346 62.8168 67.7756 61.3071 68.6669 59.848C70.336 57.2293 71.7443 54.4523 72.8716 51.5572C73.8386 48.8076 73.8807 46.4966 73.0061 44.8098C72.699 44.2473 72.2725 43.7593 71.7566 43.3803C71.2408 43.0014 70.6482 42.7408 70.0208 42.6169C69.5829 42.513 69.1268 42.5131 68.6888 42.617C68.2509 42.721 67.8431 42.926 67.4981 43.2157L67.1365 42.8025C67.5422 42.4543 68.0233 42.2059 68.5415 42.0771C69.0598 41.9482 69.6009 41.9425 70.1217 42.0603C70.8336 42.2076 71.5042 42.5108 72.0856 42.9482C72.6671 43.3856 73.1451 43.9464 73.4854 44.5905C74.4357 46.446 74.3936 48.8582 73.3761 51.7596C72.2372 54.6912 70.806 57.5 69.1042 60.1432C68.2633 61.6023 67.3383 63.1036 66.5814 64.6217C63.8905 69.8172 62.2927 75.5862 60.7454 81.1528C59.6943 84.9313 58.6095 88.8363 57.1883 92.5474C56.3753 94.9671 55.127 97.2169 53.5051 99.1851C51.9021 100.874 49.9853 102.232 47.8625 103.183C44.125 105.008 40.0276 105.97 35.8709 106Z" fill="url(#paint0_linear_326_4904)"/>
<path d="M42.0432 7.79176C42.478 7.09955 42.7271 6.3064 42.7664 5.48922C42.8138 5.12222 42.7805 4.74923 42.6686 4.39657C42.5567 4.04392 42.3691 3.72016 42.1189 3.44814C41.9086 3.24572 41.6479 3.08547 41.4545 2.86618C41.2611 2.64689 41.1686 2.41917 41.0088 2.20832C40.8356 1.98211 40.6128 1.79899 40.3575 1.67319C40.1023 1.54739 39.8216 1.4823 39.5372 1.48297C38.957 1.48297 38.3431 1.75287 37.8554 1.48297C37.5527 1.33116 37.3508 1.02753 37.0145 0.858843C36.6979 0.69724 36.3347 0.652456 35.9885 0.73233C35.6861 0.838117 35.3668 0.886733 35.0467 0.875712C34.5926 0.808238 34.2815 0.403397 33.8778 0.175673C33.6703 0.0692736 33.4421 0.00968488 33.2093 0.00108516C32.9764 -0.00751455 32.7444 0.0350829 32.5297 0.125891C32.315 0.216698 32.1227 0.353518 31.9662 0.526756C31.8098 0.699994 31.693 0.905457 31.6241 1.12874C31.5693 1.34172 31.5693 1.56519 31.6241 1.77817C31.7166 2.29266 32.0698 2.70593 32.0951 3.22042C32.1203 3.73491 31.8091 4.18192 32.0951 4.63737C32.381 5.09281 32.8014 5.10968 33.0033 5.53983C33.2724 6.12179 33.0033 6.88086 33.2471 7.505C33.3733 7.9014 33.4405 8.4665 33.8105 8.71952C34.3235 9.07376 35.4419 8.77856 36.0558 8.71952L38.4356 8.52553C39.4868 8.42432 40.7818 8.52553 41.732 8.00261C41.8468 7.95028 41.952 7.879 42.0432 7.79176Z" fill="#3B2645"/>
<path d="M33.9704 7.42059C33.8869 7.30559 33.7775 7.21201 33.6511 7.14749C33.5247 7.08297 33.3849 7.04934 33.243 7.04934C33.1012 7.04934 32.9613 7.08297 32.8349 7.14749C32.7085 7.21201 32.5991 7.30559 32.5156 7.42059C31.784 8.26401 33.0202 9.95085 33.9704 10.0521C34.0257 9.17578 34.0257 8.29687 33.9704 7.42059Z" fill="#E0855C"/>
<path d="M45.7853 21.5479C45.5637 22.9686 45.2661 24.3764 44.894 25.765C44.8351 26.0265 44.7846 26.2795 44.751 26.5241C44.7174 26.7687 44.6837 26.9543 44.6417 27.2663C44.6417 27.3254 44.6417 27.3928 44.6417 27.4519C44.6417 27.6543 44.5828 27.8652 44.5576 28.0929L43.498 38.0031C36.9136 39.8164 30.0432 38.0031 30.0432 38.0031C30.0432 38.0031 30.0432 37.8766 30.0432 37.632C29.9339 36.5102 29.5976 32.9425 29.2612 28.9194C29.2612 28.9194 29.2612 28.8604 29.2612 28.8351C29.2646 28.7733 29.2646 28.7113 29.2612 28.6495C29.1182 26.9627 28.9837 25.1746 28.8744 23.4709C28.6725 20.5105 28.5464 17.7778 28.5716 16.0826C28.5716 15.4584 30.0264 15.5259 31.0187 15.391C31.7503 15.2898 32.4987 15.2223 33.1463 15.1885C33.7938 15.1548 34.2815 15.1379 34.6095 15.1379H34.9795C34.9795 15.1379 35.0636 14.168 35.0636 14.1596L35.2906 11.7811C35.401 11.8097 35.5135 11.8294 35.627 11.8402C35.8351 11.8793 36.046 11.9018 36.2577 11.9076C36.5352 11.9076 36.7959 11.9076 37.0397 11.9076L37.4013 11.8655H37.6116C37.847 11.8233 38.0741 11.7727 38.2843 11.7137C38.4945 11.6546 38.5618 11.6293 38.6964 11.5871C39.3107 11.3897 39.894 11.1057 40.4287 10.7437L40.5043 10.6931L40.6473 10.5835L40.7482 10.5076C40.7482 10.6256 40.7482 10.6762 40.7482 10.7268C40.6809 11.2835 40.6052 11.992 40.5716 12.692C40.5716 13.1812 40.5212 13.662 40.5043 14.0752C40.4875 14.4885 40.353 15.0873 40.6473 15.2982C40.7523 15.3574 40.8657 15.4 40.9837 15.4247C41.4452 15.4978 41.9124 15.5289 42.3796 15.5175C42.5226 15.5175 42.6655 15.5175 42.8085 15.5175C43.167 15.4965 43.5264 15.4965 43.8848 15.5175C44.1354 15.5167 44.3835 15.5664 44.6146 15.6634C44.8457 15.7605 45.0551 15.903 45.2303 16.0826C45.4483 16.399 45.5868 16.7636 45.634 17.1453L45.7349 17.8369C45.8949 19.0678 45.9119 20.3131 45.7853 21.5479Z" fill="#FFEDE5"/>
<path d="M40.7146 10.4484C40.6008 11.052 40.3552 11.6229 39.9952 12.1199C39.6353 12.6169 39.1701 13.0277 38.633 13.3229C38.0958 13.6181 37.5002 13.7902 36.8888 13.8269C36.2775 13.8637 35.6656 13.7641 35.0972 13.5354L35.257 11.7895C36.2093 11.9737 37.19 11.9493 38.132 11.7178C39.074 11.4863 39.955 11.0533 40.7146 10.4484Z" fill="#E0855C"/>
<path d="M34.1389 4.89068C33.6512 5.39673 33.6091 6.52691 33.5755 7.77518C33.4493 11.5706 34.5846 12.7514 36.5103 12.9622C38.436 13.1731 40.4626 12.4224 40.8747 8.91379C41.0849 7.15104 41.3036 5.54011 40.6645 4.7726C39.7479 3.64242 35.6189 3.33878 34.1389 4.89068Z" fill="#FFEDE5"/>
<path d="M40.5887 8.39925C40.5887 8.39925 41.1774 6.83049 42.1108 7.66548C43.0442 8.50047 41.7576 10.8705 40.3281 10.6934C40.3449 10.6934 40.1515 8.93904 40.5887 8.39925Z" fill="#FFEDE5"/>
<path d="M41.6986 8.38224C41.4778 8.4514 41.2801 8.57972 41.1268 8.75334C40.9531 8.89884 40.8126 9.08004 40.7147 9.2847C40.7147 9.34374 40.7736 9.38591 40.8156 9.34373C40.9342 9.22603 41.0464 9.10216 41.152 8.97263C41.2287 9.05746 41.3236 9.12378 41.4295 9.16662C41.5136 9.16662 41.5809 9.09071 41.5472 9.02324C41.489 8.93392 41.4114 8.85896 41.3202 8.80395C41.4771 8.70313 41.6262 8.59034 41.7659 8.46658C41.7685 8.45643 41.7687 8.44581 41.7665 8.43556C41.7643 8.42531 41.7598 8.41571 41.7533 8.40753C41.7467 8.39934 41.7384 8.3928 41.7289 8.38841C41.7194 8.38402 41.709 8.3819 41.6986 8.38224Z" fill="#E0855C"/>
<path d="M35.2319 7.6904C35.2319 7.6904 34.904 7.80848 34.9544 7.22652C35.0049 6.64456 35.2319 6.7795 35.2319 6.7795C35.2319 6.7795 35.459 6.7795 35.4253 7.23495C35.3917 7.6904 35.2319 7.6904 35.2319 7.6904Z" fill="#3B2645"/>
<path d="M38.5368 7.6904C38.5368 7.6904 38.2172 7.80848 38.2677 7.22652C38.3181 6.64456 38.5368 6.7795 38.5368 6.7795C38.5368 6.7795 38.7638 6.7795 38.7302 7.23495C38.6965 7.6904 38.5368 7.6904 38.5368 7.6904Z" fill="#3B2645"/>
<path d="M35.5852 5.92789C35.453 5.85285 35.3007 5.82143 35.1498 5.83808C34.9988 5.85473 34.857 5.91861 34.7442 6.02067C34.7385 6.0322 34.7359 6.045 34.7364 6.05786C34.737 6.07072 34.7409 6.08322 34.7476 6.09419C34.7543 6.10515 34.7637 6.11422 34.7749 6.12054C34.7861 6.12686 34.7987 6.13022 34.8115 6.13031C34.9293 6.13031 35.0302 6.06284 35.1479 6.0544C35.2712 6.04851 35.3944 6.06862 35.5095 6.11344C35.6188 6.14718 35.6945 5.97849 35.5852 5.92789Z" fill="#3B2645"/>
<path d="M39.0328 6.21466C38.8983 5.87729 38.318 5.85199 38.0658 6.05441C38.0535 6.06386 38.0437 6.076 38.0369 6.08989C38.03 6.10378 38.0265 6.11905 38.0265 6.13453C38.0265 6.15001 38.03 6.16528 38.0369 6.17917C38.0437 6.19306 38.0535 6.2052 38.0658 6.21466C38.2169 6.22729 38.3688 6.22729 38.5199 6.21466C38.6421 6.23441 38.761 6.27132 38.8731 6.3243C38.8876 6.34555 38.9099 6.36015 38.9351 6.3649C38.9603 6.36965 38.9864 6.36414 39.0076 6.3496C39.0288 6.33506 39.0434 6.31268 39.0481 6.28737C39.0528 6.26206 39.0473 6.23591 39.0328 6.21466Z" fill="#3B2645"/>
<path d="M35.896 10.4064C36.6054 10.4997 37.3263 10.3762 37.9647 10.0522C37.8692 10.2773 37.7279 10.4798 37.5498 10.6468C37.3716 10.8139 37.1607 10.9417 36.9304 11.0221C36.1988 11.2246 35.896 10.4064 35.896 10.4064Z" fill="white"/>
<path d="M31.6492 16.0744C33.5833 17.4323 33.7599 20.0722 32.8181 22.1807C32.179 23.5892 30.9933 24.576 30.2953 25.9086C29.568 27.2011 28.7235 28.4236 27.7725 29.5606C25.6871 32.2174 23.7025 34.6212 22.9372 35.5321C20.3051 38.6865 14.7719 42.853 12.7789 44.3036C12.3248 44.641 12.0557 44.8266 12.0557 44.8266C12.0557 44.8266 10.1468 43.8229 10.6513 41.9674C10.6513 41.9674 18.2197 33.9043 19.3381 32.2596C20.5741 30.1219 21.6968 27.9203 22.7018 25.664C23.9912 23.1619 25.3339 20.6935 26.7298 18.2588C27.3689 17.1371 28.1846 15.7286 29.5889 15.4755C30.1557 15.4116 30.7278 15.5329 31.2203 15.8213C31.3691 15.8953 31.5124 15.9799 31.6492 16.0744Z" fill="#FFEDE5"/>
<path d="M10.6518 41.9758C10.8589 41.9598 11.0669 41.9598 11.274 41.9758C11.274 41.9758 13.0904 42.9879 12.7793 44.3036C12.7793 44.3036 12.5859 44.4807 12.2831 44.7506C11.9804 45.0205 11.6525 45.341 11.2572 45.7459C10.862 46.1507 9.9622 47.4327 9.57538 47.3231C9.48522 47.2897 9.40645 47.2311 9.34833 47.1544L8.56627 46.3109C8.12899 45.8218 7.39738 44.9952 7.95239 44.3458C7.54875 44.5904 6.60691 45.1892 6.14441 44.9024L5.95099 44.5904C5.95099 44.5904 7.33852 43.553 7.91035 43.0385C8.68176 42.3898 9.64589 42.016 10.6518 41.9758Z" fill="#FFEDE5"/>
<path d="M33.9453 28.9957C33.9424 29.0407 33.9424 29.0858 33.9453 29.1308C33.9453 29.1308 34.0211 29.1308 34.0043 29.1308L33.9453 28.9957Z" fill="#D6BED3"/>
<path d="M37.0649 56.3308C36.2913 62.5468 35.3831 67.9531 35.3831 67.9531C35.5092 69.4544 35.5681 71.0822 35.5681 72.7521C35.5681 76.0246 35.3494 79.4995 35.0719 82.5611C34.7187 86.4662 34.231 89.7892 34.0208 91.4592V91.6701C34.3319 102.744 31.1868 104.212 29.7152 101.791C28.2436 99.3705 29.7152 92.2352 29.7152 92.2352C29.72 92.1706 29.72 92.1057 29.7152 92.0412C29.0961 88.7274 28.6832 85.3781 28.4791 82.0129C27.9745 73.8655 28.8407 68.2905 28.7398 67.2784C26.9822 49.5665 29.4377 39.7997 29.4377 39.7997C29.8211 38.3805 30.5132 37.0642 31.4644 35.9453C33.2555 34.0054 35.4083 34.4946 36.7622 36.8646C36.9045 37.1076 37.0337 37.3582 37.149 37.6153C37.7007 38.9765 38.0136 40.4232 38.074 41.8914C38.2086 45.5603 37.6956 51.2196 37.0649 56.3308Z" fill="#FFEDE5"/>
<path d="M45.7517 81.5825C45.5561 85.0179 45.1461 88.4377 44.524 91.8216L44.4483 92.2349C44.4483 92.2349 45.9199 99.3955 44.4483 101.791C42.9767 104.186 39.8653 102.786 40.1428 91.8216C40.1428 91.771 40.1428 91.7204 40.1428 91.6782C39.9073 90.0926 39.4364 86.6599 39.0664 82.5946C38.7805 79.5077 38.5618 76.0497 38.5618 72.7772C38.5618 71.0904 38.6291 69.471 38.7552 67.9613C38.7552 67.9613 37.8218 62.5549 37.0734 56.3474C36.4427 51.2278 35.9213 45.5684 36.14 41.9333C36.2029 40.4646 36.5187 39.0179 37.0734 37.6572C37.1836 37.3922 37.3128 37.1357 37.4602 36.8896C39.0159 34.1823 41.606 33.9461 43.5149 36.9993C44.0617 37.8843 44.4914 38.8369 44.7931 39.8332C44.7931 39.8332 47.2486 49.5747 45.491 67.3118C45.3649 68.3071 46.1974 73.6881 45.7517 81.5825Z" fill="#FFEDE5"/>
<path d="M10.4498 47.4496C10.6173 47.6441 10.8254 47.7993 11.0594 47.9043C11.2934 48.0092 11.5474 48.0613 11.8037 48.0569C11.9211 48.0295 12.0317 47.9785 12.1289 47.907C12.2261 47.8355 12.3078 47.745 12.3691 47.6409C12.4304 47.5369 12.47 47.4214 12.4856 47.3015C12.5011 47.1817 12.4923 47.0599 12.4596 46.9436C12.3618 46.687 12.2031 46.4583 11.9971 46.2772C10.7273 45.0121 9.42388 43.747 8.10363 42.5746C7.883 42.3252 7.58813 42.1537 7.2627 42.0854C6.96005 42.0853 6.66716 42.1929 6.43618 42.389C6.20519 42.5852 6.0511 42.8572 6.00132 43.1566C6.00132 43.6964 6.46383 43.8988 6.84224 44.2024C8.03635 45.2651 9.23046 46.3785 10.4498 47.4496Z" fill="#3B2645"/>
<path d="M10.2648 45.9564C10.3171 45.9023 10.3598 45.8395 10.3909 45.7709C10.4122 45.6837 10.4134 45.5929 10.3945 45.5052C10.3756 45.4175 10.3369 45.3353 10.2816 45.2648C9.97043 44.7503 9.33133 43.9238 8.70064 43.8479C8.49241 43.8372 8.28504 43.8815 8.09915 43.9762C7.91326 44.0709 7.75533 44.2127 7.64107 44.3877C7.45236 44.66 7.33235 44.9741 7.29133 45.3032C7.25032 45.6323 7.28954 45.9664 7.40562 46.2769C7.59018 46.8355 7.96936 47.3086 8.47359 47.6095C8.72521 47.7165 9.00829 47.7218 9.26371 47.6243C9.51914 47.5269 9.72715 47.3342 9.84429 47.0866C9.97043 46.7745 9.92839 46.395 10.1302 46.1335C10.1685 46.0698 10.2136 46.0104 10.2648 45.9564Z" fill="#FFEDE5"/>
<path d="M42.4471 16.0746C40.5046 17.4325 40.328 20.0724 41.2782 22.1809C41.9089 23.5895 43.0946 24.5763 43.801 25.9089C44.5342 27.1976 45.3784 28.4196 46.3237 29.5609C48.4092 32.2176 50.4022 34.6214 51.1591 35.5323C53.7996 38.7036 59.3328 42.8532 61.3258 44.3039L62.0574 44.8268C62.0574 44.8268 63.9579 43.8231 63.4534 41.9676C63.4534 41.9676 55.8851 33.9045 54.7666 32.2598C53.5273 30.1239 52.4044 27.9222 51.4029 25.6643C50.1079 23.134 48.7708 20.6965 47.3665 18.259C46.7274 17.1373 45.9201 15.7288 44.5073 15.4758C43.9406 15.4125 43.3687 15.5337 42.876 15.8216C42.727 15.8952 42.5836 15.9797 42.4471 16.0746Z" fill="#FFEDE5"/>
<path d="M63.4448 41.9757C63.2349 41.9598 63.024 41.9598 62.8141 41.9757C62.8141 41.9757 60.9977 42.9878 61.3089 44.3035C61.3089 44.3035 61.5107 44.4806 61.805 44.7505C62.0993 45.0204 62.4441 45.3409 62.8309 45.7458C63.2178 46.1506 64.1344 47.4326 64.5128 47.323C64.6017 47.2873 64.6799 47.2292 64.7398 47.1543L65.5135 46.3109C65.9592 45.8217 66.6824 44.9951 66.1358 44.3457C66.531 44.5903 67.4728 45.1891 67.9437 44.9023L68.1035 44.5903C68.1035 44.5903 66.716 43.5529 66.1358 43.0384C65.3792 42.3978 64.4337 42.0245 63.4448 41.9757Z" fill="#FFEDE5"/>
<path d="M63.6384 47.4496C63.4709 47.6441 63.2628 47.7993 63.0288 47.9043C62.7949 48.0092 62.5408 48.0613 62.2845 48.0568C62.1656 48.0314 62.0532 47.9818 61.9541 47.9111C61.855 47.8404 61.7714 47.7502 61.7084 47.6459C61.6454 47.5416 61.6043 47.4255 61.5877 47.3047C61.5711 47.184 61.5793 47.061 61.6118 46.9435C61.7167 46.6983 61.8781 46.4815 62.0827 46.311C63.3553 45.0458 64.6559 43.8116 65.9846 42.6083C66.2041 42.3575 66.4994 42.1856 66.8255 42.1192C67.1272 42.1193 67.419 42.2272 67.6485 42.4235C67.8781 42.6197 68.0306 42.8916 68.0785 43.1903C68.0785 43.7301 67.6244 43.9325 67.2376 44.2361C66.0519 45.2651 64.8578 46.3784 63.6384 47.4496Z" fill="#3B2645"/>
<path d="M63.8316 45.9564C63.7742 45.9048 63.7284 45.8415 63.6971 45.7709C63.6793 45.683 63.6806 45.5923 63.7009 45.505C63.7213 45.4176 63.7601 45.3357 63.8148 45.2648C64.1176 44.7503 64.7567 43.9238 65.3873 43.8479C65.5956 43.8372 65.8029 43.8815 65.9888 43.9762C66.1747 44.0709 66.3327 44.2127 66.4469 44.3877C66.6335 44.6612 66.7503 44.9766 66.7869 45.306C66.8236 45.6354 66.779 45.9688 66.6571 46.2769C66.4781 46.8385 66.0975 47.3134 65.5892 47.6095C65.3376 47.7165 65.0545 47.7218 64.799 47.6243C64.5436 47.5269 64.3356 47.3342 64.2185 47.0866C64.1007 46.7745 64.1428 46.395 63.9326 46.1335L63.8316 45.9564Z" fill="#FFEDE5"/>
<path d="M45.8779 76.176V77.0194C45.8779 77.5845 45.8779 78.1665 45.8779 78.7653V79.4485C45.8779 80.1401 45.8275 80.857 45.7938 81.5908C43.6165 82.1932 41.3747 82.5302 39.1169 82.5944C39.0244 81.6498 38.8394 79.1364 38.831 78.8581C38.831 78.2846 38.7048 76.6652 38.6964 76.4459C38.646 75.2145 38.6123 73.9831 38.6123 72.777C38.6123 71.2083 38.6712 69.6733 38.7889 68.2479C38.7889 68.1467 38.7889 68.0539 38.7889 67.9611C38.7889 67.8683 37.8555 62.5632 37.1071 56.3472C37.023 57.0051 36.9389 57.6629 36.8548 58.2955C36.1484 63.6428 35.4 67.9611 35.4 67.9611C35.5262 69.4624 35.585 71.0902 35.585 72.7602C35.585 74.0337 35.585 75.2904 35.4925 76.623C35.4925 76.8423 35.3243 79.6593 35.2991 79.9292C35.2402 80.8317 35.1646 81.7173 35.0889 82.5691C33.9116 82.5185 32.7511 82.4426 31.599 82.3414C30.6908 82.2655 29.5472 82.2149 28.4372 82.0547C28.3867 81.2956 28.3531 80.5702 28.3278 79.8618C28.3278 79.6846 28.3278 79.5075 28.3278 79.3304C28.3278 78.5545 28.3278 77.8207 28.3278 77.1122V76.5556C28.3278 71.4444 28.824 68.0792 28.7483 67.2779C26.9908 49.5661 29.4463 39.7993 29.4463 39.7993C29.8296 38.3801 30.5218 37.0638 31.4729 35.9449C32.1938 36.0568 32.9011 36.2434 33.5836 36.5015C34.6233 36.774 35.6966 36.8961 36.7707 36.8642H37.5444C38.4778 36.8642 39.4112 36.7546 40.3362 36.7293H40.9585C41.8453 36.716 42.7308 36.8009 43.599 36.9823C44.1179 37.8769 44.5193 38.8351 44.7931 39.833C45.4725 43.0165 45.872 46.2536 45.9872 49.5071C46.2721 55.446 46.1062 61.398 45.4911 67.3117C45.3902 68.0623 45.8359 71.2758 45.8779 76.176Z" fill="#3B2645"/>
<path d="M33.9704 91.67C34.0882 96.0305 33.6761 98.8981 33.037 100.627C32.0615 103.301 30.5142 103.267 29.6733 101.825C29.4462 101.425 29.2897 100.988 29.2108 100.534C28.5969 97.5233 29.6733 92.2688 29.6733 92.2688C29.678 92.2043 29.678 92.1394 29.6733 92.0749C30.0917 92.381 30.566 92.6016 31.0692 92.7243C31.6339 92.8634 32.2283 92.8153 32.7634 92.5872C33.2985 92.3591 33.7456 91.9634 34.0377 91.4592L33.9704 91.67Z" fill="url(#paint1_linear_326_4904)"/>
<path d="M44.9529 100.298C44.8811 100.834 44.71 101.352 44.4484 101.825C43.5402 103.309 41.976 103.301 41.009 100.425C40.4203 98.7378 40.0419 95.9293 40.1681 91.8134C40.7978 92.3809 41.609 92.704 42.4554 92.7243C43.2104 92.6546 43.9276 92.3609 44.5156 91.8809C44.5312 92.0125 44.5312 92.1456 44.5156 92.2773C44.5156 92.2773 45.4743 97.2534 44.9529 100.298Z" fill="url(#paint2_linear_326_4904)"/>
<path d="M32.7005 94.2591C32.2746 94.0044 31.7879 93.8698 31.292 93.8698C30.796 93.8698 30.3093 94.0044 29.8834 94.2591C29.8676 94.2767 29.8571 94.2984 29.8529 94.3216C29.8488 94.3449 29.8512 94.3689 29.86 94.3908C29.8688 94.4128 29.8835 94.4319 29.9025 94.4458C29.9215 94.4598 29.944 94.4682 29.9675 94.47C30.388 94.47 30.8084 94.2929 31.2037 94.3013C31.6663 94.3407 32.1232 94.4312 32.566 94.5712C32.6039 94.5759 32.6423 94.5682 32.6754 94.5492C32.7086 94.5302 32.7347 94.5009 32.7498 94.4658C32.765 94.4306 32.7684 94.3915 32.7595 94.3542C32.7506 94.317 32.7299 94.2836 32.7005 94.2591Z" fill="#291B30"/>
<path d="M32.5659 95.6088C31.8478 95.1891 31.0052 95.0368 30.1861 95.1787C29.9086 95.1787 29.9002 95.6426 30.1861 95.6173C30.5818 95.5792 30.9808 95.5962 31.3718 95.6679C31.7334 95.7354 32.0614 95.8872 32.423 95.9631C32.4675 95.9727 32.5139 95.9662 32.5541 95.9448C32.5943 95.9234 32.6257 95.8885 32.6428 95.8462C32.6599 95.8039 32.6615 95.7569 32.6475 95.7135C32.6334 95.6701 32.6045 95.633 32.5659 95.6088Z" fill="#291B30"/>
<path d="M43.6998 94.2592C43.0607 94.0399 41.6732 93.9556 41.1771 94.546C41.1098 94.6219 41.1771 94.7822 41.2696 94.7737C41.6648 94.7231 42.0096 94.5629 42.4216 94.546C42.8337 94.5291 43.2626 94.6388 43.6494 94.6135C43.6726 94.6168 43.6962 94.6155 43.7189 94.6097C43.7416 94.6039 43.7629 94.5936 43.7816 94.5795C43.8004 94.5654 43.8162 94.5477 43.8281 94.5275C43.84 94.5073 43.8479 94.4849 43.8512 94.4617C43.8545 94.4384 43.8532 94.4147 43.8474 94.392C43.8416 94.3692 43.8314 94.3478 43.8173 94.329C43.8033 94.3102 43.7857 94.2944 43.7655 94.2824C43.7453 94.2704 43.723 94.2626 43.6998 94.2592Z" fill="#291B30"/>
<path d="M44.0111 95.6845C43.3132 95.3725 41.5725 95.1447 41.2193 96.0893C41.1688 96.2159 41.3286 96.3171 41.4295 96.258C41.7928 96.0548 42.1977 95.9378 42.6132 95.9159C43.0286 95.8939 43.4435 95.9677 43.8261 96.1315C44.0784 96.2327 44.2718 95.7942 44.0111 95.6845Z" fill="#291B30"/>
<path d="M12.1737 15.0703C12.1737 15.0197 12.0728 15.0197 12.0644 15.0703C11.6439 17.9464 11.8878 20.9743 11.8878 23.9178C11.8878 27.03 11.7869 30.1676 11.9719 33.2713C11.9798 33.3045 11.9987 33.334 12.0254 33.3551C12.0521 33.3762 12.0851 33.3876 12.119 33.3876C12.153 33.3876 12.186 33.3762 12.2127 33.3551C12.2394 33.334 12.2583 33.3045 12.2662 33.2713C12.4428 30.1676 12.3419 27.03 12.3419 23.9178C12.3419 21.0417 12.5858 17.9717 12.1737 15.0703Z" fill="#F7F8F8"/>
<path d="M15.8487 16.0488C15.8397 16.0073 15.8169 15.9703 15.784 15.9436C15.7511 15.917 15.7101 15.9025 15.6679 15.9025C15.6256 15.9025 15.5846 15.917 15.5517 15.9436C15.5188 15.9703 15.496 16.0073 15.4871 16.0488C15.4871 18.8152 15.3105 21.6322 15.4871 24.3902C15.4871 24.4372 15.5057 24.4822 15.5388 24.5154C15.5719 24.5486 15.6168 24.5673 15.6637 24.5673C15.7105 24.5673 15.7554 24.5486 15.7885 24.5154C15.8216 24.4822 15.8403 24.4372 15.8403 24.3902C16.0337 21.6322 15.8655 18.8152 15.8487 16.0488Z" fill="#F7F8F8"/>
<path d="M53.4461 45.0119C53.4392 44.987 53.4244 44.965 53.4039 44.9493C53.3834 44.9336 53.3583 44.9251 53.3325 44.9251C53.3068 44.9251 53.2817 44.9336 53.2612 44.9493C53.2407 44.965 53.2259 44.987 53.219 45.0119C52.9821 48.6336 52.9344 52.2653 53.0761 55.892C53.0761 59.5188 53.0761 63.137 53.2106 66.7637C53.2177 66.7907 53.2336 66.8146 53.2556 66.8316C53.2777 66.8486 53.3047 66.8579 53.3325 66.8579C53.3604 66.8579 53.3874 66.8486 53.4095 66.8316C53.4315 66.8146 53.4474 66.7907 53.4545 66.7637C53.5722 63.137 53.5722 59.5188 53.589 55.892C53.7264 52.2653 53.6787 48.6338 53.4461 45.0119Z" fill="#F7F8F8"/>
<path d="M59.93 23.7999C59.9037 21.3866 59.7465 18.9765 59.459 16.5803C59.459 16.4369 59.232 16.4791 59.2236 16.5803C59.1587 19.1718 59.2345 21.7649 59.4506 24.3482C59.56 26.7519 59.5347 29.2147 59.8543 31.5931C59.8543 31.8124 60.2243 31.745 60.2327 31.5425C60.3504 28.9701 60.0813 26.3471 59.93 23.7999Z" fill="#F7F8F8"/>
<path d="M61.6116 25.1409C61.6057 25.122 61.5939 25.1055 61.5781 25.0938C61.5622 25.0821 61.543 25.0758 61.5233 25.0758C61.5035 25.0758 61.4843 25.0821 61.4685 25.0938C61.4526 25.1055 61.4408 25.122 61.435 25.1409C61.2121 28.6061 61.1953 32.0815 61.3845 35.5487C61.3793 35.5698 61.3789 35.5919 61.3834 35.6132C61.388 35.6344 61.3973 35.6544 61.4107 35.6716C61.424 35.6887 61.4411 35.7026 61.4606 35.7121C61.4801 35.7216 61.5016 35.7266 61.5233 35.7266C61.545 35.7266 61.5664 35.7216 61.5859 35.7121C61.6054 35.7026 61.6225 35.6887 61.6359 35.6716C61.6492 35.6544 61.6585 35.6344 61.6631 35.6132C61.6676 35.5919 61.6672 35.5698 61.662 35.5487C61.8512 32.0815 61.8344 28.6061 61.6116 25.1409Z" fill="#F7F8F8"/>
<path d="M36.8129 58.2873C36.8257 57.6306 36.9103 56.9772 37.0651 56.339C36.981 56.9969 36.8969 57.6547 36.8129 58.2873Z" fill="#291B30"/>
<path d="M45.9621 49.5076C44.8269 42.6674 35.4506 42.3469 35.4506 42.3469C34.8704 39.5299 38.6545 38.6865 38.6545 38.6865L40.8661 36.7719C41.7529 36.7587 42.6384 36.8436 43.5066 37.025C44.0544 37.9016 44.4869 38.8456 44.7933 39.8336C45.4587 43.0187 45.8498 46.2553 45.9621 49.5076Z" fill="#291B30"/>
<path d="M44.9275 40.567C37.3592 44.1346 29.135 40.8622 29.135 40.8622C29.732 39.1753 29.2863 30.5724 29.2443 28.9362C29.2443 28.9362 29.2443 28.8772 29.2443 28.8519C29.2477 28.7901 29.2477 28.7281 29.2443 28.6663C30.8336 24.9721 31.0102 17.8537 31.0186 15.4077C31.7334 15.2981 32.4818 15.2391 33.1293 15.2053C33.3816 17.938 34.2814 24.9468 36.7874 24.6432C39.2933 24.3396 40.4874 18.0983 40.9247 15.3656C41.3858 15.4431 41.8534 15.4742 42.3206 15.4584C42.4636 15.4584 42.6065 15.4584 42.7495 15.4584C42.5309 19.1947 44.5995 27.0469 44.6584 27.2662C44.6584 27.3253 44.6584 27.3927 44.6584 27.4518C44.6584 27.6542 44.5995 27.8651 44.5743 28.0928C44.5743 28.0928 44.5743 28.1856 44.5743 28.2362C44.0445 32.9931 44.9275 40.567 44.9275 40.567Z" fill="url(#paint3_linear_326_4904)"/>
<defs>
<linearGradient id="paint0_linear_326_4904" x1="74.1698" y1="106" x2="-24.5153" y2="97.3407" gradientUnits="userSpaceOnUse">
<stop stop-color="#92A3FD"/>
<stop offset="1" stop-color="#9DCEFF"/>
</linearGradient>
<linearGradient id="paint1_linear_326_4904" x1="34.0377" y1="102.801" x2="27.3201" y2="102.571" gradientUnits="userSpaceOnUse">
<stop stop-color="#92A3FD"/>
<stop offset="1" stop-color="#9DCEFF"/>
</linearGradient>
<linearGradient id="paint2_linear_326_4904" x1="45.1082" y1="102.803" x2="38.4602" y2="102.571" gradientUnits="userSpaceOnUse">
<stop stop-color="#92A3FD"/>
<stop offset="1" stop-color="#9DCEFF"/>
</linearGradient>
<linearGradient id="paint3_linear_326_4904" x1="44.9275" y1="42.2329" x2="23.7965" y2="41.2775" gradientUnits="userSpaceOnUse">
<stop stop-color="#92A3FD"/>
<stop offset="1" stop-color="#9DCEFF"/>
</linearGradient>
</defs>
</svg>
