<svg width="148" height="170" viewBox="0 0 148 170" fill="none" xmlns="http://www.w3.org/2000/svg">
<path d="M146.937 135.277C146.815 137.554 146.398 142.23 143.252 142.23H143.095C142.703 142.195 142.32 142.089 141.965 141.917C141.802 141.844 141.645 141.757 141.496 141.657C140.761 141.055 140.191 140.278 139.838 139.396C139.485 138.514 139.362 137.558 139.48 136.616C139.498 136.031 139.439 135.447 139.306 134.877C139.255 134.606 139.185 134.339 139.097 134.078C139.09 134.026 139.09 133.973 139.097 133.921C138.958 133.608 138.836 133.365 138.715 133.139C138.644 133 138.563 132.866 138.471 132.739C138.483 132.706 138.483 132.669 138.471 132.635C138.423 132.552 138.365 132.477 138.298 132.409C138.112 132.157 137.902 131.925 137.672 131.714L137.567 131.609C137.307 131.383 137.063 131.157 136.82 130.966C135.899 130.184 135.082 129.645 135.186 128.654C135.325 126.325 136.924 123.318 139.132 123.978C139.132 123.978 139.688 121.197 138.158 120.502C137.185 120.015 138.158 119.754 138.749 119.702C139.758 119.615 140.766 120.015 141.844 119.928C141.91 119.867 141.98 119.809 142.052 119.754C142.479 119.693 142.912 119.693 143.339 119.754H143.443C143.905 119.853 144.337 120.063 144.7 120.366C145.063 120.669 145.348 121.056 145.529 121.493C145.829 122.377 145.982 123.305 145.981 124.239C146.155 128.011 147.145 131.47 146.937 135.277Z" fill="#3B2645"/>
<path d="M140.453 130.184C140.314 130.549 140.018 130.705 139.706 130.914C139.344 131.168 139.002 131.446 138.68 131.748C138.498 131.939 138.329 132.142 138.176 132.357C137.99 132.105 137.781 131.872 137.55 131.662L137.446 131.557C137.564 131.393 137.691 131.236 137.828 131.088C138.35 130.514 139.375 129.454 140.21 129.715C140.303 129.747 140.38 129.813 140.426 129.901C140.471 129.988 140.481 130.089 140.453 130.184Z" fill="#E8CEE5"/>
<path d="M141.252 132.2C140.571 132.846 139.832 133.428 139.045 133.939C138.906 133.626 138.784 133.382 138.662 133.156C139.261 132.44 140.091 131.954 141.009 131.783C141.056 131.787 141.102 131.803 141.142 131.828C141.182 131.853 141.215 131.888 141.239 131.929C141.263 131.97 141.276 132.016 141.279 132.063C141.281 132.11 141.272 132.157 141.252 132.2Z" fill="#E8CEE5"/>
<path d="M146.937 135.277C146.815 137.554 146.398 142.23 143.251 142.23H143.095C142.703 142.194 142.32 142.088 141.965 141.917C146.606 140.179 145.581 134.06 145.146 129.749C145.105 126.356 144.56 122.988 143.53 119.754C143.977 119.863 144.393 120.078 144.74 120.38C145.088 120.683 145.358 121.064 145.529 121.493C145.829 122.377 145.982 123.305 145.981 124.239C146.154 128.011 147.145 131.47 146.937 135.277Z" fill="#E8CEE5"/>
<path d="M53.4001 42.905C53.4001 42.905 52.9308 44.9735 52.1485 48.1198C50.5376 54.8273 48.4106 61.4002 45.7865 67.7797C45.0695 69.4757 44.1533 71.0804 43.0574 72.56C38.1728 78.7483 18.5303 64.5813 16.0271 62.7387C15.8621 62.6116 15.6617 62.5387 15.4535 62.5301C14.0629 62.5301 8.50039 62.2346 8.62207 58.393C8.72637 54.2038 11.6119 48.9368 17.9219 54.9165C21.8156 58.5842 35.5654 63.1385 35.5654 63.1385L40.0328 34.1788C40.089 33.8222 40.2416 33.4878 40.4741 33.2116C40.7065 32.9354 41.01 32.728 41.3518 32.6117C41.6935 32.4954 42.0605 32.4747 42.4132 32.5517C42.7658 32.6288 43.0908 32.8007 43.3529 33.0489C45.8038 35.3261 49.5933 38.9939 53.4001 42.905Z" fill="#FFEDE5"/>
<path d="M52.1308 48.0503C50.529 54.7809 48.4077 61.3771 45.7861 67.7797C45.6992 59.436 45.5079 47.946 45.5079 47.946C46.5374 47.4246 47.6784 47.1616 48.8322 47.1798C49.9861 47.1979 51.1182 47.4967 52.1308 48.0503Z" fill="#E0855C"/>
<path d="M67.7929 93.767C64.1599 96.3397 60.1097 98.8254 56.0769 101.276C54.1475 102.441 52.3049 103.606 50.5666 104.753C45.4445 108.155 40.512 111.834 35.7912 115.774C37.825 118.207 39.9457 123.804 41.8578 130.167C45.6994 142.96 48.8109 158.9 48.8109 158.9C45.3344 162.081 42.3967 160.639 42.3967 160.639C39.6676 155.424 33.7922 144.142 28.8381 133.765C24.1969 124.117 20.3727 115.13 20.7551 112.28C21.1376 109.429 28.6469 101.189 36.3996 93.2629C45.091 84.5716 53.991 76.1931 53.991 76.1931C57.3259 72.619 61.1057 69.4877 65.2377 66.8759C69.3921 64.4249 73.9291 63.0169 77.4056 65.3114C79.1775 66.5602 80.5098 68.3366 81.2124 70.3872C81.3406 70.6875 81.4509 70.9952 81.5427 71.3085C84.2023 79.7739 77.3187 87.0747 67.7929 93.767Z" fill="#FFEDE5"/>
<path d="M138.176 128.237C128.615 128.689 118.69 129.784 110.641 130.41C103.688 130.966 98.1954 131.21 95.5532 130.41C90.3384 128.915 82.012 116.712 76.4322 107.812C73.1468 102.493 70.7828 98.3387 70.7828 98.3387C70.7828 98.3387 69.4095 96.6005 67.7408 93.7671C63.3429 86.4142 56.9287 72.3515 69.4791 68.5447C74.8677 66.9107 78.5181 68.1275 81.421 71.3085C85.3148 75.5673 87.87 83.3374 91.503 92.6372L101.498 117.477C104.441 116.862 107.445 116.588 110.45 116.66C119.997 117.03 129.486 118.322 138.784 120.519C141.774 124.239 138.176 128.237 138.176 128.237Z" fill="#FFEDE5"/>
<path d="M49.7668 15.7358C53.4346 14.7276 57.085 13.6498 60.7006 12.4678C62.8213 11.7725 65.1506 11.7377 65.9154 9.28674C66.2053 8.27219 66.2605 7.20498 66.0767 6.16595C65.893 5.12691 65.4753 4.14332 64.8551 3.28968C63.6476 1.77063 61.9531 0.714618 60.0574 0.299845C58.1721 -0.0999484 56.2238 -0.0999484 54.3385 0.299845C52.9781 0.471839 51.6694 0.929295 50.4981 1.64225C49.3269 2.3552 48.3194 3.30756 47.5418 4.43695C46.7103 6.09702 46.3839 7.96453 46.6031 9.80822C46.7497 11.4248 47.2995 12.9788 48.2024 14.3277C48.324 14.519 49.141 16.1877 49.5582 16.066C49.6799 15.9965 49.7494 15.7531 49.7668 15.7358Z" fill="#3B2645"/>
<path d="M48.7934 12.8328C48.5753 12.6376 48.3142 12.4967 48.0314 12.4214C47.7485 12.3462 47.4519 12.3388 47.1657 12.3997C46.8794 12.4607 46.6116 12.5884 46.384 12.7724C46.1563 12.9564 45.9753 13.1915 45.8557 13.4586C44.7606 15.5445 47.9938 18.3953 49.9233 18.1345C49.6586 16.3453 49.2812 14.5745 48.7934 12.8328Z" fill="#E0855C"/>
<path d="M80.6041 27.4691C79.5253 33.257 78.9149 39.1224 78.7789 45.0084C78.7789 45.582 78.7789 46.0861 78.7789 46.5902C79.0049 50.2232 80.8649 67.3452 81.2125 70.0396C81.2125 70.2655 81.2125 70.3872 81.2125 70.3872C69.5139 76.4712 55.9901 76.2104 54.2692 76.1931H54.078C54.016 75.9458 53.9405 75.7021 53.852 75.463C52.8091 72.3167 48.7763 59.3665 45.5257 47.946C45.5257 47.7722 45.4214 47.6158 45.3693 47.4246C43.631 41.5492 41.18 36.9949 40.5195 33.64C40.2761 32.3711 44.2741 30.9109 46.221 30.1635C46.4991 30.0418 46.7946 29.9549 47.1075 29.8506C48.6372 29.3117 50.219 28.8598 51.488 28.5295L54.1128 27.9211L53.2958 20.968H53.9911C54.4282 20.9493 54.8636 20.9028 55.2948 20.8289C55.8295 20.7417 56.3579 20.6198 56.8767 20.4639L57.6067 20.2379L58.5628 19.8381C59.0723 19.624 59.566 19.3743 60.0403 19.0906C60.1474 19.0443 60.2519 18.9921 60.3532 18.9342C60.3691 18.9433 60.387 18.9482 60.4054 18.9482C60.4237 18.9482 60.4417 18.9433 60.4575 18.9342L60.7878 18.7256C61.3712 18.342 61.9182 17.9056 62.4218 17.4219C62.6999 17.1611 62.9432 16.9352 63.1344 16.7266L63.2561 16.5875C63.3475 16.5043 63.4292 16.411 63.4995 16.3094C63.5666 16.248 63.625 16.1779 63.6733 16.1008V16.2572C63.6733 16.3615 63.6733 16.4658 63.6733 16.5875C63.6733 17.7348 63.9167 19.1775 64.16 20.6203C64.2991 21.6111 64.4555 22.5846 64.612 23.4363C64.8901 24.8965 65.1161 25.9568 65.1161 25.9568C65.4312 25.8806 65.7504 25.8226 66.0721 25.783H66.1764H66.6979C67.9246 25.6007 69.1609 25.4904 70.4005 25.4527C70.9219 25.4527 71.426 25.4527 71.9128 25.4527C74.6642 25.4957 77.3941 25.9468 80.0131 26.7912C80.1719 26.8248 80.3154 26.909 80.422 27.0313C80.5286 27.1536 80.5926 27.3073 80.6041 27.4691Z" fill="#FFEDE5"/>
<path d="M63.8294 16.0313C63.8634 17.3017 63.615 18.5639 63.1021 19.7267C62.5891 20.8895 61.8245 21.924 60.8633 22.7555C59.9021 23.587 58.7683 24.1947 57.5438 24.5349C56.3192 24.8751 55.0345 24.9392 53.7821 24.7226L53.3649 21.1244C55.3736 21.0818 57.3491 20.6044 59.1556 19.7252C60.9621 18.8459 62.5566 17.5857 63.8294 16.0313Z" fill="#E0855C"/>
<path d="M48.0461 7.65271C47.2813 8.88689 47.6985 11.1293 48.1504 13.7193C49.5411 21.4199 52.3223 23.3146 56.3203 22.8974C60.3184 22.4802 64.0731 20.1162 63.3951 12.8502C63.0649 9.21716 62.8215 5.89705 61.2049 4.59334C58.7887 2.716 50.3754 3.89803 48.0461 7.65271Z" fill="#FFEDE5"/>
<path d="M62.6478 11.9811C62.6478 11.9811 63.1519 8.50456 65.3943 9.82565C67.6366 11.1467 66.0548 16.4485 63.0997 16.7788C63.0997 16.6745 61.9525 13.2153 62.6478 11.9811Z" fill="#FFEDE5"/>
<path d="M51.4703 12.8154C51.4703 12.8154 50.8619 13.2152 50.7055 12.0158C50.549 10.8164 51.0705 10.9902 51.0705 10.9902C51.0705 10.9902 51.5225 10.8859 51.6615 11.8246C51.8006 12.7633 51.4703 12.8154 51.4703 12.8154Z" fill="#3B2645"/>
<path d="M58.1628 11.39C58.1628 11.39 57.5544 11.7725 57.398 10.5904C57.2415 9.4084 57.763 9.56484 57.763 9.56484C57.763 9.56484 58.215 9.46055 58.354 10.3992C58.4931 11.3379 58.1628 11.39 58.1628 11.39Z" fill="#3B2645"/>
<path d="M55.1382 15.3011C54.8079 15.3011 54.0778 15.6836 53.8344 15.3011C53.7299 14.4759 53.7299 13.6407 53.8344 12.8154C53.9271 11.7113 53.9561 10.6027 53.9214 9.49529C53.9214 9.49529 53.8171 9.49529 53.7997 9.49529C53.498 11.5262 53.3643 13.5785 53.3999 15.6314C53.3951 15.6586 53.3976 15.6865 53.407 15.7124C53.4165 15.7382 53.4326 15.7612 53.4538 15.7788C53.475 15.7964 53.5004 15.8082 53.5276 15.8128C53.5547 15.8175 53.5826 15.8148 53.6085 15.8052C54.0952 15.7009 54.5993 15.7009 55.086 15.5966C55.312 15.5619 55.312 15.2838 55.1382 15.3011Z" fill="#E0855C"/>
<path d="M51.4354 9.11293C50.8966 8.97387 50.0101 9.11293 49.6972 9.66918C49.685 9.69419 49.6805 9.72229 49.6845 9.74985C49.6884 9.7774 49.7005 9.80314 49.7192 9.82374C49.738 9.84433 49.7624 9.85884 49.7895 9.86537C49.8165 9.8719 49.8449 9.87017 49.871 9.86039C50.097 9.86039 50.2882 9.63441 50.5142 9.56488C50.7665 9.51289 51.0267 9.51289 51.279 9.56488C51.3389 9.58563 51.4047 9.58171 51.4617 9.55401C51.5187 9.5263 51.5625 9.47706 51.5832 9.41713C51.6039 9.35719 51.6 9.29148 51.5723 9.23443C51.5446 9.17738 51.4954 9.13367 51.4354 9.11293Z" fill="#3B2645"/>
<path d="M58.5102 8.20902C58.3733 8.07995 58.2119 7.97963 58.0356 7.91397C57.8593 7.84832 57.6716 7.81867 57.4836 7.82677C57.2956 7.83487 57.1112 7.88056 56.9412 7.96115C56.7712 8.04173 56.619 8.15557 56.4938 8.29594C56.4762 8.32591 56.4663 8.3598 56.4652 8.39454C56.464 8.42928 56.4715 8.46375 56.4871 8.49484C56.5026 8.52593 56.5257 8.55264 56.5542 8.57254C56.5827 8.59245 56.6157 8.60492 56.6502 8.60883C56.9563 8.57019 57.2586 8.50623 57.5541 8.41762C57.8078 8.38239 58.0652 8.38239 58.319 8.41762C58.458 8.50453 58.6145 8.3307 58.5102 8.20902Z" fill="#3B2645"/>
<path d="M57.2415 16.5354C56.4941 16.9178 56.0943 17.4915 55.2077 17.6479C54.7747 17.7613 54.3197 17.7613 53.8866 17.6479C53.6433 17.6479 53.6433 17.5262 53.3999 17.5436C53.382 17.5454 53.3648 17.5511 53.3494 17.5604C53.334 17.5697 53.3208 17.5822 53.3108 17.5972C53.3008 17.6121 53.2943 17.6291 53.2917 17.6469C53.2891 17.6647 53.2904 17.6828 53.2956 17.7C53.5042 18.4475 54.6863 18.3258 55.2599 18.2389C55.7132 18.1896 56.1478 18.031 56.5263 17.7767C56.9048 17.5223 57.2158 17.1799 57.4327 16.7788C57.4849 16.6397 57.3632 16.4833 57.2415 16.5354Z" fill="#E0855C"/>
<path d="M94.2493 99.2773C93.7278 99.6598 93.2411 100.025 92.737 100.355C92.2329 100.685 91.9374 100.911 91.5376 101.172C86.9779 104.328 81.8564 106.582 76.4493 107.812C73.1466 102.493 70.7826 98.3387 70.7826 98.3387C70.7826 98.3387 69.4093 96.6004 67.7406 93.767C64.1076 96.3396 60.0574 98.8254 56.0246 101.276C54.0951 102.441 52.2525 103.606 50.5142 104.753C48.8629 103.762 47.368 102.771 46.0121 101.815C42.4578 99.3907 39.2325 96.516 36.4168 93.2629C45.1082 84.5715 54.0082 76.193 54.0082 76.193C57.3431 72.619 61.1228 69.4877 65.2548 66.8758C69.1663 65.5497 73.3031 65.0178 77.4228 65.3114C79.1882 66.5628 80.5142 68.3389 81.2122 70.3872C81.3404 70.6875 81.4507 70.9951 81.5425 71.3084C85.4362 75.5672 87.9915 83.3373 91.6245 92.6371C92.5458 94.9664 93.3802 97.1566 94.2493 99.2773Z" fill="#AB8DA8"/>
<path d="M48.7761 158.9C45.2995 162.081 42.3618 160.639 42.3618 160.639C39.6327 155.424 33.7574 144.142 28.8033 133.765C33.2727 133.053 37.6505 131.852 41.8577 130.184C45.6993 142.96 48.7761 158.9 48.7761 158.9Z" fill="#E8CEE5"/>
<path d="M50.6014 161.23C50.6276 161.391 50.6276 161.555 50.6014 161.716C50.4793 162.483 50.0766 163.177 49.4715 163.663C48.712 164.214 47.874 164.648 46.9857 164.949C43.5092 166.357 40.5367 168.426 36.8516 169.347C34.6613 169.921 30.1244 170.964 29.1162 167.974C29.1127 167.922 29.1127 167.87 29.1162 167.818C29.0754 167.512 29.0754 167.202 29.1162 166.896C29.134 166.638 29.1747 166.382 29.2379 166.131C29.5682 164.984 30.5938 163.559 33.4098 162.655C33.97 162.484 34.5071 162.244 35.009 161.942C35.2438 161.812 35.4702 161.666 35.6869 161.508L35.826 161.386C36.0836 161.182 36.3221 160.955 36.5387 160.708L36.7647 160.447L36.8516 160.343L37.0949 159.961C37.2334 159.75 37.3555 159.529 37.46 159.3C37.6512 158.9 37.7902 158.57 37.9119 158.274C38.3465 157.162 38.642 156.258 39.6502 156.015C41.91 155.424 45.2475 156.015 45.3344 158.309C45.3344 158.309 48.1504 157.979 48.3764 156.293C48.5328 155.215 49.1064 156.049 49.3324 156.606C49.7148 157.544 49.6627 158.622 50.0799 159.596C50.0799 159.735 50.2016 159.839 50.2537 159.978C50.4622 160.358 50.6089 160.769 50.6883 161.195C50.6613 161.211 50.632 161.223 50.6014 161.23Z" fill="#3B2645"/>
<path d="M138.176 128.237C128.615 128.689 118.69 129.784 110.642 130.41C111.224 127.552 111.44 124.631 111.285 121.718C111.26 119.991 111.015 118.273 110.555 116.608C120.102 116.978 129.591 118.27 138.889 120.467C141.774 124.239 138.176 128.237 138.176 128.237Z" fill="#E8CEE5"/>
<path d="M38.2422 164.063C37.4773 163.263 36.782 162.412 35.9824 161.629L35.7217 161.386C35.9793 161.182 36.2178 160.955 36.4343 160.708C36.5386 160.812 36.6256 160.917 36.7299 161.004C37.5289 161.747 38.2457 162.575 38.8679 163.472C39.1287 163.872 38.5898 164.428 38.2422 164.063Z" fill="#E8CEE5"/>
<path d="M40.2758 161.751C40.3028 161.818 40.309 161.892 40.2938 161.963C40.2786 162.034 40.2425 162.099 40.1903 162.149C40.1381 162.2 40.072 162.233 40.0005 162.246C39.9291 162.259 39.8555 162.25 39.7891 162.22C39.0185 161.709 38.297 161.127 37.6337 160.482C37.43 160.306 37.2152 160.144 36.9905 159.995C37.129 159.785 37.251 159.564 37.3555 159.335C37.6135 159.436 37.854 159.576 38.0682 159.752C38.9741 160.202 39.7381 160.894 40.2758 161.751Z" fill="#E8CEE5"/>
<path d="M50.584 161.716C50.4619 162.483 50.0592 163.177 49.4541 163.663C48.6946 164.214 47.8567 164.648 46.9684 164.95C43.4918 166.358 40.5194 168.426 36.8342 169.347C34.644 169.921 30.1071 170.964 29.0989 167.974C29.0953 167.922 29.0953 167.87 29.0989 167.818C29.058 167.512 29.058 167.202 29.0989 166.896C33.462 169.834 37.6512 167.157 42.0838 165.732C45.317 164.671 48.585 164.046 50.584 161.716Z" fill="#E8CEE5"/>
<path d="M92.7373 100.355C92.3375 100.651 91.9376 100.911 91.5378 101.172C87.2964 90.9683 83.4549 80.4691 77.8228 71.0824C77.5273 70.5957 78.2053 70.0742 78.5529 70.561C82.0295 75.3412 84.1675 81.2514 86.6185 86.6226C88.7045 91.1074 90.8252 95.7138 92.7373 100.355Z" fill="#E8CEE5"/>
<path d="M67.7927 93.7671C64.1597 96.3397 60.1095 98.8255 56.0767 101.276C54.1473 102.441 52.3047 103.606 50.5664 104.753C48.915 103.762 47.4201 102.771 46.0643 101.815C58.5103 94.7231 67.5494 93.7845 67.7927 93.7671Z" fill="#826B80"/>
<path d="M81.2121 70.3872C69.5135 76.4712 55.9897 76.2452 54.2688 76.1931H54.0776L53.8516 75.5151C52.8087 72.3689 48.7759 59.4187 45.5253 47.9982C47.2636 42.1576 47.2636 33.1012 47.1071 29.9549C48.6368 29.416 50.2186 28.9641 51.4876 28.6338C51.5745 31.6932 52.3915 39.3242 58.2669 39.5328C65.22 39.7762 66.5585 29.9375 66.8018 25.6266C68.0285 25.4443 69.2648 25.334 70.5043 25.2963C71.0258 25.2963 71.5299 25.2963 72.0166 25.2963C71.6535 28.1908 71.7533 31.1246 72.3122 33.9877C73.2353 38.7677 75.4887 43.1902 78.8133 46.7466C78.9176 48.5892 79.4217 53.8041 79.9432 58.9146C80.4647 64.0251 81.2121 70.3872 81.2121 70.3872Z" fill="#3B2645"/>
<path d="M78.8308 46.7466C78.8308 48.4849 79.4218 53.6997 79.9433 58.9146C74.7913 51.6647 72.1096 42.9492 72.2948 34.0572C73.2352 38.8144 75.494 43.2115 78.8134 46.7466H78.8308Z" fill="#291B30"/>
<path d="M19.8688 56.9329C19.1909 59.3838 17.9741 61.5915 17.244 63.9903C16.8616 65.2418 18.6346 65.7286 19.3473 64.9637C21.0687 62.755 22.2583 60.1796 22.8239 57.437C23.2584 55.6118 20.3729 55.1251 19.8688 56.9329Z" fill="#AB8DA8"/>
<path d="M50.5317 24.8965C50.9489 25.4701 51.3835 25.9916 51.818 26.5305C51.9836 26.7156 52.1347 26.9131 52.27 27.1215C54.9122 30.8066 55.3641 35.048 56.6852 39.133L57.1545 38.4029C56.7721 36.8037 56.4418 35.2045 56.0073 33.64C56.413 31.2054 57.4097 28.9074 58.9102 26.9476C60.0846 25.7848 61.1494 24.5163 62.0912 23.1582C62.8757 21.6982 63.3325 20.0847 63.4297 18.4301C63.4653 16.8187 63.7769 15.2254 64.351 13.7193C64.4153 13.593 64.462 13.4585 64.4901 13.3195C64.4957 13.1407 64.4575 12.9633 64.3787 12.8027C64.2999 12.6421 64.183 12.5032 64.0381 12.3983C63.9294 12.3058 63.7969 12.2455 63.6557 12.2244C63.5827 12.2158 63.5087 12.2295 63.4436 12.2636C63.3785 12.2977 63.3252 12.3507 63.2907 12.4156C63.2728 12.5075 63.2728 12.6019 63.2907 12.6938C63.3281 13.711 63.2699 14.7294 63.1168 15.7358C63.0125 16.7961 62.9604 17.8738 62.8387 18.9516C62.5382 21.4239 61.3894 23.7154 59.5881 25.4353C57.5344 27.4164 56.1904 30.0189 55.7639 32.8404C55.3545 31.3794 54.7709 29.9729 54.0256 28.6512C53.0001 26.9129 51.6094 25.3832 50.5491 23.6797C49.7811 22.4931 49.2444 21.172 48.9672 19.7859C48.7752 19.1487 48.6757 18.4872 48.6717 17.8217C48.6717 17.1611 48.9846 15.84 48.5674 15.2838C47.9243 14.4147 47.6809 15.4229 47.7678 16.0313C47.9764 17.3523 47.959 18.6908 48.2372 19.9945C48.6179 21.5735 49.2835 23.0698 50.2014 24.4098L50.5317 24.8965Z" fill="#AB8DA8"/>
<path d="M64.8203 58.48C63.7426 59.7316 63.9512 61.9566 63.9859 63.4168C64.1569 64.6899 64.2325 65.974 64.2119 67.2583C64.204 67.8133 64.0736 68.3596 63.8303 68.8584C63.5869 69.3572 63.2364 69.7961 62.8039 70.1439C62.4649 70.2997 62.0989 70.3882 61.7262 70.4046C61.3996 70.4741 61.062 70.4741 60.7354 70.4046C60.2702 70.2093 59.8717 69.8833 59.5881 69.466C58.3713 67.9363 58.6147 66.5804 58.5278 64.7552C58.5188 63.9799 58.3488 63.2149 58.0286 62.5087C57.7085 61.8025 57.2451 61.1706 56.6678 60.6529C53.4867 57.3154 55.1555 54.4646 56.1115 50.7273C57.3457 45.8949 57.8498 39.6893 55.7291 35.0828C56.178 38.0818 56.4277 41.1073 56.4766 44.1393C56.215 47.4228 55.5555 50.6623 54.5123 53.7867C54.1508 54.6572 53.9648 55.5906 53.9648 56.5332C53.9648 57.4758 54.1508 58.4091 54.5123 59.2797C54.8986 59.9217 55.3725 60.5067 55.9203 61.0179C57.6586 62.7562 57.6586 64.3902 57.8498 66.7716C58.041 69.1531 60.5789 72.5427 63.3775 70.5437C63.914 70.0652 64.3281 69.4651 64.5852 68.7937C64.8422 68.1224 64.9348 67.3992 64.8551 66.6847C64.8551 65.4332 64.5943 64.199 64.5248 62.9474C64.4144 61.8918 64.4612 60.8256 64.6639 59.7838C64.7171 59.5758 64.8117 59.3807 64.942 59.2101C65.2077 58.922 65.563 58.7321 65.9502 58.6713C66.1468 58.5848 66.3619 58.5489 66.576 58.567C66.8515 58.5976 67.1086 58.72 67.3061 58.9146C67.7885 59.4832 68.1813 60.1221 68.4707 60.8093C68.4707 60.9658 68.5924 61.2961 68.7662 61.3656C68.94 61.4351 69.2182 61.2787 69.166 61.0527C68.7314 59.3144 66.8541 56.1508 64.8203 58.48Z" fill="#AB8DA8"/>
<path d="M71.5755 59.3155L67.655 61.2302C66.7233 61.6852 66.3369 62.8093 66.7919 63.741L71.5748 73.5345C72.0298 74.4661 73.1539 74.8525 74.0856 74.3975L78.0061 72.4828C78.9378 72.0278 79.3242 70.9037 78.8692 69.972L74.0862 60.1786C73.6312 59.2469 72.5071 58.8605 71.5755 59.3155Z" fill="#E8CEE5"/>
<path d="M79.3176 26.6521C79.5914 26.5947 79.875 26.6042 80.1443 26.6799C80.4137 26.7556 80.6608 26.8951 80.8646 27.0867C84.3412 30.372 100.976 46.8161 102.454 53.9778C104.001 61.4698 81.2992 67.2235 78.3789 67.8841C78.1804 67.9287 78.0028 68.0389 77.8748 68.197C77.0057 69.2052 73.3553 73.1163 70.5566 70.6827C67.758 68.2491 65.3418 62.5823 73.7377 61.5915C78.8656 60.9831 90.7902 53.6128 90.7902 53.6128L76.4668 42.6443C76.4668 42.6443 71.8082 28.3035 79.3176 26.6521Z" fill="#FFEDE5"/>
<path d="M97.8129 117.512C90.9815 117.112 84.0631 117.512 77.2317 117.512C70.4003 117.512 63.4645 117.251 56.6505 117.738C56.6198 117.749 56.5932 117.769 56.5744 117.795C56.5556 117.822 56.5455 117.853 56.5455 117.886C56.5455 117.918 56.5556 117.95 56.5744 117.976C56.5932 118.003 56.6198 118.023 56.6505 118.033C63.4645 118.52 70.4003 118.225 77.2317 118.242C84.0631 118.259 90.9815 118.624 97.8129 118.242C97.9097 118.242 98.0026 118.204 98.071 118.135C98.1395 118.067 98.1779 117.974 98.1779 117.877C98.1779 117.78 98.1395 117.687 98.071 117.619C98.0026 117.55 97.9097 117.512 97.8129 117.512Z" fill="#F7F8F8"/>
<path d="M147.076 89.9602C139.514 89.5604 131.883 89.8385 124.322 89.8385C116.76 89.8385 109.077 89.3692 101.568 90.0471C101.494 90.0471 101.423 90.0764 101.371 90.1286C101.319 90.1808 101.29 90.2515 101.29 90.3253C101.29 90.399 101.319 90.4698 101.371 90.5219C101.423 90.5741 101.494 90.6034 101.568 90.6034C109.077 91.2639 116.795 90.7772 124.322 90.7946C131.848 90.812 139.514 91.0727 147.076 90.6903C147.173 90.6903 147.265 90.6518 147.334 90.5834C147.402 90.5149 147.441 90.4221 147.441 90.3253C147.441 90.2284 147.402 90.1356 147.334 90.0671C147.265 89.9987 147.173 89.9602 147.076 89.9602Z" fill="#F7F8F8"/>
<path d="M31.1499 80.1389C26.022 79.826 20.8072 80.052 15.6619 80.1389C10.493 79.9242 5.31605 80.0054 0.156445 80.3823C0.114953 80.3823 0.0751608 80.3988 0.0458217 80.4281C0.0164826 80.4575 0 80.4972 0 80.5387C0 80.5802 0.0164826 80.62 0.0458217 80.6494C0.0751608 80.6787 0.114953 80.6952 0.156445 80.6952C5.31644 81.0632 10.4929 81.1445 15.6619 80.9385C20.8767 80.9385 26.0915 81.1645 31.1499 80.9385C31.256 80.9385 31.3577 80.8964 31.4326 80.8214C31.5076 80.7465 31.5497 80.6448 31.5497 80.5387C31.5497 80.4327 31.5076 80.331 31.4326 80.256C31.3577 80.1811 31.256 80.1389 31.1499 80.1389Z" fill="#F7F8F8"/>
<path d="M36.3647 83.9457C30.862 83.4412 25.3218 83.5111 19.8336 84.1543C19.8336 84.1543 19.8336 84.3107 19.8336 84.3281C25.3229 84.9568 30.8623 85.0209 36.3647 84.5193C36.4287 84.5034 36.4856 84.4665 36.5263 84.4146C36.5669 84.3626 36.589 84.2985 36.589 84.2325C36.589 84.1665 36.5669 84.1024 36.5263 84.0504C36.4856 83.9984 36.4287 83.9616 36.3647 83.9457Z" fill="#F7F8F8"/>
<path d="M127.068 15.4577C119.906 15.0579 112.658 15.336 105.479 15.3534C98.2994 15.3708 91.0508 15.11 83.8891 15.6141C83.8338 15.6141 83.7807 15.6361 83.7416 15.6752C83.7025 15.7143 83.6805 15.7674 83.6805 15.8227C83.6805 15.878 83.7025 15.9311 83.7416 15.9702C83.7807 16.0093 83.8338 16.0313 83.8891 16.0313C91.0508 16.5354 98.3168 16.292 105.479 16.3094C112.64 16.3268 119.906 16.6049 127.068 16.2051C127.153 16.1866 127.23 16.1394 127.285 16.0714C127.339 16.0035 127.369 15.9187 127.369 15.8314C127.369 15.7441 127.339 15.6593 127.285 15.5914C127.23 15.5234 127.153 15.4762 127.068 15.4577Z" fill="#F7F8F8"/>
</svg>
