<svg width="315" height="150" viewBox="0 0 315 150" fill="none" xmlns="http://www.w3.org/2000/svg">
<rect width="315" height="150" rx="22" fill="url(#paint0_linear_326_6332)"/>
<mask id="mask0_326_6332" style="mask-type:alpha" maskUnits="userSpaceOnUse" x="0" y="0" width="315" height="150">
<rect width="315" height="150" rx="22" fill="white"/>
</mask>
<g mask="url(#mask0_326_6332)">
<ellipse opacity="0.3" cx="89" cy="104.5" rx="68" ry="67.5" fill="white"/>
<path d="M87.0229 197.162C84.1383 197.167 81.2616 196.863 78.4422 196.254C73.5144 195.243 68.8725 193.155 64.8509 190.139C60.8292 187.123 57.528 183.254 55.185 178.812C53.3258 174.657 51.9446 170.304 51.068 165.839L50.8658 164.988C47.9767 152.707 44.3364 139.719 37.6193 127.986C36.5359 126.097 35.3513 124.209 34.2101 122.393C31.4492 118.28 29.1116 113.9 27.233 109.318C24.3439 101.462 24.8783 93.6496 28.822 88.5035C29.3414 87.704 30.0174 87.0174 30.8092 86.4848C31.601 85.9523 32.4925 85.5848 33.4301 85.4043C34.0014 85.3354 34.5808 85.3843 35.1325 85.548C35.6841 85.7116 36.1962 85.9865 36.637 86.3557C36.9808 86.6293 37.2628 86.9724 37.4645 87.3624C37.6661 87.7525 37.7829 88.1806 37.8071 88.6188H36.8681C36.8455 88.3132 36.7593 88.0157 36.6151 87.7451C36.4708 87.4746 36.2716 87.2371 36.0303 87.0476C35.6873 86.7634 35.2907 86.5506 34.864 86.4219C34.4372 86.2931 33.989 86.251 33.5456 86.2981C31.9182 86.6682 30.4958 87.6488 29.5731 89.0369C25.8317 93.9523 25.2395 101.405 28.1286 108.958C29.9914 113.507 32.3147 117.854 35.0624 121.931C36.2036 123.762 37.3881 125.65 38.486 127.553C45.2176 139.373 48.9012 152.433 51.7903 164.786L51.9925 165.637C52.8508 170.029 54.2078 174.309 56.0373 178.394C58.3141 182.711 61.5232 186.47 65.4327 189.399C69.3423 192.328 73.8548 194.354 78.6445 195.331C88.3298 197.247 98.3785 195.887 107.203 191.468C110.737 189.897 113.927 187.649 116.593 184.852C119.305 181.576 121.395 177.834 122.761 173.81C125.173 167.496 127.095 160.837 128.828 154.422C131.501 144.851 134.26 134.948 138.94 125.982C140.385 123.358 141.829 120.778 143.36 118.284C146.227 113.809 148.647 109.063 150.583 104.115C152.244 99.4155 152.317 95.4658 150.814 92.5829C150.287 91.6215 149.554 90.7874 148.668 90.1398C147.782 89.4922 146.764 89.0468 145.686 88.8351C144.934 88.6575 144.15 88.6576 143.398 88.8352C142.646 89.0129 141.945 89.3633 141.352 89.8585L140.731 89.1522C141.428 88.5571 142.255 88.1326 143.145 87.9124C144.035 87.6922 144.965 87.6824 145.859 87.8837C147.082 88.1355 148.234 88.6537 149.233 89.4013C150.232 90.1488 151.053 91.1073 151.638 92.2081C153.27 95.3793 153.198 99.502 151.45 104.461C149.493 109.471 147.035 114.272 144.111 118.789C142.667 121.283 141.078 123.848 139.778 126.443C135.155 135.323 132.411 145.182 129.753 154.696C127.947 161.154 126.083 167.828 123.642 174.17C122.246 178.306 120.101 182.151 117.315 185.515C114.561 188.401 111.269 190.722 107.622 192.347C101.202 195.466 94.1633 197.111 87.0229 197.162Z" fill="#AB8DA8"/>
<path d="M97.6258 29.3168C98.3727 28.1337 98.8007 26.7782 98.8681 25.3815C98.9497 24.7543 98.8923 24.1168 98.7001 23.5141C98.5079 22.9114 98.1856 22.3581 97.7558 21.8932C97.3947 21.5472 96.9469 21.2733 96.6146 20.8985C96.2824 20.5238 96.1235 20.1346 95.849 19.7742C95.5515 19.3876 95.1686 19.0746 94.7302 18.8596C94.2918 18.6446 93.8096 18.5334 93.3211 18.5345C92.3243 18.5345 91.2698 18.9958 90.432 18.5345C89.9119 18.2751 89.5652 17.7561 88.9874 17.4678C88.4436 17.1916 87.8197 17.1151 87.2251 17.2516C86.7056 17.4324 86.157 17.5155 85.6072 17.4967C84.8271 17.3813 84.2926 16.6894 83.5993 16.3002C83.2428 16.1184 82.8508 16.0166 82.4508 16.0019C82.0508 15.9872 81.6523 16.06 81.2835 16.2152C80.9146 16.3704 80.5842 16.6042 80.3155 16.9003C80.0468 17.1963 79.8462 17.5475 79.7279 17.9291C79.6337 18.2931 79.6337 18.675 79.7279 19.039C79.8868 19.9183 80.4935 20.6247 80.5368 21.504C80.5802 22.3833 80.0457 23.1472 80.5368 23.9256C81.028 24.704 81.7502 24.7329 82.0969 25.468C82.5592 26.4626 82.0969 27.76 82.5158 28.8267C82.7325 29.5042 82.8481 30.4699 83.4837 30.9024C84.3649 31.5078 86.2861 31.0033 87.3406 30.9024L91.4287 30.5708C93.2344 30.3979 95.459 30.5708 97.0913 29.6771C97.2884 29.5877 97.4691 29.4659 97.6258 29.3168Z" fill="#3B2645"/>
<path d="M83.7581 28.6824C83.6147 28.4858 83.4268 28.3259 83.2096 28.2156C82.9925 28.1053 82.7523 28.0479 82.5086 28.0479C82.265 28.0479 82.0248 28.1053 81.8076 28.2156C81.5904 28.3259 81.4025 28.4858 81.2591 28.6824C80.0023 30.1238 82.1258 33.0068 83.7581 33.1798C83.8532 31.6821 83.8532 30.18 83.7581 28.6824Z" fill="#FFEDE5"/>
<path d="M104.054 52.8269C103.673 55.255 103.162 57.6609 102.523 60.0343C102.422 60.4812 102.335 60.9136 102.277 61.3316C102.22 61.7497 102.162 62.0668 102.09 62.6001C102.09 62.701 102.09 62.8163 102.09 62.9172C102.09 63.2632 101.988 63.6236 101.945 64.0128L100.125 80.9501C88.8142 84.0493 77.0122 80.9501 77.0122 80.9501C77.0122 80.9501 77.0122 80.7339 77.0122 80.3159C76.8244 78.3987 76.2466 72.3012 75.6688 65.4254C75.6688 65.4254 75.6688 65.3245 75.6688 65.2813C75.6746 65.1756 75.6746 65.0698 75.6688 64.9641C75.4232 62.0812 75.1921 59.0253 75.0043 56.1135C74.6576 51.0539 74.4409 46.3835 74.4843 43.4862C74.4843 42.4195 76.9833 42.5348 78.6879 42.3041C79.9447 42.1312 81.2303 42.0159 82.3426 41.9582C83.4549 41.9005 84.2927 41.8717 84.8561 41.8717H85.4917C85.4917 41.8717 85.6362 40.214 85.6362 40.1996L86.0262 36.1346C86.2158 36.1834 86.4091 36.2172 86.604 36.2355C86.9616 36.3024 87.3238 36.341 87.6874 36.3509C88.1641 36.3509 88.6119 36.3509 89.0309 36.3509L89.652 36.2788H90.0132C90.4176 36.2067 90.8077 36.1202 91.1688 36.0193C91.5299 35.9184 91.6455 35.8752 91.8766 35.8031C92.932 35.4656 93.9339 34.9803 94.8524 34.3616L94.9824 34.2751L95.228 34.0877L95.4013 33.958C95.4013 34.1598 95.4013 34.2463 95.4013 34.3328C95.2858 35.2842 95.1558 36.495 95.098 37.6914C95.098 38.5275 95.0113 39.3491 94.9824 40.0554C94.9535 40.7618 94.7224 41.7852 95.228 42.1456C95.4084 42.2467 95.6032 42.3197 95.8058 42.3618C96.5987 42.4867 97.4013 42.5398 98.2038 42.5204C98.4493 42.5204 98.6949 42.5204 98.9405 42.5204C99.5563 42.4846 100.174 42.4846 100.789 42.5204C101.22 42.5191 101.646 42.6039 102.043 42.7698C102.44 42.9357 102.8 43.1793 103.101 43.4862C103.475 44.027 103.713 44.6501 103.794 45.3024L103.968 46.4844C104.242 48.5881 104.272 50.7165 104.054 52.8269Z" fill="#FFEDE5"/>
<path d="M95.3437 33.8574C95.1483 34.889 94.7263 35.8646 94.108 36.714C93.4898 37.5635 92.6906 38.2656 91.7679 38.7701C90.8452 39.2746 89.822 39.5688 88.7718 39.6315C87.7216 39.6943 86.6705 39.5241 85.6941 39.1332L85.9686 36.1494C87.6044 36.4643 89.2892 36.4225 90.9074 36.0269C92.5256 35.6313 94.0389 34.8912 95.3437 33.8574Z" fill="#E0855C" fill-opacity="0.1"/>
<path d="M84.0469 24.358C83.2091 25.2229 83.1369 27.1545 83.0791 29.2879C82.8624 35.7745 84.8126 37.7926 88.1206 38.153C91.4286 38.5133 94.9099 37.2304 95.6178 31.2339C95.9789 28.2212 96.3545 25.468 95.2566 24.1562C93.6821 22.2247 86.5894 21.7057 84.0469 24.358Z" fill="#FFEDE5"/>
<path d="M95.1267 30.3546C95.1267 30.3546 96.1379 27.6735 97.7414 29.1005C99.3448 30.5276 97.1346 34.5781 94.6789 34.2754C94.7078 34.2754 94.3756 31.2772 95.1267 30.3546Z" fill="#FFEDE5"/>
<path d="M97.0339 30.3257C96.6547 30.444 96.315 30.6633 96.0516 30.96C95.7532 31.2087 95.5118 31.5183 95.3438 31.8681C95.3437 31.969 95.4449 32.0411 95.5171 31.969C95.7207 31.7679 95.9136 31.5561 96.0949 31.3348C96.2267 31.4798 96.3897 31.5931 96.5716 31.6663C96.7161 31.6663 96.8316 31.5366 96.7739 31.4213C96.6738 31.2686 96.5405 31.1405 96.3838 31.0465C96.6535 30.8742 96.9094 30.6814 97.1494 30.4699C97.1539 30.4525 97.1543 30.4344 97.1506 30.4169C97.1468 30.3994 97.139 30.383 97.1278 30.369C97.1166 30.355 97.1023 30.3438 97.086 30.3363C97.0697 30.3288 97.0518 30.3252 97.0339 30.3257Z" fill="#E0855C" fill-opacity="0.1"/>
<path d="M85.9252 29.1439C85.9252 29.1439 85.3618 29.3457 85.4485 28.3511C85.5352 27.3565 85.9252 27.5871 85.9252 27.5871C85.9252 27.5871 86.3153 27.5871 86.2575 28.3655C86.1997 29.1439 85.9252 29.1439 85.9252 29.1439Z" fill="#3B2645"/>
<path d="M91.6024 29.1439C91.6024 29.1439 91.0535 29.3457 91.1401 28.3511C91.2268 27.3565 91.6024 27.5871 91.6024 27.5871C91.6024 27.5871 91.9924 27.5871 91.9346 28.3655C91.8769 29.1439 91.6024 29.1439 91.6024 29.1439Z" fill="#3B2645"/>
<path d="M86.5323 26.1311C86.3053 26.0029 86.0437 25.9492 85.7844 25.9776C85.5251 26.0061 85.2814 26.1153 85.0878 26.2897C85.078 26.3094 85.0733 26.3313 85.0744 26.3533C85.0754 26.3752 85.082 26.3966 85.0935 26.4154C85.1051 26.4341 85.1212 26.4496 85.1404 26.4604C85.1596 26.4712 85.1813 26.4769 85.2033 26.4771C85.4056 26.4771 85.5789 26.3618 85.7812 26.3474C85.993 26.3373 86.2046 26.3717 86.4023 26.4483C86.5901 26.5059 86.7201 26.2176 86.5323 26.1311Z" fill="#3B2645"/>
<path d="M92.4545 26.6211C92.2234 26.0445 91.2266 26.0013 90.7933 26.3473C90.7723 26.3634 90.7553 26.3842 90.7436 26.4079C90.7319 26.4316 90.7258 26.4577 90.7258 26.4842C90.7258 26.5106 90.7319 26.5367 90.7436 26.5605C90.7553 26.5842 90.7723 26.605 90.7933 26.6211C91.0528 26.6427 91.3138 26.6427 91.5733 26.6211C91.7834 26.6549 91.9876 26.718 92.18 26.8085C92.2049 26.8448 92.2433 26.8698 92.2866 26.8779C92.33 26.886 92.3748 26.8766 92.4112 26.8518C92.4476 26.8269 92.4726 26.7887 92.4807 26.7454C92.4888 26.7022 92.4794 26.6575 92.4545 26.6211Z" fill="#3B2645"/>
<path d="M87.0662 33.7851C88.2848 33.9445 89.5232 33.7335 90.6198 33.1797C90.4558 33.5643 90.213 33.9105 89.907 34.196C89.601 34.4815 89.2386 34.6999 88.843 34.8374C87.5862 35.1833 87.0662 33.7851 87.0662 33.7851Z" fill="white"/>
<path d="M79.7715 43.4718C83.0939 45.7926 83.3973 50.3044 81.7794 53.9081C80.6815 56.3153 78.6447 58.0018 77.4457 60.2794C76.1963 62.4883 74.7456 64.5776 73.1121 66.521C69.5296 71.0616 66.1204 75.1698 64.8059 76.7266C60.2845 82.1177 50.7793 89.2386 47.3557 91.7179C46.5757 92.2945 46.1134 92.6117 46.1134 92.6117C46.1134 92.6117 42.8343 90.8963 43.701 87.7251C43.701 87.7251 56.702 73.9446 58.6232 71.1337C60.7464 67.4801 62.6752 63.7175 64.4014 59.8613C66.6164 55.585 68.9229 51.3663 71.3208 47.2052C72.4187 45.288 73.8199 42.8808 76.2323 42.4483C77.2058 42.3392 78.1887 42.5464 79.0347 43.0393C79.2903 43.1658 79.5365 43.3103 79.7715 43.4718Z" fill="#FFEDE5"/>
<path d="M43.701 87.7397C44.0568 87.7124 44.4142 87.7124 44.77 87.7397C44.77 87.7397 47.8902 89.4695 47.3557 91.7182C47.3557 91.7182 47.0235 92.0209 46.5034 92.4822C45.9834 92.9434 45.42 93.4912 44.7411 94.1831C44.0621 94.875 42.5165 97.0661 41.852 96.8787C41.6971 96.8216 41.5618 96.7216 41.462 96.5904L40.1185 95.1489C39.3674 94.3128 38.1106 92.9002 39.064 91.7902C38.3706 92.2083 36.7527 93.2317 35.9582 92.7416L35.626 92.2083C35.626 92.2083 38.0095 90.4353 38.9918 89.556C40.3169 88.4473 41.9731 87.8085 43.701 87.7397Z" fill="#FFEDE5"/>
<path d="M83.7149 65.5557C83.7099 65.6325 83.7099 65.7095 83.7149 65.7863C83.7149 65.7863 83.8449 65.7863 83.816 65.7863L83.7149 65.5557Z" fill="#D6BED3"/>
<path d="M89.0741 112.274C87.7451 122.897 86.185 132.137 86.185 132.137C86.4017 134.703 86.5028 137.485 86.5028 140.339C86.5028 145.932 86.1272 151.871 85.6505 157.103C85.0438 163.778 84.2059 169.457 83.8448 172.311V172.671C84.3793 191.598 78.9767 194.106 76.4487 189.969C73.9207 185.832 76.4487 173.637 76.4487 173.637C76.4568 173.527 76.4568 173.416 76.4487 173.306C75.3852 167.642 74.676 161.918 74.3252 156.167C73.4585 142.242 74.9464 132.714 74.773 130.984C71.7539 100.713 75.972 84.0207 75.972 84.0207C76.6306 81.5952 77.8195 79.3454 79.4534 77.4332C82.5303 74.1178 86.2283 74.9538 88.554 79.0044C88.7986 79.4197 89.0204 79.848 89.2185 80.2873C90.1662 82.6138 90.7038 85.0863 90.8075 87.5956C91.0387 93.866 90.1575 103.538 89.0741 112.274Z" fill="#F5A784"/>
<path d="M103.996 155.431C103.66 161.303 102.956 167.147 101.887 172.931L101.757 173.637C101.757 173.637 104.285 185.875 101.757 189.969C99.2292 194.063 93.8844 191.67 94.3611 172.931C94.3611 172.844 94.3611 172.758 94.3611 172.686C93.9566 169.976 93.1477 164.109 92.5121 157.161C92.0209 151.885 91.6454 145.975 91.6454 140.382C91.6454 137.499 91.7609 134.732 91.9776 132.151C91.9776 132.151 90.3741 122.912 89.0885 112.302C88.0051 103.553 87.1095 93.8802 87.485 87.6675C87.5931 85.1573 88.1356 82.6848 89.0885 80.3592C89.2777 79.9064 89.4998 79.468 89.753 79.0475C92.4254 74.4203 96.8746 74.0167 100.154 79.2348C101.093 80.7474 101.831 82.3756 102.349 84.0782C102.349 84.0782 106.568 100.727 103.548 131.041C103.332 132.742 104.762 141.939 103.996 155.431Z" fill="#F5A784"/>
<path d="M43.3543 97.0945C43.6421 97.427 43.9996 97.6923 44.4015 97.8716C44.8034 98.0509 45.2399 98.14 45.68 98.1324C45.8817 98.0856 46.0717 97.9984 46.2386 97.8762C46.4056 97.7541 46.5459 97.5994 46.6513 97.4215C46.7566 97.2436 46.8247 97.0463 46.8514 96.8415C46.8781 96.6366 46.863 96.4285 46.8068 96.2296C46.6388 95.7912 46.3661 95.4003 46.0123 95.0909C43.831 92.9287 41.592 90.7665 39.324 88.7628C38.945 88.3365 38.4385 88.0433 37.8795 87.9268C37.3596 87.9265 36.8564 88.1104 36.4597 88.4456C36.0629 88.7808 35.7982 89.2457 35.7126 89.7574C35.7126 90.68 36.5071 91.0259 37.1572 91.5449C39.2085 93.3611 41.2597 95.2639 43.3543 97.0945Z" fill="#3B2645"/>
<path d="M43.036 94.5438C43.1259 94.4513 43.1992 94.344 43.2527 94.2267C43.2893 94.0778 43.2914 93.9225 43.2589 93.7726C43.2264 93.6228 43.16 93.4823 43.0649 93.3618C42.5304 92.4825 41.4326 91.0699 40.3492 90.9401C39.9915 90.922 39.6352 90.9976 39.3159 91.1594C38.9966 91.3213 38.7253 91.5637 38.529 91.8627C38.2048 92.3281 37.9987 92.865 37.9282 93.4274C37.8578 93.9898 37.9251 94.5609 38.1245 95.0916C38.4416 96.0463 39.0929 96.8549 39.9591 97.3691C40.3914 97.5519 40.8776 97.561 41.3164 97.3944C41.7552 97.2279 42.1125 96.8986 42.3137 96.4754C42.5304 95.9421 42.4582 95.2934 42.8049 94.8465C42.8706 94.7375 42.9481 94.636 43.036 94.5438Z" fill="#FFEDE5"/>
<path d="M98.3194 43.4718C94.9825 45.7926 94.6791 50.3044 96.3115 53.9081C97.3949 56.3154 99.4317 58.0019 100.645 60.2794C101.905 62.4819 103.355 64.5704 104.979 66.521C108.561 71.0617 111.985 75.1699 113.285 76.7267C117.821 82.1466 127.326 89.2387 130.75 91.718L132.006 92.6117C132.006 92.6117 135.271 90.8963 134.404 87.7251C134.404 87.7251 121.403 73.9446 119.482 71.1337C117.353 67.4833 115.424 63.7204 113.704 59.8614C111.479 55.537 109.182 51.3711 106.77 47.2052C105.672 45.2881 104.285 42.8808 101.859 42.4484C100.885 42.3402 99.9025 42.5475 99.0561 43.0394C98.8002 43.1652 98.5539 43.3097 98.3194 43.4718Z" fill="#FFEDE5"/>
<path d="M134.39 87.7395C134.029 87.7125 133.667 87.7125 133.307 87.7395C133.307 87.7395 130.186 89.4693 130.721 91.718C130.721 91.718 131.067 92.0207 131.573 92.482C132.079 92.9433 132.671 93.491 133.335 94.1829C134 94.8748 135.574 97.0659 136.224 96.8785C136.377 96.8176 136.512 96.7183 136.615 96.5902L137.944 95.1487C138.709 94.3127 139.951 92.9 139.012 91.7901C139.691 92.2081 141.309 93.2316 142.118 92.7415L142.393 92.2081C142.393 92.2081 140.009 90.4351 139.012 89.5558C137.713 88.4611 136.089 87.8229 134.39 87.7395Z" fill="#FFEDE5"/>
<path d="M134.722 97.095C134.434 97.4274 134.077 97.6927 133.675 97.8721C133.273 98.0514 132.837 98.1404 132.396 98.1328C132.192 98.0893 131.999 98.0045 131.829 97.8838C131.659 97.763 131.515 97.6088 131.407 97.4305C131.299 97.2523 131.228 97.0539 131.199 96.8474C131.171 96.641 131.185 96.4309 131.241 96.2301C131.421 95.8109 131.698 95.4404 132.05 95.149C134.236 92.9868 136.47 90.8774 138.752 88.8209C139.129 88.3922 139.637 88.0985 140.197 87.9849C140.715 87.9851 141.216 88.1695 141.611 88.505C142.005 88.8404 142.267 89.305 142.349 89.8155C142.349 90.7381 141.569 91.084 140.905 91.603C138.868 93.3616 136.817 95.2643 134.722 97.095Z" fill="#3B2645"/>
<path d="M135.054 94.5438C134.956 94.4556 134.877 94.3475 134.823 94.2267C134.793 94.0765 134.795 93.9215 134.83 93.7723C134.865 93.623 134.931 93.483 135.025 93.3618C135.545 92.4825 136.643 91.0699 137.727 90.9401C138.084 90.922 138.441 90.9976 138.76 91.1594C139.079 91.3213 139.351 91.5637 139.547 91.8627C139.867 92.3303 140.068 92.8692 140.131 93.4322C140.194 93.9952 140.117 94.565 139.908 95.0916C139.6 96.0514 138.947 96.8631 138.073 97.3691C137.641 97.5519 137.155 97.561 136.716 97.3944C136.277 97.2279 135.92 96.8986 135.719 96.4754C135.516 95.9421 135.589 95.2934 135.228 94.8465L135.054 94.5438Z" fill="#FFEDE5"/>
<path d="M104.213 146.191V147.633C104.213 148.599 104.213 149.593 104.213 150.617V151.784C104.213 152.966 104.126 154.192 104.068 155.446C100.328 156.475 96.4772 157.051 92.5987 157.161C92.4398 155.547 92.122 151.251 92.1076 150.775C92.1076 149.795 91.8909 147.028 91.8765 146.653C91.7898 144.548 91.732 142.444 91.732 140.382C91.732 137.701 91.8331 135.078 92.0354 132.642C92.0354 132.469 92.0354 132.31 92.0354 132.152C92.0354 131.993 90.4319 122.926 89.1463 112.302C89.0018 113.427 88.8573 114.551 88.7129 115.632C87.4995 124.771 86.2138 132.152 86.2138 132.152C86.4305 134.717 86.5316 137.499 86.5316 140.353C86.5316 142.53 86.5316 144.678 86.3727 146.955C86.3727 147.33 86.0838 152.145 86.0405 152.606C85.9394 154.148 85.8093 155.662 85.6793 157.118C83.657 157.031 81.6635 156.902 79.6845 156.729C78.1243 156.599 76.1598 156.512 74.2529 156.239C74.1663 154.941 74.1085 153.702 74.0652 152.491C74.0652 152.188 74.0652 151.885 74.0652 151.583C74.0652 150.256 74.0652 149.002 74.0652 147.792V146.84C74.0652 138.105 74.9174 132.353 74.7874 130.984C71.7683 100.713 75.9864 84.0206 75.9864 84.0206C76.645 81.5951 77.8339 79.3454 79.4678 77.4331C80.7061 77.6244 81.9211 77.9433 83.0936 78.3845C84.8797 78.8502 86.7232 79.0589 88.5684 79.0043H89.8974C91.5009 79.0043 93.1043 78.8169 94.6933 78.7737H95.7623C97.2856 78.7511 98.8067 78.8961 100.298 79.2061C101.19 80.7351 101.879 82.3728 102.349 84.0783C103.516 89.5191 104.203 95.0515 104.401 100.612C104.89 110.762 104.605 120.935 103.548 131.042C103.375 132.324 104.141 137.816 104.213 146.191Z" fill="#3B2645"/>
<path d="M46.3158 41.7568C46.3158 41.6703 46.1425 41.6703 46.128 41.7568C45.4058 46.6722 45.8247 51.8471 45.8247 56.8778C45.8247 62.1969 45.6513 67.5592 45.9691 72.8638C45.9828 72.9204 46.0152 72.9708 46.061 73.0069C46.1069 73.0429 46.1636 73.0625 46.2219 73.0625C46.2803 73.0625 46.337 73.0429 46.3828 73.0069C46.4287 72.9708 46.4611 72.9204 46.4747 72.8638C46.7781 67.5592 46.6047 62.1969 46.6047 56.8778C46.6047 51.9624 47.0237 46.7154 46.3158 41.7568Z" fill="#F7F8F8"/>
<path d="M52.6281 43.4286C52.6127 43.3578 52.5735 43.2944 52.517 43.249C52.4605 43.2035 52.3901 43.1787 52.3175 43.1787C52.2449 43.1787 52.1745 43.2035 52.118 43.249C52.0615 43.2944 52.0223 43.3578 52.0069 43.4286C52.0069 48.1566 51.7035 52.9712 52.0069 57.6848C52.0069 57.7651 52.0389 57.8421 52.0957 57.8988C52.1526 57.9556 52.2298 57.9875 52.3103 57.9875C52.3907 57.9875 52.4679 57.9556 52.5248 57.8988C52.5816 57.8421 52.6136 57.7651 52.6136 57.6848C52.9459 52.9712 52.6569 48.1566 52.6281 43.4286Z" fill="#F7F8F8"/>
<path d="M117.214 92.9291C117.203 92.8865 117.177 92.8489 117.142 92.8221C117.107 92.7953 117.064 92.7808 117.019 92.7808C116.975 92.7808 116.932 92.7953 116.897 92.8221C116.861 92.8489 116.836 92.8865 116.824 92.9291C116.417 99.1189 116.335 105.326 116.579 111.524C116.579 117.722 116.579 123.906 116.81 130.105C116.822 130.151 116.849 130.192 116.887 130.221C116.925 130.25 116.971 130.266 117.019 130.266C117.067 130.266 117.114 130.25 117.151 130.221C117.189 130.192 117.217 130.151 117.229 130.105C117.431 123.906 117.431 117.722 117.46 111.524C117.696 105.326 117.614 99.1192 117.214 92.9291Z" fill="#F7F8F8"/>
<path d="M128.352 56.6761C128.306 52.5515 128.036 48.4324 127.543 44.3371C127.543 44.0921 127.153 44.1641 127.138 44.3371C127.027 48.7662 127.157 53.1981 127.528 57.6131C127.716 61.7213 127.673 65.9304 128.222 69.9954C128.222 70.3701 128.857 70.2548 128.872 69.9089C129.074 65.5124 128.612 61.0294 128.352 56.6761Z" fill="#F7F8F8"/>
<path d="M131.241 58.9682C131.23 58.936 131.21 58.9078 131.183 58.8878C131.156 58.8677 131.123 58.8569 131.089 58.8569C131.055 58.8569 131.022 58.8677 130.995 58.8878C130.967 58.9078 130.947 58.936 130.937 58.9682C130.554 64.8905 130.526 70.8303 130.851 76.756C130.842 76.7922 130.841 76.8298 130.849 76.8662C130.857 76.9026 130.873 76.9367 130.895 76.966C130.918 76.9953 130.948 77.019 130.981 77.0353C131.015 77.0516 131.052 77.0601 131.089 77.0601C131.126 77.0601 131.163 77.0516 131.196 77.0353C131.23 77.019 131.259 76.9953 131.282 76.966C131.305 76.9367 131.321 76.9026 131.329 76.8662C131.337 76.8298 131.336 76.7922 131.327 76.756C131.652 70.8303 131.623 64.8905 131.241 58.9682Z" fill="#F7F8F8"/>
<path d="M88.6409 115.618C88.6629 114.495 88.8082 113.379 89.0743 112.288C88.9298 113.412 88.7853 114.537 88.6409 115.618Z" fill="#291B30"/>
<path d="M104.358 100.612C102.407 88.9215 86.3007 88.3737 86.3007 88.3737C85.304 83.5592 91.8044 82.1177 91.8044 82.1177L95.6036 78.8456C97.1269 78.8229 98.648 78.968 100.139 79.278C101.08 80.7763 101.823 82.3897 102.35 84.0781C103.493 89.5217 104.165 95.0533 104.358 100.612Z" fill="#291B30"/>
<path d="M102.581 85.3325C89.5801 91.4299 75.4524 85.837 75.4524 85.837C76.478 82.954 75.7124 68.251 75.6402 65.4545C75.6402 65.4545 75.6402 65.3536 75.6402 65.3104C75.646 65.2047 75.646 65.0989 75.6402 64.9932C78.3704 58.6796 78.6737 46.5135 78.6882 42.3333C79.916 42.1459 81.2017 42.045 82.314 41.9873C82.7474 46.6577 84.293 58.6363 88.5978 58.1174C92.9026 57.5985 94.9538 46.9316 95.705 42.2612C96.497 42.3938 97.3003 42.4469 98.1029 42.4197C98.3485 42.4197 98.5941 42.4197 98.8397 42.4197C98.4641 48.8055 102.018 62.2256 102.119 62.6004C102.119 62.7013 102.119 62.8166 102.119 62.9175C102.119 63.2635 102.018 63.6238 101.974 64.013C101.974 64.013 101.974 64.1716 101.974 64.2581C101.064 72.388 102.581 85.3325 102.581 85.3325Z" fill="#AB8DA8"/>
<ellipse opacity="0.3" cx="240" cy="107.5" rx="54" ry="53.5" fill="white"/>
<path d="M238.425 181.348C236.126 181.353 233.834 181.11 231.588 180.625C227.661 179.82 223.963 178.156 220.758 175.753C217.554 173.349 214.923 170.267 213.056 166.727C211.575 163.416 210.475 159.949 209.776 156.39L209.615 155.713C207.313 145.927 204.412 135.579 199.06 126.229C198.197 124.725 197.253 123.22 196.344 121.773C194.144 118.496 192.281 115.006 190.784 111.356C188.482 105.096 188.908 98.8707 192.051 94.7704C192.465 94.1334 193.003 93.5863 193.634 93.1619C194.265 92.7376 194.975 92.4448 195.722 92.301C196.178 92.2461 196.639 92.285 197.079 92.4154C197.518 92.5458 197.926 92.7649 198.278 93.0591C198.552 93.2771 198.776 93.5504 198.937 93.8612C199.098 94.172 199.191 94.5131 199.21 94.8623H198.462C198.444 94.6188 198.375 94.3817 198.26 94.1661C198.145 93.9506 197.986 93.7613 197.794 93.6104C197.521 93.3839 197.205 93.2144 196.865 93.1118C196.525 93.0092 196.168 92.9757 195.814 93.0131C194.518 93.308 193.384 94.0894 192.649 95.1954C189.668 99.1119 189.196 105.05 191.498 111.068C192.982 114.693 194.834 118.156 197.023 121.405C197.932 122.864 198.876 124.369 199.751 125.885C205.115 135.303 208.05 145.709 210.352 155.552L210.513 156.23C211.197 159.729 212.278 163.139 213.736 166.394C215.55 169.834 218.107 172.829 221.222 175.163C224.337 177.497 227.932 179.111 231.749 179.89C239.466 181.416 247.473 180.333 254.504 176.812C257.32 175.56 259.861 173.769 261.986 171.54C264.147 168.93 265.812 165.948 266.9 162.742C268.823 157.711 270.353 152.405 271.735 147.294C273.864 139.667 276.062 131.777 279.792 124.633C280.943 122.542 282.094 120.487 283.314 118.5C285.598 114.933 287.526 111.152 289.069 107.209C290.392 103.465 290.45 100.318 289.253 98.0208C288.833 97.2548 288.249 96.5902 287.543 96.0742C286.837 95.5582 286.026 95.2033 285.167 95.0346C284.567 94.8931 283.943 94.8931 283.344 95.0347C282.744 95.1763 282.186 95.4555 281.714 95.85L281.219 95.2873C281.774 94.8131 282.433 94.4749 283.142 94.2994C283.851 94.1239 284.592 94.1161 285.305 94.2765C286.279 94.4772 287.197 94.8901 287.993 95.4857C288.789 96.0814 289.443 96.845 289.909 97.7222C291.21 100.249 291.152 103.534 289.759 107.485C288.201 111.477 286.242 115.302 283.912 118.902C282.761 120.889 281.495 122.933 280.459 125C276.776 132.075 274.589 139.932 272.471 147.512C271.033 152.658 269.548 157.975 267.603 163.029C266.49 166.324 264.781 169.388 262.561 172.068C260.367 174.368 257.743 176.217 254.838 177.512C249.722 179.997 244.114 181.308 238.425 181.348Z" fill="#AB8DA8"/>
<path d="M246.873 47.6107C247.468 46.668 247.809 45.588 247.863 44.4751C247.928 43.9753 247.882 43.4674 247.729 42.9872C247.576 42.5069 247.319 42.0661 246.976 41.6956C246.689 41.42 246.332 41.2017 246.067 40.9031C245.802 40.6045 245.676 40.2944 245.457 40.0072C245.22 39.6992 244.915 39.4498 244.566 39.2785C244.216 39.1072 243.832 39.0186 243.443 39.0195C242.649 39.0195 241.808 39.387 241.141 39.0195C240.727 38.8127 240.45 38.3993 239.99 38.1696C239.557 37.9495 239.059 37.8885 238.586 37.9973C238.172 38.1413 237.735 38.2075 237.297 38.1925C236.675 38.1006 236.249 37.5493 235.697 37.2392C235.413 37.0943 235.1 37.0132 234.782 37.0015C234.463 36.9898 234.145 37.0478 233.851 37.1714C233.558 37.2951 233.294 37.4814 233.08 37.7173C232.866 37.9532 232.706 38.233 232.612 38.5371C232.537 38.8271 232.537 39.1314 232.612 39.4215C232.739 40.1221 233.222 40.6849 233.257 41.3855C233.291 42.0861 232.865 42.6949 233.257 43.3151C233.648 43.9353 234.223 43.9583 234.5 44.544C234.868 45.3365 234.5 46.3702 234.833 47.2202C235.006 47.76 235.098 48.5295 235.605 48.8741C236.307 49.3565 237.838 48.9545 238.678 48.8741L241.935 48.6099C243.374 48.4721 245.146 48.6099 246.447 47.8978C246.604 47.8266 246.748 47.7295 246.873 47.6107Z" fill="#3B2645"/>
<path d="M235.823 47.1052C235.709 46.9486 235.559 46.8211 235.386 46.7333C235.213 46.6454 235.022 46.5996 234.828 46.5996C234.634 46.5996 234.442 46.6454 234.269 46.7333C234.096 46.8211 233.946 46.9486 233.832 47.1052C232.831 48.2537 234.523 50.5508 235.823 50.6887C235.899 49.4954 235.899 48.2985 235.823 47.1052Z" fill="#FFEDE5"/>
<path d="M251.995 66.3437C251.692 68.2783 251.284 70.1954 250.775 72.0864C250.694 72.4425 250.625 72.7871 250.579 73.1201C250.533 73.4532 250.487 73.7059 250.43 74.1309C250.43 74.2113 250.43 74.3032 250.43 74.3836C250.43 74.6592 250.349 74.9463 250.315 75.2565L248.864 88.752C239.852 91.2214 230.448 88.752 230.448 88.752C230.448 88.752 230.448 88.5797 230.448 88.2466C230.299 86.719 229.838 81.8606 229.378 76.382C229.378 76.382 229.378 76.3016 229.378 76.2672C229.383 76.183 229.383 76.0987 229.378 76.0145C229.182 73.7174 228.998 71.2825 228.848 68.9624C228.572 64.9309 228.4 61.2096 228.434 58.901C228.434 58.0511 230.425 58.143 231.783 57.9592C232.785 57.8214 233.809 57.7295 234.696 57.6836C235.582 57.6376 236.249 57.6146 236.698 57.6146H237.205C237.205 57.6146 237.32 56.2938 237.32 56.2823L237.631 53.0434C237.782 53.0823 237.936 53.1092 238.091 53.1238C238.376 53.1771 238.665 53.2078 238.954 53.2157C239.334 53.2157 239.691 53.2157 240.025 53.2157L240.52 53.1583H240.807C241.13 53.1008 241.44 53.0319 241.728 52.9515C242.016 52.8711 242.108 52.8367 242.292 52.7792C243.133 52.5104 243.931 52.1236 244.663 51.6307L244.767 51.5618L244.962 51.4125L245.101 51.3091C245.101 51.4699 245.101 51.5388 245.101 51.6077C245.009 52.3658 244.905 53.3305 244.859 54.2838C244.859 54.95 244.79 55.6047 244.767 56.1675C244.744 56.7303 244.56 57.5457 244.962 57.8329C245.106 57.9135 245.261 57.9716 245.423 58.0052C246.055 58.1047 246.694 58.147 247.334 58.1315C247.529 58.1315 247.725 58.1315 247.921 58.1315C248.411 58.103 248.903 58.103 249.394 58.1315C249.737 58.1305 250.076 58.1981 250.393 58.3303C250.709 58.4624 250.996 58.6565 251.235 58.901C251.534 59.332 251.723 59.8284 251.788 60.3482L251.926 61.29C252.145 62.9662 252.168 64.6621 251.995 66.3437Z" fill="#FFEDE5"/>
<path d="M245.055 51.2285C244.899 52.0505 244.563 52.8278 244.07 53.5046C243.577 54.1815 242.941 54.7409 242.206 55.1429C241.47 55.5448 240.655 55.7793 239.818 55.8293C238.981 55.8793 238.144 55.7437 237.366 55.4322L237.585 53.0547C238.888 53.3056 240.231 53.2723 241.52 52.9571C242.809 52.6419 244.015 52.0522 245.055 51.2285Z" fill="#E0855C" fill-opacity="0.1"/>
<path d="M236.053 43.6597C235.386 44.3488 235.328 45.8879 235.282 47.5877C235.11 52.7562 236.664 54.3642 239.299 54.6514C241.935 54.9385 244.709 53.9163 245.273 49.1383C245.561 46.7378 245.86 44.5441 244.985 43.4989C243.731 41.9598 238.079 41.5463 236.053 43.6597Z" fill="#FFEDE5"/>
<path d="M244.882 48.4376C244.882 48.4376 245.687 46.3013 246.965 47.4384C248.243 48.5754 246.482 51.8029 244.525 51.5617C244.548 51.5617 244.283 49.1727 244.882 48.4376Z" fill="#FFEDE5"/>
<path d="M246.401 48.4146C246.099 48.5088 245.829 48.6835 245.619 48.92C245.381 49.1181 245.189 49.3649 245.055 49.6436C245.055 49.724 245.135 49.7814 245.193 49.7239C245.355 49.5637 245.509 49.395 245.653 49.2186C245.758 49.3341 245.888 49.4244 246.033 49.4828C246.148 49.4828 246.24 49.3794 246.194 49.2875C246.114 49.1659 246.008 49.0638 245.883 48.9889C246.098 48.8516 246.302 48.698 246.493 48.5295C246.497 48.5156 246.497 48.5012 246.494 48.4872C246.491 48.4733 246.485 48.4602 246.476 48.449C246.467 48.4379 246.456 48.429 246.443 48.423C246.43 48.417 246.416 48.4141 246.401 48.4146Z" fill="#E0855C" fill-opacity="0.1"/>
<path d="M237.55 47.4728C237.55 47.4728 237.101 47.6336 237.17 46.8411C237.239 46.0485 237.55 46.2323 237.55 46.2323C237.55 46.2323 237.861 46.2323 237.815 46.8525C237.769 47.4728 237.55 47.4728 237.55 47.4728Z" fill="#3B2645"/>
<path d="M242.073 47.4728C242.073 47.4728 241.636 47.6336 241.705 46.8411C241.774 46.0485 242.073 46.2323 242.073 46.2323C242.073 46.2323 242.384 46.2323 242.338 46.8525C242.292 47.4728 242.073 47.4728 242.073 47.4728Z" fill="#3B2645"/>
<path d="M238.034 45.0726C237.853 44.9704 237.645 44.9276 237.438 44.9503C237.231 44.9729 237.037 45.0599 236.883 45.1989C236.875 45.2146 236.871 45.232 236.872 45.2495C236.873 45.2671 236.878 45.2841 236.887 45.299C236.897 45.3139 236.91 45.3263 236.925 45.3349C236.94 45.3435 236.957 45.3481 236.975 45.3482C237.136 45.3482 237.274 45.2563 237.435 45.2448C237.604 45.2368 237.773 45.2642 237.93 45.3252C238.08 45.3712 238.184 45.1415 238.034 45.0726Z" fill="#3B2645"/>
<path d="M242.753 45.4628C242.568 45.0034 241.774 44.9689 241.429 45.2446C241.412 45.2575 241.399 45.274 241.389 45.2929C241.38 45.3118 241.375 45.3326 241.375 45.3537C241.375 45.3748 241.38 45.3956 241.389 45.4145C241.399 45.4334 241.412 45.4499 241.429 45.4628C241.636 45.48 241.844 45.48 242.051 45.4628C242.218 45.4897 242.381 45.54 242.534 45.6121C242.554 45.6411 242.584 45.6609 242.619 45.6674C242.653 45.6739 242.689 45.6664 242.718 45.6466C242.747 45.6268 242.767 45.5963 242.774 45.5618C242.78 45.5274 242.772 45.4917 242.753 45.4628Z" fill="#3B2645"/>
<path d="M238.459 51.1709C239.43 51.2979 240.417 51.1298 241.291 50.6885C241.16 50.995 240.967 51.2708 240.723 51.4983C240.479 51.7257 240.19 51.8998 239.875 52.0093C238.874 52.285 238.459 51.1709 238.459 51.1709Z" fill="white"/>
<path d="M232.647 58.8894C235.294 60.7386 235.536 64.3335 234.247 67.2049C233.372 69.123 231.749 70.4668 230.794 72.2815C229.798 74.0416 228.642 75.7064 227.341 77.2548C224.486 80.8727 221.77 84.1461 220.722 85.3865C217.12 89.6821 209.546 95.356 206.818 97.3315C206.197 97.7909 205.828 98.0436 205.828 98.0436C205.828 98.0436 203.216 96.6768 203.906 94.15C203.906 94.15 214.265 83.1698 215.796 80.9301C217.488 78.019 219.025 75.021 220.4 71.9484C222.165 68.5411 224.003 65.1796 225.913 61.8641C226.788 60.3366 227.905 58.4185 229.827 58.0739C230.603 57.9869 231.386 58.1521 232.06 58.5448C232.264 58.6455 232.46 58.7607 232.647 58.8894Z" fill="#FFEDE5"/>
<path d="M203.906 94.1618C204.19 94.1401 204.474 94.1401 204.758 94.1618C204.758 94.1618 207.244 95.5401 206.818 97.3318C206.818 97.3318 206.553 97.573 206.139 97.9406C205.725 98.3081 205.276 98.7446 204.735 99.2959C204.194 99.8472 202.962 101.593 202.433 101.444C202.309 101.398 202.202 101.318 202.122 101.214L201.052 100.065C200.453 99.3992 199.452 98.2736 200.211 97.3893C199.659 97.7223 198.37 98.5378 197.737 98.1473L197.472 97.7223C197.472 97.7223 199.371 96.3096 200.154 95.609C201.21 94.7256 202.529 94.2167 203.906 94.1618Z" fill="#FFEDE5"/>
<path d="M235.789 76.4854C235.785 76.5465 235.785 76.6079 235.789 76.6691C235.789 76.6691 235.892 76.6691 235.869 76.6691L235.789 76.4854Z" fill="#D6BED3"/>
<path d="M240.059 113.71C239 122.175 237.757 129.537 237.757 129.537C237.93 131.581 238.01 133.798 238.01 136.072C238.01 140.529 237.711 145.261 237.331 149.43C236.848 154.748 236.18 159.273 235.892 161.547V161.834C236.318 176.915 232.014 178.913 229.999 175.617C227.985 172.321 229.999 162.604 229.999 162.604C230.006 162.516 230.006 162.428 229.999 162.34C229.152 157.827 228.587 153.266 228.307 148.683C227.617 137.588 228.802 129.996 228.664 128.618C226.258 104.498 229.619 91.1981 229.619 91.1981C230.144 89.2655 231.092 87.4729 232.393 85.9492C234.845 83.3076 237.792 83.9737 239.645 87.2012C239.84 87.5321 240.016 87.8734 240.174 88.2234C240.929 90.0771 241.358 92.0472 241.44 94.0465C241.624 99.0428 240.922 106.75 240.059 113.71Z" fill="#F5A784"/>
<path d="M251.949 148.098C251.681 152.776 251.12 157.433 250.268 162.041L250.165 162.604C250.165 162.604 252.179 172.355 250.165 175.617C248.15 178.879 243.892 176.972 244.272 162.041C244.272 161.972 244.272 161.903 244.272 161.846C243.949 159.686 243.305 155.012 242.798 149.476C242.407 145.272 242.108 140.563 242.108 136.107C242.108 133.809 242.2 131.604 242.372 129.548C242.372 129.548 241.095 122.186 240.07 113.733C239.207 106.761 238.494 99.0542 238.793 94.104C238.879 92.1039 239.311 90.1338 240.07 88.2808C240.221 87.92 240.398 87.5707 240.6 87.2356C242.729 83.5487 246.274 83.2271 248.887 87.3849C249.636 88.5901 250.224 89.8874 250.637 91.2441C250.637 91.2441 253.998 104.51 251.592 128.664C251.419 130.019 252.559 137.347 251.949 148.098Z" fill="#F5A784"/>
<path d="M203.63 101.616C203.859 101.881 204.144 102.092 204.464 102.235C204.784 102.378 205.132 102.449 205.483 102.443C205.644 102.405 205.795 102.336 205.928 102.239C206.061 102.141 206.173 102.018 206.257 101.876C206.341 101.735 206.395 101.577 206.416 101.414C206.438 101.251 206.425 101.085 206.381 100.927C206.247 100.577 206.03 100.266 205.748 100.019C204.01 98.2965 202.226 96.5737 200.419 94.9772C200.117 94.6375 199.713 94.4039 199.268 94.311C198.853 94.3108 198.452 94.4573 198.136 94.7245C197.82 94.9916 197.609 95.362 197.541 95.7697C197.541 96.5048 198.174 96.7804 198.692 97.1939C200.326 98.6411 201.961 100.157 203.63 101.616Z" fill="#3B2645"/>
<path d="M203.376 99.583C203.448 99.5092 203.506 99.4238 203.549 99.3303C203.578 99.2116 203.58 99.0879 203.554 98.9685C203.528 98.8491 203.475 98.7371 203.399 98.6412C202.973 97.9405 202.099 96.815 201.235 96.7116C200.95 96.6971 200.667 96.7573 200.412 96.8863C200.158 97.0153 199.942 97.2085 199.785 97.4467C199.527 97.8175 199.363 98.2453 199.307 98.6934C199.25 99.1415 199.304 99.5966 199.463 100.019C199.716 100.78 200.235 101.424 200.925 101.834C201.269 101.98 201.657 101.987 202.006 101.854C202.356 101.722 202.641 101.459 202.801 101.122C202.974 100.697 202.916 100.18 203.192 99.8242C203.245 99.7373 203.306 99.6564 203.376 99.583Z" fill="#FFEDE5"/>
<path d="M247.426 58.8895C244.767 60.7387 244.525 64.3337 245.826 67.2051C246.689 69.1231 248.312 70.4669 249.279 72.2817C250.282 74.0366 251.438 75.7007 252.732 77.2549C255.586 80.8729 258.314 84.1462 259.35 85.3867C262.964 89.7052 270.538 95.3561 273.266 97.3316L274.267 98.0438C274.267 98.0438 276.868 96.677 276.178 94.1502C276.178 94.1502 265.819 83.17 264.288 80.9303C262.591 78.0217 261.055 75.0234 259.684 71.9486C257.911 68.5029 256.081 65.1836 254.159 61.8643C253.284 60.3367 252.179 58.4186 250.246 58.074C249.47 57.9879 248.687 58.153 248.013 58.5449C247.809 58.6452 247.612 58.7604 247.426 58.8895Z" fill="#FFEDE5"/>
<path d="M276.166 94.1617C275.879 94.1401 275.59 94.1401 275.303 94.1617C275.303 94.1617 272.817 95.5399 273.243 97.3317C273.243 97.3317 273.519 97.5729 273.922 97.9404C274.325 98.308 274.797 98.7444 275.326 99.2957C275.855 99.847 277.11 101.593 277.628 101.444C277.75 101.395 277.857 101.316 277.939 101.214L278.998 100.065C279.608 99.3991 280.598 98.2735 279.849 97.3891C280.39 97.7222 281.68 98.5377 282.324 98.1472L282.543 97.7222C282.543 97.7222 280.644 96.3095 279.849 95.6089C278.814 94.7366 277.52 94.2281 276.166 94.1617Z" fill="#FFEDE5"/>
<path d="M276.431 101.616C276.202 101.881 275.917 102.092 275.597 102.235C275.277 102.378 274.929 102.449 274.578 102.443C274.415 102.408 274.261 102.341 274.126 102.244C273.99 102.148 273.876 102.025 273.789 101.883C273.703 101.741 273.647 101.583 273.624 101.419C273.601 101.254 273.613 101.087 273.657 100.927C273.801 100.593 274.022 100.297 274.302 100.065C276.044 98.3424 277.824 96.6617 279.642 95.0231C279.943 94.6815 280.347 94.4475 280.793 94.3569C281.206 94.3572 281.606 94.5041 281.92 94.7713C282.234 95.0386 282.443 95.4088 282.508 95.8156C282.508 96.5507 281.887 96.8263 281.357 97.2398C279.735 98.641 278.1 100.157 276.431 101.616Z" fill="#3B2645"/>
<path d="M276.696 99.583C276.617 99.5126 276.554 99.4265 276.511 99.3303C276.487 99.2106 276.489 99.0871 276.517 98.9682C276.544 98.8493 276.598 98.7377 276.673 98.6412C277.087 97.9405 277.962 96.815 278.825 96.7116C279.11 96.6971 279.394 96.7573 279.648 96.8863C279.903 97.0153 280.119 97.2085 280.275 97.4467C280.531 97.8192 280.69 98.2486 280.741 98.6972C280.791 99.1458 280.73 99.5998 280.563 100.019C280.318 100.784 279.797 101.431 279.101 101.834C278.757 101.98 278.369 101.987 278.02 101.854C277.67 101.722 277.385 101.459 277.225 101.122C277.064 100.697 277.121 100.18 276.834 99.8242L276.696 99.583Z" fill="#FFEDE5"/>
<path d="M252.122 140.736V141.884C252.122 142.654 252.122 143.446 252.122 144.262V145.192C252.122 146.134 252.052 147.11 252.006 148.11C249.026 148.93 245.958 149.389 242.867 149.476C242.741 148.19 242.488 144.767 242.476 144.388C242.476 143.607 242.303 141.402 242.292 141.103C242.223 139.426 242.177 137.75 242.177 136.107C242.177 133.971 242.257 131.88 242.419 129.939C242.419 129.802 242.419 129.675 242.419 129.549C242.419 129.423 241.141 122.198 240.117 113.733C240.001 114.629 239.886 115.525 239.771 116.386C238.804 123.668 237.78 129.549 237.78 129.549C237.953 131.593 238.033 133.81 238.033 136.084C238.033 137.818 238.033 139.53 237.907 141.345C237.907 141.643 237.676 145.479 237.642 145.847C237.561 147.076 237.458 148.282 237.354 149.442C235.743 149.373 234.154 149.27 232.577 149.132C231.334 149.028 229.769 148.959 228.25 148.741C228.181 147.708 228.135 146.72 228.1 145.755C228.1 145.514 228.1 145.273 228.1 145.031C228.1 143.975 228.1 142.975 228.1 142.011V141.253C228.1 134.292 228.779 129.71 228.676 128.619C226.27 104.499 229.631 91.1986 229.631 91.1986C230.156 89.266 231.103 87.4734 232.405 85.9497C233.391 86.1022 234.36 86.3562 235.294 86.7078C236.717 87.0788 238.186 87.2451 239.656 87.2016H240.715C241.993 87.2016 243.27 87.0523 244.536 87.0179H245.388C246.602 86.9998 247.814 87.1154 249.002 87.3624C249.713 88.5807 250.262 89.8856 250.637 91.2445C251.567 95.5797 252.113 99.9879 252.271 104.418C252.661 112.506 252.434 120.611 251.592 128.664C251.454 129.687 252.064 134.063 252.122 140.736Z" fill="#3B2645"/>
<path d="M205.99 57.5229C205.99 57.454 205.851 57.454 205.84 57.5229C205.264 61.4394 205.598 65.5628 205.598 69.5712C205.598 73.8094 205.46 78.082 205.713 82.3087C205.724 82.3538 205.75 82.394 205.787 82.4227C205.823 82.4514 205.868 82.467 205.915 82.467C205.961 82.467 206.006 82.4514 206.043 82.4227C206.079 82.394 206.105 82.3538 206.116 82.3087C206.358 78.082 206.22 73.8094 206.22 69.5712C206.22 65.6546 206.554 61.4739 205.99 57.5229Z" fill="#F7F8F8"/>
<path d="M211.019 58.8549C211.007 58.7985 210.976 58.748 210.931 58.7117C210.886 58.6755 210.829 58.6558 210.772 58.6558C210.714 58.6558 210.658 58.6755 210.613 58.7117C210.568 58.748 210.536 58.7985 210.524 58.8549C210.524 62.6221 210.282 66.4583 210.524 70.2141C210.524 70.2781 210.55 70.3394 210.595 70.3846C210.64 70.4299 210.702 70.4553 210.766 70.4553C210.83 70.4553 210.891 70.4299 210.937 70.3846C210.982 70.3394 211.008 70.2781 211.008 70.2141C211.272 66.4583 211.042 62.6221 211.019 58.8549Z" fill="#F7F8F8"/>
<path d="M262.481 98.2964C262.472 98.2625 262.451 98.2325 262.423 98.2111C262.395 98.1898 262.361 98.1782 262.326 98.1782C262.29 98.1782 262.256 98.1898 262.228 98.2111C262.2 98.2325 262.18 98.2625 262.17 98.2964C261.846 103.228 261.781 108.174 261.975 113.113C261.975 118.052 261.975 122.979 262.159 127.918C262.168 127.954 262.19 127.987 262.22 128.01C262.25 128.033 262.287 128.046 262.326 128.046C262.364 128.046 262.401 128.033 262.431 128.01C262.461 127.987 262.483 127.954 262.492 127.918C262.654 122.979 262.654 118.052 262.677 113.113C262.865 108.174 262.799 103.229 262.481 98.2964Z" fill="#F7F8F8"/>
<path d="M271.355 69.4101C271.319 66.1236 271.104 62.8416 270.71 59.5785C270.71 59.3832 270.4 59.4406 270.388 59.5785C270.299 63.1075 270.403 66.6388 270.699 70.1566C270.849 73.43 270.814 76.7838 271.251 80.0227C271.251 80.3214 271.758 80.2295 271.769 79.9538C271.93 76.4507 271.562 72.8787 271.355 69.4101Z" fill="#F7F8F8"/>
<path d="M273.657 71.2366C273.649 71.2109 273.633 71.1885 273.611 71.1725C273.589 71.1566 273.563 71.1479 273.536 71.1479C273.509 71.1479 273.483 71.1566 273.461 71.1725C273.439 71.1885 273.423 71.2109 273.415 71.2366C273.11 75.9555 273.087 80.6882 273.346 85.4098C273.339 85.4386 273.338 85.4686 273.345 85.4976C273.351 85.5266 273.364 85.5538 273.382 85.5771C273.4 85.6005 273.424 85.6193 273.45 85.6323C273.477 85.6453 273.506 85.6521 273.536 85.6521C273.566 85.6521 273.595 85.6453 273.622 85.6323C273.648 85.6193 273.672 85.6005 273.69 85.5771C273.708 85.5538 273.721 85.5266 273.727 85.4976C273.734 85.4686 273.733 85.4386 273.726 85.4098C273.985 80.6882 273.962 75.9555 273.657 71.2366Z" fill="#F7F8F8"/>
<path d="M239.714 116.374C239.731 115.48 239.847 114.59 240.059 113.721C239.944 114.617 239.829 115.513 239.714 116.374Z" fill="#291B30"/>
<path d="M252.237 104.418C250.683 95.1035 237.849 94.667 237.849 94.667C237.055 90.8308 242.234 89.6823 242.234 89.6823L245.262 87.0751C246.475 87.057 247.687 87.1726 248.876 87.4196C249.626 88.6135 250.217 89.899 250.637 91.2443C251.548 95.5817 252.083 99.9893 252.237 104.418Z" fill="#291B30"/>
<path d="M250.821 92.2436C240.462 97.102 229.205 92.6456 229.205 92.6456C230.023 90.3485 229.412 78.6332 229.355 76.405C229.355 76.405 229.355 76.3246 229.355 76.2902C229.36 76.206 229.36 76.1216 229.355 76.0375C231.53 71.0068 231.772 61.313 231.784 57.9822C232.762 57.8329 233.786 57.7525 234.673 57.7065C235.018 61.4279 236.249 70.9724 239.679 70.5589C243.109 70.1454 244.744 61.6461 245.342 57.9248C245.973 58.0304 246.614 58.0727 247.253 58.0511C247.449 58.0511 247.644 58.0511 247.84 58.0511C247.541 63.1392 250.372 73.8323 250.453 74.1309C250.453 74.2113 250.453 74.3032 250.453 74.3836C250.453 74.6592 250.372 74.9464 250.338 75.2565C250.338 75.2565 250.338 75.3828 250.338 75.4517C249.613 81.9296 250.821 92.2436 250.821 92.2436Z" fill="#AB8DA8"/>
</g>
<rect opacity="0.3" width="315" height="150" rx="22" fill="black"/>
<path fill-rule="evenodd" clip-rule="evenodd" d="M146.333 75.0069C146.333 68.5675 151.57 63.3335 158 63.3335C164.43 63.3335 169.667 68.5675 169.667 75.0069C169.667 81.4329 164.43 86.6668 158 86.6668C151.57 86.6668 146.333 81.4329 146.333 75.0069ZM162.279 76.1877C162.403 76.0638 162.561 75.8725 162.595 75.8275C162.775 75.5911 162.865 75.2984 162.865 75.0069C162.865 74.6794 162.763 74.3755 162.572 74.1278C162.556 74.1122 162.526 74.0787 162.486 74.0351C162.411 73.9536 162.303 73.8366 162.2 73.7339C161.277 72.7434 158.867 71.1225 157.606 70.6273C157.414 70.5496 156.93 70.3796 156.671 70.3684C156.423 70.3684 156.187 70.4247 155.962 70.5372C155.68 70.6948 155.455 70.9424 155.331 71.2351C155.252 71.4377 155.128 72.0455 155.128 72.0568C155.004 72.7209 154.937 73.8014 154.937 74.9945C154.937 76.1325 155.004 77.1669 155.106 77.8423C155.109 77.845 155.118 77.8933 155.133 77.9684C155.179 78.1965 155.274 78.6717 155.376 78.8665C155.624 79.3393 156.108 79.6319 156.626 79.6319H156.671C157.009 79.6207 157.718 79.328 157.718 79.3168C158.912 78.8215 161.266 77.2795 162.212 76.2552L162.279 76.1877Z" fill="#F7F8F8"/>
<defs>
<linearGradient id="paint0_linear_326_6332" x1="315" y1="150" x2="-96.4781" y2="83.1348" gradientUnits="userSpaceOnUse">
<stop stop-color="#92A3FD"/>
<stop offset="1" stop-color="#9DCEFF"/>
</linearGradient>
</defs>
</svg>
