<svg width="271" height="304" viewBox="0 0 271 304" fill="none" xmlns="http://www.w3.org/2000/svg">
<path d="M125.121 292.774C198.116 292.774 257.576 266.251 269.308 192.259C281.039 118.267 179.59 152.724 181.476 85.6404C183.362 18.5841 161.009 -20.3956 99.8008 11.0656C38.593 42.5268 47.856 108.779 38.8149 139.518C21.2319 199.167 -75.6966 292.774 125.121 292.774Z" fill="#98BFFD"/>
<path d="M31.298 145.902C37.7191 128.07 36.885 111.438 29.4351 108.754C21.9851 106.069 10.7404 118.348 4.31929 136.18C-2.1018 154.011 -1.26772 170.643 6.18226 173.328C13.6322 176.012 24.8769 163.733 31.298 145.902Z" fill="#98BFFD"/>
<path d="M244.476 110.368C254.026 102.019 252.566 84.7191 241.216 71.7276C229.866 58.7361 212.924 54.9728 203.374 63.3221C193.824 71.6713 195.284 88.9714 206.634 101.963C217.984 114.954 234.926 118.718 244.476 110.368Z" fill="#98BFFD"/>
<path d="M170.022 44.2191C170.022 44.2191 160.787 44.1637 159.04 57.1199C157.292 70.0762 159.788 75.8191 153.493 81.673C147.197 87.5269 157.514 90.8006 165.973 85.2519C174.459 79.7032 170.022 44.2191 170.022 44.2191Z" fill="#3B2645"/>
<path d="M170.022 44.2191C170.022 44.2191 161.535 48.8246 161.369 61.7808C161.23 73.2389 164.17 82.1169 159.677 87.8321C161.702 87.4436 163.893 86.6113 165.973 85.2519C174.459 79.7032 170.022 44.2191 170.022 44.2191Z" fill="#3B2645"/>
<path d="M181.004 73.877L178.037 86.1675L159.039 84.697C159.039 84.697 163.865 77.1508 166.417 64.0836L181.004 73.877Z" fill="#FFEDE5"/>
<path d="M169.745 69.6599L179.285 81.0625L181.004 73.877L169.745 69.6599Z" fill="#DF845C"/>
<path d="M191.127 47.9646C191.127 47.9646 194.788 53.0972 193.179 58.3962C191.571 63.6952 191.654 64.6108 191.377 66.5806C191.099 68.5226 186.385 77.4283 184.138 77.7612C181.892 78.0941 168.247 72.7396 165.557 65.1934C162.867 57.6471 180.616 36.673 191.127 47.9646Z" fill="#FFEDE5"/>
<path d="M165.64 67.6903L169.356 61.7809L171.048 62.4467C171.048 62.4467 172.462 62.0583 173.045 56.7038C173.045 56.7038 177.288 54.9005 178.092 50.7944C178.092 50.7944 192.292 41.3616 193.595 55.8992C193.595 55.8992 195.731 49.2408 189.324 44.7186C182.918 40.1964 174.847 38.8924 169.745 42.6933C164.642 46.4942 156.516 59.7001 165.64 67.6903Z" fill="#3B2645"/>
<path d="M169.628 65.592C171.203 64.8381 171.516 62.21 170.326 59.722C169.136 57.234 166.894 55.8282 165.319 56.5821C163.744 57.336 163.432 59.9641 164.622 62.4521C165.812 64.9401 168.053 66.3459 169.628 65.592Z" fill="#FFEDE5"/>
<path d="M169.051 63.2791C168.968 63.2791 168.885 63.2514 168.829 63.1682L167.054 60.7267C166.971 60.6158 166.999 60.4216 167.11 60.3383C167.221 60.2551 167.415 60.2828 167.498 60.3938L169.273 62.8352C169.356 62.9462 169.329 63.1404 169.218 63.2237C169.162 63.2514 169.107 63.2791 169.051 63.2791Z" fill="#472938"/>
<path d="M180.893 68.8555C180.893 68.8555 183.14 70.4091 186.717 70.5479C186.717 70.5479 182.835 71.3524 180.893 68.8555Z" fill="#472938"/>
<path d="M186.745 67.5793C186.135 67.5793 185.553 67.4961 185.081 67.2464C184.943 67.1632 184.887 66.9967 184.97 66.8857C185.054 66.747 185.22 66.6915 185.331 66.7748C186.496 67.3574 188.742 66.858 189.019 66.5251C189.047 66.2476 188.631 64.9992 188.354 64.1946C188.104 63.4733 187.882 62.8074 187.799 62.3358C187.494 61.0318 188.825 59.4227 188.881 59.3395C188.992 59.2285 189.158 59.2008 189.269 59.3117C189.38 59.4227 189.408 59.5892 189.297 59.7001C188.964 60.1163 188.132 61.3648 188.326 62.2248C188.437 62.6687 188.659 63.3623 188.881 64.0281C189.435 65.665 189.657 66.4141 189.519 66.747C189.435 66.9412 189.241 67.0799 188.853 67.2464C188.409 67.4129 187.577 67.5793 186.745 67.5793Z" fill="#472938"/>
<path d="M192.847 59.6169C192.847 59.6169 193.651 58.9233 192.902 58.4794C192.153 58.0355 190.85 58.1465 190.683 58.5626C190.517 58.9788 190.462 59.2285 191.016 59.2562C191.599 59.284 192.763 58.9788 192.847 59.6169Z" fill="#472938"/>
<path d="M178.092 57.3143C178.092 57.3143 180.283 56.1768 181.864 56.6484C183.445 57.1201 183.805 57.7859 184.582 57.5917C185.358 57.3697 184.665 56.1213 182.946 55.6497C181.226 55.178 178.841 55.8993 178.092 57.3143Z" fill="#472938"/>
<path d="M181.032 61.2261C180.699 61.1706 180.477 60.8654 180.505 60.5325L180.588 60.0608C180.644 59.7279 180.949 59.506 181.282 59.5337C181.615 59.5892 181.836 59.8944 181.809 60.2273L181.725 60.6989C181.67 61.0319 181.365 61.2816 181.032 61.2261Z" fill="#472938"/>
<path d="M190.101 62.3357C189.824 62.308 189.657 62.0583 189.685 61.7809L189.74 61.3925C189.768 61.115 190.018 60.9486 190.295 60.9763C190.572 61.004 190.739 61.2537 190.711 61.5312L190.656 61.9196C190.628 62.197 190.378 62.3635 190.101 62.3357Z" fill="#472938"/>
<path d="M204.633 288.335C205.826 289.334 207.351 290.638 208.572 288.557C208.433 287.225 208.599 283.064 208.599 283.064L198.116 283.646L198.698 288.002C198.698 287.974 203.441 287.336 204.633 288.335Z" fill="#FFEDE5"/>
<path d="M207.767 300.015C209.459 299.405 213.12 295.715 213.869 294.938C213.619 293.717 213.037 292.496 212.26 292.358C211.123 292.191 208.71 289.861 208.572 288.529C207.324 290.638 205.826 289.334 204.633 288.307C203.441 287.308 198.698 287.946 198.698 287.946C198.698 287.946 197.145 295.909 196.979 300.043C199.336 300.209 206.214 300.597 207.767 300.015Z" fill="#3B2645"/>
<path d="M197.284 302.429C198.477 303.455 207.018 303.15 207.906 302.9C208.793 302.651 213.12 298.378 213.758 297.352C214.035 296.908 214.063 295.909 213.841 294.938C213.092 295.715 209.431 299.405 207.74 300.015C206.186 300.57 199.281 300.209 196.951 300.07C196.951 301.319 197.007 302.207 197.284 302.429Z" fill="#E5E5E5"/>
<path d="M138.794 288.224C141.484 288.585 142.15 290.166 142.982 290.083C143.814 290 145.727 288.335 145.727 288.335C145.727 287.114 146.948 283.064 146.948 283.064L135.882 283.424L134.69 288.918C134.717 288.918 136.132 287.863 138.794 288.224Z" fill="#FFEDE5"/>
<path d="M146.338 296.547C147.419 296.131 148.39 295.215 149 294.605C148.972 293.606 148.695 292.469 147.918 292.025C146.587 291.276 145.755 288.335 145.755 288.335C145.755 288.335 143.841 289.972 143.009 290.083C142.177 290.194 141.484 288.612 138.822 288.224C136.132 287.863 134.745 288.917 134.745 288.917C133.747 291.803 133.331 296.269 133.22 298.85C134.579 299.127 136.797 299.46 139.876 299.46C145.45 299.432 144.618 297.185 146.338 296.547Z" fill="#3B2645"/>
<path d="M133.192 300.764C133.331 301.208 133.747 302.429 139.959 302.429C146.171 302.429 145.977 299.349 146.393 298.35C146.837 297.324 148.501 296.686 148.778 296.186C148.889 295.964 149 295.326 148.972 294.605C148.39 295.215 147.391 296.131 146.31 296.547C144.59 297.185 145.45 299.46 139.82 299.46C136.742 299.46 134.523 299.127 133.164 298.85C133.136 299.904 133.136 300.653 133.192 300.764Z" fill="#E5E5E5"/>
<path d="M197.478 139.296C197.478 139.296 205.049 156.608 207.074 170.286C209.098 183.964 204.772 221.029 205.41 224.192C206.048 227.354 209.597 237.065 210.124 250.104C210.624 263.144 208.599 283.036 208.599 283.036C208.599 283.036 202.442 285.782 198.116 283.618C198.116 283.618 194.76 262.422 192.902 253.517C191.044 244.611 191.044 234.179 188.992 229.297C186.939 224.414 181.614 190.095 180.089 184.574C180.089 184.574 174.459 212.151 169.245 224.525C164.031 236.898 162.589 238.202 161.008 245.332C159.428 252.462 148.279 278.264 146.975 283.064C146.975 283.064 140.957 286.115 135.91 283.424C135.91 283.424 138.877 251.908 144.202 239.423C149.527 226.938 150.165 226.605 151.357 217.506C152.55 208.406 147.641 168.649 160.953 143.236C160.925 143.208 179.59 139.158 197.478 139.296Z" fill="#AB8DA8"/>
<path d="M180.089 140.24C181.309 145.566 197.422 169.814 197.422 169.814L188.021 139.518L180.089 140.24Z" fill="#543753"/>
<path d="M173.045 177.666C173.045 177.666 175.485 183.436 187.633 182.632C187.633 182.632 180.977 184.102 181.587 191.954L180.089 184.602L178.397 192.37C178.397 192.37 178.841 184.657 170.161 181.994L175.846 182.16C175.874 182.132 173.073 180.135 173.045 177.666Z" fill="#543753"/>
<path d="M155.074 85.557C155.074 85.557 150.969 88.9695 138.905 107.502C126.841 126.035 129.947 127.034 131.916 129.753C133.858 132.471 148.473 147.786 149.555 149.173C150.636 150.588 154.63 154.805 156.765 153.113C158.901 151.42 158.208 146.565 160.593 144.734C162.978 142.875 164.974 141.016 165.169 140.018C165.363 139.019 164.864 138.187 164.642 138.187C164.42 138.187 162.007 140.267 160.537 140.989C159.067 141.71 155.628 144.207 155.573 144.207C155.517 144.207 142.455 124.509 142.455 124.509L156.987 107.169L155.074 85.557Z" fill="#FFEDE5"/>
<path d="M155.351 91.8271C155.351 91.8271 149.971 98.4024 151.413 114.05L157.043 107.364L155.351 91.8271Z" fill="#DF845C"/>
<path d="M140.541 139.38L146.005 129.808L142.649 124.703L139.737 138.52L140.541 139.38Z" fill="#DF845C"/>
<path d="M174.82 82.2833C178.37 83.1433 187.716 88.3591 193.595 99.2901C199.475 110.221 197.395 112.163 195.148 115.298L194.289 129.336L198.06 141.072L160.953 143.236C160.953 143.236 163.837 131.14 162.34 127.311C160.842 123.483 144.59 101.843 153.604 87.4991C158.18 80.147 174.82 82.2833 174.82 82.2833Z" fill="#FFEDE5"/>
<path d="M194.289 129.309L195.148 115.27C197.395 112.163 199.503 110.193 193.595 99.2624C192.153 96.599 190.517 94.2686 188.797 92.2433C188.492 96.5158 187.605 101.621 185.525 106.92C180.838 118.933 162.035 118.211 157.015 117.795C159.428 122.401 161.757 125.924 162.284 127.256C162.562 127.949 162.7 128.92 162.728 130.03C176.955 131.389 194.289 129.309 194.289 129.309Z" fill="#AB8DA8"/>
<path d="M175.125 82.3667C175.014 82.339 174.903 82.3113 174.82 82.2835C174.82 82.2835 174.57 82.2558 174.154 82.2003C168.081 83.8649 163.338 87.638 160.177 93.3532C159.123 89.6356 158.54 86.1676 158.901 83.532C158.845 83.5597 158.79 83.5875 158.734 83.5875C158.596 83.643 158.457 83.6984 158.318 83.7539C157.819 83.9481 157.348 84.1701 156.904 84.4198C153.798 87.7767 152.716 94.0468 153.687 103.147C154.131 107.225 154.907 111.137 155.6 114.133C155.6 114.411 155.6 114.688 155.6 114.965C155.739 115.243 155.85 115.493 155.989 115.77C156.044 115.909 156.127 116.047 156.183 116.186C156.516 116.852 156.849 117.49 157.181 118.128C156.932 117.213 156.543 115.798 156.155 114.078C156.155 110.832 156.433 106.198 157.653 101.454C158.263 99.0129 159.067 96.8211 160.038 94.8236C163.31 105.449 170.022 117.379 170.438 118.1L171.242 119.515L170.965 117.906C170.937 117.74 168.025 101.343 170.05 91.6886C171.325 85.6127 173.267 83.4487 174.487 82.6719C174.82 82.5887 175.125 82.5055 175.458 82.45C175.347 82.4222 175.236 82.3945 175.125 82.3667ZM157.098 101.343C156.127 105.089 155.767 108.779 155.656 111.775C153.798 102.925 152.078 88.831 158.318 83.9204C158.041 86.7225 158.707 90.3014 159.816 94.1023C158.679 96.2663 157.791 98.68 157.098 101.343ZM169.467 91.6054C167.803 99.5678 169.439 112.025 170.133 116.436C168.191 112.801 163.033 102.869 160.398 94.1023C163.283 88.5813 167.526 84.9192 173.1 83.0881C171.88 84.3643 170.466 86.8335 169.467 91.6054Z" fill="#AB8DA8"/>
<path d="M176.345 128.449H162.562C162.395 128.449 162.284 128.338 162.284 128.171C162.284 128.005 162.395 127.894 162.562 127.894H176.345C176.511 127.894 176.622 128.005 176.622 128.171C176.622 128.338 176.484 128.449 176.345 128.449Z" fill="#472938"/>
<path d="M180.588 142.071L188.52 141.599L184.443 130.141C182.502 130.252 180.394 130.363 178.148 130.418C178.897 134.885 179.701 139.019 180.588 142.071Z" fill="#DF845C"/>
<path d="M174.903 103.285C174.903 103.285 175.374 108.667 176.151 115.631C177.066 115.27 177.981 114.854 178.841 114.355L174.903 103.285Z" fill="#DF845C"/>
<path d="M176.179 115.631C176.706 120.237 177.371 125.508 178.176 130.446C180.394 130.391 182.53 130.28 184.471 130.169L178.869 114.383C177.981 114.854 177.094 115.271 176.179 115.631Z" fill="#543753"/>
<path d="M162.783 143.097L163.56 143.042C163.56 143.042 164.808 141.96 165.058 140.545C164.725 141.211 163.865 142.126 162.783 143.097Z" fill="#DF845C"/>
<path d="M175.43 82.4499C175.43 82.4499 187.106 84.8081 188.77 90.4401C190.462 96.072 191.71 129.309 191.71 129.309C191.71 129.309 203.385 162.462 204.633 167.512C205.881 172.561 208.488 180.69 208.655 182.327C208.821 183.964 207.213 187.737 206.658 188.347C206.103 188.958 202.775 190.206 202.026 190.372C201.278 190.539 196.757 187.57 196.979 186.96C197.201 186.35 199.003 185.268 199.003 185.268L199.336 183.02C199.336 183.02 196.091 176.695 196.313 173.477C196.535 170.286 196.036 168.205 194.954 166.263C193.873 164.321 180.866 135.246 179.535 130.169C178.203 125.092 174.348 102.425 174.432 98.1528C174.515 93.8803 175.43 82.4499 175.43 82.4499Z" fill="#FFEDE5"/>
<path d="M102.546 42.6101L104.876 55.4831C105.181 57.1755 106.346 58.5904 107.954 59.2285L113.113 61.2538C113.113 61.2538 107.677 69.3827 96.7779 71.6854C85.8786 73.9604 79.916 64.0836 79.916 64.0836L84.5197 60.6434C85.5458 59.8666 86.1005 58.6459 86.0173 57.3697L85.1853 45.4122L102.546 42.6101Z" fill="#FFEDE5"/>
<path d="M85.823 54.3734C85.823 54.3734 98.8855 62.0861 102.546 42.6101L85.2129 45.3845L85.823 54.3734Z" fill="#DF845C"/>
<path d="M106.3 38.5226C106.793 36.4347 106.225 34.514 105.032 34.2326C103.84 33.9512 102.474 35.4156 101.981 37.5034C101.489 39.5913 102.057 41.512 103.249 41.7934C104.442 42.0748 105.808 40.6104 106.3 38.5226Z" fill="#FFEDE5"/>
<path d="M83.4131 44.1934C84.4742 43.5805 84.4653 41.5777 83.3931 39.72C82.321 37.8623 80.5916 36.8532 79.5304 37.4661C78.4693 38.079 78.4782 40.0818 79.5504 41.9395C80.6226 43.7972 82.352 44.8063 83.4131 44.1934Z" fill="#DF845C"/>
<path d="M103.434 39.17C103.378 39.17 103.351 39.17 103.295 39.1422C103.157 39.059 103.101 38.8925 103.184 38.7816L104.155 36.895C104.238 36.7563 104.405 36.7008 104.515 36.784C104.654 36.8673 104.71 37.0337 104.626 37.1447L103.656 39.0313C103.628 39.1145 103.545 39.17 103.434 39.17Z" fill="#472938"/>
<path d="M82.5507 41.7778C82.4952 41.7778 82.412 41.7501 82.3565 41.6946L80.4706 39.9468C80.3597 39.8358 80.3597 39.6693 80.4429 39.5583C80.5538 39.4474 80.7202 39.4474 80.8312 39.5306L82.7171 41.2785C82.828 41.3894 82.828 41.5559 82.7448 41.6669C82.6893 41.7501 82.6061 41.7778 82.5507 41.7778Z" fill="#472938"/>
<path d="M78.4461 29.737C78.4461 29.737 82.9943 46.6606 84.7138 49.102C86.4056 51.5157 91.6472 53.763 92.5347 53.9017C93.4221 54.0404 96.9443 53.6797 97.7486 52.9861C98.5528 52.2925 102.879 47.7149 103.545 44.7463C104.183 41.7777 104.349 26.1026 101.603 23.245C98.8302 20.3874 77.0594 22.7179 78.4461 29.737Z" fill="#FFEDE5"/>
<path d="M92.701 41.7778C92.0076 41.7778 90.7874 41.4171 90.621 41.3339C90.3991 41.2229 90.3714 41.2229 90.4546 36.3401C90.4546 36.0071 90.4546 35.7574 90.4546 35.6742C90.4268 35.4523 89.7612 34.3148 89.1788 33.3715C89.0956 33.2328 89.1234 33.0663 89.262 32.9831C89.4007 32.8999 89.5671 32.9276 89.6503 33.0663C90.1495 33.8709 91.037 35.2581 91.037 35.6465C91.037 35.7297 91.037 35.9794 91.037 36.3123C91.0092 37.3111 90.9815 40.1687 91.0092 40.8345C91.342 40.9455 92.285 41.1952 92.7564 41.1674C93.1447 41.1397 93.7548 40.6681 94.0322 40.3906C94.1431 40.2796 94.3095 40.2796 94.4204 40.3906C94.5314 40.5016 94.5314 40.6681 94.4204 40.779C94.3372 40.8623 93.4775 41.6946 92.7842 41.7223C92.7564 41.7778 92.7287 41.7778 92.701 41.7778Z" fill="#472938"/>
<path d="M89.262 44.7185L96.9719 43.6642C96.9719 43.6642 96.3895 47.2154 93.6439 47.8257C90.8983 48.4361 89.262 44.7185 89.262 44.7185Z" fill="white"/>
<path d="M96.9165 34.842C96.445 34.8975 96.029 34.5645 95.9735 34.0929L95.9181 33.4548C95.8626 32.9832 96.1954 32.567 96.6669 32.5115C97.1383 32.456 97.5543 32.789 97.6098 33.2606L97.6653 33.8987C97.7485 34.3703 97.3879 34.7865 96.9165 34.842Z" fill="#472938"/>
<path d="M86.1281 36.7838C85.6567 36.8671 85.2129 36.5619 85.1297 36.0902L85.0188 35.4521C84.9356 34.9805 85.2407 34.5366 85.7121 34.4534C86.1836 34.3701 86.6273 34.6753 86.7105 35.147L86.8215 35.7851C86.9047 36.2567 86.5996 36.7006 86.1281 36.7838Z" fill="#472938"/>
<path d="M94.0322 30.9301C94.0322 30.9301 98.0259 29.5152 100.161 30.7636C100.161 30.7636 99.8008 29.0158 97.6098 29.099C95.4189 29.1822 94.0045 29.4874 93.7826 30.0145C93.5608 30.5417 94.0322 30.9301 94.0322 30.9301Z" fill="#472938"/>
<path d="M88.0972 32.0122C88.0972 32.0122 83.8818 31.6238 82.1346 33.3716C82.1346 33.3716 82.0514 31.5683 84.1868 31.1244C86.3223 30.6805 87.7644 30.625 88.0972 31.0689C88.4578 31.5405 88.0972 32.0122 88.0972 32.0122Z" fill="#472938"/>
<path d="M81.1362 39.142L80.3319 32.1506C80.3319 32.1506 86.9602 32.8442 91.9522 27.7949C96.9442 22.7456 100.411 25.5754 100.411 25.5754L103.878 35.036L104.71 34.1759C104.71 34.1759 104.904 25.3535 104.71 25.0483C104.515 24.7431 103.046 23.8276 103.046 23.8276C103.046 23.8276 102.574 15.227 91.8967 13.5347C81.2194 11.8423 78.3906 23.023 75.2844 23.4669L76.5324 25.0483C76.5324 25.0483 76.1164 26.3245 76.1442 27.9059C76.1719 29.4872 79.5554 37.4774 79.5554 37.4774L81.1362 39.142Z" fill="#3B2645"/>
<path d="M66.3265 68.6889C66.3265 68.6889 60.031 70.4922 60.3083 83.6149C60.3083 83.6149 54.0683 92.9923 53.3749 104.201C53.3749 104.201 38.1215 90.1902 37.5946 88.4701C37.0399 86.7222 37.345 80.5909 36.9844 79.0927C36.6239 77.5946 35.2927 76.0132 35.4591 73.9047C35.6255 71.7962 35.986 68.8276 35.7919 68.5224C35.5978 68.2172 32.6858 68.5502 32.1866 70.9639C31.6874 73.3776 31.5487 76.1242 31.5487 76.1242C31.5487 76.1242 26.8617 77.2894 26.2793 78.1494C25.6969 79.0095 26.0297 81.2845 26.0297 81.2845C26.0297 81.2845 26.1407 88.9417 26.9172 89.8017C27.6937 90.6618 31.41 92.5484 32.1866 93.0755C32.9631 93.6026 41.7269 113.772 45.5264 118.35C49.3258 122.928 52.848 124.204 56.1483 123.122C59.4486 122.04 68.5729 109.722 71.5126 104.006C74.4524 98.2913 73.3708 69.3547 66.3265 68.6889Z" fill="#FFEDE5"/>
<path d="M72.8992 87.7489C69.5434 86.9166 67.3525 87.416 67.3525 87.416C67.3525 87.416 71.8176 103.563 64.9119 114.05C67.6298 110.443 70.1813 106.559 71.4848 104.034C72.7328 101.565 73.2597 94.7403 72.8992 87.7489Z" fill="#DF845C"/>
<path d="M53.3471 104.201L55.954 106.115L53.458 103.008L53.3471 104.201Z" fill="#DF845C"/>
<path d="M28.2206 78.0108C28.2206 78.0108 32.963 78.3714 33.2126 78.6489C33.4622 78.9263 33.8505 88.7198 32.963 89.3856C32.0478 90.0792 27.4995 89.9682 27.4995 89.9682C27.4995 89.9682 32.9353 90.4676 33.5177 90.2179C34.1001 89.9682 35.154 86.528 35.3481 84.7525C35.5422 82.9769 34.4329 78.2882 34.0169 78.1772C33.6009 78.0663 28.2206 78.0108 28.2206 78.0108Z" fill="#DF845C"/>
<path d="M126.591 274.546C126.785 268.443 127.423 259.482 127.312 251.186C127.146 239.257 125.953 225.829 125.371 221.917C124.761 218.005 126.175 199.889 126.175 199.889L101.104 203.384C101.714 205.326 106.263 222.361 106.457 229.796C106.679 237.231 115.803 271.855 116.164 274.63C116.219 274.99 116.247 275.379 116.302 275.767C118.604 276.045 123.014 276.267 126.591 274.546Z" fill="#FFEDE5"/>
<path d="M118.826 283.397C118.826 283.397 118.549 280.428 121.877 279.707C125.205 278.985 126.73 280.65 126.73 280.65C126.536 279.346 126.536 277.21 126.619 274.546C123.041 276.267 118.632 276.045 116.358 275.767C116.58 277.931 116.635 280.511 116.413 282.62C116.774 283.563 118.826 283.397 118.826 283.397Z" fill="white"/>
<path d="M115.331 296.048C118.881 297.906 117.855 302.068 122.293 303.095C125.981 303.955 131.583 303.455 133.774 303.206C134.357 303.15 134.828 302.678 134.939 302.096C134.994 301.68 135.05 301.125 135.022 300.542C132.249 300.792 125.732 301.291 123.125 300.653C119.797 299.849 118.992 296.436 117.328 295.493C116.08 294.799 115.276 293.884 114.943 293.467C114.888 294.05 114.805 294.549 114.777 294.91C114.666 295.41 114.915 295.853 115.331 296.048Z" fill="#3B2645"/>
<path d="M133.774 296.825C133.109 295.881 132.138 293.856 131.14 291.553C130.557 293.634 123.901 292.663 123.041 292.441C122.182 292.219 118.854 283.397 118.854 283.397C118.854 283.397 116.801 283.535 116.413 282.592C116.358 283.064 116.302 283.535 116.219 283.952C115.886 285.727 115.276 290.582 114.943 293.468C115.276 293.884 116.08 294.772 117.328 295.493C119.02 296.436 119.797 299.849 123.125 300.653C125.732 301.291 132.249 300.792 135.022 300.542C134.939 299.432 134.662 298.101 133.774 296.825Z" fill="#AB8DA8"/>
<path d="M123.014 292.441C123.873 292.663 130.529 293.634 131.112 291.553C129.004 286.726 126.702 280.65 126.702 280.65C126.702 280.65 125.177 278.985 121.849 279.707C118.521 280.428 118.798 283.397 118.798 283.397C118.798 283.397 122.154 292.247 123.014 292.441Z" fill="#3B2645"/>
<path d="M117.532 222.787C120.166 222.378 122.219 221.518 122.117 220.867C122.016 220.216 119.799 220.02 117.166 220.43C114.533 220.839 112.48 221.699 112.581 222.35C112.682 223.001 114.899 223.197 117.532 222.787Z" fill="#E0855C"/>
<path d="M55.5382 275.018C55.5659 268.887 55.8987 259.981 56.287 251.686C56.9803 236.954 60.1974 223.998 60.1974 222.416C60.1974 216.146 60.9184 196.698 61.3067 197.169L84.5196 202.801C83.854 204.716 77.5031 220.807 77.0316 228.242C76.5601 235.678 66.4097 272.715 65.9382 275.462C65.8827 275.823 65.8273 276.183 65.7718 276.599C63.4699 276.766 59.0603 276.849 55.5382 275.018Z" fill="#FFEDE5"/>
<path d="M62.9985 284.118C62.9985 284.118 63.3868 281.149 60.0865 280.317C56.7862 279.485 55.2054 281.094 55.2054 281.094C55.455 279.79 55.5382 277.654 55.5382 274.99C59.0603 276.821 63.47 276.738 65.7718 276.544C65.4945 278.68 65.3281 281.26 65.4945 283.397C65.023 284.34 62.9985 284.118 62.9985 284.118Z" fill="white"/>
<path d="M66.0491 296.88C62.4161 298.628 63.3313 302.817 58.8662 303.677C55.1499 304.399 49.5755 303.733 47.3845 303.4C46.8021 303.317 46.3307 302.845 46.2752 302.235C46.2197 301.818 46.192 301.264 46.2475 300.681C49.0208 301.014 55.5104 301.735 58.1451 301.208C61.5009 300.514 62.4161 297.13 64.1078 296.242C65.3835 295.576 66.2155 294.716 66.5761 294.3C66.6315 294.883 66.6593 295.382 66.687 295.77C66.7425 296.242 66.4651 296.686 66.0491 296.88Z" fill="#3B2645"/>
<path d="M47.6063 297.046C48.2997 296.131 49.3535 294.133 50.4351 291.858C50.9621 293.967 57.6181 293.218 58.5056 293.024C59.393 292.829 62.9984 284.118 62.9984 284.118C62.9984 284.118 65.0229 284.34 65.4667 283.397C65.4944 283.868 65.5499 284.34 65.6053 284.756C65.8827 286.559 66.3264 291.414 66.576 294.3C66.2155 294.716 65.3835 295.576 64.1077 296.242C62.3882 297.13 61.5008 300.487 58.145 301.208C55.5381 301.763 49.0207 301.041 46.2474 300.681C46.3306 299.599 46.6911 298.267 47.6063 297.046Z" fill="#AB8DA8"/>
<path d="M58.4779 293.024C57.5904 293.218 50.9344 293.967 50.4075 291.858C52.6816 287.086 55.1776 281.094 55.1776 281.094C55.1776 281.094 56.7584 279.485 60.0587 280.317C63.359 281.149 62.9707 284.118 62.9707 284.118C62.9707 284.118 59.3654 292.829 58.4779 293.024Z" fill="#3B2645"/>
<path d="M71.2695 224.786C71.3925 224.138 69.3697 223.21 66.7515 222.712C64.1332 222.215 61.9111 222.336 61.7881 222.983C61.6651 223.63 63.688 224.559 66.3062 225.056C68.9244 225.554 71.1466 225.433 71.2695 224.786Z" fill="#E0855C"/>
<path d="M123.125 147.009C123.125 147.009 127.784 176.528 126.175 199.888C126.175 199.888 117.162 206.63 96.1121 202.607L92.8673 184.047L87.5425 202.718C87.5425 202.718 65.7163 204.022 59.8645 195.56C59.8645 195.56 62.9984 160.548 69.6267 146.399C76.255 132.25 120.961 135.412 123.125 147.009Z" fill="#3B2645"/>
<path d="M92.8673 184.047C92.8673 184.047 90.2604 181.744 89.983 181.522C89.7057 181.3 87.2929 171.756 87.2929 171.756L89.9553 194.256L92.8673 184.047Z" fill="#3B2645"/>
<path d="M104.793 200.388C100.106 200.388 96.7224 200.027 96.6392 200.027C96.556 200.027 96.5005 199.944 96.5283 199.861C96.5283 199.777 96.6115 199.722 96.6947 199.75C96.8888 199.777 115.498 201.747 126.342 196.282C126.397 196.254 126.48 196.282 126.536 196.337C126.564 196.393 126.536 196.476 126.48 196.531C120.129 199.722 111.227 200.388 104.793 200.388Z" fill="white"/>
<path d="M88.4024 199.833C88.3747 199.833 88.4024 199.833 88.4024 199.833C68.2124 198.14 60.1975 192.509 60.1143 192.453C60.0588 192.398 60.0311 192.314 60.0865 192.259C60.142 192.203 60.2252 192.176 60.2807 192.231C60.3639 192.287 68.3234 197.863 88.4301 199.555C88.5133 199.555 88.5688 199.639 88.5688 199.694C88.5133 199.777 88.4579 199.833 88.4024 199.833Z" fill="white"/>
<path d="M109.591 59.8665C109.591 59.8665 105.32 68.4392 95.5297 69.0773C85.7398 69.7154 81.9403 62.6131 81.9403 62.6131L66.3264 68.7167C66.3264 68.7167 69.1552 78.7598 67.3525 87.4436C67.3525 87.4436 71.4848 102.203 71.4848 104.062C71.4848 105.921 74.9515 113.8 75.1734 115.659C75.3952 117.518 69.6267 146.426 69.6267 146.426C69.6267 146.426 97.1937 154.528 103.6 154.25C110.007 153.973 123.125 147.009 123.125 147.009C123.125 147.009 121.821 122.789 123.125 116.824C124.428 110.859 129.309 94.9066 129.309 94.9066C129.309 94.9066 125.177 74.0157 126.342 65.6926L109.591 59.8665Z" fill="#AB8DA8"/>
<path d="M126.148 94.5737C126.009 94.5737 125.898 94.4905 125.87 94.3518C123.43 84.3641 122.958 64.8048 122.958 64.6106C122.958 64.4442 123.069 64.3332 123.236 64.3332C123.402 64.3332 123.513 64.4442 123.513 64.6106C123.513 64.8048 123.984 84.3086 126.425 94.2408C126.453 94.3795 126.369 94.546 126.231 94.5737C126.175 94.5737 126.148 94.5737 126.148 94.5737Z" fill="#472938"/>
<path d="M68.2677 90.9948C68.2122 90.9948 68.129 90.9671 68.0736 90.9393C67.9626 90.8284 67.9349 90.6619 68.0458 90.5509C72.9269 85.03 68.4341 68.0231 68.3786 67.8567C68.3509 67.718 68.4341 67.5515 68.5728 67.5237C68.7114 67.496 68.8778 67.5792 68.9056 67.718C69.0997 68.4393 73.5093 85.1687 68.4341 90.9116C68.4064 90.9671 68.3232 90.9948 68.2677 90.9948Z" fill="#472938"/>
<path d="M94.0321 72.1013C84.3254 72.1013 79.3057 63.7783 79.2502 63.6673C79.167 63.5286 79.2225 63.3621 79.3611 63.2789C79.4998 63.1957 79.6662 63.2511 79.7494 63.3899C79.8049 63.4731 85.0465 72.1846 95.1692 71.491C103.378 70.9361 107.816 65.6648 109.286 63.917C109.785 63.3066 109.923 63.1679 110.145 63.2234C110.256 63.2511 110.339 63.3344 110.367 63.4454C110.423 63.5841 110.339 63.7505 110.173 63.7783C110.145 63.7783 110.145 63.7783 110.118 63.7783C110.034 63.8615 109.868 64.0835 109.702 64.2777C108.204 66.0532 103.656 71.4632 95.1969 72.0459C94.8087 72.1013 94.4204 72.1013 94.0321 72.1013Z" fill="#472938"/>
<path d="M126.342 65.6926C126.342 65.6926 136.437 65.1378 138.572 81.0626C138.572 81.0626 148.944 100.761 150.137 107.058C151.329 113.356 149.194 122.234 146.587 126.784C143.98 131.334 135.299 146.038 133.719 148.285C132.138 150.532 132.387 151.115 128.255 151.42C128.255 151.42 125.205 151.975 124.594 152.253C123.984 152.53 120.296 154.5 119.547 154.222C118.798 153.973 118.077 152.974 118.216 152.78C118.382 152.558 122.237 150.477 122.237 150.477C122.237 150.477 116.025 151.531 115.442 151.503C114.86 151.476 114 150.172 114 150.172C114 150.172 111.976 149.256 111.726 148.535C111.476 147.814 113.695 146.371 113.695 146.371C113.695 146.371 112.364 146.038 111.892 145.344C111.421 144.651 119.658 140.24 120.656 140.295C121.655 140.351 128.422 141.211 128.422 141.211C128.422 141.211 137.407 112.302 137.49 110.498C137.574 108.695 130.363 101.177 129.254 94.9066C129.309 94.9066 124.678 73.1002 126.342 65.6926Z" fill="#FFEDE5"/>
<path d="M113.612 150.255C113.501 150.255 113.418 150.2 113.362 150.089C113.307 149.95 113.362 149.783 113.501 149.728L119.769 146.87C119.907 146.815 120.074 146.87 120.129 147.009C120.185 147.148 120.129 147.314 119.991 147.37L113.723 150.227C113.695 150.255 113.667 150.255 113.612 150.255Z" fill="#472938"/>
<path d="M113.751 146.676C113.64 146.676 113.557 146.621 113.501 146.538C113.418 146.399 113.473 146.232 113.612 146.149L119.741 142.875C119.88 142.792 120.046 142.848 120.129 142.986C120.213 143.125 120.157 143.292 120.018 143.375L113.889 146.649C113.834 146.649 113.778 146.676 113.751 146.676Z" fill="#472938"/>
</svg>
