<svg width="60" height="60" viewBox="0 0 60 60" fill="none" xmlns="http://www.w3.org/2000/svg">
<rect opacity="0.2" width="60" height="60" rx="12" fill="url(#paint0_linear_430_724)"/>
<g clip-path="url(#clip0_430_724)">
<path d="M7.26807 35.4118C7.4289 35.7896 7.64336 36.1135 7.91142 36.3294C9.14452 37.4089 11.5035 36.6532 13.0047 36.9231C14.5594 37.193 15.9534 38.1646 17.4545 38.6504C17.7226 38.7583 17.9907 38.8123 18.2051 38.8663C19.5991 39.1362 20.6713 39.9998 22.1725 39.9458C23.9417 39.8379 25.4429 39.1902 27.1585 38.8123C28.7133 38.4345 30.1608 38.2725 31.7692 38.2186C33.3776 38.2186 34.5571 38.5424 36.0583 38.8663C36.4336 38.9203 36.7552 39.0282 37.1305 39.0822C39.7576 39.622 42.4918 39.9998 45.0653 39.0282C45.3333 38.9203 45.6014 38.8123 45.9231 38.7583C48.0676 38.0566 50.373 37.4089 51.7669 35.4657C52.0886 35.0339 52.303 34.5481 52.5175 34.0083C52.8928 32.9828 53.0536 31.7413 53.0536 30.7697C53.0536 29.5822 52.6783 28.8805 52.0886 28.3947C51.4452 27.9089 50.5338 27.693 49.4079 27.585C48.4965 27.4771 47.6387 27.801 46.7809 27.8549C46.2448 27.9089 45.7086 27.9089 45.1725 27.9089C42.7599 27.9089 40.2937 27.693 37.9347 27.1532C36.4872 26.8294 35.1469 26.3975 33.8601 25.8578C30.6434 24.5083 27.1049 23.6447 23.6737 23.6987C22.0653 23.6987 20.3496 23.6987 18.7949 23.9146C17.9907 24.0225 17.2401 24.2924 16.4895 24.5083C16.0606 24.6163 15.6853 24.7242 15.2564 24.7782C13.5408 25.0481 12.0932 25.1021 10.6993 26.2356C9.8951 26.8833 8.93007 27.9089 8.44755 28.7725C7.48252 30.2839 6.51748 33.4686 7.26807 35.4118Z" fill="#B0502E"/>
<path d="M36.9162 37.625C36.9162 38.1108 36.9698 38.6506 37.1306 39.1364C39.7577 39.6762 42.4919 40.054 45.0654 39.0824C45.3334 38.9745 45.6015 38.8665 45.9232 38.8125C46.4593 38.3807 46.9954 37.841 47.3707 37.2472C48.2285 35.8978 48.3894 34.2245 48.7111 32.6052C48.8183 32.0654 48.9791 31.4716 48.8719 30.9319C48.7111 30.0142 47.9069 29.4205 47.1027 28.9347C46.4593 28.5569 45.816 28.233 45.119 27.9631C43.4034 27.2614 41.5269 26.8296 39.6505 26.8296C39.0071 26.8296 38.3637 26.8836 37.8276 27.2074C37.774 27.2074 37.7204 27.2614 37.7204 27.3154C36.9162 27.9091 36.809 29.0427 36.809 30.0682C36.7017 32.5512 36.7553 35.0881 36.9162 37.625Z" fill="#C75A34"/>
<path d="M14.1841 32.1732C17.9906 32.3891 21.4755 34.5482 25.282 34.3322C27.641 34.2243 29.8927 33.1447 32.2517 33.1447C34.8251 33.1447 37.1841 34.2783 39.7039 34.4942C43.564 34.818 47.1561 32.9828 50.4265 31.2016C51.3916 30.6618 52.4638 30.0141 52.5174 29.0425C52.5174 28.3408 51.9813 27.693 51.2307 27.3152C50.5337 26.9374 49.6759 26.8294 48.8717 26.6675C42.7599 25.426 37.0233 22.997 30.8578 21.7016C28.1771 21.1078 25.3356 20.784 22.5477 21.1618C19.1165 21.6476 16.1142 23.2669 13.1655 24.7783C11.7179 25.534 10.2703 26.3436 9.41254 27.5311C8.55473 28.7726 8.55473 30.5538 9.84144 31.4175C10.9673 32.2811 12.6829 32.1192 14.1841 32.1732Z" fill="#D8774A"/>
<path d="M30.9113 22.1334C28.177 21.5936 25.3355 21.3237 22.5477 21.7015C19.1164 22.1334 16.1141 23.5368 13.1654 24.9402C12.6292 25.2101 12.0931 25.426 11.6106 25.6959C12.1467 25.372 12.6829 25.1021 13.1654 24.8322C16.1141 23.2669 19.1164 21.6476 22.5477 21.1618C25.3355 20.7839 28.177 21.1078 30.8577 21.6476C35.4148 22.6191 39.7038 24.1845 44.1537 25.4799C39.7038 24.3464 35.4148 22.943 30.9113 22.1334Z" fill="#BF8E7D"/>
<path d="M9.7878 30.8236C10.9673 31.5253 12.6829 31.3634 14.1841 31.4174C17.9906 31.5793 21.4754 33.5225 25.282 33.3066C27.6409 33.1986 29.8927 32.281 32.2517 32.2271C34.8251 32.2271 37.1841 33.2526 39.7039 33.4146C43.564 33.6844 47.1561 32.0651 50.4801 30.4998C51.3915 30.068 52.4102 29.4742 52.5174 28.6646C52.5174 28.7725 52.571 28.8265 52.5174 28.9344C52.4638 29.906 51.3915 30.6077 50.4265 31.0935C47.1561 32.8748 43.564 34.71 39.7039 34.3861C37.1841 34.1702 34.8251 32.9827 32.2517 33.0367C29.8927 33.0367 27.6409 34.1163 25.282 34.2242C21.4754 34.4401 17.9906 32.281 14.1841 32.0651C12.6829 32.0111 10.9673 32.1731 9.7878 31.3634C9.03722 30.8236 8.71554 30.014 8.76915 29.1503C8.82277 29.8521 9.14444 30.4458 9.7878 30.8236Z" fill="#BF8E7D"/>
<path d="M7.26807 35.4117C7.42891 35.7895 7.64336 36.1134 7.91142 36.3293C9.14452 37.4088 11.5035 36.6531 13.0047 36.923C14.8275 37.2469 16.4359 38.5423 18.2051 38.9202C19.5991 39.1901 20.6713 40.0537 22.1725 39.9997C23.9417 39.8918 25.4429 39.2441 27.1585 38.8662C28.7133 38.4884 30.1608 38.3264 31.7692 38.2725C33.3776 38.2725 34.5571 38.5963 36.0583 38.9202C39.007 39.5139 42.1702 40.1617 45.0653 39.0821C47.4242 38.2725 50.1585 37.7327 51.7133 35.5736C52.035 35.1418 52.2494 34.656 52.4639 34.1162C48.6573 37.8946 42.9744 39.6759 37.7203 38.6503C34.9324 38.1105 31.9837 37.5168 29.1422 38.0026C26.3007 38.4884 23.4592 39.2441 20.6177 38.8122C18.1515 38.4344 15.9534 37.1389 13.4872 36.6531C12.0932 36.3833 10.6457 36.3833 9.25175 36.1134C8.60839 35.9514 7.91142 35.7355 7.26807 35.4117Z" fill="#6B301C"/>
<path d="M40.7761 25.9656C42.5453 26.1816 44.3682 26.4514 46.1374 26.7213C47.1561 26.8833 48.3355 27.1531 48.8181 28.0708C49.3006 28.9884 48.8181 30.2298 47.9603 30.8776C47.1025 31.5253 46.0302 31.6872 45.0115 31.7952C43.9393 31.9031 42.867 31.9571 41.7948 31.9571C41.4195 31.9571 41.0978 31.9571 40.7225 31.9031C40.4008 31.8492 40.0791 31.7412 39.7575 31.6333C38.4707 31.2554 37.184 30.8236 35.8973 30.4458C35.4684 30.2838 34.9323 30.0139 34.9859 29.5821C35.0395 29.1503 35.522 28.9884 35.8973 28.8804C37.1304 28.5026 38.2563 27.7469 39.1141 26.7753C39.3822 26.4514 39.6502 26.1276 40.0255 26.0196C40.24 25.9117 40.508 25.9656 40.7761 25.9656Z" fill="#C96F45"/>
<path d="M24.7994 30.8778C24.9067 29.9062 25.0139 28.9886 25.1211 28.017C25.1747 27.5852 25.2283 27.1534 25.1211 26.7215C24.9603 25.9659 24.3169 25.3721 23.888 24.7244C23.4591 24.0767 23.191 23.1051 23.7808 22.5113C24.4241 21.8636 25.4964 22.2414 26.3542 22.5653C29.3029 23.7528 32.5733 23.6448 35.7365 23.9147C36.3799 23.9687 37.0768 24.0767 37.5593 24.5085C38.0419 24.9403 38.1491 25.8579 37.5593 26.2357C37.1304 26.5056 36.6479 26.3437 36.1654 26.3977C35.522 26.5056 35.0931 27.0454 34.7178 27.5852C34.0745 28.5568 33.2703 29.6363 33.2703 30.8238C32.1444 30.9857 31.0185 30.338 29.8391 30.284C28.1771 30.2301 26.4614 31.3636 24.7994 30.8778Z" fill="#C96F45"/>
<path d="M23.4056 31.0396C23.2447 31.2015 22.9767 31.2555 22.7622 31.2555C20.296 31.5254 17.9906 29.2583 15.5244 29.7441C14.6666 29.9061 13.8088 30.3919 13.0046 30.068C12.6293 29.9061 12.3613 29.5282 12.0932 29.1504C11.8251 28.7186 11.6107 28.2868 11.3962 27.801C12.6293 27.747 13.8088 27.2072 15.0419 27.0453C16.5431 26.8833 17.9906 27.3152 19.4382 27.747C19.9743 26.9373 19.2774 25.8578 19.2774 24.8322C19.2774 23.5907 20.6177 22.5652 21.7972 22.889C21.3683 23.8606 22.1725 24.8862 22.7622 25.8038C23.5664 27.0993 23.8881 28.7186 23.6736 30.2299C23.6736 30.5538 23.62 30.8237 23.4056 31.0396Z" fill="#C96F45"/>
<path d="M24.6925 23.213C25.6575 23.213 26.3545 23.5908 26.1937 23.8607C26.9442 24.1306 26.9442 24.4544 27.3731 24.7783C27.802 25.1022 28.7135 25.2641 29.1424 25.588C29.5713 25.9118 29.3568 26.2897 29.7857 26.6135C30.2682 26.9914 30.858 27.1533 31.2333 27.5311C32.0911 28.2328 32.8953 28.9885 33.7531 29.6902C34.0748 29.9601 35.147 30.338 35.3079 30.6618C35.4687 30.9317 34.9326 31.0397 34.9326 31.2556C34.9326 31.4715 35.4687 31.6874 35.5223 31.8493C34.7181 31.9033 34.1284 31.3635 33.7531 31.1476C33.1097 30.7698 33.3242 30.6078 33.0025 30.176C32.7881 29.8522 31.8766 29.5283 31.4477 29.2584C31.0724 28.9885 30.9116 28.6647 30.6435 28.3948C30.0538 27.747 28.8743 27.2613 28.2846 26.6675C28.0165 26.3976 27.8557 26.0198 27.4804 25.7499C26.8906 25.426 26.14 25.372 25.9792 24.8863C25.0678 24.8323 24.7997 24.2385 24.6389 23.9147C23.8883 23.8067 23.7275 23.4828 24.1027 23.213C24.2636 23.159 24.5317 23.213 24.6925 23.213Z" fill="#642917"/>
<path d="M19.0094 23.3209C19.4383 23.051 20.8322 23.4829 21.0467 23.7528C21.422 24.1846 20.6714 24.5624 21.5828 25.0482C22.3334 25.426 23.6201 25.588 24.2098 26.0198C24.6924 26.3976 24.5315 26.8295 25.014 27.2613C25.5502 27.6391 26.2471 27.963 26.6224 28.3948C26.9977 28.8806 27.0513 29.2584 27.8555 29.6903C29.0886 30.338 29.7856 31.2016 29.8928 32.0113C29.3031 31.7414 28.9814 31.3096 28.8206 30.9857C27.4266 30.8778 26.5152 29.6903 25.9791 29.2045C25.2821 28.5028 24.3707 27.909 23.352 27.3153C22.7087 26.9374 23.0304 26.5596 22.5478 26.1817C22.0117 25.8039 21.1003 25.642 20.6178 25.2101C20.1352 24.7783 19.9744 24.5624 19.8672 24.1306C19.7063 23.6448 19.1702 23.4289 18.7949 22.9971L19.0094 23.3209Z" fill="#642917"/>
<path d="M15.2564 24.2924C15.9533 24.2924 17.2401 25.4799 17.7762 25.8037C18.6876 26.3975 18.6876 27.1532 19.1701 27.8009C19.6526 28.4486 21.1002 29.0424 21.9044 29.6361C22.7622 30.2839 23.3519 30.7157 23.3519 31.4714C23.4592 31.0935 21.6899 30.1219 21.1002 29.7981C20.2424 29.3123 18.5268 28.8265 18.3659 28.1787C17.5617 28.0708 17.7226 27.4231 17.6154 27.1532C17.4009 26.6134 16.972 26.4515 16.275 26.0736C15.6317 25.8037 13.3263 24.2384 15.2564 24.2924Z" fill="#803018"/>
<path d="M31.6622 23.8065C33.9139 24.886 34.2356 26.3974 36.4873 27.4769C37.1307 27.8008 37.2379 27.9627 37.6668 28.3406C38.0421 28.7184 38.8999 28.9343 39.3288 29.3121C39.6505 29.582 39.6505 29.9599 40.0794 30.2837C40.4011 30.5536 40.9372 30.7156 40.9908 30.9854C41.2589 30.9854 41.8486 30.9315 42.1167 30.8775C41.6342 30.2837 40.0794 29.7979 39.4897 29.2042C38.8463 28.5565 38.6855 27.8008 37.8277 27.1531C37.6668 27.0451 37.1307 26.9911 36.9162 26.8292C36.7018 26.6673 36.8626 26.3974 36.7554 26.2354C36.4873 25.8576 35.844 25.5337 35.3615 25.2099C34.45 24.5621 33.485 23.9144 31.7158 23.6445C31.3941 23.7525 31.3405 23.6985 31.6622 23.8065Z" fill="#7A2E17"/>
<path d="M39.9186 25.858C39.9722 25.8041 39.8114 25.6961 40.0258 25.6961C40.5084 26.2898 40.9373 26.9376 41.4734 27.4773C42.0631 28.0171 42.6529 28.1791 43.4035 28.5569C44.0468 28.8808 44.3149 29.4205 44.7974 29.9063C45.0655 30.1222 45.1727 30.2302 45.4407 30.3381C45.6552 30.4461 45.9769 30.2842 46.1913 30.5541C46.1913 30.5541 46.2986 30.3921 46.2986 30.4461C45.816 29.9063 45.1191 29.6364 44.6366 29.0967C44.154 28.5569 43.5643 28.1251 42.9209 27.6393C42.224 27.0455 41.0445 24.7245 39.7042 24.9944C39.5433 25.5342 39.865 25.7501 40.1867 26.1279L39.9186 25.858Z" fill="#803018"/>
<path d="M48.9255 29.5826C48.7646 29.2048 47.8532 28.719 47.5315 28.2332C47.3171 27.8553 47.2099 27.6934 46.8882 27.3695C46.5665 26.9917 46.2448 26.8837 46.084 26.3979C47.4779 27.2076 48.7646 28.1792 48.9255 29.5826Z" fill="#732F1B"/>
<path d="M11.8789 26.1275C12.5758 26.6133 13.38 27.423 13.8089 28.0707C14.2378 28.7724 14.5595 29.5821 14.9884 30.2298C14.774 29.852 14.1842 29.744 13.8089 29.4741C13.4336 29.1503 13.2192 28.7185 13.0047 28.3406C12.5222 27.477 11.718 26.9372 11.718 26.0196C11.8789 25.9656 11.8252 26.0736 11.8789 26.1275Z" fill="#803018"/>
</g>
<defs>
<linearGradient id="paint0_linear_430_724" x1="60" y1="60" x2="-19.9676" y2="53.812" gradientUnits="userSpaceOnUse">
<stop stop-color="#92A3FD"/>
<stop offset="1" stop-color="#9DCEFF"/>
</linearGradient>
<clipPath id="clip0_430_724">
<rect width="46" height="19" fill="white" transform="translate(7 21)"/>
</clipPath>
</defs>
</svg>
