<svg width="19" height="55" viewBox="0 0 19 55" fill="none" xmlns="http://www.w3.org/2000/svg">
<path d="M13.0288 10.4714C13.0288 10.4714 14.2206 10.4802 14.613 12.5425C15.0083 14.6048 15.3572 17.3497 15.8222 18.3808C16.2873 19.412 17.1186 21.2575 17.5052 23.1264C17.8918 24.9954 18.0517 26.1759 18.1418 26.5655C18.2319 26.9551 18.6069 28.5897 18.6389 29.079C18.6679 29.5682 18.511 30.7253 18.4674 30.9274C18.4209 31.1266 18.0459 32.1665 18.0023 32.2105C17.9558 32.2574 17.7465 31.9937 17.7639 31.8326C17.7814 31.6715 17.918 30.8132 17.918 30.8132L17.7232 29.5242C17.7232 29.5242 17.5866 30.6257 17.4151 30.7048C17.2436 30.7839 17.0809 30.7341 17.0402 30.7106C16.9995 30.6872 17.0692 29.7234 16.8745 28.9501C16.6797 28.1767 17.0838 27.4268 16.857 26.7384C16.6303 26.05 14.7874 22.2095 14.4444 20.9616C14.1043 19.7108 12.898 16.3888 12.5347 15.5041C12.1714 14.6224 12.3051 10.4275 13.0288 10.4714Z" fill="#FFEDE5"/>
<path d="M13.023 14.7163C12.9155 14.3384 12.6626 14.353 12.3719 14.5347C12.4039 14.9623 12.4591 15.3139 12.5376 15.5043C12.6335 15.7328 12.7847 16.1282 12.962 16.6087C13.0812 16.2161 13.2381 15.4779 13.023 14.7163Z" fill="#DD825C"/>
<path d="M14.6449 19.4507C14.6332 19.4507 14.6216 19.4448 14.6187 19.4331C14.6129 19.4185 14.6216 19.4009 14.6361 19.395L15.3948 19.1167C15.4093 19.1109 15.4268 19.1196 15.4326 19.1343C15.4384 19.1489 15.4297 19.1665 15.4151 19.1724L14.6565 19.4507C14.6507 19.4507 14.6478 19.4507 14.6449 19.4507Z" fill="#472938"/>
<path d="M5.8345 10.5273C5.8345 10.5273 4.43344 10.7676 4.03231 12.5457C3.57014 14.5933 3.28819 17.3528 2.82311 18.384C2.35803 19.4151 1.5267 21.2607 1.1401 23.1296C0.753505 24.9986 0.590727 26.1762 0.500618 26.5658C0.410509 26.9554 0.0355388 28.59 0.00356456 29.0792C-0.0255029 29.5684 0.131461 30.7255 0.175063 30.9277C0.22157 31.1269 0.596541 32.1668 0.640142 32.2107C0.683743 32.2547 0.895935 31.994 0.878495 31.8328C0.861054 31.6717 0.724437 30.8134 0.724437 30.8134L0.919189 29.5245C0.919189 29.5245 1.05581 30.6259 1.2273 30.705C1.3988 30.7841 1.56158 30.7343 1.60227 30.7109C1.64297 30.6874 1.57321 29.7237 1.76796 28.9503C1.96271 28.177 1.55867 27.427 1.7854 26.7386C2.01213 26.0502 3.855 22.2098 4.198 20.9619C4.53809 19.711 5.74439 16.3891 6.10773 15.5044C6.47398 14.6226 6.55827 10.4805 5.8345 10.5273Z" fill="#FFEDE5"/>
<path d="M5.33141 14.4511C5.48838 14.0907 5.98253 14.3485 6.2732 14.5301C6.24123 14.9578 6.186 15.3094 6.10752 15.4998C6.01159 15.7283 5.86044 16.1237 5.68313 16.6042C5.4564 16.3786 5.14829 14.8729 5.33141 14.4511Z" fill="#DD825C"/>
<path d="M4.00587 19.4498C4.00006 19.4498 3.99715 19.4498 3.99134 19.4469L3.36639 19.1071C3.35186 19.0983 3.34604 19.0837 3.35476 19.069C3.36348 19.0544 3.37802 19.0485 3.39255 19.0573L4.0175 19.3971C4.03203 19.4059 4.03785 19.4205 4.02913 19.4352C4.02622 19.444 4.01459 19.4498 4.00587 19.4498Z" fill="#472938"/>
<path d="M13.8977 55H17.4614C17.5486 55 17.6184 54.9297 17.6184 54.8418C17.6184 54.7334 17.6126 54.5811 17.598 54.4317H13.8338C13.8134 54.584 13.7931 54.7247 13.7727 54.8535C13.7611 54.9297 13.8222 55 13.8977 55Z" fill="#3B2645"/>
<path d="M17.4353 53.8784C17.2434 53.7554 16.6359 53.234 16.4382 51.8865C16.4382 51.8865 16.4382 51.8865 16.4382 51.8835C16.4382 51.8806 16.4383 51.8747 16.4353 51.8718C16.4208 51.7869 16.3162 51.3797 15.5517 51.3826C14.7 51.3885 14.5779 52.3522 14.5285 52.3405C14.4791 52.3288 14.357 51.7488 14.1419 51.7429C14.0518 52.6422 13.9384 53.6675 13.8367 54.4321H17.6009C17.5748 54.186 17.5312 53.937 17.4353 53.8784Z" fill="#AB8DA8"/>
<path d="M14.5255 52.3406C14.5779 52.3523 14.697 51.3885 15.5487 51.3827C16.3132 51.3768 16.4178 51.784 16.4324 51.8719C16.4207 51.7928 16.4091 51.7108 16.4004 51.6229C16.3335 50.9432 16.3539 49.6807 16.3539 49.6807L14.3279 49.7334C14.3279 49.7334 14.2465 50.6415 14.136 51.74C14.357 51.7459 14.4761 52.3289 14.5255 52.3406Z" fill="#FFEDE5"/>
<path d="M17.4352 53.8777C17.4352 53.8865 17.4323 53.8923 17.4323 53.8923C17.4323 53.8923 16.6736 53.8923 15.6912 53.8923C14.7087 53.8923 14.5226 52.3398 14.5226 52.3398C14.4703 52.328 14.3511 51.748 14.136 51.7422C14.0459 52.6415 13.9326 53.6668 13.8308 54.4314H17.5951C17.5747 54.1853 17.5311 53.9421 17.4352 53.8777Z" fill="#AB8DA8"/>
<path d="M15.6941 53.8941C16.6766 53.8941 17.4352 53.8941 17.4352 53.8941C17.4352 53.8941 17.4352 53.8882 17.4381 53.8794C17.4381 53.8794 17.4381 53.8794 17.4352 53.8765C17.2434 53.7535 16.6359 53.232 16.4382 51.8845C16.4382 51.8845 16.4382 51.8845 16.4382 51.8816C16.4382 51.8786 16.4382 51.8728 16.4353 51.8698C16.4208 51.7849 16.3161 51.3777 15.5517 51.3806C14.7 51.3865 14.5779 52.3503 14.5285 52.3386C14.5256 52.3415 14.7116 53.8941 15.6941 53.8941Z" fill="#543753"/>
<path d="M5.2474 55H1.68374C1.59653 55 1.52677 54.9297 1.52677 54.8418C1.52677 54.7334 1.53258 54.5811 1.54712 54.4317H5.31135C5.3317 54.584 5.35205 54.7247 5.37239 54.8535C5.38402 54.9297 5.32589 55 5.2474 55Z" fill="#3B2645"/>
<path d="M1.70988 53.8784C1.90172 53.7554 2.50923 53.234 2.70689 51.8865C2.70689 51.8865 2.70689 51.8865 2.70689 51.8835C2.70689 51.8806 2.70689 51.8747 2.7098 51.8718C2.72433 51.7869 2.82898 51.3797 3.59345 51.3826C4.44513 51.3885 4.56721 52.3522 4.61662 52.3405C4.66604 52.3288 4.78812 51.7488 5.00322 51.7429C5.09333 52.6422 5.20669 53.6675 5.30843 54.4321H1.5471C1.57036 54.186 1.61686 53.937 1.70988 53.8784Z" fill="#AB8DA8"/>
<path d="M4.61964 52.3406C4.56732 52.3523 4.44814 51.3885 3.59647 51.3827C2.83199 51.3768 2.72735 51.784 2.71282 51.8719C2.72444 51.7928 2.73607 51.7108 2.74479 51.6229C2.81165 50.9432 2.7913 49.6807 2.7913 49.6807L4.8173 49.7334C4.8173 49.7334 4.89869 50.6415 5.00915 51.74C4.78823 51.7459 4.66906 52.3289 4.61964 52.3406Z" fill="#FFEDE5"/>
<path d="M1.70988 53.8777C1.70988 53.8865 1.71279 53.8923 1.71279 53.8923C1.71279 53.8923 2.47145 53.8923 3.45393 53.8923C4.43641 53.8923 4.62244 52.3398 4.62244 52.3398C4.67476 52.328 4.79394 51.748 5.00903 51.7422C5.09914 52.6415 5.21251 53.6668 5.31424 54.4314H1.5471C1.57036 54.1853 1.61396 53.9421 1.70988 53.8777Z" fill="#AB8DA8"/>
<path d="M3.4511 53.8941C2.46862 53.8941 1.70996 53.8941 1.70996 53.8941C1.70996 53.8941 1.70996 53.8882 1.70705 53.8794C1.70705 53.8794 1.70705 53.8794 1.70996 53.8765C1.90181 53.7535 2.50932 53.232 2.70697 51.8845C2.70697 51.8845 2.70697 51.8845 2.70697 51.8816C2.70697 51.8786 2.70697 51.8728 2.70988 51.8698C2.72441 51.7849 2.82906 51.3777 3.59353 51.3806C4.44521 51.3865 4.56729 52.3503 4.61671 52.3386C4.61961 52.3415 4.43358 53.8941 3.4511 53.8941Z" fill="#543753"/>
<path d="M15.7901 39.6582C15.5401 38.5129 15.5634 35.2554 15.3134 30.7617C15.1419 27.6917 14.3135 25.3276 13.8048 24.1383C9.14531 25.685 6.13101 24.7388 5.06133 24.2643C3.03533 28.8166 3.51204 34.1217 3.57598 36.0551C3.64284 38.1174 3.16613 40.0889 2.6778 42.8425C2.18947 45.5932 2.6778 49.7881 2.6778 49.7881C3.62249 50.1308 4.84914 49.7412 4.84914 49.7412C4.80263 47.6086 5.37235 45.5903 5.89557 43.0915C6.41878 40.5898 6.09904 38.9435 6.78212 37.0862C7.46521 35.229 9.15693 29.0158 9.15693 29.0158H9.88362C10.1569 31.6756 11.4009 34.6109 12.3427 37.2386C13.2845 39.8662 12.8572 41.3807 13.5694 44.5298C14.2815 47.6789 14.2059 49.7383 14.2059 49.7383C15.0489 50.1045 16.4558 49.6797 16.4558 49.6797C16.4558 49.6797 16.4936 47.3831 16.5168 44.814C16.5401 42.2478 16.0401 40.8036 15.7901 39.6582Z" fill="#AB8DA8"/>
<path d="M13.8019 24.1403C13.5665 23.5896 13.4008 23.2878 13.4008 23.2878L5.50028 23.364C5.34041 23.6599 5.19507 23.9616 5.05845 24.2663C6.13104 24.7408 9.14243 25.687 13.8019 24.1403Z" fill="#3B2645"/>
<path d="M10.8022 7.98634L10.9243 9.75862C10.9447 10.0369 11.1568 10.2595 11.4301 10.2888L13.0317 10.4705C13.0317 10.4705 13.616 14.7269 12.6306 16.4845C11.6452 18.2421 12.1713 20.3747 13.4009 23.2866C13.4009 23.2866 8.35184 24.432 5.50032 23.3627C5.50032 23.3627 6.75894 20.4451 6.4392 18.3359C6.11945 16.2267 5.28522 15.9191 5.33173 14.4544C5.37823 12.9897 5.83169 10.5261 5.83169 10.5261L7.47109 10.2127C7.63678 10.1805 7.76177 10.0486 7.78502 9.88165L8.01756 8.24705L10.8022 7.98634Z" fill="#FFEDE5"/>
<path d="M8.02063 8.24705C8.02063 8.24705 8.8258 10.4705 10.8809 9.14052L10.8024 7.98634L8.02063 8.24705Z" fill="#DD825C"/>
<path d="M12.6277 16.4845C12.7934 16.1887 12.9126 15.8254 12.9998 15.4212C13.0346 15.2161 13.0811 14.7093 12.8893 13.8803C12.6335 12.7847 12.7004 10.4324 12.7004 10.4324L11.6946 10.3181C11.6946 10.3181 11.5435 13.81 9.28493 13.81C7.02639 13.81 7.08162 10.2859 7.08162 10.2859L6.2125 10.4529C6.2125 10.4529 6.36656 14.0443 5.33467 14.4515C5.28816 15.9191 6.12239 16.2238 6.44214 18.333C6.46248 18.4707 6.47702 18.6113 6.48574 18.7548C6.48574 18.7548 8.56987 19.6629 12.119 18.6874C12.0958 17.8848 12.2498 17.1583 12.6277 16.4845Z" fill="#AB8DA8"/>
<path d="M6.48285 18.758C6.48285 18.758 8.56699 19.6661 12.1161 18.6906C12.1103 18.4914 12.1161 18.2951 12.1336 18.1047C9.61342 18.7931 7.24733 18.3977 6.4189 18.216C6.42472 18.2541 6.43053 18.2951 6.43925 18.3361C6.4596 18.4738 6.47413 18.6144 6.48285 18.758Z" fill="#3B2645"/>
<path d="M8.0378 17.3183C7.54366 17.3183 7.23845 17.1835 7.22391 17.1777C7.20938 17.1718 7.20357 17.1542 7.20938 17.1396C7.21519 17.1249 7.23263 17.1191 7.24717 17.1249C7.25007 17.1279 7.64248 17.2978 8.24127 17.2538C8.46219 17.2362 8.63078 17.2011 8.79646 17.1659C9.08423 17.1044 9.35456 17.0458 9.8022 17.1249C10.3632 17.2245 11.0608 17.3212 11.4881 17.1747C11.5026 17.1689 11.5201 17.1777 11.523 17.1923C11.5288 17.207 11.5201 17.2245 11.5055 17.2275C11.0695 17.3769 10.3603 17.2802 9.79348 17.1777C9.35746 17.1015 9.10458 17.1542 8.811 17.2187C8.6424 17.2538 8.47091 17.2919 8.24709 17.3095C8.17442 17.3153 8.10466 17.3183 8.0378 17.3183Z" fill="#472938"/>
<path d="M9.32843 23.4836C9.38783 23.4836 9.43598 23.4036 9.43598 23.3049C9.43598 23.2062 9.38783 23.1262 9.32843 23.1262C9.26903 23.1262 9.22088 23.2062 9.22088 23.3049C9.22088 23.4036 9.26903 23.4836 9.32843 23.4836Z" fill="#DD825C"/>
<path d="M12.0657 6.61814C12.2123 6.20874 12.1547 5.81278 11.9373 5.73374C11.7198 5.65469 11.4248 5.92249 11.2782 6.33189C11.1317 6.74128 11.1892 7.13724 11.4067 7.21629C11.6241 7.29534 11.9192 7.02754 12.0657 6.61814Z" fill="#FFEDE5"/>
<path d="M7.295 7.21626C7.51246 7.13721 7.56997 6.74125 7.42345 6.33185C7.27692 5.92246 6.98186 5.65465 6.7644 5.7337C6.54694 5.81275 6.48943 6.20871 6.63595 6.61811C6.78247 7.02751 7.07754 7.29531 7.295 7.21626Z" fill="#FFEDE5"/>
<path d="M7.16271 6.75239C7.15399 6.75239 7.14527 6.74946 7.13945 6.74067L6.8546 6.33349C6.84588 6.32177 6.84878 6.30126 6.86041 6.29248C6.87204 6.28369 6.88948 6.28662 6.9011 6.29833L7.18596 6.70552C7.19468 6.71724 7.19178 6.73774 7.18015 6.74653C7.17434 6.75239 7.16852 6.75239 7.16271 6.75239Z" fill="#472938"/>
<path d="M11.5666 6.69595C11.5608 6.69595 11.5521 6.69302 11.5492 6.69009C11.5376 6.67837 11.5376 6.66079 11.5463 6.64908L11.8486 6.30048C11.8602 6.28876 11.8777 6.28876 11.8893 6.29755C11.9009 6.30927 11.9009 6.32684 11.8922 6.33856L11.5899 6.68716C11.5812 6.69302 11.5724 6.69595 11.5666 6.69595Z" fill="#472938"/>
<path d="M11.5662 5.56884C11.5662 7.57255 10.6622 9.28331 9.35999 9.28331C8.05777 9.28331 7.00262 7.43487 7.00262 5.43116C7.00262 3.42745 8.05486 2.0272 9.35999 2.0272C10.6651 2.0272 11.5662 3.56514 11.5662 5.56884Z" fill="#FFEDE5"/>
<path d="M9.46839 2.96769C10.4936 2.86071 11.2567 2.11256 11.1728 1.29665C11.089 0.480743 10.19 -0.0939544 9.1648 0.0130282C8.13963 0.120011 7.37652 0.868161 7.46035 1.68407C7.54419 2.49998 8.44321 3.07467 9.46839 2.96769Z" fill="#3B2645"/>
<g opacity="0.5">
<g opacity="0.5">
<path opacity="0.5" d="M9.46786 2.96684C10.4532 2.86431 11.1945 2.17004 11.177 1.39375C10.8776 0.82252 10.1306 0.462204 9.30217 0.550086C8.31678 0.652615 7.57556 1.34688 7.593 2.12317C7.89531 2.6944 8.63943 3.05472 9.46786 2.96684Z" fill="#3B2645"/>
</g>
</g>
<path d="M11.558 5.86888C11.558 5.86888 10.6772 4.85531 10.7906 3.6982C10.7906 3.6982 10.0232 5.08966 7.00312 5.79565L6.74151 5.74292C6.74151 5.74292 5.78229 1.24337 9.36049 1.23165C11.5144 1.22286 11.6713 2.60846 11.6713 2.60846C11.6713 2.60846 12.8602 2.96585 11.9359 5.73413L11.558 5.86888Z" fill="#3B2645"/>
<path d="M9.29346 7.34592C9.14522 7.34592 8.95628 7.22581 8.93012 7.17601C8.90105 7.11743 8.98244 6.78641 9.11906 6.42316C9.2644 6.03648 9.18301 5.81092 9.18301 5.80799C9.17719 5.79334 9.18591 5.77577 9.20045 5.76991C9.21498 5.76405 9.23242 5.77284 9.23823 5.78748C9.24114 5.79627 9.32834 6.03062 9.17429 6.44074C9.01441 6.86843 8.97372 7.11743 8.98244 7.14672C8.99697 7.17601 9.1801 7.29612 9.3109 7.2844C9.44461 7.27268 9.64518 7.15844 9.64518 7.15551C9.65971 7.14672 9.67716 7.15258 9.68297 7.16723C9.69169 7.18187 9.68588 7.19945 9.67134 7.20531C9.66262 7.21117 9.45915 7.32834 9.31381 7.34006C9.308 7.34592 9.29928 7.34592 9.29346 7.34592Z" fill="#472938"/>
<path d="M9.32827 8.01655C8.93005 8.01655 8.65972 7.74412 8.64809 7.7324C8.63647 7.72068 8.63647 7.7031 8.64809 7.69139C8.65972 7.67967 8.67716 7.67967 8.68879 7.69139C8.69169 7.69432 8.95621 7.95797 9.32827 7.95797C9.70033 7.95797 9.96485 7.69432 9.96775 7.69139C9.97938 7.67967 9.99682 7.67967 10.0084 7.69139C10.0201 7.7031 10.0201 7.72068 10.0084 7.7324C9.99682 7.74412 9.72649 8.01655 9.32827 8.01655Z" fill="#472938"/>
<path d="M10.4039 6.19172C10.305 6.18879 10.2295 6.10384 10.2324 6.00424L10.2382 5.87534C10.2411 5.77574 10.3254 5.69958 10.4242 5.70251C10.523 5.70544 10.5986 5.79039 10.5957 5.88999L10.5899 6.01888C10.587 6.11848 10.5027 6.19758 10.4039 6.19172Z" fill="#472938"/>
<path d="M8.33427 6.18998C8.23544 6.19584 8.15115 6.11675 8.14824 6.01715L8.14243 5.88825C8.13661 5.78865 8.2151 5.7037 8.31393 5.70077C8.41276 5.69491 8.49705 5.77401 8.49996 5.87361L8.50577 6.0025C8.50868 6.1021 8.4331 6.18705 8.33427 6.18998Z" fill="#472938"/>
<path d="M10.956 5.25152C10.956 5.25152 10.7321 5.04939 10.3921 5.11091C10.052 5.17243 9.97639 5.19 9.95314 5.16364C9.92988 5.1402 9.90081 4.94686 10.2932 4.88535C10.6856 4.82383 10.9356 5.09626 10.956 5.25152Z" fill="#472938"/>
</svg>
