<svg width="375" height="495" viewBox="0 0 375 495" fill="none" xmlns="http://www.w3.org/2000/svg">
<line x1="3.49691e-08" y1="38.3998" x2="375" y2="38.3998" stroke="#F7F8F8" stroke-width="0.8"/>
<line x1="3.49691e-08" y1="76.3998" x2="375" y2="76.3998" stroke="#F7F8F8" stroke-width="0.8"/>
<line x1="3.49691e-08" y1="114.4" x2="375" y2="114.4" stroke="#F7F8F8" stroke-width="0.8"/>
<line x1="3.49691e-08" y1="152.4" x2="375" y2="152.4" stroke="#F7F8F8" stroke-width="0.8"/>
<line x1="3.49691e-08" y1="190.4" x2="375" y2="190.4" stroke="#F7F8F8" stroke-width="0.8"/>
<line x1="3.49691e-08" y1="228.4" x2="375" y2="228.4" stroke="#F7F8F8" stroke-width="0.8"/>
<line x1="3.49691e-08" y1="266.4" x2="375" y2="266.4" stroke="#F7F8F8" stroke-width="0.8"/>
<line x1="3.49691e-08" y1="304.4" x2="375" y2="304.4" stroke="#F7F8F8" stroke-width="0.8"/>
<line x1="3.49691e-08" y1="342.4" x2="375" y2="342.4" stroke="#F7F8F8" stroke-width="0.8"/>
<line x1="3.49691e-08" y1="380.4" x2="375" y2="380.4" stroke="#F7F8F8" stroke-width="0.8"/>
<line x1="3.49691e-08" y1="418.4" x2="375" y2="418.4" stroke="#F7F8F8" stroke-width="0.8"/>
<line x1="3.49691e-08" y1="456.4" x2="375" y2="456.4" stroke="#F7F8F8" stroke-width="0.8"/>
<line x1="3.49691e-08" y1="494.4" x2="375" y2="494.4" stroke="#F7F8F8" stroke-width="0.8"/>
<line x1="3.49691e-08" y1="0.399805" x2="375" y2="0.399837" stroke="#F7F8F8" stroke-width="0.8"/>
</svg>
