<svg width="118" height="74" viewBox="0 0 118 74" fill="none" xmlns="http://www.w3.org/2000/svg">
<path fill-rule="evenodd" clip-rule="evenodd" d="M108.847 63.2829C108.847 68.3901 85.7124 73.9892 61.1736 73.9892C36.6347 73.9892 16.5711 65.114 16.5711 60.0069C16.5711 54.8998 39.8877 54.0403 64.4203 54.0403C88.9529 54.0403 108.847 58.1758 108.847 63.2829Z" fill="#E2CAB3"/>
<path fill-rule="evenodd" clip-rule="evenodd" d="M112.645 68.496C112.714 71.224 106.804 73.5907 99.4388 73.7776C92.074 73.9644 86.0443 71.9091 85.9753 69.1749C85.9064 66.4407 91.817 64.0802 99.1818 63.8934C106.547 63.7065 112.576 65.7618 112.645 68.496Z" fill="#E2CAB3"/>
<path fill-rule="evenodd" clip-rule="evenodd" d="M5.41392 49.0822C1.49021 58.3248 6.26635 63.1642 12.6283 63.9614C15.1354 64.2728 18.8962 62.5476 21.6791 61.4701C23.9434 60.4707 26.0931 59.2325 28.0912 57.7768C29.0377 56.8114 30.1533 55.4972 30.379 54.0398C30.4093 53.4766 30.2881 52.9155 30.028 52.4143C30.0987 52.2043 30.2024 52.0067 30.3351 51.8288C30.6736 51.206 29.7585 50.7264 30.216 50.0289C30.9431 48.914 29.9841 47.712 29.514 46.7217C29.3573 46.404 25.3145 42.8353 25.1265 42.4927C21.7543 38.9489 20.8455 37.2797 16.2073 36.551C10.3844 35.6292 4.73698 37.7406 5.41392 49.0822Z" fill="#5F825C"/>
<g style="mix-blend-mode:multiply" opacity="0.4">
<path fill-rule="evenodd" clip-rule="evenodd" d="M7.5202 45.6696C8.1846 45.7506 8.51053 47.5381 8.23474 49.6806C7.95895 51.8231 7.2068 53.4674 6.53614 53.3864C5.86547 53.3054 5.55207 51.5179 5.82159 49.3754C6.09111 47.2329 6.81819 45.5824 7.5202 45.6696Z" fill="#5F825C"/>
</g>
<path fill-rule="evenodd" clip-rule="evenodd" d="M8.147 55.6904C6.72419 56.3133 6.85581 58.1381 7.43246 59.3215C7.44662 59.3402 7.45724 59.3613 7.4638 59.3838C7.59922 59.6564 7.76761 59.9115 7.96523 60.1436C8.66373 61.0273 9.62763 61.6665 10.7168 61.9685C12.0832 62.311 13.6502 62.0806 14.44 61.0031C14.4593 60.9699 14.4907 60.9454 14.5277 60.9346V60.7976C14.3522 60.1 13.2741 59.963 12.6975 59.8758C11.4439 59.6827 11.0741 58.5866 10.6918 57.5714C10.3094 56.5562 9.40058 55.1174 8.147 55.6904Z" fill="#8DB54F"/>
<g style="mix-blend-mode:multiply" opacity="0.4">
<path fill-rule="evenodd" clip-rule="evenodd" d="M21.0211 41.9636C19.8616 42.5864 20.9396 43.994 21.4975 44.6604C22.7511 46.205 24.4685 47.3136 25.5152 49.07C26.562 50.8263 25.1955 53.548 26.8691 55.0304C26.9497 55.1019 27.044 55.1569 27.1462 55.1919C27.2484 55.227 27.3567 55.2414 27.4646 55.2345C27.5726 55.2275 27.678 55.1993 27.7749 55.1514C27.8717 55.1035 27.958 55.037 28.0286 54.9556C28.102 54.8379 28.1569 54.7098 28.1916 54.5757C28.3953 54.3172 28.5542 54.0267 28.6617 53.7162C28.9437 52.7418 28.9064 51.7035 28.5551 50.7516C28.2919 49.8983 28.8811 49.07 28.6241 48.2167C28.5063 47.8987 28.3178 47.6113 28.0725 47.3759C27.8154 47.0795 27.5204 46.8178 27.195 46.5974C26.5883 46.0961 26.0282 45.5416 25.5215 44.9407C24.9145 44.2258 24.2477 43.5632 23.5283 42.9601C22.7699 42.2438 21.7858 41.5463 21.0211 41.9636Z" fill="#5F825C"/>
</g>
<path fill-rule="evenodd" clip-rule="evenodd" d="M6.4797 49.6554C5.85291 49.5495 5.45803 49.3004 3.43349 48.8021C1.40896 48.3039 0.381024 48.1917 0.0676289 48.0049C-0.245766 47.818 0.63174 46.8402 0.63174 46.8402C0.63174 46.8402 2.14857 47.4194 3.39589 47.8803C4.6432 48.3412 6.92472 48.9516 6.92472 48.9516C6.92472 48.9516 7.28199 49.1509 7.13783 49.4748C6.99366 49.7986 6.4797 49.6554 6.4797 49.6554Z" fill="#300D33"/>
<path fill-rule="evenodd" clip-rule="evenodd" d="M112.821 31.6499C111.122 32.0423 109.687 33.0637 107.919 33.1509C106.039 33.2443 104.159 32.4658 102.322 32.1108C98.3296 31.3385 94.2429 30.9088 90.2064 30.4666C82.0581 29.5697 73.8033 29.1835 65.6236 28.2493C57.444 27.3151 49.3271 26.25 41.1412 26.2874C37.1976 26.2973 33.2619 26.639 29.3763 27.3088C26.1734 27.8632 22.9141 28.5109 20.2315 30.423C18.1667 31.9321 16.6108 34.0276 15.7687 36.4332C14.6781 39.3604 20.4383 57.2853 21.3095 58.4624C28.8812 68.4275 41.5925 70.6074 62.5085 70.1901C84.8598 69.7417 93.497 67.2691 99.8276 61.7135C103.231 58.7302 106.096 51.057 106.609 49.556C107.481 46.909 108.446 44.2994 109.349 41.6649C109.919 39.9957 110.514 38.3452 111.229 36.7321C111.985 35.2167 112.614 33.6418 113.109 32.0236C113.124 31.9795 113.127 31.9327 113.119 31.8871C113.111 31.8415 113.092 31.7985 113.064 31.7618C113.035 31.725 112.998 31.6957 112.956 31.6762C112.914 31.6567 112.867 31.6477 112.821 31.6499Z" fill="#DA840D"/>
<path fill-rule="evenodd" clip-rule="evenodd" d="M109.436 32.8767C106.584 34.8697 102.479 34.9507 99.138 35.6046C90.8894 37.224 82.6659 38.3388 74.2481 38.1395C66.0121 37.9527 57.7698 36.9873 49.5651 36.3146C41.1787 35.6295 32.7734 35.1375 24.3619 35.5174C22.5037 35.5849 20.6603 35.8735 18.8712 36.3769C17.9561 36.6385 16.5897 36.9997 16.1321 37.934C16.0193 38.1764 15.9574 38.4392 15.9504 38.7063V38.7499C15.5367 40.1325 16.0193 41.291 16.4957 42.5179C16.6085 43.0349 16.7338 43.5518 16.8529 44.0688C16.6398 44.0688 16.6085 44.3926 16.8529 44.3989H16.9219C16.9478 44.428 16.9796 44.4514 17.0153 44.4674C17.0509 44.4834 17.0896 44.4916 17.1287 44.4916C17.1679 44.4916 17.2065 44.4834 17.2422 44.4674C17.2779 44.4514 17.3097 44.428 17.3356 44.3989C18.8148 44.3989 20.2815 44.1248 21.767 44.0875C23.9983 44.0252 25.8913 45.1587 27.8406 46.0929C31.3381 47.7496 34.6412 49.6866 38.1826 51.1565C39.7626 51.8134 41.3881 52.3566 43.0465 52.782C44.7 53.1354 46.3751 53.3809 48.0608 53.517C49.8535 53.7474 51.6273 54.1398 53.4136 54.3827C55.4143 54.6182 57.4316 54.6828 59.4433 54.5758C67.433 54.4358 75.3983 53.6547 83.2614 52.2402C90.4068 50.9074 97.5522 48.9019 103.776 45.0715C106.237 43.5848 108.322 41.5562 109.869 39.1423C110.583 38.0274 111.191 36.8254 111.856 35.6794C112.344 34.8261 112.934 33.8109 112.846 32.8206C112.702 30.6656 110.314 32.2725 109.436 32.8767Z" fill="#C66720"/>
<path opacity="0.4" fill-rule="evenodd" clip-rule="evenodd" d="M61.3741 66.0043C30.348 70.3641 21.0589 57.9512 21.341 58.3187C28.9126 68.2838 41.6302 70.4637 62.54 70.0464C84.8913 69.6042 93.9735 66.9822 100.31 61.4266C103.52 58.6052 107.073 48.1979 107.782 46.1737C92.2561 58.8668 87.8247 62.2674 61.3741 66.0043Z" fill="#C66720"/>
<path fill-rule="evenodd" clip-rule="evenodd" d="M117.973 21.4977C117.616 19.3116 114.212 19.0064 112.533 18.3836C111.047 17.8355 110.025 16.5151 108.816 15.5248C107.51 14.4525 106.058 13.5697 104.503 12.9028C100.962 11.3831 97.4143 10.1686 94.1864 8.01984C91.2154 6.03304 87.5674 5.77769 84.1577 5.22337C82.0499 4.89638 79.9867 4.33006 78.0089 3.53553C76.2519 2.71505 74.396 2.12265 72.4869 1.77294C70.5187 1.51136 68.4942 1.95979 66.5261 2.04076C64.3448 2.12795 62.3391 1.41793 60.2895 0.795112C58.6164 0.192989 56.8393 -0.0716771 55.0621 0.0165852C53.4073 0.153606 51.9281 1.02556 50.5366 1.88505C50.5017 1.90432 50.4725 1.93222 50.4516 1.96605C50.4307 1.99987 50.419 2.03848 50.4176 2.07812C48.8443 2.89402 47.3337 3.80334 45.7542 4.62547C44.4362 5.34782 43.0226 5.88245 41.5547 6.21366C39.7558 6.58735 38.0635 6.2884 36.2772 6.05796C33.1432 5.65312 30.1785 5.57838 27.2075 6.71815C23.6724 8.0759 20.8581 10.8412 17.3544 12.3235C14.3395 13.5692 11.7132 15.0453 9.83286 17.8044C9.0502 18.9624 8.51673 20.2685 8.26589 21.641C8.03397 23.117 8.39124 24.4561 8.70464 25.9011C9.11832 27.7695 8.74852 29.2643 8.20948 31.0642C7.75014 32.2511 7.78396 33.5706 8.30349 34.7327C8.79239 35.6794 9.83286 36.2897 10.7417 36.7755C11.6506 37.2613 13.9697 37.7845 14.164 38.918C14.9914 43.7262 20.4319 41.4716 23.6348 42.655C25.208 43.2466 26.6622 44.1435 28.2605 44.7227C30.097 45.3891 32.0213 45.8874 33.9016 46.3919C37.6624 47.4009 41.2852 48.7462 44.9394 50.1288C46.5503 50.7516 48.0734 51.5239 49.797 51.8353C51.5207 52.1468 53.3008 51.8665 55.0057 51.717C58.547 51.3994 69.7478 52.3398 71.2333 51.5862C73.1575 50.6458 74.9439 50.733 77.0248 50.9073C78.6482 51.0444 80.0522 49.8485 81.6819 49.7178C83.5552 49.5344 85.4026 49.148 87.1914 48.5655C88.7867 47.953 90.4122 47.4209 92.0615 46.9711C93.9419 46.5538 95.5841 45.2023 97.4833 44.9469C101.175 44.4425 103.883 42.3871 106.741 40.0017C109.336 37.8405 115.472 30.3916 116.005 28.9155C116.538 27.4394 116.933 25.8014 117.365 24.2755C117.603 23.4222 118.123 22.407 117.973 21.4977Z" fill="#F0A508"/>
<g opacity="0.5">
<path opacity="0.5" fill-rule="evenodd" clip-rule="evenodd" d="M60.064 10.517C59.5438 11.1958 58.917 11.3827 58.9734 15.6054C59.0298 19.8281 59.4372 21.4226 57.8013 24.6239C56.1654 27.8252 52.9938 30.9331 51.8718 34.3399C50.7499 37.7467 49.3333 43.3397 50.7687 45.5133C52.204 47.6869 57.4315 48.7582 64.5581 48.9513C71.6847 49.1444 79.5008 47.9859 83.8946 46.6282C88.2884 45.2704 90.8269 44.7099 91.8235 43.514C92.8201 42.3182 87.8496 32.104 84.3709 28.1179C80.8922 24.1318 79.225 22.8115 75.3013 19.5105C71.3776 16.2095 69.6602 14.8954 67.7234 12.2297C65.7866 9.56404 65.2852 9.42079 63.2481 9.45193C62.0976 9.44866 60.9783 9.82306 60.064 10.517Z" fill="#E2CAB3"/>
<path opacity="0.5" fill-rule="evenodd" clip-rule="evenodd" d="M20.4759 37.3544C23.24 31.0203 26.8879 28.1366 27.9096 26.7042C30.7239 22.7617 32.3912 21.0365 36.1206 20.4759C39.85 19.9154 37.8066 19.9341 42.0437 19.3424C46.2808 18.7507 49.8347 17.8352 52.6992 15.6055C55.5636 13.3758 57.0428 11.6381 58.5659 11.0962C60.089 10.5544 62.4395 9.34612 60.7722 11.0527C59.105 12.7592 61.3301 13.4069 58.1961 18.0345C55.0622 22.662 53.5704 25.0537 52.4547 28.6224C51.339 32.1912 50.1857 43.3273 47.6347 44.2054C45.0837 45.0836 38.9975 45.2393 33.3439 43.1529C28.9569 41.4417 24.6618 39.5063 20.4759 37.3544Z" fill="#E2CAB3"/>
<path opacity="0.5" fill-rule="evenodd" clip-rule="evenodd" d="M96.8816 40.2007C96.8816 40.2007 102.122 38.5751 105.13 35.978C108.139 33.3808 111.147 30.958 112.1 27.3892C113.053 23.8205 114.131 22.9298 112.965 21.871C111.799 20.8123 105.563 15.1882 100.429 12.4166C95.2958 9.64506 88.7709 7.89493 82.9668 6.68043C77.1628 5.46593 74.0852 6.17594 71.0578 6.05761C68.0304 5.93927 63.2355 9.40839 63.3044 9.44576C64.9806 11.0475 66.8452 12.4423 68.8578 13.6C71.5781 15.02 77.9212 17.4241 81.0175 19.2054C84.1139 20.9866 86.5709 24.9229 87.2854 26.7664C88 28.61 89.0028 29.183 90.0245 32.7144C91.0462 36.2458 93.8793 41.9321 93.8793 41.9321L96.8816 40.2007Z" fill="#E2CAB3"/>
<path opacity="0.5" fill-rule="evenodd" clip-rule="evenodd" d="M11.9391 18.7444C11.9391 18.7444 9.51966 25.2031 10.7732 28.311C11.6426 30.3495 12.8269 32.2408 14.2833 33.9164C14.2833 33.9164 17.4172 36.8935 19.5546 33.8105C21.6919 30.7275 26.3239 23.5277 30.0032 20.7499C33.6824 17.9721 38.2643 17.3742 41.6615 16.9694C45.0587 16.5646 53.0377 15.2006 55.244 13.4131C57.4503 11.6256 63.3046 9.44572 63.3046 9.44572C60.7719 8.29032 58.1336 7.37891 55.4258 6.72399C51.3266 5.78976 44.7704 8.28727 39.4489 7.04163C34.1275 5.79599 28.9376 8.60491 23.0458 11.5945C19.1333 13.6387 15.4158 16.0319 11.9391 18.7444Z" fill="#E2CAB3"/>
<path opacity="0.5" fill-rule="evenodd" clip-rule="evenodd" d="M47.0394 5.52222C47.0394 5.52222 52.5489 0.359024 56.2909 0.452447C61.0231 0.577011 62.5588 1.6109 64.8215 2.32091C67.3976 3.11812 68.4255 3.43576 67.7611 4.46342C67.0967 5.49107 63.9628 10.0688 63.9628 10.0688C63.9628 10.0688 56.4413 6.40039 53.6834 5.97688C51.4836 5.65797 49.2625 5.50598 47.0394 5.52222Z" fill="#E2CAB3"/>
</g>
<path opacity="0.4" fill-rule="evenodd" clip-rule="evenodd" d="M101.225 11.2398C99.7399 10.617 98.2481 10.1 96.7877 9.40869C95.0774 8.53607 93.3197 7.75842 91.5226 7.07933C89.9013 6.58503 88.2374 6.24101 86.5522 6.05168C82.7413 5.42886 79.2438 3.86557 75.5896 2.74449C73.4945 2.10399 71.3051 1.82178 69.1149 1.90991C67.2094 2.03448 65.2978 2.03448 63.3923 1.90991C61.5119 1.71061 59.8572 0.844888 58.027 0.365315C55.8019 -0.220138 53.9528 0.365315 51.9784 1.41788C49.0639 2.91888 46.1556 4.74998 42.9965 5.70913C41.3094 6.25591 39.5436 6.5252 37.7691 6.50634C35.8887 6.44406 34.0961 6.07036 32.2471 5.9458C30.2101 5.72969 28.1536 6.10162 26.3239 7.01705C24.9352 7.74839 23.6266 8.62085 22.419 9.62045C22.4127 9.73039 22.4127 9.8406 22.419 9.95054C22.0545 11.0087 21.9241 12.1325 22.0367 13.2453C22.0918 14.3808 22.3911 15.4914 22.9144 16.5023C23.4377 17.5132 24.1728 18.4011 25.0703 19.106C26.374 20.2022 27.7405 21.043 28.8311 22.3572C29.9217 23.6713 30.7114 25.0415 31.965 26.0941C34.0084 27.8255 36.7224 27.9625 39.2922 27.9625C40.6461 27.9625 41.9937 27.894 43.3413 27.9625C45.1909 28.1561 47.0097 28.5744 48.7567 29.2082C52.367 30.3293 55.9084 31.8801 59.6378 32.6088C63.3672 33.3375 67.0653 32.4593 70.6881 31.4939C74.311 30.5286 77.8837 29.8808 81.4313 28.9466C84.6388 28.1631 87.683 26.8266 90.4258 24.9979C93.3528 22.885 96 20.4137 98.3045 17.6424C99.1883 16.621 100.028 15.5622 100.899 14.5283C101.674 13.7492 102.192 12.7543 102.385 11.6758C101.991 11.5499 101.604 11.4044 101.225 11.2398Z" fill="#E2CAB3"/>
<path fill-rule="evenodd" clip-rule="evenodd" d="M51.2135 15.5188C50.9252 15.5811 50.6369 15.6309 50.3674 15.6683H50.2796C48.3115 16.0482 46.3622 16.5216 44.3376 16.3659C42.9712 16.2662 37.631 16.4095 38.8846 18.8572C38.8994 18.8995 38.8994 18.9456 38.8846 18.988C39.9877 19.6855 42.4385 19.399 43.2721 19.3367C43.9789 19.2887 44.6809 19.1867 45.3719 19.0315C47.3377 18.2568 49.2074 17.26 50.944 16.0607C51.0563 15.892 51.1468 15.7099 51.2135 15.5188Z" fill="#C66720"/>
<path fill-rule="evenodd" clip-rule="evenodd" d="M58.9859 20.5386C59.1155 19.2346 59.0691 17.9191 58.848 16.6273C58.0107 18.6038 56.9374 20.4732 55.6514 22.1953C54.8992 23.1358 53.9026 23.9517 53.2947 24.998C52.9687 25.5586 52.5174 26.3931 52.7556 27.0782C53.1317 28.1557 53.7961 28.1495 54.5044 28.0062C55.7203 27.2589 56.836 25.515 57.4377 24.6181C57.9944 23.7873 58.4469 22.8921 58.7853 21.9524C58.8543 21.4853 58.917 21.0182 58.9859 20.5386Z" fill="#C66720"/>
<path fill-rule="evenodd" clip-rule="evenodd" d="M79.0244 16.8017C77.5547 16.2069 76.0546 15.6893 74.5303 15.2509C73.5997 15.0104 72.69 14.6959 71.8101 14.3104C71.1346 13.9074 70.3713 13.6724 69.585 13.6253C69.5374 13.6222 69.4899 13.6313 69.447 13.6519C69.4041 13.6725 69.3673 13.7037 69.3402 13.7426C69.3131 13.7814 69.2965 13.8266 69.2922 13.8738C69.2878 13.9209 69.2959 13.9683 69.3154 14.0114C69.3777 14.2096 69.5004 14.3837 69.6664 14.5097C70.6012 15.8086 71.6364 17.033 72.7628 18.1719C73.7719 19.3054 74.6432 20.5262 75.7714 21.5787C77.3007 23.0424 80.0649 23.933 81.6319 21.9151C83.3618 19.6667 81.0051 17.63 79.0244 16.8017Z" fill="#C66720"/>
<path fill-rule="evenodd" clip-rule="evenodd" d="M72.7063 5.76544C72.1735 4.62568 70.4436 4.65682 69.2965 4.92463C69.2034 4.93671 69.1112 4.95544 69.0208 4.98069C67.4334 5.79213 66.2018 7.1555 65.5609 8.81104C67.4412 8.25673 68.8265 6.94257 70.8134 6.71213C71.133 6.67476 73.0698 6.53151 72.7063 5.76544Z" fill="#C66720"/>
<path fill-rule="evenodd" clip-rule="evenodd" d="M46.1803 7.83278C46.4321 7.91253 46.6935 7.95861 46.9575 7.9698C47.5783 7.86422 48.2085 7.82248 48.8379 7.84523C49.0822 7.83301 49.3269 7.83301 49.5712 7.84523C50.392 7.87793 51.2102 7.95695 52.022 8.08191L52.3417 8.1691C52.788 8.21606 53.2358 8.0937 53.5952 7.82655C51.7587 7.02311 46.7005 5.11727 46.0111 7.57742C46.0015 7.63336 46.0137 7.69082 46.0451 7.73821C46.0765 7.7856 46.1248 7.81939 46.1803 7.83278Z" fill="#C66720"/>
<path fill-rule="evenodd" clip-rule="evenodd" d="M11.8011 34.7888C11.6544 35.1128 11.5491 35.4539 11.4877 35.804C11.3939 36.0645 11.339 36.3373 11.3248 36.6137C11.3277 36.6311 11.3348 36.6475 11.3453 36.6617C11.3559 36.6759 11.3697 36.6874 11.3856 36.6953C11.4015 36.7032 11.419 36.7072 11.4367 36.7071C11.4545 36.707 11.472 36.7027 11.4877 36.6946C11.6758 36.5888 11.6821 36.2711 11.7134 36.0718C11.7702 35.6486 11.8668 35.2315 12.0017 34.8262C12.0519 34.7327 11.8576 34.6705 11.8011 34.7888Z" fill="#C66720"/>
<path fill-rule="evenodd" clip-rule="evenodd" d="M12.9793 35.7537C12.8192 36.0622 12.7032 36.3913 12.6345 36.7316C12.5844 36.9122 12.4402 37.1987 12.4967 37.3544C12.5002 37.3746 12.5099 37.3932 12.5245 37.4077C12.5391 37.4222 12.5578 37.4318 12.5781 37.4354C12.8163 37.4354 12.8414 37.124 12.879 36.9558C12.9667 36.5883 13.042 36.2084 13.1673 35.8472C13.2112 35.7413 13.042 35.6416 12.9793 35.7537Z" fill="#C66720"/>
<path fill-rule="evenodd" clip-rule="evenodd" d="M18.6458 40.0016C18.5894 40.6244 18.3888 41.2472 18.3951 41.9074C18.3951 42.0943 18.6897 42.1254 18.696 41.9074C18.7907 41.2654 18.8514 40.6188 18.8777 39.9704C18.8715 39.8459 18.6584 39.877 18.6458 40.0016Z" fill="#C66720"/>
<path fill-rule="evenodd" clip-rule="evenodd" d="M20.2002 40.3256C19.9953 40.8166 19.897 41.3451 19.9119 41.8764C19.9119 42.0757 20.2315 42.1131 20.2378 41.8764C20.2563 41.3623 20.3129 40.8502 20.407 40.3443C20.4321 40.2446 20.2441 40.2135 20.2002 40.3256Z" fill="#C66720"/>
<path fill-rule="evenodd" clip-rule="evenodd" d="M45.5289 48.8272C45.4344 49.0618 45.3671 49.3063 45.3283 49.5559C45.2693 49.7794 45.2439 50.0102 45.2531 50.241C45.2613 50.266 45.2773 50.2877 45.2987 50.303C45.3201 50.3184 45.3458 50.3267 45.3722 50.3267C45.3986 50.3267 45.4243 50.3184 45.4457 50.303C45.4671 50.2877 45.483 50.266 45.4913 50.241C45.5443 50.0376 45.5717 49.8284 45.5728 49.6182C45.6104 49.3566 45.6229 49.0951 45.673 48.8335C45.6856 48.7774 45.5602 48.7587 45.5289 48.8272Z" fill="#C66720"/>
<path fill-rule="evenodd" clip-rule="evenodd" d="M47.3088 49.0451C47.2109 49.3598 47.1437 49.6831 47.1083 50.0105C47.038 50.285 47.0167 50.5696 47.0456 50.8513C47.0554 50.8756 47.0722 50.8964 47.094 50.9111C47.1158 50.9257 47.1415 50.9336 47.1678 50.9336C47.1941 50.9336 47.2198 50.9257 47.2416 50.9111C47.2634 50.8964 47.2803 50.8756 47.29 50.8513C47.357 50.6059 47.3866 50.3519 47.3778 50.0977C47.3778 49.7489 47.4342 49.4002 47.4655 49.0576C47.4622 49.0402 47.4532 49.0243 47.4399 49.0124C47.4266 49.0006 47.4098 48.9934 47.392 48.9919C47.3742 48.9905 47.3564 48.995 47.3414 49.0046C47.3263 49.0142 47.3149 49.0284 47.3088 49.0451Z" fill="#C66720"/>
<path fill-rule="evenodd" clip-rule="evenodd" d="M54.3854 50.1099C54.3854 50.0102 54.2663 49.923 54.2162 50.0165C54.0548 50.3244 53.9689 50.6658 53.9655 51.013C53.9655 51.1874 53.9216 51.6358 54.141 51.6794C54.155 51.6843 54.1698 51.6865 54.1846 51.6857C54.1995 51.6849 54.214 51.6812 54.2274 51.6749C54.2408 51.6685 54.2528 51.6596 54.2627 51.6486C54.2726 51.6376 54.2802 51.6248 54.2852 51.6109C54.2953 51.4167 54.2806 51.2221 54.2413 51.0317C54.2387 50.7187 54.2874 50.4073 54.3854 50.1099Z" fill="#C66720"/>
<path fill-rule="evenodd" clip-rule="evenodd" d="M56.1466 50.0476C56.1423 50.0337 56.1335 50.0215 56.1217 50.0129C56.1098 50.0042 56.0955 49.9996 56.0808 49.9996C56.0661 49.9996 56.0518 50.0042 56.04 50.0129C56.0281 50.0215 56.0194 50.0337 56.015 50.0476C55.8764 50.58 55.8215 51.1304 55.8521 51.6794C55.8521 51.8476 56.1216 51.8663 56.1153 51.6794C56.0858 51.1355 56.0963 50.5901 56.1466 50.0476Z" fill="#C66720"/>
<path fill-rule="evenodd" clip-rule="evenodd" d="M58.077 50.2412C58.077 50.2197 58.0685 50.1991 58.0532 50.1839C58.0379 50.1687 58.0172 50.1602 57.9956 50.1602C57.9739 50.1602 57.9532 50.1687 57.9379 50.1839C57.9227 50.1991 57.9141 50.2197 57.9141 50.2412C57.889 50.4903 57.8702 50.7394 57.8577 50.9886C57.8577 51.1692 57.7323 51.4059 57.8577 51.5616C57.8675 51.5691 57.8797 51.5732 57.8921 51.5732C57.9046 51.5732 57.9167 51.5691 57.9266 51.5616C58.1397 51.5616 58.1272 51.219 58.1397 51.0571C58.1511 50.7836 58.1301 50.5098 58.077 50.2412Z" fill="#C66720"/>
<path fill-rule="evenodd" clip-rule="evenodd" d="M92.4127 46.3481C92.4127 46.3855 92.4127 46.2859 92.4127 46.2734C92.3748 46.1844 92.3434 46.0928 92.3187 45.9994C92.256 45.7565 92.2435 45.4949 92.1683 45.252C92.1683 45.1835 92.0304 45.1461 92.0116 45.252C91.9928 45.3578 92.0116 46.7281 92.4002 46.4976C92.4139 46.491 92.4256 46.481 92.4342 46.4685C92.4428 46.456 92.448 46.4415 92.4493 46.4264C92.4505 46.4113 92.4478 46.3962 92.4414 46.3825C92.435 46.3687 92.4251 46.3569 92.4127 46.3481Z" fill="#C66720"/>
<path fill-rule="evenodd" clip-rule="evenodd" d="M94.6442 45.7879C94.5199 45.4064 94.3691 45.0339 94.1929 44.6731C94.1846 44.6475 94.1664 44.6262 94.1423 44.614C94.1182 44.6017 94.0902 44.5994 94.0644 44.6077C94.0387 44.616 94.0172 44.6341 94.0049 44.658C93.9926 44.6819 93.9903 44.7098 93.9986 44.7354C94.0921 45.1377 94.2136 45.5331 94.3622 45.9187C94.4311 46.1056 94.7194 45.9748 94.6442 45.7879Z" fill="#C66720"/>
<path fill-rule="evenodd" clip-rule="evenodd" d="M96.7876 44.6852C96.5697 44.3735 96.4222 44.0187 96.3551 43.6451C96.3494 43.6221 96.3361 43.6017 96.3173 43.5871C96.2986 43.5726 96.2755 43.5647 96.2517 43.5647C96.2279 43.5647 96.2048 43.5726 96.186 43.5871C96.1673 43.6017 96.154 43.6221 96.1483 43.6451C96.1195 44.0916 96.2529 44.5336 96.5243 44.8907C96.6434 45.09 96.913 44.8658 96.7876 44.6852Z" fill="#C66720"/>
<path fill-rule="evenodd" clip-rule="evenodd" d="M99.4578 44.3802C99.2471 44.2044 99.0746 43.9878 98.9507 43.7437C98.8268 43.4996 98.7541 43.2331 98.737 42.9602C98.7384 42.9452 98.7352 42.9302 98.7278 42.917C98.7205 42.9039 98.7093 42.8932 98.6957 42.8865C98.6822 42.8798 98.6669 42.8772 98.6519 42.8793C98.6369 42.8813 98.6229 42.8878 98.6116 42.8979C98.0601 43.2841 98.8874 44.2806 99.1945 44.5733C99.3512 44.7477 99.6145 44.5359 99.4578 44.3802Z" fill="#C66720"/>
<path fill-rule="evenodd" clip-rule="evenodd" d="M102.479 42.96C102.148 42.4021 101.781 41.8654 101.382 41.3531C101.338 41.2784 101.194 41.3033 101.226 41.403C101.42 42.0258 101.971 42.468 102.241 43.0721C102.31 43.2403 102.548 43.1282 102.479 42.96Z" fill="#C66720"/>
<path fill-rule="evenodd" clip-rule="evenodd" d="M104.973 41.0355C104.917 40.9172 104.767 40.8487 104.666 40.7739L104.171 40.4127C104.046 40.3193 103.914 40.2321 103.782 40.1449C103.651 40.0577 103.645 40.1075 103.588 40.0764C103.532 40.0452 103.538 40.0764 103.557 40.0764C103.576 40.0764 103.588 40.176 103.632 40.2196C103.743 40.3339 103.86 40.4421 103.983 40.5435C104.14 40.6805 104.303 40.8051 104.466 40.9296C104.629 41.0542 104.716 41.1601 104.861 41.1601C104.876 41.1602 104.892 41.1569 104.907 41.1505C104.921 41.1441 104.934 41.1347 104.945 41.123C104.956 41.1112 104.964 41.0973 104.969 41.0822C104.974 41.0672 104.975 41.0512 104.973 41.0355Z" fill="#C66720"/>
<path fill-rule="evenodd" clip-rule="evenodd" d="M107.098 39.4785C107.087 39.4423 107.065 39.4099 107.037 39.3847C107.008 39.3594 106.973 39.3424 106.935 39.3353C106.819 39.2814 106.711 39.21 106.616 39.1235C106.395 38.9311 106.205 38.7064 106.052 38.4571C105.983 38.3512 105.82 38.4571 105.87 38.5754C106.004 38.8733 106.198 39.1404 106.44 39.3602C106.591 39.4972 106.873 39.7276 107.067 39.5968C107.084 39.5828 107.096 39.5638 107.102 39.5426C107.107 39.5214 107.106 39.499 107.098 39.4785Z" fill="#C66720"/>
<path fill-rule="evenodd" clip-rule="evenodd" d="M114.175 31.4692C114.146 31.4355 114.111 31.4082 114.071 31.3889C114.031 31.3696 113.988 31.3587 113.943 31.3571C113.804 31.3331 113.672 31.28 113.555 31.2014C113.305 31.0301 113.118 30.7832 113.022 30.4976C113.022 30.4042 112.859 30.4602 112.865 30.5474C112.904 30.8835 113.073 31.1916 113.335 31.4069C113.517 31.5564 113.962 31.7993 114.169 31.5813C114.183 31.5663 114.191 31.5469 114.193 31.5264C114.194 31.5059 114.188 31.4856 114.175 31.4692Z" fill="#C66720"/>
<path fill-rule="evenodd" clip-rule="evenodd" d="M115.56 29.881C115.03 29.6088 114.584 29.2001 114.269 28.6977C114.212 28.6042 114.049 28.6977 114.106 28.7786C114.394 29.3536 114.866 29.8178 115.447 30.099C115.572 30.1488 115.685 29.9371 115.56 29.881Z" fill="#C66720"/>
<path fill-rule="evenodd" clip-rule="evenodd" d="M116.419 27.6823C116.178 27.5267 115.948 27.3561 115.729 27.1716C115.516 26.9785 115.315 26.7854 115.102 26.6111C115.021 26.5488 114.914 26.6671 114.983 26.7481C115.31 27.2522 115.764 27.6624 116.299 27.9377C116.332 27.9458 116.366 27.9424 116.397 27.928C116.427 27.9136 116.451 27.8892 116.465 27.8589C116.479 27.8287 116.482 27.7945 116.474 27.7623C116.465 27.73 116.446 27.7017 116.419 27.6823Z" fill="#C66720"/>
<path fill-rule="evenodd" clip-rule="evenodd" d="M10.2468 33.1446C9.70416 33.8836 9.33765 34.7355 9.17502 35.6359C9.17502 35.7106 9.28157 35.7169 9.30037 35.6359C9.51553 34.7807 9.89898 33.9763 10.4286 33.2692C10.5038 33.1508 10.322 33.0263 10.2468 33.1446Z" fill="#C66720"/>
<path fill-rule="evenodd" clip-rule="evenodd" d="M9.26897 32.528C9.13108 32.5902 9.07466 32.7086 8.98065 32.8331C8.88663 32.9577 8.72366 33.1944 8.61084 33.3875C8.45095 33.6089 8.36541 33.8748 8.36639 34.1473C8.36639 34.2407 8.51055 34.222 8.51682 34.1473C8.58968 33.8654 8.72216 33.6021 8.90543 33.375C9.05586 33.1446 9.35045 32.883 9.38179 32.6089C9.38289 32.5951 9.38038 32.5812 9.3745 32.5686C9.36863 32.556 9.3596 32.5451 9.34827 32.537C9.33694 32.5288 9.32369 32.5237 9.3098 32.5222C9.29592 32.5206 9.28185 32.5226 9.26897 32.528Z" fill="#C66720"/>
<path fill-rule="evenodd" clip-rule="evenodd" d="M11.0806 34.5519C10.9043 34.8335 10.7613 35.1345 10.6544 35.4487C10.5149 35.742 10.4138 36.0517 10.3535 36.3705C10.3535 36.4515 10.4726 36.4764 10.4914 36.3705C10.5718 36.0635 10.6875 35.7668 10.8362 35.4861C11.0192 35.203 11.1468 34.8882 11.2122 34.5581C11.2131 34.5407 11.2069 34.5238 11.1952 34.5109C11.1834 34.4981 11.167 34.4904 11.1496 34.4896C11.1321 34.4888 11.115 34.4949 11.1021 34.5065C11.0892 34.5182 11.0814 34.5345 11.0806 34.5519Z" fill="#C66720"/>
<path fill-rule="evenodd" clip-rule="evenodd" d="M14.4775 36.7318C14.0074 36.8751 13.788 37.4916 13.6626 37.9214C13.6579 37.9435 13.6614 37.9666 13.6725 37.9863C13.6836 38.0061 13.7016 38.0212 13.723 38.0288C13.7444 38.0364 13.7679 38.036 13.7891 38.0277C13.8103 38.0194 13.8277 38.0038 13.8381 37.9837C13.9133 37.766 14.012 37.5572 14.1327 37.3609C14.2518 37.174 14.4211 37.0183 14.5464 36.8315C14.5715 36.7941 14.5339 36.7318 14.4775 36.7318Z" fill="#C66720"/>
<path fill-rule="evenodd" clip-rule="evenodd" d="M15.518 38.6006C15.2735 38.6878 15.1419 38.993 15.0291 39.2234C14.901 39.4913 14.8428 39.7868 14.8598 40.0829C14.8598 40.1825 15.0103 40.2012 15.0165 40.0829C15.0375 39.8352 15.1011 39.593 15.2046 39.3666C15.3048 39.1237 15.5493 38.9369 15.6182 38.694C15.623 38.6803 15.6237 38.6656 15.6202 38.6516C15.6168 38.6375 15.6093 38.6248 15.5986 38.6149C15.588 38.605 15.5748 38.5984 15.5604 38.5959C15.5461 38.5933 15.5314 38.595 15.518 38.6006Z" fill="#C66720"/>
<path fill-rule="evenodd" clip-rule="evenodd" d="M16.527 39.2542C16.3261 39.5726 16.174 39.919 16.0758 40.2819C15.9416 40.6201 15.8408 40.9706 15.7749 41.3282C15.7699 41.3497 15.7737 41.3723 15.7855 41.391C15.7972 41.4096 15.816 41.4229 15.8376 41.4279C15.8592 41.4328 15.8819 41.4291 15.9007 41.4174C15.9195 41.4057 15.9329 41.3871 15.9379 41.3656C16.0312 41.0188 16.1506 40.6794 16.2951 40.3504C16.4721 40.0199 16.5988 39.6652 16.6712 39.2978C16.6741 39.2884 16.6751 39.2785 16.6741 39.2688C16.6732 39.259 16.6703 39.2495 16.6656 39.2408C16.661 39.2321 16.6546 39.2244 16.647 39.2182C16.6393 39.212 16.6305 39.2073 16.6211 39.2044C16.6116 39.2015 16.6017 39.2006 16.5918 39.2015C16.582 39.2025 16.5724 39.2053 16.5637 39.21C16.5549 39.2146 16.5472 39.2209 16.5409 39.2285C16.5346 39.2361 16.5299 39.2448 16.527 39.2542Z" fill="#C66720"/>
<path fill-rule="evenodd" clip-rule="evenodd" d="M17.4485 40.2571C17.23 40.7435 17.1395 41.2772 17.1853 41.8079C17.1853 41.9138 17.3483 41.9262 17.3483 41.8079C17.3483 41.291 17.5802 40.7803 17.5488 40.2695C17.5454 40.2597 17.5392 40.251 17.531 40.2444C17.5229 40.2379 17.513 40.2337 17.5026 40.2324C17.4922 40.2311 17.4816 40.2327 17.472 40.2371C17.4625 40.2415 17.4543 40.2484 17.4485 40.2571Z" fill="#C66720"/>
<path fill-rule="evenodd" clip-rule="evenodd" d="M49.1329 49.5248C48.9112 50.1019 48.8275 50.7224 48.8885 51.3372C48.8885 51.4181 49.0326 51.4119 49.0389 51.3372C49.0389 51.0382 49.0828 50.7144 49.1204 50.4465C49.1928 50.1509 49.2285 49.8477 49.2269 49.5435C49.2269 49.4812 49.1517 49.4874 49.1329 49.5248Z" fill="#C66720"/>
<path fill-rule="evenodd" clip-rule="evenodd" d="M50.7687 50.7203C50.7687 50.4338 50.9066 50.1784 50.9316 49.8919C50.9281 49.8824 50.9217 49.8741 50.9133 49.8683C50.9049 49.8625 50.8949 49.8594 50.8846 49.8594C50.8744 49.8594 50.8644 49.8625 50.856 49.8683C50.8476 49.8741 50.8412 49.8824 50.8376 49.8919C50.6555 50.1834 50.5493 50.5154 50.5285 50.8579C50.5077 51.2004 50.573 51.5426 50.7185 51.8538C50.7624 51.9472 50.8878 51.8538 50.8564 51.7915C50.7444 51.4459 50.7144 51.0793 50.7687 50.7203Z" fill="#C66720"/>
<path fill-rule="evenodd" clip-rule="evenodd" d="M52.2732 50.9323C52.2926 50.6478 52.2672 50.362 52.198 50.0852C52.191 50.0722 52.1807 50.0613 52.168 50.0537C52.1553 50.0461 52.1407 50.042 52.1259 50.042C52.111 50.042 52.0965 50.0461 52.0838 50.0537C52.0711 50.0613 52.0607 50.0722 52.0538 50.0852C52.0005 50.3672 52.0005 50.6566 52.0538 50.9385C52.0719 51.2637 52.1287 51.5857 52.223 51.8977C52.223 52.0035 52.4173 51.9786 52.3923 51.8977C52.3261 51.5796 52.2863 51.2568 52.2732 50.9323Z" fill="#C66720"/>
<path fill-rule="evenodd" clip-rule="evenodd" d="M108.678 36.7317C108.678 36.6632 108.584 36.6258 108.553 36.6819C108.501 36.7628 108.473 36.8568 108.473 36.9528C108.473 37.0488 108.501 37.1428 108.553 37.2237C108.653 37.4168 108.897 37.7033 109.136 37.6722C109.154 37.6677 109.171 37.6561 109.181 37.6399C109.192 37.6236 109.196 37.6039 109.192 37.585C109.129 37.2486 108.596 37.1116 108.678 36.7317Z" fill="#C66720"/>
<path fill-rule="evenodd" clip-rule="evenodd" d="M110.941 35.7291C110.878 35.6294 110.822 35.617 110.709 35.5796C110.555 35.5316 110.418 35.4409 110.314 35.318C110.114 35.0829 109.974 34.8029 109.907 34.5021C109.904 34.4899 109.899 34.4782 109.892 34.4678C109.885 34.4574 109.876 34.4485 109.866 34.4415C109.855 34.4346 109.843 34.4298 109.831 34.4273C109.819 34.4249 109.806 34.4249 109.794 34.4274C109.781 34.4298 109.77 34.4347 109.759 34.4416C109.749 34.4486 109.74 34.4576 109.733 34.468C109.726 34.4784 109.721 34.49 109.718 34.5023C109.716 34.5146 109.716 34.5272 109.718 34.5395C109.775 34.8832 109.915 35.2081 110.126 35.4862C110.283 35.6793 110.696 35.9969 110.947 35.8225C110.956 35.8082 110.96 35.7915 110.959 35.7748C110.958 35.7581 110.951 35.7421 110.941 35.7291Z" fill="#C66720"/>
<path fill-rule="evenodd" clip-rule="evenodd" d="M112.006 33.6178C111.812 33.4247 111.605 33.2316 111.423 33.0261C111.348 32.9389 111.191 33.0261 111.248 33.132C111.389 33.3826 111.562 33.6148 111.761 33.8233C111.931 33.9977 112.119 34.2779 112.388 34.2966C112.401 34.2977 112.415 34.2958 112.427 34.2911C112.439 34.2864 112.45 34.2789 112.459 34.2694C112.469 34.2598 112.475 34.2483 112.479 34.2358C112.483 34.2232 112.484 34.21 112.482 34.197C112.445 33.9541 112.194 33.7921 112.006 33.6178Z" fill="#C66720"/>
<path opacity="0.4" fill-rule="evenodd" clip-rule="evenodd" d="M66.2003 11.9373C66.2003 13.6501 63.5616 15.0514 60.296 15.0514C57.0304 15.0514 54.3916 13.6625 54.3916 11.9373C54.3916 10.2121 57.0304 8.82319 60.296 8.82319C63.5616 8.82319 66.2003 10.2245 66.2003 11.9373Z" fill="#DA840D"/>
<path fill-rule="evenodd" clip-rule="evenodd" d="M98.53 37.9774C85.217 34.6203 79.6448 41.9883 79.8642 50.658C79.9519 54.0462 83.0608 58.7173 85.1042 62.2487C86.9167 65.0702 89.0308 67.6888 91.4097 70.0589C92.914 71.1239 94.9197 72.3509 96.9317 72.3509C97.7031 72.2754 98.4405 71.9982 99.069 71.5474C99.3636 71.6047 99.6486 71.7032 99.9152 71.8402C100.868 72.164 101.288 70.8437 102.328 71.3108C103.989 72.0644 105.425 70.5322 106.666 69.6977C107.067 69.4298 111.053 63.2888 111.486 62.965C115.591 57.727 117.66 56.1824 117.704 49.8234C117.754 41.8762 113.736 34.7574 98.53 37.9774Z" fill="#C73A54"/>
<g style="mix-blend-mode:multiply">
<path fill-rule="evenodd" clip-rule="evenodd" d="M103.576 40.0577C103.576 40.9671 101.232 41.7643 98.292 41.839C95.3524 41.9138 92.9518 41.2162 92.9267 40.3256C92.9016 39.4349 95.2709 38.6003 98.2105 38.5443C101.15 38.4882 103.551 39.1484 103.576 40.0577Z" fill="#ED6366"/>
</g>
<path fill-rule="evenodd" clip-rule="evenodd" d="M90.1437 42.9976C88.9716 41.235 86.571 41.752 85.0855 42.7859L85.0103 42.8419C84.6654 43.0734 84.3534 43.3499 84.0827 43.664C83.0261 44.7781 82.3562 46.1989 82.171 47.7186C81.9892 49.5871 82.6223 51.6611 84.2456 52.4894C84.2915 52.5127 84.3288 52.5497 84.3522 52.5953C84.4144 52.5823 84.4753 52.5636 84.534 52.5392C85.4491 52.1656 85.4052 50.6708 85.4115 49.9109C85.4115 48.2231 86.8217 47.4757 88.1129 46.7532C89.2976 46.0744 91.1717 44.5484 90.1437 42.9976Z" fill="#ED6366"/>
<g style="mix-blend-mode:multiply">
<path fill-rule="evenodd" clip-rule="evenodd" d="M111.354 57.3848C110.251 55.971 108.596 57.6962 107.806 58.5682C105.97 60.5924 104.823 63.0899 102.654 64.8462C100.486 66.6026 96.5493 65.3258 94.8633 67.8794C94.7845 68.0024 94.7308 68.1397 94.7055 68.2833C94.6802 68.427 94.6836 68.5742 94.7157 68.7165C94.7477 68.8589 94.8077 68.9935 94.8921 69.1128C94.9766 69.232 95.084 69.3335 95.208 69.4115C95.3833 69.4797 95.5665 69.5258 95.7533 69.5485C96.1433 69.766 96.5669 69.9175 97.0069 69.997C98.3819 70.1755 99.7783 69.9137 100.993 69.2496C102.096 68.7264 103.344 69.3368 104.441 68.8198C104.846 68.6002 105.195 68.2913 105.462 67.9167C105.814 67.5116 106.109 67.0612 106.34 66.5777C106.891 65.6704 107.521 64.8119 108.22 64.0117C109.07 63.0526 109.84 62.0257 110.52 60.9412C111.335 59.7765 112.075 58.3191 111.354 57.3848Z" fill="#ED6366"/>
</g>
<path fill-rule="evenodd" clip-rule="evenodd" d="M111.003 26.144C110.264 25.8949 108.904 27.016 108.327 27.3585C107.011 28.1433 105.676 28.9343 104.41 29.7938C102.486 31.1341 100.892 32.8883 99.7462 34.9258C99.2682 35.7934 98.9479 36.738 98.7997 37.716C98.6051 38.2295 98.5074 38.7742 98.5114 39.3229C98.508 39.3614 98.5122 39.4002 98.5239 39.437C98.5357 39.4738 98.5546 39.508 98.5796 39.5375C98.6047 39.567 98.6354 39.5913 98.6699 39.609C98.7045 39.6267 98.7422 39.6374 98.7809 39.6406C101.99 39.6779 105.274 37.5915 107.518 35.4926C108.694 34.4626 109.625 33.1863 110.245 31.7556C110.554 30.9488 110.785 30.1146 110.934 29.2644C111.11 28.355 110.847 27.2526 111.141 26.4118C111.157 26.3581 111.152 26.3004 111.126 26.2505C111.101 26.2006 111.057 26.1625 111.003 26.144Z" fill="#8DB54F"/>
<path fill-rule="evenodd" clip-rule="evenodd" d="M97.9722 39.5283C97.9722 38.6377 98.2417 38.0833 98.4987 35.2806C98.7557 32.4779 98.7055 31.0766 98.8936 30.6157C99.0816 30.1548 100.586 31.1326 100.586 31.1326C100.586 31.1326 100.103 33.2814 99.746 35.044C99.3887 36.8066 99.0315 39.9767 99.0315 39.9767C99.0315 39.9767 98.8372 40.4937 98.3671 40.3629C97.897 40.2321 97.9722 39.5283 97.9722 39.5283Z" fill="#300D33"/>
</svg>
