<svg width="119" height="100" viewBox="0 0 119 100" fill="none" xmlns="http://www.w3.org/2000/svg">
<path d="M0.142333 79.5315C1.36929 74.3137 13.3511 74.4068 18.8496 77.668C15.3808 76.4412 9.76107 71.9532 14.3054 68.925C17.1986 66.9683 21.6217 68.3815 25.0602 72.2638C23.1919 70.5531 21.5791 68.57 20.2735 66.3782C18.1832 63.3344 17.7439 57.4799 22.7274 55.0729C26.9385 53.023 33.3308 54.6691 36.4663 59.654C38.3914 63.1447 39.4329 67.0741 39.4959 71.0836C39.4959 68.3504 39.5867 63.1326 45.2065 63.5519C51.0686 63.9867 49.6448 70.9904 49.7508 74.5311C49.7508 74.5311 49.5236 64.3749 55.931 60.5547C57.366 59.6392 58.9895 59.0797 60.6725 58.9206C62.3555 58.7615 64.0515 59.0073 65.6255 59.6385C67.3488 60.1802 68.7935 61.3982 69.6447 63.0272C70.4959 64.6561 70.6846 66.5639 70.1698 68.3349C68.9428 72.4967 64.4137 76.1151 64.4137 76.1151C66.8379 74.839 69.3736 73.7991 71.9875 73.0092C77.1528 71.9687 85.5295 71.6582 88.8468 76.1151C92.1641 80.572 87.332 86.8769 77.7739 87.1564C71.4573 87.3428 17.7439 87.5446 11.4122 87.5446C6.41345 87.5291 -1.13007 84.9823 0.142333 79.5315Z" fill="url(#paint0_linear_0_18)"/>
<path d="M117.87 72.093C116.718 66.5645 105.433 66.6422 100.253 70.1052C103.525 68.7852 108.766 64.0333 104.555 60.7876C101.843 58.7222 97.6778 60.2131 94.4362 64.3283C96.2311 62.4896 97.7613 60.398 98.9805 58.1166C100.935 54.902 101.328 48.799 96.6326 46.128C92.6791 43.9383 86.6655 45.6931 83.6965 50.9886C81.8881 54.7708 80.9305 58.9207 80.8942 63.1326C80.8942 60.2286 80.8185 54.6846 75.532 55.135C70.0031 55.6009 71.3512 63.0394 71.2755 66.7975C71.2755 66.7975 71.4724 55.927 65.4436 52.0136C64.1434 51.0524 62.6206 50.4565 61.0263 50.2849C59.432 50.1133 57.8217 50.3719 56.3551 51.0352C54.6596 51.7676 53.2867 53.1147 52.4987 54.8192C51.7108 56.5237 51.5629 58.466 52.0834 60.2752C53.0226 64.6234 57.3548 68.3504 57.3548 68.3504C55.0737 67.0203 52.6684 65.9278 50.1748 65.0893C45.3124 64.0022 37.4205 63.6761 34.3001 68.397C31.1797 73.1179 35.6786 79.8421 44.7217 80.1372C50.6747 80.3235 101.253 80.5565 107.221 80.5565C111.962 80.6031 119.066 77.8854 117.87 72.093Z" fill="url(#paint1_linear_0_18)"/>
<path d="M63.9441 1.57369C63.9441 1.57369 70.5182 -0.227714 72.8812 4.40002C72.4463 5.47968 71.7124 6.40508 70.7702 7.06192C69.828 7.71875 68.7188 8.07825 67.5795 8.096C67.5795 8.096 68.0491 2.55203 63.9441 1.57369Z" fill="#069FAD"/>
<path d="M75.4564 58.7678C69.3234 58.1153 63.5076 55.6494 58.7165 51.6703C53.9255 47.6911 50.3657 42.3703 48.4704 36.355C46.575 30.3398 46.4258 23.8894 48.0408 17.7888C49.6558 11.6882 52.9654 6.20024 57.567 1.99268C50.3033 2.33777 43.2747 4.73774 37.2597 8.92666C31.2448 13.1156 26.4785 18.9299 23.4889 25.7254C20.4994 32.5209 19.4032 40.0323 20.322 47.4272C21.2408 54.8222 24.1386 61.812 28.6943 67.6222C33.2501 73.4324 39.2859 77.8362 46.133 80.3456C52.9801 82.8549 60.3712 83.3719 67.4874 81.8393C74.6035 80.3066 81.1668 76.7841 86.4501 71.6621C91.7334 66.5401 95.5304 60.0186 97.4204 52.8201C91.0627 57.5066 83.2422 59.6244 75.4564 58.7678Z" fill="#FFB842"/>
<path d="M49.2205 31.7011C48.1927 27.914 47.8994 23.957 48.357 20.0541C49.2962 12.1031 54.3101 4.5248 65.0194 2.3507C65.1283 2.31691 65.2238 2.24809 65.2916 2.1544C65.3594 2.06071 65.396 1.94714 65.396 1.83047C65.396 1.7138 65.3594 1.60022 65.2916 1.50654C65.2238 1.41285 65.1283 1.34403 65.0194 1.31024C45.8122 -4.63749 26.7565 10.7676 20.7429 25.303C26.6656 35.9717 46.9635 33.7354 49.2205 31.7011Z" fill="url(#paint2_linear_0_18)"/>
<path d="M35.8755 40.8325H35.618C34.0841 40.6677 32.5988 40.1849 31.2525 39.4134C29.9063 38.6419 28.7271 37.5978 27.7867 36.3445C27.7218 36.2608 27.6742 36.1644 27.6466 36.0613C27.619 35.9582 27.6121 35.8504 27.6263 35.7445C27.6404 35.6386 27.6754 35.5367 27.729 35.445C27.7826 35.3533 27.8537 35.2736 27.9381 35.2109C28.1072 35.0799 28.3198 35.0227 28.5298 35.0518C28.7398 35.0808 28.93 35.1939 29.0591 35.3661C29.0591 35.3661 31.8614 39.0777 35.6786 39.2019C38.0416 39.2019 40.3743 37.9595 42.601 35.3196C42.7435 35.1579 42.9417 35.0593 43.1537 35.0448C43.3658 35.0303 43.575 35.101 43.7371 35.2419C43.8165 35.3117 43.8815 35.3971 43.9283 35.4929C43.9752 35.5888 44.0029 35.6933 44.01 35.8002C44.017 35.9072 44.0032 36.0145 43.9694 36.116C43.9355 36.2174 43.8823 36.3109 43.8129 36.3911C41.3286 39.3416 38.6627 40.8325 35.8755 40.8325Z" fill="#4F4840"/>
<path d="M36.3908 40.2734H35.4668V44.9943H36.3908V40.2734Z" fill="#4F4840"/>
<path d="M37.5231 39.9824L36.6201 40.1836L37.598 44.7968L38.5009 44.5957L37.5231 39.9824Z" fill="#4F4840"/>
<path d="M38.8811 39.5875L38.001 39.876L39.4033 44.3727L40.2834 44.0842L38.8811 39.5875Z" fill="#4F4840"/>
<path d="M40.0574 39.0535L39.2212 39.4565L41.1804 43.7288L42.0166 43.3258L40.0574 39.0535Z" fill="#4F4840"/>
<path d="M41.1691 38.3553L40.3892 38.8633L42.8586 42.848L43.6385 42.34L41.1691 38.3553Z" fill="#4F4840"/>
<path d="M42.228 37.4394L41.4824 37.999L44.2027 41.8081L44.9483 41.2485L42.228 37.4394Z" fill="#4F4840"/>
<path d="M43.2053 36.6073L42.5073 37.228L45.5248 40.7942L46.2227 40.1735L43.2053 36.6073Z" fill="#4F4840"/>
<path d="M34.283 39.9776L33.3052 44.5908L34.2081 44.792L35.1859 40.1787L34.283 39.9776Z" fill="#4F4840"/>
<path d="M32.93 39.569L31.5269 44.0654L32.4069 44.3541L33.81 39.8576L32.93 39.569Z" fill="#4F4840"/>
<path d="M31.7615 39.0583L29.8022 43.3306L30.6384 43.7336L32.5977 39.4613L31.7615 39.0583Z" fill="#4F4840"/>
<path d="M30.6334 38.3509L28.166 42.3369L28.9462 42.8445L31.4136 38.8585L30.6334 38.3509Z" fill="#4F4840"/>
<path d="M29.5802 37.4575L26.8599 41.2666L27.6054 41.8262L30.3257 38.0171L29.5802 37.4575Z" fill="#4F4840"/>
<path d="M28.6086 36.6057L25.5918 40.1724L26.2899 40.793L29.3067 37.2263L28.6086 36.6057Z" fill="#4F4840"/>
<path d="M65.7619 56.1131C62.8811 58.4095 59.3791 59.7382 55.7342 59.9178C52.3411 59.7936 49.2813 57.5418 47.1758 55.6162C46.7558 55.9922 46.3047 56.3299 45.8276 56.6256C54.3709 66.7973 65.1409 60.5856 68.5945 57.2623C67.6035 57.0138 66.6505 56.6271 65.7619 56.1131Z" fill="#4F4840"/>
<path d="M44.4646 57.7438C44.0487 57.7465 43.6349 57.6837 43.2376 57.5575C43.1623 57.5269 43.0937 57.4811 43.0359 57.4228C42.9781 57.3645 42.9323 57.2949 42.9013 57.2182C42.8702 57.1414 42.8545 57.0591 42.855 56.976C42.8555 56.8929 42.8723 56.8108 42.9043 56.7344C42.9651 56.5783 43.0836 56.4532 43.234 56.3863C43.3844 56.3193 43.5545 56.3161 43.7072 56.3773C43.8132 56.3773 46.3277 57.3246 48.4181 53.349C48.5011 53.21 48.633 53.109 48.7866 53.0667C48.9401 53.0244 49.1037 53.0441 49.2435 53.1218C49.3833 53.1994 49.4887 53.3291 49.5381 53.484C49.5874 53.639 49.5769 53.8074 49.5087 53.9547C47.8273 57.1693 45.7521 57.7438 44.4646 57.7438Z" fill="#4F4840"/>
<path d="M113.871 90.9765C112.613 85.0443 100.147 85.153 94.4363 88.8335C98.0414 87.4359 103.828 82.3422 99.1927 78.8947C96.1631 76.674 91.6188 78.2736 88.0137 82.6839C89.9789 80.7147 91.6573 78.4658 92.9973 76.0063C95.1634 72.5588 95.5875 65.9433 90.407 63.1791C86.0445 60.8497 79.3947 62.7287 76.138 68.3814C73.0176 73.8011 73.1084 81.3639 73.1084 81.3639C73.1084 78.258 73.0024 72.3414 67.1706 72.8072C61.1115 73.3042 62.6263 81.2707 62.49 85.2307C62.49 85.2307 62.7172 73.6924 56.0522 69.4063C54.5973 68.3709 52.9092 67.7321 51.1469 67.55C49.3847 67.368 47.6062 67.6488 45.979 68.3658C44.1329 69.1159 42.6274 70.547 41.7584 72.3776C40.8894 74.2082 40.7199 76.3058 41.2833 78.258C42.4345 82.9168 47.1454 86.9544 47.1454 86.9544C44.6277 85.5313 41.9792 84.3661 39.2384 83.4759C33.8609 82.2957 25.1662 81.9229 21.7126 87.001C18.2589 92.0791 23.2273 99.2381 33.2247 99.5487C39.7837 99.7661 95.6027 99.9991 102.177 99.9991C107.372 100.061 115.128 97.1727 113.871 90.9765Z" fill="url(#paint3_linear_0_18)"/>
<path d="M69.7761 32.726L60.6876 33.2229L60.5967 31.4836L66.3376 23.1133L60.7936 23.4239L60.5967 21.4983L68.8067 21.0635L68.8976 22.7562L63.1415 31.1575L69.6853 30.8159L69.7761 32.726Z" fill="#4F4840"/>
<path d="M71.9116 28.238L71.1997 26.4211L75.1229 24.8682L75.8349 26.7627L71.9116 28.238Z" fill="#4F4840"/>
<path d="M79.5007 28.7194L78.6524 27.3062L79.2583 20.287L76.047 22.3368L75.1836 20.8926L80.5307 17.4917L81.3941 18.9204L80.7882 25.9086L84.6054 23.4705L85.484 24.9302L79.5007 28.7194Z" fill="#4F4840"/>
<path d="M85.7413 20.287L84.2266 18.9981L86.9228 15.6748L88.4376 16.9637L85.7413 20.287Z" fill="#4F4840"/>
<path d="M92.6335 16.2804L91.1188 15.5815L87.9378 9.33876L86.3473 12.8794L84.8325 12.1651L87.4985 6.31055L89.0133 7.0249L92.2397 13.2366L94.118 9.02818L95.6328 9.75805L92.6335 16.2804Z" fill="#4F4840"/>
<path d="M17.8802 17.973L15.0325 14.4634L10.6094 14.8672L12.9876 11.0159L11.2456 6.82299L15.5475 7.95663L18.8951 4.95947L19.1829 9.50956L23.0001 11.8545L18.8648 13.5317L17.8802 17.973Z" fill="#FFB842"/>
<path d="M97.5871 37.9283L95.2999 33.549L90.4678 32.99L93.8305 29.4027L92.8459 24.5265L97.2236 26.7006L101.435 24.2314L100.783 29.1698L104.373 32.5241L99.5866 33.4093L97.5871 37.9283Z" fill="#FFB842"/>
<path d="M76.956 47.4636L74.7293 44.3422L70.9575 44.4509L73.1691 41.314L71.9118 37.6646L75.5018 38.8448L78.4859 36.4844L78.501 40.3667L81.6214 42.5408L78.0314 43.7521L76.956 47.4636Z" fill="#FFB842"/>
<defs>
<linearGradient id="paint0_linear_0_18" x1="89.8905" y1="87.5446" x2="-25.6028" y2="63.4434" gradientUnits="userSpaceOnUse">
<stop stop-color="#92A3FD"/>
<stop offset="1" stop-color="#9DCEFF"/>
</linearGradient>
<linearGradient id="paint1_linear_0_18" x1="118.003" y1="80.5571" x2="8.22631" y2="60.2057" gradientUnits="userSpaceOnUse">
<stop stop-color="#92A3FD"/>
<stop offset="1" stop-color="#9DCEFF"/>
</linearGradient>
<linearGradient id="paint2_linear_0_18" x1="65.396" y1="33.4018" x2="6.1602" y2="27.2741" gradientUnits="userSpaceOnUse">
<stop stop-color="#C58BF2"/>
<stop offset="1" stop-color="#EEA4CE"/>
</linearGradient>
<linearGradient id="paint3_linear_0_18" x1="114.006" y1="100" x2="-6.78939" y2="76.9054" gradientUnits="userSpaceOnUse">
<stop stop-color="#C58BF2"/>
<stop offset="1" stop-color="#EEA4CE"/>
</linearGradient>
</defs>
</svg>
