<svg width="40" height="40" viewBox="0 0 40 40" fill="none" xmlns="http://www.w3.org/2000/svg">
<circle opacity="0.2" cx="20" cy="20" r="20" fill="url(#paint0_linear_430_13)"/>
<path fill-rule="evenodd" clip-rule="evenodd" d="M30.9834 25.8977C30.9834 27.0193 25.8854 28.249 20.4781 28.249C15.0708 28.249 10.6497 26.2999 10.6497 25.1783C10.6497 24.0567 15.7876 23.8679 21.1936 23.8679C26.5995 23.8679 30.9834 24.7761 30.9834 25.8977Z" fill="#E2CAB3"/>
<path fill-rule="evenodd" clip-rule="evenodd" d="M31.8202 27.0427C31.8354 27.6418 30.5329 28.1615 28.91 28.2026C27.2871 28.2436 25.9584 27.7922 25.9432 27.1918C25.9281 26.5913 27.2305 26.0729 28.8534 26.0319C30.4763 25.9909 31.805 26.4422 31.8202 27.0427Z" fill="#E2CAB3"/>
<path fill-rule="evenodd" clip-rule="evenodd" d="M8.19096 22.7791C7.32634 24.8089 8.3788 25.8717 9.78069 26.0468C10.3332 26.1151 11.1619 25.7363 11.7751 25.4996C12.2741 25.2802 12.7478 25.0082 13.1881 24.6885C13.3966 24.4765 13.6425 24.1879 13.6922 23.8679C13.6989 23.7442 13.6722 23.621 13.6148 23.5109C13.6304 23.4647 13.6533 23.4214 13.6825 23.3823C13.7571 23.2455 13.5555 23.1402 13.6563 22.987C13.8165 22.7422 13.6052 22.4782 13.5016 22.2607C13.4671 22.1909 12.5762 21.4072 12.5348 21.332C11.7917 20.5537 11.5914 20.1871 10.5693 20.0271C9.28623 19.8247 8.04179 20.2883 8.19096 22.7791Z" fill="#5F825C"/>
<g style="mix-blend-mode:multiply" opacity="0.4">
<path fill-rule="evenodd" clip-rule="evenodd" d="M8.65508 22.0295C8.80148 22.0473 8.8733 22.4399 8.81253 22.9104C8.75176 23.3809 8.58602 23.742 8.43823 23.7242C8.29044 23.7065 8.22139 23.3139 8.28078 22.8434C8.34017 22.3729 8.50038 22.0104 8.65508 22.0295Z" fill="#5F825C"/>
</g>
<path fill-rule="evenodd" clip-rule="evenodd" d="M8.79322 24.2303C8.47969 24.3671 8.50869 24.7679 8.63576 25.0278C8.63888 25.0319 8.64122 25.0365 8.64267 25.0414C8.67251 25.1013 8.70961 25.1573 8.75316 25.2083C8.90708 25.4024 9.11949 25.5428 9.3595 25.6091C9.6606 25.6843 10.0059 25.6337 10.1799 25.3971C10.1842 25.3898 10.1911 25.3844 10.1993 25.382V25.3519C10.1606 25.1987 9.92302 25.1686 9.79595 25.1495C9.51972 25.1071 9.43823 24.8664 9.35398 24.6434C9.26972 24.4205 9.06945 24.1045 8.79322 24.2303Z" fill="#8DB54F"/>
<g style="mix-blend-mode:multiply" opacity="0.4">
<path fill-rule="evenodd" clip-rule="evenodd" d="M11.6301 21.2158C11.3746 21.3526 11.6122 21.6617 11.7351 21.8081C12.0113 22.1473 12.3898 22.3907 12.6204 22.7765C12.8511 23.1622 12.55 23.7599 12.9187 24.0854C12.9365 24.1012 12.9573 24.1132 12.9798 24.1209C13.0023 24.1286 13.0262 24.1318 13.05 24.1303C13.0738 24.1287 13.097 24.1225 13.1183 24.112C13.1397 24.1015 13.1587 24.0869 13.1743 24.069C13.1904 24.0432 13.2025 24.015 13.2102 23.9856C13.2551 23.9288 13.2901 23.865 13.3138 23.7968C13.3759 23.5828 13.3677 23.3548 13.2903 23.1458C13.2323 22.9584 13.3621 22.7765 13.3055 22.5891C13.2795 22.5192 13.238 22.4561 13.1839 22.4044C13.1273 22.3393 13.0623 22.2818 12.9906 22.2334C12.8569 22.1234 12.7335 22.0016 12.6218 21.8696C12.488 21.7126 12.3411 21.5671 12.1826 21.4347C12.0155 21.2774 11.7986 21.1242 11.6301 21.2158Z" fill="#5F825C"/>
</g>
<path fill-rule="evenodd" clip-rule="evenodd" d="M8.4259 22.9051C8.28778 22.8819 8.20076 22.8271 7.75464 22.7177C7.30852 22.6083 7.08201 22.5837 7.01295 22.5426C6.94389 22.5016 7.13726 22.2869 7.13726 22.2869C7.13726 22.2869 7.4715 22.4141 7.74636 22.5153C8.02121 22.6165 8.52396 22.7505 8.52396 22.7505C8.52396 22.7505 8.60269 22.7943 8.57092 22.8654C8.53915 22.9366 8.4259 22.9051 8.4259 22.9051Z" fill="#300D33"/>
<path fill-rule="evenodd" clip-rule="evenodd" d="M31.859 18.9506C31.4847 19.0368 31.1684 19.2611 30.7789 19.2802C30.3645 19.3007 29.9502 19.1298 29.5455 19.0518C28.6657 18.8822 27.7651 18.7878 26.8757 18.6907C25.0801 18.4937 23.2611 18.4089 21.4587 18.2038C19.6562 17.9986 17.8676 17.7647 16.0638 17.7729C15.1948 17.7751 14.3275 17.8501 13.4713 17.9972C12.7655 18.119 12.0473 18.2612 11.4562 18.6811C11.0012 19.0126 10.6583 19.4728 10.4728 20.0011C10.2325 20.6439 11.5018 24.5804 11.6937 24.839C13.3622 27.0274 16.1632 27.5062 20.7722 27.4145C25.6975 27.316 27.6008 26.773 28.9958 25.5529C29.7458 24.8978 30.377 23.2126 30.4902 22.883C30.6822 22.3017 30.8949 21.7286 31.0938 21.15C31.2195 20.7834 31.3507 20.421 31.5081 20.0667C31.6747 19.7339 31.8133 19.388 31.9225 19.0327C31.9256 19.023 31.9264 19.0127 31.9246 19.0027C31.9228 18.9927 31.9187 18.9832 31.9124 18.9752C31.9062 18.9671 31.898 18.9606 31.8887 18.9564C31.8794 18.9521 31.8692 18.9501 31.859 18.9506Z" fill="#DA840D"/>
<path fill-rule="evenodd" clip-rule="evenodd" d="M31.1131 19.2201C30.4847 19.6578 29.58 19.6756 28.8438 19.8192C27.0262 20.1748 25.2141 20.4197 23.3592 20.3759C21.5443 20.3349 19.7281 20.1229 17.9201 19.9751C16.0721 19.8247 14.2199 19.7166 12.3664 19.8001C11.9569 19.8149 11.5507 19.8783 11.1565 19.9888C10.9548 20.0463 10.6537 20.1256 10.5529 20.3308C10.528 20.384 10.5144 20.4417 10.5128 20.5004V20.51C10.4217 20.8136 10.528 21.068 10.633 21.3375C10.6579 21.451 10.6855 21.5645 10.7117 21.6781C10.6648 21.6781 10.6579 21.7492 10.7117 21.7505H10.7269C10.7326 21.757 10.7396 21.7621 10.7475 21.7656C10.7554 21.7691 10.7639 21.7709 10.7725 21.7709C10.7811 21.7709 10.7896 21.7691 10.7975 21.7656C10.8054 21.7621 10.8124 21.757 10.8181 21.7505C11.144 21.7505 11.4672 21.6904 11.7946 21.6822C12.2863 21.6685 12.7034 21.9174 13.1329 22.1226C13.9036 22.4864 14.6315 22.9118 15.4119 23.2346C15.76 23.3789 16.1182 23.4982 16.4837 23.5916C16.848 23.6692 17.2171 23.7231 17.5886 23.753C17.9836 23.8036 18.3745 23.8898 18.7681 23.9431C19.209 23.9949 19.6535 24.009 20.0968 23.9855C21.8574 23.9548 23.6126 23.7833 25.3453 23.4726C26.9199 23.1799 28.4944 22.7395 29.8659 21.8983C30.4082 21.5718 30.8675 21.1263 31.2084 20.5961C31.3659 20.3513 31.4999 20.0873 31.6463 19.8356C31.754 19.6482 31.8838 19.4253 31.8645 19.2078C31.8327 18.7346 31.3065 19.0874 31.1131 19.2201Z" fill="#C66720"/>
<path opacity="0.4" fill-rule="evenodd" clip-rule="evenodd" d="M20.5222 26.4954C13.6853 27.4529 11.6384 24.7269 11.7006 24.8076C13.369 26.9961 16.1715 27.4748 20.7791 27.3831C25.7044 27.286 27.7057 26.7102 29.1021 25.4901C29.8092 24.8705 30.5924 22.5849 30.7484 22.1404C27.3273 24.928 26.3508 25.6748 20.5222 26.4954Z" fill="#C66720"/>
<path fill-rule="evenodd" clip-rule="evenodd" d="M32.9942 16.7212C32.9154 16.2411 32.1655 16.1741 31.7953 16.0373C31.468 15.9169 31.2428 15.6269 30.9763 15.4095C30.6886 15.174 30.3687 14.9801 30.026 14.8336C29.2457 14.4999 28.4639 14.2332 27.7526 13.7613C27.0979 13.3249 26.2941 13.2689 25.5427 13.1471C25.0782 13.0753 24.6236 12.9509 24.1878 12.7764C23.8006 12.5963 23.3916 12.4662 22.971 12.3894C22.5373 12.3319 22.0911 12.4304 21.6575 12.4482C21.1768 12.4673 20.7348 12.3114 20.2832 12.1746C19.9145 12.0424 19.5229 11.9843 19.1313 12.0036C18.7666 12.0337 18.4407 12.2252 18.1341 12.414C18.1264 12.4182 18.1199 12.4243 18.1153 12.4318C18.1107 12.4392 18.1081 12.4477 18.1078 12.4564C17.7611 12.6356 17.4283 12.8353 17.0802 13.0158C16.7898 13.1744 16.4783 13.2919 16.1548 13.3646C15.7584 13.4467 15.3855 13.381 14.9919 13.3304C14.3013 13.2415 13.648 13.2251 12.9933 13.4754C12.2143 13.7736 11.5942 14.3809 10.8221 14.7064C10.1578 14.98 9.57904 15.3041 9.16468 15.9101C8.99222 16.1644 8.87466 16.4512 8.81939 16.7526C8.76828 17.0768 8.84701 17.3709 8.91607 17.6882C9.00723 18.0985 8.92574 18.4268 8.80696 18.8221C8.70574 19.0828 8.71319 19.3725 8.82768 19.6277C8.93541 19.8356 9.16468 19.9697 9.36495 20.0764C9.56523 20.1831 10.0763 20.298 10.1191 20.5469C10.3014 21.6028 11.5003 21.1077 12.206 21.3676C12.5527 21.4975 12.8732 21.6945 13.2254 21.8217C13.63 21.968 14.0541 22.0775 14.4684 22.1883C15.2971 22.4098 16.0954 22.7053 16.9007 23.0089C17.2556 23.1457 17.5913 23.3153 17.9711 23.3837C18.3509 23.4521 18.7432 23.3906 19.1188 23.3577C19.8992 23.288 22.3674 23.4945 22.6947 23.329C23.1187 23.1225 23.5124 23.1416 23.9709 23.1799C24.3287 23.21 24.638 22.9474 24.9971 22.9187C25.4099 22.8784 25.817 22.7935 26.2112 22.6656C26.5628 22.5311 26.9209 22.4142 27.2844 22.3155C27.6987 22.2238 28.0606 21.927 28.4791 21.8709C29.2926 21.7601 29.8893 21.3088 30.5191 20.7849C31.0909 20.3103 32.4431 18.6744 32.5605 18.3502C32.6779 18.0261 32.7649 17.6663 32.8602 17.3312C32.9127 17.1438 33.0273 16.9209 32.9942 16.7212Z" fill="#F0A508"/>
<g opacity="0.5">
<path opacity="0.5" fill-rule="evenodd" clip-rule="evenodd" d="M20.2335 14.3098C20.1189 14.4589 19.9808 14.4999 19.9932 15.4273C20.0056 16.3547 20.0954 16.7048 19.7349 17.4079C19.3744 18.1109 18.6755 18.7934 18.4283 19.5416C18.1811 20.2898 17.8689 21.5181 18.1852 21.9954C18.5015 22.4728 19.6534 22.7081 21.2238 22.7505C22.7942 22.7929 24.5165 22.5385 25.4848 22.2403C26.453 21.9421 27.0123 21.819 27.2319 21.5564C27.4516 21.2938 26.3563 19.0506 25.5897 18.1752C24.8232 17.2998 24.4558 17.0098 23.5912 16.2849C22.7265 15.56 22.3481 15.2714 21.9213 14.6859C21.4945 14.1005 21.384 14.0691 20.9352 14.0759C20.6816 14.0752 20.435 14.1574 20.2335 14.3098Z" fill="#E2CAB3"/>
<path opacity="0.5" fill-rule="evenodd" clip-rule="evenodd" d="M11.51 20.2037C12.1191 18.8126 12.923 18.1793 13.1481 17.8648C13.7682 16.9989 14.1356 16.6201 14.9574 16.497C15.7792 16.3739 15.329 16.378 16.2626 16.248C17.1963 16.1181 17.9795 15.917 18.6107 15.4273C19.2419 14.9377 19.5678 14.5561 19.9034 14.4371C20.2391 14.3181 20.757 14.0527 20.3896 14.4275C20.0222 14.8023 20.5125 14.9445 19.8219 15.9608C19.1314 16.9771 18.8026 17.5023 18.5568 18.286C18.3109 19.0698 18.0568 21.5154 17.4947 21.7083C16.9325 21.9011 15.5914 21.9353 14.3456 21.4771C13.3789 21.1013 12.4324 20.6763 11.51 20.2037Z" fill="#E2CAB3"/>
<path opacity="0.5" fill-rule="evenodd" clip-rule="evenodd" d="M28.3467 20.8286C28.3467 20.8286 29.5013 20.4716 30.1643 19.9013C30.8272 19.3309 31.4902 18.7988 31.7002 18.0151C31.9101 17.2313 32.1477 17.0357 31.8908 16.8032C31.6339 16.5707 30.2596 15.3356 29.1284 14.7269C27.9972 14.1182 26.5594 13.7339 25.2804 13.4672C24.0015 13.2004 23.3233 13.3564 22.6562 13.3304C21.9891 13.3044 20.9325 14.0662 20.9477 14.0745C21.317 14.4262 21.7279 14.7325 22.1714 14.9868C22.7708 15.2986 24.1686 15.8266 24.8509 16.2178C25.5332 16.609 26.0746 17.4734 26.2321 17.8783C26.3895 18.2832 26.6105 18.409 26.8356 19.1845C27.0608 19.9601 27.6851 21.2089 27.6851 21.2089L28.3467 20.8286Z" fill="#E2CAB3"/>
<path opacity="0.5" fill-rule="evenodd" clip-rule="evenodd" d="M9.62903 16.1166C9.62903 16.1166 9.0959 17.535 9.37214 18.2176C9.56371 18.6652 9.82467 19.0806 10.1456 19.4486C10.1456 19.4486 10.8362 20.1024 11.3072 19.4253C11.7781 18.7483 12.7988 17.1671 13.6096 16.557C14.4203 15.947 15.43 15.8157 16.1786 15.7268C16.9272 15.6379 18.6854 15.3383 19.1716 14.9458C19.6578 14.5532 20.9478 14.0745 20.9478 14.0745C20.3897 13.8208 19.8083 13.6206 19.2117 13.4768C18.3084 13.2716 16.8637 13.8201 15.691 13.5465C14.5184 13.273 13.3748 13.8898 12.0765 14.5464C11.2143 14.9953 10.3952 15.5209 9.62903 16.1166Z" fill="#E2CAB3"/>
<path opacity="0.5" fill-rule="evenodd" clip-rule="evenodd" d="M17.3635 13.2128C17.3635 13.2128 18.5776 12.0789 19.4021 12.0994C20.4449 12.1268 20.7833 12.3538 21.2819 12.5097C21.8496 12.6848 22.0761 12.7546 21.9297 12.9803C21.7833 13.2059 21.0927 14.2113 21.0927 14.2113C21.0927 14.2113 19.4353 13.4056 18.8276 13.3126C18.3428 13.2426 17.8534 13.2092 17.3635 13.2128Z" fill="#E2CAB3"/>
</g>
<path opacity="0.4" fill-rule="evenodd" clip-rule="evenodd" d="M29.3037 14.4684C28.9763 14.3316 28.6476 14.2181 28.3258 14.0663C27.9489 13.8747 27.5616 13.7039 27.1656 13.5547C26.8083 13.4462 26.4417 13.3706 26.0703 13.329C25.2306 13.1923 24.4599 12.849 23.6547 12.6027C23.193 12.4621 22.7105 12.4001 22.2279 12.4195C21.808 12.4468 21.3868 12.4468 20.9669 12.4195C20.5525 12.3757 20.1879 12.1856 19.7846 12.0802C19.2943 11.9517 18.8868 12.0802 18.4518 12.3114C17.8095 12.641 17.1686 13.0432 16.4725 13.2538C16.1007 13.3739 15.7117 13.433 15.3206 13.4289C14.9063 13.4152 14.5112 13.3332 14.1038 13.3058C13.6549 13.2583 13.2018 13.34 12.7986 13.5411C12.4926 13.7017 12.2042 13.8933 11.9381 14.1128C11.9367 14.1369 11.9367 14.1611 11.9381 14.1853C11.8578 14.4177 11.8291 14.6645 11.8539 14.9089C11.866 15.1582 11.932 15.4021 12.0473 15.6241C12.1626 15.8462 12.3246 16.0411 12.5224 16.196C12.8096 16.4367 13.1107 16.6213 13.3511 16.9099C13.5914 17.1985 13.7654 17.4995 14.0416 17.7306C14.4919 18.1109 15.09 18.141 15.6562 18.141C15.9546 18.141 16.2515 18.1259 16.5485 18.141C16.9561 18.1835 17.3568 18.2753 17.7418 18.4145C18.5374 18.6607 19.3178 19.0013 20.1396 19.1613C20.9614 19.3214 21.7763 19.1285 22.5746 18.9165C23.3729 18.7045 24.1602 18.5622 24.9419 18.3571C25.6487 18.185 26.3195 17.8915 26.9239 17.4899C27.5689 17.0259 28.1522 16.4831 28.66 15.8745C28.8548 15.6502 29.0399 15.4177 29.2319 15.1906C29.4026 15.0195 29.5168 14.801 29.5592 14.5642C29.4725 14.5365 29.3872 14.5046 29.3037 14.4684Z" fill="#E2CAB3"/>
<path fill-rule="evenodd" clip-rule="evenodd" d="M18.2833 15.4082C18.2198 15.4219 18.1563 15.4328 18.0969 15.441H18.0775C17.6439 15.5245 17.2143 15.6284 16.7682 15.5942C16.4671 15.5723 15.2903 15.6038 15.5666 16.1413C15.5698 16.1506 15.5698 16.1608 15.5666 16.1701C15.8096 16.3233 16.3497 16.2603 16.5334 16.2467C16.6891 16.2361 16.8438 16.2137 16.9961 16.1796C17.4293 16.0095 17.8413 15.7906 18.2239 15.5272C18.2487 15.4901 18.2686 15.4502 18.2833 15.4082Z" fill="#C66720"/>
<path fill-rule="evenodd" clip-rule="evenodd" d="M19.996 16.5106C20.0245 16.2242 20.0143 15.9353 19.9656 15.6516C19.7811 16.0857 19.5446 16.4962 19.2612 16.8744C19.0955 17.081 18.8759 17.2601 18.7419 17.4899C18.6701 17.613 18.5706 17.7963 18.6231 17.9468C18.706 18.1834 18.8524 18.182 19.0085 18.1506C19.2764 17.9864 19.5222 17.6035 19.6548 17.4065C19.7775 17.224 19.8772 17.0275 19.9518 16.8211C19.967 16.7185 19.9808 16.6159 19.996 16.5106Z" fill="#C66720"/>
<path fill-rule="evenodd" clip-rule="evenodd" d="M24.4117 15.6899C24.0878 15.5593 23.7573 15.4456 23.4214 15.3493C23.2163 15.2965 23.0158 15.2274 22.8219 15.1428C22.6731 15.0543 22.5049 15.0027 22.3316 14.9923C22.3211 14.9916 22.3107 14.9936 22.3012 14.9982C22.2918 15.0027 22.2837 15.0095 22.2777 15.0181C22.2717 15.0266 22.2681 15.0365 22.2671 15.0469C22.2661 15.0572 22.2679 15.0676 22.2722 15.0771C22.2859 15.1206 22.313 15.1589 22.3496 15.1865C22.5555 15.4718 22.7837 15.7407 23.0319 15.9908C23.2542 16.2397 23.4462 16.5078 23.6948 16.739C24.0318 17.0604 24.6409 17.256 24.9862 16.8129C25.3674 16.3191 24.8481 15.8718 24.4117 15.6899Z" fill="#C66720"/>
<path fill-rule="evenodd" clip-rule="evenodd" d="M23.0194 13.2662C22.902 13.0159 22.5208 13.0227 22.268 13.0815C22.2475 13.0842 22.2272 13.0883 22.2072 13.0938C21.8574 13.272 21.5861 13.5714 21.4448 13.935C21.8592 13.8133 22.1644 13.5247 22.6023 13.4741C22.6727 13.4659 23.0995 13.4344 23.0194 13.2662Z" fill="#C66720"/>
<path fill-rule="evenodd" clip-rule="evenodd" d="M17.1742 13.7203C17.2297 13.7378 17.2873 13.748 17.3455 13.7504C17.4823 13.7272 17.6211 13.7181 17.7598 13.7231C17.8137 13.7204 17.8676 13.7204 17.9214 13.7231C18.1023 13.7302 18.2826 13.7476 18.4615 13.775L18.5319 13.7942C18.6303 13.8045 18.7289 13.7776 18.8082 13.719C18.4035 13.5425 17.2889 13.124 17.1369 13.6642C17.1348 13.6765 17.1375 13.6892 17.1444 13.6996C17.1513 13.71 17.162 13.7174 17.1742 13.7203Z" fill="#C66720"/>
<path fill-rule="evenodd" clip-rule="evenodd" d="M9.59862 19.64C9.56628 19.7111 9.54307 19.7861 9.52956 19.8629C9.50889 19.9202 9.49679 19.9801 9.49365 20.0408C9.4943 20.0446 9.49586 20.0482 9.49818 20.0513C9.50051 20.0544 9.50355 20.0569 9.50705 20.0587C9.51055 20.0604 9.51441 20.0613 9.51832 20.0613C9.52223 20.0612 9.52609 20.0603 9.52956 20.0585C9.571 20.0353 9.57238 19.9655 9.57929 19.9218C9.59181 19.8288 9.61308 19.7372 9.64282 19.6482C9.65387 19.6277 9.61105 19.614 9.59862 19.64Z" fill="#C66720"/>
<path fill-rule="evenodd" clip-rule="evenodd" d="M9.85821 19.8521C9.82294 19.9199 9.79738 19.9922 9.78225 20.0669C9.7712 20.1066 9.73943 20.1695 9.75186 20.2037C9.75265 20.2081 9.75479 20.2122 9.758 20.2154C9.76122 20.2185 9.76534 20.2207 9.76982 20.2214C9.8223 20.2214 9.82783 20.1531 9.83611 20.1161C9.85545 20.0354 9.87202 19.952 9.89965 19.8727C9.90932 19.8494 9.87202 19.8275 9.85821 19.8521Z" fill="#C66720"/>
<path fill-rule="evenodd" clip-rule="evenodd" d="M11.1068 20.785C11.0944 20.9218 11.0502 21.0586 11.0515 21.2035C11.0515 21.2446 11.1165 21.2514 11.1178 21.2035C11.1387 21.0625 11.1521 20.9205 11.1579 20.7782C11.1565 20.7508 11.1096 20.7576 11.1068 20.785Z" fill="#C66720"/>
<path fill-rule="evenodd" clip-rule="evenodd" d="M11.4494 20.856C11.4042 20.9638 11.3825 21.0798 11.3858 21.1965C11.3858 21.2403 11.4563 21.2485 11.4576 21.1965C11.4617 21.0836 11.4742 20.9712 11.4949 20.8601C11.5005 20.8382 11.459 20.8313 11.4494 20.856Z" fill="#C66720"/>
<path fill-rule="evenodd" clip-rule="evenodd" d="M17.0307 22.7231C17.0098 22.7746 16.995 22.8283 16.9865 22.8831C16.9735 22.9322 16.9679 22.9829 16.9699 23.0335C16.9717 23.039 16.9752 23.0438 16.9799 23.0472C16.9846 23.0505 16.9903 23.0524 16.9961 23.0524C17.0019 23.0524 17.0076 23.0505 17.0123 23.0472C17.017 23.0438 17.0206 23.039 17.0224 23.0335C17.0341 22.9889 17.0401 22.9429 17.0403 22.8968C17.0486 22.8393 17.0514 22.7819 17.0624 22.7244C17.0652 22.7121 17.0376 22.708 17.0307 22.7231Z" fill="#C66720"/>
<path fill-rule="evenodd" clip-rule="evenodd" d="M17.4228 22.771C17.4012 22.8401 17.3864 22.9111 17.3786 22.983C17.3631 23.0433 17.3585 23.1058 17.3648 23.1677C17.367 23.173 17.3707 23.1776 17.3755 23.1808C17.3803 23.184 17.3859 23.1857 17.3917 23.1857C17.3975 23.1857 17.4032 23.184 17.408 23.1808C17.4128 23.1776 17.4165 23.173 17.4187 23.1677C17.4334 23.1138 17.4399 23.058 17.438 23.0022C17.438 22.9256 17.4504 22.849 17.4574 22.7738C17.4566 22.7699 17.4546 22.7664 17.4517 22.7638C17.4488 22.7612 17.4451 22.7596 17.4411 22.7593C17.4372 22.759 17.4333 22.76 17.43 22.7621C17.4267 22.7642 17.4242 22.7673 17.4228 22.771Z" fill="#C66720"/>
<path fill-rule="evenodd" clip-rule="evenodd" d="M18.9822 23.0049C18.9822 22.983 18.956 22.9638 18.945 22.9843C18.9094 23.052 18.8905 23.1269 18.8897 23.2032C18.8897 23.2415 18.88 23.34 18.9284 23.3495C18.9315 23.3506 18.9347 23.3511 18.938 23.3509C18.9413 23.3508 18.9445 23.3499 18.9474 23.3485C18.9504 23.3472 18.953 23.3452 18.9552 23.3428C18.9574 23.3404 18.9591 23.3376 18.9601 23.3345C18.9624 23.2919 18.9591 23.2491 18.9505 23.2073C18.9499 23.1386 18.9606 23.0702 18.9822 23.0049Z" fill="#C66720"/>
<path fill-rule="evenodd" clip-rule="evenodd" d="M19.3704 22.9913C19.3695 22.9882 19.3675 22.9855 19.3649 22.9836C19.3623 22.9817 19.3592 22.9807 19.3559 22.9807C19.3527 22.9807 19.3495 22.9817 19.3469 22.9836C19.3443 22.9855 19.3424 22.9882 19.3414 22.9913C19.3109 23.1082 19.2988 23.2291 19.3055 23.3496C19.3055 23.3866 19.3649 23.3907 19.3635 23.3496C19.357 23.2302 19.3593 23.1104 19.3704 22.9913Z" fill="#C66720"/>
<path fill-rule="evenodd" clip-rule="evenodd" d="M19.7957 23.0337C19.7957 23.0289 19.7938 23.0244 19.7905 23.0211C19.7871 23.0177 19.7825 23.0159 19.7778 23.0159C19.773 23.0159 19.7684 23.0177 19.7651 23.0211C19.7617 23.0244 19.7598 23.0289 19.7598 23.0337C19.7543 23.0884 19.7501 23.1431 19.7474 23.1978C19.7474 23.2375 19.7198 23.2894 19.7474 23.3236C19.7496 23.3253 19.7522 23.3262 19.755 23.3262C19.7577 23.3262 19.7604 23.3253 19.7626 23.3236C19.8095 23.3236 19.8068 23.2484 19.8095 23.2128C19.8121 23.1528 19.8074 23.0926 19.7957 23.0337Z" fill="#C66720"/>
<path fill-rule="evenodd" clip-rule="evenodd" d="M27.3619 22.1786C27.3619 22.1868 27.3619 22.1649 27.3619 22.1622C27.3536 22.1426 27.3466 22.1225 27.3412 22.102C27.3274 22.0487 27.3246 21.9912 27.308 21.9379C27.308 21.9228 27.2777 21.9146 27.2735 21.9379C27.2694 21.9611 27.2735 22.262 27.3591 22.2114C27.3622 22.21 27.3648 22.2078 27.3666 22.205C27.3685 22.2023 27.3697 22.1991 27.37 22.1958C27.3702 22.1925 27.3697 22.1892 27.3682 22.1861C27.3668 22.1831 27.3646 22.1805 27.3619 22.1786Z" fill="#C66720"/>
<path fill-rule="evenodd" clip-rule="evenodd" d="M27.8536 22.0557C27.8262 21.9719 27.7929 21.8901 27.7541 21.8108C27.7523 21.8052 27.7483 21.8006 27.743 21.7979C27.7376 21.7952 27.7315 21.7947 27.7258 21.7965C27.7201 21.7983 27.7154 21.8023 27.7127 21.8075C27.71 21.8128 27.7095 21.8189 27.7113 21.8245C27.7319 21.9129 27.7587 21.9997 27.7914 22.0844C27.8066 22.1254 27.8701 22.0967 27.8536 22.0557Z" fill="#C66720"/>
<path fill-rule="evenodd" clip-rule="evenodd" d="M28.3258 21.8135C28.2778 21.745 28.2453 21.6671 28.2305 21.585C28.2292 21.58 28.2263 21.5755 28.2222 21.5723C28.2181 21.5691 28.213 21.5674 28.2077 21.5674C28.2025 21.5674 28.1974 21.5691 28.1933 21.5723C28.1891 21.5755 28.1862 21.58 28.1849 21.585C28.1786 21.6831 28.208 21.7802 28.2678 21.8586C28.294 21.9024 28.3534 21.8531 28.3258 21.8135Z" fill="#C66720"/>
<path fill-rule="evenodd" clip-rule="evenodd" d="M28.9143 21.7465C28.8678 21.7079 28.8298 21.6604 28.8025 21.6067C28.7752 21.5531 28.7592 21.4946 28.7554 21.4347C28.7557 21.4314 28.755 21.4281 28.7534 21.4252C28.7518 21.4223 28.7493 21.42 28.7463 21.4185C28.7433 21.417 28.74 21.4165 28.7367 21.4169C28.7334 21.4173 28.7303 21.4188 28.7278 21.421C28.6063 21.5058 28.7886 21.7246 28.8562 21.7889C28.8908 21.8272 28.9488 21.7807 28.9143 21.7465Z" fill="#C66720"/>
<path fill-rule="evenodd" clip-rule="evenodd" d="M29.5802 21.4347C29.5071 21.3122 29.4264 21.1943 29.3385 21.0818C29.3288 21.0654 29.297 21.0709 29.304 21.0928C29.3468 21.2295 29.4683 21.3266 29.5277 21.4593C29.5429 21.4963 29.5954 21.4716 29.5802 21.4347Z" fill="#C66720"/>
<path fill-rule="evenodd" clip-rule="evenodd" d="M30.1295 21.012C30.1171 20.986 30.084 20.971 30.0619 20.9546L29.9527 20.8752C29.9251 20.8547 29.8961 20.8356 29.8671 20.8164C29.8381 20.7973 29.8367 20.8082 29.8243 20.8014C29.8119 20.7945 29.8133 20.8014 29.8174 20.8014C29.8215 20.8014 29.8243 20.8233 29.834 20.8328C29.8584 20.8579 29.8842 20.8817 29.9113 20.904C29.9458 20.9341 29.9818 20.9614 30.0177 20.9888C30.0536 21.0161 30.0729 21.0394 30.1047 21.0394C30.1082 21.0394 30.1117 21.0387 30.1149 21.0373C30.1181 21.0359 30.121 21.0338 30.1233 21.0312C30.1257 21.0286 30.1274 21.0256 30.1285 21.0223C30.1296 21.019 30.1299 21.0155 30.1295 21.012Z" fill="#C66720"/>
<path fill-rule="evenodd" clip-rule="evenodd" d="M30.598 20.6699C30.5954 20.662 30.5907 20.6548 30.5844 20.6493C30.5781 20.6438 30.5704 20.64 30.5621 20.6385C30.5363 20.6266 30.5126 20.6109 30.4916 20.592C30.4429 20.5497 30.401 20.5004 30.3673 20.4456C30.3521 20.4223 30.3162 20.4456 30.3273 20.4716C30.3567 20.537 30.3995 20.5957 30.453 20.6439C30.4861 20.674 30.5483 20.7246 30.5911 20.6959C30.5948 20.6928 30.5975 20.6887 30.5987 20.684C30.5999 20.6793 30.5997 20.6744 30.598 20.6699Z" fill="#C66720"/>
<path fill-rule="evenodd" clip-rule="evenodd" d="M32.1574 18.911C32.151 18.9036 32.1432 18.8976 32.1344 18.8934C32.1256 18.8891 32.116 18.8867 32.1063 18.8864C32.0756 18.8811 32.0464 18.8695 32.0206 18.8522C31.9657 18.8146 31.9245 18.7603 31.9032 18.6976C31.9032 18.6771 31.8673 18.6894 31.8687 18.7086C31.8773 18.7824 31.9144 18.85 31.9723 18.8973C32.0123 18.9301 32.1104 18.9835 32.156 18.9356C32.1591 18.9323 32.1609 18.9281 32.1612 18.9236C32.1615 18.9191 32.1601 18.9146 32.1574 18.911Z" fill="#C66720"/>
<path fill-rule="evenodd" clip-rule="evenodd" d="M32.4624 18.5622C32.3457 18.5024 32.2475 18.4126 32.1779 18.3023C32.1655 18.2818 32.1296 18.3023 32.142 18.3201C32.2055 18.4463 32.3095 18.5483 32.4376 18.61C32.4652 18.621 32.49 18.5745 32.4624 18.5622Z" fill="#C66720"/>
<path fill-rule="evenodd" clip-rule="evenodd" d="M32.6517 18.0794C32.5988 18.0453 32.548 18.0078 32.4998 17.9673C32.4529 17.9249 32.4087 17.8825 32.3617 17.8442C32.3437 17.8305 32.3203 17.8565 32.3355 17.8743C32.4074 17.985 32.5074 18.0751 32.6255 18.1355C32.6327 18.1373 32.6402 18.1365 32.6469 18.1334C32.6536 18.1302 32.6589 18.1249 32.6621 18.1182C32.6652 18.1116 32.6658 18.1041 32.6639 18.097C32.6621 18.0899 32.6578 18.0837 32.6517 18.0794Z" fill="#C66720"/>
<path fill-rule="evenodd" clip-rule="evenodd" d="M9.25596 19.279C9.13638 19.4413 9.05561 19.6284 9.01978 19.8262C9.01978 19.8426 9.04326 19.8439 9.0474 19.8262C9.09481 19.6384 9.17931 19.4617 9.29601 19.3064C9.31259 19.2804 9.27253 19.2531 9.25596 19.279Z" fill="#C66720"/>
<path fill-rule="evenodd" clip-rule="evenodd" d="M9.04069 19.1435C9.0103 19.1572 8.99787 19.1831 8.97715 19.2105C8.95644 19.2379 8.92053 19.2898 8.89566 19.3322C8.86043 19.3809 8.84158 19.4393 8.8418 19.4991C8.8418 19.5196 8.87357 19.5155 8.87495 19.4991C8.891 19.4372 8.9202 19.3794 8.96058 19.3295C8.99373 19.2789 9.05864 19.2214 9.06555 19.1613C9.06579 19.1582 9.06524 19.1552 9.06394 19.1524C9.06265 19.1496 9.06066 19.1472 9.05816 19.1455C9.05567 19.1437 9.05275 19.1426 9.04969 19.1422C9.04663 19.1419 9.04353 19.1423 9.04069 19.1435Z" fill="#C66720"/>
<path fill-rule="evenodd" clip-rule="evenodd" d="M9.43976 19.5882C9.4009 19.65 9.36939 19.7161 9.34584 19.7851C9.3151 19.8495 9.29282 19.9175 9.27954 19.9876C9.27954 20.0053 9.30578 20.0108 9.30993 19.9876C9.32763 19.9201 9.35312 19.855 9.38589 19.7933C9.42623 19.7312 9.45434 19.662 9.46876 19.5895C9.46895 19.5857 9.46759 19.582 9.465 19.5792C9.46241 19.5763 9.4588 19.5747 9.45495 19.5745C9.4511 19.5743 9.44734 19.5756 9.44449 19.5782C9.44164 19.5808 9.43994 19.5843 9.43976 19.5882Z" fill="#C66720"/>
<path fill-rule="evenodd" clip-rule="evenodd" d="M10.1883 20.0669C10.0847 20.0984 10.0364 20.2338 10.0088 20.3281C10.0077 20.333 10.0085 20.3381 10.0109 20.3424C10.0134 20.3467 10.0173 20.3501 10.0221 20.3517C10.0268 20.3534 10.032 20.3533 10.0366 20.3515C10.0413 20.3497 10.0451 20.3462 10.0474 20.3418C10.064 20.294 10.0857 20.2482 10.1123 20.205C10.1386 20.164 10.1759 20.1298 10.2035 20.0888C10.209 20.0806 10.2007 20.0669 10.1883 20.0669Z" fill="#C66720"/>
<path fill-rule="evenodd" clip-rule="evenodd" d="M10.4176 20.4771C10.3638 20.4963 10.3348 20.5633 10.3099 20.6139C10.2817 20.6727 10.2689 20.7376 10.2726 20.8027C10.2726 20.8245 10.3058 20.8286 10.3071 20.8027C10.3118 20.7483 10.3258 20.6951 10.3486 20.6454C10.3707 20.592 10.4245 20.551 10.4397 20.4976C10.4408 20.4946 10.4409 20.4914 10.4402 20.4883C10.4394 20.4852 10.4378 20.4824 10.4354 20.4803C10.4331 20.4781 10.4302 20.4766 10.427 20.4761C10.4238 20.4755 10.4206 20.4759 10.4176 20.4771Z" fill="#C66720"/>
<path fill-rule="evenodd" clip-rule="evenodd" d="M10.6398 20.6208C10.5956 20.6907 10.5621 20.7668 10.5404 20.8465C10.5108 20.9208 10.4886 20.9977 10.4741 21.0763C10.473 21.081 10.4738 21.0859 10.4764 21.09C10.479 21.0941 10.4832 21.0971 10.4879 21.0981C10.4927 21.0992 10.4977 21.0984 10.5018 21.0958C10.506 21.0933 10.5089 21.0892 10.51 21.0845C10.5306 21.0083 10.5569 20.9338 10.5887 20.8615C10.6277 20.7889 10.6557 20.711 10.6716 20.6304C10.6722 20.6283 10.6725 20.6261 10.6723 20.624C10.672 20.6218 10.6714 20.6197 10.6704 20.6178C10.6694 20.6159 10.668 20.6142 10.6663 20.6129C10.6646 20.6115 10.6627 20.6105 10.6606 20.6098C10.6585 20.6092 10.6563 20.609 10.6541 20.6092C10.6519 20.6094 10.6498 20.61 10.6479 20.6111C10.646 20.6121 10.6443 20.6135 10.6429 20.6151C10.6415 20.6168 10.6405 20.6187 10.6398 20.6208Z" fill="#C66720"/>
<path fill-rule="evenodd" clip-rule="evenodd" d="M10.843 20.841C10.7949 20.9478 10.7749 21.065 10.785 21.1815C10.785 21.2048 10.8209 21.2075 10.8209 21.1815C10.8209 21.068 10.872 20.9559 10.8651 20.8437C10.8644 20.8415 10.863 20.8396 10.8612 20.8382C10.8594 20.8367 10.8572 20.8358 10.8549 20.8355C10.8526 20.8353 10.8503 20.8356 10.8482 20.8366C10.8461 20.8375 10.8443 20.8391 10.843 20.841Z" fill="#C66720"/>
<path fill-rule="evenodd" clip-rule="evenodd" d="M17.8247 22.8763C17.7759 23.0031 17.7574 23.1393 17.7709 23.2743C17.7709 23.2921 17.8026 23.2907 17.804 23.2743C17.804 23.2087 17.8137 23.1376 17.822 23.0787C17.8379 23.0138 17.8458 22.9472 17.8454 22.8804C17.8454 22.8667 17.8289 22.8681 17.8247 22.8763Z" fill="#C66720"/>
<path fill-rule="evenodd" clip-rule="evenodd" d="M18.1853 23.1388C18.1853 23.0758 18.2157 23.0198 18.2213 22.9568C18.2205 22.9547 18.2191 22.9529 18.2172 22.9517C18.2154 22.9504 18.2132 22.9497 18.2109 22.9497C18.2086 22.9497 18.2064 22.9504 18.2046 22.9517C18.2027 22.9529 18.2013 22.9547 18.2005 22.9568C18.1604 23.0209 18.137 23.0938 18.1324 23.169C18.1278 23.2442 18.1422 23.3194 18.1743 23.3877C18.184 23.4082 18.2116 23.3877 18.2047 23.374C18.18 23.2981 18.1734 23.2176 18.1853 23.1388Z" fill="#C66720"/>
<path fill-rule="evenodd" clip-rule="evenodd" d="M18.5169 23.1853C18.5211 23.1228 18.5156 23.06 18.5003 22.9992C18.4988 22.9964 18.4965 22.994 18.4937 22.9923C18.4909 22.9906 18.4877 22.9897 18.4844 22.9897C18.4811 22.9897 18.4779 22.9906 18.4751 22.9923C18.4723 22.994 18.4701 22.9964 18.4685 22.9992C18.4568 23.0612 18.4568 23.1247 18.4685 23.1866C18.4725 23.258 18.485 23.3288 18.5058 23.3973C18.5058 23.4205 18.5486 23.415 18.5431 23.3973C18.5285 23.3274 18.5198 23.2565 18.5169 23.1853Z" fill="#C66720"/>
<path fill-rule="evenodd" clip-rule="evenodd" d="M30.946 20.0667C30.946 20.0517 30.9253 20.0435 30.9184 20.0558C30.907 20.0736 30.9009 20.0942 30.9009 20.1153C30.9009 20.1364 30.907 20.157 30.9184 20.1748C30.9405 20.2172 30.9943 20.2801 31.0468 20.2733C31.051 20.2723 31.0546 20.2697 31.0569 20.2662C31.0593 20.2626 31.0601 20.2583 31.0593 20.2541C31.0455 20.1803 30.9281 20.1502 30.946 20.0667Z" fill="#C66720"/>
<path fill-rule="evenodd" clip-rule="evenodd" d="M31.4448 19.8466C31.431 19.8247 31.4185 19.822 31.3937 19.8138C31.3597 19.8032 31.3295 19.7833 31.3067 19.7563C31.2625 19.7047 31.2317 19.6432 31.2169 19.5771C31.2164 19.5744 31.2153 19.5719 31.2137 19.5696C31.2122 19.5673 31.2102 19.5653 31.2079 19.5638C31.2056 19.5623 31.203 19.5612 31.2003 19.5607C31.1976 19.5602 31.1948 19.5602 31.192 19.5607C31.1893 19.5612 31.1867 19.5623 31.1844 19.5638C31.1821 19.5654 31.1801 19.5673 31.1786 19.5696C31.1771 19.5719 31.176 19.5745 31.1755 19.5772C31.1749 19.5799 31.1749 19.5826 31.1755 19.5853C31.1879 19.6608 31.2187 19.7322 31.2652 19.7932C31.2998 19.8356 31.3909 19.9054 31.4462 19.8671C31.4481 19.864 31.449 19.8603 31.4488 19.8566C31.4485 19.8529 31.4471 19.8494 31.4448 19.8466Z" fill="#C66720"/>
<path fill-rule="evenodd" clip-rule="evenodd" d="M31.6793 19.3829C31.6365 19.3405 31.5909 19.2981 31.5508 19.2529C31.5343 19.2338 31.4997 19.2529 31.5122 19.2762C31.5434 19.3312 31.5815 19.3822 31.6254 19.428C31.6627 19.4663 31.7041 19.5279 31.7635 19.532C31.7664 19.5322 31.7694 19.5318 31.7721 19.5308C31.7748 19.5297 31.7772 19.5281 31.7792 19.526C31.7812 19.5239 31.7827 19.5214 31.7836 19.5186C31.7845 19.5159 31.7847 19.5129 31.7843 19.5101C31.776 19.4568 31.7207 19.4212 31.6793 19.3829Z" fill="#C66720"/>
<path opacity="0.4" fill-rule="evenodd" clip-rule="evenodd" d="M21.5858 14.6216C21.5858 14.9978 21.0043 15.3055 20.2847 15.3055C19.5651 15.3055 18.9836 15.0005 18.9836 14.6216C18.9836 14.2428 19.5651 13.9377 20.2847 13.9377C21.0043 13.9377 21.5858 14.2455 21.5858 14.6216Z" fill="#DA840D"/>
<path fill-rule="evenodd" clip-rule="evenodd" d="M28.7097 20.3404C25.7761 19.6032 24.5482 21.2213 24.5966 23.1252C24.6159 23.8693 25.301 24.8952 25.7513 25.6707C26.1507 26.2903 26.6165 26.8654 27.1407 27.3859C27.4722 27.6198 27.9142 27.8893 28.3575 27.8893C28.5275 27.8727 28.69 27.8118 28.8285 27.7128C28.8934 27.7254 28.9562 27.747 29.015 27.7771C29.2249 27.8482 29.3175 27.5583 29.5467 27.6609C29.9127 27.8264 30.229 27.4899 30.5025 27.3066C30.5909 27.2478 31.4693 25.8991 31.5646 25.828C32.4693 24.6777 32.9251 24.3385 32.9348 22.942C32.9458 21.1966 32.0605 19.6333 28.7097 20.3404Z" fill="#C73A54"/>
<g style="mix-blend-mode:multiply">
<path fill-rule="evenodd" clip-rule="evenodd" d="M29.8218 20.7972C29.8218 20.9969 29.3052 21.172 28.6574 21.1884C28.0097 21.2048 27.4807 21.0516 27.4751 20.856C27.4696 20.6604 27.9917 20.4772 28.6395 20.4648C29.2872 20.4525 29.8162 20.5975 29.8218 20.7972Z" fill="#ED6366"/>
</g>
<path fill-rule="evenodd" clip-rule="evenodd" d="M26.8619 21.443C26.6036 21.0559 26.0746 21.1694 25.7473 21.3964L25.7307 21.4088C25.6547 21.4596 25.586 21.5203 25.5263 21.5893C25.2935 21.834 25.1459 22.146 25.105 22.4797C25.065 22.8901 25.2045 23.3456 25.5622 23.5275C25.5723 23.5326 25.5805 23.5407 25.5857 23.5507C25.5994 23.5479 25.6128 23.5438 25.6257 23.5384C25.8274 23.4564 25.8177 23.1281 25.8191 22.9612C25.8191 22.5905 26.1299 22.4264 26.4144 22.2677C26.6754 22.1186 27.0884 21.7835 26.8619 21.443Z" fill="#ED6366"/>
<g style="mix-blend-mode:multiply">
<path fill-rule="evenodd" clip-rule="evenodd" d="M31.5356 24.6024C31.2925 24.2919 30.9279 24.6708 30.7539 24.8623C30.3492 25.3068 30.0964 25.8553 29.6185 26.241C29.1406 26.6267 28.2733 26.3463 27.9017 26.9071C27.8844 26.9341 27.8725 26.9643 27.867 26.9958C27.8614 27.0274 27.8621 27.0597 27.8692 27.091C27.8763 27.1222 27.8895 27.1518 27.9081 27.178C27.9267 27.2042 27.9504 27.2265 27.9777 27.2436C28.0163 27.2586 28.0567 27.2687 28.0979 27.2737C28.1838 27.3214 28.2771 27.3547 28.3741 27.3722C28.6771 27.4114 28.9848 27.3539 29.2525 27.208C29.4956 27.0931 29.7705 27.2272 30.0122 27.1136C30.1015 27.0654 30.1785 26.9976 30.2373 26.9153C30.3148 26.8263 30.3798 26.7274 30.4307 26.6212C30.5522 26.422 30.6909 26.2334 30.845 26.0577C31.0324 25.8471 31.2019 25.6216 31.3519 25.3834C31.5315 25.1276 31.6944 24.8075 31.5356 24.6024Z" fill="#ED6366"/>
</g>
<path fill-rule="evenodd" clip-rule="evenodd" d="M31.4585 17.7415C31.2955 17.6868 30.9958 17.933 30.8687 18.0082C30.5787 18.1806 30.2845 18.3543 30.0055 18.543C29.5817 18.8374 29.2305 19.2226 28.9779 19.6701C28.8726 19.8606 28.802 20.0681 28.7694 20.2829C28.7265 20.3956 28.7049 20.5153 28.7058 20.6358C28.7051 20.6442 28.706 20.6527 28.7086 20.6608C28.7112 20.6689 28.7153 20.6764 28.7209 20.6829C28.7264 20.6894 28.7331 20.6947 28.7407 20.6986C28.7484 20.7025 28.7567 20.7048 28.7652 20.7055C29.4724 20.7137 30.1961 20.2555 30.6906 19.7946C30.9497 19.5684 31.1549 19.2881 31.2914 18.9739C31.3594 18.7967 31.4103 18.6135 31.4433 18.4268C31.482 18.2271 31.424 17.985 31.4889 17.8003C31.4924 17.7885 31.4912 17.7758 31.4856 17.7649C31.4799 17.7539 31.4702 17.7456 31.4585 17.7415Z" fill="#8DB54F"/>
<path fill-rule="evenodd" clip-rule="evenodd" d="M28.5869 20.681C28.5869 20.4854 28.6463 20.3636 28.7029 19.7481C28.7596 19.1326 28.7485 18.8249 28.7899 18.7236C28.8314 18.6224 29.1629 18.8372 29.1629 18.8372C29.1629 18.8372 29.0565 19.3091 28.9778 19.6962C28.8991 20.0832 28.8203 20.7794 28.8203 20.7794C28.8203 20.7794 28.7775 20.893 28.6739 20.8643C28.5703 20.8355 28.5869 20.681 28.5869 20.681Z" fill="#300D33"/>
<defs>
<linearGradient id="paint0_linear_430_13" x1="40" y1="40" x2="-13.3117" y2="35.8747" gradientUnits="userSpaceOnUse">
<stop stop-color="#92A3FD"/>
<stop offset="1" stop-color="#9DCEFF"/>
</linearGradient>
</defs>
</svg>
