<svg width="206" height="295" viewBox="0 0 206 295" fill="none" xmlns="http://www.w3.org/2000/svg">
<path d="M99.6283 294.405C94.9645 294.414 90.3132 293.919 85.7549 292.929C77.7874 291.288 70.2822 287.894 63.7799 282.992C57.2777 278.091 51.9401 271.804 48.1519 264.585C45.1459 257.832 42.9128 250.76 41.4955 243.502L41.1685 242.12C36.4973 222.162 30.6116 201.056 19.7511 181.988C17.9994 178.919 16.0842 175.85 14.2391 172.899C9.7752 166.215 5.99572 159.097 2.9582 151.652C-1.71298 138.885 -0.848812 126.189 5.52735 117.826C6.36726 116.527 7.46011 115.411 8.74036 114.545C10.0206 113.68 11.4619 113.083 12.9779 112.789C13.9016 112.677 14.8385 112.757 15.7304 113.023C16.6222 113.289 17.4502 113.735 18.1629 114.335C18.7189 114.78 19.1748 115.338 19.5008 115.971C19.8269 116.605 20.0156 117.301 20.0547 118.013H18.5366C18.5 117.517 18.3607 117.033 18.1275 116.593C17.8942 116.154 17.5722 115.768 17.1819 115.46C16.6274 114.998 15.9862 114.652 15.2963 114.443C14.6063 114.234 13.8815 114.165 13.1647 114.242C10.5334 114.843 8.23367 116.437 6.74186 118.693C0.692677 126.681 -0.264915 138.791 4.40627 151.066C7.41806 158.458 11.1745 165.522 15.6171 172.149C17.4622 175.124 19.3774 178.193 21.1525 181.285C32.0363 200.493 37.9921 221.717 42.6632 241.792L42.9902 243.174C44.3779 250.311 46.5719 257.267 49.5299 263.906C53.2112 270.921 58.3997 277.029 64.7207 281.789C71.0418 286.549 78.3377 289.842 86.0819 291.43C101.741 294.543 117.988 292.334 132.257 285.152C137.969 282.599 143.127 278.946 147.438 274.4C151.823 269.077 155.202 262.996 157.411 256.456C161.311 246.196 164.418 235.374 167.22 224.949C171.541 209.395 176.002 193.302 183.569 178.731C185.905 174.468 188.241 170.275 190.716 166.222C195.352 158.949 199.264 151.236 202.394 143.195C205.08 135.559 205.197 129.14 202.768 124.455C201.915 122.893 200.73 121.537 199.298 120.485C197.865 119.432 196.219 118.709 194.477 118.365C193.26 118.076 191.993 118.076 190.777 118.365C189.561 118.654 188.428 119.223 187.47 120.028L186.466 118.88C187.592 117.913 188.929 117.223 190.368 116.865C191.807 116.507 193.31 116.491 194.757 116.818C196.734 117.228 198.596 118.07 200.211 119.285C201.826 120.5 203.154 122.057 204.099 123.846C206.738 129 206.622 135.699 203.796 143.758C200.632 151.9 196.657 159.701 191.931 167.042C189.595 171.095 187.026 175.264 184.924 179.481C177.45 193.911 173.013 209.934 168.715 225.395C165.796 235.889 162.783 246.735 158.836 257.042C156.578 263.763 153.11 270.011 148.606 275.478C144.154 280.168 138.83 283.94 132.934 286.581C122.553 291.649 111.173 294.323 99.6283 294.405Z" fill="#AB8DA8"/>
<path d="M116.771 21.6409C117.979 19.7184 118.67 17.5155 118.78 15.2458C118.911 14.2265 118.819 13.1906 118.508 12.2111C118.197 11.2316 117.676 10.3324 116.981 9.57692C116.397 9.01471 115.673 8.56963 115.136 7.96057C114.599 7.35151 114.342 6.71903 113.898 6.1334C113.417 5.50512 112.798 4.99653 112.089 4.64714C111.38 4.29775 110.601 4.11697 109.811 4.11883C108.199 4.11883 106.494 4.86844 105.14 4.11883C104.299 3.69718 103.738 2.85387 102.804 2.38536C101.925 1.93652 100.916 1.81214 99.9547 2.03398C99.1148 2.3278 98.2278 2.46282 97.3388 2.43221C96.0776 2.24481 95.2134 1.1204 94.0924 0.487916C93.5161 0.192401 92.8823 0.0268989 92.2355 0.00301394C91.5887 -0.020871 90.9445 0.0974398 90.3481 0.34965C89.7517 0.601861 89.2176 0.981865 88.7831 1.46302C88.3486 1.94417 88.0243 2.51483 87.833 3.13497C87.6807 3.72652 87.6807 4.34717 87.833 4.93871C88.0899 6.36765 89.0708 7.51549 89.1409 8.94443C89.211 10.3734 88.3468 11.6149 89.1409 12.8799C89.935 14.1448 91.1028 14.1917 91.6633 15.3864C92.4107 17.0027 91.6633 19.111 92.3407 20.8445C92.691 21.9455 92.8778 23.5149 93.9055 24.2177C95.3302 25.2016 98.4366 24.3817 100.142 24.2177L106.751 23.6789C109.671 23.3978 113.268 23.6789 115.907 22.2266C116.225 22.0812 116.518 21.8832 116.771 21.6409Z" fill="#3B2645"/>
<path d="M94.35 20.6097C94.1181 20.2903 93.8142 20.0304 93.4631 19.8512C93.112 19.672 92.7236 19.5786 92.3297 19.5786C91.9357 19.5786 91.5474 19.672 91.1963 19.8512C90.8452 20.0304 90.5413 20.2903 90.3094 20.6097C88.2774 22.9523 91.7107 27.6373 94.35 27.9184C94.5036 25.4846 94.5036 23.0435 94.35 20.6097Z" fill="#E0855C"/>
<path d="M127.165 59.8481C126.549 63.794 125.723 67.7038 124.689 71.5607C124.526 72.2869 124.386 72.9897 124.292 73.669C124.199 74.3484 124.105 74.8637 123.989 75.7304C123.989 75.8944 123.989 76.0818 123.989 76.2458C123.989 76.808 123.825 77.3936 123.755 78.0261L120.812 105.551C102.524 110.587 83.4427 105.551 83.4427 105.551C83.4427 105.551 83.4427 105.199 83.4427 104.52C83.1391 101.405 82.2049 91.4956 81.2706 80.3218C81.2706 80.3218 81.2706 80.1578 81.2706 80.0875C81.2801 79.9159 81.2801 79.7438 81.2706 79.5722C80.8736 74.8871 80.4999 69.921 80.1963 65.1891C79.6357 56.9668 79.2854 49.377 79.3554 44.6686C79.3554 42.9351 83.396 43.1225 86.152 42.7477C88.184 42.4666 90.2627 42.2792 92.0611 42.1855C93.8595 42.0918 95.2141 42.0449 96.125 42.0449H97.1526C97.1526 42.0449 97.3862 39.351 97.3862 39.3276L98.0168 32.7217C98.3234 32.801 98.6358 32.8558 98.951 32.8856C99.5291 32.9943 100.115 33.057 100.703 33.0731C101.473 33.0731 102.198 33.0731 102.875 33.0731L103.879 32.9559H104.463C105.117 32.8388 105.748 32.6982 106.332 32.5343C106.915 32.3703 107.102 32.3 107.476 32.1829C109.182 31.6345 110.802 30.8458 112.287 29.8404L112.497 29.6998L112.895 29.3953L113.175 29.1845C113.175 29.5124 113.175 29.653 113.175 29.7935C112.988 31.3396 112.778 33.3073 112.684 35.2516C112.684 36.6103 112.544 37.9455 112.497 39.0933C112.451 40.2412 112.077 41.9044 112.895 42.49C113.186 42.6544 113.501 42.7729 113.829 42.8414C115.111 43.0444 116.408 43.1307 117.706 43.0991C118.103 43.0991 118.5 43.0991 118.897 43.0991C119.893 43.0409 120.891 43.0409 121.887 43.0991C122.582 43.097 123.272 43.2349 123.913 43.5044C124.555 43.774 125.137 44.1698 125.623 44.6686C126.229 45.5475 126.613 46.5601 126.745 47.6201L127.025 49.541C127.469 52.9597 127.516 56.4186 127.165 59.8481Z" fill="#FFEDE5"/>
<path d="M113.081 29.0197C112.765 30.6961 112.083 32.2815 111.083 33.6619C110.084 35.0423 108.792 36.1834 107.3 37.0032C105.808 37.823 104.154 38.3011 102.456 38.4032C100.758 38.5052 99.0582 38.2286 97.4795 37.5933L97.9232 32.7443C100.568 33.256 103.292 33.1881 105.909 32.5453C108.525 31.9024 110.972 30.6997 113.081 29.0197Z" fill="#E0855C"/>
<path d="M94.8175 13.5833C93.4629 14.9888 93.3461 18.1278 93.2526 21.5948C92.9023 32.1361 96.0554 35.4157 101.404 36.0013C106.752 36.5869 112.381 34.5021 113.526 24.7572C114.109 19.8613 114.717 15.3871 112.942 13.2554C110.396 10.1164 98.9281 9.27309 94.8175 13.5833Z" fill="#FFEDE5"/>
<path d="M112.732 23.3284C112.732 23.3284 114.367 18.9713 116.959 21.2904C119.552 23.6095 115.978 30.192 112.008 29.7001C112.054 29.7001 111.517 24.8276 112.732 23.3284Z" fill="#FFEDE5"/>
<path d="M115.814 23.2809C115.201 23.473 114.652 23.8294 114.226 24.3116C113.744 24.7157 113.353 25.219 113.082 25.7874C113.082 25.9513 113.245 26.0685 113.362 25.9513C113.691 25.6244 114.003 25.2804 114.296 24.9206C114.509 25.1563 114.773 25.3404 115.067 25.4594C115.3 25.4594 115.487 25.2486 115.394 25.0612C115.232 24.8131 115.016 24.6049 114.763 24.4521C115.199 24.1721 115.613 23.8589 116.001 23.5151C116.008 23.4869 116.009 23.4574 116.003 23.429C115.997 23.4005 115.984 23.3738 115.966 23.3511C115.948 23.3284 115.925 23.3102 115.898 23.298C115.872 23.2858 115.843 23.2799 115.814 23.2809Z" fill="#E0855C"/>
<path d="M97.8533 21.3597C97.8533 21.3597 96.9424 21.6876 97.0825 20.0713C97.2227 18.455 97.8533 18.8298 97.8533 18.8298C97.8533 18.8298 98.4839 18.8298 98.3905 20.0947C98.297 21.3597 97.8533 21.3597 97.8533 21.3597Z" fill="#3B2645"/>
<path d="M107.032 21.3597C107.032 21.3597 106.145 21.6876 106.285 20.0713C106.425 18.455 107.032 18.8298 107.032 18.8298C107.032 18.8298 107.663 18.8298 107.569 20.0947C107.476 21.3597 107.032 21.3597 107.032 21.3597Z" fill="#3B2645"/>
<path d="M98.8344 16.464C98.4674 16.2555 98.0444 16.1683 97.6251 16.2145C97.2059 16.2608 96.8119 16.4382 96.4988 16.7216C96.483 16.7537 96.4755 16.7892 96.4771 16.8249C96.4788 16.8607 96.4894 16.8954 96.5081 16.9258C96.5268 16.9563 96.5529 16.9815 96.584 16.999C96.615 17.0166 96.65 17.0259 96.6857 17.0262C97.0127 17.0262 97.2929 16.8388 97.6199 16.8153C97.9624 16.799 98.3046 16.8548 98.6242 16.9793C98.9278 17.073 99.1381 16.6045 98.8344 16.464Z" fill="#3B2645"/>
<path d="M108.41 17.2612C108.036 16.3242 106.425 16.2539 105.724 16.8161C105.69 16.8424 105.663 16.8761 105.644 16.9147C105.625 16.9532 105.615 16.9957 105.615 17.0386C105.615 17.0816 105.625 17.124 105.644 17.1626C105.663 17.2012 105.69 17.2349 105.724 17.2612C106.144 17.2963 106.566 17.2963 106.985 17.2612C107.325 17.316 107.655 17.4186 107.966 17.5657C108.007 17.6247 108.069 17.6653 108.139 17.6785C108.209 17.6917 108.281 17.6764 108.34 17.636C108.399 17.5956 108.439 17.5334 108.453 17.4631C108.466 17.3929 108.45 17.3202 108.41 17.2612Z" fill="#3B2645"/>
<path d="M99.6983 28.9027C101.669 29.1617 103.671 28.8188 105.444 27.9188C105.179 28.5439 104.786 29.1064 104.291 29.5704C103.797 30.0343 103.211 30.3893 102.571 30.6127C100.539 31.1749 99.6983 28.9027 99.6983 28.9027Z" fill="white"/>
<path d="M87.9032 44.6447C93.275 48.4162 93.7655 55.7483 91.1496 61.6046C89.3746 65.5166 86.0814 68.2574 84.1429 71.9586C82.1228 75.5482 79.7773 78.9436 77.1361 82.1017C71.3438 89.4807 65.8318 96.1569 63.7064 98.6868C56.396 107.448 41.0279 119.02 35.4925 123.049C34.2313 123.986 33.4839 124.501 33.4839 124.501C33.4839 124.501 28.1821 121.714 29.5835 116.56C29.5835 116.56 50.6038 94.1657 53.7101 89.5978C57.1429 83.6605 60.2614 77.5458 63.0525 71.2792C66.6337 64.3297 70.3629 57.474 74.24 50.7119C76.015 47.5963 78.2805 43.6843 82.181 42.9815C83.755 42.8041 85.3441 43.141 86.712 43.942C87.1253 44.1474 87.5233 44.3823 87.9032 44.6447Z" fill="#FFEDE5"/>
<path d="M29.5842 116.584C30.1594 116.54 30.7372 116.54 31.3125 116.584C31.3125 116.584 36.3574 119.395 35.4932 123.049C35.4932 123.049 34.956 123.541 34.1152 124.291C33.2744 125.041 32.3635 125.931 31.2658 127.055C30.1681 128.18 27.669 131.74 26.5946 131.436C26.3442 131.343 26.1254 131.18 25.964 130.967L23.7919 128.625C22.5774 127.266 20.5454 124.97 22.0869 123.167C20.9658 123.846 18.35 125.509 17.0654 124.713L16.5282 123.846C16.5282 123.846 20.3819 120.965 21.9701 119.536C24.1127 117.734 26.7905 116.696 29.5842 116.584Z" fill="#FFEDE5"/>
<path d="M94.28 80.5325C94.2719 80.6574 94.2719 80.7828 94.28 80.9078C94.28 80.9078 94.4905 80.9078 94.4437 80.9078L94.28 80.5325Z" fill="#D6BED3"/>
<path d="M102.945 156.454C100.796 173.718 98.2735 188.734 98.2735 188.734C98.6239 192.903 98.7873 197.425 98.7873 202.063C98.7873 211.152 98.1801 220.803 97.4093 229.306C96.4284 240.152 95.0738 249.382 94.4899 254.02V254.606C95.354 285.363 86.6189 289.439 82.5316 282.716C78.4443 275.993 82.5316 256.175 82.5316 256.175C82.5448 255.996 82.5448 255.816 82.5316 255.636C80.8121 246.432 79.6654 237.13 79.0983 227.784C77.697 205.155 80.1026 189.671 79.8223 186.86C74.941 137.667 81.7609 110.54 81.7609 110.54C82.8257 106.599 84.748 102.943 87.3897 99.8349C92.3645 94.4471 98.3436 95.8058 102.104 102.388C102.499 103.063 102.858 103.759 103.178 104.473C104.71 108.254 105.58 112.272 105.747 116.35C106.121 126.54 104.696 142.258 102.945 156.454Z" fill="#FFEDE5"/>
<path d="M127.072 226.589C126.528 236.13 125.39 245.628 123.662 255.027L123.451 256.175C123.451 256.175 127.539 276.063 123.451 282.716C119.364 289.368 110.723 285.48 111.493 255.027C111.493 254.886 111.493 254.746 111.493 254.629C110.839 250.225 109.531 240.691 108.504 229.4C107.71 220.826 107.102 211.222 107.102 202.133C107.102 197.448 107.289 192.95 107.64 188.757C107.64 188.757 105.047 173.741 102.968 156.5C101.217 142.281 99.7686 126.563 100.376 116.467C100.551 112.387 101.428 108.369 102.968 104.59C103.274 103.854 103.633 103.142 104.043 102.458C108.364 94.9388 115.557 94.2829 120.859 102.763C122.378 105.221 123.571 107.867 124.409 110.634C124.409 110.634 131.229 137.69 126.348 186.953C125.997 189.717 128.31 204.663 127.072 226.589Z" fill="#FFEDE5"/>
<path d="M29.0232 131.787C29.4885 132.327 30.0665 132.758 30.7163 133.05C31.3661 133.341 32.0718 133.486 32.7835 133.474C33.1095 133.398 33.4168 133.256 33.6867 133.057C33.9566 132.859 34.1835 132.607 34.3538 132.318C34.5241 132.029 34.6342 131.709 34.6774 131.376C34.7206 131.043 34.6961 130.705 34.6053 130.382C34.3337 129.669 33.8927 129.034 33.3207 128.531C29.794 125.017 26.1738 121.503 22.5069 118.247C21.8941 117.554 21.0752 117.078 20.1713 116.889C19.3307 116.888 18.5173 117.187 17.8757 117.732C17.2342 118.277 16.8062 119.032 16.6679 119.864C16.6679 121.363 17.9525 121.925 19.0035 122.768C22.3201 125.72 25.6366 128.812 29.0232 131.787Z" fill="#3B2645"/>
<path d="M28.5092 127.64C28.6545 127.489 28.773 127.315 28.8595 127.124C28.9187 126.882 28.9221 126.63 28.8695 126.387C28.8169 126.143 28.7096 125.915 28.5559 125.719C27.6917 124.29 25.9167 121.994 24.165 121.783C23.5866 121.754 23.0107 121.877 22.4944 122.14C21.9781 122.403 21.5395 122.797 21.2221 123.283C20.698 124.039 20.3647 124.912 20.2507 125.826C20.1368 126.739 20.2458 127.668 20.5682 128.53C21.0808 130.081 22.1339 131.395 23.5344 132.231C24.2332 132.528 25.0194 132.543 25.7289 132.272C26.4383 132.002 27.016 131.467 27.3414 130.779C27.6917 129.912 27.5749 128.858 28.1355 128.132C28.2418 127.955 28.3671 127.79 28.5092 127.64Z" fill="#FFEDE5"/>
<path d="M117.893 44.6452C112.498 48.4167 112.007 55.7488 114.646 61.6051C116.398 65.5171 119.691 68.2579 121.653 71.9591C123.69 75.5384 126.034 78.9323 128.66 82.1022C134.452 89.4812 139.988 96.1574 142.09 98.6873C149.423 107.495 164.792 119.02 170.327 123.05L172.359 124.502C172.359 124.502 177.637 121.714 176.236 116.561C176.236 116.561 155.216 94.1662 152.109 89.5983C148.667 83.6661 145.548 77.5509 142.767 71.2797C139.17 64.2522 135.457 57.4823 131.556 50.7124C129.781 47.5968 127.539 43.6848 123.615 42.982C122.041 42.8063 120.453 43.143 119.084 43.9425C118.67 44.1469 118.272 44.3818 117.893 44.6452Z" fill="#FFEDE5"/>
<path d="M176.213 116.584C175.63 116.54 175.044 116.54 174.461 116.584C174.461 116.584 169.416 119.395 170.28 123.049C170.28 123.049 170.841 123.541 171.658 124.291C172.476 125.04 173.433 125.931 174.508 127.055C175.582 128.179 178.128 131.74 179.179 131.435C179.426 131.336 179.643 131.175 179.81 130.967L181.958 128.624C183.196 127.266 185.205 124.97 183.687 123.166C184.784 123.846 187.4 125.509 188.708 124.712L189.152 123.846C189.152 123.846 185.298 120.964 183.687 119.535C181.585 117.756 178.959 116.719 176.213 116.584Z" fill="#FFEDE5"/>
<path d="M176.75 131.787C176.285 132.327 175.707 132.758 175.057 133.05C174.407 133.341 173.701 133.486 172.99 133.474C172.659 133.403 172.347 133.265 172.072 133.069C171.797 132.872 171.565 132.622 171.39 132.332C171.215 132.043 171.1 131.72 171.054 131.385C171.008 131.049 171.031 130.708 171.121 130.381C171.412 129.7 171.861 129.098 172.429 128.624C175.964 125.111 179.576 121.683 183.266 118.341C183.876 117.644 184.696 117.167 185.602 116.982C186.44 116.983 187.25 117.282 187.888 117.827C188.525 118.372 188.949 119.127 189.082 119.957C189.082 121.456 187.821 122.019 186.746 122.862C183.453 125.72 180.137 128.812 176.75 131.787Z" fill="#3B2645"/>
<path d="M177.287 127.64C177.128 127.496 177 127.321 176.913 127.124C176.864 126.88 176.868 126.628 176.924 126.386C176.98 126.143 177.088 125.916 177.24 125.719C178.081 124.29 179.856 121.994 181.608 121.783C182.186 121.754 182.762 121.877 183.278 122.14C183.795 122.403 184.233 122.797 184.551 123.283C185.069 124.043 185.393 124.918 185.495 125.833C185.597 126.748 185.473 127.674 185.135 128.53C184.637 130.09 183.58 131.409 182.168 132.231C181.47 132.528 180.683 132.543 179.974 132.272C179.264 132.002 178.687 131.467 178.361 130.779C178.034 129.912 178.151 128.858 177.567 128.132L177.287 127.64Z" fill="#FFEDE5"/>
<path d="M127.422 211.573V213.915C127.422 215.485 127.422 217.101 127.422 218.764V220.662C127.422 222.582 127.282 224.574 127.188 226.612C121.141 228.285 114.915 229.221 108.644 229.399C108.387 226.776 107.873 219.795 107.85 219.022C107.85 217.429 107.499 212.931 107.476 212.322C107.336 208.902 107.243 205.482 107.243 202.132C107.243 197.775 107.406 193.512 107.733 189.553C107.733 189.272 107.733 189.014 107.733 188.756C107.733 188.499 105.14 173.764 103.062 156.5C102.828 158.327 102.595 160.154 102.361 161.911C100.399 176.763 98.3206 188.756 98.3206 188.756C98.6709 192.926 98.8344 197.447 98.8344 202.085C98.8344 205.623 98.8344 209.113 98.5775 212.814C98.5775 213.423 98.1104 221.247 98.0403 221.997C97.8768 224.503 97.6666 226.963 97.4564 229.329C94.1866 229.188 90.9635 228.978 87.7637 228.696C85.2413 228.486 82.0649 228.345 78.9819 227.9C78.8417 225.792 78.7483 223.777 78.6782 221.809C78.6782 221.318 78.6782 220.826 78.6782 220.334C78.6782 218.179 78.6782 216.141 78.6782 214.173V212.627C78.6782 198.431 80.0562 189.084 79.846 186.859C74.9647 137.666 81.7846 110.54 81.7846 110.54C82.8493 106.598 84.7717 102.942 87.4134 99.8342C89.4155 100.145 91.38 100.663 93.2757 101.38C96.1634 102.137 99.1442 102.476 102.128 102.388H104.276C106.869 102.388 109.461 102.083 112.03 102.013H113.759C116.222 101.976 118.681 102.212 121.093 102.715C122.534 105.2 123.649 107.862 124.409 110.633C126.296 119.475 127.406 128.466 127.726 137.502C128.517 153.997 128.056 170.528 126.348 186.953C126.067 189.038 127.305 197.963 127.422 211.573Z" fill="#3B2645"/>
<path d="M94.3498 254.605C94.6768 266.716 93.5323 274.681 91.7573 279.483C89.048 286.909 84.7505 286.815 82.4149 282.809C81.7841 281.698 81.3496 280.485 81.1304 279.225C79.4254 270.862 82.4149 256.268 82.4149 256.268C82.4281 256.089 82.4281 255.909 82.4149 255.73C83.577 256.58 84.8943 257.193 86.292 257.533C87.8603 257.92 89.5111 257.786 90.9974 257.153C92.4836 256.519 93.7253 255.42 94.5366 254.02L94.3498 254.605Z" fill="#AB8DA8"/>
<path d="M124.853 278.569C124.653 280.058 124.178 281.496 123.451 282.809C120.929 286.932 116.585 286.909 113.899 278.921C112.264 274.236 111.213 266.435 111.563 255.004C113.312 256.58 115.565 257.477 117.916 257.533C120.013 257.34 122.005 256.524 123.638 255.191C123.681 255.557 123.681 255.926 123.638 256.292C123.638 256.292 126.301 270.113 124.853 278.569Z" fill="#AB8DA8"/>
<path d="M90.8229 261.797C89.6399 261.089 88.2881 260.716 86.9107 260.716C85.5334 260.716 84.1816 261.089 82.9986 261.797C82.9548 261.846 82.9255 261.906 82.914 261.97C82.9025 262.035 82.9092 262.102 82.9336 262.163C82.9579 262.224 82.9988 262.277 83.0515 262.315C83.1043 262.354 83.1669 262.378 83.2322 262.383C84.4 262.383 85.5678 261.891 86.6655 261.914C87.9504 262.023 89.2193 262.275 90.4492 262.664C90.5544 262.677 90.6611 262.655 90.7531 262.602C90.8452 262.55 90.9177 262.468 90.9598 262.371C91.0019 262.273 91.0113 262.164 90.9866 262.061C90.9619 261.957 90.9045 261.865 90.8229 261.797Z" fill="#291B30"/>
<path d="M90.449 265.545C88.4546 264.379 86.1141 263.956 83.8393 264.35C83.0686 264.35 83.0452 265.638 83.8393 265.568C84.9382 265.462 86.0465 265.509 87.1325 265.709C88.1368 265.896 89.0477 266.318 90.052 266.528C90.1756 266.555 90.3046 266.537 90.4162 266.478C90.5279 266.418 90.6151 266.321 90.6625 266.204C90.71 266.086 90.7146 265.956 90.6755 265.835C90.6365 265.715 90.5563 265.612 90.449 265.545Z" fill="#291B30"/>
<path d="M121.372 261.797C119.597 261.188 115.744 260.954 114.366 262.594C114.179 262.805 114.366 263.25 114.622 263.226C115.72 263.086 116.678 262.641 117.822 262.594C118.967 262.547 120.158 262.851 121.232 262.781C121.297 262.79 121.362 262.787 121.425 262.771C121.488 262.754 121.547 262.726 121.6 262.687C121.652 262.648 121.695 262.598 121.729 262.542C121.762 262.486 121.784 262.424 121.793 262.359C121.802 262.295 121.798 262.229 121.782 262.166C121.766 262.103 121.738 262.043 121.699 261.991C121.66 261.939 121.611 261.895 121.555 261.862C121.499 261.828 121.437 261.806 121.372 261.797Z" fill="#291B30"/>
<path d="M122.237 265.755C120.299 264.889 115.464 264.256 114.483 266.88C114.343 267.231 114.787 267.512 115.067 267.348C116.076 266.784 117.201 266.459 118.355 266.398C119.508 266.337 120.661 266.542 121.723 266.997C122.424 267.278 122.961 266.06 122.237 265.755Z" fill="#291B30"/>
<path d="M33.8113 41.857C33.8113 41.7164 33.5311 41.7164 33.5077 41.857C32.3399 49.845 33.0172 58.2547 33.0172 66.4301C33.0172 75.074 32.737 83.7882 33.2508 92.4087C33.2729 92.5007 33.3252 92.5826 33.3994 92.6412C33.4735 92.6998 33.5651 92.7316 33.6595 92.7316C33.7539 92.7316 33.8455 92.6998 33.9197 92.6412C33.9938 92.5826 34.0461 92.5007 34.0682 92.4087C34.5587 83.7882 34.2784 75.074 34.2784 66.4301C34.2784 58.4421 34.9558 49.9153 33.8113 41.857Z" fill="#F7F8F8"/>
<path d="M44.0182 44.5744C43.9933 44.4594 43.9299 44.3563 43.8385 44.2825C43.7472 44.2086 43.6334 44.1683 43.516 44.1683C43.3987 44.1683 43.2848 44.2086 43.1935 44.2825C43.1021 44.3563 43.0387 44.4594 43.0139 44.5744C43.0139 52.2579 42.5234 60.0819 43.0139 67.742C43.0139 67.8724 43.0655 67.9976 43.1575 68.0898C43.2495 68.1821 43.3743 68.2339 43.5043 68.2339C43.6344 68.2339 43.7592 68.1821 43.8512 68.0898C43.9431 67.9976 43.9948 67.8724 43.9948 67.742C44.532 60.0819 44.0649 52.2579 44.0182 44.5744Z" fill="#F7F8F8"/>
<path d="M148.442 125.016C148.423 124.947 148.382 124.886 148.325 124.843C148.268 124.799 148.198 124.775 148.126 124.775C148.055 124.775 147.985 124.799 147.928 124.843C147.871 124.886 147.83 124.947 147.811 125.016C147.153 135.075 147.021 145.162 147.414 155.235C147.414 165.308 147.414 175.357 147.788 185.43C147.808 185.505 147.852 185.571 147.913 185.619C147.974 185.666 148.049 185.692 148.126 185.692C148.204 185.692 148.279 185.666 148.34 185.619C148.401 185.571 148.445 185.505 148.465 185.43C148.792 175.357 148.792 165.308 148.839 155.235C149.22 145.162 149.088 135.076 148.442 125.016Z" fill="#F7F8F8"/>
<path d="M166.45 66.1024C166.377 59.3995 165.941 52.7056 165.142 46.0504C165.142 45.6522 164.511 45.7693 164.488 46.0504C164.308 53.2481 164.518 60.4503 165.119 67.625C165.422 74.3012 165.352 81.1414 166.24 87.7473C166.24 88.3564 167.267 88.169 167.291 87.6068C167.618 80.4621 166.87 73.1768 166.45 66.1024Z" fill="#F7F8F8"/>
<path d="M171.121 69.8268C171.104 69.7744 171.072 69.7286 171.028 69.696C170.984 69.6635 170.93 69.6459 170.875 69.6459C170.821 69.6459 170.767 69.6635 170.723 69.696C170.679 69.7286 170.647 69.7744 170.63 69.8268C170.011 79.4511 169.965 89.1037 170.49 98.7336C170.476 98.7922 170.475 98.8535 170.487 98.9126C170.5 98.9717 170.526 99.0272 170.563 99.0748C170.6 99.1224 170.647 99.1609 170.702 99.1874C170.756 99.2139 170.815 99.2277 170.875 99.2277C170.936 99.2277 170.995 99.2139 171.049 99.1874C171.104 99.1609 171.151 99.1224 171.188 99.0748C171.225 99.0272 171.251 98.9717 171.264 98.9126C171.276 98.8535 171.275 98.7922 171.261 98.7336C171.786 89.1037 171.74 79.4511 171.121 69.8268Z" fill="#F7F8F8"/>
<path d="M102.244 161.888C102.28 160.064 102.515 158.25 102.945 156.477C102.711 158.304 102.478 160.131 102.244 161.888Z" fill="#291B30"/>
<path d="M127.656 137.503C124.503 118.505 98.4608 117.615 98.4608 117.615C96.8492 109.791 107.359 107.448 107.359 107.448L113.502 102.131C115.965 102.094 118.424 102.33 120.836 102.833C122.357 105.268 123.558 107.89 124.409 110.634C126.257 119.48 127.344 128.47 127.656 137.503Z" fill="#291B30"/>
<path d="M124.782 112.672C103.762 122.58 80.9198 113.491 80.9198 113.491C82.578 108.806 81.3402 84.9126 81.2234 80.3681C81.2234 80.3681 81.2234 80.2042 81.2234 80.1339C81.2328 79.9622 81.2328 79.7902 81.2234 79.6185C85.6377 69.3583 86.1281 49.5873 86.1515 42.794C88.1367 42.4895 90.2154 42.3255 92.0138 42.2318C92.7145 49.8216 95.2136 69.288 102.174 68.4447C109.134 67.6014 112.45 50.2667 113.665 42.6769C114.945 42.8923 116.244 42.9787 117.542 42.9346C117.939 42.9346 118.336 42.9346 118.733 42.9346C118.126 53.312 123.871 75.1209 124.035 75.7299C124.035 75.8939 124.035 76.0813 124.035 76.2453C124.035 76.8075 123.871 77.3931 123.801 78.0256C123.801 78.0256 123.801 78.2833 123.801 78.4238C122.33 91.6357 124.782 112.672 124.782 112.672Z" fill="#AB8DA8"/>
</svg>
