<svg width="24" height="24" viewBox="0 0 24 24" fill="none" xmlns="http://www.w3.org/2000/svg">
<path fill-rule="evenodd" clip-rule="evenodd" d="M15.0402 4.0515C16.0502 4.4535 16.3592 5.8535 16.7722 6.3035C17.1852 6.7535 17.7762 6.9065 18.1032 6.9065C19.8412 6.9065 21.2502 8.3155 21.2502 10.0525V15.8475C21.2502 18.1775 19.3602 20.0675 17.0302 20.0675H6.97024C4.63924 20.0675 2.75024 18.1775 2.75024 15.8475V10.0525C2.75024 8.3155 4.15924 6.9065 5.89724 6.9065C6.22324 6.9065 6.81424 6.7535 7.22824 6.3035C7.64124 5.8535 7.94924 4.4535 8.95924 4.0515C9.97024 3.6495 14.0302 3.6495 15.0402 4.0515Z" stroke="white" stroke-width="1.2" stroke-linecap="round" stroke-linejoin="round"/>
<path d="M17.4955 9.5H17.5045" stroke="white" stroke-width="1.2" stroke-linecap="round" stroke-linejoin="round"/>
<path fill-rule="evenodd" clip-rule="evenodd" d="M15.179 13.1282C15.179 11.3722 13.756 9.94922 12 9.94922C10.244 9.94922 8.82104 11.3722 8.82104 13.1282C8.82104 14.8842 10.244 16.3072 12 16.3072C13.756 16.3072 15.179 14.8842 15.179 13.1282Z" stroke="white" stroke-width="1.2" stroke-linecap="round" stroke-linejoin="round"/>
</svg>
