<svg width="24" height="24" viewBox="0 0 24 24" fill="none" xmlns="http://www.w3.org/2000/svg">
<path fill-rule="evenodd" clip-rule="evenodd" d="M15.0402 4.0515C16.0502 4.4535 16.3592 5.8535 16.7722 6.3035C17.1852 6.7535 17.7762 6.9065 18.1032 6.9065C19.8412 6.9065 21.2502 8.3155 21.2502 10.0525V15.8475C21.2502 18.1775 19.3602 20.0675 17.0302 20.0675H6.97024C4.63924 20.0675 2.75024 18.1775 2.75024 15.8475V10.0525C2.75024 8.3155 4.15924 6.9065 5.89724 6.9065C6.22324 6.9065 6.81424 6.7535 7.22824 6.3035C7.64124 5.8535 7.94924 4.4535 8.95924 4.0515C9.97024 3.6495 14.0302 3.6495 15.0402 4.0515Z" stroke="#7B6F72" stroke-width="1.2" stroke-linecap="round" stroke-linejoin="round"/>
<path d="M17.4955 9.5H17.5045" stroke="#7B6F72" stroke-width="1.2" stroke-linecap="round" stroke-linejoin="round"/>
<path d="M15.0002 13.0508C15.0002 14.6796 13.6571 16 12.0002 16C10.3434 16 9.00024 14.6796 9.00024 13.0508C9.00024 11.4221 10.3336 10.1017 12.0002 10.1017C14.0002 10.1017 15.0002 11.7401 15.0002 11.7401M15.0002 11.7401L15.0002 10M15.0002 11.7401H13.4485" stroke="#7B6F72" stroke-linecap="round" stroke-linejoin="round"/>
</svg>
