<svg width="116" height="77" viewBox="0 0 116 77" fill="none" xmlns="http://www.w3.org/2000/svg">
<path d="M36.6513 72.2866H114.795C115.558 72.2866 116.089 71.6765 115.987 70.9196L108.089 12.9863C107.987 12.2294 107.294 11.6194 106.545 11.6194H29.4641C28.7154 11.6194 28.1792 12.2294 28.267 12.9863L35.1122 70.9196C35.2046 71.6765 35.8933 72.2866 36.6513 72.2866Z" fill="#3B2645"/>
<path d="M35.8886 72.2866H114.032C114.795 72.2866 115.326 71.6765 115.225 70.9196L107.321 12.9863C107.219 12.2294 106.526 11.6194 105.777 11.6194H28.7014C27.9527 11.6194 27.4165 12.2294 27.5043 12.9863L34.3495 70.9196C34.4419 71.6765 35.1306 72.2866 35.8886 72.2866Z" fill="url(#paint0_linear_700_3945)"/>
<path opacity="0.3" d="M111.009 40.0223L102.949 72.287H80.814L107.478 14.1243L111.009 40.0223Z" fill="#543753"/>
<path d="M99.3621 72.2866H21.2185C20.4559 72.2866 19.9243 71.6765 20.026 70.9196L27.925 12.9863C28.0267 12.2294 28.7199 11.6194 29.4687 11.6194H106.545C107.293 11.6194 107.83 12.2294 107.742 12.9863L100.897 70.9196C100.809 71.6765 100.12 72.2866 99.3621 72.2866Z" fill="#3B2645"/>
<path d="M98.5949 72.2866H20.4558C19.6932 72.2866 19.1616 71.6765 19.2633 70.9196L27.1623 12.9863C27.264 12.2294 27.9572 11.6194 28.706 11.6194H105.782C106.531 11.6194 107.067 12.2294 106.979 12.9863L100.134 70.9196C100.046 71.6765 99.3575 72.2866 98.5949 72.2866Z" fill="url(#paint1_linear_700_3945)"/>
<path d="M97.4206 70.8001H22.0364C21.8422 70.8001 21.6666 70.7268 21.5464 70.5892C21.4263 70.4515 21.3708 70.2681 21.3985 70.0708L27.8554 22.5499C27.9063 22.1646 28.2668 21.8481 28.6504 21.8481H103.212C103.401 21.8481 103.577 21.9215 103.697 22.0591C103.822 22.1967 103.878 22.3802 103.854 22.5774L98.2156 70.0938C98.1694 70.4837 97.8135 70.8001 97.4206 70.8001ZM28.6504 22.0545C28.3638 22.0545 28.0958 22.2884 28.0588 22.5774L21.6019 70.0983C21.5834 70.2314 21.6204 70.3598 21.699 70.4515C21.7822 70.5433 21.8977 70.5937 22.0317 70.5937H97.416C97.7072 70.5937 97.9706 70.3598 98.003 70.0708L103.642 22.5545C103.66 22.4169 103.619 22.293 103.535 22.1967C103.452 22.1049 103.337 22.0545 103.207 22.0545H28.6504Z" fill="white"/>
<path d="M83.1159 20.1976H51.8575C51.3676 20.1976 50.9285 20.0049 50.6189 19.6609C50.3046 19.3031 50.1659 18.8307 50.2306 18.3215C50.3647 17.3032 51.2983 16.473 52.3151 16.473H83.5504C84.0403 16.473 84.484 16.6656 84.7891 17.0096C85.108 17.3674 85.2467 17.8399 85.1866 18.3444C85.0618 19.3673 84.1328 20.1976 83.1159 20.1976ZM52.3151 16.6748C51.4 16.6748 50.5588 17.4225 50.434 18.3444C50.3739 18.7894 50.4941 19.2114 50.7714 19.5187C51.0395 19.8215 51.4231 19.9866 51.8529 19.9866H83.1113C84.0265 19.9866 84.863 19.2389 84.9786 18.3169C85.0341 17.872 84.9093 17.45 84.6319 17.1427C84.3639 16.8399 83.9756 16.6748 83.5458 16.6748H52.3151Z" fill="white"/>
<path d="M68.5336 32.0907H60.7502L61.5359 25.9487H69.3101L68.5336 32.0907Z" fill="#F2F9FF"/>
<path d="M78.5355 32.0907H70.7474L71.5239 25.9487H79.2981L78.5355 32.0907Z" fill="#F2F9FF"/>
<path d="M88.5375 32.0907H80.7496L81.5076 25.9487H89.2863L88.5375 32.0907Z" fill="#F2F9FF"/>
<path d="M98.5392 32.0907H90.7512L91.4954 25.9487H99.2695L98.5392 32.0907Z" fill="url(#paint2_radial_700_3945)"/>
<path d="M37.3351 41.0811H29.5333L30.3606 34.9391H38.1532L37.3351 41.0811Z" fill="#F2F9FF"/>
<path d="M47.3559 41.0811H39.554L40.3674 34.9391H48.1601L47.3559 41.0811Z" fill="#F2F9FF"/>
<path d="M57.3761 41.0811H49.5742L50.3738 34.9391H58.1664L57.3761 41.0811Z" fill="#F2F9FF"/>
<path d="M67.3965 41.0811H59.5946L60.3804 34.9391H68.173L67.3965 41.0811Z" fill="#F2F9FF"/>
<path d="M77.4216 41.0811H69.6151L70.3916 34.9391H78.1796L77.4216 41.0811Z" fill="#F2F9FF"/>
<path d="M87.442 41.0811H79.6355L80.3982 34.9391H88.1908L87.442 41.0811Z" fill="#F2F9FF"/>
<path d="M97.4623 41.0811H89.6604L90.4045 34.9391H98.1972L97.4623 41.0811Z" fill="url(#paint3_radial_700_3945)"/>
<path d="M36.138 50.0764H28.3177L29.145 43.9344H36.9561L36.138 50.0764Z" fill="#F2F9FF"/>
<path d="M46.1771 50.0764H38.3613L39.1748 43.9344H46.9813L46.1771 50.0764Z" fill="#F2F9FF"/>
<path d="M56.2205 50.0764H48.4001L49.2043 43.9344H57.0108L56.2205 50.0764Z" fill="#F2F9FF"/>
<path d="M66.2595 50.0764H58.4437L59.2295 43.9344H67.036L66.2595 50.0764Z" fill="#F2F9FF"/>
<path d="M76.3031 50.0764H68.4827L69.2592 43.9344H77.0658L76.3031 50.0764Z" fill="#F2F9FF"/>
<path d="M86.3465 50.0764H78.5261L79.2841 43.9344H87.0952L86.3465 50.0764Z" fill="#F2F9FF"/>
<path d="M96.3855 50.0764H88.5652L89.3139 43.9344H97.1204L96.3855 50.0764Z" fill="url(#paint4_radial_700_3945)"/>
<path d="M34.9412 59.0717H27.1023L27.9343 52.9297H35.7593L34.9412 59.0717Z" fill="#F2F9FF"/>
<path d="M45.0029 59.0717H37.164L37.9821 52.9297H45.8071L45.0029 59.0717Z" fill="#F2F9FF"/>
<path d="M55.0651 59.0717H47.2262L48.0305 52.9297H55.8554L55.0651 59.0717Z" fill="#F2F9FF"/>
<path d="M65.1271 59.0717H57.2882L58.0786 52.9297H65.8989L65.1271 59.0717Z" fill="#F2F9FF"/>
<path d="M75.1846 59.0717H67.3504L68.1269 52.9297H75.9473L75.1846 59.0717Z" fill="#F2F9FF"/>
<path d="M85.2466 59.0717H77.4124L78.175 52.9297H85.9953L85.2466 59.0717Z" fill="#F2F9FF"/>
<path d="M95.3086 59.0717H87.4743L88.2231 52.9297H96.0435L95.3086 59.0717Z" fill="url(#paint5_radial_700_3945)"/>
<path d="M33.7392 68.0621H25.8911L26.7184 61.9201H34.5573L33.7392 68.0621Z" fill="#F2F9FF"/>
<path d="M43.8246 68.0621H35.9719L36.79 61.9201H44.6288L43.8246 68.0621Z" fill="#F2F9FF"/>
<path d="M53.9049 68.0621H46.0568L46.8564 61.9201H54.6952L53.9049 68.0621Z" fill="#F2F9FF"/>
<path d="M63.9903 68.0621H56.1375L56.9233 61.9201H64.7668L63.9903 68.0621Z" fill="#F2F9FF"/>
<path d="M74.0705 68.0621H66.2178L66.9943 61.9201H74.8332L74.0705 68.0621Z" fill="#FDF8EE"/>
<path d="M99.5191 24.1786H91.745C91.574 24.1786 91.4353 24.041 91.4353 23.8713C91.4353 23.7015 91.574 23.5639 91.745 23.5639H99.5191C99.6902 23.5639 99.8288 23.7015 99.8288 23.8713C99.8288 24.041 99.6902 24.1786 99.5191 24.1786Z" fill="#F2F9FF"/>
<path d="M89.5356 24.1786H81.7614C81.5904 24.1786 81.4517 24.041 81.4517 23.8713C81.4517 23.7015 81.5904 23.5639 81.7614 23.5639H89.5356C89.7066 23.5639 89.8452 23.7015 89.8452 23.8713C89.8452 24.041 89.7066 24.1786 89.5356 24.1786Z" fill="url(#paint6_radial_700_3945)"/>
<path d="M79.5569 24.1786H71.7827C71.6117 24.1786 71.473 24.041 71.473 23.8713C71.473 23.7015 71.6117 23.5639 71.7827 23.5639H79.5569C79.7279 23.5639 79.8665 23.7015 79.8665 23.8713C79.8665 24.041 79.7279 24.1786 79.5569 24.1786Z" fill="url(#paint7_radial_700_3945)"/>
<path d="M69.5735 24.1786H61.7994C61.6283 24.1786 61.4897 24.041 61.4897 23.8713C61.4897 23.7015 61.6283 23.5639 61.7994 23.5639H69.5735C69.7445 23.5639 69.8832 23.7015 69.8832 23.8713C69.8832 24.041 69.7445 24.1786 69.5735 24.1786Z" fill="url(#paint8_radial_700_3945)"/>
<path d="M59.59 24.1786H51.8158C51.6448 24.1786 51.5061 24.041 51.5061 23.8713C51.5061 23.7015 51.6448 23.5639 51.8158 23.5639H59.59C59.761 23.5639 59.8997 23.7015 59.8997 23.8713C59.8997 24.041 59.761 24.1786 59.59 24.1786Z" fill="url(#paint9_radial_700_3945)"/>
<path d="M49.611 24.1786H41.8368C41.6658 24.1786 41.5272 24.041 41.5272 23.8713C41.5272 23.7015 41.6658 23.5639 41.8368 23.5639H49.611C49.782 23.5639 49.9206 23.7015 49.9206 23.8713C49.9206 24.041 49.782 24.1786 49.611 24.1786Z" fill="url(#paint10_radial_700_3945)"/>
<path d="M39.6276 24.1786H31.8535C31.6825 24.1786 31.5438 24.041 31.5438 23.8713C31.5438 23.7015 31.6825 23.5639 31.8535 23.5639H39.6276C39.7987 23.5639 39.9373 23.7015 39.9373 23.8713C39.9373 24.041 39.7987 24.1786 39.6276 24.1786Z" fill="url(#paint11_radial_700_3945)"/>
<path d="M35.6714 14.1243C35.6159 14.5417 35.2323 14.8811 34.8163 14.8811C34.4004 14.8811 34.1092 14.5417 34.1646 14.1243C34.2201 13.7069 34.6037 13.3674 35.0197 13.3674C35.4357 13.3674 35.7315 13.7069 35.6714 14.1243Z" fill="#3B2645"/>
<path d="M35.3433 8.72966C34.6824 8.72966 34.003 8.95901 33.4345 9.37642C32.6672 9.93603 32.1588 10.7709 32.0386 11.6607C31.8214 13.2753 32.9492 14.5918 34.5576 14.5918C34.6547 14.5918 34.7517 14.5872 34.8488 14.578C35.0984 14.5551 35.311 14.3304 35.3202 14.0827C35.3295 13.835 35.1353 13.6515 34.8811 13.6744C34.8164 13.679 34.7471 13.6836 34.6824 13.6836C33.5731 13.6836 32.792 12.7754 32.9445 11.6607C33.0277 11.0461 33.379 10.4681 33.9105 10.0828C34.308 9.78925 34.7656 9.63788 35.2278 9.63788C36.3232 9.63788 37.0951 10.5232 36.9703 11.624H37.8716C38.0564 10.0232 36.9333 8.72966 35.3433 8.72966Z" fill="#5080C0"/>
<path d="M35.6714 14.1243C35.6159 14.5417 35.2323 14.8811 34.8163 14.8811C34.4004 14.8811 34.1092 14.5417 34.1646 14.1243C34.2201 13.7069 34.6037 13.3674 35.0197 13.3674C35.4357 13.3674 35.7315 13.7069 35.6714 14.1243Z" fill="#3B2645"/>
<path d="M35.3433 8.72966C34.6824 8.72966 34.003 8.95901 33.4345 9.37642C32.6672 9.93603 32.1588 10.7709 32.0386 11.6607C31.8214 13.2753 32.9492 14.5918 34.5576 14.5918C34.6547 14.5918 34.7517 14.5872 34.8488 14.578C35.0984 14.5551 35.311 14.3304 35.3202 14.0827C35.3295 13.835 35.1353 13.6515 34.8811 13.6744C34.8164 13.679 34.7471 13.6836 34.6824 13.6836C33.5731 13.6836 32.792 12.7754 32.9445 11.6607C33.0277 11.0461 33.379 10.4681 33.9105 10.0828C34.308 9.78925 34.7656 9.63788 35.2278 9.63788C36.3232 9.63788 37.0951 10.5232 36.9703 11.624H37.8716C38.0564 10.0232 36.9333 8.72966 35.3433 8.72966Z" fill="#AA8CA7"/>
<path d="M43.8107 14.1243C43.7552 14.5417 43.3716 14.8811 42.9556 14.8811C42.5397 14.8811 42.2485 14.5417 42.304 14.1243C42.3594 13.7069 42.743 13.3674 43.159 13.3674C43.575 13.3674 43.8662 13.7069 43.8107 14.1243Z" fill="#3B2645"/>
<path d="M43.4689 8.72966C42.808 8.72966 42.1285 8.95901 41.56 9.37642C40.7928 9.93603 40.2843 10.7709 40.1642 11.6607C39.9469 13.2753 41.0793 14.5918 42.6878 14.5918C42.7848 14.5918 42.8819 14.5872 42.979 14.578C43.2286 14.5551 43.4412 14.3304 43.4504 14.0827C43.4597 13.835 43.2609 13.6515 43.0113 13.6744C42.9466 13.679 42.8773 13.6836 42.8126 13.6836C41.7033 13.6836 40.9222 12.7754 41.0701 11.6607C41.1533 11.0461 41.5046 10.4681 42.0315 10.0828C42.429 9.78925 42.8865 9.63788 43.3487 9.63788C44.4441 9.63788 45.2206 10.5232 45.0958 11.624H45.9971C46.1866 10.0232 45.0635 8.72966 43.4689 8.72966Z" fill="#AA8CA7"/>
<path d="M51.95 14.1243C51.8946 14.5417 51.5155 14.8811 51.0996 14.8811C50.6836 14.8811 50.3924 14.5417 50.4432 14.1243C50.4987 13.7069 50.8777 13.3674 51.2937 13.3674C51.7143 13.3674 52.0055 13.7069 51.95 14.1243Z" fill="#3B2645"/>
<path d="M51.5989 8.72966C50.9379 8.72966 50.2585 8.95901 49.69 9.37642C48.9227 9.93603 48.419 10.7709 48.2988 11.6607C48.0862 13.2753 49.2186 14.5918 50.827 14.5918C50.9241 14.5918 51.0211 14.5872 51.1182 14.578C51.3678 14.5551 51.5804 14.3304 51.585 14.0827C51.5942 13.835 51.3955 13.6515 51.1459 13.6744C51.0812 13.679 51.0119 13.6836 50.9472 13.6836C49.8379 13.6836 49.0522 12.7754 49.2001 11.6607C49.2833 11.0461 49.6299 10.4681 50.1614 10.0828C50.5589 9.78925 51.0165 9.63788 51.4787 9.63788C52.5741 9.63788 53.3506 10.5232 53.2304 11.624H54.1317C54.3166 10.0232 53.1888 8.72966 51.5989 8.72966Z" fill="#AA8CA7"/>
<path d="M60.0895 14.1243C60.034 14.5417 59.655 14.8811 59.239 14.8811C58.8231 14.8811 58.5273 14.5417 58.5827 14.1243C58.6382 13.7069 59.0172 13.3674 59.4332 13.3674C59.8491 13.3674 60.1449 13.7069 60.0895 14.1243Z" fill="#3B2645"/>
<path d="M59.7288 8.72966C59.0679 8.72966 58.3931 8.95901 57.8246 9.37642C57.0619 9.93603 56.5535 10.7709 56.438 11.6607C56.23 13.2753 57.367 14.5918 58.9708 14.5918C59.0679 14.5918 59.1649 14.5872 59.262 14.578C59.5116 14.5551 59.7242 14.3304 59.7288 14.0827C59.7381 13.835 59.5393 13.6515 59.2897 13.6744C59.225 13.679 59.1557 13.6836 59.091 13.6836C57.9817 13.6836 57.196 12.7754 57.3393 11.6607C57.4178 11.0461 57.7691 10.4681 58.296 10.0828C58.6935 9.78925 59.1511 9.63788 59.6133 9.63788C60.7087 9.63788 61.4852 10.5232 61.365 11.624H62.2663C62.4465 10.0232 61.3188 8.72966 59.7288 8.72966Z" fill="#AA8CA7"/>
<path d="M68.2286 14.1243C68.1778 14.5417 67.7941 14.8811 67.3781 14.8811C66.9622 14.8811 66.6664 14.5417 66.7218 14.1243C66.7773 13.7069 67.1563 13.3674 67.5723 13.3674C67.9883 13.3674 68.2794 13.7069 68.2286 14.1243Z" fill="#3B2645"/>
<path d="M67.8543 8.72966C67.1934 8.72966 66.5186 8.95901 65.9501 9.37642C65.1875 9.93603 64.6837 10.7709 64.5682 11.6607C64.3602 13.2753 65.5018 14.5918 67.1102 14.5918C67.2073 14.5918 67.3043 14.5872 67.4014 14.578C67.651 14.5551 67.8636 14.3304 67.8682 14.0827C67.8775 13.835 67.6787 13.6515 67.4291 13.6744C67.3644 13.679 67.2951 13.6836 67.2304 13.6836C66.1211 13.6836 65.3354 12.7754 65.4741 11.6607C65.5526 11.0461 65.8993 10.4681 66.4262 10.0828C66.8237 9.78925 67.2766 9.63788 67.7434 9.63788C68.8388 9.63788 69.6199 10.5232 69.4998 11.624H70.401C70.5813 10.0232 69.4489 8.72966 67.8543 8.72966Z" fill="#AA8CA7"/>
<path d="M76.3679 14.1243C76.3171 14.5417 75.9381 14.8811 75.5175 14.8811C75.1015 14.8811 74.8057 14.5417 74.8611 14.1243C74.912 13.7069 75.2956 13.3674 75.7116 13.3674C76.1276 13.3674 76.4187 13.7069 76.3679 14.1243Z" fill="#3B2645"/>
<path d="M75.9844 8.72966C75.3235 8.72966 74.6487 8.95901 74.0802 9.37642C73.3175 9.93603 72.8137 10.7709 72.7028 11.6607C72.4994 13.2753 73.6411 14.5918 75.2495 14.5918C75.3466 14.5918 75.4437 14.5872 75.5407 14.578C75.7903 14.5551 75.9983 14.3304 76.0076 14.0827C76.0122 13.835 75.818 13.6515 75.5638 13.6744C75.4991 13.679 75.4298 13.6836 75.3651 13.6836C74.2558 13.6836 73.4654 12.7754 73.6087 11.6607C73.6873 11.0461 74.0339 10.4681 74.5609 10.0828C74.9584 9.78925 75.4113 9.63788 75.8735 9.63788C76.9689 9.63788 77.75 10.5232 77.6345 11.624H78.5358C78.7114 10.0232 77.5744 8.72966 75.9844 8.72966Z" fill="#AA8CA7"/>
<path d="M84.5026 14.1243C84.4517 14.5417 84.0727 14.8811 83.6567 14.8811C83.2408 14.8811 82.9449 14.5417 82.9958 14.1243C83.0466 13.7069 83.4256 13.3674 83.8416 13.3674C84.2622 13.3674 84.558 13.7069 84.5026 14.1243Z" fill="#3B2645"/>
<path d="M84.1098 8.72966C83.4489 8.72966 82.7741 8.95901 82.2056 9.37642C81.4429 9.93603 80.9438 10.7709 80.8328 11.6607C80.6341 13.2753 81.7757 14.5918 83.3842 14.5918C83.4812 14.5918 83.5783 14.5872 83.6754 14.578C83.925 14.5551 84.133 14.3304 84.1422 14.0827C84.1468 13.835 83.9527 13.6515 83.6985 13.6744C83.6338 13.679 83.5644 13.6836 83.4997 13.6836C82.3905 13.6836 81.6001 12.7754 81.7388 11.6607C81.8173 11.0461 82.1594 10.4681 82.6863 10.0828C83.0838 9.78925 83.5367 9.63788 83.9989 9.63788C85.0943 9.63788 85.8801 10.5232 85.7645 11.624H86.6658C86.8414 10.0232 85.7044 8.72966 84.1098 8.72966Z" fill="#AA8CA7"/>
<path d="M92.6418 14.1243C92.591 14.5417 92.212 14.8811 91.796 14.8811C91.38 14.8811 91.0843 14.5417 91.1351 14.1243C91.1859 13.7069 91.5649 13.3674 91.9809 13.3674C92.3968 13.3674 92.6926 13.7069 92.6418 14.1243Z" fill="#3B2645"/>
<path d="M92.2398 8.72966C91.5788 8.72966 90.904 8.95901 90.3402 9.37642C89.5822 9.93603 89.083 10.7709 88.9721 11.6607C88.7733 13.2753 89.9196 14.5918 91.528 14.5918C91.6251 14.5918 91.7221 14.5872 91.8192 14.578C92.0688 14.5551 92.2768 14.3304 92.2814 14.0827C92.286 13.835 92.0873 13.6515 91.8377 13.6744C91.773 13.679 91.7036 13.6836 91.6389 13.6836C90.5297 13.6836 89.7347 12.7754 89.8734 11.6607C89.9473 11.0461 90.294 10.4681 90.8209 10.0828C91.2183 9.78925 91.6713 9.63788 92.1335 9.63788C93.2289 9.63788 94.0146 10.5232 93.9037 11.624H94.805C94.9713 10.0232 93.8343 8.72966 92.2398 8.72966Z" fill="#AA8CA7"/>
<path d="M100.781 14.1243C100.73 14.5417 100.351 14.8811 99.9353 14.8811C99.5194 14.8811 99.2236 14.5417 99.2744 14.1243C99.3253 13.7069 99.7042 13.3674 100.12 13.3674C100.536 13.3674 100.832 13.7069 100.781 14.1243Z" fill="#3B2645"/>
<path d="M100.37 8.72966C99.7089 8.72966 99.0341 8.95901 98.4702 9.37642C97.7122 9.93603 97.213 10.7709 97.1067 11.6607C96.9126 13.2753 98.0634 14.5918 99.6673 14.5918C99.7643 14.5918 99.8614 14.5872 99.9585 14.578C100.208 14.5551 100.416 14.3304 100.421 14.0827C100.425 13.835 100.227 13.6515 99.977 13.6744C99.9122 13.679 99.8429 13.6836 99.7782 13.6836C98.6689 13.6836 97.8739 12.7754 98.008 11.6607C98.0819 11.0461 98.424 10.4681 98.9509 10.0828C99.3484 9.78925 99.8013 9.63788 100.264 9.63788C101.359 9.63788 102.145 10.5232 102.034 11.624H102.935C103.101 10.0232 101.96 8.72966 100.37 8.72966Z" fill="#AA8CA7"/>
<path d="M45.4472 40.1224C45.364 40.1224 45.2808 40.0903 45.2207 40.0261L41.8004 36.3795C41.6849 36.2556 41.6895 36.063 41.8143 35.9437C41.9391 35.8291 42.1332 35.8336 42.2534 35.9575L45.6736 39.6041C45.7892 39.7279 45.7846 39.9206 45.6598 40.0399C45.5951 40.0949 45.5211 40.1224 45.4472 40.1224Z" fill="#3B2645"/>
<path d="M41.7032 40.1227C41.6154 40.1227 41.5276 40.086 41.4675 40.0126C41.3566 39.8842 41.3704 39.6916 41.5045 39.5815L45.8168 35.9348C45.9462 35.8247 46.1403 35.8385 46.2512 35.9715C46.3622 36.1 46.3483 36.2926 46.2143 36.4027L41.9019 40.0493C41.8465 40.0998 41.7772 40.1227 41.7032 40.1227Z" fill="#3B2645"/>
<path d="M64.1151 48.6403C64.0319 48.6403 63.9487 48.6082 63.8887 48.5439L60.9214 45.3836C60.8058 45.2597 60.8105 45.0671 60.9353 44.9478C61.0601 44.8331 61.2542 44.8377 61.3743 44.9616L64.3416 48.1219C64.4572 48.2458 64.4525 48.4384 64.3277 48.5577C64.263 48.6127 64.1891 48.6403 64.1151 48.6403Z" fill="#3B2645"/>
<path d="M60.8703 48.6406C60.7825 48.6406 60.6947 48.6039 60.6346 48.5305C60.5237 48.4021 60.5375 48.2095 60.6716 48.0994L64.4107 44.9389C64.5402 44.8288 64.7343 44.8426 64.8452 44.9756C64.9561 45.104 64.9423 45.2967 64.8082 45.4068L61.0691 48.5672C61.0136 48.6177 60.9396 48.6406 60.8703 48.6406Z" fill="#3B2645"/>
<path d="M73.9365 30.9169L72.61 28.9812C72.4806 28.7931 72.5314 28.5408 72.7209 28.4124C72.9104 28.284 73.1646 28.3344 73.294 28.5225L74.1121 29.7151L77.4538 27.0042C77.6295 26.862 77.8883 26.885 78.0362 27.0639C78.1795 27.2382 78.1564 27.495 77.9761 27.6418L73.9365 30.9169Z" fill="#3B2645"/>
<path d="M71.0155 57.2774L70.0864 55.9197C69.9894 55.7775 70.0264 55.5895 70.1696 55.4931C70.3129 55.3968 70.5024 55.4335 70.5995 55.5757L71.1495 56.3784L73.4421 54.5207C73.5761 54.4152 73.7703 54.4336 73.8766 54.562C73.9829 54.695 73.9644 54.8877 73.835 54.9932L71.0155 57.2774Z" fill="#3B2645"/>
<path d="M70.3962 58.6084C69.2499 58.6084 68.7785 58.1314 68.589 57.7094C68.0621 56.5351 69.139 54.6728 70.4747 53.4343C70.5995 53.3196 70.7937 53.3242 70.9138 53.4481C71.0294 53.5719 71.0248 53.7646 70.9 53.8838C69.5966 55.0902 68.8155 56.6911 69.1575 57.4571C69.3932 57.98 70.1605 58.0259 70.7613 57.9754C72.6933 57.8057 74.1677 56.4755 74.6253 55.2507C74.8009 54.7829 74.7963 54.3746 74.616 54.1912C74.0337 53.5994 72.1941 54.3288 71.5979 54.6315C71.4454 54.7095 71.2605 54.6499 71.1819 54.4985C71.1033 54.3471 71.1634 54.1636 71.3159 54.0856C71.5933 53.9435 74.0522 52.7417 75.0598 53.7646C75.4203 54.1315 75.4757 54.7508 75.2077 55.4663C74.6992 56.8333 73.1093 58.3929 70.8168 58.5901C70.6642 58.6039 70.5256 58.6084 70.3962 58.6084Z" fill="#3B2645"/>
<path d="M53.5212 57.8188L52.4073 54.9932L50.9422 56.562L50.4568 55.9336L48.8669 57.8142L53.5212 57.8188Z" fill="url(#paint12_radial_700_3945)"/>
<path d="M51.7095 54.5853C51.7511 54.3606 51.5939 54.1817 51.3628 54.1817C51.1317 54.1817 50.9145 54.3652 50.8729 54.5853C50.8313 54.8101 50.9884 54.989 51.2195 54.989C51.4506 54.989 51.6679 54.8101 51.7095 54.5853Z" fill="url(#paint13_radial_700_3945)"/>
<path d="M66.8742 30.6366L65.7603 27.8111L64.2906 29.3844L63.8099 28.7514L62.2153 30.6321L66.8742 30.6366Z" fill="#3B2645"/>
<path d="M65.0624 27.4071C65.104 27.1823 64.9469 27.0034 64.7158 27.0034C64.4847 27.0034 64.2675 27.1869 64.2259 27.4071C64.1843 27.6319 64.3415 27.8107 64.5725 27.8107C64.799 27.8107 65.0208 27.6273 65.0624 27.4071Z" fill="#3B2645"/>
<path opacity="0.3" d="M45.9459 44.6913C45.9459 44.6913 45.6825 49.7874 44.9522 51.8057H37.9453C37.9453 51.8057 39.3735 48.2691 39.8542 45.0995L45.9459 44.6913Z" fill="#543753"/>
<path d="M45.9461 44.691C45.9461 44.691 45.7381 48.7872 43.9956 50.8468L36.8501 50.6816C36.8501 50.6816 38.9669 48.1542 39.6232 44.6864H45.9461V44.691Z" fill="url(#paint14_radial_700_3945)"/>
<path d="M44.4208 46.6172H40.4459C40.3859 46.6172 40.3396 46.5713 40.3396 46.5117C40.3396 46.452 40.3859 46.4062 40.4459 46.4062H44.4208C44.4809 46.4062 44.5271 46.452 44.5271 46.5117C44.5225 46.5667 44.4763 46.6172 44.4208 46.6172Z" fill="#3B2645"/>
<path d="M44.0788 47.4023H40.1039C40.0438 47.4023 39.9976 47.3565 39.9976 47.2968C39.9976 47.2372 40.0438 47.1913 40.1039 47.1913H44.0788C44.1389 47.1913 44.1851 47.2372 44.1851 47.2968C44.1805 47.3565 44.1343 47.4023 44.0788 47.4023Z" fill="#3B2645"/>
<path d="M43.7091 48.1914H39.7343C39.6742 48.1914 39.6279 48.1455 39.6279 48.0859C39.6279 48.0263 39.6742 47.9804 39.7343 47.9804H43.7091C43.7692 47.9804 43.8155 48.0263 43.8155 48.0859C43.8155 48.1455 43.7692 48.1914 43.7091 48.1914Z" fill="#3B2645"/>
<path d="M43.3346 49.0078H39.3597C39.2996 49.0078 39.2534 48.962 39.2534 48.9023C39.2534 48.8427 39.2996 48.7968 39.3597 48.7968H43.3346C43.3947 48.7968 43.4409 48.8427 43.4409 48.9023C43.4409 48.962 43.3947 49.0078 43.3346 49.0078Z" fill="#3B2645"/>
<path opacity="0.3" d="M77.5974 35.5036C77.5974 35.5036 77.3108 41.0722 76.5112 43.274H68.8573C68.8573 43.274 70.4149 39.4071 70.9418 35.9485L77.5974 35.5036Z" fill="#543753"/>
<path d="M77.5973 35.5036C77.5973 35.5036 77.3708 39.9805 75.4665 42.2281L67.66 42.0492C67.66 42.0492 69.971 39.2878 70.6874 35.5036H77.5973Z" fill="url(#paint15_radial_700_3945)"/>
<path d="M75.9332 37.6041H71.5886C71.5239 37.6041 71.473 37.5536 71.473 37.4894C71.473 37.4252 71.5239 37.3747 71.5886 37.3747H75.9332C75.9979 37.3747 76.0488 37.4252 76.0488 37.4894C76.0488 37.5536 75.9933 37.6041 75.9332 37.6041Z" fill="#3B2645"/>
<path d="M75.5589 38.4674H71.2143C71.1496 38.4674 71.0988 38.417 71.0988 38.3527C71.0988 38.2885 71.1496 38.238 71.2143 38.238H75.5589C75.6236 38.238 75.6744 38.2885 75.6744 38.3527C75.6744 38.417 75.619 38.4674 75.5589 38.4674Z" fill="#3B2645"/>
<path d="M75.1569 39.3288H70.8122C70.7475 39.3288 70.6967 39.2783 70.6967 39.2141C70.6967 39.1498 70.7475 39.0994 70.8122 39.0994H75.1569C75.2216 39.0994 75.2724 39.1498 75.2724 39.2141C75.2724 39.2783 75.2216 39.3288 75.1569 39.3288Z" fill="#3B2645"/>
<path d="M74.7502 40.2194H70.4055C70.3407 40.2194 70.2899 40.1689 70.2899 40.1047C70.2899 40.0405 70.3407 39.99 70.4055 39.99H74.7502C74.8149 39.99 74.8657 40.0405 74.8657 40.1047C74.8657 40.1689 74.8103 40.2194 74.7502 40.2194Z" fill="#3B2645"/>
<path d="M17.4837 47.691L10.6524 46.5351C10.6524 46.5351 9.49691 51.1541 9.18261 52.0624C8.86832 52.9706 7.59266 54.6219 6.45565 58.8373C5.32327 63.0482 3.48835 66.6398 3.48835 66.6398C3.48835 66.6398 4.26022 66.5343 4.61149 67.2361C4.96276 67.9379 5.46193 69.7039 6.5296 68.9608C6.5296 68.9608 12.8709 57.897 14.5349 54.7916C16.1988 51.6816 17.4837 47.691 17.4837 47.691Z" fill="#FFEDE5"/>
<path d="M10.6526 46.539C10.6526 46.539 10.3429 47.7821 9.99628 49.1031C11.919 49.8416 15.5796 49.9471 16.675 49.9609C17.1788 48.6352 17.4793 47.6949 17.4793 47.6949L10.6526 46.539Z" fill="#DD825C"/>
<path d="M4.61623 67.235C4.26496 66.5332 3.49309 66.6387 3.49309 66.6387C3.49309 66.6387 0.983359 67.7625 0.119051 69.2212C-0.486428 70.2395 1.45018 73.1476 2.67038 74.8035C3.22501 75.5558 4.10319 76.0007 5.04145 76.0007H8.67894C8.74827 76.0007 8.80836 75.9411 8.80373 75.8723C8.76676 73.5971 7.79614 72.7394 7.03352 72.5376C6.25703 72.3311 5.87803 71.1661 6.34484 70.1156C6.81629 69.0652 6.53435 68.9597 6.53435 68.9597C5.46205 69.7028 4.9675 67.9368 4.61623 67.235Z" fill="#3B2645"/>
<path d="M11.5677 34.127C11.5677 34.127 9.6866 38.8057 10.7728 41.3194L9.92695 47.5668C9.92695 47.5668 14.6275 49.9842 18.1032 49.2411C18.1032 49.2411 20.5205 41.4891 19.7625 35.2416C19.0045 28.9942 11.9467 31.994 11.5677 34.127Z" fill="#3B2645"/>
<path opacity="0.5" d="M16.994 39.1179L18.5331 47.691C18.8982 46.2507 19.4112 43.9526 19.6978 41.4114L16.994 39.1179Z" fill="#3B2645"/>
<path d="M5.48976 73.5705C4.39898 71.8779 2.31447 68.0982 0.849305 68.3459C0.558121 68.6165 0.294669 68.9147 0.114412 69.2266C-0.491066 70.2449 1.44554 73.1531 2.66574 74.809C3.22038 75.5612 4.09855 76.0062 5.03681 76.0062H8.6743C8.74363 76.0062 8.80372 75.9466 8.79909 75.8777C8.79447 75.6759 8.78523 75.4833 8.76674 75.3044C8.19362 75.286 6.47424 75.098 5.48976 73.5705Z" fill="#E5E5E5"/>
<path d="M2.66574 74.8084C3.22038 75.5606 4.09855 76.0056 5.03681 76.0056H8.22597C7.41712 75.9597 5.69775 75.634 4.6763 73.7992C3.30357 71.3406 1.04805 68.2306 0.114412 69.226C-0.491066 70.2443 1.44554 73.1525 2.66574 74.8084Z" fill="#AFAFAF"/>
<path d="M30.6426 71.5703C31.151 71.6437 31.1186 70.6116 31.1186 70.6116C31.1186 70.6116 28.1328 53.3371 27.7354 51.6858C27.3379 50.0345 26.3257 44.9384 26.3257 44.9384L20.465 47.5667C20.465 47.5667 21.9579 51.4931 22.0549 52.3784C22.152 53.2637 22.8268 58.025 23.839 60.1074C24.8512 62.1899 27.3379 67.7677 27.6244 71.1391C29.0526 70.052 30.1342 71.4969 30.6426 71.5703Z" fill="#FFEDE5"/>
<path d="M27.1205 75.8506C27.1298 75.9377 27.2084 76.0065 27.2962 76.0065H36.4107C36.517 76.0065 36.6002 75.9194 36.5956 75.8185C36.5771 75.3185 36.4662 73.9883 35.8237 73.7268C35.0287 73.4057 32.3711 72.8782 31.5715 70.9701C31.3173 70.36 31.1324 70.5939 31.1185 70.6123C31.1185 70.6123 31.1509 71.6444 30.6425 71.571C30.1341 71.4976 29.0525 70.0527 27.629 71.1398C27.629 71.1398 26.931 74.2085 27.1205 75.8506Z" fill="#3B2645"/>
<path d="M27.2964 76.0014H36.4109C36.5172 76.0014 36.6004 75.9142 36.5958 75.8133C36.5912 75.6849 36.5819 75.506 36.5542 75.3042H27.0884C27.0884 75.4968 27.1023 75.6803 27.1208 75.85C27.13 75.9372 27.204 76.0014 27.2964 76.0014Z" fill="#E5E5E5"/>
<path d="M21.3848 50.0895C21.3848 50.0895 24.4122 50.672 26.908 47.8052L26.3303 44.9384L20.465 47.5667L21.3848 50.0895Z" fill="#DD825C"/>
<path d="M24.879 34.7051C24.879 34.7051 26.6169 42.058 27.7354 47.0165C27.7354 47.0165 25.0454 50.3237 20.3911 49.3421C20.3911 49.3421 18.5192 43.6222 18.2234 43.0488C17.9276 42.4754 14.4796 37.9251 15.9771 34.3611C17.4746 30.797 23.5063 31.6272 24.879 34.7051Z" fill="#3B2645"/>
<path d="M22.4986 13.4675C22.4986 13.4675 18.3942 12.3941 16.9938 12.4217C15.5933 12.4446 13.4719 14.2289 12.871 18.0086C12.2701 21.7882 12.5567 26.8385 12.2701 28.4439C11.979 30.0494 10.8974 34.5721 10.8974 34.6409C10.8974 34.7143 16.5085 36.3702 18.519 36.3335C20.525 36.2968 21.1212 35.9574 21.1212 35.9574C21.1212 35.9574 22.0271 34.3428 22.078 34.4116C22.1334 34.485 22.7112 35.8289 22.7112 35.8289L25.1839 35.4299C25.1839 35.4299 24.3658 30.5815 24.3889 29.9622C24.412 29.3384 25.3642 19.8021 25.5352 19.059C25.697 18.3205 25.2717 14.6555 22.4986 13.4675Z" fill="#AA8CA7"/>
<path opacity="0.5" d="M21.297 20.5956L24.4029 29.7237C24.5323 28.1045 25.3735 19.7562 25.5307 19.0636C25.7017 18.3205 25.2718 14.6555 22.4987 13.4675C22.4987 13.4675 18.3944 12.3941 16.9939 12.4217C16.8183 12.4262 16.6334 12.4538 16.4393 12.5134L23.0348 16.3206L21.297 20.5956Z" fill="#543753"/>
<path d="M26.58 5.28421C26.58 5.28421 25.8543 12.0133 23.7051 13.0729C21.5513 14.1325 19.6886 9.30239 19.9058 7.3988C20.1231 5.49521 23.5942 2.80725 26.58 5.28421Z" fill="#FFEDE5"/>
<path d="M23.3352 8.91699C23.3352 8.91699 24.0609 8.80231 24.2827 7.47209C24.2827 7.47209 25.1886 7.21981 25.013 6.0272C25.013 6.0272 26.2517 6.67396 27.1391 6.16022C28.0265 5.64648 28.2438 4.39424 28.0866 4.18783C27.9341 3.98141 27.6429 4.12361 27.6429 4.12361C27.6429 4.12361 28.0496 2.65578 26.2609 2.63743C24.4722 2.6145 22.9978 1.72004 21.7591 1.40354C20.5205 1.08704 18.6208 2.00443 18.6208 3.775C18.6208 3.775 16.3792 4.59607 17.5948 9.10505C18.8103 13.614 22.4663 11.6187 22.4663 11.6187C22.4663 11.6187 22.1705 9.00414 23.3352 8.91699Z" fill="#3B2645"/>
<path d="M23.1009 10.2169C23.5714 10.0901 23.7891 9.38881 23.5872 8.65045C23.3852 7.91209 22.84 7.41629 22.3695 7.54307C21.8989 7.66984 21.6812 8.37117 21.8832 9.10953C22.0852 9.84789 22.6303 10.3437 23.1009 10.2169Z" fill="#FFEDE5"/>
<path d="M39.1885 22.9212L44.3004 24.0405C44.4113 24.0634 44.4853 23.9304 44.4067 23.8478L40.4873 20.059L39.1885 22.9212Z" fill="#F2F9FF"/>
<path d="M39.3272 21.265C38.9898 22.0723 38.9297 22.8154 39.1885 22.9209C39.4474 23.0264 39.9327 22.4622 40.2701 21.6503C40.6075 20.843 40.6675 20.0999 40.4087 19.9944C40.1453 19.8889 39.66 20.4577 39.3272 21.265Z" fill="url(#paint16_radial_700_3945)"/>
<path d="M39.1886 22.922L0.451913 4.24842L2.21751 0.0146487L40.4088 19.9955L39.1886 22.922Z" fill="url(#paint17_radial_700_3945)"/>
<path d="M43.4361 23.853C43.5748 23.587 43.6626 23.3668 43.7134 23.1879L44.4206 23.8714C44.4945 23.9448 44.4298 24.0732 44.3235 24.0503L43.4361 23.853Z" fill="#3B2645"/>
<path d="M6.25249 2.12436C6.40963 2.51425 6.28022 3.38119 5.88735 4.32152C5.44826 5.37652 4.83354 6.14713 4.44067 6.17465L2.19902 5.09213L3.9415 0.917986L6.25249 2.12436Z" fill="#3B2645"/>
<path d="M4.19107 1.05521L4.48225 1.20658C4.681 1.55978 4.55621 2.48176 4.14023 3.46795C3.68728 4.55506 3.04944 5.33944 2.6612 5.32109L2.48556 5.23852L0.447274 4.25232L2.21287 0.018555L4.19107 1.05521Z" fill="#EEEEEE"/>
<path d="M2.0141 2.41816C2.50229 1.24789 2.59215 0.173524 2.21481 0.0184852C1.83747 -0.136554 1.13581 0.686449 0.647619 1.85671C0.159426 3.02698 0.0695635 4.10134 0.446906 4.25638C0.824248 4.41142 1.5259 3.58842 2.0141 2.41816Z" fill="#EEEEEE"/>
<path d="M18.4728 11.3764C18.385 11.3764 18.2925 11.358 18.2093 11.3122L1.7505 2.92719C1.46856 2.7804 1.35301 2.43638 1.50091 2.15658C1.64882 1.87677 1.99546 1.7621 2.27741 1.90888L18.7362 10.2893C19.0182 10.436 19.1337 10.7801 18.9858 11.0599C18.8841 11.2617 18.6808 11.3764 18.4728 11.3764Z" fill="#EEEEEE"/>
<path d="M37.6498 18.4491C37.5851 18.1188 35.1724 16.8987 35.0199 16.8161C34.8674 16.7335 34.6178 16.9629 34.6178 16.9629L34.835 17.0776C34.835 17.0776 34.701 17.7335 34.6363 18.0316C34.5716 18.3298 33.5224 19.4582 33.5224 19.4582C33.5224 19.4582 33.2127 19.1784 32.8522 18.7335C32.4917 18.2885 32.0757 18.339 32.048 18.4215C32.0203 18.5041 32.6072 19.8573 32.6904 19.9903C32.7736 20.1233 33.1989 20.8985 33.1989 21.0407C33.1989 21.1829 29.8063 24.8387 29.8063 24.8387C29.5013 24.1644 28.979 23.3525 28.4429 22.5773C27.4815 24.114 25.531 25.5359 24.26 26.357C25.1936 27.467 28.1655 30.8476 29.6631 30.6504C31.4518 30.4165 35.4035 22.7608 35.5237 22.5361C35.6393 22.3113 35.8149 22.2379 36.5313 21.6416C37.2477 21.0453 37.7099 18.7839 37.6498 18.4491Z" fill="#FFEDE5"/>
<path d="M28.4381 22.574C27.7032 21.5052 26.9498 20.5144 26.7372 20.0649C26.3767 19.2897 25.5909 15.6247 23.4694 15.5743C21.3479 15.5284 20.7101 17.6338 20.7101 20.0649C20.7101 22.496 23.964 26.0096 23.964 26.0096C23.964 26.0096 24.0703 26.1426 24.2505 26.3582C25.5216 25.5326 27.4721 24.106 28.4381 22.574Z" fill="#AA8CA7"/>
<path opacity="0.5" d="M23.4693 15.5683C22.9794 15.5591 22.5727 15.66 22.2306 15.8572L25.9883 18.0269C25.4753 16.8388 24.6988 15.5958 23.4693 15.5683Z" fill="#543753"/>
<defs>
<linearGradient id="paint0_linear_700_3945" x1="27.4939" y1="41.9551" x2="115.235" y2="41.9551" gradientUnits="userSpaceOnUse">
<stop offset="0.0747467" stop-color="#97C1FB"/>
<stop offset="0.6348" stop-color="#94B2FB"/>
<stop offset="1" stop-color="#91A5FB"/>
</linearGradient>
<linearGradient id="paint1_linear_700_3945" x1="19.2504" y1="41.9551" x2="106.992" y2="41.9551" gradientUnits="userSpaceOnUse">
<stop offset="0.0747467" stop-color="#97C1FB"/>
<stop offset="0.6348" stop-color="#94B2FB"/>
<stop offset="1" stop-color="#91A5FB"/>
</linearGradient>
<radialGradient id="paint2_radial_700_3945" cx="0" cy="0" r="1" gradientUnits="userSpaceOnUse" gradientTransform="translate(79.4267 10.925) scale(24.4809 24.2955)">
<stop offset="0.0747467" stop-color="#F99E96"/>
<stop offset="0.7122" stop-color="#F78F98"/>
<stop offset="1" stop-color="#F68699"/>
</radialGradient>
<radialGradient id="paint3_radial_700_3945" cx="0" cy="0" r="1" gradientUnits="userSpaceOnUse" gradientTransform="translate(79.4266 10.925) scale(24.4809 24.2955)">
<stop offset="0.0747467" stop-color="#F99E96"/>
<stop offset="0.7122" stop-color="#F78F98"/>
<stop offset="1" stop-color="#F68699"/>
</radialGradient>
<radialGradient id="paint4_radial_700_3945" cx="0" cy="0" r="1" gradientUnits="userSpaceOnUse" gradientTransform="translate(79.4268 10.925) scale(24.4809 24.2956)">
<stop offset="0.0747467" stop-color="#F99E96"/>
<stop offset="0.7122" stop-color="#F78F98"/>
<stop offset="1" stop-color="#F68699"/>
</radialGradient>
<radialGradient id="paint5_radial_700_3945" cx="0" cy="0" r="1" gradientUnits="userSpaceOnUse" gradientTransform="translate(79.4266 10.9255) scale(24.4811 24.2955)">
<stop offset="0.0747467" stop-color="#F99E96"/>
<stop offset="0.7122" stop-color="#F78F98"/>
<stop offset="1" stop-color="#F68699"/>
</radialGradient>
<radialGradient id="paint6_radial_700_3945" cx="0" cy="0" r="1" gradientUnits="userSpaceOnUse" gradientTransform="translate(79.4266 10.9255) scale(24.4809 24.2955)">
<stop offset="0.0747467" stop-color="#F99E96"/>
<stop offset="0.7122" stop-color="#F78F98"/>
<stop offset="1" stop-color="#F68699"/>
</radialGradient>
<radialGradient id="paint7_radial_700_3945" cx="0" cy="0" r="1" gradientUnits="userSpaceOnUse" gradientTransform="translate(79.4267 10.9255) scale(24.4809 24.2955)">
<stop offset="0.0747467" stop-color="#F99E96"/>
<stop offset="0.7122" stop-color="#F78F98"/>
<stop offset="1" stop-color="#F68699"/>
</radialGradient>
<radialGradient id="paint8_radial_700_3945" cx="0" cy="0" r="1" gradientUnits="userSpaceOnUse" gradientTransform="translate(79.4268 10.9255) scale(24.4809 24.2955)">
<stop offset="0.0747467" stop-color="#F99E96"/>
<stop offset="0.7122" stop-color="#F78F98"/>
<stop offset="1" stop-color="#F68699"/>
</radialGradient>
<radialGradient id="paint9_radial_700_3945" cx="0" cy="0" r="1" gradientUnits="userSpaceOnUse" gradientTransform="translate(79.4269 10.9255) scale(24.4811 24.2955)">
<stop offset="0.0747467" stop-color="#F99E96"/>
<stop offset="0.7122" stop-color="#F78F98"/>
<stop offset="1" stop-color="#F68699"/>
</radialGradient>
<radialGradient id="paint10_radial_700_3945" cx="0" cy="0" r="1" gradientUnits="userSpaceOnUse" gradientTransform="translate(79.4265 10.9255) scale(24.4809 24.2955)">
<stop offset="0.0747467" stop-color="#F99E96"/>
<stop offset="0.7122" stop-color="#F78F98"/>
<stop offset="1" stop-color="#F68699"/>
</radialGradient>
<radialGradient id="paint11_radial_700_3945" cx="0" cy="0" r="1" gradientUnits="userSpaceOnUse" gradientTransform="translate(79.4267 10.9255) scale(24.4809 24.2955)">
<stop offset="0.0747467" stop-color="#F99E96"/>
<stop offset="0.7122" stop-color="#F78F98"/>
<stop offset="1" stop-color="#F68699"/>
</radialGradient>
<radialGradient id="paint12_radial_700_3945" cx="0" cy="0" r="1" gradientUnits="userSpaceOnUse" gradientTransform="translate(53.7807 53.4281) scale(8.6955 8.62963)">
<stop offset="0.0747467" stop-color="#F99E96"/>
<stop offset="0.7122" stop-color="#F78F98"/>
<stop offset="1" stop-color="#F68699"/>
</radialGradient>
<radialGradient id="paint13_radial_700_3945" cx="0" cy="0" r="1" gradientUnits="userSpaceOnUse" gradientTransform="translate(53.7808 53.4284) scale(8.69562 8.62967)">
<stop offset="0.0747467" stop-color="#F99E96"/>
<stop offset="0.7122" stop-color="#F78F98"/>
<stop offset="1" stop-color="#F68699"/>
</radialGradient>
<radialGradient id="paint14_radial_700_3945" cx="0" cy="0" r="1" gradientUnits="userSpaceOnUse" gradientTransform="translate(47.1615 44.0588) scale(9.24633 9.17641)">
<stop offset="0.0747467" stop-color="#F99E96"/>
<stop offset="0.7122" stop-color="#F78F98"/>
<stop offset="1" stop-color="#F68699"/>
</radialGradient>
<radialGradient id="paint15_radial_700_3945" cx="0" cy="0" r="1" gradientUnits="userSpaceOnUse" gradientTransform="translate(78.6311 33.8282) scale(9.91845 9.84325)">
<stop offset="0.0747467" stop-color="#F99E96"/>
<stop offset="0.7122" stop-color="#F78F98"/>
<stop offset="1" stop-color="#F68699"/>
</radialGradient>
<radialGradient id="paint16_radial_700_3945" cx="0" cy="0" r="1" gradientUnits="userSpaceOnUse" gradientTransform="translate(47.8123 19.2888) scale(30.7854 30.5526)">
<stop offset="0.0747467" stop-color="#F99E96"/>
<stop offset="0.7122" stop-color="#F78F98"/>
<stop offset="1" stop-color="#F68699"/>
</radialGradient>
<radialGradient id="paint17_radial_700_3945" cx="0" cy="0" r="1" gradientUnits="userSpaceOnUse" gradientTransform="translate(47.8125 19.2899) scale(30.7858 30.5527)">
<stop offset="0.0747467" stop-color="#F99E96"/>
<stop offset="0.7122" stop-color="#F78F98"/>
<stop offset="1" stop-color="#F68699"/>
</radialGradient>
</defs>
</svg>
