<svg width="28" height="28" viewBox="0 0 28 28" fill="none" xmlns="http://www.w3.org/2000/svg">
<path fill-rule="evenodd" clip-rule="evenodd" d="M13.9999 8.4585C14.4832 8.4585 14.8749 8.85025 14.8749 9.3335V13.1252H18.6666C19.1498 13.1252 19.5416 13.5169 19.5416 14.0002C19.5416 14.4834 19.1498 14.8752 18.6666 14.8752H14.8749V18.6668C14.8749 19.1501 14.4832 19.5418 13.9999 19.5418C13.5167 19.5418 13.1249 19.1501 13.1249 18.6668V14.8752H9.33325C8.85 14.8752 8.45825 14.4834 8.45825 14.0002C8.45825 13.5169 8.85 13.1252 9.33325 13.1252H13.1249V9.3335C13.1249 8.85025 13.5167 8.4585 13.9999 8.4585Z" fill="white"/>
</svg>
