<svg width="60" height="60" viewBox="0 0 60 60" fill="none" xmlns="http://www.w3.org/2000/svg">
<rect opacity="0.2" width="60" height="60" rx="12" fill="url(#paint0_linear_430_726)"/>
<g clip-path="url(#clip0_430_726)">
<path d="M23.5543 14.4841C24.0829 14.4348 24.6082 14.3996 25.138 14.3834C25.4346 14.3679 25.7341 14.3651 26.0337 14.3623C28.108 14.3048 30.1848 14.4002 32.2474 14.6479C34.2739 14.9069 36.2557 15.4508 38.1337 16.2631C39.0429 16.6591 40.2061 17.7229 39.4633 18.7956C39.0918 19.2314 38.6191 19.57 38.0859 19.7821C35.9485 20.9026 33.7192 21.8415 31.4215 22.5887C26.2511 24.0949 20.7062 23.7884 15.7066 21.72C14.6891 21.2997 13.7372 20.7343 12.8809 20.0415C11.9375 19.2534 11.7475 18.824 12.8486 18.0483C16.0604 15.994 19.7385 14.7694 23.5543 14.4841Z" fill="#D88121"/>
<path d="M36.7516 18.2586C36.0648 20.2591 34.7831 21.9995 33.0762 23.2493C31.361 24.4879 29.3055 25.176 27.1808 25.2229C24.842 25.1977 22.5426 24.585 20.4953 23.4413C19.5744 22.9569 18.683 22.4181 17.8259 21.8279C16.9327 21.3182 16.0965 20.7145 15.3315 20.0273C14.5717 19.1706 15.8323 18.865 16.4812 18.5679C17.3516 18.1741 18.2447 17.8313 19.1558 17.5411C22.8517 16.3679 26.7711 16.0397 30.6247 16.5807C31.1221 16.652 36.8745 17.9102 36.7516 18.2586Z" fill="white"/>
<path d="M37.252 16.974C37.5278 16.8619 37.8283 16.8221 38.1249 16.8584C38.4216 16.8948 38.7046 17.006 38.9471 17.1816C39.1895 17.3572 39.3834 17.5913 39.5102 17.8616C39.637 18.132 39.6925 18.4296 39.6716 18.7262C39.2715 24.641 38.8023 30.5451 38.4746 36.4564C38.4419 36.9292 38.4108 37.4083 38.3641 37.8777C38.1096 40.2495 37.5337 42.6692 35.9752 44.4925C34.5185 46.1013 32.583 47.2037 30.4477 47.6408C28.3255 48.0681 26.1601 48.2577 23.9919 48.2061C22.4042 48.1795 20.8385 47.8099 19.403 47.1226C17.6064 46.2429 16.7401 44.802 15.9987 42.9401C14.4964 39.3005 13.8265 35.468 13.3332 31.5946C12.8399 27.7212 12.2901 24.0004 12.0022 20.2057C11.7675 17.1298 14.7322 18.7956 16.7448 19.1069C21.8015 19.9487 26.9675 19.7906 31.9473 18.6417C33.748 18.1914 35.5194 17.6345 37.252 16.974Z" fill="#F4BC2F"/>
<path d="M39.9738 40.7277C39.5528 40.7518 39.1302 40.7061 38.7232 40.5922C37.9501 40.3533 37.2565 39.9071 36.7187 39.3026C36.1809 38.698 35.8198 37.9587 35.675 37.1659C35.5544 36.4197 35.5951 35.6576 35.7943 34.9308C35.9935 34.2039 36.3467 33.5292 36.8301 32.9516C37.91 31.6317 39.3962 30.9485 40.846 30.2803L41.5364 29.9409C42.5756 29.4844 43.5317 28.8611 44.3668 28.0958C45.117 27.4166 45.6167 26.506 45.787 25.5077C45.8519 25.082 45.8114 24.6462 45.669 24.2381C45.5267 23.8299 45.2868 23.4618 44.9701 23.1656C44.594 22.8891 44.1545 22.7113 43.6926 22.6487C43.2307 22.5862 42.7613 22.6409 42.3281 22.8077C41.3183 23.2126 40.4569 23.9123 39.8563 24.8156C39.1794 25.8393 38.6079 26.9289 38.1501 28.068C38.1017 28.2194 38.022 28.3589 37.9161 28.4774C37.8102 28.5959 37.6805 28.6909 37.5352 28.7562C37.3899 28.8215 37.2322 28.8558 37.0724 28.8568C36.9125 28.8578 36.7539 28.8254 36.6068 28.7619C36.4597 28.6983 36.3273 28.605 36.2181 28.4878C36.1089 28.3706 36.0253 28.2321 35.9727 28.0813C35.9201 27.9304 35.8996 27.7706 35.9125 27.6119C35.9254 27.4532 35.9715 27.2992 36.0478 27.1598C36.5599 25.861 37.2069 24.62 37.9783 23.4569C38.8544 22.1569 40.1198 21.1666 41.5962 20.6253C42.4004 20.3334 43.2676 20.2516 44.1158 20.3877C44.9639 20.5237 45.7648 20.873 46.4425 21.4026C47.064 21.9506 47.5391 22.6438 47.8246 23.419C48.1101 24.1942 48.1968 25.0268 48.077 25.8408C47.8377 27.3426 47.1038 28.7186 45.9905 29.7527C44.9784 30.6965 43.8129 31.4629 42.5429 32.0199L41.8132 32.3617C40.5481 32.9406 39.3635 33.4941 38.6174 34.4311C38.3451 34.7479 38.1429 35.1186 38.0239 35.5193C37.9049 35.9199 37.8716 36.3416 37.9262 36.7572C37.987 37.1352 38.1502 37.4903 38.3981 37.7841C38.6459 38.078 38.9691 38.2994 39.3327 38.4245C39.649 38.5093 39.9836 38.4906 40.2868 38.3713C40.5901 38.252 40.846 38.0383 41.0169 37.7619C41.0772 37.6237 41.1095 37.4749 41.1119 37.3238C41.1144 37.1728 41.087 37.0225 41.0312 36.8815C40.9953 36.7623 40.9354 36.6515 40.8551 36.5558C40.7749 36.4601 40.6759 36.3817 40.5644 36.3253C40.3046 36.1925 40.1044 35.9667 40.0042 35.6936C39.9041 35.4205 39.9116 35.1205 40.0252 34.8543C40.1387 34.5882 40.3499 34.3757 40.6159 34.2601C40.882 34.1444 41.183 34.1341 41.458 34.2313C41.8567 34.4098 42.2151 34.6676 42.511 34.9887C42.807 35.3098 43.0343 35.6874 43.1788 36.0982C43.3457 36.5308 43.4218 36.9922 43.4025 37.4539C43.3831 37.9156 43.2687 38.3676 43.0662 38.7819C42.7666 39.347 42.3239 39.8236 41.7817 40.1647C41.2395 40.5059 40.6165 40.6999 39.9738 40.7277Z" fill="#F4BC2F"/>
<path d="M33.2008 44.1365C31.5308 44.2308 31.1875 46.1264 32.0004 47.1222C33.078 46.721 34.0784 46.1406 34.9592 45.4055C34.8647 45.0208 34.6355 44.6815 34.313 44.4488C33.9905 44.216 33.596 44.1053 33.2008 44.1365Z" fill="white"/>
<path d="M32.7978 27.8859C30.4865 28.0226 30.7229 31.6039 33.0358 31.4735C35.3486 31.3431 35.117 27.7541 32.7978 27.8859Z" fill="white"/>
<path d="M38.4512 36.4202C38.4895 35.6674 38.5419 34.9179 38.5754 34.1729C38.4415 34.1553 38.3064 34.1489 38.1716 34.1535C35.8829 34.292 36.0946 37.7966 38.3684 37.7346C38.399 37.3091 38.4236 36.8583 38.4512 36.4202Z" fill="white"/>
<path d="M29.7941 25.2198C32.1055 25.0831 31.869 21.5018 29.5499 21.6337C27.2308 21.7655 27.475 25.3517 29.7941 25.2198Z" fill="white"/>
<path d="M38.9906 19.2078C36.673 19.3395 36.9108 22.9252 39.2268 22.7871L39.4159 22.7433C39.4999 21.5811 39.5818 20.4194 39.6616 19.2582C39.4424 19.2014 39.2151 19.1843 38.9906 19.2078Z" fill="white"/>
<path d="M30.879 36.5068C28.5677 36.6435 28.8041 40.2248 31.1217 40.0866C33.4393 39.9485 33.1966 36.3687 30.879 36.5068Z" fill="white"/>
<path d="M13.5848 33.4421L13.5407 33.4523C13.7106 34.6278 13.9134 35.8023 14.1367 36.9787C16.1097 36.561 15.7812 33.3179 13.5848 33.4421Z" fill="white"/>
<path d="M25.0738 48.173C25.2036 47.8938 25.2585 47.5854 25.2333 47.2776C25.208 46.9698 25.1034 46.6731 24.9296 46.4163C24.7558 46.1595 24.5188 45.9512 24.2414 45.8118C23.964 45.6723 23.6556 45.6063 23.3463 45.6202C23.0752 45.635 22.8117 45.7124 22.5767 45.8464C22.3417 45.9804 22.1415 46.1672 21.9921 46.3921C21.8427 46.617 21.7481 46.8738 21.7158 47.1423C21.6835 47.4108 21.7143 47.6836 21.8058 47.9392C22.5057 48.102 23.221 48.1861 23.9385 48.19L25.0738 48.173Z" fill="white"/>
<path d="M23.2453 28.4771C20.934 28.6138 21.1641 32.1966 23.4817 32.0584C25.7994 31.9203 25.5629 28.339 23.2453 28.4771Z" fill="white"/>
<path d="M12.9804 25.6498C12.8343 25.6675 12.6907 25.7008 12.552 25.749C12.7 26.9168 12.856 28.0894 13.004 29.2572L13.2288 29.2515C15.5328 29.0961 15.2951 25.5117 12.9804 25.6498Z" fill="white"/>
<path d="M21.2029 37.757C18.8915 37.8937 19.128 41.475 21.4393 41.3383C23.7506 41.2016 23.5205 37.6189 21.2029 37.757Z" fill="white"/>
<path d="M19.1649 25.3867C21.4826 25.2486 21.2462 21.6672 18.9285 21.8054C16.6109 21.9435 16.8536 25.5234 19.1649 25.3867Z" fill="white"/>
<g style="mix-blend-mode:multiply">
<path d="M35.9722 44.4897C37.4996 42.6733 38.0946 40.2485 38.3176 37.8834C38.3644 37.4138 38.3955 36.9346 38.4282 36.4617C38.7559 30.5488 39.2253 24.643 39.6255 18.7266C39.6465 18.4299 39.5909 18.1322 39.464 17.8618C39.3372 17.5914 39.1433 17.3572 38.9008 17.1816C38.6583 17.0059 38.3752 16.8947 38.0784 16.8583C37.7816 16.822 37.4811 16.8618 37.2053 16.9739C36.8341 17.1197 36.4725 17.25 36.1172 17.3789C36.097 18.5669 36.0986 19.7632 36.1051 20.9517C36.1133 22.645 36.1199 24.3321 36.0478 26.0241C35.9042 30.3785 34.9973 34.9098 32.3565 38.3537C30.3395 40.9176 27.5233 42.7387 24.3459 43.5337C21.6868 44.1856 18.9032 44.1801 16.2363 43.518C16.9427 45.0961 17.7939 46.3349 19.4077 47.1177C20.8436 47.8051 22.4098 48.1749 23.998 48.2014C26.1669 48.2531 28.3328 48.0634 30.4557 47.636C32.5867 47.1971 34.5179 46.0956 35.9722 44.4897Z" fill="#E8E8E8"/>
</g>
</g>
<defs>
<linearGradient id="paint0_linear_430_726" x1="60" y1="60" x2="-19.9676" y2="53.812" gradientUnits="userSpaceOnUse">
<stop stop-color="#C58BF2"/>
<stop offset="1" stop-color="#EEA4CE"/>
</linearGradient>
<clipPath id="clip0_430_726">
<rect width="36" height="34" fill="white" transform="translate(12 13)"/>
</clipPath>
</defs>
</svg>
