<svg width="39" height="36" viewBox="0 0 39 36" fill="none" xmlns="http://www.w3.org/2000/svg">
<path d="M39 17.4565C38.9979 26.2525 33.209 31.8482 26.0769 31.8494C18.9447 31.8507 13.1493 27.2831 13.1445 18.4852C13.1396 9.68731 18.9376 -0.000480143 26.0767 0.000133381C33.2158 0.00074675 39.0003 8.66746 39 17.4565Z" fill="#DB8E76"/>
<g style="mix-blend-mode:multiply">
<path d="M30.943 1.40173C31.072 1.67625 31.199 1.95777 31.3083 2.24953C32.0715 4.03467 32.6726 5.88486 33.1042 7.77773C33.9789 11.8742 33.8219 16.2942 32.0065 20.0748C30.191 23.8554 26.5157 26.8527 22.3484 27.236C19.6777 27.396 17.0192 26.7645 14.7057 25.4206C16.8536 29.6632 21.1283 31.8735 26.0767 31.8496C33.2088 31.8483 38.9978 26.2527 38.9999 17.4567C39.0013 10.7902 35.6683 4.19771 30.943 1.40173Z" fill="#E8E8E8"/>
</g>
<path d="M25.8554 21.501C25.8533 30.297 20.0644 35.8927 12.9323 35.8939C5.80016 35.8952 0.00475299 31.3276 -0.000114406 22.5297C-0.00498156 13.7318 5.79303 4.044 12.9321 4.04462C20.0713 4.04523 25.8557 12.7119 25.8554 21.501Z" fill="#DB8E76"/>
<g style="mix-blend-mode:multiply">
<path d="M17.7985 5.44622C17.9274 5.72074 18.0544 6.00226 18.1637 6.29402C18.927 8.07915 19.528 9.92935 19.9596 11.8222C20.8343 15.9187 20.6773 20.3387 18.8619 24.1193C17.0465 27.8999 13.3711 30.8972 9.20387 31.2805C6.53316 31.4405 3.8746 30.809 1.56112 29.4651C3.70898 33.7077 7.98373 35.918 12.9321 35.8941C20.0643 35.8928 25.8532 30.2972 25.8553 21.5011C25.8568 14.8347 22.5237 8.24219 17.7985 5.44622Z" fill="#E8E8E8"/>
</g>
</svg>
