<svg width="172" height="490" viewBox="0 0 172 490" fill="none" xmlns="http://www.w3.org/2000/svg">
<path d="M116.905 93.5429C116.905 93.5429 127.599 93.621 131.12 111.958C134.667 130.294 137.797 154.7 141.97 163.868C146.143 173.036 153.603 189.445 157.072 206.063C160.541 222.68 161.975 233.177 162.784 236.641C163.592 240.105 166.957 254.639 167.244 258.989C167.504 263.339 166.096 273.627 165.705 275.424C165.287 277.195 161.923 286.442 161.532 286.833C161.114 287.249 159.236 284.905 159.393 283.473C159.549 282.04 160.775 274.408 160.775 274.408L159.028 262.948C159.028 262.948 157.802 272.741 156.263 273.445C154.724 274.148 153.264 273.705 152.899 273.497C152.533 273.288 153.159 264.719 151.412 257.843C149.664 250.967 153.29 244.299 151.255 238.178C149.221 232.057 132.685 197.91 129.633 186.815C126.582 175.693 115.758 146.156 112.498 138.29C109.211 130.451 110.411 93.1522 116.905 93.5429Z" fill="#FFEDE5"/>
<path d="M116.853 131.284C115.888 127.924 113.619 128.054 111.011 129.669C111.298 133.472 111.793 136.598 112.497 138.291C113.358 140.322 114.714 143.838 116.305 148.11C117.375 144.62 118.783 138.056 116.853 131.284Z" fill="#DD825C"/>
<path d="M131.407 173.375C131.303 173.375 131.198 173.323 131.172 173.219C131.12 173.089 131.198 172.932 131.329 172.88L138.136 170.406C138.266 170.354 138.423 170.432 138.475 170.562C138.527 170.692 138.449 170.849 138.319 170.901L131.511 173.375C131.459 173.375 131.433 173.375 131.407 173.375Z" fill="#472938"/>
<path d="M52.3525 94.0387C52.3525 94.0387 39.7809 96.1745 36.1816 111.985C32.0346 130.191 29.5046 154.727 25.3315 163.895C21.1584 173.063 13.6989 189.472 10.23 206.09C6.76114 222.707 5.30055 233.178 4.49201 236.642C3.68346 240.106 0.318886 254.64 0.0319845 258.99C-0.228835 263.34 1.17959 273.628 1.57082 275.425C1.96205 277.222 5.35271 286.443 5.74394 286.833C6.16125 287.25 8.03916 284.906 7.88266 283.473C7.72617 282.041 6.50032 274.409 6.50032 274.409L8.24781 262.949C8.24781 262.949 9.47367 272.742 11.0125 273.446C12.5513 274.149 14.0119 273.706 14.3771 273.498C14.7422 273.289 14.1163 264.72 15.8638 257.844C17.6112 250.968 13.9859 244.3 16.0202 238.179C18.0546 232.058 34.5906 197.911 37.6683 186.816C40.7199 175.694 51.5439 146.157 54.8042 138.291C58.0905 130.451 58.8469 93.622 52.3525 94.0387Z" fill="#FFEDE5"/>
<path d="M47.8403 128.941C49.2487 125.738 53.6826 128.03 56.2908 129.645C56.0039 133.447 55.5084 136.573 54.8041 138.266C53.9434 140.298 52.5872 143.814 50.9962 148.085C48.9618 146.08 46.1971 132.692 47.8403 128.941Z" fill="#DD825C"/>
<path d="M35.9469 173.376C35.8947 173.376 35.8686 173.376 35.8165 173.35L30.2088 170.329C30.0784 170.25 30.0263 170.12 30.1045 169.99C30.1827 169.86 30.3132 169.808 30.4436 169.886L36.0512 172.907C36.1816 172.985 36.2338 173.116 36.1555 173.246C36.1294 173.324 36.0251 173.376 35.9469 173.376Z" fill="#472938"/>
<path d="M124.704 489.473H156.681C157.463 489.473 158.089 488.848 158.089 488.066C158.089 487.102 158.037 485.748 157.906 484.42H124.13C123.948 485.774 123.765 487.024 123.583 488.17C123.478 488.848 124.026 489.473 124.704 489.473Z" fill="#3B2645"/>
<path d="M156.446 479.497C154.724 478.403 149.273 473.767 147.5 461.786C147.5 461.786 147.5 461.786 147.5 461.76C147.5 461.734 147.5 461.681 147.474 461.655C147.343 460.9 146.404 457.28 139.545 457.306C131.903 457.358 130.807 465.927 130.364 465.823C129.92 465.719 128.825 460.561 126.895 460.509C126.086 468.506 125.069 477.622 124.156 484.42H157.932C157.698 482.232 157.306 480.018 156.446 479.497Z" fill="#AB8DA8"/>
<path d="M130.338 465.823C130.807 465.927 131.877 457.358 139.519 457.306C146.378 457.254 147.317 460.874 147.448 461.655C147.343 460.952 147.239 460.223 147.161 459.442C146.561 453.399 146.743 442.173 146.743 442.173L128.564 442.642C128.564 442.642 127.834 450.716 126.843 460.483C128.825 460.535 129.894 465.719 130.338 465.823Z" fill="#FFEDE5"/>
<path d="M156.446 479.497C156.446 479.575 156.42 479.627 156.42 479.627C156.42 479.627 149.612 479.627 140.797 479.627C131.981 479.627 130.312 465.823 130.312 465.823C129.842 465.719 128.773 460.562 126.843 460.509C126.034 468.506 125.017 477.622 124.104 484.42H157.88C157.698 482.232 157.307 480.07 156.446 479.497Z" fill="#AB8DA8"/>
<path d="M140.823 479.627C149.639 479.627 156.446 479.627 156.446 479.627C156.446 479.627 156.446 479.575 156.472 479.497C156.472 479.497 156.472 479.497 156.446 479.471C154.724 478.377 149.273 473.741 147.5 461.759C147.5 461.759 147.5 461.759 147.5 461.733C147.5 461.707 147.5 461.655 147.474 461.629C147.343 460.874 146.404 457.253 139.545 457.279C131.903 457.331 130.807 465.901 130.364 465.796C130.338 465.822 132.007 479.627 140.823 479.627Z" fill="#543753"/>
<path d="M47.084 489.473H15.1074C14.325 489.473 13.699 488.848 13.699 488.066C13.699 487.102 13.7512 485.748 13.8816 484.42H47.6578C47.8403 485.774 48.0229 487.024 48.2055 488.17C48.3098 488.848 47.7882 489.473 47.084 489.473Z" fill="#3B2645"/>
<path d="M15.3423 479.497C17.0637 478.403 22.5149 473.767 24.2884 461.786C24.2884 461.786 24.2884 461.786 24.2884 461.76C24.2884 461.734 24.2884 461.681 24.3145 461.655C24.4449 460.9 25.3839 457.28 32.2434 457.306C39.8855 457.358 40.9809 465.927 41.4243 465.823C41.8677 465.719 42.9631 460.561 44.8932 460.509C45.7018 468.506 46.7189 477.622 47.6318 484.42H13.8817C14.0904 482.232 14.5077 480.018 15.3423 479.497Z" fill="#AB8DA8"/>
<path d="M41.4501 465.823C40.9806 465.927 39.9113 457.358 32.2693 457.306C25.4097 457.254 24.4707 460.874 24.3403 461.655C24.4447 460.952 24.549 460.223 24.6272 459.442C25.2271 453.399 25.0446 442.173 25.0446 442.173L43.2237 442.642C43.2237 442.642 43.954 450.716 44.9451 460.483C42.9629 460.535 41.8935 465.719 41.4501 465.823Z" fill="#FFEDE5"/>
<path d="M15.3423 479.497C15.3423 479.575 15.3684 479.627 15.3684 479.627C15.3684 479.627 22.1758 479.627 30.9915 479.627C39.8072 479.627 41.4765 465.823 41.4765 465.823C41.9459 465.719 43.0153 460.562 44.9454 460.509C45.7539 468.506 46.7711 477.622 47.684 484.42H13.8817C14.0904 482.232 14.4816 480.07 15.3423 479.497Z" fill="#AB8DA8"/>
<path d="M30.9653 479.627C22.1496 479.627 15.3422 479.627 15.3422 479.627C15.3422 479.627 15.3422 479.575 15.3161 479.497C15.3161 479.497 15.3161 479.497 15.3422 479.471C17.0636 478.377 22.5148 473.741 24.2883 461.759C24.2883 461.759 24.2883 461.759 24.2883 461.733C24.2883 461.707 24.2883 461.655 24.3144 461.629C24.4448 460.874 25.3838 457.253 32.2433 457.279C39.8854 457.331 40.9808 465.901 41.4242 465.796C41.4503 465.822 39.781 479.627 30.9653 479.627Z" fill="#543753"/>
<path d="M141.683 353.042C139.44 342.858 139.649 313.895 137.406 273.939C135.867 246.643 128.434 225.624 123.869 215.049C82.0599 228.801 55.0129 220.388 45.4147 216.169C27.2356 256.645 31.513 303.815 32.0868 321.005C32.6867 339.342 28.4092 356.871 24.0275 381.354C19.6457 405.812 24.0275 443.11 24.0275 443.11C32.5041 446.158 43.5107 442.694 43.5107 442.694C43.0934 423.732 48.2055 405.786 52.9002 383.568C57.595 361.325 54.726 346.687 60.8552 330.173C66.9845 313.66 82.1642 258.416 82.1642 258.416H88.6847C91.1364 282.066 102.3 308.164 110.75 331.528C119.201 354.891 115.367 368.357 121.757 396.357C128.147 424.357 127.469 442.667 127.469 442.667C135.032 445.923 147.656 442.147 147.656 442.147C147.656 442.147 147.995 421.726 148.204 398.884C148.413 376.067 143.926 363.226 141.683 353.042Z" fill="#AB8DA8"/>
<path d="M123.843 215.075C121.73 210.178 120.244 207.496 120.244 207.496L49.353 208.173C47.9185 210.804 46.6144 213.486 45.3885 216.195C55.0128 220.415 82.0337 228.828 123.843 215.075Z" fill="#3B2645"/>
<path d="M96.9266 71.4559L98.022 87.2139C98.2046 89.6883 100.109 91.6678 102.56 91.9283L116.931 93.5432C116.931 93.5432 122.174 131.388 113.332 147.016C104.49 162.644 109.211 181.606 120.244 207.496C120.244 207.496 74.9395 217.68 49.353 208.173C49.353 208.173 60.6465 182.231 57.7775 163.478C54.9085 144.724 47.423 141.989 47.8403 128.966C48.2576 115.943 52.3264 94.0381 52.3264 94.0381L67.0366 91.2511C68.5233 90.9646 69.6448 89.7925 69.8535 88.3079L71.94 73.774L96.9266 71.4559Z" fill="#FFEDE5"/>
<path d="M71.9662 73.774C71.9662 73.774 79.1909 93.5432 97.6309 81.7181L96.9267 71.4559L71.9662 73.774Z" fill="#DD825C"/>
<path d="M113.306 147.016C114.793 144.385 115.862 141.156 116.645 137.561C116.958 135.738 117.375 131.232 115.654 123.861C113.358 114.12 113.958 93.2045 113.958 93.2045L104.934 92.1887C104.934 92.1887 103.578 123.236 83.3118 123.236C63.0461 123.236 63.5417 91.9022 63.5417 91.9022L55.7432 93.3868C55.7432 93.3868 57.1255 125.32 47.8664 128.94C47.4491 141.989 54.9346 144.698 57.8036 163.451C57.9862 164.676 58.1166 165.926 58.1949 167.202C58.1949 167.202 76.8957 175.276 108.742 166.603C108.533 159.466 109.915 153.007 113.306 147.016Z" fill="#AB8DA8"/>
<path d="M58.1688 167.228C58.1688 167.228 76.8695 175.302 108.716 166.629C108.663 164.858 108.716 163.112 108.872 161.419C86.2591 167.54 65.0283 164.024 57.595 162.409C57.6471 162.748 57.6993 163.112 57.7775 163.477C57.9601 164.701 58.0905 165.952 58.1688 167.228Z" fill="#3B2645"/>
<path d="M72.1227 154.414C67.6887 154.414 64.9501 153.216 64.8197 153.163C64.6893 153.111 64.6371 152.955 64.6893 152.825C64.7415 152.695 64.898 152.643 65.0284 152.695C65.0545 152.721 68.5755 154.231 73.9484 153.841C75.9306 153.684 77.4434 153.372 78.9301 153.059C81.5122 152.512 83.9378 151.991 87.9544 152.695C92.9883 153.58 99.2479 154.44 103.082 153.137C103.212 153.085 103.369 153.163 103.395 153.294C103.447 153.424 103.369 153.58 103.238 153.606C99.3262 154.935 92.9622 154.075 87.8762 153.163C83.9639 152.486 81.6948 152.955 79.0605 153.528C77.5477 153.841 76.0089 154.179 74.0006 154.336C73.3485 154.388 72.7226 154.414 72.1227 154.414Z" fill="#472938"/>
<path d="M83.703 209.241C84.236 209.241 84.6681 208.529 84.6681 207.652C84.6681 206.775 84.236 206.063 83.703 206.063C83.1701 206.063 82.738 206.775 82.738 207.652C82.738 208.529 83.1701 209.241 83.703 209.241Z" fill="#DD825C"/>
<path d="M108.267 59.2785C109.582 55.6384 109.066 52.1178 107.114 51.415C105.163 50.7121 102.515 53.0932 101.201 56.7333C99.886 60.3734 100.402 63.8941 102.353 64.5969C104.305 65.2997 106.952 62.9186 108.267 59.2785Z" fill="#FFEDE5"/>
<path d="M65.459 64.6055C67.4102 63.9027 67.9262 60.382 66.6115 56.7419C65.2968 53.1018 62.6491 50.7207 60.6979 51.4236C58.7466 52.1264 58.2306 55.647 59.5453 59.2871C60.8601 62.9272 63.5077 65.3083 65.459 64.6055Z" fill="#FFEDE5"/>
<path d="M64.2718 60.4648C64.1936 60.4648 64.1154 60.4387 64.0632 60.3606L61.5072 56.7402C61.4289 56.636 61.455 56.4536 61.5593 56.3755C61.6637 56.2974 61.8201 56.3234 61.9245 56.4276L64.4805 60.048C64.5588 60.1522 64.5327 60.3345 64.4283 60.4127C64.3762 60.4648 64.324 60.4648 64.2718 60.4648Z" fill="#472938"/>
<path d="M103.786 59.9701C103.734 59.9701 103.656 59.944 103.63 59.918C103.525 59.8138 103.525 59.6575 103.604 59.5533L106.316 56.4538C106.42 56.3496 106.577 56.3496 106.681 56.4278C106.786 56.532 106.786 56.6883 106.707 56.7924L103.995 59.8919C103.917 59.944 103.838 59.9701 103.786 59.9701Z" fill="#472938"/>
<path d="M103.786 49.9419C103.786 67.7576 95.6744 82.9687 83.9897 82.9687C72.305 82.9687 62.8372 66.5334 62.8372 48.7178C62.8372 30.9021 72.2789 18.452 83.9897 18.452C95.7005 18.452 103.786 32.1263 103.786 49.9419Z" fill="#FFEDE5"/>
<path d="M84.9609 26.8224C94.1597 25.8712 101.007 19.2191 100.255 11.9646C99.5026 4.71004 91.4357 -0.399798 82.2369 0.551423C73.0381 1.50264 66.1908 8.15472 66.943 15.4093C67.6952 22.6638 75.7621 27.7736 84.9609 26.8224Z" fill="#3B2645"/>
<g opacity="0.5">
<g opacity="0.5">
<path opacity="0.5" d="M84.9549 26.8123C93.7967 25.9006 100.448 19.7277 100.291 12.8254C97.6047 7.74637 90.9016 4.54267 83.4682 5.32406C74.6264 6.23568 67.9755 12.4087 68.132 19.3109C70.8445 24.39 77.5215 27.5937 84.9549 26.8123Z" fill="#3B2645"/>
</g>
</g>
<path d="M103.708 52.6249C103.708 52.6249 95.805 43.6129 96.8222 33.3246C96.8222 33.3246 89.9365 45.6966 62.8373 51.9738L60.4899 51.5049C60.4899 51.5049 51.8829 11.4978 83.9898 11.3936C103.317 11.3155 104.725 23.6354 104.725 23.6354C104.725 23.6354 115.393 26.813 107.098 51.4268L103.708 52.6249Z" fill="#3B2645"/>
<path d="M83.39 65.7522C82.0598 65.7522 80.3645 64.6843 80.1297 64.2415C79.8689 63.7206 80.5992 60.7773 81.825 57.5476C83.1291 54.1095 82.3988 52.1039 82.3988 52.0779C82.3467 51.9476 82.4249 51.7914 82.5553 51.7393C82.6857 51.6872 82.8422 51.7653 82.8944 51.8955C82.9205 51.9737 83.7029 54.0574 82.3206 57.7039C80.8861 61.5066 80.5209 63.7206 80.5992 63.981C80.7296 64.2415 82.3728 65.3094 83.5464 65.2052C84.7462 65.101 86.5459 64.0852 86.5459 64.0592C86.6763 63.981 86.8328 64.0331 86.8849 64.1634C86.9632 64.2936 86.911 64.4499 86.7806 64.502C86.7024 64.554 84.8766 65.5959 83.5725 65.7001C83.5204 65.7522 83.4421 65.7522 83.39 65.7522Z" fill="#472938"/>
<path d="M83.7028 71.7166C80.1296 71.7166 77.704 69.2943 77.5996 69.1901C77.4953 69.0859 77.4953 68.9297 77.5996 68.8255C77.704 68.7213 77.8605 68.7213 77.9648 68.8255C77.9909 68.8515 80.3643 71.1957 83.7028 71.1957C87.0413 71.1957 89.4148 68.8515 89.4409 68.8255C89.5452 68.7213 89.7017 68.7213 89.806 68.8255C89.9103 68.9297 89.9103 69.0859 89.806 69.1901C89.7017 69.2943 87.276 71.7166 83.7028 71.7166Z" fill="#472938"/>
<path d="M93.3533 55.4901C92.4665 55.464 91.7884 54.7087 91.8145 53.8231L91.8666 52.6771C91.8927 51.7915 92.6491 51.1143 93.5359 51.1403C94.4227 51.1664 95.1008 51.9217 95.0747 52.8073L95.0226 53.9533C94.9965 54.8389 94.2401 55.5422 93.3533 55.4901Z" fill="#472938"/>
<path d="M74.7828 55.4901C73.896 55.5422 73.1396 54.8389 73.1135 53.9534L73.0614 52.8073C73.0092 51.9218 73.7134 51.1664 74.6002 51.1404C75.487 51.0883 76.2433 51.7915 76.2694 52.6771L76.3216 53.8231C76.3477 54.7087 75.6695 55.464 74.7828 55.4901Z" fill="#472938"/>
<path d="M98.3087 47.1284C98.3087 47.1284 96.3004 45.3312 93.2489 45.8782C90.1973 46.4252 89.5191 46.5815 89.3105 46.347C89.1018 46.1387 88.841 44.4196 92.3621 43.8726C95.8831 43.3257 98.1262 45.748 98.3087 47.1284Z" fill="#472938"/>
<path d="M170.947 258.99C170.687 254.64 167.296 240.106 166.487 236.642C165.679 233.178 164.244 222.681 160.775 206.064C157.307 189.446 149.847 173.037 145.674 163.869C141.501 154.7 138.371 130.295 134.824 111.958C131.277 93.6217 120.609 93.5436 120.609 93.5436L116.384 93.0747L108.611 92.2152L106.212 91.9547C103.76 91.6682 101.856 89.6887 101.674 87.2404L101.308 81.7706L100.839 74.9204C102.821 72.0033 104.412 68.4089 105.56 64.3977C105.716 64.5019 105.873 64.5801 106.029 64.6321C107.985 65.3354 110.62 62.9652 111.95 59.3187C113.254 55.6722 112.732 52.156 110.802 51.4527C119.096 26.865 108.429 23.6613 108.429 23.6613C108.429 23.6613 107.933 19.4158 103.63 15.9516C103.917 14.9618 104.047 13.92 104.021 12.8781C104.021 12.5916 103.995 12.3051 103.969 12.0186C103.212 4.77774 95.1531 -0.327336 85.9462 0.610331C76.7393 1.57404 69.9058 8.21585 70.6622 15.4567C70.7143 16.0558 70.8447 16.6549 71.0012 17.2279C59.1861 28.3236 64.1938 51.5309 64.1938 51.5309C62.4202 52.3904 61.9768 55.8025 63.2549 59.2927C64.559 62.887 67.1672 65.2573 69.0972 64.6321C70.61 69.1382 72.7487 73.1232 75.3308 76.2228L73.5833 88.3343C73.3747 89.8189 72.2271 90.991 70.7665 91.2775L67.2454 91.9547L63.7243 92.6059L56.0562 94.0645C56.0562 94.0645 43.4847 96.2003 39.8854 112.01C35.7384 130.217 33.2084 154.752 29.0353 163.921C24.8622 173.089 17.4027 189.498 13.9338 206.116C10.4388 222.681 9.00432 233.178 8.19578 236.642C7.38724 240.106 4.02267 254.64 3.73576 258.99C3.47494 263.339 4.88337 273.628 5.2746 275.425C5.69191 277.196 9.05649 286.443 9.44772 286.833C9.86503 287.25 11.7429 284.906 11.5864 283.473C11.43 282.041 10.2041 274.409 10.2041 274.409L11.9516 262.949C11.9516 262.949 13.1774 272.742 14.7163 273.445C16.2551 274.149 17.7157 273.706 18.0809 273.498C18.446 273.289 17.82 264.72 19.5675 257.844C21.315 250.967 17.6896 244.3 19.724 238.179C21.7584 232.058 38.2944 197.911 41.3721 186.815C43.6412 178.585 50.1617 160.248 54.7261 148.111C54.8304 147.85 54.9086 147.616 55.013 147.355C55.013 147.329 55.039 147.303 55.039 147.303C55.1434 147.069 55.2216 146.808 55.2999 146.574V146.548C55.3781 146.313 55.4824 146.079 55.5607 145.845C55.5607 145.818 55.5868 145.792 55.5868 145.792C55.665 145.584 55.7433 145.402 55.7954 145.219C57.7776 149.439 59.9685 154.44 61.2987 162.436C61.3509 162.775 61.403 163.139 61.4813 163.504C61.5335 163.816 61.5595 164.103 61.6117 164.416C61.6117 164.468 61.6117 164.494 61.6378 164.546C61.6639 164.806 61.6899 165.093 61.7421 165.353C61.7421 165.379 61.7421 165.379 61.7421 165.405C61.7943 166.03 61.8464 166.629 61.8986 167.255C62.9419 185.539 53.0829 208.199 53.0829 208.199C51.6484 210.83 50.3443 213.513 49.1184 216.222C30.9393 256.698 35.2167 303.867 35.7905 321.058C36.3904 339.395 32.113 356.924 27.7312 381.407C23.3494 405.865 27.7312 443.163 27.7312 443.163C28.0703 443.293 28.4093 443.398 28.7745 443.502C28.8006 446.627 28.8266 454.676 28.3572 459.468C28.2789 460.223 28.1746 460.953 28.0703 461.682C28.0703 461.734 28.0442 461.786 28.0442 461.786V461.812C26.2445 473.768 20.8195 478.43 19.0981 479.524C18.3938 479.967 18.0026 481.503 17.7679 483.222V483.248C17.7418 483.379 17.7418 483.509 17.7157 483.613C17.7157 483.639 17.7157 483.691 17.7157 483.717C17.7157 483.821 17.6896 483.9 17.6896 484.004C17.6635 484.134 17.6635 484.264 17.6375 484.42C17.5071 485.775 17.481 487.103 17.4549 488.067C17.4549 488.848 18.0809 489.473 18.8633 489.473H50.8398C51.5441 489.473 52.0657 488.848 51.9614 488.145C51.7788 486.999 51.5962 485.749 51.4136 484.394C50.4747 477.596 49.4836 468.48 48.675 460.484C47.7622 451.498 47.058 443.945 46.9536 442.798C47.1362 442.746 47.2405 442.72 47.2405 442.72C46.8232 423.759 51.9353 405.813 56.63 383.595C61.3248 361.352 58.4558 346.714 64.585 330.2C70.7143 313.687 85.894 258.443 85.894 258.443H92.4145C94.8662 282.093 106.029 308.191 114.48 331.555C122.93 354.918 119.096 368.384 125.486 396.384C131.877 424.384 131.198 442.694 131.198 442.694C131.564 442.851 131.929 442.981 132.32 443.111C132.163 444.934 131.485 452.071 130.625 460.51C129.816 468.506 128.799 477.622 127.886 484.42C127.703 485.775 127.521 487.025 127.338 488.171C127.234 488.874 127.756 489.499 128.46 489.499H160.436C161.219 489.499 161.845 488.874 161.845 488.093C161.845 487.129 161.793 485.775 161.662 484.447C161.662 484.316 161.636 484.186 161.61 484.03C161.61 483.926 161.584 483.847 161.584 483.743C161.584 483.717 161.584 483.665 161.584 483.639C161.558 483.509 161.558 483.379 161.532 483.274V483.248C161.297 481.503 160.906 479.967 160.202 479.55C158.48 478.456 153.029 473.82 151.256 461.838V461.812C151.256 461.786 151.255 461.76 151.229 461.708C151.125 461.005 151.021 460.276 150.943 459.494C150.369 453.946 150.499 444.049 150.525 442.46C151.099 442.304 151.412 442.225 151.412 442.225C151.412 442.225 151.751 421.805 151.96 398.963C152.168 376.12 147.682 363.279 145.439 353.095C143.196 342.911 143.405 313.947 141.162 273.992C139.545 246.644 132.111 225.65 127.547 215.076C125.434 210.179 123.948 207.496 123.948 207.496C117.14 191.504 112.732 178.168 112.419 166.629C112.419 166.187 112.393 165.744 112.393 165.301C112.393 163.973 112.446 162.696 112.576 161.42V161.394C112.654 160.561 112.758 159.727 112.889 158.92C112.889 158.894 112.889 158.868 112.889 158.868C112.941 158.451 113.019 158.06 113.098 157.67C113.098 157.643 113.098 157.644 113.098 157.617C113.176 157.227 113.254 156.862 113.332 156.471C113.332 156.445 113.332 156.419 113.358 156.393C113.437 156.003 113.541 155.638 113.645 155.247C113.645 155.195 113.671 155.169 113.671 155.117C113.776 154.752 113.854 154.414 113.984 154.075C113.984 154.049 114.01 154.023 114.01 153.971C114.115 153.606 114.245 153.242 114.376 152.877C114.402 152.825 114.428 152.747 114.428 152.695C114.532 152.356 114.662 152.044 114.793 151.705C114.793 151.679 114.819 151.653 114.819 151.601C114.949 151.262 115.106 150.898 115.236 150.559C115.262 150.481 115.288 150.403 115.341 150.324C115.471 150.012 115.628 149.673 115.784 149.361C115.784 149.335 115.81 149.309 115.81 149.283C115.967 148.944 116.149 148.605 116.306 148.267C116.358 148.189 116.384 148.111 116.436 148.032C116.619 147.694 116.801 147.355 116.984 147.017C117.14 146.73 117.323 146.418 117.479 146.105C117.531 146.027 117.558 145.923 117.61 145.845C117.74 145.61 117.844 145.35 117.949 145.115C117.975 145.037 118.027 144.959 118.053 144.855C118.184 144.568 118.288 144.282 118.418 143.995C118.47 144.099 118.497 144.204 118.549 144.308C118.549 144.334 118.575 144.36 118.575 144.386C118.653 144.594 118.731 144.803 118.81 145.011C118.81 145.037 118.836 145.063 118.836 145.089C118.914 145.298 118.992 145.532 119.096 145.74C119.096 145.766 119.122 145.792 119.122 145.792C119.201 146.027 119.305 146.261 119.383 146.496V146.522C119.462 146.756 119.566 146.991 119.644 147.251C119.644 147.277 119.67 147.303 119.67 147.303C119.775 147.564 119.853 147.798 119.957 148.058C124.521 160.222 131.042 178.559 133.311 186.763C136.363 197.885 152.899 232.006 154.959 238.127C157.02 244.247 153.368 250.915 155.116 257.792C156.863 264.668 156.237 273.237 156.602 273.445C156.967 273.654 158.428 274.097 159.967 273.393C161.506 272.69 162.732 262.897 162.732 262.897L164.479 274.357C164.479 274.357 163.253 281.989 163.097 283.421C162.94 284.854 164.844 287.198 165.235 286.781C165.653 286.364 169.017 277.144 169.409 275.373C169.8 273.654 171.234 263.339 170.947 258.99Z" stroke="white" stroke-miterlimit="10"/>
</svg>
