<svg width="14" height="14" viewBox="0 0 14 14" fill="none" xmlns="http://www.w3.org/2000/svg">
<path d="M2.33333 9.33366C3.622 9.33366 4.66667 8.28899 4.66667 7.00033C4.66667 5.71166 3.622 4.66699 2.33333 4.66699C1.04467 4.66699 0 5.71166 0 7.00033C0 8.28899 1.04467 9.33366 2.33333 9.33366Z" fill="#1D1617"/>
<path d="M11.6666 13.9997C12.9552 13.9997 13.9999 12.955 13.9999 11.6663C13.9999 10.3777 12.9552 9.33301 11.6666 9.33301C10.3779 9.33301 9.33325 10.3777 9.33325 11.6663C9.33325 12.955 10.3779 13.9997 11.6666 13.9997Z" fill="#1D1617"/>
<path d="M4.41772 8.04199L9.56661 10.6164" stroke="#1D1617" stroke-width="1.2" stroke-linecap="round" stroke-linejoin="round"/>
<path d="M11.6666 4.66667C12.9552 4.66667 13.9999 3.622 13.9999 2.33333C13.9999 1.04467 12.9552 0 11.6666 0C10.3779 0 9.33325 1.04467 9.33325 2.33333C9.33325 3.622 10.3779 4.66667 11.6666 4.66667Z" fill="#1D1617"/>
<path d="M4.41772 5.95823L9.56661 3.38379" stroke="#1D1617" stroke-width="1.2" stroke-linecap="round" stroke-linejoin="round"/>
</svg>
