<svg width="60" height="60" viewBox="0 0 60 60" fill="none" xmlns="http://www.w3.org/2000/svg">
<circle opacity="0.5" cx="30" cy="30" r="30" fill="white"/>
<g clip-path="url(#clip0_0_127)">
<path d="M43.2933 20.3027H23.5327C23.0534 20.3027 22.5937 20.4975 22.2547 20.8443C21.9158 21.1911 21.7253 21.6614 21.7253 22.1518V42.3679C21.7253 42.8583 21.9158 43.3287 22.2547 43.6754C22.5937 44.0222 23.0534 44.217 23.5327 44.217H37.2045L42.7043 48.8499V44.217H43.2789C43.7583 44.217 44.218 44.0222 44.557 43.6754C44.8959 43.3287 45.0863 42.8583 45.0863 42.3679V22.1518C45.0863 21.6639 44.8979 21.1958 44.562 20.8495C44.2262 20.5031 43.7702 20.3066 43.2933 20.3027Z" fill="white"/>
<path d="M23.7511 20.3028H43.3767C43.8339 20.3028 44.2724 20.4886 44.5958 20.8194C44.9191 21.1502 45.1007 21.5988 45.1007 22.0666V27.7843C45.1007 27.8022 45.0938 27.8194 45.0814 27.8321C45.069 27.8448 45.0522 27.8519 45.0346 27.8519H21.7915C21.7739 27.8519 21.7571 27.8448 21.7447 27.8321C21.7323 27.8194 21.7254 27.8022 21.7254 27.7843V22.3723C21.7238 22.0999 21.7752 21.8298 21.8765 21.5778C21.9778 21.3258 22.127 21.0969 22.3155 20.9044C22.5039 20.7119 22.7279 20.5596 22.9743 20.4563C23.2208 20.353 23.4848 20.3008 23.7511 20.3028Z" fill="#FF725E"/>
<path d="M31.8081 31.415V39.5462H29.9691V32.926H28.3801V31.415H31.8081Z" fill="#263238"/>
<path d="M39.423 31.415V32.635L36.4633 39.5462H34.4519L37.3024 32.9495H34.6789V34.2812H33.0439V31.415H39.423Z" fill="#263238"/>
<path d="M36.6789 24.5803C36.6789 24.6215 35.0726 24.6568 33.0928 24.6568C31.113 24.6568 29.5039 24.6274 29.5039 24.5803C29.5039 24.5333 31.1102 24.5039 33.0928 24.5039C35.0755 24.5039 36.6789 24.5451 36.6789 24.5803Z" fill="#263238"/>
<path d="M43.2935 20.3028C43.2935 20.3028 43.3337 20.3028 43.4171 20.3028C43.5375 20.308 43.657 20.3267 43.7734 20.3586C44.0026 20.4197 44.2178 20.5265 44.4066 20.6728C44.5954 20.819 44.7542 21.002 44.8739 21.2111C45.05 21.5191 45.1377 21.8716 45.1268 22.2282C45.1268 22.6133 45.1268 23.0367 45.1268 23.4894C45.1268 24.4007 45.1268 25.4442 45.1268 26.6113C45.1268 28.963 45.1268 31.7822 45.1268 35.0217C45.1268 36.6415 45.1268 38.3641 45.1268 40.175C45.1268 40.6306 45.1268 41.0892 45.1268 41.5537V42.2533C45.1352 42.4962 45.1032 42.7387 45.0319 42.9706C44.877 43.449 44.5434 43.8454 44.1038 44.073C43.8988 44.1821 43.6756 44.251 43.4458 44.2758C43.1958 44.2758 42.9631 44.2758 42.7188 44.2758L42.7849 44.2082C42.7849 45.678 42.7849 47.2331 42.7849 48.8382V48.991L42.67 48.894L37.1587 44.2758L37.2047 44.2934H23.51C23.1902 44.2892 22.8768 44.2017 22.5993 44.0392C22.3218 43.8766 22.0893 43.6444 21.9238 43.3645C21.815 43.183 21.7364 42.9844 21.6911 42.7766C21.6565 42.5679 21.643 42.3561 21.6508 42.1445V38.467C21.6508 35.251 21.6508 32.1496 21.6508 29.1953C21.6508 27.7156 21.6508 26.2762 21.6508 24.8769C21.6508 24.1772 21.6508 23.4913 21.6508 22.8191C21.638 22.4787 21.6495 22.1378 21.6853 21.799C21.7508 21.4604 21.9036 21.1457 22.1278 20.8877C22.3481 20.6358 22.6296 20.4482 22.9439 20.3439C23.2525 20.2579 23.5731 20.226 23.8921 20.2498H29.1562L39.5006 20.2763H42.3137H43.0435C43.2102 20.2763 43.2935 20.2763 43.2935 20.2763H43.0435H42.3137H39.5006L29.1562 20.2998H25.7282H23.9065C23.6011 20.2769 23.2942 20.3067 22.9985 20.388C22.7046 20.4877 22.4412 20.664 22.2342 20.8995C22.0254 21.14 21.8835 21.4334 21.8233 21.7491C21.7903 22.0801 21.7807 22.4132 21.7945 22.7456V24.8034C21.7945 26.2027 21.7945 27.6421 21.7945 29.1218C21.7945 32.0615 21.7945 35.1775 21.7945 38.3935V42.1298C21.7872 42.3266 21.7998 42.5236 21.8319 42.7178C21.8722 42.9128 21.9441 43.0996 22.0445 43.2704C22.2483 43.6159 22.5617 43.8794 22.9324 44.0171C23.319 44.1278 23.7221 44.1656 24.122 44.1288H37.2248L37.2449 44.1465L42.7418 48.7823L42.6269 48.8352C42.6269 47.2302 42.6269 45.6663 42.6269 44.2053V44.1376H42.6958C42.9343 44.1376 43.1814 44.1376 43.4142 44.1376C43.7567 44.1112 44.0839 43.9818 44.3548 43.7658C44.6257 43.5499 44.8283 43.2568 44.9371 42.9236C45.0068 42.7056 45.0379 42.4766 45.0291 42.2474V41.5478C45.0291 41.0833 45.0291 40.6247 45.0291 40.1691C45.0291 38.3582 45.0291 36.6415 45.0291 35.0158C45.0291 31.7822 45.0291 28.9454 45.0434 26.6054C45.0434 25.4295 45.0434 24.3948 45.0434 23.4835C45.0434 22.5722 45.1584 21.7696 44.8078 21.2287C44.5755 20.8107 44.1914 20.5033 43.7389 20.3733C43.5928 20.3363 43.4437 20.3126 43.2935 20.3028Z" fill="#263238"/>
<path d="M36.8999 17.96H36.8511C36.4448 17.96 36.1155 18.2969 36.1155 18.7125V22.6076C36.1155 23.0232 36.4448 23.3601 36.8511 23.3601H36.8999C37.3062 23.3601 37.6355 23.0232 37.6355 22.6076V18.7125C37.6355 18.2969 37.3062 17.96 36.8999 17.96Z" fill="#E0E0E0"/>
<path d="M36.9025 23.3598C37.0589 23.3373 37.2072 23.2746 37.3335 23.1775C37.4745 23.0592 37.5652 22.8895 37.5864 22.7042C37.5864 22.4896 37.5864 22.2221 37.5864 21.9399C37.5864 21.352 37.5864 20.6817 37.5864 19.935C37.5864 19.5558 37.5864 19.159 37.5864 18.7592C37.5911 18.6628 37.5757 18.5666 37.5414 18.4767C37.507 18.3869 37.4545 18.3055 37.3871 18.238C37.3198 18.1705 37.2392 18.1184 37.1507 18.0851C37.0622 18.0518 36.9678 18.038 36.8738 18.0448C36.779 18.0446 36.6853 18.0652 36.5991 18.1053C36.5128 18.1454 36.436 18.2039 36.3738 18.2771C36.3134 18.3501 36.268 18.4349 36.2403 18.5263C36.2127 18.6177 36.2033 18.7139 36.2129 18.8091C36.2129 19.2207 36.2129 19.6175 36.2129 19.985C36.2129 20.7346 36.2129 21.4137 36.2129 21.9928C36.2129 22.1339 36.2129 22.2691 36.2129 22.3985C36.2025 22.5158 36.2025 22.6339 36.2129 22.7512C36.2478 22.9353 36.3507 23.0985 36.5002 23.2069C36.6338 23.2951 36.787 23.3477 36.9456 23.3598C36.9039 23.3686 36.8609 23.3686 36.8192 23.3598C36.6945 23.3536 36.5736 23.3141 36.4686 23.2451C36.2989 23.1332 36.1784 22.9582 36.1324 22.7571C36.114 22.6346 36.1073 22.5106 36.1123 22.3867C36.1123 22.2574 36.1123 22.1222 36.1123 21.9811C36.1123 21.3931 36.1123 20.7229 36.0951 19.9732C36.0951 19.597 36.0951 19.2001 36.0951 18.7974C36.0849 18.684 36.0969 18.5697 36.1305 18.4612C36.164 18.3527 36.2184 18.2521 36.2904 18.1653C36.3656 18.074 36.4593 18.0004 36.5649 17.9497C36.6706 17.8989 36.7858 17.8722 36.9025 17.8714C37.0178 17.8649 37.1331 17.8833 37.241 17.9253C37.3489 17.9674 37.447 18.0321 37.5289 18.1154C37.5969 18.2044 37.6469 18.3064 37.676 18.4154C37.7051 18.5245 37.7127 18.6383 37.6984 18.7503C37.6984 19.159 37.6984 19.5558 37.6984 19.9262C37.6984 20.6729 37.6984 21.352 37.6812 21.9311C37.6812 22.225 37.6812 22.469 37.6611 22.7072C37.6467 22.8083 37.6126 22.9055 37.5608 22.9928C37.5089 23.0802 37.4404 23.156 37.3594 23.2157C37.2607 23.2925 37.1435 23.3402 37.0203 23.3539C36.9818 23.3637 36.9418 23.3657 36.9025 23.3598Z" fill="#263238"/>
<path d="M29.7654 17.96H29.7166C29.3103 17.96 28.981 18.2969 28.981 18.7125V22.6076C28.981 23.0232 29.3103 23.3601 29.7166 23.3601H29.7654C30.1717 23.3601 30.501 23.0232 30.501 22.6076V18.7125C30.501 18.2969 30.1717 17.96 29.7654 17.96Z" fill="#E0E0E0"/>
<path d="M29.7651 23.3599C29.9226 23.3381 30.072 23.2754 30.1989 23.1776C30.34 23.0593 30.4306 22.8896 30.4518 22.7043C30.4518 22.4897 30.4518 22.2222 30.4518 21.94C30.4518 21.3521 30.4518 20.6818 30.4346 19.9352C30.4346 19.5559 30.4346 19.1591 30.4346 18.7593C30.4393 18.6629 30.4239 18.5667 30.3896 18.4768C30.3553 18.387 30.3027 18.3056 30.2353 18.2381C30.168 18.1706 30.0874 18.1185 29.9989 18.0852C29.9104 18.0519 29.816 18.0382 29.722 18.0449C29.6272 18.0443 29.5334 18.0648 29.447 18.1049C29.3607 18.145 29.2839 18.2038 29.222 18.2772C29.1612 18.3501 29.1154 18.4348 29.0872 18.5262C29.0591 18.6176 29.0492 18.7139 29.0582 18.8093C29.0582 19.2208 29.0582 19.6177 29.0582 19.9851C29.0582 20.7347 29.0582 21.4138 29.0409 21.9929C29.0409 22.134 29.0409 22.2693 29.0409 22.3986C29.0304 22.5159 29.0304 22.634 29.0409 22.7514C29.0748 22.9359 29.1779 23.0994 29.3283 23.207C29.4608 23.2954 29.613 23.348 29.7708 23.3599C29.7708 23.3599 29.7306 23.3599 29.6444 23.3599C29.5206 23.3536 29.4007 23.3141 29.2967 23.2452C29.1262 23.1342 29.0054 22.9589 28.9605 22.7572C28.9426 22.6347 28.9349 22.5108 28.9375 22.3868C28.9375 22.2575 28.9375 22.1223 28.9375 21.9812C28.9375 21.3932 28.9375 20.723 28.9375 19.9734C28.9375 19.5971 28.9375 19.2002 28.9375 18.7975C28.9206 18.5684 28.9917 18.3417 29.1358 18.1655C29.2108 18.074 29.3045 18.0003 29.4101 17.9495C29.5158 17.8988 29.6311 17.8721 29.7478 17.8715C29.8627 17.8647 29.9777 17.883 30.0852 17.925C30.1927 17.9671 30.2902 18.032 30.3714 18.1155C30.45 18.1975 30.5115 18.2951 30.552 18.4022C30.5926 18.5094 30.6112 18.6239 30.607 18.7387C30.607 19.1473 30.607 19.5442 30.607 19.9146C30.607 20.6613 30.607 21.3403 30.607 21.9194C30.607 22.2134 30.607 22.4574 30.5869 22.6955C30.5593 22.8968 30.4563 23.0792 30.2995 23.2041C30.2006 23.2803 30.0835 23.328 29.9604 23.3422C29.8988 23.3692 29.8304 23.3753 29.7651 23.3599Z" fill="#263238"/>
<g opacity="0.3">
<path opacity="0.3" d="M28.1096 20.5293C28.2054 21.4867 28.1158 22.4541 27.846 23.3762C27.5763 24.2982 27.1315 25.1568 26.5372 25.9029C25.943 26.649 25.2108 27.268 24.3826 27.7245C23.5544 28.181 22.6464 28.4661 21.7104 28.5634L21.9978 24.5449L25.558 20.5852L28.1096 20.5293Z" fill="black"/>
</g>
<path d="M22.4734 26.8952C26.0619 25.9696 28.2376 22.2432 27.3329 18.572C26.4282 14.9008 22.7857 12.675 19.1972 13.6005C15.6087 14.5261 13.4331 18.2525 14.3378 21.9237C15.2425 25.5949 18.8849 27.8207 22.4734 26.8952Z" fill="white"/>
<path d="M20.8297 27.8407C19.4065 27.8397 18.0136 27.4202 16.8169 26.6321C15.6202 25.8439 14.6703 24.7204 14.0802 23.3954C13.4902 22.0704 13.285 20.5998 13.489 19.1588C13.6931 17.7178 14.2978 16.3673 15.2311 15.268C16.1644 14.1688 17.387 13.3673 18.7531 12.959C20.1192 12.5507 21.5712 12.5528 22.9362 12.9651C24.3011 13.3774 25.5214 14.1825 26.4517 15.2845C27.3819 16.3865 27.9828 17.7388 28.1828 19.1804C28.4568 21.1735 27.947 23.1965 26.7652 24.8056C25.5834 26.4148 23.826 27.4787 21.8785 27.7642C21.5312 27.8157 21.1807 27.8412 20.8297 27.8407ZM20.847 14.133C20.5586 14.1326 20.2705 14.1532 19.9849 14.1947C18.8152 14.3666 17.7215 14.8894 16.8422 15.697C15.9628 16.5046 15.3371 17.5608 15.0443 18.732C14.7515 19.9033 14.8047 21.1371 15.1971 22.2775C15.5895 23.4179 16.3035 24.4136 17.249 25.139C18.1944 25.8643 19.3288 26.2866 20.5088 26.3525C21.6887 26.4184 22.8613 26.125 23.8784 25.5094C24.8954 24.8937 25.7112 23.9834 26.2226 22.8935C26.7341 21.8036 26.9183 20.5831 26.7519 19.3862C26.5494 17.9305 25.8411 16.5982 24.7566 15.6335C23.6721 14.6687 22.2841 14.136 20.847 14.133Z" fill="#455A64"/>
<path d="M20.8466 14.1324C20.879 14.1277 20.9119 14.1277 20.9443 14.1324C21.0075 14.1324 21.1023 14.1324 21.2316 14.1324C21.5979 14.1493 21.9616 14.2025 22.3178 14.2911C22.8825 14.4339 23.4237 14.6607 23.924 14.9643C24.5907 15.3663 25.1759 15.8951 25.6481 16.5223C26.2186 17.2848 26.6055 18.1741 26.7774 19.1181C26.8212 19.3769 26.8519 19.6379 26.8693 19.9C26.8765 20.0342 26.8765 20.1686 26.8693 20.3027C26.8693 20.438 26.8693 20.5761 26.8693 20.7114C26.8236 21.2767 26.7077 21.8339 26.5245 22.3693C26.3116 22.9259 26.0285 23.4516 25.6826 23.9332C25.3152 24.4276 24.883 24.8678 24.3982 25.2414C23.3585 26.0181 22.1038 26.4352 20.8165 26.432C19.5292 26.4289 18.2764 26.0056 17.2404 25.2238C16.7548 24.8499 16.3225 24.4086 15.956 23.9127C15.6179 23.4272 15.3435 22.8985 15.14 22.3399C14.9586 21.8053 14.8447 21.2491 14.8009 20.6849C14.7245 19.5412 14.9609 18.3983 15.4837 17.3843C16.0064 16.3702 16.7948 15.5252 17.7605 14.9437C18.447 14.5341 19.2075 14.2711 19.9961 14.1706L20.4587 14.1441L20.746 14.1294C20.7785 14.1261 20.8112 14.1261 20.8437 14.1294H20.746L20.4587 14.1559L19.9989 14.197C19.8179 14.2264 19.6139 14.2676 19.384 14.3264C18.0811 14.6672 16.9301 15.4508 16.1198 16.5488C15.562 17.2986 15.1832 18.1713 15.0135 19.0975C14.919 19.6108 14.8909 20.1347 14.9302 20.6555C14.9742 21.2079 15.0871 21.7523 15.2664 22.2753C15.4665 22.8197 15.736 23.3347 16.0681 23.8068C16.4273 24.29 16.8499 24.7203 17.3238 25.0856C18.3351 25.8463 19.5569 26.2581 20.8122 26.2613C22.0675 26.2645 23.2912 25.8589 24.3062 25.1032C24.7816 24.7398 25.2052 24.3104 25.5648 23.8274C25.8986 23.3565 26.1701 22.8425 26.3722 22.2988C26.5555 21.7775 26.6714 21.234 26.717 20.682C26.7343 20.5497 26.717 20.4145 26.717 20.2822C26.7242 20.151 26.7242 20.0195 26.717 19.8883C26.6912 19.6266 26.6797 19.3709 26.6308 19.121C26.4667 18.194 26.0928 17.3191 25.5389 16.5664C24.7275 15.4707 23.5817 14.6834 22.2833 14.3293C21.931 14.2353 21.5715 14.1723 21.2087 14.1412C20.9788 14.1382 20.8466 14.1382 20.8466 14.1324Z" fill="#263238"/>
<path d="M20.8296 27.84C20.8296 27.84 20.8699 27.84 20.9503 27.84L21.3009 27.8135C21.456 27.7988 21.6457 27.7812 21.8756 27.7459L22.6428 27.5842C23.3316 27.3934 23.9925 27.1097 24.6082 26.7405C25.4149 26.2364 26.1233 25.5835 26.6972 24.815C27.3839 23.8777 27.8509 22.7915 28.062 21.6402C28.0953 21.4852 28.1183 21.328 28.131 21.1698C28.131 21.0111 28.1655 20.8524 28.1799 20.6877C28.1942 20.5231 28.1799 20.3644 28.1799 20.1968V19.9499L28.1569 19.7C28.1124 19.0122 27.9731 18.3342 27.7431 17.6863C27.2266 16.2383 26.2886 14.9872 25.0555 14.1015C23.8224 13.2158 22.3535 12.7382 20.8469 12.733C19.3359 12.7279 17.8602 13.1997 16.6209 14.084C15.3817 14.9683 14.4391 16.2222 13.9219 17.6746C13.4688 18.9432 13.3625 20.3143 13.6144 21.6402C13.7213 22.2377 13.8979 22.82 14.1403 23.3746C14.2572 23.6343 14.3877 23.8875 14.5311 24.133L14.7437 24.4887L14.9822 24.815C15.5493 25.5843 16.2555 26.235 17.0626 26.7317C17.6762 27.105 18.3377 27.3889 19.028 27.5754C19.2791 27.6452 19.5344 27.6982 19.7923 27.7341C19.9823 27.769 20.1742 27.7916 20.367 27.8017L20.7204 27.8282C20.7606 27.825 20.801 27.825 20.8411 27.8282H20.7204H20.367C20.1744 27.8239 19.9823 27.8052 19.7923 27.7724C19.5323 27.7435 19.2749 27.6944 19.0222 27.6254C18.3225 27.4483 17.6511 27.1702 17.0281 26.7993C16.2003 26.304 15.4735 25.6503 14.8874 24.8738L14.646 24.5446L14.4276 24.1859C14.28 23.9328 14.1457 23.6718 14.0253 23.404C13.7771 22.8402 13.5958 22.2481 13.4851 21.6402C13.2285 20.2943 13.3338 18.9023 13.7897 17.6128C14.3165 16.1342 15.2757 14.8575 16.5369 13.9565C17.7981 13.0555 19.3 12.5739 20.8382 12.5772C22.3772 12.5785 23.8784 13.0645 25.1379 13.9691C26.3974 14.8737 27.3542 16.1531 27.8781 17.6334C28.1119 18.2956 28.2522 18.9885 28.2948 19.6912L28.3149 19.944V20.1968C28.3149 20.3644 28.3149 20.5319 28.3149 20.6966C28.3149 20.8612 28.2689 21.0199 28.2689 21.1816C28.2567 21.3429 28.2327 21.5031 28.1971 21.6608C27.972 22.8298 27.4852 23.9296 26.7748 24.8738C26.1895 25.6491 25.4672 26.3052 24.6455 26.8081C24.0197 27.1738 23.3491 27.4526 22.6514 27.6371L21.8756 27.7841C21.685 27.8119 21.4932 27.8295 21.3009 27.837C21.1457 27.837 21.0135 27.837 20.9474 27.837L20.8296 27.84Z" fill="#263238"/>
<path d="M24.2357 10.7992L23.6235 11.8037L27.5607 14.3153L28.1729 13.3108L24.2357 10.7992Z" fill="#455A64"/>
<path d="M27.5532 14.3442C27.5532 14.3442 27.6049 14.2384 27.7055 14.0502L28.1279 13.3094L28.1423 13.3712C27.2515 12.8214 25.8119 11.9395 24.1999 10.896L24.3034 10.8724L24.2832 10.9048L24.2229 10.9988L24.1453 11.1282L23.9902 11.381L23.7028 11.8749L23.6712 11.769C24.7717 12.4804 25.7343 13.1154 26.4297 13.5799L27.2515 14.1296C27.444 14.2619 27.5388 14.3354 27.5388 14.3442C27.4379 14.2994 27.3416 14.2443 27.2515 14.1796L26.4297 13.6769C25.7228 13.2418 24.7229 12.6186 23.5879 11.8984L23.5247 11.8572L23.5649 11.7955L23.8522 11.2987L24.0189 11.0576L24.0965 10.9312L24.1367 10.8666L24.1568 10.8225V10.8048L24.2775 10.7637C25.8924 11.7955 27.3176 12.7215 28.1911 13.3006L28.2285 13.3271L28.2055 13.3653C27.9986 13.6857 27.8348 13.9356 27.7256 14.1002C27.676 14.1871 27.6183 14.2688 27.5532 14.3442Z" fill="#263238"/>
<path d="M14.7712 12.4491L11.5522 16.1963L12.4199 16.9764L15.6389 13.2292L14.7712 12.4491Z" fill="#455A64"/>
<path d="M12.4215 16.9755C12.4215 16.9755 12.5077 16.8579 12.6629 16.6639L13.3266 15.8555C13.9013 15.1764 14.6771 14.2387 15.5794 13.1804V13.2862L14.7174 12.5072H14.8237L14.7949 12.5278L14.7633 12.5719L14.703 12.6424L14.5794 12.7865L14.3352 13.0804L13.864 13.6184L12.9818 14.6326L11.5853 16.2259V16.1612C11.8353 16.3993 12.0393 16.5963 12.2002 16.7491C12.2794 16.8209 12.3543 16.8974 12.4244 16.9784C12.3367 16.9244 12.254 16.8624 12.1772 16.7932C12.025 16.6668 11.798 16.4787 11.5135 16.2288L11.479 16.1994L11.5077 16.1641L12.8697 14.5444L13.7318 13.5184L14.226 12.9687C14.3036 12.8746 14.3869 12.7806 14.4674 12.6747L14.5909 12.5307L14.6513 12.4572L14.6829 12.4219L14.7001 12.4043H14.8064C15.0938 12.6747 15.3811 12.9364 15.6685 13.1863L15.7231 13.2362L15.6742 13.2921C14.7633 14.3562 13.9415 15.2911 13.3554 15.9495L12.6686 16.7168C12.5919 16.8085 12.5093 16.8949 12.4215 16.9755Z" fill="#263238"/>
<path d="M17.9128 20.8465L18.4847 19.7324L20.5277 20.679L22.7258 16.584L23.7545 17.1866L20.907 22.3516L17.9128 20.8465Z" fill="#455A64"/>
<path d="M20.9099 22.3605L17.9043 20.8495L18.479 19.7295L20.5162 20.6702L22.723 16.5752L23.7575 17.1808L20.9099 22.3605ZM17.9244 20.8436L20.907 22.3428L23.7489 17.1896L22.7317 16.6017L20.5306 20.6878L18.4991 19.7442L17.9244 20.8436Z" fill="#263238"/>
<path d="M16.8435 28.71C16.7349 28.6759 16.63 28.6306 16.5303 28.5747C16.4102 28.5176 16.2932 28.4538 16.1798 28.3837C16.0254 28.2938 15.8758 28.1957 15.7315 28.0897C15.3499 27.8281 14.9913 27.533 14.6597 27.2078C14.2544 26.8102 13.8869 26.3741 13.5621 25.9055C13.248 25.4361 12.9768 24.9382 12.7518 24.418C12.5695 23.9884 12.4224 23.5439 12.3122 23.0893C12.268 22.9149 12.2325 22.7383 12.2058 22.5602C12.1792 22.4272 12.161 22.2927 12.1512 22.1574C12.134 22.0427 12.1282 21.9265 12.134 21.8105C12.1627 21.8105 12.2087 22.2985 12.4213 23.0599C12.543 23.5054 12.6977 23.9407 12.884 24.3622C13.1168 24.875 13.3918 25.3667 13.7058 25.832C14.0221 26.2919 14.3759 26.7236 14.7632 27.1225C15.0875 27.4419 15.4342 27.7367 15.8005 28.0044C16.4212 28.4719 16.8579 28.6953 16.8435 28.71Z" fill="#263238"/>
<path d="M13.4533 27.1434C13.2696 26.9767 13.1082 26.786 12.9734 26.576C12.6238 26.0894 12.3189 25.5708 12.0625 25.0268C11.8065 24.4815 11.6016 23.9126 11.4505 23.3277C11.3723 23.0903 11.3269 22.843 11.3154 22.5928C11.4071 22.8229 11.4848 23.0585 11.5482 23.2983C11.7263 23.866 11.9413 24.4209 12.1918 24.9592C12.4463 25.4959 12.7343 26.0154 13.0539 26.5143C13.2015 26.714 13.335 26.9242 13.4533 27.1434Z" fill="#263238"/>
</g>
<defs>
<clipPath id="clip0_0_127">
<rect width="34.4754" height="38.2364" fill="white" transform="translate(10.6885 10.7637)"/>
</clipPath>
</defs>
</svg>
