<svg width="40" height="40" viewBox="0 0 40 40" fill="none" xmlns="http://www.w3.org/2000/svg">
<circle opacity="0.2" cx="20" cy="20" r="20" fill="url(#paint0_linear_430_18)"/>
<g clip-path="url(#clip0_430_18)">
<path fill-rule="evenodd" clip-rule="evenodd" d="M33.5 24.3905C33.5 26.9361 27.4591 29 20.0007 29C12.5423 29 6.5 26.9361 6.5 24.3905C6.5 21.8449 12.5409 19.781 20.0007 19.781C27.4605 19.781 33.5 21.8449 33.5 24.3905Z" fill="#E2CAB3"/>
<path fill-rule="evenodd" clip-rule="evenodd" d="M33.5 23.882C33.5 26.4276 27.4591 28.4915 20.0007 28.4915C12.5423 28.4915 6.5 26.4276 6.5 23.882C6.5 21.3363 12.5409 19.2725 20.0007 19.2725C27.4605 19.2725 33.5 21.3363 33.5 23.882Z" fill="white"/>
<path fill-rule="evenodd" clip-rule="evenodd" d="M33.5 23.8092C33.5 26.2752 27.4591 28.274 20.0007 28.274C12.5423 28.274 6.5 26.2752 6.5 23.8092C6.5 21.3432 12.5409 19.3457 20.0007 19.3457C27.4605 19.3457 33.5 21.3445 33.5 23.8092Z" fill="#E7D8C8"/>
<path fill-rule="evenodd" clip-rule="evenodd" d="M32.9016 23.8092C32.9016 25.5691 27.7317 26.9945 21.3551 26.9945C14.9784 26.9945 9.80713 25.5691 9.80713 23.8092C9.80713 22.0492 14.977 20.6238 21.3551 20.6238C27.7331 20.6238 32.9016 22.0506 32.9016 23.8092Z" fill="#E2CAB3"/>
<path d="M31.9281 23.9234C31.6823 22.8351 30.4853 22.3746 29.5399 22.3016C28.9568 22.2578 28.3738 22.3746 27.7922 22.4051C27.469 22.4226 27.1449 22.4101 26.8243 22.3679C26.4702 22.3215 26.1317 22.2007 25.7748 22.1728C25.1553 22.125 24.5414 22.3281 23.964 22.5405C23.2854 22.7913 22.6069 23.0196 21.9115 23.2134C20.5397 23.6082 19.1265 23.8605 17.6969 23.9659C17.1154 24.0159 16.5301 24.0128 15.9492 23.9566C15.5418 23.9088 15.14 23.8239 14.7326 23.7788C14.019 23.7031 13.228 23.7921 12.94 24.5844C12.7241 24.5837 12.5112 24.632 12.3191 24.7251C12.0283 24.8432 11.6391 25.0529 11.4888 25.3569C11.1755 25.9926 12.1912 26.2421 12.5677 26.3098C12.926 26.3735 13.287 26.3961 13.6467 26.4319C14.1468 26.4824 14.5486 26.7067 14.9715 26.9801C16.0377 27.6689 17.4609 27.714 18.6747 27.6344C19.3442 27.587 20.0061 27.4699 20.6485 27.2853C21.327 27.0942 22.0253 27.2097 22.7108 27.3198C23.2997 27.4374 23.9113 27.4025 24.481 27.219C25.0541 27.0265 25.5515 26.6748 26.0418 26.3218C26.6135 25.9103 27.264 25.8851 27.9369 25.8333C28.6003 25.7944 29.2586 25.6989 29.9037 25.548C30.4453 25.4187 30.9726 25.2409 31.4786 25.0171C31.9084 24.8034 32.0293 24.4052 31.9281 23.9234Z" fill="#EEBE30"/>
<path d="M28.0954 22.9771C28.0954 24.6919 24.2418 26.2859 19.6016 26.2859C14.9613 26.2859 11.0769 24.5738 11.0769 22.859C11.0769 21.1442 14.9613 20.0718 19.6016 20.0718C24.2418 20.0718 28.0954 21.2623 28.0954 22.9771Z" fill="#E3AC8A"/>
<path d="M28.0027 22.6463C28.0027 24.3611 24.2419 25.7507 19.6017 25.7507C14.9614 25.7507 11.1992 24.3611 11.1992 22.6463C11.1992 20.9315 14.9614 19.5405 19.6017 19.5405C24.2419 19.5405 28.0027 20.9315 28.0027 22.6463Z" fill="#DA840D"/>
<path d="M25.7129 22.3518C25.7129 23.6246 22.9229 24.6546 19.4796 24.6546C16.0363 24.6546 13.2434 23.6246 13.2434 22.3518C13.2434 21.079 16.0377 20.0491 19.4796 20.0491C22.9215 20.0491 25.7129 21.087 25.7129 22.3518Z" fill="#F0A508"/>
<path d="M15.2844 23.2011C15.2844 23.3338 15.1257 23.4493 14.929 23.4493C14.7323 23.4493 14.575 23.3378 14.575 23.2011C14.575 23.0644 14.7337 22.9529 14.929 22.9529C15.1243 22.9529 15.2844 23.0644 15.2844 23.2011Z" fill="#DA840D"/>
<path d="M14.5751 22.1569C14.5732 22.1934 14.56 22.2287 14.5371 22.2582C14.5142 22.2877 14.4826 22.3103 14.4463 22.323C14.41 22.3358 14.3705 22.3382 14.3327 22.3299C14.295 22.3217 14.2606 22.3032 14.2339 22.2767C14.2071 22.2502 14.1892 22.2168 14.1823 22.1808C14.1755 22.1448 14.1799 22.1077 14.1952 22.074C14.2104 22.0403 14.2358 22.0116 14.2681 21.9915C14.3004 21.9713 14.3383 21.9605 14.377 21.9604C14.4037 21.961 14.43 21.9665 14.4545 21.9766C14.4789 21.9868 14.501 22.0014 14.5194 22.0197C14.5378 22.038 14.5522 22.0595 14.5618 22.083C14.5713 22.1066 14.5759 22.1317 14.5751 22.1569Z" fill="#DA840D"/>
<path d="M17.0365 23.5024C17.041 23.5669 17.0249 23.6312 16.9902 23.687C16.9556 23.7427 16.904 23.7874 16.8421 23.8151C16.7803 23.8428 16.711 23.8523 16.6434 23.8423C16.5758 23.8324 16.5128 23.8035 16.4628 23.7593C16.4128 23.7152 16.378 23.6578 16.3629 23.5948C16.3478 23.5317 16.3531 23.4658 16.3782 23.4056C16.4032 23.3454 16.4468 23.2938 16.5033 23.2573C16.5599 23.2208 16.6267 23.2013 16.6951 23.2011C16.7385 23.1997 16.7817 23.2064 16.8224 23.2207C16.863 23.2351 16.9002 23.2569 16.9319 23.2849C16.9636 23.3129 16.9892 23.3465 17.0071 23.3838C17.0251 23.4211 17.0351 23.4614 17.0365 23.5024Z" fill="#DA840D"/>
<path d="M16.2946 22.307C16.2946 22.3892 16.1976 22.4569 16.0796 22.4569C15.9616 22.4569 15.8633 22.3892 15.8633 22.307C15.8633 22.2247 15.9602 22.157 16.0796 22.157C16.199 22.157 16.2946 22.2233 16.2946 22.307Z" fill="#DA840D"/>
<path d="M18.4666 23.0184C18.4718 23.0601 18.4634 23.1022 18.4425 23.1393C18.4217 23.1764 18.3895 23.2066 18.35 23.226C18.3106 23.2453 18.2659 23.2529 18.2218 23.2477C18.1778 23.2425 18.1364 23.2248 18.1032 23.1969C18.07 23.169 18.0466 23.1322 18.0361 23.0914C18.0255 23.0507 18.0283 23.0078 18.0441 22.9686C18.0599 22.9294 18.088 22.8956 18.1245 22.8718C18.1611 22.848 18.2045 22.8352 18.2489 22.8352C18.3034 22.8327 18.3567 22.8504 18.3974 22.8847C18.4382 22.9189 18.463 22.967 18.4666 23.0184Z" fill="#DA840D"/>
<path d="M18.5494 24.1239C18.5494 24.2089 18.4455 24.2779 18.3162 24.2779C18.187 24.2779 18.083 24.2089 18.083 24.1239C18.083 24.039 18.1884 23.97 18.3162 23.97C18.4441 23.97 18.5494 24.039 18.5494 24.1239Z" fill="#DA840D"/>
<path d="M17.6198 22.4766C17.6173 22.5074 17.6053 22.5369 17.5852 22.5614C17.5651 22.5858 17.5379 22.6041 17.5069 22.6141C17.4759 22.6241 17.4425 22.6252 17.4108 22.6174C17.3791 22.6096 17.3506 22.5931 17.3287 22.5701C17.3068 22.5471 17.2926 22.5186 17.2877 22.488C17.2829 22.4574 17.2877 22.4261 17.3014 22.3981C17.3152 22.37 17.3374 22.3464 17.3653 22.3302C17.3932 22.3139 17.4255 22.3058 17.4582 22.3067C17.5032 22.3098 17.5451 22.3292 17.5753 22.3609C17.6054 22.3926 17.6213 22.434 17.6198 22.4766Z" fill="#DA840D"/>
<path d="M20.0388 22.7991C20.0388 22.8841 19.9376 22.9531 19.8126 22.9531C19.6876 22.9531 19.5864 22.8841 19.5864 22.7991C19.5864 22.7142 19.6876 22.6465 19.8126 22.6465C19.9376 22.6465 20.0388 22.7142 20.0388 22.7991Z" fill="#DA840D"/>
<path d="M20.0388 23.5938C20.0388 23.6442 19.9376 23.6854 19.8126 23.6854C19.6876 23.6854 19.5864 23.6442 19.5864 23.5938C19.5864 23.5433 19.6876 23.5022 19.8126 23.5022C19.9376 23.5022 20.0388 23.5433 20.0388 23.5938Z" fill="#DA840D"/>
<path d="M21.5685 23.0776C21.5685 23.1453 21.4772 23.2011 21.3634 23.2011C21.2496 23.2011 21.1597 23.1453 21.1597 23.0776C21.1597 23.01 21.251 22.9529 21.3634 22.9529C21.4758 22.9529 21.5685 23.0086 21.5685 23.0776Z" fill="#DA840D"/>
<path d="M21.3242 23.9646C21.3338 24.006 21.3295 24.0491 21.3121 24.0881C21.2946 24.1271 21.2648 24.16 21.2266 24.1823C21.1885 24.2045 21.1441 24.2151 21.0993 24.2124C21.0546 24.2098 21.0119 24.1941 20.977 24.1675C20.9421 24.1409 20.9168 24.1048 20.9047 24.0641C20.8925 24.0233 20.8939 23.98 20.9089 23.9401C20.9239 23.9002 20.9516 23.8657 20.9882 23.8413C21.0249 23.8169 21.0686 23.8039 21.1134 23.804C21.1638 23.7995 21.214 23.8138 21.2534 23.8438C21.2928 23.8738 21.3181 23.9172 21.3242 23.9646Z" fill="#DA840D"/>
<path d="M23.0267 23.707C23.0179 23.7465 22.9974 23.7829 22.9676 23.8119C22.9378 23.8409 22.9 23.8614 22.8584 23.8709C22.8168 23.8804 22.7732 23.8785 22.7327 23.8655C22.6922 23.8526 22.6564 23.829 22.6295 23.7976C22.6025 23.7662 22.5856 23.7282 22.5806 23.688C22.5757 23.6479 22.5828 23.6072 22.6013 23.5708C22.6198 23.5343 22.6489 23.5036 22.6851 23.4821C22.7214 23.4606 22.7633 23.4493 22.8061 23.4495C22.8713 23.4565 22.9309 23.4874 22.9721 23.5356C23.0134 23.5837 23.033 23.6453 23.0267 23.707Z" fill="#DA840D"/>
<path d="M22.9046 22.5471C22.9046 22.6002 22.8329 22.6427 22.7444 22.6427C22.6559 22.6427 22.5857 22.6002 22.5857 22.5471C22.5857 22.494 22.6573 22.4529 22.7444 22.4529C22.8315 22.4529 22.9046 22.4993 22.9046 22.5471Z" fill="#DA840D"/>
<path d="M24.2533 22.8297C24.2533 23.0355 24.1564 23.2014 24.0384 23.2014C23.9204 23.2014 23.822 23.0355 23.822 22.8297C23.822 22.624 23.919 22.4568 24.0384 22.4568C24.1578 22.4568 24.2533 22.624 24.2533 22.8297Z" fill="#DA840D"/>
<path d="M24.794 22.4513C24.794 22.4777 24.7829 22.5031 24.7631 22.5217C24.7434 22.5404 24.7166 22.5509 24.6886 22.5509C24.6607 22.5509 24.6339 22.5404 24.6141 22.5217C24.5944 22.5031 24.5833 22.4777 24.5833 22.4513C24.5833 22.4249 24.5944 22.3996 24.6141 22.381C24.6339 22.3623 24.6607 22.3518 24.6886 22.3518C24.7164 22.3522 24.743 22.3627 24.7627 22.3813C24.7824 22.3999 24.7936 22.4251 24.794 22.4513Z" fill="#DA840D"/>
<path d="M21.251 22.1343C21.251 22.2286 21.119 22.3069 20.9574 22.3069C20.7959 22.3069 20.6638 22.2286 20.6638 22.1343C20.6638 22.0401 20.7945 21.9604 20.9574 21.9604C21.1204 21.9604 21.251 22.0388 21.251 22.1343Z" fill="#DA840D"/>
<path d="M15.7427 21.2395C15.7427 21.2979 15.6401 21.3457 15.5137 21.3457C15.3872 21.3457 15.2847 21.2979 15.2847 21.2395C15.2847 21.1811 15.3872 21.1333 15.5137 21.1333C15.6401 21.1333 15.7427 21.1811 15.7427 21.2395Z" fill="#DA840D"/>
<path d="M17.0913 21.0261C17.0913 21.0858 16.9747 21.1336 16.8314 21.1336C16.6881 21.1336 16.5701 21.0858 16.5701 21.0261C16.5701 20.9664 16.6867 20.9199 16.8314 20.9199C16.9761 20.9199 17.0913 20.9677 17.0913 21.0261Z" fill="#DA840D"/>
<path d="M18.7882 21.2873C18.7882 21.3709 18.6309 21.4399 18.4356 21.4399C18.2404 21.4399 18.083 21.3709 18.083 21.2873C18.083 21.2036 18.2418 21.1333 18.4356 21.1333C18.6295 21.1333 18.7882 21.2023 18.7882 21.2873Z" fill="#DA840D"/>
<path d="M20.0386 21.0261C20.0389 21.0475 20.0324 21.0684 20.02 21.0863C20.0076 21.1042 19.9899 21.1182 19.969 21.1265C19.9482 21.1348 19.9252 21.137 19.903 21.1329C19.8808 21.1288 19.8604 21.1186 19.8444 21.1034C19.8284 21.0883 19.8175 21.0691 19.8132 21.0481C19.8088 21.0271 19.8112 21.0054 19.82 20.9857C19.8288 20.966 19.8436 20.9492 19.8625 20.9375C19.8814 20.9258 19.9036 20.9197 19.9262 20.9199C19.956 20.9199 19.9846 20.9311 20.0057 20.951C20.0268 20.9709 20.0386 20.9979 20.0386 21.0261Z" fill="#DA840D"/>
<path d="M19.8126 21.866C19.8126 21.9177 19.7058 21.9602 19.5723 21.9602C19.4389 21.9602 19.3335 21.9177 19.3335 21.866C19.3335 21.8142 19.4403 21.7717 19.5723 21.7717C19.7044 21.7717 19.8126 21.8142 19.8126 21.866Z" fill="#DA840D"/>
<path d="M21.6905 20.9793C21.6899 21.0101 21.6797 21.0401 21.661 21.0654C21.6424 21.0907 21.6162 21.1101 21.5858 21.1213C21.5554 21.1325 21.5221 21.1348 21.4903 21.1281C21.4585 21.1214 21.4295 21.1059 21.407 21.0835C21.3845 21.0612 21.3696 21.033 21.3641 21.0026C21.3587 20.9722 21.3629 20.941 21.3763 20.9129C21.3897 20.8848 21.4116 20.8611 21.4393 20.8448C21.467 20.8285 21.4992 20.8203 21.5318 20.8214C21.5532 20.8219 21.5743 20.8264 21.5938 20.8346C21.6134 20.8428 21.6311 20.8546 21.6458 20.8693C21.6605 20.8839 21.6721 20.9012 21.6797 20.9201C21.6874 20.939 21.6911 20.9591 21.6905 20.9793Z" fill="#DA840D"/>
<path d="M22.5854 21.6061C22.5854 21.6327 22.5026 21.6539 22.3986 21.6539C22.2946 21.6539 22.2131 21.6327 22.2131 21.6061C22.2131 21.5796 22.296 21.5583 22.3986 21.5583C22.5011 21.5583 22.5854 21.5796 22.5854 21.6061Z" fill="#DA840D"/>
<path d="M23.1688 21.2929C23.1723 21.3068 23.1711 21.3215 23.1654 21.3348C23.1596 21.3481 23.1496 21.3594 23.1368 21.3671C23.1239 21.3748 23.1089 21.3785 23.0937 21.3777C23.0785 21.3769 23.064 21.3717 23.0521 21.3627C23.0402 21.3537 23.0316 21.3415 23.0274 21.3276C23.0233 21.3138 23.0238 21.2991 23.0289 21.2856C23.034 21.272 23.0435 21.2604 23.056 21.2521C23.0685 21.2439 23.0833 21.2396 23.0985 21.2398C23.1153 21.2383 23.1319 21.243 23.1451 21.2529C23.1582 21.2628 23.1667 21.2771 23.1688 21.2929Z" fill="#DA840D"/>
<path d="M22.5854 21.6058C22.5821 21.6346 22.5701 21.6619 22.5508 21.6844C22.5315 21.7069 22.5058 21.7236 22.4766 21.7325C22.4475 21.7415 22.4162 21.7423 22.3866 21.7348C22.357 21.7274 22.3303 21.712 22.3098 21.6905C22.2892 21.669 22.2757 21.6424 22.2708 21.6138C22.2659 21.5852 22.2699 21.5559 22.2823 21.5294C22.2946 21.5029 22.3148 21.4804 22.3405 21.4645C22.3661 21.4486 22.396 21.4401 22.4267 21.4399C22.4486 21.441 22.4701 21.4461 22.49 21.455C22.5099 21.4639 22.5277 21.4764 22.5425 21.4918C22.5572 21.5072 22.5686 21.5252 22.576 21.5448C22.5833 21.5643 22.5865 21.5851 22.5854 21.6058Z" fill="#DA840D"/>
<path d="M23.4875 21.3404C23.4875 21.3948 23.4004 21.4399 23.2923 21.4399C23.1841 21.4399 23.0984 21.3948 23.0984 21.3404C23.0984 21.286 23.1855 21.2395 23.2923 21.2395C23.399 21.2395 23.4875 21.2846 23.4875 21.3404Z" fill="#DA840D"/>
<path d="M28.0954 21.7029C28.0954 23.4164 24.2418 25.0117 19.6016 25.0117C14.9613 25.0117 11.0769 23.2983 11.0769 21.5848C11.0769 19.8713 14.9613 18.7976 19.6016 18.7976C24.2418 18.7976 28.0954 19.9881 28.0954 21.7029Z" fill="#E3AC8A"/>
<path d="M28.0027 21.3713C28.0027 23.086 24.2419 24.4757 19.6017 24.4757C14.9614 24.4757 11.1992 23.086 11.1992 21.3713C11.1992 19.6565 14.9614 18.2668 19.6017 18.2668C24.2419 18.2668 28.0027 19.6565 28.0027 21.3713Z" fill="#DA840D"/>
<path d="M19.4795 23.3804C22.922 23.3804 25.7128 22.3494 25.7128 21.0777C25.7128 19.8059 22.922 18.7749 19.4795 18.7749C16.0369 18.7749 13.2461 19.8059 13.2461 21.0777C13.2461 22.3494 16.0369 23.3804 19.4795 23.3804Z" fill="#F0A508"/>
<path d="M15.2844 21.9274C15.2844 22.0601 15.1257 22.1756 14.929 22.1756C14.7323 22.1756 14.575 22.0641 14.575 21.9274C14.575 21.7907 14.7337 21.6792 14.929 21.6792C15.1243 21.6792 15.2844 21.7894 15.2844 21.9274Z" fill="#DA840D"/>
<path d="M14.5753 20.8814C14.5742 20.9182 14.5616 20.9538 14.5392 20.9839C14.5168 21.014 14.4855 21.0371 14.4492 21.0505C14.4129 21.0638 14.3733 21.0668 14.3352 21.059C14.2972 21.0512 14.2624 21.0329 14.2353 21.0066C14.2081 20.9802 14.1898 20.9469 14.1826 20.9107C14.1754 20.8746 14.1797 20.8372 14.1948 20.8033C14.2099 20.7694 14.2353 20.7405 14.2678 20.7202C14.3002 20.6998 14.3383 20.689 14.3772 20.689C14.4304 20.69 14.481 20.7108 14.518 20.7468C14.5551 20.7828 14.5757 20.8312 14.5753 20.8814Z" fill="#DA840D"/>
<path d="M17.0365 22.2282C17.041 22.2927 17.0249 22.357 16.9902 22.4128C16.9556 22.4685 16.904 22.5132 16.8421 22.5409C16.7803 22.5685 16.711 22.578 16.6434 22.5681C16.5758 22.5582 16.5128 22.5292 16.4628 22.4851C16.4128 22.441 16.378 22.3836 16.3629 22.3206C16.3478 22.2575 16.3531 22.1916 16.3782 22.1314C16.4032 22.0712 16.4468 22.0196 16.5033 21.9831C16.5599 21.9466 16.6267 21.927 16.6951 21.9269C16.7826 21.9244 16.8676 21.9547 16.9315 22.0111C16.9955 22.0675 17.0332 22.1456 17.0365 22.2282Z" fill="#DA840D"/>
<path d="M16.2946 21.0324C16.2946 21.1147 16.1976 21.1824 16.0796 21.1824C15.9616 21.1824 15.8633 21.1147 15.8633 21.0324C15.8633 20.9501 15.9602 20.8811 16.0796 20.8811C16.199 20.8811 16.2946 20.9541 16.2946 21.0324Z" fill="#DA840D"/>
<path d="M18.4666 21.7508C18.4718 21.7925 18.4634 21.8346 18.4425 21.8717C18.4217 21.9088 18.3895 21.939 18.35 21.9584C18.3106 21.9777 18.2659 21.9853 18.2218 21.9801C18.1778 21.9749 18.1364 21.9572 18.1032 21.9293C18.07 21.9014 18.0466 21.8646 18.0361 21.8239C18.0255 21.7831 18.0283 21.7403 18.0441 21.701C18.0599 21.6618 18.088 21.6281 18.1245 21.6042C18.1611 21.5804 18.2045 21.5676 18.2489 21.5676C18.3034 21.5651 18.3567 21.5828 18.3974 21.6171C18.4382 21.6514 18.463 21.6994 18.4666 21.7508Z" fill="#DA840D"/>
<path d="M18.5494 22.8482C18.5494 22.9331 18.4455 23.0021 18.3162 23.0021C18.187 23.0021 18.083 22.9331 18.083 22.8482C18.083 22.7632 18.1884 22.6956 18.3162 22.6956C18.4441 22.6956 18.5494 22.7632 18.5494 22.8482Z" fill="#DA840D"/>
<path d="M17.6194 21.2009C17.6172 21.2318 17.6053 21.2614 17.5854 21.286C17.5655 21.3107 17.5384 21.3292 17.5074 21.3394C17.4764 21.3495 17.4429 21.3509 17.4111 21.3432C17.3794 21.3355 17.3507 21.3192 17.3287 21.2962C17.3066 21.2732 17.2923 21.2446 17.2873 21.214C17.2824 21.1833 17.2871 21.152 17.3008 21.1239C17.3146 21.0957 17.3368 21.0721 17.3647 21.0558C17.3927 21.0395 17.425 21.0313 17.4578 21.0323C17.5027 21.035 17.5446 21.0542 17.5748 21.0856C17.6049 21.1171 17.6209 21.1584 17.6194 21.2009Z" fill="#DA840D"/>
<path d="M20.0388 21.5248C20.0388 21.6098 19.9376 21.6788 19.8126 21.6788C19.6876 21.6788 19.5864 21.6098 19.5864 21.5248C19.5864 21.4399 19.6876 21.3708 19.8126 21.3708C19.9376 21.3708 20.0388 21.4399 20.0388 21.5248Z" fill="#DA840D"/>
<path d="M20.0388 22.3201C20.0388 22.3705 19.9376 22.4117 19.8126 22.4117C19.6876 22.4117 19.5864 22.3705 19.5864 22.3201C19.5864 22.2697 19.6876 22.2285 19.8126 22.2285C19.9376 22.2285 20.0388 22.2697 20.0388 22.3201Z" fill="#DA840D"/>
<path d="M21.5685 21.8026C21.5685 21.8716 21.4772 21.9274 21.3634 21.9274C21.2496 21.9274 21.1597 21.8716 21.1597 21.8026C21.1597 21.7336 21.251 21.6792 21.3634 21.6792C21.4758 21.6792 21.5685 21.7349 21.5685 21.8026Z" fill="#DA840D"/>
<path d="M21.3241 22.6888C21.334 22.7301 21.3301 22.7733 21.3128 22.8125C21.2956 22.8516 21.2659 22.8847 21.2279 22.9072C21.1899 22.9296 21.1454 22.9404 21.1006 22.938C21.0558 22.9355 21.013 22.92 20.9779 22.8935C20.9429 22.867 20.9174 22.8309 20.9051 22.7902C20.8927 22.7495 20.8941 22.7061 20.909 22.6661C20.9238 22.6261 20.9515 22.5915 20.9881 22.5671C21.0247 22.5426 21.0685 22.5295 21.1134 22.5295C21.1636 22.5246 21.2138 22.5386 21.2532 22.5684C21.2926 22.5982 21.3181 22.6414 21.3241 22.6888Z" fill="#DA840D"/>
<path d="M23.0268 22.4312C23.018 22.4704 22.9977 22.5065 22.9681 22.5353C22.9386 22.5641 22.901 22.5844 22.8597 22.5938C22.8185 22.6032 22.7752 22.6014 22.735 22.5886C22.6948 22.5758 22.6592 22.5525 22.6324 22.5214C22.6057 22.4903 22.5887 22.4527 22.5837 22.4129C22.5786 22.3731 22.5855 22.3327 22.6037 22.2965C22.6219 22.2602 22.6505 22.2296 22.6864 22.2081C22.7222 22.1866 22.7638 22.1752 22.8062 22.175C22.8711 22.1821 22.9305 22.2128 22.9717 22.2607C23.0129 22.3085 23.0327 22.3698 23.0268 22.4312Z" fill="#DA840D"/>
<path d="M22.9046 21.2769C22.9046 21.3286 22.8329 21.3711 22.7444 21.3711C22.6559 21.3711 22.5857 21.3286 22.5857 21.2769C22.5857 21.2251 22.6573 21.1826 22.7444 21.1826C22.8315 21.1826 22.9046 21.2198 22.9046 21.2769Z" fill="#DA840D"/>
<path d="M24.2533 21.5542C24.2533 21.76 24.1564 21.9272 24.0384 21.9272C23.9204 21.9272 23.822 21.76 23.822 21.5542C23.822 21.3485 23.919 21.1826 24.0384 21.1826C24.1578 21.1826 24.2533 21.3525 24.2533 21.5542Z" fill="#DA840D"/>
<path d="M24.794 21.1769C24.7936 21.2032 24.7824 21.2283 24.7627 21.2469C24.743 21.2655 24.7165 21.2761 24.6886 21.2765C24.6678 21.2765 24.6474 21.2706 24.6301 21.2597C24.6128 21.2488 24.5992 21.2332 24.5913 21.215C24.5833 21.1968 24.5812 21.1768 24.5853 21.1575C24.5893 21.1382 24.5994 21.1205 24.6141 21.1065C24.6289 21.0926 24.6476 21.0831 24.6681 21.0793C24.6885 21.0755 24.7097 21.0774 24.7289 21.085C24.7482 21.0925 24.7647 21.1053 24.7762 21.1216C24.7878 21.138 24.794 21.1572 24.794 21.1769Z" fill="#DA840D"/>
<path d="M21.251 20.8588C21.251 20.9544 21.119 21.0327 20.9574 21.0327C20.7959 21.0327 20.6638 20.9544 20.6638 20.8588C20.6638 20.7633 20.7945 20.6863 20.9574 20.6863C21.1204 20.6863 21.251 20.7633 21.251 20.8588Z" fill="#DA840D"/>
<path d="M15.7427 19.9641C15.7427 20.0238 15.6401 20.0716 15.5137 20.0716C15.3872 20.0716 15.2847 20.0238 15.2847 19.9641C15.2847 19.9044 15.3872 19.8579 15.5137 19.8579C15.6401 19.8579 15.7427 19.9057 15.7427 19.9641Z" fill="#DA840D"/>
<path d="M17.0913 19.7517C17.0913 19.8101 16.9747 19.8579 16.8314 19.8579C16.6881 19.8579 16.5701 19.8101 16.5701 19.7517C16.5701 19.6933 16.6867 19.6455 16.8314 19.6455C16.9761 19.6455 17.0913 19.6933 17.0913 19.7517Z" fill="#DA840D"/>
<path d="M18.7882 20.0119C18.7882 20.0968 18.6309 20.1658 18.4356 20.1658C18.2404 20.1658 18.083 20.0968 18.083 20.0119C18.083 19.9269 18.2418 19.8579 18.4356 19.8579C18.6295 19.8579 18.7882 19.9269 18.7882 20.0119Z" fill="#DA840D"/>
<path d="M20.0386 19.7517C20.0389 19.7731 20.0324 19.794 20.02 19.8119C20.0076 19.8298 19.9899 19.8438 19.969 19.8521C19.9482 19.8604 19.9252 19.8626 19.903 19.8585C19.8808 19.8544 19.8604 19.8441 19.8444 19.829C19.8284 19.8139 19.8175 19.7946 19.8132 19.7737C19.8088 19.7527 19.8112 19.731 19.82 19.7113C19.8288 19.6916 19.8436 19.6748 19.8625 19.6631C19.8814 19.6514 19.9036 19.6453 19.9262 19.6455C19.956 19.6455 19.9846 19.6567 20.0057 19.6766C20.0268 19.6965 20.0386 19.7235 20.0386 19.7517Z" fill="#DA840D"/>
<path d="M19.8126 20.5919C19.8126 20.6437 19.7058 20.6861 19.5723 20.6861C19.4389 20.6861 19.3335 20.6437 19.3335 20.5919C19.3335 20.5401 19.4403 20.4963 19.5723 20.4963C19.7044 20.4963 19.8126 20.5388 19.8126 20.5919Z" fill="#DA840D"/>
<path d="M21.6905 19.7053C21.6908 19.7363 21.6812 19.7667 21.6631 19.7925C21.6449 19.8183 21.619 19.8384 21.5887 19.8502C21.5584 19.862 21.525 19.8649 21.4929 19.8586C21.4607 19.8523 21.4313 19.8371 21.4084 19.8149C21.3856 19.7927 21.3702 19.7646 21.3644 19.7341C21.3586 19.7035 21.3626 19.6721 21.3759 19.6438C21.3891 19.6154 21.4111 19.5915 21.4389 19.575C21.4666 19.5585 21.499 19.5503 21.5318 19.5514C21.5744 19.5521 21.615 19.5686 21.6447 19.5975C21.6745 19.6263 21.6909 19.6651 21.6905 19.7053Z" fill="#DA840D"/>
<path d="M22.5854 20.3317C22.5854 20.3569 22.5026 20.3782 22.3986 20.3782C22.2946 20.3782 22.2131 20.3569 22.2131 20.3317C22.2131 20.3065 22.296 20.2839 22.3986 20.2839C22.5011 20.2839 22.5854 20.3052 22.5854 20.3317Z" fill="#DA840D"/>
<path d="M23.1689 20.0254C23.1721 20.0394 23.1706 20.054 23.1646 20.0671C23.1586 20.0803 23.1485 20.0914 23.1356 20.0989C23.1226 20.1063 23.1075 20.1098 23.0924 20.1088C23.0773 20.1078 23.0629 20.1024 23.0511 20.0933C23.0394 20.0843 23.031 20.072 23.027 20.0581C23.023 20.0443 23.0237 20.0297 23.0289 20.0162C23.0341 20.0028 23.0436 19.9912 23.0561 19.9831C23.0686 19.975 23.0835 19.9707 23.0986 19.971C23.1156 19.9695 23.1324 19.9744 23.1456 19.9845C23.1587 19.9947 23.1671 20.0094 23.1689 20.0254Z" fill="#DA840D"/>
<path d="M22.5854 20.3319C22.5821 20.3607 22.5701 20.388 22.5508 20.4105C22.5315 20.4329 22.5058 20.4497 22.4766 20.4586C22.4475 20.4676 22.4162 20.4684 22.3866 20.4609C22.357 20.4534 22.3303 20.438 22.3098 20.4166C22.2892 20.3951 22.2757 20.3685 22.2708 20.3399C22.2659 20.3113 22.2699 20.282 22.2823 20.2555C22.2946 20.229 22.3148 20.2065 22.3405 20.1906C22.3661 20.1747 22.396 20.1662 22.4267 20.166C22.4486 20.167 22.4701 20.1721 22.49 20.181C22.5099 20.1899 22.5277 20.2024 22.5425 20.2179C22.5572 20.2333 22.5686 20.2513 22.576 20.2708C22.5833 20.2904 22.5865 20.3112 22.5854 20.3319Z" fill="#DA840D"/>
<path d="M23.4875 20.065C23.4875 20.1207 23.4004 20.1658 23.2923 20.1658C23.1841 20.1658 23.0984 20.1207 23.0984 20.065C23.0984 20.0092 23.1855 19.9641 23.2923 19.9641C23.399 19.9641 23.4875 20.0092 23.4875 20.065Z" fill="#DA840D"/>
<path d="M28.2289 19.4254C28.2289 21.1389 24.374 22.7342 19.7337 22.7342C15.0935 22.7342 11.2104 21.0207 11.2104 19.306C11.2104 17.5912 15.0935 16.5254 19.7337 16.5254C24.374 16.5254 28.2289 17.7106 28.2289 19.4254Z" fill="#E3AC8A"/>
<path d="M28.1349 19.0963C28.1349 20.8111 24.3727 22.2007 19.7324 22.2007C15.0922 22.2007 11.3328 20.8085 11.3328 19.0963C11.3328 17.3842 15.0936 15.9893 19.7338 15.9893C24.3741 15.9893 28.1349 17.3789 28.1349 19.0963Z" fill="#DA840D"/>
<path d="M25.8463 18.8002C25.8463 20.0717 23.0548 21.1029 19.6129 21.1029C16.171 21.1029 13.3838 20.0717 13.3838 18.8002C13.3838 17.5287 16.171 16.4961 19.6129 16.4961C23.0548 16.4961 25.8463 17.5274 25.8463 18.8002Z" fill="#F0A508"/>
<path d="M15.4165 19.6498C15.4165 19.7825 15.2592 19.898 15.0625 19.898C14.8658 19.898 14.7085 19.7865 14.7085 19.6498C14.7085 19.5131 14.8672 19.4016 15.0695 19.4016C15.2718 19.4016 15.4165 19.5118 15.4165 19.6498Z" fill="#DA840D"/>
<path d="M14.7085 18.6038C14.7068 18.6403 14.6939 18.6756 14.6713 18.7052C14.6487 18.7349 14.6173 18.7576 14.5812 18.7707C14.545 18.7837 14.5056 18.7864 14.4679 18.7785C14.4301 18.7707 14.3956 18.7525 14.3686 18.7263C14.3416 18.7001 14.3234 18.667 14.3161 18.6311C14.3088 18.5952 14.3127 18.5581 14.3275 18.5243C14.3423 18.4905 14.3672 18.4616 14.3992 18.441C14.4312 18.4205 14.4689 18.4092 14.5076 18.4087C14.5344 18.4089 14.5609 18.4141 14.5856 18.424C14.6102 18.4339 14.6325 18.4484 14.6512 18.4665C14.6699 18.4847 14.6846 18.5062 14.6944 18.5297C14.7043 18.5533 14.709 18.5785 14.7085 18.6038Z" fill="#DA840D"/>
<path d="M17.1771 19.9508C17.1813 20.0151 17.165 20.079 17.1303 20.1344C17.0956 20.1898 17.0441 20.234 16.9825 20.2614C16.9209 20.2888 16.8519 20.2981 16.7847 20.288C16.7174 20.2779 16.6549 20.249 16.6052 20.205C16.5555 20.161 16.521 20.1039 16.5061 20.0411C16.4911 19.9783 16.4965 19.9127 16.5215 19.8529C16.5465 19.793 16.59 19.7416 16.6462 19.7054C16.7025 19.6691 16.769 19.6497 16.8371 19.6496C16.9245 19.6471 17.0093 19.6774 17.073 19.7338C17.1367 19.7903 17.1742 19.8683 17.1771 19.9508Z" fill="#DA840D"/>
<path d="M16.4281 18.7537C16.4281 18.8374 16.3312 18.905 16.2118 18.905C16.0924 18.905 15.9968 18.8374 15.9968 18.7537C15.9968 18.6701 16.0938 18.6038 16.2118 18.6038C16.3298 18.6038 16.4281 18.6714 16.4281 18.7537Z" fill="#DA840D"/>
<path d="M18.5999 19.4666C18.6051 19.5083 18.5967 19.5505 18.5758 19.5875C18.555 19.6246 18.5228 19.6548 18.4833 19.6742C18.4439 19.6936 18.3992 19.7011 18.3551 19.696C18.3111 19.6908 18.2697 19.673 18.2365 19.6451C18.2033 19.6172 18.1799 19.5805 18.1694 19.5397C18.1588 19.4989 18.1616 19.4561 18.1774 19.4169C18.1932 19.3776 18.2213 19.3439 18.2578 19.32C18.2944 19.2962 18.3378 19.2835 18.3822 19.2834C18.4367 19.2809 18.49 19.2987 18.5307 19.3329C18.5715 19.3672 18.5963 19.4152 18.5999 19.4666Z" fill="#DA840D"/>
<path d="M18.683 20.5709C18.683 20.6559 18.579 20.7249 18.4498 20.7249C18.3205 20.7249 18.2166 20.6559 18.2166 20.5709C18.2166 20.486 18.3205 20.4236 18.4498 20.4236C18.579 20.4236 18.683 20.4873 18.683 20.5709Z" fill="#DA840D"/>
<path d="M17.7531 18.9236C17.7531 18.9655 17.7354 19.0056 17.7041 19.0352C17.6727 19.0649 17.6302 19.0815 17.5859 19.0815C17.5415 19.0815 17.499 19.0649 17.4677 19.0352C17.4363 19.0056 17.4187 18.9655 17.4187 18.9236C17.4187 18.8817 17.4363 18.8415 17.4677 18.8119C17.499 18.7823 17.5415 18.7656 17.5859 18.7656C17.6302 18.7656 17.6727 18.7823 17.7041 18.8119C17.7354 18.8415 17.7531 18.8817 17.7531 18.9236Z" fill="#DA840D"/>
<path d="M20.1721 19.2475C20.1721 19.3324 20.0709 19.4015 19.9459 19.4015C19.8209 19.4015 19.7197 19.3324 19.7197 19.2475C19.7197 19.1626 19.8209 19.0962 19.9459 19.0962C20.0709 19.0962 20.1721 19.1626 20.1721 19.2475Z" fill="#DA840D"/>
<path d="M20.1721 20.0425C20.1721 20.0929 20.0709 20.1341 19.9459 20.1341C19.8209 20.1341 19.7197 20.0929 19.7197 20.0425C19.7197 19.9921 19.8209 19.9509 19.9459 19.9509C20.0709 19.9509 20.1721 19.9921 20.1721 20.0425Z" fill="#DA840D"/>
<path d="M21.702 19.525C21.702 19.5941 21.6106 19.6498 21.4969 19.6498C21.3831 19.6498 21.2917 19.5941 21.2917 19.525C21.2917 19.456 21.3845 19.4016 21.4969 19.4016C21.6092 19.4016 21.702 19.4574 21.702 19.525Z" fill="#DA840D"/>
<path d="M21.4575 20.4113C21.4677 20.4529 21.4639 20.4965 21.4467 20.536C21.4296 20.5754 21.3998 20.6089 21.3616 20.6317C21.3235 20.6545 21.2787 20.6655 21.2336 20.6632C21.1885 20.6609 21.1452 20.6454 21.1099 20.6188C21.0745 20.5923 21.0487 20.556 21.0362 20.515C21.0236 20.474 21.0249 20.4303 21.0397 20.39C21.0546 20.3497 21.0824 20.3148 21.1193 20.2901C21.1561 20.2653 21.2001 20.2521 21.2453 20.2521C21.2958 20.2468 21.3464 20.2606 21.3861 20.2905C21.4258 20.3203 21.4515 20.3637 21.4575 20.4113Z" fill="#DA840D"/>
<path d="M23.1605 20.158C23.1502 20.1967 23.1287 20.2319 23.0984 20.2597C23.0681 20.2874 23.0302 20.3066 22.9889 20.3151C22.9477 20.3235 22.9047 20.3209 22.865 20.3075C22.8252 20.2941 22.7902 20.2704 22.764 20.2392C22.7377 20.208 22.7212 20.1704 22.7163 20.1308C22.7115 20.0912 22.7185 20.0511 22.7365 20.015C22.7545 19.979 22.7828 19.9484 22.8183 19.9268C22.8537 19.9051 22.8949 19.8933 22.9371 19.8926C22.9704 19.8957 23.0027 19.9051 23.0321 19.9202C23.0615 19.9354 23.0874 19.9559 23.1082 19.9807C23.129 20.0054 23.1444 20.0339 23.1534 20.0643C23.1624 20.0948 23.1648 20.1267 23.1605 20.158Z" fill="#DA840D"/>
<path d="M23.0379 18.9993C23.0379 19.051 22.9663 19.0935 22.8777 19.0935C22.7892 19.0935 22.719 19.051 22.719 18.9993C22.719 18.9475 22.7892 18.905 22.8777 18.905C22.9663 18.905 23.0379 18.9475 23.0379 18.9993Z" fill="#DA840D"/>
<path d="M24.3866 19.2767C24.3866 19.4824 24.2897 19.6496 24.1703 19.6496C24.0509 19.6496 23.9553 19.4824 23.9553 19.2767C23.9553 19.0709 24.0523 18.905 24.1703 18.905C24.2883 18.905 24.3866 19.0709 24.3866 19.2767Z" fill="#DA840D"/>
<path d="M24.9259 18.8996C24.9257 18.919 24.9193 18.9378 24.9077 18.9538C24.8961 18.9698 24.8798 18.9821 24.8608 18.9894C24.8418 18.9966 24.8209 18.9984 24.8008 18.9944C24.7808 18.9905 24.7624 18.981 24.748 18.9672C24.7336 18.9535 24.7238 18.936 24.7199 18.9169C24.716 18.8979 24.7182 18.8782 24.7261 18.8604C24.734 18.8425 24.7473 18.8272 24.7644 18.8165C24.7814 18.8058 24.8015 18.8001 24.822 18.8C24.8497 18.8004 24.8761 18.811 24.8956 18.8297C24.915 18.8483 24.9259 18.8734 24.9259 18.8996Z" fill="#DA840D"/>
<path d="M21.3832 18.5812C21.3832 18.6768 21.2525 18.7538 21.091 18.7538C20.9294 18.7538 20.7974 18.6768 20.7974 18.5812C20.7974 18.4857 20.928 18.4087 21.091 18.4087C21.2539 18.4087 21.3832 18.4857 21.3832 18.5812Z" fill="#DA840D"/>
<path d="M15.8761 17.6878C15.8761 17.7462 15.7736 17.794 15.6471 17.794C15.5207 17.794 15.4167 17.7462 15.4167 17.6878C15.4167 17.6294 15.5193 17.5803 15.6471 17.5803C15.775 17.5803 15.8761 17.6281 15.8761 17.6878Z" fill="#DA840D"/>
<path d="M17.2246 17.4743C17.2246 17.5341 17.108 17.5805 16.9633 17.5805C16.8186 17.5805 16.7034 17.5341 16.7034 17.4743C16.7034 17.4146 16.82 17.3682 16.9633 17.3682C17.1066 17.3682 17.2246 17.4159 17.2246 17.4743Z" fill="#DA840D"/>
<path d="M18.9218 17.7343C18.9218 17.8192 18.7644 17.8882 18.5692 17.8882C18.3739 17.8882 18.2166 17.8192 18.2166 17.7343C18.2166 17.6493 18.3753 17.5803 18.5692 17.5803C18.763 17.5803 18.9218 17.6493 18.9218 17.7343Z" fill="#DA840D"/>
<path d="M20.1722 17.474C20.1691 17.5003 20.1559 17.5246 20.135 17.5422C20.1141 17.5598 20.0871 17.5696 20.0591 17.5696C20.0311 17.5696 20.0041 17.5598 19.9833 17.5422C19.9624 17.5246 19.9492 17.5003 19.946 17.474C19.9492 17.4477 19.9624 17.4234 19.9833 17.4058C20.0041 17.3882 20.0311 17.3784 20.0591 17.3784C20.0871 17.3784 20.1141 17.3882 20.135 17.4058C20.1559 17.4234 20.1691 17.4477 20.1722 17.474Z" fill="#DA840D"/>
<path d="M19.9458 18.313C19.9458 18.3661 19.839 18.4085 19.7056 18.4085C19.5721 18.4085 19.4653 18.3661 19.4653 18.313C19.4653 18.2599 19.5735 18.2188 19.7056 18.2188C19.8376 18.2188 19.9458 18.2612 19.9458 18.313Z" fill="#DA840D"/>
<path d="M21.8243 17.4277C21.8246 17.4584 21.8152 17.4886 21.7973 17.5143C21.7794 17.54 21.7539 17.5601 21.7238 17.5721C21.6938 17.584 21.6607 17.5873 21.6288 17.5815C21.5968 17.5756 21.5674 17.5609 21.5442 17.5393C21.5211 17.5176 21.5053 17.4899 21.4989 17.4598C21.4924 17.4296 21.4956 17.3983 21.508 17.3699C21.5204 17.3414 21.5414 17.3171 21.5685 17.3C21.5956 17.2828 21.6274 17.2737 21.66 17.2737C21.6815 17.2733 21.703 17.2771 21.723 17.2847C21.743 17.2923 21.7612 17.3036 21.7765 17.3179C21.7918 17.3323 21.804 17.3494 21.8122 17.3682C21.8204 17.3871 21.8245 17.4073 21.8243 17.4277Z" fill="#DA840D"/>
<path d="M22.719 18.0544C22.719 18.0796 22.6347 18.1008 22.5321 18.1008C22.4296 18.1008 22.3467 18.0796 22.3467 18.0544C22.3467 18.0292 22.4296 18.0066 22.5321 18.0066C22.6347 18.0066 22.719 18.0345 22.719 18.0544Z" fill="#DA840D"/>
<path d="M23.3021 17.7412C23.2978 17.7556 23.2885 17.7683 23.2759 17.7774C23.2632 17.7864 23.2478 17.7913 23.2319 17.7913C23.216 17.7913 23.2006 17.7864 23.1879 17.7774C23.1752 17.7683 23.166 17.7556 23.1616 17.7412C23.166 17.7268 23.1752 17.7141 23.1879 17.7051C23.2006 17.696 23.216 17.6912 23.2319 17.6912C23.2478 17.6912 23.2632 17.696 23.2759 17.7051C23.2885 17.7141 23.2978 17.7268 23.3021 17.7412Z" fill="#DA840D"/>
<path d="M22.719 18.0541C22.7157 18.0829 22.7037 18.1102 22.6844 18.1326C22.6651 18.1551 22.6393 18.1718 22.6102 18.1808C22.581 18.1897 22.5498 18.1905 22.5202 18.1831C22.4906 18.1756 22.4639 18.1602 22.4433 18.1387C22.4228 18.1173 22.4093 18.0906 22.4044 18.0621C22.3995 18.0335 22.4035 18.0042 22.4158 17.9777C22.4282 17.9512 22.4484 17.9286 22.474 17.9128C22.4996 17.8969 22.5296 17.8883 22.5602 17.8882C22.5822 17.8892 22.6037 17.8943 22.6236 17.9032C22.6434 17.9121 22.6613 17.9246 22.676 17.94C22.6908 17.9554 22.7021 17.9734 22.7095 17.993C22.7169 18.0126 22.7201 18.0333 22.719 18.0541Z" fill="#DA840D"/>
<path d="M23.6208 17.7875C23.6208 17.8433 23.5337 17.8884 23.4255 17.8884C23.3173 17.8884 23.2302 17.8433 23.2302 17.7875C23.2302 17.7318 23.3173 17.688 23.4255 17.688C23.5337 17.688 23.6208 17.7318 23.6208 17.7875Z" fill="#DA840D"/>
<path d="M28.2289 17.9612C28.2289 19.676 24.374 21.27 19.7337 21.27C15.0935 21.27 11.2104 19.5579 11.2104 17.8431C11.2104 16.1283 15.0935 15.0559 19.7337 15.0559C24.374 15.0559 28.2289 16.2464 28.2289 17.9612Z" fill="#E3AC8A"/>
<path d="M28.1349 17.6363C28.1349 19.3497 24.3727 20.7407 19.7324 20.7407C15.0922 20.7407 11.3328 19.3444 11.3328 17.6363C11.3328 15.9281 15.0936 14.5305 19.7338 14.5305C24.3741 14.5305 28.1349 15.9108 28.1349 17.6363Z" fill="#DA840D"/>
<path d="M25.8463 17.3363C25.8463 18.6078 23.0548 19.6391 19.6129 19.6391C16.171 19.6391 13.3838 18.6078 13.3838 17.3363C13.3838 16.0648 16.171 15.0322 19.6129 15.0322C23.0548 15.0322 25.8463 16.0635 25.8463 17.3363Z" fill="#F0A508"/>
<path d="M15.4165 18.1857C15.4165 18.3184 15.2592 18.4339 15.0625 18.4339C14.8658 18.4339 14.7085 18.3224 14.7085 18.1857C14.7085 18.049 14.8672 17.9375 15.0625 17.9375C15.2578 17.9375 15.4165 18.049 15.4165 18.1857Z" fill="#DA840D"/>
<path d="M14.7085 17.1399C14.7068 17.1764 14.6939 17.2117 14.6713 17.2414C14.6487 17.271 14.6173 17.2938 14.5812 17.3068C14.545 17.3198 14.5056 17.3226 14.4679 17.3147C14.4301 17.3068 14.3956 17.2886 14.3686 17.2624C14.3416 17.2362 14.3234 17.2031 14.3161 17.1672C14.3088 17.1313 14.3127 17.0942 14.3275 17.0604C14.3423 17.0267 14.3672 16.9977 14.3992 16.9772C14.4312 16.9566 14.4689 16.9454 14.5076 16.9448C14.5344 16.945 14.5609 16.9502 14.5856 16.9601C14.6102 16.9701 14.6325 16.9845 14.6512 17.0027C14.6699 17.0208 14.6846 17.0423 14.6944 17.0659C14.7043 17.0894 14.709 17.1146 14.7085 17.1399Z" fill="#DA840D"/>
<path d="M16.8329 18.7881C17.0207 18.7881 17.1729 18.6532 17.1729 18.4868C17.1729 18.3204 17.0207 18.1855 16.8329 18.1855C16.6451 18.1855 16.4929 18.3204 16.4929 18.4868C16.4929 18.6532 16.6451 18.7881 16.8329 18.7881Z" fill="#DA840D"/>
<path d="M16.4281 17.2912C16.4281 17.3735 16.3312 17.4412 16.2118 17.4412C16.0924 17.4412 15.9968 17.3708 15.9968 17.2912C15.9968 17.2116 16.0938 17.1399 16.2118 17.1399C16.3298 17.1399 16.4281 17.2076 16.4281 17.2912Z" fill="#DA840D"/>
<path d="M18.5999 18.0025C18.6051 18.0442 18.5967 18.0864 18.5758 18.1234C18.555 18.1605 18.5228 18.1907 18.4833 18.2101C18.4439 18.2294 18.3992 18.237 18.3551 18.2318C18.3111 18.2267 18.2697 18.2089 18.2365 18.181C18.2033 18.1531 18.1799 18.1163 18.1694 18.0756C18.1588 18.0348 18.1616 17.992 18.1774 17.9527C18.1932 17.9135 18.2213 17.8798 18.2578 17.8559C18.2944 17.8321 18.3378 17.8193 18.3822 17.8193C18.4367 17.8168 18.49 17.8346 18.5307 17.8688C18.5715 17.9031 18.5963 17.9511 18.5999 18.0025Z" fill="#DA840D"/>
<path d="M18.683 19.1065C18.683 19.1914 18.579 19.2604 18.4498 19.2604C18.3205 19.2604 18.2166 19.1914 18.2166 19.1065C18.2166 19.0215 18.3205 18.9539 18.4498 18.9539C18.579 18.9539 18.683 19.0229 18.683 19.1065Z" fill="#DA840D"/>
<path d="M17.7528 17.4609C17.7504 17.4915 17.7385 17.5208 17.7187 17.5452C17.6989 17.5695 17.672 17.5879 17.6413 17.598C17.6107 17.6082 17.5775 17.6096 17.546 17.6023C17.5144 17.5949 17.4858 17.579 17.4637 17.5565C17.4416 17.534 17.4268 17.5059 17.4213 17.4756C17.4159 17.4454 17.4198 17.4142 17.4328 17.3861C17.4457 17.3579 17.4671 17.3339 17.4942 17.317C17.5214 17.3001 17.5531 17.2911 17.5856 17.291C17.6316 17.2927 17.675 17.3116 17.7063 17.3434C17.7376 17.3752 17.7543 17.4175 17.7528 17.4609Z" fill="#DA840D"/>
<path d="M20.1721 17.7836C20.1721 17.8685 20.0709 17.9375 19.9459 17.9375C19.8209 17.9375 19.7197 17.8685 19.7197 17.7836C19.7197 17.6986 19.8209 17.6362 19.9459 17.6362C20.0709 17.6362 20.1721 17.6986 20.1721 17.7836Z" fill="#DA840D"/>
<path d="M20.1721 18.5784C20.1721 18.6288 20.0709 18.67 19.9459 18.67C19.8209 18.67 19.7197 18.6288 19.7197 18.5784C19.7197 18.528 19.8209 18.4868 19.9459 18.4868C20.0709 18.4868 20.1721 18.528 20.1721 18.5784Z" fill="#DA840D"/>
<path d="M21.702 18.0609C21.702 18.13 21.6106 18.1857 21.4969 18.1857C21.3831 18.1857 21.2917 18.13 21.2917 18.0609C21.2917 17.9919 21.3845 17.9375 21.4969 17.9375C21.6092 17.9375 21.702 17.9932 21.702 18.0609Z" fill="#DA840D"/>
<path d="M21.4575 18.9475C21.4677 18.989 21.4639 19.0326 21.4467 19.0721C21.4296 19.1116 21.3998 19.145 21.3616 19.1678C21.3235 19.1906 21.2787 19.2016 21.2336 19.1993C21.1885 19.197 21.1452 19.1815 21.1099 19.155C21.0745 19.1284 21.0487 19.0921 21.0362 19.0511C21.0236 19.0101 21.0249 18.9664 21.0397 18.9261C21.0546 18.8858 21.0824 18.8509 21.1193 18.8262C21.1561 18.8015 21.2001 18.7882 21.2453 18.7882C21.2958 18.783 21.3464 18.7968 21.3861 18.8266C21.4258 18.8564 21.4515 18.8999 21.4575 18.9475Z" fill="#DA840D"/>
<path d="M23.1605 18.6981C23.1502 18.7368 23.1287 18.772 23.0984 18.7997C23.0681 18.8275 23.0302 18.8467 22.9889 18.8551C22.9477 18.8636 22.9047 18.8609 22.865 18.8475C22.8252 18.8341 22.7902 18.8105 22.764 18.7793C22.7377 18.748 22.7212 18.7105 22.7163 18.6709C22.7115 18.6313 22.7185 18.5912 22.7365 18.5551C22.7545 18.519 22.7828 18.4884 22.8183 18.4668C22.8537 18.4451 22.8949 18.4333 22.9371 18.4326C22.9705 18.4356 23.0029 18.4448 23.0324 18.4599C23.0619 18.475 23.0878 18.4955 23.1087 18.5203C23.1296 18.5451 23.1449 18.5737 23.1538 18.6042C23.1627 18.6347 23.165 18.6667 23.1605 18.6981Z" fill="#DA840D"/>
<path d="M23.0379 17.5354C23.0379 17.5885 22.9663 17.631 22.8777 17.631C22.7892 17.631 22.719 17.5885 22.719 17.5354C22.719 17.4823 22.7892 17.4412 22.8777 17.4412C22.9663 17.4412 23.0379 17.4836 23.0379 17.5354Z" fill="#DA840D"/>
<path d="M24.3866 17.8128C24.3866 18.0185 24.2897 18.1857 24.1703 18.1857C24.0509 18.1857 23.9553 18.0185 23.9553 17.8128C23.9553 17.6071 24.0523 17.4412 24.1703 17.4412C24.2883 17.4412 24.3866 17.6084 24.3866 17.8128Z" fill="#DA840D"/>
<path d="M24.9259 17.436C24.9257 17.4553 24.9193 17.4742 24.9077 17.4902C24.8961 17.5061 24.8798 17.5185 24.8608 17.5258C24.8418 17.533 24.8209 17.5348 24.8008 17.5308C24.7808 17.5269 24.7624 17.5174 24.748 17.5036C24.7336 17.4898 24.7238 17.4723 24.7199 17.4533C24.716 17.4343 24.7182 17.4146 24.7261 17.3968C24.734 17.3789 24.7473 17.3636 24.7644 17.3529C24.7814 17.3422 24.8015 17.3364 24.822 17.3364C24.8357 17.3364 24.8494 17.339 24.8621 17.344C24.8748 17.349 24.8863 17.3564 24.896 17.3657C24.9057 17.3749 24.9133 17.3859 24.9184 17.398C24.9236 17.41 24.9261 17.423 24.9259 17.436Z" fill="#DA840D"/>
<path d="M21.3832 17.1174C21.3832 17.2129 21.2525 17.2912 21.091 17.2912C20.9294 17.2912 20.7974 17.2129 20.7974 17.1174C20.7974 17.0218 20.928 16.9448 21.091 16.9448C21.2539 16.9448 21.3832 17.0218 21.3832 17.1174Z" fill="#DA840D"/>
<path d="M15.8761 16.2241C15.8761 16.2825 15.7736 16.3303 15.6471 16.3303C15.5207 16.3303 15.4167 16.2825 15.4167 16.2241C15.4167 16.1657 15.5193 16.1179 15.6471 16.1179C15.775 16.1179 15.8761 16.1657 15.8761 16.2241Z" fill="#DA840D"/>
<path d="M17.2246 16.0102C17.2246 16.07 17.108 16.1177 16.9633 16.1177C16.8186 16.1177 16.7034 16.07 16.7034 16.0102C16.7034 15.9505 16.82 15.9041 16.9633 15.9041C17.1066 15.9041 17.2246 15.9518 17.2246 16.0102Z" fill="#DA840D"/>
<path d="M18.9218 16.2706C18.9218 16.3555 18.7644 16.4245 18.5692 16.4245C18.3739 16.4245 18.2166 16.3555 18.2166 16.2706C18.2166 16.1856 18.3753 16.1179 18.5692 16.1179C18.763 16.1179 18.9218 16.1856 18.9218 16.2706Z" fill="#DA840D"/>
<path d="M20.1722 16.0102C20.1724 16.0316 20.166 16.0526 20.1536 16.0705C20.1412 16.0883 20.1234 16.1023 20.1026 16.1106C20.0817 16.1189 20.0587 16.1212 20.0365 16.1171C20.0143 16.113 19.9939 16.1027 19.9779 16.0876C19.9619 16.0725 19.951 16.0532 19.9467 16.0322C19.9424 16.0112 19.9447 15.9895 19.9535 15.9698C19.9623 15.9501 19.9771 15.9333 19.996 15.9216C20.015 15.9099 20.0371 15.9038 20.0598 15.9041C20.0896 15.9041 20.1182 15.9152 20.1392 15.9352C20.1603 15.9551 20.1722 15.9821 20.1722 16.0102Z" fill="#DA840D"/>
<path d="M19.9458 16.8504C19.9458 16.9022 19.839 16.9447 19.7056 16.9447C19.5721 16.9447 19.4653 16.9022 19.4653 16.8504C19.4653 16.7987 19.5735 16.7549 19.7056 16.7549C19.8376 16.7549 19.9458 16.7974 19.9458 16.8504Z" fill="#DA840D"/>
<path d="M21.8243 15.964C21.8246 15.9948 21.8152 16.0249 21.7973 16.0507C21.7794 16.0764 21.7539 16.0965 21.7238 16.1084C21.6938 16.1204 21.6607 16.1237 21.6288 16.1178C21.5968 16.112 21.5674 16.0973 21.5442 16.0756C21.5211 16.054 21.5053 16.0263 21.4989 15.9961C21.4924 15.966 21.4956 15.9347 21.508 15.9062C21.5204 15.8778 21.5414 15.8535 21.5685 15.8363C21.5956 15.8192 21.6274 15.8101 21.66 15.8101C21.6815 15.8099 21.7028 15.8137 21.7228 15.8214C21.7427 15.8291 21.7608 15.8404 21.7761 15.8547C21.7914 15.869 21.8035 15.886 21.8118 15.9048C21.8201 15.9236 21.8243 15.9437 21.8243 15.964Z" fill="#DA840D"/>
<path d="M22.719 16.5903C22.719 16.6155 22.6347 16.6367 22.5321 16.6367C22.4296 16.6367 22.3467 16.6155 22.3467 16.5903C22.3467 16.565 22.4296 16.5425 22.5321 16.5425C22.6347 16.5425 22.719 16.5637 22.719 16.5903Z" fill="#DA840D"/>
<path d="M23.3023 16.277C23.3058 16.2909 23.3047 16.3055 23.299 16.3188C23.2933 16.3321 23.2834 16.3434 23.2706 16.3511C23.2579 16.3588 23.2429 16.3626 23.2278 16.3619C23.2126 16.3612 23.1981 16.3561 23.1862 16.3472C23.1743 16.3384 23.1655 16.3263 23.1612 16.3126C23.1569 16.2989 23.1572 16.2842 23.1621 16.2707C23.167 16.2571 23.1762 16.2453 23.1885 16.237C23.2008 16.2286 23.2155 16.224 23.2307 16.2239C23.2476 16.2224 23.2644 16.227 23.2778 16.2369C23.2911 16.2468 23.2999 16.2612 23.3023 16.277Z" fill="#DA840D"/>
<path d="M22.719 16.5902C22.7157 16.619 22.7037 16.6463 22.6844 16.6688C22.6651 16.6912 22.6393 16.708 22.6102 16.7169C22.581 16.7259 22.5498 16.7267 22.5202 16.7192C22.4906 16.7117 22.4639 16.6963 22.4433 16.6749C22.4228 16.6534 22.4093 16.6268 22.4044 16.5982C22.3995 16.5696 22.4035 16.5403 22.4158 16.5138C22.4282 16.4873 22.4484 16.4648 22.474 16.4489C22.4996 16.433 22.5296 16.4245 22.5602 16.4243C22.5822 16.4253 22.6037 16.4304 22.6236 16.4393C22.6434 16.4482 22.6613 16.4607 22.676 16.4762C22.6908 16.4916 22.7021 16.5096 22.7095 16.5291C22.7169 16.5487 22.7201 16.5695 22.719 16.5902Z" fill="#DA840D"/>
<path d="M23.6208 16.3234C23.6208 16.3792 23.5337 16.4243 23.4255 16.4243C23.3173 16.4243 23.2302 16.3792 23.2302 16.3234C23.2302 16.2677 23.3173 16.2239 23.4255 16.2239C23.5337 16.2239 23.6208 16.269 23.6208 16.3234Z" fill="#DA840D"/>
<path d="M27.9045 16.4536C27.7078 14.8052 24.1844 13.4939 19.8659 13.4939C15.8255 13.4939 12.4819 14.642 11.9059 16.1378C11.7729 16.3399 11.701 16.5726 11.698 16.8107C11.698 18.5255 15.4209 20.2389 19.8659 20.2389C24.3108 20.2389 28.0028 18.6462 28.0028 16.9288C28.0025 16.7659 27.9691 16.6046 27.9045 16.4536Z" fill="#C66720"/>
<path d="M28.4003 16.1564C28.4003 17.8712 24.5454 19.4665 19.9051 19.4665C15.2649 19.4665 11.3818 17.753 11.3818 16.0435C11.3818 14.3341 15.2649 13.2563 19.9051 13.2563C24.5454 13.2563 28.4003 14.4416 28.4003 16.1564Z" fill="#E3AC8A"/>
<path d="M28.3257 15.8261C28.3257 17.5409 24.6731 18.8363 20.037 18.8363C15.401 18.8363 11.636 17.4466 11.636 15.7319C11.636 14.0171 15.3968 12.6274 20.037 12.6274C24.6773 12.6274 28.3257 14.1113 28.3257 15.8261Z" fill="#DA840D"/>
<path d="M19.7844 17.834C23.227 17.834 26.0178 16.8031 26.0178 15.5313C26.0178 14.2595 23.227 13.2285 19.7844 13.2285C16.3418 13.2285 13.551 14.2595 13.551 15.5313C13.551 16.8031 16.3418 17.834 19.7844 17.834Z" fill="#F0A508"/>
<path d="M15.5882 16.3805C15.5882 16.5132 15.4294 16.63 15.2341 16.63C15.0389 16.63 14.8801 16.5186 14.8801 16.3805C14.8801 16.2425 15.0389 16.1323 15.2341 16.1323C15.4294 16.1323 15.5882 16.2438 15.5882 16.3805Z" fill="#DA840D"/>
<path d="M14.8798 15.3358C14.8779 15.3724 14.8647 15.4076 14.8418 15.4372C14.8189 15.4667 14.7873 15.4892 14.751 15.502C14.7146 15.5147 14.6752 15.5171 14.6374 15.5089C14.5997 15.5007 14.5653 15.4821 14.5386 15.4556C14.5118 15.4291 14.4939 15.3958 14.487 15.3598C14.4802 15.3237 14.4846 15.2866 14.4998 15.2529C14.5151 15.2193 14.5404 15.1906 14.5728 15.1704C14.6051 15.1502 14.643 15.1394 14.6817 15.1394C14.7084 15.1399 14.7347 15.1454 14.7592 15.1556C14.7836 15.1658 14.8057 15.1804 14.8241 15.1987C14.8425 15.2169 14.8569 15.2384 14.8665 15.262C14.876 15.2855 14.8806 15.3106 14.8798 15.3358Z" fill="#DA840D"/>
<path d="M17.3442 16.6831C17.3481 16.7473 17.3316 16.8111 17.2967 16.8663C17.2618 16.9216 17.2102 16.9656 17.1485 16.9928C17.0868 17.02 17.0179 17.029 16.9508 17.0188C16.8836 17.0086 16.8212 16.9796 16.7716 16.9355C16.7221 16.8914 16.6877 16.8343 16.6729 16.7715C16.6581 16.7088 16.6636 16.6433 16.6887 16.5835C16.7137 16.5237 16.7572 16.4724 16.8134 16.4362C16.8697 16.4 16.9361 16.3806 17.0042 16.3805C17.0476 16.3793 17.0908 16.3861 17.1313 16.4007C17.1719 16.4152 17.209 16.4372 17.2406 16.4653C17.2721 16.4934 17.2975 16.5271 17.3153 16.5644C17.3331 16.6018 17.3429 16.6422 17.3442 16.6831Z" fill="#DA840D"/>
<path d="M16.5995 15.4859C16.5995 15.5695 16.5026 15.6359 16.3832 15.6359C16.2637 15.6359 16.1682 15.5695 16.1682 15.4859C16.1682 15.4023 16.2651 15.3359 16.3832 15.3359C16.5012 15.3359 16.5995 15.4036 16.5995 15.4859Z" fill="#DA840D"/>
<path d="M18.7716 16.1974C18.7767 16.2391 18.7683 16.2812 18.7475 16.3183C18.7266 16.3554 18.6944 16.3856 18.655 16.405C18.6156 16.4243 18.5709 16.4319 18.5268 16.4267C18.4827 16.4215 18.4413 16.4038 18.4081 16.3759C18.375 16.348 18.3515 16.3112 18.341 16.2705C18.3304 16.2297 18.3332 16.1869 18.349 16.1476C18.3648 16.1084 18.3929 16.0747 18.4295 16.0508C18.466 16.027 18.5094 16.0142 18.5538 16.0142C18.6084 16.0113 18.6619 16.029 18.7027 16.0633C18.7436 16.0976 18.7683 16.1458 18.7716 16.1974Z" fill="#DA840D"/>
<path d="M18.8544 17.3029C18.8544 17.3878 18.7504 17.4568 18.6211 17.4568C18.4919 17.4568 18.3879 17.3878 18.3879 17.3029C18.3879 17.2179 18.4919 17.1489 18.6211 17.1489C18.7504 17.1489 18.8544 17.2179 18.8544 17.3029Z" fill="#DA840D"/>
<path d="M17.9242 15.656C17.9217 15.6866 17.9099 15.7159 17.8901 15.7402C17.8703 15.7646 17.8434 15.783 17.8127 15.7931C17.782 15.8032 17.7489 15.8047 17.7173 15.7973C17.6858 15.79 17.6572 15.7741 17.6351 15.7516C17.6129 15.7291 17.5982 15.701 17.5927 15.6707C17.5872 15.6404 17.5912 15.6093 17.6042 15.5811C17.6171 15.553 17.6384 15.529 17.6656 15.5121C17.6928 15.4952 17.7245 15.4862 17.757 15.4861C17.7798 15.4868 17.8023 15.4917 17.8231 15.5006C17.8439 15.5096 17.8626 15.5223 17.8781 15.5381C17.8937 15.5539 17.9057 15.5724 17.9136 15.5927C17.9216 15.6129 17.9251 15.6344 17.9242 15.656Z" fill="#DA840D"/>
<path d="M20.3437 15.9796C20.3437 16.0646 20.2426 16.1323 20.1175 16.1323C19.9925 16.1323 19.8914 16.0646 19.8914 15.9796C19.8914 15.8947 19.9925 15.8257 20.1175 15.8257C20.2426 15.8257 20.3437 15.8947 20.3437 15.9796Z" fill="#DA840D"/>
<path d="M20.3437 16.7747C20.3437 16.8251 20.2426 16.8663 20.1175 16.8663C19.9925 16.8663 19.8914 16.8251 19.8914 16.7747C19.8914 16.7242 19.9925 16.6831 20.1175 16.6831C20.2426 16.6831 20.3437 16.7242 20.3437 16.7747Z" fill="#DA840D"/>
<path d="M21.8734 16.2571C21.8734 16.3261 21.7806 16.3805 21.6683 16.3805C21.5559 16.3805 21.4631 16.3261 21.4631 16.2571C21.4631 16.1881 21.5559 16.1323 21.6683 16.1323C21.7806 16.1323 21.8734 16.1881 21.8734 16.2571Z" fill="#DA840D"/>
<path d="M21.6289 17.1439C21.6391 17.1855 21.6353 17.229 21.6182 17.2685C21.601 17.308 21.5712 17.3414 21.533 17.3642C21.4949 17.387 21.4501 17.3981 21.405 17.3957C21.3599 17.3934 21.3166 17.3779 21.2813 17.3514C21.2459 17.3248 21.2201 17.2885 21.2076 17.2475C21.195 17.2065 21.1962 17.1628 21.2111 17.1225C21.226 17.0822 21.2538 17.0473 21.2906 17.0226C21.3275 16.9979 21.3715 16.9846 21.4167 16.9846C21.4671 16.9797 21.5175 16.9936 21.5571 17.0234C21.5968 17.0532 21.6225 17.0964 21.6289 17.1439Z" fill="#DA840D"/>
<path d="M23.3317 16.8863C23.3229 16.9255 23.3026 16.9616 23.273 16.9904C23.2435 17.0192 23.2059 17.0394 23.1646 17.0489C23.1234 17.0583 23.0802 17.0565 23.0399 17.0437C22.9997 17.0309 22.9642 17.0076 22.9374 16.9765C22.9106 16.9454 22.8937 16.9077 22.8886 16.8679C22.8835 16.8281 22.8904 16.7878 22.9086 16.7515C22.9268 16.7153 22.9555 16.6847 22.9913 16.6632C23.0271 16.6417 23.0687 16.6302 23.1111 16.6301C23.176 16.6372 23.2354 16.6679 23.2766 16.7158C23.3178 16.7636 23.3376 16.8248 23.3317 16.8863Z" fill="#DA840D"/>
<path d="M23.2081 15.7315C23.2081 15.7833 23.1379 15.8258 23.0494 15.8258C22.9609 15.8258 22.8906 15.7833 22.8906 15.7315C22.8906 15.6798 22.9609 15.636 23.0494 15.636C23.1379 15.636 23.2081 15.6785 23.2081 15.7315Z" fill="#DA840D"/>
<path d="M24.558 16.0089C24.558 16.2147 24.4611 16.3806 24.3416 16.3806C24.2222 16.3806 24.1267 16.2147 24.1267 16.0089C24.1267 15.8032 24.2236 15.636 24.3416 15.636C24.4597 15.636 24.558 15.8032 24.558 16.0089Z" fill="#DA840D"/>
<path d="M25.0973 15.6321C25.0967 15.6514 25.0902 15.6701 25.0784 15.6859C25.0667 15.7017 25.0502 15.7139 25.0312 15.7209C25.0122 15.728 24.9914 15.7295 24.9714 15.7255C24.9514 15.7214 24.9331 15.7118 24.9189 15.698C24.9046 15.6841 24.895 15.6666 24.8912 15.6477C24.8874 15.6287 24.8896 15.6091 24.8976 15.5913C24.9055 15.5735 24.9188 15.5583 24.9359 15.5476C24.9529 15.537 24.9729 15.5313 24.9933 15.5312C25.0072 15.5314 25.0208 15.5342 25.0335 15.5393C25.0463 15.5445 25.0578 15.552 25.0674 15.5613C25.0771 15.5707 25.0847 15.5818 25.0898 15.5939C25.0949 15.6061 25.0975 15.619 25.0973 15.6321Z" fill="#DA840D"/>
<path d="M21.5544 15.3133C21.5544 15.4088 21.4237 15.4858 21.2622 15.4858C21.1006 15.4858 20.97 15.4088 20.97 15.3133C20.97 15.2177 21.1006 15.1394 21.2636 15.1394C21.4265 15.1394 21.5544 15.2177 21.5544 15.3133Z" fill="#DA840D"/>
<path d="M16.0531 14.4192C16.0531 14.4776 15.9506 14.5253 15.8241 14.5253C15.6977 14.5253 15.5938 14.4776 15.5938 14.4192C15.5938 14.3608 15.6963 14.313 15.8241 14.313C15.952 14.313 16.0531 14.3608 16.0531 14.4192Z" fill="#DA840D"/>
<path d="M17.3964 14.2065C17.3964 14.2649 17.2798 14.3127 17.1351 14.3127C16.9904 14.3127 16.8752 14.2649 16.8752 14.2065C16.8752 14.1481 16.9918 14.1003 17.1351 14.1003C17.2784 14.1003 17.3964 14.1481 17.3964 14.2065Z" fill="#DA840D"/>
<path d="M19.0932 14.4668C19.0932 14.5517 18.9358 14.6207 18.7406 14.6207C18.5453 14.6207 18.3879 14.5517 18.3879 14.4668C18.3879 14.3818 18.5453 14.3181 18.7406 14.3181C18.9358 14.3181 19.0932 14.3818 19.0932 14.4668Z" fill="#DA840D"/>
<path d="M20.3435 14.2063C20.3438 14.2276 20.3374 14.2485 20.3251 14.2664C20.3127 14.2842 20.295 14.2982 20.2743 14.3065C20.2535 14.3149 20.2306 14.3172 20.2084 14.3132C20.1863 14.3092 20.1659 14.2991 20.1498 14.2841C20.1337 14.2691 20.1228 14.25 20.1183 14.2291C20.1138 14.2082 20.1159 14.1865 20.1245 14.1668C20.1331 14.1471 20.1476 14.1302 20.1664 14.1183C20.1851 14.1064 20.2072 14.1001 20.2298 14.1001C20.2446 14.0999 20.2594 14.1025 20.2732 14.1078C20.287 14.1131 20.2995 14.1209 20.3101 14.1307C20.3207 14.1406 20.3291 14.1524 20.3349 14.1653C20.3406 14.1783 20.3435 14.1922 20.3435 14.2063Z" fill="#DA840D"/>
<path d="M20.1172 15.0454C20.1172 15.0985 20.0104 15.1396 19.8769 15.1396C19.7435 15.1396 19.6367 15.0985 19.6367 15.0454C19.6367 14.9923 19.7449 14.9512 19.8769 14.9512C20.009 14.9512 20.1172 14.9936 20.1172 15.0454Z" fill="#DA840D"/>
<path d="M21.9954 14.1587C21.996 14.1896 21.9868 14.2198 21.9691 14.2457C21.9514 14.2716 21.9259 14.2919 21.896 14.3041C21.866 14.3162 21.8328 14.3197 21.8008 14.314C21.7687 14.3083 21.7392 14.2938 21.7159 14.2721C21.6926 14.2505 21.6767 14.2229 21.6701 14.1927C21.6635 14.1625 21.6666 14.1311 21.679 14.1026C21.6913 14.0741 21.7124 14.0497 21.7395 14.0325C21.7666 14.0153 21.7985 14.0061 21.8311 14.0061C21.8525 14.0059 21.8737 14.0097 21.8936 14.0173C21.9134 14.0249 21.9315 14.0361 21.9467 14.0503C21.962 14.0644 21.9741 14.0813 21.9825 14.0999C21.9909 14.1185 21.9953 14.1385 21.9954 14.1587Z" fill="#DA840D"/>
<path d="M22.8904 14.7852C22.8904 14.8118 22.8061 14.833 22.7035 14.833C22.601 14.833 22.5181 14.8118 22.5181 14.7852C22.5181 14.7587 22.601 14.7388 22.7035 14.7388C22.8061 14.7388 22.8904 14.76 22.8904 14.7852Z" fill="#DA840D"/>
<path d="M23.4732 14.4721C23.4767 14.486 23.4756 14.5006 23.4699 14.5139C23.4642 14.5271 23.4543 14.5384 23.4415 14.5461C23.4288 14.5539 23.4138 14.5576 23.3987 14.5569C23.3835 14.5563 23.369 14.5511 23.3571 14.5423C23.3451 14.5335 23.3364 14.5214 23.3321 14.5076C23.3278 14.4939 23.3281 14.4793 23.333 14.4657C23.3379 14.4522 23.3471 14.4404 23.3594 14.432C23.3717 14.4237 23.3864 14.4191 23.4016 14.419C23.4185 14.4175 23.4353 14.4221 23.4486 14.432C23.462 14.4419 23.4708 14.4562 23.4732 14.4721Z" fill="#DA840D"/>
<path d="M22.8905 14.7852C22.8926 14.806 22.8901 14.8269 22.8831 14.8467C22.8761 14.8665 22.8648 14.8848 22.8499 14.9002C22.835 14.9156 22.8169 14.928 22.7967 14.9364C22.7764 14.9449 22.7546 14.9492 22.7325 14.9492C22.7104 14.9492 22.6885 14.9449 22.6683 14.9364C22.6481 14.928 22.6299 14.9156 22.6151 14.9002C22.6002 14.8848 22.5889 14.8665 22.5819 14.8467C22.5749 14.8269 22.5724 14.806 22.5744 14.7852C22.5724 14.7644 22.5749 14.7434 22.5819 14.7236C22.5889 14.7038 22.6002 14.6856 22.6151 14.6701C22.6299 14.6547 22.6481 14.6423 22.6683 14.6339C22.6885 14.6255 22.7104 14.6211 22.7325 14.6211C22.7546 14.6211 22.7764 14.6255 22.7967 14.6339C22.8169 14.6423 22.835 14.6547 22.8499 14.6701C22.8648 14.6856 22.8761 14.7038 22.8831 14.7236C22.8901 14.7434 22.8926 14.7644 22.8905 14.7852Z" fill="#DA840D"/>
<path d="M23.7912 14.5198C23.7912 14.5756 23.7055 14.6207 23.5974 14.6207C23.4892 14.6207 23.4021 14.5756 23.4021 14.5198C23.4021 14.4641 23.4892 14.4189 23.5974 14.4189C23.7055 14.4189 23.7912 14.4641 23.7912 14.5198Z" fill="#DA840D"/>
<path d="M28.3637 14.5027C28.3637 15.5486 26.9307 16.5493 24.7602 17.1705C23.171 17.6062 21.5233 17.8221 19.8685 17.8115C18.1447 17.8115 16.7286 17.3828 15.2985 17.2806C12.913 17.1054 11.3452 15.4623 11.3452 14.3846C11.3452 12.6698 15.2297 11.5974 19.8685 11.5974C24.5073 11.5974 28.3637 12.7879 28.3637 14.5027Z" fill="#E3AC8A"/>
<path d="M28.2569 14.2756C28.2569 15.9903 24.4947 17.38 19.8544 17.38C15.2142 17.38 11.4534 15.9903 11.4534 14.2756C11.4534 12.5608 15.21 11.1711 19.8544 11.1711C24.4989 11.1711 28.2569 12.5608 28.2569 14.2756Z" fill="#DA840D"/>
<path d="M25.9672 13.9823C25.9672 15.2538 23.1758 16.2851 19.7339 16.2851C16.2919 16.2851 13.5005 15.2538 13.5005 13.9823C13.5005 12.7108 16.2905 11.6782 19.7339 11.6782C23.1772 11.6782 25.9672 12.7095 25.9672 13.9823Z" fill="#F0A508"/>
<path d="M15.5374 14.8317C15.5374 14.9644 15.3787 15.0799 15.1834 15.0799C14.9881 15.0799 14.8293 14.9684 14.8293 14.8317C14.8293 14.695 14.9881 14.5835 15.1834 14.5835C15.3787 14.5835 15.5374 14.6937 15.5374 14.8317Z" fill="#DA840D"/>
<path d="M14.8296 13.7874C14.8279 13.824 14.8149 13.8594 14.7922 13.8891C14.7694 13.9188 14.738 13.9416 14.7017 13.9545C14.6653 13.9675 14.6258 13.97 14.5879 13.9619C14.5501 13.9539 14.5156 13.9354 14.4887 13.909C14.4619 13.8825 14.4438 13.8492 14.4368 13.8131C14.4298 13.777 14.4342 13.7398 14.4494 13.7061C14.4646 13.6724 14.49 13.6436 14.5224 13.6234C14.5547 13.6031 14.5927 13.5923 14.6315 13.5923C14.6581 13.5928 14.6843 13.5983 14.7086 13.6083C14.7329 13.6184 14.7549 13.6329 14.7733 13.6511C14.7917 13.6692 14.8062 13.6905 14.8158 13.7139C14.8255 13.7373 14.8302 13.7623 14.8296 13.7874Z" fill="#DA840D"/>
<path d="M17.2938 15.133C17.298 15.1972 17.2817 15.2611 17.247 15.3165C17.2123 15.3719 17.1608 15.4161 17.0992 15.4435C17.0376 15.4709 16.9686 15.4802 16.9014 15.4701C16.8341 15.4601 16.7716 15.4312 16.7219 15.3871C16.6722 15.3431 16.6377 15.286 16.6228 15.2232C16.6078 15.1604 16.6132 15.0949 16.6382 15.035C16.6632 14.9752 16.7067 14.9238 16.7629 14.8875C16.8192 14.8513 16.8857 14.8318 16.9538 14.8317C17.0412 14.8292 17.126 14.8595 17.1897 14.916C17.2534 14.9724 17.2909 15.0505 17.2938 15.133Z" fill="#DA840D"/>
<path d="M16.549 13.9373C16.549 14.0196 16.452 14.0873 16.3326 14.0873C16.2132 14.0873 16.1177 14.0196 16.1177 13.9373C16.1177 13.855 16.2146 13.7874 16.334 13.7874C16.4534 13.7874 16.549 13.8537 16.549 13.9373Z" fill="#DA840D"/>
<path d="M18.7223 14.6482C18.7271 14.6896 18.7185 14.7315 18.6977 14.7682C18.6768 14.8049 18.6446 14.8347 18.6054 14.8537C18.5662 14.8728 18.5218 14.8802 18.4781 14.8748C18.4344 14.8695 18.3934 14.8518 18.3605 14.824C18.3277 14.7962 18.3046 14.7597 18.2942 14.7192C18.2838 14.6787 18.2867 14.6362 18.3025 14.5973C18.3182 14.5584 18.3461 14.5249 18.3825 14.5013C18.4188 14.4777 18.4618 14.4651 18.5059 14.4651C18.5603 14.4625 18.6134 14.4804 18.654 14.5146C18.6945 14.5489 18.719 14.5969 18.7223 14.6482Z" fill="#DA840D"/>
<path d="M18.8036 15.7527C18.8036 15.8377 18.6996 15.9067 18.5704 15.9067C18.4411 15.9067 18.3372 15.8377 18.3372 15.7527C18.3372 15.6678 18.4411 15.6001 18.5704 15.6001C18.6996 15.6001 18.8036 15.6691 18.8036 15.7527Z" fill="#DA840D"/>
<path d="M17.8791 14.1058C17.877 14.1365 17.8653 14.1659 17.8457 14.1905C17.826 14.215 17.7992 14.2336 17.7685 14.2439C17.7379 14.2543 17.7047 14.2559 17.673 14.2487C17.6413 14.2415 17.6126 14.2256 17.5904 14.2032C17.5681 14.1807 17.5532 14.1526 17.5476 14.1223C17.5421 14.092 17.546 14.0608 17.5589 14.0326C17.5718 14.0043 17.5932 13.9802 17.6204 13.9633C17.6476 13.9464 17.6794 13.9373 17.712 13.9373C17.7347 13.9379 17.757 13.9428 17.7777 13.9517C17.7984 13.9605 17.817 13.9731 17.8325 13.9888C17.8481 14.0045 17.8602 14.0228 17.8682 14.0429C17.8762 14.063 17.8799 14.0844 17.8791 14.1058Z" fill="#DA840D"/>
<path d="M20.2929 14.4296C20.2929 14.5145 20.1918 14.5836 20.0668 14.5836C19.9417 14.5836 19.8462 14.5145 19.8462 14.4296C19.8462 14.3447 19.9473 14.2756 20.0724 14.2756C20.1974 14.2756 20.2929 14.3447 20.2929 14.4296Z" fill="#DA840D"/>
<path d="M20.2929 15.2244C20.2929 15.2748 20.1918 15.316 20.0668 15.316C19.9417 15.316 19.8462 15.2748 19.8462 15.2244C19.8462 15.174 19.9473 15.1328 20.0724 15.1328C20.1974 15.1328 20.2929 15.174 20.2929 15.2244Z" fill="#DA840D"/>
<path d="M21.8228 14.7069C21.8228 14.7759 21.7301 14.8317 21.6177 14.8317C21.5053 14.8317 21.4126 14.7759 21.4126 14.7069C21.4126 14.6379 21.5053 14.5835 21.6177 14.5835C21.7301 14.5835 21.8228 14.6392 21.8228 14.7069Z" fill="#DA840D"/>
<path d="M21.5784 15.5933C21.5663 15.6374 21.539 15.6764 21.5009 15.7043C21.4627 15.7321 21.4159 15.7472 21.3677 15.7472C21.3195 15.7472 21.2727 15.7321 21.2345 15.7043C21.1964 15.6764 21.1691 15.6374 21.157 15.5933C21.1691 15.5493 21.1964 15.5103 21.2345 15.4824C21.2727 15.4546 21.3195 15.4395 21.3677 15.4395C21.4159 15.4395 21.4627 15.4546 21.5009 15.4824C21.539 15.5103 21.5663 15.5493 21.5784 15.5933Z" fill="#DA840D"/>
<path d="M23.2812 15.3374C23.2876 15.3682 23.2867 15.3999 23.2786 15.4303C23.2705 15.4607 23.2553 15.4891 23.2342 15.5133C23.2132 15.5375 23.1867 15.557 23.1566 15.5704C23.1266 15.5838 23.0938 15.5907 23.0607 15.5907C23.0275 15.5907 22.9947 15.5838 22.9647 15.5704C22.9347 15.557 22.9082 15.5375 22.8871 15.5133C22.866 15.4891 22.8508 15.4607 22.8427 15.4303C22.8346 15.3999 22.8337 15.3682 22.8401 15.3374C22.8326 15.3062 22.8326 15.2737 22.8402 15.2424C22.8478 15.2111 22.8627 15.1819 22.8839 15.1568C22.9051 15.1317 22.932 15.1115 22.9626 15.0976C22.9932 15.0836 23.0267 15.0764 23.0607 15.0764C23.0946 15.0764 23.1281 15.0836 23.1587 15.0976C23.1893 15.1115 23.2162 15.1317 23.2374 15.1568C23.2586 15.1819 23.2735 15.2111 23.2811 15.2424C23.2887 15.2737 23.2887 15.3062 23.2812 15.3374Z" fill="#DA840D"/>
<path d="M23.1573 14.1853C23.1573 14.2371 23.0871 14.2795 22.9986 14.2795C22.9101 14.2795 22.8398 14.2371 22.8398 14.1853C22.8398 14.1335 22.9101 14.0911 22.9986 14.0911C23.0871 14.0911 23.1573 14.1296 23.1573 14.1853Z" fill="#DA840D"/>
<path d="M24.5077 14.4588C24.5077 14.6645 24.4108 14.8317 24.2914 14.8317C24.1719 14.8317 24.0764 14.6645 24.0764 14.4588C24.0764 14.2531 24.1719 14.0872 24.2914 14.0872C24.4108 14.0872 24.5077 14.2531 24.5077 14.4588Z" fill="#DA840D"/>
<path d="M25.0443 14.082C25.0441 14.1013 25.0377 14.1202 25.0261 14.1362C25.0145 14.1521 24.9982 14.1645 24.9792 14.1718C24.9602 14.179 24.9393 14.1807 24.9192 14.1768C24.8992 14.1729 24.8808 14.1634 24.8664 14.1496C24.852 14.1358 24.8422 14.1183 24.8383 14.0993C24.8344 14.0803 24.8366 14.0606 24.8445 14.0428C24.8524 14.0249 24.8657 14.0096 24.8828 13.9989C24.8998 13.9882 24.9199 13.9824 24.9404 13.9824C24.9681 13.9828 24.9945 13.9934 25.014 14.012C25.0334 14.0307 25.0443 14.0558 25.0443 14.082Z" fill="#DA840D"/>
<path d="M21.504 13.7634C21.504 13.8589 21.3734 13.9372 21.2104 13.9372C21.0475 13.9372 20.9182 13.8589 20.9182 13.7634C20.9182 13.6678 21.0489 13.5908 21.2104 13.5908C21.372 13.5908 21.504 13.6678 21.504 13.7634Z" fill="#DA840D"/>
<path d="M15.9967 12.8702C15.9967 12.9286 15.8942 12.9764 15.7663 12.9764C15.6385 12.9764 15.5374 12.9286 15.5374 12.8702C15.5374 12.8118 15.6399 12.7627 15.7663 12.7627C15.8928 12.7627 15.9967 12.8105 15.9967 12.8702Z" fill="#DA840D"/>
<path d="M17.3454 12.6562C17.3454 12.716 17.2288 12.7624 17.0841 12.7624C16.9394 12.7624 16.8228 12.716 16.8228 12.6562C16.8228 12.5965 16.9408 12.55 17.0841 12.55C17.2274 12.55 17.3454 12.5925 17.3454 12.6562Z" fill="#DA840D"/>
<path d="M19.0424 12.9167C19.0424 13.0016 18.8851 13.0706 18.6898 13.0706C18.4945 13.0706 18.3372 13.0016 18.3372 12.9167C18.3372 12.8317 18.4945 12.7627 18.6898 12.7627C18.8851 12.7627 19.0424 12.8317 19.0424 12.9167Z" fill="#DA840D"/>
<path d="M20.2928 12.6565C20.293 12.6778 20.2866 12.6987 20.2743 12.7166C20.2619 12.7344 20.2443 12.7484 20.2235 12.7567C20.2027 12.7651 20.1798 12.7674 20.1576 12.7634C20.1355 12.7594 20.1151 12.7493 20.099 12.7343C20.083 12.7193 20.072 12.7002 20.0675 12.6793C20.063 12.6584 20.0651 12.6367 20.0737 12.617C20.0823 12.5973 20.0969 12.5804 20.1156 12.5685C20.1343 12.5566 20.1564 12.5503 20.179 12.5503C20.1938 12.5501 20.2086 12.5527 20.2224 12.558C20.2362 12.5633 20.2488 12.571 20.2594 12.5809C20.2699 12.5908 20.2783 12.6026 20.2841 12.6155C20.2898 12.6285 20.2928 12.6424 20.2928 12.6565Z" fill="#DA840D"/>
<path d="M20.0669 13.4964C20.0669 13.5482 19.9587 13.5907 19.8267 13.5907C19.6946 13.5907 19.5864 13.5482 19.5864 13.4964C19.5864 13.4447 19.6946 13.4009 19.8267 13.4009C19.9587 13.4009 20.0669 13.4434 20.0669 13.4964Z" fill="#DA840D"/>
<path d="M21.9435 12.6099C21.9444 12.6406 21.9355 12.6707 21.9182 12.6965C21.9008 12.7224 21.8756 12.7427 21.8459 12.755C21.8162 12.7673 21.7833 12.7709 21.7515 12.7654C21.7196 12.7599 21.6901 12.7456 21.6669 12.7242C21.6437 12.7028 21.6278 12.6754 21.6211 12.6455C21.6145 12.6155 21.6175 12.5843 21.6297 12.556C21.6419 12.5276 21.6627 12.5033 21.6896 12.4862C21.7165 12.4691 21.7482 12.46 21.7806 12.46C21.8232 12.4596 21.8642 12.4752 21.8947 12.5033C21.9253 12.5314 21.9428 12.5697 21.9435 12.6099Z" fill="#DA840D"/>
<path d="M22.84 13.2365C22.84 13.2617 22.7557 13.283 22.6532 13.283C22.5506 13.283 22.4663 13.2617 22.4663 13.2365C22.4663 13.2113 22.5506 13.1887 22.6532 13.1887C22.7557 13.1887 22.84 13.21 22.84 13.2365Z" fill="#DA840D"/>
<path d="M23.4229 12.923C23.4264 12.9369 23.4253 12.9515 23.4196 12.9648C23.4139 12.9781 23.404 12.9893 23.3912 12.9971C23.3785 13.0048 23.3635 13.0086 23.3484 13.0079C23.3332 13.0072 23.3187 13.0021 23.3068 12.9932C23.2949 12.9844 23.2861 12.9723 23.2818 12.9586C23.2775 12.9448 23.2778 12.9302 23.2827 12.9167C23.2876 12.9031 23.2968 12.8913 23.3091 12.883C23.3214 12.8746 23.3361 12.87 23.3513 12.8699C23.3682 12.8684 23.385 12.873 23.3983 12.8829C23.4117 12.8928 23.4205 12.9072 23.4229 12.923Z" fill="#DA840D"/>
<path d="M22.84 13.2365C22.8368 13.2652 22.8248 13.2925 22.8055 13.315C22.7862 13.3375 22.7604 13.3542 22.7313 13.3632C22.7021 13.3721 22.6709 13.3729 22.6413 13.3654C22.6117 13.358 22.585 13.3426 22.5644 13.3211C22.5439 13.2996 22.5303 13.273 22.5255 13.2444C22.5206 13.2158 22.5246 13.1865 22.5369 13.1601C22.5493 13.1336 22.5695 13.111 22.5951 13.0951C22.6207 13.0793 22.6506 13.0707 22.6813 13.0706C22.7032 13.0716 22.7248 13.0767 22.7447 13.0856C22.7645 13.0945 22.7823 13.107 22.7971 13.1224C22.8118 13.1378 22.8232 13.1558 22.8306 13.1754C22.838 13.195 22.8412 13.2157 22.84 13.2365Z" fill="#DA840D"/>
<path d="M23.7405 12.9697C23.7405 13.0254 23.6534 13.0705 23.5466 13.0705C23.4398 13.0705 23.3513 13.0254 23.3513 12.9697C23.3513 12.9139 23.4384 12.8701 23.5466 12.8701C23.6548 12.8701 23.7405 12.9139 23.7405 12.9697Z" fill="#DA840D"/>
<path d="M21.1302 21.2635C21.0983 21.1489 21.0242 21.0487 20.9212 20.9811C20.8182 20.9135 20.693 20.8828 20.5682 20.8946C19.7253 20.9516 19.655 22.2855 19.9515 22.8682C20.0397 22.9326 20.1507 22.9628 20.2617 22.9524C20.3727 22.942 20.4754 22.892 20.5485 22.8124C20.8183 22.5271 20.904 22.1143 20.9995 21.7506C21.0463 21.5896 21.0899 21.4272 21.1302 21.2635Z" fill="#EEBE30"/>
<path d="M27.3874 14.3327C27.0943 14.2257 26.824 14.0697 26.5895 13.8721C26.3091 13.6153 26.0508 13.3379 25.8168 13.0426C25.467 12.6365 24.9584 12.4772 24.4246 12.4175C23.8303 12.3498 23.2164 12.4745 22.6179 12.4453C22.297 12.4371 21.9824 12.3585 21.6991 12.2157C21.4182 12.0644 21.1976 11.8176 20.9574 11.6039C20.4868 11.2057 19.8897 11.2057 19.2954 11.1155C18.9018 11.0498 18.5037 11.0112 18.1041 11C17.6953 10.9907 16.9802 10.9854 16.7063 11.353C16.4028 11.4858 16.2961 11.8388 16.2272 12.1361C16.1884 12.3814 16.1269 12.623 16.0432 12.8581C15.9184 13.1255 15.7253 13.3594 15.4812 13.539C14.946 13.9597 14.2843 14.1854 13.6788 14.4787C13.1871 14.7162 12.5844 15.0534 12.3203 15.5298C12.1616 15.8152 12.1798 16.3036 12.4608 16.5147C12.8078 16.7668 13.0719 16.2917 13.1464 16.0514C13.2152 15.8338 13.2405 15.6121 13.4273 15.4489C13.679 15.2424 13.9782 15.0943 14.3012 15.0162C14.5723 14.9445 14.8631 14.9445 15.13 14.8662C15.4504 14.7523 15.7518 14.5954 16.0249 14.4004C16.3452 14.1986 16.6571 14.0022 17.0378 13.9146C17.3539 13.8456 17.8428 13.8562 18.0915 14.0845C18.2278 14.2405 18.3452 14.4106 18.4413 14.5915C18.5694 14.7602 18.7392 14.8969 18.9358 14.9897C19.332 15.2033 19.7857 15.2976 20.2002 15.4914C20.3387 15.5594 20.4582 15.6577 20.5486 15.778C20.5626 15.7979 20.5753 15.8179 20.5879 15.8391C20.5981 15.8541 20.6075 15.8696 20.616 15.8855C21.0684 16.6739 20.4994 17.5088 20.5149 18.3409C20.5149 18.7895 20.859 19.5235 21.4407 19.1638C21.48 19.1399 21.5165 19.1134 21.553 19.0868C21.6191 18.5055 21.6725 17.9096 21.886 17.3614C22.0869 16.8518 22.3608 16.3806 22.3313 15.8192C22.3145 15.5099 22.1585 15.2259 22.1206 14.9206C22.0672 14.4959 22.4718 14.3035 22.8357 14.2199C23.3548 14.0893 23.9051 14.1248 24.4007 14.3207C25.3335 14.6831 26.0865 15.4303 27.1233 15.5537C27.5335 15.6028 28.1278 15.5418 28.2908 15.1184C28.4537 14.695 27.6796 14.4508 27.3874 14.3327Z" fill="#EEBE30"/>
<path opacity="0.5" d="M21.6793 14.8863C21.6367 14.7433 21.5582 14.612 21.4503 14.5039C21.3424 14.3957 21.2084 14.3138 21.0598 14.2652C20.8462 14.2121 20.5091 14.3461 20.5357 14.5904C20.5361 14.5952 20.5376 14.6 20.54 14.6043C20.5424 14.6087 20.5457 14.6125 20.5498 14.6156C20.4093 14.8983 20.8167 15.3854 20.9572 15.5924C21.0601 15.725 21.125 15.8804 21.1455 16.0437C21.1693 16.2547 21.0977 16.4631 21.1188 16.6715C21.1272 16.7644 21.2016 17.1612 21.3997 17.002C21.6259 16.8214 21.6498 16.4127 21.6962 16.1552C21.7896 15.7362 21.7839 15.3029 21.6793 14.8863Z" fill="white"/>
<path opacity="0.5" d="M25.7649 13.5123C25.5352 13.1523 25.169 12.8884 24.7408 12.7744C24.3081 12.6562 23.2699 12.5288 23.1603 13.1274C23.1594 13.1395 23.1626 13.1515 23.1694 13.1618C23.1762 13.1721 23.1863 13.18 23.1982 13.1845C23.2259 13.2036 23.2506 13.2264 23.2713 13.2522C23.2772 13.263 23.2865 13.2718 23.298 13.2774C23.3093 13.2812 23.3218 13.2812 23.3331 13.2774C23.4133 13.3468 23.5095 13.3977 23.6141 13.426C23.8716 13.4799 24.1342 13.5093 24.398 13.5136C24.7633 13.5468 24.967 13.6955 25.2212 13.9264C25.3617 14.0591 25.7467 14.3379 25.9447 14.1268C26.0965 13.9782 25.8478 13.6344 25.7649 13.5123Z" fill="white"/>
<path opacity="0.5" d="M13.2799 15.1797C13.2183 15.1724 13.156 15.1724 13.0945 15.1797C13.0947 15.1771 13.0943 15.1744 13.0933 15.172C13.0924 15.1695 13.0908 15.1673 13.0887 15.1655C13.0867 15.1637 13.0843 15.1624 13.0816 15.1616C13.079 15.1609 13.0761 15.1607 13.0734 15.1611C12.9707 15.1766 12.8732 15.2143 12.7886 15.2715C12.7041 15.3286 12.6347 15.4035 12.5859 15.4903C12.5522 15.5566 12.4862 15.7889 12.6309 15.8008C12.7756 15.8128 12.8894 15.6681 12.9708 15.5925C13.0889 15.4773 13.2006 15.3564 13.3052 15.2301C13.3083 15.2254 13.3101 15.22 13.3104 15.2145C13.3108 15.2089 13.3096 15.2034 13.3071 15.1984C13.3046 15.1934 13.3008 15.189 13.296 15.1858C13.2913 15.1825 13.2857 15.1804 13.2799 15.1797Z" fill="white"/>
<path opacity="0.5" d="M30.2254 22.8324C30.1009 22.8074 29.9724 22.8062 29.8474 22.829C29.7224 22.8517 29.6035 22.898 29.4978 22.9649C29.3921 23.0319 29.3017 23.1182 29.2319 23.2188C29.1621 23.3194 29.1145 23.4322 29.0917 23.5505C29.0908 23.5547 29.091 23.5591 29.0922 23.5633C29.0934 23.5675 29.0955 23.5713 29.0985 23.5746C29.1014 23.5779 29.1051 23.5806 29.1093 23.5824C29.1135 23.5842 29.118 23.585 29.1226 23.585C29.1232 23.5938 29.1232 23.6027 29.1226 23.6115C29.0734 23.8186 28.8135 23.9141 28.6491 24.0017C28.5269 24.0654 28.4005 24.1225 28.274 24.1809C27.8526 24.3826 27.1895 24.6428 27.0588 25.1777C27.0567 25.1835 27.0566 25.1898 27.0583 25.1957C27.0601 25.2016 27.0637 25.2069 27.0687 25.2108C27.3215 25.3754 27.6124 25.1299 27.8104 24.9759C28.2102 24.6767 28.679 24.4707 29.1788 24.3747C29.7323 24.2605 30.7649 24.295 30.9644 23.5783C31.0852 23.1337 30.5499 22.8868 30.2254 22.8324Z" fill="white"/>
<path d="M21.171 12.5381C21.1219 12.4731 20.9968 12.3337 20.9125 12.3244C20.8648 12.3244 20.8465 12.2342 20.8015 12.2474C20.7566 12.2607 20.6878 12.2939 20.6259 12.2474C20.6052 12.2292 20.5831 12.2123 20.5599 12.197C20.547 12.1884 20.5322 12.1827 20.5167 12.1802C20.5011 12.1776 20.4852 12.1784 20.47 12.1824C20.4307 12.197 20.4152 12.2527 20.3674 12.2169C20.3197 12.1811 20.2059 12.2355 20.1778 12.2886C20.1683 12.3031 20.1608 12.3187 20.1553 12.335C19.9881 12.3576 19.8195 12.6005 19.7563 12.7133C19.6972 12.8219 19.6696 12.9433 19.6763 13.0652C19.6829 13.1871 19.7236 13.3052 19.7943 13.4074C19.9474 13.6543 20.2593 13.6875 20.5346 13.6955C20.6431 13.7073 20.753 13.6983 20.8577 13.6689C20.9546 13.6288 21.0384 13.5651 21.1008 13.4844C21.3789 13.1606 21.4323 12.8792 21.171 12.5381Z" fill="#48264C"/>
<path d="M21.1711 12.5384C21.1232 12.4745 21.0665 12.417 21.0025 12.3672C21.0084 12.5865 20.9334 12.8009 20.7904 12.9738C20.6474 13.1467 20.4453 13.2672 20.2186 13.3148C20.0588 13.348 19.8926 13.343 19.7354 13.3002C19.7522 13.3387 19.7719 13.3759 19.7944 13.4117C19.9475 13.6586 20.2594 13.6918 20.5347 13.6997C20.6432 13.7116 20.7531 13.7026 20.8578 13.6732C20.9547 13.6331 21.0385 13.5694 21.1009 13.4887C21.379 13.1609 21.4324 12.8795 21.1711 12.5384Z" fill="#300D33"/>
<path d="M21.418 25.7495C21.3729 25.6399 21.3 25.5424 21.2059 25.4655C21.1904 25.3832 21.1708 25.3022 21.1525 25.2199C21.1511 25.2119 21.1477 25.2043 21.1427 25.1976C21.1377 25.191 21.1312 25.1855 21.1236 25.1815C21.1161 25.1776 21.1077 25.1753 21.0991 25.1748C21.0904 25.1743 21.0818 25.1757 21.0738 25.1788C20.9474 25.2345 20.9193 25.1629 20.8322 25.0978C20.8183 25.0897 20.8022 25.0854 20.7858 25.0854C20.7695 25.0854 20.7534 25.0897 20.7395 25.0978C20.599 25.1881 20.4501 24.9744 20.3405 25.0978C20.2764 25.1909 20.2055 25.2796 20.1284 25.3633C20.0372 25.4178 19.9532 25.4824 19.8783 25.5557C19.8245 25.601 19.7772 25.6527 19.7378 25.7097C19.7219 25.7337 19.7074 25.7585 19.6943 25.784C19.683 25.8079 19.6732 25.8331 19.6648 25.857C19.6642 25.8596 19.6642 25.8624 19.6648 25.865C19.6079 26.0384 19.6114 26.2245 19.6746 26.3959C19.7814 26.7025 20.1185 26.8113 20.4206 26.8816C20.5374 26.9196 20.6612 26.935 20.7844 26.9268C20.9024 26.9039 21.0118 26.8522 21.1019 26.7768C21.4897 26.4848 21.6189 26.1862 21.418 25.7495Z" fill="#48264C"/>
<path d="M21.4183 25.7494C21.3823 25.6682 21.3351 25.5919 21.2778 25.5225C21.2282 25.7664 21.0903 25.9864 20.8878 26.1448C20.6853 26.3031 20.4308 26.39 20.1679 26.3905C19.982 26.3908 19.7989 26.347 19.6355 26.2631C19.6444 26.3081 19.6566 26.3524 19.672 26.3958C19.7788 26.7024 20.116 26.8112 20.418 26.8816C20.5348 26.9195 20.6586 26.9349 20.7819 26.9267C20.8998 26.9038 21.0093 26.8521 21.0994 26.7767C21.4899 26.4847 21.6191 26.1861 21.4183 25.7494Z" fill="#300D33"/>
<path d="M18.8782 12.3074C18.8347 12.2264 18.7223 12.0499 18.6296 12.0247C18.5818 12.0127 18.5818 11.9291 18.5355 11.9212C18.5214 11.8017 18.4638 11.677 18.3163 11.7022C18.2826 11.7022 18.1927 11.7911 18.1576 11.7407C18.1403 11.7109 18.1124 11.6878 18.0789 11.6756C18.01 11.6504 17.9496 11.7075 17.9103 11.7513C17.8443 11.8243 17.76 11.7168 17.6743 11.7513C17.6333 11.7742 17.5998 11.8074 17.5777 11.8473C17.5556 11.8871 17.5458 11.932 17.5493 11.9769C17.5493 11.9849 17.5493 11.9902 17.5493 11.9981C17.4432 12.0741 17.3487 12.1634 17.2683 12.2636C17.1813 12.3741 17.1269 12.5045 17.1106 12.6413C17.0943 12.7782 17.1167 12.9167 17.1756 13.0427C17.2992 13.344 17.642 13.4409 17.9468 13.4926C18.0619 13.5232 18.1819 13.5331 18.3008 13.5218C18.4167 13.493 18.5227 13.4363 18.6085 13.3572C18.9892 13.0374 19.1016 12.7334 18.8782 12.3074Z" fill="#48264C"/>
<path d="M18.8783 12.3072C18.8361 12.228 18.7837 12.154 18.7223 12.0869C18.6872 12.334 18.5621 12.5619 18.3686 12.7314C18.1751 12.9009 17.9251 13.0016 17.6617 13.016C17.4767 13.025 17.2922 12.9904 17.125 12.9151C17.1362 12.9603 17.1507 13.0046 17.1686 13.0478C17.2922 13.3491 17.635 13.446 17.9398 13.4978C18.0574 13.5274 18.18 13.5355 18.3009 13.5217C18.4167 13.4928 18.5227 13.4361 18.6085 13.3571C18.9892 13.0372 19.1016 12.7333 18.8783 12.3072Z" fill="#300D33"/>
<path d="M24.3418 13.3798C24.2982 13.2776 24.1788 13.0533 24.072 13.0161C24.0116 12.9962 24.0144 12.8754 23.9526 12.8834C23.8683 12.8914 23.7883 12.9126 23.7222 12.8369C23.7013 12.8068 23.6783 12.778 23.6534 12.7507C23.6397 12.7352 23.6225 12.7228 23.603 12.7145C23.5836 12.7062 23.5624 12.7023 23.541 12.7029C23.4848 12.7122 23.4469 12.7838 23.4005 12.7201C23.3345 12.6352 23.1842 12.6989 23.1308 12.7626C23.1143 12.7797 23.0997 12.7984 23.0872 12.8184C22.8625 12.8011 22.566 13.0838 22.4494 13.2165C22.3382 13.3481 22.2644 13.5043 22.2349 13.6704C22.2054 13.8364 22.2212 14.0068 22.2809 14.1655C22.4017 14.5438 22.7992 14.6805 23.1533 14.7721C23.2883 14.8177 23.4316 14.8371 23.5747 14.8291C23.7148 14.8023 23.8445 14.7399 23.9498 14.6486C24.4219 14.2823 24.5792 13.92 24.3418 13.3798Z" fill="#48264C"/>
<path d="M24.3417 13.3799C24.2992 13.2803 24.2435 13.1862 24.176 13.0999C24.1212 13.3933 23.9594 13.6593 23.7187 13.8518C23.478 14.0443 23.1735 14.1511 22.8582 14.1537C22.6397 14.1523 22.4252 14.0974 22.2358 13.9944C22.2452 14.0506 22.2589 14.106 22.2766 14.1603C22.3974 14.5386 22.795 14.6753 23.149 14.7669C23.284 14.8125 23.4273 14.8319 23.5705 14.8239C23.7105 14.7971 23.8402 14.7347 23.9456 14.6434C24.4218 14.2824 24.5791 13.9201 24.3417 13.3799Z" fill="#300D33"/>
<path d="M24.1353 24.6147C24.0805 24.4965 23.9358 24.2391 23.8079 24.1979C23.7349 24.1753 23.7349 24.0347 23.6675 24.0426C23.5677 24.0532 23.4722 24.0785 23.3865 23.9922C23.3612 23.957 23.333 23.9237 23.3022 23.8926C23.2845 23.8744 23.2627 23.8601 23.2384 23.8509C23.214 23.8417 23.1878 23.8379 23.1617 23.8396C23.0943 23.8502 23.0493 23.9325 22.9889 23.8608C22.9074 23.7626 22.729 23.8382 22.6644 23.9112C22.6451 23.9319 22.6277 23.9541 22.6124 23.9776C22.3427 23.959 21.9901 24.2908 21.851 24.4395C21.7197 24.5901 21.6329 24.7708 21.5993 24.9633C21.5658 25.1559 21.5867 25.3533 21.6599 25.5358C21.8102 25.9711 22.2893 26.1237 22.715 26.2246C22.8811 26.2782 23.0569 26.2994 23.2319 26.287C23.3985 26.2554 23.5531 26.1825 23.6801 26.076C24.2364 25.6539 24.4191 25.2318 24.1353 24.6147Z" fill="#48264C"/>
<path d="M24.1352 24.6148C24.0831 24.4993 24.0151 24.3908 23.9329 24.2922C23.8623 24.6374 23.6672 24.9487 23.3807 25.1731C23.0943 25.3974 22.7343 25.521 22.3623 25.5226C22.1003 25.523 21.8424 25.4614 21.6121 25.3434C21.6232 25.4088 21.6402 25.4731 21.6626 25.5359C21.813 25.9712 22.292 26.1238 22.7177 26.2247C22.8838 26.2783 23.0597 26.2995 23.2347 26.2871C23.4012 26.2554 23.5558 26.1826 23.6828 26.076C24.2363 25.654 24.419 25.2319 24.1352 24.6148Z" fill="#300D33"/>
<path d="M17.7823 23.6593C17.7823 23.6593 18.1574 23.5266 18.3751 23.9951C18.5929 24.4636 18.6715 24.9241 18.8893 25.1431C18.9491 25.1923 18.9963 25.2537 19.0272 25.3227C19.0582 25.3917 19.072 25.4665 19.0677 25.5413C19.0677 25.5413 18.4538 25.2241 18.2964 25.0555C18.063 24.8265 17.8631 24.569 17.7022 24.2897C17.5252 23.9526 17.4001 23.6367 17.4001 23.6367L17.7823 23.6593Z" fill="#5F825C"/>
<path d="M17.6349 23.5768C17.6349 23.5768 17.729 23.2092 17.2134 23.0592C16.6979 22.9092 16.2019 22.8867 15.9491 22.7075C15.8899 22.6565 15.819 22.619 15.742 22.5981C15.665 22.5771 15.584 22.5732 15.5051 22.5867C15.5051 22.5867 15.9083 23.1269 16.1036 23.2503C16.3716 23.4424 16.6654 23.6 16.9774 23.7188C17.3511 23.8516 17.6981 23.9285 17.6981 23.9285L17.6349 23.5768Z" fill="#5F825C"/>
<path d="M17.5618 23.7561C17.5618 23.7561 18.2544 24.2233 18.2347 24.8591C18.215 25.4948 18.215 25.812 17.8132 26.1664C17.4114 26.5208 16.6472 26.5407 16.251 26.7079C15.8549 26.8752 15.3814 27.0265 15.2676 27.1194C15.1538 27.2123 14.9122 27.3065 14.5568 27.1194C14.2013 26.9322 13.9948 26.9521 14.0623 26.4279C14.1631 25.7532 14.3353 25.0898 14.5764 24.4476C14.7731 23.9619 14.9473 23.5876 15.5036 23.4389C16.0369 23.3094 16.6005 23.3486 17.108 23.5504C17.4578 23.719 17.5618 23.7561 17.5618 23.7561Z" fill="#ED6366"/>
<path d="M14.1451 25.9223C14.4595 26.0339 14.7927 26.091 15.1285 26.0909C16.5053 26.0909 17.6208 25.1764 17.6208 24.0496C17.6211 23.9567 17.6136 23.864 17.5983 23.7722C17.7472 23.885 18.2459 24.3031 18.2291 24.8446C18.2094 25.479 18.2094 25.7976 17.8076 26.152C17.4058 26.5063 16.6416 26.5262 16.2454 26.6935C15.8492 26.8607 15.3758 27.012 15.262 27.1049C15.1482 27.1978 14.9066 27.2921 14.5511 27.1049C14.1957 26.9178 13.9892 26.9364 14.0566 26.4134C14.0777 26.2754 14.1072 26.1068 14.1451 25.9223Z" fill="#C73A54"/>
<path d="M17.8697 25.1496C17.9638 25.1615 17.9863 25.0089 17.9933 24.8974C18.0005 24.8695 18.0005 24.8404 17.9933 24.8125V24.8032C17.9933 24.7926 17.9779 24.7899 17.9765 24.8032C17.9733 24.8034 17.9702 24.8044 17.9675 24.806C17.9648 24.8076 17.9626 24.8098 17.961 24.8125C17.9442 24.8483 17.7391 25.1337 17.8697 25.1496Z" fill="#E7D8C8"/>
<path d="M17.6731 24.5737C17.6744 24.5753 17.6761 24.5766 17.6781 24.5776C17.68 24.5785 17.6822 24.579 17.6844 24.579C17.6865 24.579 17.6887 24.5785 17.6906 24.5776C17.6926 24.5766 17.6943 24.5753 17.6956 24.5737C17.7232 24.5524 17.7455 24.5257 17.7611 24.4954C17.7766 24.4652 17.7849 24.4321 17.7855 24.3985C17.7931 24.3802 17.7973 24.3609 17.7982 24.3414C17.7984 24.3386 17.7979 24.3358 17.7967 24.3332C17.7954 24.3307 17.7935 24.3285 17.7911 24.3269C17.7887 24.3253 17.7858 24.3243 17.7829 24.324C17.7799 24.3238 17.777 24.3243 17.7743 24.3255C17.7743 24.3255 17.7574 24.3255 17.7588 24.3255C17.7186 24.3529 17.6886 24.3918 17.6732 24.4364C17.6578 24.481 17.6578 24.529 17.6731 24.5737Z" fill="#E7D8C8"/>
<path d="M17.2669 24.2721C17.3484 24.3332 17.3863 24.1938 17.4074 24.1022C17.4194 24.0745 17.4279 24.0456 17.4327 24.016C17.433 24.0126 17.4322 24.0092 17.4304 24.0063C17.4285 24.0034 17.4258 24.0012 17.4225 23.9998C17.4192 23.9985 17.4156 23.9982 17.4121 23.9989C17.4086 23.9997 17.4055 24.0015 17.4032 24.004C17.3638 24.0478 17.1868 24.2164 17.2669 24.2721Z" fill="#E7D8C8"/>
<path d="M17.2149 24.8643C17.216 24.8657 17.2175 24.8668 17.2192 24.8676C17.2209 24.8683 17.2228 24.8687 17.2247 24.8687C17.2266 24.8687 17.2284 24.8683 17.2301 24.8676C17.2318 24.8668 17.2333 24.8657 17.2345 24.8643C17.2614 24.8396 17.2849 24.812 17.3048 24.782C17.3537 24.7302 17.3841 24.6652 17.3919 24.5962C17.3919 24.5856 17.3806 24.5723 17.368 24.5776L17.3427 24.5936C17.2528 24.6559 17.146 24.7767 17.2149 24.8643Z" fill="#E7D8C8"/>
<path d="M17.3553 25.4577C17.4073 25.4882 17.4382 25.4178 17.4551 25.3448C17.4781 25.3076 17.4915 25.2658 17.4944 25.2227C17.4947 25.2199 17.4942 25.2171 17.4929 25.2146C17.4917 25.212 17.4898 25.2099 17.4874 25.2082C17.4849 25.2066 17.4821 25.2056 17.4791 25.2054C17.4762 25.2051 17.4732 25.2056 17.4705 25.2068H17.4537C17.4537 25.2068 17.4537 25.2068 17.4537 25.2161C17.4167 25.252 17.3876 25.2944 17.368 25.3409C17.3539 25.3714 17.3174 25.4377 17.3553 25.4577Z" fill="#E7D8C8"/>
<path d="M17.6209 25.7867C17.6771 25.8212 17.7361 25.7721 17.7614 25.7243C17.7752 25.6918 17.7856 25.658 17.7923 25.6235C17.809 25.5967 17.8191 25.5668 17.8218 25.5359C17.8251 25.5324 17.827 25.5279 17.827 25.5232C17.827 25.5186 17.8251 25.5141 17.8218 25.5106V25.5013C17.8218 25.4907 17.8035 25.4801 17.7923 25.4894C17.7459 25.5213 17.5352 25.7323 17.6209 25.7867Z" fill="#E7D8C8"/>
<path d="M17.0758 25.9698C17.1236 26.0322 17.1699 25.9698 17.2022 25.9087C17.2221 25.8921 17.2378 25.8716 17.2485 25.8487C17.2592 25.8258 17.2645 25.801 17.2641 25.776C17.264 25.7736 17.2634 25.7713 17.2622 25.7693C17.261 25.7672 17.2593 25.7655 17.2572 25.7642C17.2551 25.7629 17.2527 25.7621 17.2503 25.7618C17.2478 25.7616 17.2453 25.7619 17.243 25.7627C17.177 25.7866 17.0168 25.8928 17.0758 25.9698Z" fill="#E7D8C8"/>
<path d="M16.8116 25.2013C16.8523 25.1548 16.8996 25.1137 16.9521 25.0792C16.9549 25.0771 16.9584 25.0758 16.962 25.0755C16.9657 25.0752 16.9694 25.076 16.9725 25.0777C16.9757 25.0794 16.9783 25.082 16.9799 25.0851C16.9815 25.0882 16.9821 25.0917 16.9816 25.0952C16.9801 25.1149 16.9748 25.1342 16.9661 25.1522V25.1721C16.959 25.2276 16.9345 25.2798 16.8959 25.3221C16.8664 25.354 16.7975 25.3699 16.7694 25.3221C16.7413 25.2743 16.7863 25.2239 16.8116 25.2013Z" fill="#E7D8C8"/>
<path d="M16.7331 24.7331C16.7443 24.7742 16.8005 24.7703 16.8286 24.749C16.8474 24.7329 16.8627 24.7136 16.8735 24.6919C16.8997 24.6617 16.9153 24.6247 16.9185 24.5858C16.9186 24.5828 16.918 24.5799 16.9167 24.5772C16.9154 24.5745 16.9134 24.5721 16.9109 24.5703C16.9085 24.5685 16.9056 24.5673 16.9025 24.5667C16.8994 24.5662 16.8962 24.5663 16.8932 24.5672C16.8532 24.582 16.8176 24.6057 16.7893 24.6362C16.764 24.6588 16.7218 24.6959 16.7331 24.7331Z" fill="#E7D8C8"/>
<path d="M16.9748 23.7415C16.9795 23.7402 16.9845 23.7405 16.9889 23.7425C16.9934 23.7445 16.9968 23.7479 16.9987 23.7521C17.0093 23.7917 17.0075 23.8334 16.9935 23.872C16.9796 23.9106 16.954 23.9446 16.9201 23.9698C16.9174 23.9717 16.9144 23.9729 16.9111 23.9734C16.9079 23.9739 16.9046 23.9737 16.9014 23.9728C16.8983 23.9719 16.8954 23.9703 16.893 23.9682C16.8907 23.9661 16.8889 23.9634 16.8877 23.9605C16.8835 23.9512 16.8806 23.9414 16.8793 23.9313C16.8665 23.8941 16.8692 23.8537 16.887 23.8184C16.9048 23.7831 16.9362 23.7556 16.9748 23.7415Z" fill="#E7D8C8"/>
<path d="M16.4899 24.4714C16.532 24.5045 16.5672 24.4714 16.5924 24.4183C16.6245 24.388 16.6482 24.3507 16.6612 24.3097C16.6742 24.2687 16.6761 24.2253 16.6669 24.1833C16.665 24.1796 16.662 24.1765 16.6582 24.1744C16.6545 24.1723 16.6502 24.1712 16.6458 24.1714C16.5826 24.1794 16.5292 24.263 16.5053 24.3041C16.4815 24.3453 16.4365 24.4315 16.4899 24.4714Z" fill="#E7D8C8"/>
<path d="M16.4744 23.7093C16.4826 23.6998 16.4915 23.691 16.5011 23.6828C16.5043 23.6807 16.5079 23.6794 16.5118 23.6791C16.5156 23.6787 16.5195 23.6793 16.523 23.6808C16.5265 23.6822 16.5296 23.6845 16.5319 23.6874C16.5342 23.6903 16.5357 23.6938 16.5362 23.6974C16.5402 23.7281 16.5367 23.7592 16.526 23.7884C16.5152 23.8176 16.4976 23.8441 16.4744 23.8659C16.4747 23.8695 16.4747 23.873 16.4744 23.8765C16.4701 23.8847 16.4637 23.8917 16.4558 23.8968C16.4478 23.9019 16.4386 23.905 16.429 23.9058C16.4194 23.9066 16.4098 23.9051 16.401 23.9014C16.3922 23.8976 16.3846 23.8918 16.3789 23.8845C16.3185 23.8261 16.4042 23.7412 16.4744 23.7093Z" fill="#E7D8C8"/>
<path d="M15.9969 24.1954C16.025 24.1404 16.0694 24.0942 16.1247 24.0627C16.1279 24.0605 16.1318 24.0592 16.1357 24.0591C16.1397 24.059 16.1436 24.06 16.1469 24.062C16.1502 24.064 16.1529 24.0669 16.1544 24.0703C16.156 24.0738 16.1564 24.0776 16.1557 24.0812C16.1539 24.1059 16.1477 24.1302 16.1374 24.1529C16.1374 24.1609 16.1374 24.1688 16.1374 24.1755C16.1344 24.2049 16.1278 24.2338 16.1177 24.2617C16.1087 24.2888 16.0891 24.3116 16.0629 24.3255C16.061 24.3288 16.0581 24.3315 16.0547 24.3335C16.0512 24.3354 16.0473 24.3364 16.0433 24.3364C16.0393 24.3364 16.0353 24.3354 16.0319 24.3335C16.0284 24.3315 16.0255 24.3288 16.0236 24.3255C15.9688 24.2976 15.9857 24.2286 15.9969 24.1954Z" fill="#E7D8C8"/>
<path d="M15.8971 23.8742C15.8994 23.8757 15.9021 23.8764 15.9049 23.8764C15.9076 23.8764 15.9103 23.8757 15.9126 23.8742C15.9313 23.8574 15.9487 23.8392 15.9646 23.8198C16 23.7918 16.03 23.7581 16.0531 23.7203C16.0627 23.7037 16.0666 23.6847 16.0643 23.6659V23.6566C16.0643 23.6473 16.0643 23.6407 16.0503 23.6446C16.045 23.6386 16.0383 23.6339 16.0308 23.6309C16.0232 23.6279 16.0149 23.6267 16.0067 23.6274C15.9126 23.6287 15.8142 23.8092 15.8971 23.8742Z" fill="#E7D8C8"/>
<path d="M15.3296 24.0403C15.3577 24.0907 15.4237 24.0403 15.4476 24.0124C15.4859 23.9706 15.5124 23.9204 15.5249 23.8664C15.5347 23.8483 15.54 23.8283 15.5403 23.808C15.5408 23.8051 15.5405 23.8021 15.5395 23.7992C15.5386 23.7964 15.537 23.7938 15.5348 23.7917C15.5326 23.7895 15.53 23.7878 15.5271 23.7867C15.5241 23.7857 15.521 23.7852 15.5179 23.7855C15.485 23.7898 15.4539 23.8018 15.4272 23.8204C15.4004 23.8389 15.379 23.8634 15.3647 23.8916C15.3408 23.9301 15.3043 23.9952 15.3296 24.0403Z" fill="#E7D8C8"/>
<path d="M15.4687 24.5738C15.4856 24.615 15.5306 24.595 15.5474 24.5738C15.5643 24.5526 15.5629 24.5459 15.5699 24.5327C15.5977 24.5039 15.6174 24.4691 15.6272 24.4313C15.6371 24.3935 15.6367 24.3539 15.6261 24.3163C15.6251 24.3138 15.6235 24.3115 15.6215 24.3097C15.6194 24.3078 15.6169 24.3064 15.6142 24.3057C15.6114 24.3049 15.6085 24.3047 15.6057 24.3052C15.6029 24.3057 15.6003 24.3067 15.598 24.3084C15.5586 24.3421 15.5279 24.3839 15.5081 24.4305C15.4912 24.465 15.4491 24.526 15.4687 24.5738Z" fill="#E7D8C8"/>
<path d="M16.0402 24.8034C16.0552 24.7367 16.0945 24.677 16.1512 24.6348C16.1537 24.6323 16.1568 24.6305 16.1603 24.6296C16.1639 24.6287 16.1676 24.6287 16.1711 24.6296C16.1746 24.6306 16.1777 24.6325 16.1801 24.635C16.1826 24.6376 16.1842 24.6407 16.1849 24.6441C16.1873 24.6688 16.1839 24.6937 16.1751 24.7171C16.1716 24.7464 16.1596 24.7743 16.1406 24.7977C16.1215 24.8211 16.096 24.8391 16.0669 24.8498H16.0528C16.0494 24.8503 16.0459 24.8499 16.0426 24.8489C16.0394 24.8479 16.0364 24.8461 16.0339 24.8438C16.0315 24.8415 16.0296 24.8387 16.0285 24.8356C16.0274 24.8325 16.0271 24.8292 16.0275 24.8259L16.0402 24.8034Z" fill="#E7D8C8"/>
<path d="M16.4506 24.9598C16.4535 24.958 16.4569 24.9569 16.4604 24.9566C16.4638 24.9563 16.4673 24.9569 16.4705 24.9582C16.4737 24.9595 16.4766 24.9616 16.4787 24.9642C16.4809 24.9668 16.4823 24.9698 16.4829 24.9731C16.4829 24.9731 16.4829 24.9731 16.4829 24.9824C16.4829 25.0567 16.4281 25.1761 16.3424 25.1828C16.3401 25.1831 16.3377 25.1831 16.3354 25.1825C16.3331 25.182 16.331 25.181 16.3292 25.1796C16.3273 25.1782 16.3258 25.1765 16.3247 25.1745C16.3236 25.1726 16.3229 25.1704 16.3228 25.1682C16.3252 25.1264 16.338 25.0857 16.3602 25.0495C16.3824 25.0133 16.4134 24.9825 16.4506 24.9598Z" fill="#E7D8C8"/>
<path d="M15.9687 25.2012C15.9863 25.1846 16.0061 25.1703 16.0277 25.1587C16.0389 25.1587 16.0586 25.1587 16.0586 25.1706C16.0558 25.2238 16.0329 25.2742 15.994 25.3126C15.9779 25.3372 15.9544 25.3566 15.9265 25.3684C15.9228 25.3697 15.9187 25.3696 15.915 25.3681C15.9113 25.3667 15.9084 25.3639 15.9069 25.3604C15.9069 25.3604 15.9069 25.3511 15.9069 25.3458C15.9061 25.3423 15.9061 25.3387 15.9069 25.3352C15.9021 25.3096 15.9055 25.2832 15.9165 25.2594C15.9275 25.2356 15.9456 25.2153 15.9687 25.2012Z" fill="#E7D8C8"/>
<path d="M15.5995 24.8284C15.6052 24.828 15.6109 24.8298 15.6154 24.8332C15.6198 24.8367 15.6227 24.8416 15.6234 24.847C15.6255 24.8584 15.6255 24.8701 15.6234 24.8815C15.626 24.9009 15.6241 24.9205 15.6178 24.9391C15.6115 24.9577 15.6009 24.9747 15.5868 24.989C15.5681 25.0214 15.5391 25.0473 15.504 25.0633C15.4955 25.0633 15.4857 25.0633 15.4815 25.054C15.4506 24.985 15.4983 24.8271 15.5995 24.8284Z" fill="#E7D8C8"/>
<path d="M14.9659 24.745C14.9669 24.7477 14.9684 24.7503 14.9704 24.7525C14.9724 24.7546 14.9749 24.7564 14.9777 24.7576C14.9804 24.7589 14.9834 24.7596 14.9865 24.7597C14.9895 24.7598 14.9926 24.7593 14.9954 24.7583C15.039 24.7391 15.0742 24.7063 15.0952 24.6654C15.1161 24.6246 15.1216 24.5782 15.1106 24.534C15.1093 24.5312 15.1074 24.5288 15.105 24.5268C15.1026 24.5248 15.0998 24.5233 15.0967 24.5224C15.0936 24.5215 15.0904 24.5213 15.0873 24.5217C15.0841 24.5221 15.081 24.5231 15.0783 24.5247C15.0466 24.5458 15.0198 24.5729 14.9997 24.6043C14.9828 24.6236 14.971 24.6464 14.9651 24.6709C14.9593 24.6953 14.9596 24.7207 14.9659 24.745Z" fill="#E7D8C8"/>
<path d="M15.0273 25.2572C15.0271 25.2299 15.0349 25.2031 15.0498 25.1797C15.0646 25.1562 15.086 25.1372 15.1116 25.1245C15.1148 25.1232 15.1182 25.1226 15.1216 25.1229C15.125 25.1231 15.1283 25.1241 15.1312 25.1258C15.1341 25.1275 15.1365 25.1298 15.1382 25.1326C15.14 25.1354 15.141 25.1385 15.1411 25.1417C15.145 25.1681 15.1421 25.195 15.1328 25.2201C15.1236 25.2453 15.1081 25.268 15.0878 25.2864C15.0817 25.2943 15.0741 25.3011 15.0653 25.3063C15.0626 25.3077 15.0597 25.3085 15.0567 25.3088C15.0537 25.3091 15.0506 25.3087 15.0477 25.3079C15.0448 25.307 15.0422 25.3056 15.0399 25.3037C15.0376 25.3019 15.0357 25.2996 15.0344 25.297C15.0337 25.2955 15.0334 25.294 15.0334 25.2924C15.0334 25.2908 15.0337 25.2892 15.0344 25.2877C15.0306 25.2779 15.0282 25.2676 15.0273 25.2572Z" fill="#E7D8C8"/>
<path d="M16.3143 25.4498C16.3168 25.4496 16.3194 25.4499 16.3217 25.4507C16.3241 25.4515 16.3263 25.4527 16.3282 25.4543C16.33 25.4559 16.3315 25.4579 16.3325 25.4601C16.3335 25.4623 16.334 25.4646 16.334 25.467C16.3338 25.5024 16.3231 25.537 16.3029 25.5669C16.2828 25.5967 16.2541 25.6205 16.2202 25.6356C16.2156 25.6369 16.2107 25.6369 16.2061 25.6356H16.1865C16.1842 25.636 16.1819 25.6359 16.1797 25.6353C16.1775 25.6348 16.1754 25.6338 16.1737 25.6324C16.1719 25.631 16.1705 25.6292 16.1696 25.6272C16.1686 25.6253 16.1682 25.6231 16.1682 25.621C16.1759 25.5833 16.1933 25.5481 16.2188 25.5182C16.2442 25.4884 16.277 25.4649 16.3143 25.4498Z" fill="#E7D8C8"/>
<path d="M16.4633 25.8197C16.4628 25.8233 16.4634 25.8269 16.4648 25.8302C16.4662 25.8335 16.4685 25.8364 16.4715 25.8387C16.4744 25.8409 16.4779 25.8424 16.4816 25.8431C16.4854 25.8437 16.4892 25.8434 16.4928 25.8423H16.5026C16.5047 25.8436 16.5071 25.8443 16.5096 25.8443C16.5121 25.8443 16.5146 25.8436 16.5167 25.8423L16.5265 25.833C16.5538 25.815 16.5769 25.7919 16.5946 25.7652C16.6122 25.7386 16.6239 25.7088 16.6291 25.6777C16.6296 25.6747 16.6292 25.6715 16.628 25.6687C16.6268 25.6658 16.6248 25.6632 16.6222 25.6613C16.6197 25.6594 16.6166 25.6582 16.6133 25.6579C16.6101 25.6575 16.6068 25.6579 16.6038 25.6591C16.5588 25.6789 16.5215 25.7114 16.497 25.752C16.481 25.7722 16.4695 25.7952 16.4633 25.8197Z" fill="#E7D8C8"/>
<path d="M16.3804 26.2872C16.3982 26.2517 16.4241 26.2205 16.4562 26.1956C16.4699 26.1814 16.4849 26.1686 16.5012 26.1571C16.5058 26.1557 16.5107 26.1557 16.5153 26.1571C16.5181 26.1549 16.5216 26.1536 16.5252 26.1534C16.5289 26.1531 16.5326 26.1539 16.5357 26.1556C16.5389 26.1573 16.5415 26.1599 16.5431 26.163C16.5447 26.1661 16.5453 26.1696 16.5448 26.173C16.5393 26.2045 16.5244 26.2338 16.5017 26.2573C16.479 26.2809 16.4495 26.2977 16.4169 26.3058H16.4057C16.4027 26.3076 16.3992 26.3086 16.3957 26.3085C16.3921 26.3084 16.3887 26.3072 16.3859 26.3051C16.3831 26.3031 16.3811 26.3002 16.3801 26.297C16.3791 26.2938 16.3792 26.2903 16.3804 26.2872Z" fill="#E7D8C8"/>
<path d="M15.9251 26.0589C15.9264 26.0396 15.9321 26.0209 15.9418 26.0039C15.9515 25.9869 15.965 25.9722 15.9813 25.9607C16.003 25.9395 16.0301 25.924 16.06 25.9155C16.0726 25.9155 16.0895 25.9155 16.0895 25.9315C16.0873 25.9692 16.0725 26.0053 16.0473 26.0346C16.022 26.0639 15.9877 26.085 15.949 26.0947C15.9461 26.0951 15.943 26.0949 15.9402 26.0942C15.9373 26.0934 15.9346 26.0922 15.9322 26.0904C15.9299 26.0887 15.9279 26.0865 15.9265 26.0841C15.925 26.0816 15.9241 26.0789 15.9237 26.0761C15.9223 26.075 15.9213 26.0737 15.9206 26.0721C15.9199 26.0705 15.9196 26.0688 15.9197 26.0672C15.9198 26.0655 15.9204 26.0638 15.9214 26.0624C15.9223 26.061 15.9236 26.0597 15.9251 26.0589Z" fill="#E7D8C8"/>
<path d="M15.6008 25.5147H15.612C15.6165 25.513 15.6214 25.5124 15.6262 25.5128C15.6311 25.5133 15.6357 25.5148 15.6398 25.5172C15.6439 25.5197 15.6474 25.523 15.6499 25.527C15.6523 25.5309 15.6538 25.5354 15.6541 25.5399C15.6457 25.6076 15.5853 25.6952 15.5137 25.6992C15.5024 25.6992 15.487 25.6912 15.4884 25.6793C15.4878 25.6444 15.4982 25.6102 15.5182 25.5809C15.5382 25.5516 15.5669 25.5286 15.6008 25.5147Z" fill="#E7D8C8"/>
<path d="M15.3731 26.1306C15.4016 26.0912 15.4423 26.061 15.4897 26.0444C15.4933 26.0429 15.4973 26.0424 15.5013 26.0429C15.5052 26.0434 15.5089 26.0449 15.5121 26.0472C15.5152 26.0494 15.5177 26.0525 15.5191 26.056C15.5206 26.0594 15.5211 26.0632 15.5206 26.0669C15.4946 26.1443 15.4383 26.2093 15.3632 26.2487C15.3601 26.2512 15.3563 26.2527 15.3522 26.2533C15.3482 26.2538 15.3441 26.2533 15.3403 26.2518C15.3366 26.2503 15.3333 26.2479 15.3309 26.2448C15.3285 26.2416 15.3271 26.238 15.3267 26.2341C15.3253 26.2147 15.3288 26.1952 15.3369 26.1772C15.3449 26.1592 15.3573 26.1433 15.3731 26.1306Z" fill="#E7D8C8"/>
<path d="M15.0021 25.7057C15.0031 25.679 15.0111 25.6529 15.0253 25.6298C15.0395 25.6066 15.0595 25.5871 15.0835 25.573C15.0948 25.573 15.1159 25.573 15.1201 25.5823C15.1252 25.6174 15.1196 25.6532 15.1039 25.6854C15.0883 25.7176 15.0631 25.745 15.0316 25.7641C15.0276 25.7671 15.0227 25.7689 15.0176 25.7693C15.0125 25.7696 15.0074 25.7685 15.003 25.7661C14.9986 25.7636 14.995 25.76 14.9929 25.7556C14.9907 25.7512 14.99 25.7463 14.9908 25.7416C14.9938 25.7294 14.9975 25.7174 15.0021 25.7057Z" fill="#E7D8C8"/>
<path d="M14.6482 25.293C14.6528 25.2772 14.6626 25.2633 14.6763 25.2532L14.6847 25.2439C14.6946 25.232 14.7213 25.236 14.7213 25.2532C14.7203 25.2822 14.7105 25.3103 14.6932 25.3342C14.6922 25.3517 14.6873 25.3687 14.6788 25.3843C14.6704 25.3999 14.6585 25.4135 14.644 25.4244C14.6413 25.426 14.6383 25.427 14.6351 25.4271C14.6319 25.4273 14.6288 25.4267 14.6259 25.4253C14.6231 25.424 14.6207 25.422 14.6189 25.4195C14.6172 25.417 14.6161 25.4141 14.6159 25.4112C14.6123 25.3695 14.6237 25.3278 14.6482 25.293Z" fill="#E7D8C8"/>
<path d="M14.9982 24.1463L15.0164 24.1237C15.0263 24.1144 15.0487 24.1237 15.0487 24.133C15.0514 24.1595 15.0476 24.1862 15.0376 24.211C15.0276 24.2359 15.0117 24.2582 14.9911 24.2764V24.2843C14.989 24.2863 14.9863 24.2876 14.9834 24.2883C14.9805 24.289 14.9775 24.2889 14.9746 24.2881C14.9718 24.2873 14.9692 24.2858 14.9672 24.2837C14.9651 24.2816 14.9637 24.2791 14.9631 24.2764C14.9617 24.268 14.9617 24.2595 14.9631 24.2511C14.9574 24.2323 14.9576 24.2124 14.9639 24.1937C14.9701 24.1751 14.9821 24.1586 14.9982 24.1463Z" fill="#E7D8C8"/>
<path d="M14.8292 26.3336C14.8307 26.3361 14.8328 26.3382 14.8354 26.3396C14.838 26.3411 14.841 26.3418 14.844 26.3418C14.847 26.3418 14.8499 26.3411 14.8525 26.3396C14.8551 26.3382 14.8573 26.3361 14.8587 26.3336L14.87 26.3217C14.8984 26.3007 14.9218 26.2742 14.9385 26.244C14.9552 26.2138 14.9649 26.1805 14.9669 26.1465C14.9673 26.1428 14.9665 26.139 14.9647 26.1357C14.963 26.1324 14.9602 26.1296 14.9569 26.1277C14.9535 26.1257 14.9496 26.1247 14.9457 26.1248C14.9418 26.1248 14.9379 26.1259 14.9346 26.1279C14.8742 26.169 14.8025 26.2633 14.8292 26.3336Z" fill="#E7D8C8"/>
<path d="M14.4938 26.0549C14.4973 26.0375 14.5067 26.0217 14.5205 26.0098C14.5259 26.001 14.5325 25.993 14.5402 25.9859C14.5423 25.9832 14.545 25.9809 14.5482 25.9794C14.5514 25.9779 14.5549 25.9771 14.5585 25.9771C14.562 25.9771 14.5655 25.9779 14.5687 25.9794C14.5719 25.9809 14.5746 25.9832 14.5767 25.9859C14.5879 26.0151 14.5879 26.047 14.5767 26.0762C14.5693 26.1061 14.5527 26.1334 14.529 26.1545C14.5267 26.1561 14.524 26.1572 14.5212 26.1576C14.5184 26.1581 14.5155 26.1579 14.5128 26.1572C14.5101 26.1564 14.5076 26.155 14.5055 26.1532C14.5034 26.1513 14.5018 26.149 14.5009 26.1465C14.4927 26.1326 14.4878 26.1173 14.4866 26.1014C14.4854 26.0856 14.4879 26.0697 14.4938 26.0549Z" fill="#E7D8C8"/>
<path d="M14.5513 26.5074C14.5543 26.5053 14.5579 26.5039 14.5617 26.5035C14.5655 26.5031 14.5693 26.5037 14.5728 26.5052C14.5762 26.5067 14.5792 26.5091 14.5813 26.512C14.5835 26.515 14.5848 26.5184 14.585 26.522C14.5886 26.554 14.5848 26.5864 14.5739 26.6168C14.563 26.6473 14.5452 26.6752 14.5218 26.6986C14.5218 26.6986 14.5218 26.7065 14.5218 26.7092C14.5204 26.7123 14.5181 26.715 14.5151 26.7169C14.5121 26.7188 14.5085 26.7198 14.5049 26.7198C14.5013 26.7198 14.4978 26.7188 14.4948 26.7169C14.4918 26.715 14.4895 26.7123 14.4881 26.7092C14.4787 26.6733 14.4797 26.6357 14.4908 26.6002C14.5019 26.5648 14.5228 26.5327 14.5513 26.5074Z" fill="#E7D8C8"/>
<path d="M15.0696 26.7027C15.0743 26.7014 15.0793 26.7017 15.0839 26.7033C15.0885 26.705 15.0923 26.7081 15.0949 26.712C15.0964 26.7142 15.0972 26.7167 15.0972 26.7193C15.0972 26.7219 15.0964 26.7244 15.0949 26.7266C15.0953 26.7297 15.0953 26.7328 15.0949 26.7359C15.0947 26.7618 15.0882 26.7872 15.0757 26.8103C15.0633 26.8333 15.0453 26.8533 15.0232 26.8686C15.0207 26.8705 15.0177 26.8718 15.0146 26.8724C15.0114 26.873 15.0081 26.8729 15.005 26.8721C15.0019 26.8714 14.999 26.8699 14.9966 26.8679C14.9941 26.866 14.9922 26.8635 14.9909 26.8607C14.9903 26.858 14.9903 26.8553 14.9909 26.8527C14.9883 26.8529 14.9857 26.8526 14.9833 26.8517C14.9809 26.8509 14.9787 26.8495 14.9769 26.8477C14.9751 26.8459 14.9738 26.8437 14.9731 26.8414C14.9724 26.839 14.9722 26.8365 14.9727 26.8341C14.9763 26.8064 14.987 26.7799 15.0039 26.757C15.0208 26.7341 15.0433 26.7155 15.0696 26.7027Z" fill="#E7D8C8"/>
<path d="M15.7383 26.3826C15.7413 26.3808 15.7446 26.3797 15.7481 26.3795C15.7516 26.3792 15.7551 26.3797 15.7583 26.381C15.7615 26.3824 15.7643 26.3844 15.7665 26.387C15.7686 26.3896 15.7701 26.3927 15.7707 26.3959C15.772 26.4362 15.7609 26.476 15.7387 26.5104C15.7165 26.5449 15.6842 26.5724 15.6456 26.5897C15.6388 26.5922 15.6313 26.5922 15.6245 26.5897L15.6077 26.6003C15.6052 26.6012 15.6025 26.6014 15.5999 26.6011C15.5972 26.6008 15.5947 26.5999 15.5925 26.5984C15.5903 26.597 15.5885 26.5951 15.5872 26.5929C15.586 26.5907 15.5853 26.5882 15.5852 26.5857C15.5912 26.5426 15.6083 26.5016 15.635 26.4661C15.6617 26.4307 15.6972 26.4021 15.7383 26.3826Z" fill="#E7D8C8"/>
<path d="M16.8791 26.2909C16.882 26.2847 16.8858 26.2789 16.8903 26.2737C16.8881 26.2641 16.8881 26.2541 16.8903 26.2445C16.9062 26.2156 16.9319 26.1927 16.9634 26.1794C16.9746 26.1794 16.9901 26.1794 16.9943 26.1874C16.9999 26.2061 16.9999 26.2258 16.9943 26.2445C16.9898 26.2661 16.977 26.2853 16.9582 26.2983C16.9395 26.3113 16.9163 26.3172 16.8931 26.3148C16.8882 26.313 16.8841 26.3097 16.8815 26.3053C16.8789 26.3009 16.8781 26.2958 16.8791 26.2909Z" fill="#E7D8C8"/>
</g>
<defs>
<linearGradient id="paint0_linear_430_18" x1="40" y1="40" x2="-13.3117" y2="35.8747" gradientUnits="userSpaceOnUse">
<stop stop-color="#92A3FD"/>
<stop offset="1" stop-color="#9DCEFF"/>
</linearGradient>
<clipPath id="clip0_430_18">
<rect width="27" height="18" fill="white" transform="translate(6.5 11)"/>
</clipPath>
</defs>
</svg>
