<svg width="256" height="327" viewBox="0 0 256 327" fill="none" xmlns="http://www.w3.org/2000/svg">
<path d="M231.044 206.559C272.138 128.648 259.096 40.8301 201.915 10.4115C144.734 -20.0071 65.0669 18.4927 23.9732 96.4032C-17.1206 174.314 -4.07934 262.132 53.1017 292.55C110.283 322.969 189.95 284.469 231.044 206.559Z" fill="#97BEFC"/>
<path d="M98.3189 327C129.557 327 154.881 326.365 154.881 325.581C154.881 324.797 129.557 324.161 98.3189 324.161C67.0808 324.161 41.7573 324.797 41.7573 325.581C41.7573 326.365 67.0808 327 98.3189 327Z" fill="#3B2645"/>
<path d="M98.4629 325.581C135.914 325.581 166.273 295.273 166.273 257.886C166.273 220.499 135.914 190.191 98.4629 190.191C61.0122 190.191 30.6525 220.499 30.6525 257.886C30.6525 295.273 61.0122 325.581 98.4629 325.581Z" fill="#FA9E97"/>
<path d="M86.6084 305.188C81.2724 305.188 75.9364 304.58 70.6581 303.305C51.9677 298.873 36.1904 287.055 26.2395 269.994C16.2886 252.961 13.3754 232.743 17.9903 213.074C22.6052 193.406 34.2291 176.663 50.7274 165.888C67.2257 155.112 86.6084 151.636 105.299 156.068C123.989 160.5 139.766 172.318 149.717 189.38C159.668 206.412 162.581 226.631 157.967 246.299C153.352 265.967 141.699 282.71 125.23 293.486C113.404 301.191 100.107 305.188 86.6084 305.188ZM89.435 154.794C56.7556 154.794 26.701 178.459 18.5095 213.219C13.9234 232.743 16.8366 252.788 26.701 269.704C36.5654 286.621 52.2273 298.352 70.7735 302.755C76.0229 304.001 81.3301 304.609 86.6084 304.609C99.9917 304.609 113.173 300.669 124.912 292.993C141.266 282.305 152.804 265.678 157.419 246.154C162.005 226.631 159.091 206.586 149.227 189.669C139.363 172.753 123.701 161.022 105.155 156.619C99.9051 155.373 94.6268 154.794 89.435 154.794Z" fill="white"/>
<path d="M63.8798 270.255C57.5632 270.255 51.7945 268.661 46.8623 265.417C36.623 258.697 31.2581 245.807 31.8062 229.093C32.3542 212.408 38.6708 193.928 49.6313 177.04C60.5917 160.153 74.8691 146.857 89.8676 139.615C104.866 132.374 118.797 132.084 129.037 138.775C139.276 145.495 144.641 158.386 144.093 175.099C143.545 191.784 137.228 210.265 126.268 227.152C115.307 244.04 101.03 257.336 86.0314 264.577C78.2438 268.372 70.7445 270.255 63.8798 270.255ZM49.8332 177.156L50.0062 177.272C39.0747 194.101 32.7868 212.524 32.2388 229.093C31.7196 245.662 36.9979 258.407 47.0931 265.041C68.0044 278.742 103.366 261.623 125.893 226.921C148.419 192.219 149.717 152.824 128.806 139.152C107.895 125.451 72.5328 142.57 50.0062 177.272L49.8332 177.156Z" fill="white"/>
<path d="M57.8517 244.272C53.6983 244.272 50.2948 243.026 48.3046 240.419C45.651 237.001 45.7376 231.787 48.5642 225.762C51.362 219.766 56.4672 213.683 63.0146 208.585L63.13 208.729L63.0146 208.585C76.5421 198.041 91.9733 195.202 97.3958 202.241C102.818 209.28 96.2132 223.56 82.6857 234.104C74.1481 240.68 64.8895 244.272 57.8517 244.272ZM63.2454 208.874C56.7557 213.915 51.6793 219.969 48.9103 225.907C46.1702 231.787 46.0548 236.856 48.6219 240.158C53.9002 247.023 69.0717 244.127 82.455 233.728C95.8383 223.329 102.386 209.28 97.0785 202.444C91.7714 195.608 76.5998 198.475 63.2454 208.874Z" fill="white"/>
<g opacity="0.3">
<path opacity="0.3" d="M155.919 221.938C158.37 228.861 159.611 236.161 159.582 243.518C159.582 279.292 130.71 308.259 95.1171 308.259C61.8897 308.259 34.5463 283.029 31.0274 250.615C30.7678 253.019 30.6525 255.453 30.6525 257.886C30.6525 295.253 61.0244 325.581 98.4629 325.581C135.901 325.581 166.273 295.282 166.273 257.915C166.302 245.169 162.697 232.685 155.919 221.938Z" fill="#543753"/>
</g>
<path d="M141.641 71.1383C141.641 71.1383 136.651 74.3536 131.921 82.1456C127.191 89.9376 122.143 97.2661 122.143 97.2661C122.143 97.2661 120.297 81.4793 121.163 79.3938C122.028 77.3082 125.143 72.7025 125.864 71.1383C126.585 69.5741 130.018 67.3436 130.046 66.4457C130.075 65.5477 129.7 62.738 129.556 62.6511C129.412 62.5642 127.681 63.2014 127.422 64.1284C127.22 64.7946 127.076 65.3739 127.076 65.3739C127.076 65.3739 124.739 66.6774 124.335 66.7064C123.932 66.7353 122.028 65.7215 121.999 65.5477C121.97 65.3739 123.585 61.6083 124.076 61.4055C124.566 61.2027 127.277 63.3173 127.797 63.3173C128.316 63.3173 129.412 62.6221 129.469 62.2166C129.527 61.811 126.095 58.2771 125.806 58.2481C125.518 58.2192 122.576 57.6978 122.172 57.9874C121.768 58.2771 119.576 60.1889 119.576 60.1889C119.576 60.1889 119.576 53.6135 119.576 52.281C119.576 50.9486 119.288 46.8353 118.682 46.5456C118.076 46.3139 117.413 46.256 116.778 46.3429C116.49 46.4298 116.317 48.2547 116.317 48.2547C116.317 48.2547 114.788 48.0229 114.384 48.3416C113.981 48.6602 113.144 61.1158 113.144 61.2317C113.144 61.3476 110.981 58.7116 110.721 58.2192C110.462 57.7267 109.568 54.7142 109.164 54.5983C108.76 54.4825 107.606 54.3956 107.462 54.6852C107.318 54.9749 108.241 59.3199 108.299 59.8123C108.356 60.3048 111.096 66.156 111.241 67.054C111.385 67.9519 111.962 75.4833 112.135 77.0185C112.308 78.5537 110.375 96.5999 109.943 104.131C109.51 111.663 109.885 118.412 110.346 119.107C110.808 119.802 114.586 122.264 116.605 121.25C118.624 120.237 124.191 115.863 129.498 110.765C134.805 105.666 141.064 98.9752 141.064 98.9752L141.641 71.1383Z" fill="#FFEDE5"/>
<path d="M122.114 97.2372C122.114 97.2372 122.634 101.292 122.836 104.942C122.836 104.942 123.96 101.495 123.412 95.3254L122.114 97.2372Z" fill="#DE835C"/>
<path d="M112.827 64.9974C112.798 64.9974 112.769 64.9974 112.74 64.9684C112.683 64.9105 112.683 64.8236 112.74 64.7656C113.606 63.7808 118.538 60.6524 118.74 60.5075C118.798 60.4786 118.884 60.4786 118.942 60.5655C118.971 60.6234 118.971 60.7103 118.884 60.7682C118.826 60.7972 113.779 64.0125 112.942 64.9684C112.913 64.9974 112.856 64.9974 112.827 64.9974Z" fill="#472938"/>
<path d="M116.606 59.4359C116.577 59.4359 116.606 59.4359 116.606 59.4359C116.519 59.4359 116.461 59.378 116.461 59.2911C116.461 59.2042 116.807 51.499 116.721 50.1086C116.634 48.8051 116.231 48.4286 116.231 48.4286C116.173 48.3706 116.173 48.2837 116.202 48.2258C116.259 48.1679 116.346 48.1679 116.404 48.1968C116.461 48.2258 116.894 48.6603 116.98 50.0797C117.067 51.499 116.721 59.0014 116.721 59.32C116.721 59.378 116.663 59.4359 116.606 59.4359Z" fill="#472938"/>
<path d="M117.5 71.5149C117.471 71.4859 117.471 71.5149 117.5 71.5149C117.384 71.4859 117.355 71.428 117.355 71.3411C117.961 67.9231 121.74 65.5188 121.884 65.4319C121.941 65.403 122.028 65.403 122.086 65.4899C122.115 65.5478 122.115 65.6347 122.028 65.6926C121.999 65.7216 118.192 68.1258 117.615 71.428C117.615 71.457 117.557 71.5149 117.5 71.5149Z" fill="#472938"/>
<path d="M144.843 323.119C144.959 323.727 146.314 325.726 153.15 326.334C159.986 326.943 168.35 324.451 172.475 323.988C175.936 323.611 180.349 322.308 181.676 321.873C181.907 321.815 182.08 321.584 182.08 321.323C182.08 320.917 182.051 320.251 182.022 319.44C176.427 319.527 168.524 321.613 159.034 322.916C151.881 323.901 147.064 322.018 144.959 320.888C144.843 321.642 144.814 322.366 144.843 323.119Z" fill="#3B2645"/>
<path d="M181.157 306.115C178.647 306.347 177.609 308.433 176.398 309.128C175.186 309.823 171.61 310.113 171.927 305.565C172.244 301.017 168.754 299.656 168.754 299.656C167.802 299.685 165.235 304.783 160.88 310.287C156.525 315.79 146.083 318.687 145.622 318.861C145.362 318.948 145.16 319.904 145.016 320.888C147.122 321.989 151.939 323.901 159.092 322.916C168.552 321.613 176.484 319.527 182.08 319.44C181.993 316.457 181.82 311.358 181.532 309.186C181.359 308.346 181.272 307.245 181.157 306.115Z" fill="#AB8DA8"/>
<path d="M171.927 305.594C171.638 310.142 175.186 309.852 176.397 309.157C177.609 308.462 178.676 306.376 181.157 306.145C180.926 303.219 180.753 300.091 180.753 300.091L168.725 299.685C168.754 299.685 172.215 301.075 171.927 305.594Z" fill="#FFEDE5"/>
<path d="M158.717 316.833C164.37 316.312 171.927 306.579 171.927 306.579C171.898 306.26 171.898 305.913 171.927 305.594C172.215 301.046 168.754 299.685 168.754 299.685C167.802 299.714 165.235 304.812 160.88 310.316C159.207 312.459 156.582 314.197 154.015 315.53C155.342 316.572 157.015 317.036 158.717 316.833Z" fill="#3B2645"/>
<path d="M124.653 321.381C125.143 322.916 128.287 323.466 135.238 323.466C142.189 323.466 145.506 311.069 148.333 308.549C151.16 306.057 157.015 297.483 157.015 296.006C157.015 295.572 156.15 294.5 154.909 293.167C153.669 295.832 150.9 301.191 146.833 305.044C143.459 308.259 143.314 319.063 134.921 321.062C130.998 321.989 127.335 320.946 124.566 319.585C124.451 320.193 124.509 320.801 124.653 321.381Z" fill="#3B2645"/>
<path d="M146.314 284.854C143.343 288.04 144.295 291.922 144.151 293.486C144.007 295.05 138.671 295.456 137.834 295.108C136.998 294.761 136.104 293.457 134.431 293.486C133.421 293.515 132.498 294.007 131.95 294.847C131.517 300.38 130.739 306.955 130.393 309.562C129.816 313.878 127.335 314.979 126.095 315.848C125.23 316.428 124.653 318.137 124.537 319.614C127.306 320.975 130.969 322.018 134.892 321.091C143.314 319.121 143.43 308.288 146.804 305.073C150.871 301.22 153.64 295.89 154.88 293.196C151.881 289.952 146.689 285.288 146.314 284.854Z" fill="#AB8DA8"/>
<path d="M134.402 293.457C136.104 293.428 136.969 294.732 137.805 295.079C138.642 295.427 143.978 295.021 144.122 293.457C144.266 291.893 143.314 288.011 146.285 284.825C145.766 284.188 143.978 280.857 143.978 280.857L132.123 286.737C132.325 288.127 132.181 291.256 131.892 294.819C132.469 293.979 133.421 293.486 134.402 293.457Z" fill="#FFEDE5"/>
<path d="M133.133 312.923C137.344 311.387 137.805 295.079 137.805 295.079C136.969 294.732 136.075 293.428 134.402 293.457C133.392 293.486 132.469 293.979 131.921 294.819C131.489 300.351 130.71 306.927 130.364 309.534C130.22 310.866 129.758 312.141 129.037 313.27C130.421 313.502 131.835 313.357 133.133 312.923Z" fill="#3B2645"/>
<path d="M182.916 132.606C182.916 132.606 198.145 158.502 198.145 171.624C198.145 184.745 185.05 228.63 184.82 234.539C184.589 240.448 189.233 253.367 187.762 266.402C186.291 279.437 180.753 300.062 180.753 300.062C180.753 300.062 173.311 301.191 168.725 299.656C168.725 299.656 168.523 260.899 165.812 245.054C163.101 229.209 160.995 195.637 160.995 195.637C160.995 195.637 133.162 225.849 132.267 230.86C131.373 235.872 136.478 239.174 138.901 254.294C141.324 269.415 144.007 280.886 144.007 280.886C144.007 280.886 138.526 287.374 132.152 286.766C132.152 286.766 108.414 233.091 109.77 226.081C111.125 219.071 138.584 167.452 139.594 161.34C140.603 155.229 141.324 147.465 142.593 139.5L182.916 132.606Z" fill="#AB8DA8"/>
<path d="M164.053 150.014C173.686 148.392 181.33 142.599 185.973 138.138C184.185 134.778 182.916 132.634 182.916 132.634L142.564 139.499C142.276 141.295 142.016 143.091 141.786 144.858C145.506 147.697 153.063 151.868 164.053 150.014Z" fill="#3B2645"/>
<g opacity="0.5">
<path opacity="0.5" d="M161.024 195.637V183.471C161.024 183.471 157.39 176.229 157.044 170.175L157.88 188.019L149.977 207.977L161.024 195.637Z" fill="#543753"/>
</g>
<path d="M142.593 123.105C143.43 127.247 142.593 139.5 142.593 139.5C142.593 139.5 144.612 144.048 155.457 145.843C166.302 147.639 182.916 132.606 182.916 132.606C181.359 129.072 181.099 125.017 181.214 121.888C157.015 118.151 142.593 123.105 142.593 123.105Z" fill="#FFEDE5"/>
<path d="M181.849 129.361C181.301 126.899 181.099 124.408 181.214 121.888C178.301 121.425 175.532 121.106 172.907 120.874L173.571 126.725L181.849 129.361Z" fill="#DE835C"/>
<path d="M156.726 92.4291C172.013 91.0387 176.657 77.9747 178.042 70.6752L173.946 69.5165L153.986 67.4888L148.131 68.9951C145.045 79.6838 143.43 93.6167 156.726 92.4291Z" fill="#FFEDE5"/>
<path d="M189.521 73.8323L183.406 72.1522C179.541 105.58 186.81 104.682 186.81 104.682L188.829 99.3808L189.521 73.8323Z" fill="#FFEDE5"/>
<path d="M181.733 116.848C186.896 112.213 186.81 104.682 186.81 104.682C186.81 104.682 179.513 105.58 183.406 72.1524L178.042 70.6751C176.628 77.9747 171.984 91.0676 156.726 92.429C143.43 93.6167 145.045 79.6837 148.16 69.024L142.132 70.5882C142.132 70.5882 135.123 93.5587 134.921 101.872C134.777 107.202 137.949 114.415 140.286 118.905C155.948 112.213 181.733 116.848 181.733 116.848Z" fill="#AB8DA8"/>
<path d="M181.214 121.888C181.272 120.179 181.445 118.499 181.762 116.819C181.762 116.819 155.976 112.184 140.286 118.875C141.584 121.395 142.593 123.076 142.593 123.076C142.593 123.076 157.015 118.151 181.214 121.888Z" fill="#3B2645"/>
<path d="M183.406 72.1234C183.406 72.1234 186.233 87.9392 175.849 106.536L174.667 119.165L175.676 147.987C175.676 147.987 171.061 149.232 168.61 149.232C166.158 149.232 162.726 150.362 162.726 150.362L162.235 145.699L159.64 145.757C159.64 145.757 158.89 136.284 162.12 128.521C165.351 120.758 166.908 116.066 167.427 108.071C167.946 100.076 166.158 89.3585 172.071 73.0504L183.406 72.1234Z" fill="white"/>
<path d="M188.858 99.381L187.127 92.8056L186.839 104.653L188.858 99.381Z" fill="#DE835C"/>
<path d="M155.399 144.076C155.702 144.076 155.948 143.7 155.948 143.236C155.948 142.772 155.702 142.396 155.399 142.396C155.097 142.396 154.851 142.772 154.851 143.236C154.851 143.7 155.097 144.076 155.399 144.076Z" fill="#DE835C"/>
<path d="M154.967 58.3932C154.967 58.3932 155.082 70.3274 148.679 86.2011C142.276 102.075 141.757 107.665 143.257 123.076C144.756 138.486 141.064 150.797 141.064 150.797C141.064 150.797 123.989 154.36 117.211 145.119C117.211 145.119 125.576 125.769 129.325 102.654C133.075 79.5388 142.132 70.5302 142.132 70.5302C142.132 70.5302 143.862 65.5479 147.785 66.0693C147.785 66.1273 150.958 58.1904 154.967 58.3932Z" fill="white"/>
<path d="M133.623 135.473C133.536 135.473 133.479 135.415 133.479 135.328C132.325 113.777 138.555 94.1958 141.901 83.6809L142.132 82.9857C142.161 82.8988 142.247 82.8698 142.305 82.8988C142.391 82.9278 142.42 83.0147 142.391 83.0726L142.161 83.7678C138.815 94.2827 132.614 113.806 133.767 135.299C133.767 135.415 133.71 135.473 133.623 135.473Z" fill="#472938"/>
<path d="M143.632 78.6698H143.603C143.516 78.6408 143.487 78.5539 143.516 78.496C145.91 70.2405 147.641 66.1273 147.67 66.0983C147.698 66.0114 147.785 65.9824 147.872 66.0114C147.958 66.0404 147.987 66.1273 147.958 66.2142C147.929 66.2431 146.199 70.3564 143.833 78.5829C143.747 78.6119 143.689 78.6698 143.632 78.6698Z" fill="#472938"/>
<path d="M133.133 96.4843H133.104C133.017 96.4553 132.988 96.3974 132.988 96.3105C135.498 86.5488 141.93 70.704 141.988 70.5302C142.016 70.4433 142.103 70.4144 142.189 70.4433C142.276 70.4723 142.305 70.5592 142.276 70.6461C142.218 70.7909 135.786 86.6357 133.277 96.3684C133.277 96.4264 133.219 96.4843 133.133 96.4843Z" fill="#472938"/>
<path d="M162.264 145.872C162.178 145.872 162.12 145.815 162.12 145.728C162.12 145.641 162.062 135.966 163.937 131.476C163.966 131.389 164.053 131.36 164.139 131.389C164.226 131.418 164.254 131.505 164.226 131.592C162.38 136.024 162.437 145.641 162.437 145.728C162.408 145.815 162.351 145.872 162.264 145.872Z" fill="#472938"/>
<path d="M165.264 144.221C165.177 144.221 165.12 144.163 165.12 144.076C165.12 143.989 164.802 135.908 166.533 129.825C168.264 123.8 168.725 113.517 168.725 113.43C168.725 113.343 168.783 113.285 168.869 113.285C168.956 113.285 169.014 113.343 169.014 113.43C169.014 113.545 168.552 123.829 166.822 129.912C165.091 135.937 165.408 143.989 165.408 144.047C165.408 144.134 165.351 144.221 165.264 144.221Z" fill="#472938"/>
<path d="M171.148 131.244C171.119 131.244 171.119 131.244 171.148 131.244C171.033 131.215 171.004 131.157 171.004 131.07C172.129 125.161 171.234 112.995 171.234 112.85C171.234 112.763 171.292 112.705 171.379 112.705C171.465 112.705 171.523 112.763 171.523 112.85C171.523 112.966 172.417 125.19 171.292 131.128C171.263 131.186 171.206 131.244 171.148 131.244Z" fill="#472938"/>
<path d="M173.282 107.897C173.167 107.868 173.138 107.81 173.138 107.723C173.167 107.607 174.955 96.5422 176.686 91.4441C176.715 91.3572 176.801 91.3282 176.859 91.3572C176.945 91.3861 176.974 91.473 176.945 91.531C175.244 96.6001 173.426 107.636 173.426 107.752C173.426 107.839 173.369 107.897 173.282 107.897Z" fill="#472938"/>
<path d="M171.148 106.681C171.09 106.681 171.033 106.623 171.004 106.565C171.004 106.507 170.052 101.611 171.292 92.7766C171.292 92.6897 171.379 92.6318 171.465 92.6607C171.552 92.6607 171.61 92.7476 171.581 92.8345C170.369 101.64 171.292 106.478 171.292 106.536C171.292 106.594 171.235 106.681 171.148 106.681Z" fill="#472938"/>
<path d="M173.773 49.1817L173.946 69.5163H153.784L155.717 51.3832L173.773 49.1817Z" fill="#FFEDE5"/>
<path d="M155.717 51.3832C155.717 51.3832 158.659 70.646 173.859 59.349L173.773 49.1817L155.717 51.3832Z" fill="#DE835C"/>
<path d="M152.474 48.2953C153.777 47.923 154.231 45.5007 153.49 42.885C152.748 40.2692 151.092 38.4506 149.789 38.8229C148.487 39.1952 148.032 41.6175 148.774 44.2333C149.515 46.849 151.172 48.6677 152.474 48.2953Z" fill="#DE835C"/>
<path d="M173.801 51.0935C173.801 51.0935 173.744 56.0468 173.513 59.349C173.513 59.349 171.148 66.8514 172.215 73.8323C173.282 80.8132 172.936 85.9693 171.263 88.4604L173.138 87.5625C173.138 87.5625 182.743 87.6783 182.628 73.6295C182.628 73.6295 187.473 65.7506 180.205 56.5103C172.936 47.2699 177.032 42.2298 177.032 42.2298C177.032 42.2298 174.032 43.736 173.801 51.0935Z" fill="#3B2645"/>
<path d="M176.974 42.2007C176.974 42.2007 174.032 43.7359 173.773 51.0934C173.773 51.0934 173.715 56.0467 173.484 59.3489C174.638 56.2785 175.619 53.1501 176.426 49.9637C174.782 44.8946 176.974 42.2007 176.974 42.2007Z" fill="#3B2645"/>
<path d="M178.183 43.8007C178.966 41.1972 178.549 38.7681 177.253 38.3751C175.957 37.9821 174.272 39.7741 173.489 42.3776C172.706 44.9811 173.123 47.4102 174.419 47.8032C175.715 48.1962 177.4 46.4042 178.183 43.8007Z" fill="#FFEDE5"/>
<path d="M150.814 29.3396C150.814 29.3396 150.294 44.4022 152.285 50.7169C154.275 57.0316 159.236 61.029 162.495 61.029C165.754 61.029 172.1 58.6538 174.58 48.5154C177.061 38.3771 176.772 25.6608 166.129 22.3296C155.486 18.9985 150.814 25.9794 150.814 29.3396Z" fill="#FFEDE5"/>
<path d="M175.792 40.2311C175.792 40.2311 175.215 36.1468 173.023 33.9164C170.831 31.6859 166.331 30.1797 167.168 26.6168C167.168 26.6168 164.283 28.3258 159.091 28.3258C153.9 28.3258 150.323 32.3811 150.842 39.2752L150.179 38.8117C150.179 38.8117 147.698 29.021 150.727 24.2705C153.784 19.52 160.995 16.5074 166.821 18.1585C172.648 19.8096 179.195 23.7201 178.618 31.3673C178.445 33.8005 178.099 36.2047 177.58 38.58C177.58 38.551 175.907 38.8117 175.792 40.2311Z" fill="#3B2645"/>
<path d="M155.457 41.4187C154.996 41.4187 154.621 41.0711 154.592 40.6077L154.563 40.0863C154.563 39.6228 154.909 39.2462 155.371 39.2173C155.832 39.2173 156.207 39.5649 156.236 40.0283L156.265 40.5497C156.265 41.0132 155.919 41.4187 155.457 41.4187Z" fill="#472938"/>
<path d="M168.35 41.8533C167.889 41.7954 167.572 41.3609 167.658 40.8974L167.745 40.376C167.802 39.9125 168.235 39.5939 168.696 39.6808C169.158 39.7387 169.475 40.1732 169.389 40.6367L169.302 41.1581C169.216 41.6216 168.783 41.9112 168.35 41.8533Z" fill="#472938"/>
<path d="M152.458 37.8848C152.458 37.8848 153.236 37.0158 155.054 36.9868C156.871 36.9579 157.448 37.1317 157.563 36.5523C157.678 35.973 153.784 34.4957 152.458 37.8848Z" fill="#472938"/>
<path d="M171.408 37.6241C171.408 37.6241 170.542 36.813 168.581 36.8999C166.62 36.9868 166.043 37.1896 165.898 36.6392C165.754 36.0889 169.879 34.3219 171.408 37.6241Z" fill="#472938"/>
<path d="M166.274 50.4273L158.659 50.1666C158.659 50.1666 159.063 55.4096 162.466 55.3227C165.87 55.2358 166.274 50.4273 166.274 50.4273Z" fill="white"/>
<path d="M162.005 48.139C161.514 48.139 161.053 48.0231 160.678 47.8493C160.361 47.6755 160.188 47.4438 160.101 47.1831C159.928 46.5169 160.274 44.8947 160.678 42.8671L160.822 42.2298C161.486 38.9566 159.697 38.0586 159.611 38.0297C159.524 38.0007 159.495 37.8848 159.524 37.7979C159.553 37.711 159.668 37.6821 159.755 37.711C159.841 37.74 161.86 38.7538 161.139 42.2877L160.995 42.925C160.591 44.8368 160.274 46.5169 160.418 47.0962C160.476 47.27 160.591 47.4148 160.822 47.5597C161.37 47.8493 162.235 47.9073 163.043 47.6466C163.13 47.6176 163.245 47.6755 163.274 47.7624C163.303 47.8493 163.245 47.9652 163.158 47.9942C162.783 48.0811 162.38 48.139 162.005 48.139Z" fill="#472938"/>
<path d="M189.521 73.8324C189.521 73.8324 195.549 74.1221 198.549 82.7541C201.549 91.3572 211.038 116.384 211.413 120.99C211.788 125.596 210.375 129.303 203.827 130.665C198.261 131.824 183.493 127.508 182.281 127.392C181.07 127.276 177.638 127.189 176.484 125.19C175.33 123.192 174.696 119.802 174.696 119.802C174.696 119.802 171.667 118.644 171.148 118.644C170.629 118.644 166.966 118.875 166.62 118.325C166.273 117.775 166.273 116.732 166.389 116.24C166.389 116.24 165.754 115.081 165.956 114.386C165.956 114.386 165.293 112.706 165.351 112.329C165.408 111.952 167.196 110.852 167.571 110.765C167.946 110.678 172.273 110.504 172.273 110.504C172.273 110.504 170.975 108.911 170.744 108.853C170.513 108.795 167.427 108.911 167.427 108.911L167.37 109.693C167.37 109.693 166.533 108.969 166.389 108.563C166.245 108.158 166.504 106.97 166.85 106.825C167.196 106.681 171.292 105.319 172.532 105.754C173.773 106.188 177.724 108.621 178.243 109.432C178.763 110.243 181.676 118.383 182.599 118.991C183.522 119.6 188.252 120.266 195.809 118.644L185.05 91.3282L189.521 73.8324Z" fill="#FFEDE5"/>
</svg>
