<svg width="66" height="53" viewBox="0 0 66 53" fill="none" xmlns="http://www.w3.org/2000/svg">
<path d="M28.3611 0.792235L24.9567 4.18338L61.4521 40.5361L64.8565 37.145L28.3611 0.792235Z" fill="#858585"/>
<path d="M41.8043 13.7042L37.9414 17.5519L48.5581 28.1271L52.421 24.2794L41.8043 13.7042Z" fill="#2C3E50"/>
<path d="M61.4326 19.4119L43.6525 37.1225L46.5496 40.0083L64.3297 22.2977L61.4326 19.4119Z" fill="#383838"/>
<path d="M61.4416 19.407L43.6615 37.1176L45.1101 38.5605L62.8902 20.8499L61.4416 19.407Z" fill="#1F1F1F"/>
<path d="M63.1693 23.4584L47.724 38.8433L50.2422 41.3517L65.6875 25.9667L63.1693 23.4584Z" fill="#383838"/>
<path d="M63.1632 23.4613L47.7179 38.8463L49.0381 40.1613L64.4834 24.7764L63.1632 23.4613Z" fill="#1F1F1F"/>
<path d="M64.0204 27.621L51.9001 39.694L53.8743 41.6605L65.9946 29.5875L64.0204 27.621Z" fill="#383838"/>
<path d="M64.0262 27.6235L51.9059 39.6964L52.8961 40.6827L65.0164 28.6098L64.0262 27.6235Z" fill="#1F1F1F"/>
<path d="M62.7399 32.8308L57.0984 38.4502L58.932 40.2767L64.5735 34.6573L62.7399 32.8308Z" fill="#2B2B2B"/>
<path d="M62.3196 35.6374L62.9593 36.2746L64.3163 34.9228L63.6767 34.2856C63.5891 34.1974 63.4848 34.1273 63.3698 34.0795C63.2548 34.0317 63.1314 34.0071 63.0068 34.0071C62.8822 34.0071 62.7588 34.0317 62.6438 34.0795C62.5289 34.1273 62.4245 34.1974 62.3369 34.2856C62.2445 34.372 62.1706 34.4761 62.1196 34.5916C62.0685 34.7071 62.0413 34.8317 62.0397 34.9579C62.0381 35.0841 62.0621 35.2093 62.1102 35.326C62.1583 35.4428 62.2295 35.5487 62.3196 35.6374Z" fill="#0F0F0F"/>
<path d="M58.5165 39.4262L59.1475 40.0633L60.5046 38.746L59.8649 38.1174C59.7773 38.0292 59.673 37.9591 59.558 37.9113C59.443 37.8635 59.3196 37.8389 59.195 37.8389C59.0704 37.8389 58.9471 37.8635 58.8321 37.9113C58.7171 37.9591 58.6128 38.0292 58.5251 38.1174C58.3529 38.2915 58.2556 38.5256 58.254 38.77C58.2524 39.0144 58.3466 39.2498 58.5165 39.4262Z" fill="#0F0F0F"/>
<path d="M60.4355 37.5145L61.0751 38.1516L62.4322 36.7999L61.7926 36.1627C61.7049 36.0745 61.6006 36.0044 61.4856 35.9566C61.3706 35.9088 61.2473 35.8842 61.1227 35.8842C60.998 35.8842 60.8747 35.9088 60.7597 35.9566C60.6447 36.0044 60.5404 36.0745 60.4528 36.1627C60.3604 36.2491 60.2865 36.3532 60.2354 36.4687C60.1843 36.5842 60.1572 36.7087 60.1556 36.8349C60.154 36.9611 60.1779 37.0864 60.226 37.2031C60.2741 37.3199 60.3453 37.4258 60.4355 37.5145Z" fill="#0F0F0F"/>
<path d="M43.6202 1.65829L25.84 19.3689L28.7372 22.2547L46.5173 4.54411L43.6202 1.65829Z" fill="#383838"/>
<path d="M45.0658 3.0998L27.2857 20.8104L28.7343 22.2533L46.5144 4.5427L45.0658 3.0998Z" fill="#1F1F1F"/>
<path d="M39.9337 0.308463L24.4884 15.6934L27.0066 18.2017L42.4519 2.81681L39.9337 0.308463Z" fill="#383838"/>
<path d="M41.1315 1.50532L25.6862 16.8902L27.0064 18.2053L42.4517 2.82038L41.1315 1.50532Z" fill="#1F1F1F"/>
<path d="M36.2928 0.000104667L24.1725 12.073L26.1467 14.0395L38.267 1.9666L36.2928 0.000104667Z" fill="#383838"/>
<path d="M37.286 0.984057L25.1657 13.057L26.1558 14.0433L38.2762 1.97035L37.286 0.984057Z" fill="#1F1F1F"/>
<path d="M31.2007 1.42742L25.5593 7.04684L27.3929 8.87331L33.0344 3.25388L31.2007 1.42742Z" fill="#2B2B2B"/>
<path d="M30.2512 3.66864L29.6115 3.03149L30.9427 1.72277L31.5823 2.35991C31.7571 2.53841 31.8549 2.77786 31.8549 3.02719C31.8549 3.27652 31.7571 3.51597 31.5823 3.69447C31.4002 3.86256 31.1598 3.95378 30.9115 3.94896C30.6633 3.94415 30.4266 3.84367 30.2512 3.66864Z" fill="#0F0F0F"/>
<path d="M26.4133 7.45705L25.7736 6.8199L27.1307 5.46813L27.7704 6.10527C27.859 6.19255 27.9293 6.29646 27.9773 6.411C28.0253 6.52554 28.05 6.64843 28.05 6.77255C28.05 6.89667 28.0253 7.01955 27.9773 7.13409C27.9293 7.24863 27.859 7.35255 27.7704 7.43983C27.6836 7.53183 27.5792 7.60547 27.4632 7.65634C27.3473 7.7072 27.2222 7.73424 27.0955 7.73585C26.9688 7.73746 26.8431 7.7136 26.7259 7.66569C26.6086 7.61779 26.5023 7.54682 26.4133 7.45705Z" fill="#0F0F0F"/>
<path d="M28.3409 5.5453L27.7012 4.90816L29.0583 3.55638L29.698 4.19352C29.8727 4.37202 29.9706 4.61148 29.9706 4.8608C29.9706 5.11013 29.8727 5.34959 29.698 5.52808C29.61 5.618 29.5051 5.68977 29.3893 5.7393C29.2735 5.78883 29.149 5.81514 29.023 5.81674C28.897 5.81834 28.7719 5.79519 28.6548 5.74862C28.5378 5.70204 28.4311 5.63296 28.3409 5.5453Z" fill="#0F0F0F"/>
<path d="M4.18843 12.1318L0.783986 15.523L37.2794 51.8757L40.6838 48.4846L4.18843 12.1318Z" fill="#858585"/>
<path d="M17.6291 25.0379L13.7663 28.8857L24.383 39.4609L28.2459 35.6131L17.6291 25.0379Z" fill="#2C3E50"/>
<path d="M37.2575 30.7456L19.4773 48.4562L22.3745 51.3421L40.1546 33.6314L37.2575 30.7456Z" fill="#383838"/>
<path d="M37.2604 30.7471L19.4803 48.4577L20.9288 49.9006L38.709 32.19L37.2604 30.7471Z" fill="#1F1F1F"/>
<path d="M38.9966 34.7985L23.5513 50.1834L26.0695 52.6918L41.5148 37.3068L38.9966 34.7985Z" fill="#383838"/>
<path d="M38.9942 34.8009L23.5489 50.1859L24.8691 51.5009L40.3144 36.116L38.9942 34.8009Z" fill="#1F1F1F"/>
<path d="M39.8479 38.9606L27.7276 51.0336L29.7018 53.0001L41.8221 40.9271L39.8479 38.9606Z" fill="#383838"/>
<path d="M39.8535 38.9631L27.7332 51.036L28.7234 52.0223L40.8437 39.9494L39.8535 38.9631Z" fill="#1F1F1F"/>
<path d="M38.5647 44.1851L32.9233 49.8045L34.7569 51.6309L40.3984 46.0115L38.5647 44.1851Z" fill="#2B2B2B"/>
<path d="M38.143 46.9772L38.7826 47.6143L40.1397 46.2626L39.5 45.634C39.4124 45.5458 39.3081 45.4757 39.1931 45.4279C39.0781 45.3801 38.9547 45.3555 38.8301 45.3555C38.7055 45.3555 38.5822 45.3801 38.4672 45.4279C38.3522 45.4757 38.2479 45.5458 38.1602 45.634C38.0692 45.7203 37.9964 45.8238 37.9461 45.9385C37.8958 46.0533 37.8691 46.1768 37.8675 46.302C37.8659 46.4271 37.8894 46.5513 37.9367 46.6673C37.984 46.7833 38.0542 46.8886 38.143 46.9772Z" fill="#0F0F0F"/>
<path d="M34.3397 50.7997L34.9793 51.4282L36.3018 50.0506L35.6708 49.4221C35.5825 49.3336 35.4774 49.2634 35.3617 49.2154C35.246 49.1675 35.1219 49.1428 34.9966 49.1428C34.8713 49.1428 34.7472 49.1675 34.6315 49.2154C34.5158 49.2634 34.4108 49.3336 34.3224 49.4221C34.2293 49.5118 34.1556 49.6195 34.1058 49.7386C34.056 49.8577 34.0312 49.9856 34.0328 50.1146C34.0344 50.2436 34.0625 50.3709 34.1152 50.4887C34.168 50.6065 34.2444 50.7124 34.3397 50.7997Z" fill="#0F0F0F"/>
<path d="M36.3018 48.8541L36.9415 49.4912L38.2986 48.1395L37.6589 47.5023C37.5713 47.4141 37.467 47.344 37.352 47.2962C37.237 47.2484 37.1136 47.2237 36.989 47.2237C36.8644 47.2237 36.741 47.2484 36.6261 47.2962C36.5111 47.344 36.4067 47.4141 36.3191 47.5023C36.2267 47.5887 36.1528 47.6928 36.1018 47.8083C36.0507 47.9238 36.0235 48.0483 36.0219 48.1745C36.0203 48.3007 36.0443 48.426 36.0924 48.5427C36.1405 48.6595 36.2117 48.7654 36.3018 48.8541Z" fill="#0F0F0F"/>
<path d="M19.4389 13.0067L1.6588 30.7173L4.55594 33.6031L22.3361 15.8925L19.4389 13.0067Z" fill="#383838"/>
<path d="M20.8931 14.4394L3.11299 32.15L4.56156 33.5929L22.3417 15.8823L20.8931 14.4394Z" fill="#1F1F1F"/>
<path d="M15.7524 11.6485L0.307149 27.0335L2.82534 29.5418L18.2706 14.1569L15.7524 11.6485Z" fill="#383838"/>
<path d="M16.9503 12.8537L1.50498 28.2386L2.8252 29.5537L18.2705 14.1688L16.9503 12.8537Z" fill="#1F1F1F"/>
<path d="M12.1203 11.3397L0 23.4126L1.97421 25.3791L14.0945 13.3062L12.1203 11.3397Z" fill="#383838"/>
<path d="M13.1047 12.3237L0.984438 24.3966L1.9746 25.3829L14.0949 13.3099L13.1047 12.3237Z" fill="#1F1F1F"/>
<path d="M7.02804 12.767L1.38656 18.3864L3.2202 20.2129L8.86167 14.5935L7.02804 12.767Z" fill="#2B2B2B"/>
<path d="M6.04844 15.0078L5.4088 14.3707L6.76588 13.0189L7.40552 13.656C7.49411 13.7433 7.56445 13.8472 7.61245 13.9618C7.66046 14.0763 7.68517 14.1992 7.68517 14.3233C7.68517 14.4474 7.66046 14.5703 7.61245 14.6849C7.56445 14.7994 7.49411 14.9033 7.40552 14.9906C7.31879 15.0826 7.21433 15.1563 7.09837 15.2071C6.98241 15.258 6.85735 15.285 6.73065 15.2866C6.60396 15.2882 6.47825 15.2644 6.36103 15.2165C6.24381 15.1686 6.13749 15.0976 6.04844 15.0078Z" fill="#0F0F0F"/>
<path d="M2.23657 18.7963L1.60557 18.1678L2.96265 16.816L3.59365 17.4446C3.68251 17.5326 3.75303 17.6372 3.80114 17.7525C3.84926 17.8677 3.87403 17.9913 3.87403 18.1161C3.87403 18.241 3.84926 18.3646 3.80114 18.4798C3.75303 18.5951 3.68251 18.6997 3.59365 18.7877C3.50572 18.8781 3.40058 18.9501 3.28439 18.9996C3.1682 19.049 3.04327 19.0749 2.91693 19.0757C2.79058 19.0765 2.66533 19.0522 2.54852 19.0042C2.4317 18.9563 2.32565 18.8856 2.23657 18.7963Z" fill="#0F0F0F"/>
<path d="M4.16404 16.8849L3.5244 16.2478L4.88148 14.896L5.52112 15.5331C5.60972 15.6204 5.68005 15.7243 5.72805 15.8389C5.77606 15.9534 5.80077 16.0763 5.80077 16.2004C5.80077 16.3245 5.77606 16.4474 5.72805 16.5619C5.68005 16.6765 5.60972 16.7804 5.52112 16.8677C5.43439 16.9597 5.32993 17.0333 5.21397 17.0842C5.09801 17.1351 4.97295 17.1621 4.84626 17.1637C4.71956 17.1653 4.59385 17.1415 4.47663 17.0935C4.35941 17.0456 4.25309 16.9747 4.16404 16.8849Z" fill="#0F0F0F"/>
</svg>
