<svg width="116" height="81" viewBox="0 0 116 81" fill="none" xmlns="http://www.w3.org/2000/svg">
<path fill-rule="evenodd" clip-rule="evenodd" d="M116 59.5252C116 70.8392 90.0465 80.0119 58.003 80.0119C25.9595 80.0119 0 70.8392 0 59.5252C0 48.2113 25.9535 39.0386 58.003 39.0386C90.0526 39.0386 116 48.2113 116 59.5252Z" fill="#E2CAB3"/>
<path fill-rule="evenodd" clip-rule="evenodd" d="M116 57.2655C116 68.5794 90.0465 77.7521 58.003 77.7521C25.9595 77.7521 0 68.5794 0 57.2655C0 45.9515 25.9535 36.7788 58.003 36.7788C90.0526 36.7788 116 45.9515 116 57.2655Z" fill="white"/>
<path fill-rule="evenodd" clip-rule="evenodd" d="M116 56.9413C116 67.9013 90.0465 76.785 58.003 76.785C25.9595 76.785 0 67.9013 0 56.9413C0 45.9813 25.9535 37.1035 58.003 37.1035C90.0526 37.1035 116 45.9872 116 56.9413Z" fill="#E7D8C8"/>
<path fill-rule="evenodd" clip-rule="evenodd" d="M113.428 56.9419C113.428 64.7637 91.2169 71.0991 63.8209 71.0991C36.4249 71.0991 14.2075 64.7637 14.2075 56.9419C14.2075 49.12 36.4189 42.7847 63.8209 42.7847C91.223 42.7847 113.428 49.1259 113.428 56.9419Z" fill="#E2CAB3"/>
<path d="M109.246 57.4491C108.19 52.6121 103.047 50.5652 98.9853 50.2407C96.4805 50.0461 93.9757 50.5652 91.4769 50.7008C90.0886 50.7786 88.6957 50.7232 87.3184 50.5357C85.7974 50.3292 84.3428 49.7924 82.8097 49.6685C80.1479 49.4562 77.5104 50.3587 75.0297 51.3025C72.1144 52.4174 69.1992 53.432 66.2115 54.2932C60.3182 56.0479 54.2466 57.1694 48.1045 57.6379C45.6061 57.8601 43.0917 57.8463 40.5961 57.5966C38.8457 57.3842 37.1195 57.0067 35.3691 56.8061C32.303 56.4699 28.9049 56.8651 27.6676 60.3867C26.74 60.3837 25.8251 60.5981 24.9998 61.012C23.7504 61.537 22.0786 62.469 21.4327 63.8198C20.0868 66.6454 24.4506 67.7544 26.0681 68.0552C27.6072 68.3383 29.1584 68.4386 30.7036 68.5979C32.8523 68.822 34.5785 69.8189 36.3952 71.0341C40.9763 74.0956 47.0905 74.2962 52.3053 73.9422C55.1818 73.7314 58.0257 73.2111 60.7854 72.3908C63.7007 71.5414 66.7004 72.0546 69.6458 72.5442C72.1759 73.0665 74.8033 72.9116 77.2508 72.0959C79.7134 71.2406 81.85 69.6774 83.9565 68.1083C86.413 66.2796 89.2075 66.1676 92.0986 65.9375C94.9486 65.7646 97.7768 65.3402 100.549 64.6693C102.875 64.0945 105.141 63.3044 107.315 62.3097C109.162 61.36 109.681 59.5904 109.246 57.4491Z" fill="#EEBE30"/>
<path d="M92.7809 53.2431C92.7809 60.8644 76.225 67.9489 56.2891 67.9489C36.3532 67.9489 19.6646 60.3394 19.6646 52.7181C19.6646 45.0968 36.3532 40.3306 56.2891 40.3306C76.225 40.3306 92.7809 45.6218 92.7809 53.2431Z" fill="#E3AC8A"/>
<path d="M92.3826 51.7735C92.3826 59.3948 76.2251 65.5709 56.2892 65.5709C36.3533 65.5709 20.1897 59.3948 20.1897 51.7735C20.1897 44.1522 36.3533 37.9702 56.2892 37.9702C76.2251 37.9702 92.3826 44.1522 92.3826 51.7735Z" fill="#DA840D"/>
<path d="M82.5445 50.4645C82.5445 56.1214 70.5576 60.6989 55.7641 60.6989C40.9706 60.6989 28.9717 56.1214 28.9717 50.4645C28.9717 44.8075 40.9767 40.23 55.7641 40.23C70.5516 40.23 82.5445 44.8429 82.5445 50.4645Z" fill="#F0A508"/>
<path d="M37.7412 54.2393C37.7412 54.8292 37.0591 55.3424 36.2141 55.3424C35.3691 55.3424 34.6931 54.8469 34.6931 54.2393C34.6931 53.6317 35.3752 53.1362 36.2141 53.1362C37.0531 53.1362 37.7412 53.6317 37.7412 54.2393Z" fill="#DA840D"/>
<path d="M34.6934 49.5976C34.6852 49.7601 34.6283 49.9167 34.5299 50.0479C34.4315 50.1792 34.2959 50.2793 34.1399 50.336C33.9838 50.3927 33.8142 50.4034 33.652 50.3668C33.4898 50.3302 33.3421 50.2479 33.2273 50.1301C33.1125 50.0123 33.0355 49.8641 33.006 49.704C32.9764 49.5439 32.9955 49.3788 33.061 49.2292C33.1265 49.0797 33.2354 48.9521 33.3743 48.8624C33.5132 48.7727 33.6759 48.7248 33.8424 48.7246C33.9571 48.7269 34.0701 48.7513 34.1751 48.7965C34.28 48.8417 34.3748 48.9068 34.4539 48.9879C34.533 49.0691 34.5949 49.1648 34.636 49.2694C34.6771 49.374 34.6966 49.4856 34.6934 49.5976Z" fill="#DA840D"/>
<path d="M45.2676 55.5781C45.2869 55.8649 45.2176 56.1507 45.0687 56.3985C44.9198 56.6463 44.698 56.8447 44.4323 56.9678C44.1666 57.0909 43.8692 57.1331 43.5786 57.0889C43.288 57.0447 43.0178 56.9162 42.8029 56.72C42.588 56.5238 42.4384 56.269 42.3735 55.9887C42.3087 55.7084 42.3315 55.4155 42.4391 55.148C42.5467 54.8806 42.7341 54.6509 42.9769 54.4888C43.2198 54.3267 43.5068 54.2397 43.8009 54.2391C43.9872 54.2328 44.1729 54.2625 44.3475 54.3264C44.522 54.3903 44.682 54.4872 44.8182 54.6115C44.9544 54.7359 45.0642 54.8853 45.1413 55.0511C45.2184 55.217 45.2613 55.3961 45.2676 55.5781Z" fill="#DA840D"/>
<path d="M42.0807 50.2647C42.0807 50.6304 41.6643 50.9313 41.1573 50.9313C40.6503 50.9313 40.2278 50.6304 40.2278 50.2647C40.2278 49.899 40.6442 49.5981 41.1573 49.5981C41.6703 49.5981 42.0807 49.8931 42.0807 50.2647Z" fill="#DA840D"/>
<path d="M51.4118 53.4265C51.4338 53.6117 51.3977 53.7992 51.3082 53.964C51.2188 54.1287 51.0802 54.263 50.9109 54.3491C50.7415 54.4351 50.5494 54.4689 50.36 54.4458C50.1707 54.4227 49.9929 54.344 49.8504 54.2199C49.7078 54.0959 49.6072 53.9325 49.5619 53.7513C49.5165 53.5701 49.5286 53.3797 49.5965 53.2054C49.6643 53.031 49.7848 52.881 49.9419 52.7751C50.099 52.6692 50.2854 52.6124 50.4762 52.6124C50.7102 52.6011 50.9394 52.68 51.1144 52.8323C51.2894 52.9846 51.3962 53.198 51.4118 53.4265Z" fill="#DA840D"/>
<path d="M51.7685 58.3405C51.7685 58.718 51.3219 59.0248 50.7666 59.0248C50.2113 59.0248 49.7646 58.718 49.7646 58.3405C49.7646 57.963 50.2173 57.6562 50.7666 57.6562C51.3158 57.6562 51.7685 57.963 51.7685 58.3405Z" fill="#DA840D"/>
<path d="M47.7723 51.019C47.7616 51.1561 47.71 51.2871 47.6238 51.3957C47.5376 51.5044 47.4206 51.5859 47.2875 51.6302C47.1543 51.6744 47.0107 51.6795 46.8746 51.6448C46.7385 51.61 46.6159 51.537 46.5219 51.4348C46.4279 51.3325 46.3666 51.2055 46.3458 51.0695C46.325 50.9336 46.3455 50.7946 46.4047 50.67C46.464 50.5453 46.5594 50.4403 46.6791 50.3682C46.7988 50.296 46.9376 50.2598 47.0782 50.264C47.2714 50.2776 47.4516 50.3639 47.5811 50.5047C47.7105 50.6455 47.7791 50.8299 47.7723 51.019Z" fill="#DA840D"/>
<path d="M58.1657 52.4528C58.1657 52.8303 57.7311 53.137 57.1939 53.137C56.6567 53.137 56.2222 52.8303 56.2222 52.4528C56.2222 52.0753 56.6567 51.7744 57.1939 51.7744C57.7311 51.7744 58.1657 52.0753 58.1657 52.4528Z" fill="#DA840D"/>
<path d="M58.1657 55.9847C58.1657 56.2088 57.7311 56.3917 57.1939 56.3917C56.6567 56.3917 56.2222 56.2088 56.2222 55.9847C56.2222 55.7605 56.6567 55.5776 57.1939 55.5776C57.7311 55.5776 58.1657 55.7605 58.1657 55.9847Z" fill="#DA840D"/>
<path d="M64.7389 53.6907C64.7389 53.9916 64.3465 54.2393 63.8576 54.2393C63.3687 54.2393 62.9824 53.9916 62.9824 53.6907C62.9824 53.3899 63.3748 53.1362 63.8576 53.1362C64.3405 53.1362 64.7389 53.384 64.7389 53.6907Z" fill="#DA840D"/>
<path d="M63.6882 57.6324C63.7295 57.8162 63.7113 58.0079 63.6363 58.1812C63.5613 58.3544 63.433 58.5007 63.2693 58.5996C63.1056 58.6986 62.9145 58.7455 62.7224 58.7337C62.5302 58.722 62.3466 58.6522 62.1967 58.5341C62.0469 58.416 61.9383 58.2553 61.8859 58.0743C61.8335 57.8933 61.8399 57.7008 61.9043 57.5235C61.9686 57.3461 62.0877 57.1927 62.2451 57.0844C62.4025 56.976 62.5904 56.9181 62.7829 56.9186C62.9992 56.8987 63.215 56.9621 63.3842 57.0955C63.5533 57.2288 63.6624 57.4215 63.6882 57.6324Z" fill="#DA840D"/>
<path d="M71.0039 56.4876C70.9662 56.6635 70.8783 56.8253 70.7503 56.9542C70.6223 57.0832 70.4596 57.174 70.2809 57.2162C70.1022 57.2583 69.915 57.2501 69.7409 57.1925C69.5668 57.1348 69.413 57.0301 69.2974 56.8904C69.1818 56.7508 69.1091 56.582 69.0877 56.4035C69.0663 56.2251 69.0971 56.0444 69.1765 55.8824C69.256 55.7204 69.3808 55.5838 69.5365 55.4884C69.6923 55.3929 69.8725 55.3426 70.0563 55.3433C70.3362 55.3745 70.5924 55.5119 70.7697 55.726C70.9469 55.94 71.031 56.2136 71.0039 56.4876Z" fill="#DA840D"/>
<path d="M70.4789 51.3324C70.4789 51.5683 70.1711 51.7571 69.7909 51.7571C69.4106 51.7571 69.1089 51.5683 69.1089 51.3324C69.1089 51.0964 69.4167 50.9136 69.7909 50.9136C70.1651 50.9136 70.4789 51.12 70.4789 51.3324Z" fill="#DA840D"/>
<path d="M76.2729 52.5882C76.2729 53.5026 75.8564 54.2399 75.3494 54.2399C74.8424 54.2399 74.4199 53.5026 74.4199 52.5882C74.4199 51.6739 74.8364 50.9307 75.3494 50.9307C75.8624 50.9307 76.2729 51.6739 76.2729 52.5882Z" fill="#DA840D"/>
<path d="M78.5973 50.9073C78.5973 51.0246 78.5496 51.1371 78.4647 51.2201C78.3798 51.3031 78.2646 51.3497 78.1446 51.3497C78.0245 51.3497 77.9094 51.3031 77.8245 51.2201C77.7396 51.1371 77.6919 51.0246 77.6919 50.9073C77.6919 50.7899 77.7396 50.6774 77.8245 50.5944C77.9094 50.5115 78.0245 50.4648 78.1446 50.4648C78.2641 50.4664 78.3784 50.5135 78.4629 50.5961C78.5475 50.6788 78.5957 50.7904 78.5973 50.9073Z" fill="#DA840D"/>
<path d="M63.3747 49.4974C63.3747 49.9162 62.8074 50.2642 62.1133 50.2642C61.4192 50.2642 60.8518 49.9162 60.8518 49.4974C60.8518 49.0785 61.4131 48.7246 62.1133 48.7246C62.8134 48.7246 63.3747 49.0726 63.3747 49.4974Z" fill="#DA840D"/>
<path d="M39.7086 45.5207C39.7086 45.7803 39.268 45.9926 38.7248 45.9926C38.1816 45.9926 37.741 45.7803 37.741 45.5207C37.741 45.2612 38.1816 45.0488 38.7248 45.0488C39.268 45.0488 39.7086 45.2612 39.7086 45.5207Z" fill="#DA840D"/>
<path d="M45.5027 44.572C45.5027 44.8375 45.0017 45.0498 44.3861 45.0498C43.7704 45.0498 43.2634 44.8375 43.2634 44.572C43.2634 44.3066 43.7644 44.1001 44.3861 44.1001C45.0077 44.1001 45.5027 44.3125 45.5027 44.572Z" fill="#DA840D"/>
<path d="M52.7946 45.7331C52.7946 46.1047 52.1186 46.4115 51.2796 46.4115C50.4406 46.4115 49.7646 46.1047 49.7646 45.7331C49.7646 45.3615 50.4467 45.0488 51.2796 45.0488C52.1125 45.0488 52.7946 45.3556 52.7946 45.7331Z" fill="#DA840D"/>
<path d="M58.1665 44.572C58.1677 44.667 58.1398 44.7602 58.0866 44.8397C58.0333 44.9192 57.957 44.9813 57.8675 45.0182C57.7779 45.0551 57.6791 45.0651 57.5837 45.0468C57.4883 45.0286 57.4006 44.9829 57.3319 44.9158C57.2632 44.8486 57.2165 44.7629 57.1978 44.6697C57.1792 44.5764 57.1893 44.4799 57.2271 44.3924C57.2648 44.3048 57.3284 44.2302 57.4097 44.1782C57.4911 44.1261 57.5864 44.099 57.6836 44.1001C57.8117 44.1001 57.9345 44.1499 58.025 44.2384C58.1156 44.3269 58.1665 44.4469 58.1665 44.572Z" fill="#DA840D"/>
<path d="M57.1944 48.3051C57.1944 48.5351 56.7357 48.7239 56.1623 48.7239C55.5889 48.7239 55.1362 48.5351 55.1362 48.3051C55.1362 48.075 55.5949 47.8862 56.1623 47.8862C56.7297 47.8862 57.1944 48.075 57.1944 48.3051Z" fill="#DA840D"/>
<path d="M65.2643 44.3645C65.2618 44.5015 65.2177 44.6346 65.1375 44.747C65.0574 44.8593 64.9448 44.9459 64.8142 44.9955C64.6836 45.0452 64.5408 45.0557 64.404 45.0258C64.2672 44.9959 64.1427 44.9269 64.0461 44.8275C63.9496 44.7282 63.8855 44.603 63.862 44.468C63.8385 44.333 63.8567 44.1941 63.9142 44.0692C63.9717 43.9443 64.0659 43.8389 64.1849 43.7665C64.3038 43.694 64.4422 43.6578 64.5823 43.6625C64.6742 43.6648 64.7648 43.6848 64.8488 43.7213C64.9329 43.7578 65.0088 43.8102 65.0721 43.8754C65.1354 43.9406 65.185 44.0173 65.218 44.1012C65.251 44.1852 65.2667 44.2746 65.2643 44.3645Z" fill="#DA840D"/>
<path d="M69.1091 47.1498C69.1091 47.2678 68.753 47.3622 68.3063 47.3622C67.8596 47.3622 67.5095 47.2678 67.5095 47.1498C67.5095 47.0319 67.8657 46.9375 68.3063 46.9375C68.7469 46.9375 69.1091 47.0319 69.1091 47.1498Z" fill="#DA840D"/>
<path d="M71.6134 45.7577C71.6285 45.8198 71.6233 45.885 71.5987 45.9442C71.574 46.0033 71.5311 46.0535 71.4759 46.0876C71.4207 46.1218 71.3559 46.1383 71.2907 46.1347C71.2254 46.1312 71.163 46.1079 71.1119 46.068C71.0609 46.0281 71.0239 45.9736 71.0061 45.9122C70.9882 45.8508 70.9905 45.7854 71.0124 45.7253C71.0344 45.6651 71.0751 45.6132 71.1287 45.5767C71.1823 45.5402 71.2463 45.521 71.3116 45.5217C71.3834 45.515 71.4551 45.5359 71.5114 45.58C71.5677 45.624 71.6043 45.6878 71.6134 45.7577Z" fill="#DA840D"/>
<path d="M69.109 47.149C69.095 47.2769 69.0435 47.3981 68.9605 47.4981C68.8776 47.598 68.7669 47.6723 68.6417 47.7121C68.5165 47.7519 68.3822 47.7554 68.255 47.7222C68.1278 47.6891 68.0132 47.6206 67.9249 47.5252C67.8366 47.4297 67.7785 47.3114 67.7575 47.1844C67.7365 47.0574 67.7536 46.9271 67.8067 46.8094C67.8598 46.6917 67.9466 46.5915 68.0567 46.5209C68.1667 46.4503 68.2953 46.4123 68.427 46.4116C68.5213 46.4162 68.6138 46.4388 68.6992 46.4784C68.7846 46.5179 68.8612 46.5735 68.9245 46.642C68.9879 46.7105 69.0368 46.7905 69.0684 46.8775C69.1001 46.9645 69.1139 47.0568 69.109 47.149Z" fill="#DA840D"/>
<path d="M72.9832 45.9688C72.9832 46.2107 72.609 46.4113 72.1442 46.4113C71.6795 46.4113 71.3113 46.2107 71.3113 45.9688C71.3113 45.727 71.6855 45.5205 72.1442 45.5205C72.6029 45.5205 72.9832 45.7211 72.9832 45.9688Z" fill="#DA840D"/>
<path d="M92.7809 47.5805C92.7809 55.1959 76.225 62.2863 56.2891 62.2863C36.3532 62.2863 19.6646 54.6709 19.6646 47.0555C19.6646 39.4401 36.3532 34.668 56.2891 34.668C76.225 34.668 92.7809 39.9592 92.7809 47.5805Z" fill="#E3AC8A"/>
<path d="M92.3826 46.106C92.3826 53.7273 76.2251 59.9033 56.2892 59.9033C36.3533 59.9033 20.1897 53.7273 20.1897 46.106C20.1897 38.4847 36.3533 32.3086 56.2892 32.3086C76.2251 32.3086 92.3826 38.4847 92.3826 46.106Z" fill="#DA840D"/>
<path d="M55.7635 55.0363C70.5539 55.0363 82.5439 50.4542 82.5439 44.8019C82.5439 39.1495 70.5539 34.5674 55.7635 34.5674C40.9731 34.5674 28.9832 39.1495 28.9832 44.8019C28.9832 50.4542 40.9731 55.0363 55.7635 55.0363Z" fill="#F0A508"/>
<path d="M37.7412 48.5777C37.7412 49.1676 37.0591 49.6808 36.2141 49.6808C35.3691 49.6808 34.6931 49.1853 34.6931 48.5777C34.6931 47.9701 35.3752 47.4746 36.2141 47.4746C37.0531 47.4746 37.7412 47.9642 37.7412 48.5777Z" fill="#DA840D"/>
<path d="M34.6934 43.9286C34.6887 44.092 34.6347 44.2504 34.5384 44.3841C34.442 44.5177 34.3075 44.6206 34.1517 44.68C33.9958 44.7393 33.8255 44.7525 33.6621 44.7178C33.4986 44.6831 33.3492 44.602 33.2326 44.4848C33.116 44.3676 33.0373 44.2194 33.0064 44.0588C32.9754 43.8981 32.9936 43.7321 33.0587 43.5815C33.1238 43.4309 33.2328 43.3023 33.3722 43.2119C33.5116 43.1216 33.6751 43.0733 33.8424 43.0732C34.0708 43.0779 34.2881 43.1702 34.4474 43.3303C34.6067 43.4904 34.695 43.7053 34.6934 43.9286Z" fill="#DA840D"/>
<path d="M45.2676 49.9154C45.2869 50.2021 45.2176 50.488 45.0687 50.7358C44.9198 50.9836 44.698 51.1819 44.4323 51.305C44.1666 51.4281 43.8692 51.4703 43.5786 51.4261C43.288 51.3819 43.0178 51.2534 42.8029 51.0572C42.588 50.861 42.4384 50.6062 42.3735 50.3259C42.3087 50.0456 42.3315 49.7527 42.4391 49.4852C42.5467 49.2178 42.7341 48.9881 42.9769 48.826C43.2198 48.6639 43.5068 48.577 43.8009 48.5763C44.1767 48.5652 44.5418 48.6997 44.8165 48.9505C45.0913 49.2013 45.2534 49.5482 45.2676 49.9154Z" fill="#DA840D"/>
<path d="M42.0807 44.6007C42.0807 44.9664 41.6643 45.2673 41.1573 45.2673C40.6503 45.2673 40.2278 44.9664 40.2278 44.6007C40.2278 44.235 40.6442 43.9282 41.1573 43.9282C41.6703 43.9282 42.0807 44.2527 42.0807 44.6007Z" fill="#DA840D"/>
<path d="M51.4118 47.7931C51.4338 47.9784 51.3977 48.1659 51.3082 48.3306C51.2188 48.4954 51.0802 48.6297 50.9109 48.7158C50.7415 48.8018 50.5494 48.8356 50.36 48.8125C50.1707 48.7894 49.9929 48.7107 49.8504 48.5866C49.7078 48.4626 49.6072 48.2991 49.5619 48.118C49.5165 47.9368 49.5286 47.7464 49.5965 47.5721C49.6643 47.3977 49.7848 47.2477 49.9419 47.1418C50.099 47.0359 50.2854 46.9791 50.4762 46.9791C50.7102 46.9678 50.9394 47.0467 51.1144 47.199C51.2894 47.3513 51.3962 47.5647 51.4118 47.7931Z" fill="#DA840D"/>
<path d="M51.7685 52.6705C51.7685 53.0481 51.3219 53.3548 50.7666 53.3548C50.2113 53.3548 49.7646 53.0481 49.7646 52.6705C49.7646 52.293 50.2173 51.9922 50.7666 51.9922C51.3158 51.9922 51.7685 52.293 51.7685 52.6705Z" fill="#DA840D"/>
<path d="M47.7727 45.3491C47.7632 45.4865 47.7125 45.6182 47.6269 45.7277C47.5414 45.8371 47.4248 45.9196 47.2916 45.9647C47.1585 46.0099 47.0147 46.0158 46.8781 45.9816C46.7416 45.9475 46.6183 45.8749 46.5237 45.7727C46.4291 45.6706 46.3674 45.5436 46.3461 45.4074C46.3249 45.2712 46.3451 45.132 46.4042 45.007C46.4634 44.8819 46.5589 44.7767 46.6788 44.7043C46.7987 44.6319 46.9378 44.5956 47.0786 44.6C47.2713 44.6121 47.4515 44.6971 47.5811 44.837C47.7107 44.9769 47.7794 45.1605 47.7727 45.3491Z" fill="#DA840D"/>
<path d="M58.1657 46.7892C58.1657 47.1668 57.7311 47.4735 57.1939 47.4735C56.6567 47.4735 56.2222 47.1668 56.2222 46.7892C56.2222 46.4117 56.6567 46.105 57.1939 46.105C57.7311 46.105 58.1657 46.4117 58.1657 46.7892Z" fill="#DA840D"/>
<path d="M58.1657 50.323C58.1657 50.5472 57.7311 50.7301 57.1939 50.7301C56.6567 50.7301 56.2222 50.5472 56.2222 50.323C56.2222 50.0989 56.6567 49.916 57.1939 49.916C57.7311 49.916 58.1657 50.0989 58.1657 50.323Z" fill="#DA840D"/>
<path d="M64.7389 48.0232C64.7389 48.3299 64.3465 48.5777 63.8576 48.5777C63.3687 48.5777 62.9824 48.3299 62.9824 48.0232C62.9824 47.7165 63.3748 47.4746 63.8576 47.4746C64.3405 47.4746 64.7389 47.7224 64.7389 48.0232Z" fill="#DA840D"/>
<path d="M63.6884 51.9621C63.7309 52.1458 63.714 52.3379 63.6399 52.5117C63.5659 52.6856 63.4383 52.8327 63.275 52.9327C63.1117 53.0326 62.9206 53.0804 62.7282 53.0696C62.5358 53.0587 62.3516 52.9897 62.2011 52.872C62.0507 52.7544 61.9413 52.5939 61.8882 52.4129C61.8352 52.2318 61.841 52.0391 61.9049 51.8614C61.9688 51.6837 62.0876 51.5298 62.2449 51.4211C62.4023 51.3123 62.5903 51.254 62.783 51.2542C62.9987 51.2326 63.2145 51.2947 63.3839 51.4271C63.5532 51.5595 63.6626 51.7516 63.6884 51.9621Z" fill="#DA840D"/>
<path d="M71.0037 50.8177C70.9661 50.9921 70.8788 51.1525 70.7518 51.2804C70.6247 51.4082 70.4633 51.4984 70.286 51.5403C70.1088 51.5823 69.923 51.5743 69.7502 51.5174C69.5774 51.4604 69.4247 51.3569 69.3096 51.2186C69.1945 51.0803 69.1218 50.9131 69.1 50.7362C69.0781 50.5592 69.108 50.3799 69.1861 50.2188C69.2642 50.0578 69.3873 49.9216 69.5413 49.8261C69.6953 49.7306 69.8737 49.6797 70.0561 49.6792C70.3349 49.7104 70.5901 49.847 70.7672 50.0598C70.9443 50.2725 71.0292 50.5445 71.0037 50.8177Z" fill="#DA840D"/>
<path d="M70.4789 45.6869C70.4789 45.9169 70.1711 46.1057 69.7909 46.1057C69.4106 46.1057 69.1089 45.9169 69.1089 45.6869C69.1089 45.4568 69.4167 45.2681 69.7909 45.2681C70.1651 45.2681 70.4789 45.4332 70.4789 45.6869Z" fill="#DA840D"/>
<path d="M76.2729 46.9197C76.2729 47.834 75.8564 48.5773 75.3494 48.5773C74.8424 48.5773 74.4199 47.834 74.4199 46.9197C74.4199 46.0054 74.8364 45.2681 75.3494 45.2681C75.8624 45.2681 76.2729 46.0231 76.2729 46.9197Z" fill="#DA840D"/>
<path d="M78.5973 45.2432C78.5957 45.36 78.5475 45.4717 78.463 45.5543C78.3784 45.637 78.2642 45.6841 78.1446 45.6856C78.0551 45.6856 77.9675 45.6597 77.8931 45.611C77.8186 45.5624 77.7606 45.4933 77.7264 45.4125C77.6921 45.3317 77.6831 45.2427 77.7006 45.1569C77.7181 45.0711 77.7612 44.9922 77.8245 44.9304C77.8878 44.8685 77.9685 44.8264 78.0563 44.8093C78.1441 44.7922 78.2351 44.801 78.3178 44.8345C78.4006 44.8679 78.4713 44.9246 78.521 44.9974C78.5707 45.0702 78.5973 45.1557 78.5973 45.2432Z" fill="#DA840D"/>
<path d="M63.3747 43.8289C63.3747 44.2536 62.8074 44.6016 62.1133 44.6016C61.4192 44.6016 60.8518 44.2536 60.8518 43.8289C60.8518 43.4041 61.4131 43.062 62.1133 43.062C62.8134 43.062 63.3747 43.4041 63.3747 43.8289Z" fill="#DA840D"/>
<path d="M39.7086 39.8528C39.7086 40.1182 39.268 40.3306 38.7248 40.3306C38.1816 40.3306 37.741 40.1182 37.741 39.8528C37.741 39.5873 38.1816 39.3809 38.7248 39.3809C39.268 39.3809 39.7086 39.5932 39.7086 39.8528Z" fill="#DA840D"/>
<path d="M45.5027 38.9079C45.5027 39.1675 45.0017 39.3798 44.3861 39.3798C43.7704 39.3798 43.2634 39.1675 43.2634 38.9079C43.2634 38.6484 43.7644 38.436 44.3861 38.436C45.0077 38.436 45.5027 38.6484 45.5027 38.9079Z" fill="#DA840D"/>
<path d="M52.7946 40.0651C52.7946 40.4427 52.1186 40.7494 51.2796 40.7494C50.4406 40.7494 49.7646 40.4427 49.7646 40.0651C49.7646 39.6876 50.4467 39.3809 51.2796 39.3809C52.1125 39.3809 52.7946 39.6876 52.7946 40.0651Z" fill="#DA840D"/>
<path d="M58.1665 38.908C58.1677 39.003 58.1398 39.0962 58.0866 39.1756C58.0333 39.2551 57.957 39.3172 57.8675 39.3541C57.7779 39.391 57.6791 39.401 57.5837 39.3827C57.4883 39.3645 57.4006 39.3189 57.3319 39.2517C57.2632 39.1845 57.2165 39.0988 57.1978 39.0056C57.1792 38.9124 57.1893 38.8158 57.2271 38.7283C57.2648 38.6407 57.3284 38.5662 57.4097 38.5141C57.4911 38.4621 57.5864 38.4349 57.6836 38.4361C57.8117 38.4361 57.9345 38.4858 58.025 38.5743C58.1156 38.6628 58.1665 38.7828 58.1665 38.908Z" fill="#DA840D"/>
<path d="M57.1944 42.643C57.1944 42.873 56.7357 43.0618 56.1623 43.0618C55.5889 43.0618 55.1362 42.873 55.1362 42.643C55.1362 42.4129 55.5949 42.2183 56.1623 42.2183C56.7297 42.2183 57.1944 42.407 57.1944 42.643Z" fill="#DA840D"/>
<path d="M65.2643 38.7022C65.2655 38.84 65.2244 38.9749 65.1464 39.0896C65.0684 39.2044 64.9571 39.2937 64.8268 39.3461C64.6964 39.3984 64.553 39.4115 64.415 39.3836C64.277 39.3556 64.1507 39.288 64.0524 39.1893C63.954 39.0907 63.8882 38.9655 63.8632 38.8299C63.8383 38.6944 63.8554 38.5546 63.9124 38.4286C63.9694 38.3027 64.0636 38.1962 64.183 38.1231C64.3024 38.0499 64.4415 38.0133 64.5823 38.018C64.7654 38.0211 64.9397 38.0947 65.0675 38.2229C65.1952 38.3511 65.266 38.5233 65.2643 38.7022Z" fill="#DA840D"/>
<path d="M69.1091 41.4858C69.1091 41.5979 68.753 41.6923 68.3063 41.6923C67.8596 41.6923 67.5095 41.5979 67.5095 41.4858C67.5095 41.3737 67.8657 41.2734 68.3063 41.2734C68.7469 41.2734 69.1091 41.3678 69.1091 41.4858Z" fill="#DA840D"/>
<path d="M71.6137 40.1244C71.6275 40.1866 71.6211 40.2515 71.5955 40.31C71.5698 40.3685 71.5262 40.4178 71.4706 40.451C71.4151 40.4842 71.3503 40.4996 71.2853 40.4952C71.2203 40.4908 71.1584 40.4668 71.108 40.4264C71.0576 40.386 71.0214 40.3314 71.0042 40.2699C70.9871 40.2085 70.9899 40.1434 71.0123 40.0837C71.0348 40.0239 71.0756 39.9724 71.1293 39.9364C71.183 39.9003 71.2468 39.8815 71.312 39.8825C71.3847 39.8759 71.4572 39.8976 71.5137 39.9429C71.5702 39.9881 71.6061 40.0534 71.6137 40.1244Z" fill="#DA840D"/>
<path d="M69.109 41.4864C69.095 41.6143 69.0435 41.7355 68.9605 41.8355C68.8776 41.9354 68.7669 42.0097 68.6417 42.0495C68.5165 42.0893 68.3822 42.0928 68.255 42.0596C68.1278 42.0265 68.0132 41.958 67.9249 41.8626C67.8366 41.7671 67.7785 41.6488 67.7575 41.5218C67.7365 41.3947 67.7536 41.2645 67.8067 41.1468C67.8598 41.0291 67.9466 40.9289 68.0567 40.8583C68.1667 40.7877 68.2953 40.7498 68.427 40.749C68.5213 40.7536 68.6138 40.7762 68.6992 40.8158C68.7846 40.8553 68.8612 40.9109 68.9245 40.9794C68.9879 41.0479 69.0368 41.1279 69.0684 41.2149C69.1001 41.3019 69.1139 41.3942 69.109 41.4864Z" fill="#DA840D"/>
<path d="M72.9832 40.3008C72.9832 40.5486 72.609 40.7491 72.1442 40.7491C71.6795 40.7491 71.3113 40.5486 71.3113 40.3008C71.3113 40.0531 71.6855 39.8525 72.1442 39.8525C72.6029 39.8525 72.9832 40.0531 72.9832 40.3008Z" fill="#DA840D"/>
<path d="M93.3539 37.4578C93.3539 45.0732 76.792 52.1636 56.8561 52.1636C36.9202 52.1636 20.2375 44.5482 20.2375 36.9269C20.2375 29.3056 36.9202 24.5688 56.8561 24.5688C76.792 24.5688 93.3539 29.8365 93.3539 37.4578Z" fill="#E3AC8A"/>
<path d="M92.9491 35.9952C92.9491 43.6165 76.7855 49.7926 56.8496 49.7926C36.9137 49.7926 20.7622 43.6047 20.7622 35.9952C20.7622 28.3857 36.9198 22.186 56.8556 22.186C76.7915 22.186 92.9491 28.3621 92.9491 35.9952Z" fill="#DA840D"/>
<path d="M83.1176 34.6793C83.1176 40.3304 71.1247 44.9138 56.3372 44.9138C41.5498 44.9138 29.575 40.3304 29.575 34.6793C29.575 29.0283 41.5498 24.439 56.3372 24.439C71.1247 24.439 83.1176 29.0224 83.1176 34.6793Z" fill="#F0A508"/>
<path d="M38.3086 38.4551C38.3086 39.045 37.6326 39.5582 36.7876 39.5582C35.9426 39.5582 35.2666 39.0627 35.2666 38.4551C35.2666 37.8476 35.9486 37.3521 36.8178 37.3521C37.6869 37.3521 38.3086 37.8417 38.3086 38.4551Z" fill="#DA840D"/>
<path d="M35.2665 33.8066C35.2594 33.9689 35.2038 34.1256 35.1066 34.2574C35.0094 34.3892 34.8749 34.4903 34.7196 34.5482C34.5643 34.6061 34.395 34.6183 34.2327 34.5832C34.0704 34.5482 33.9221 34.4675 33.8062 34.351C33.6903 34.2346 33.6118 34.0875 33.5805 33.928C33.5491 33.7684 33.5662 33.6034 33.6298 33.4533C33.6933 33.3032 33.8004 33.1745 33.9379 33.0832C34.0753 32.9919 34.2372 32.9419 34.4034 32.9395C34.5185 32.9402 34.6324 32.9633 34.7383 33.0075C34.8443 33.0516 34.9402 33.1159 35.0205 33.1966C35.1008 33.2772 35.1639 33.3727 35.2061 33.4774C35.2484 33.5822 35.2689 33.694 35.2665 33.8066Z" fill="#DA840D"/>
<path d="M45.8711 39.7938C45.8892 40.0792 45.8192 40.3634 45.6701 40.6095C45.5211 40.8556 45.2998 41.0523 45.035 41.174C44.7702 41.2957 44.4741 41.3369 44.1851 41.2922C43.8961 41.2476 43.6274 41.1191 43.414 40.9234C43.2006 40.7278 43.0522 40.474 42.9881 40.1949C42.924 39.9159 42.9472 39.6244 43.0545 39.3584C43.1619 39.0924 43.3486 38.864 43.5904 38.7029C43.8321 38.5417 44.1178 38.4553 44.4105 38.4547C44.7857 38.4436 45.1501 38.5783 45.4239 38.8293C45.6977 39.0803 45.8585 39.4271 45.8711 39.7938Z" fill="#DA840D"/>
<path d="M42.654 34.4727C42.654 34.8443 42.2375 35.1452 41.7245 35.1452C41.2115 35.1452 40.801 34.8443 40.801 34.4727C40.801 34.1011 41.2175 33.8062 41.7245 33.8062C42.2315 33.8062 42.654 34.107 42.654 34.4727Z" fill="#DA840D"/>
<path d="M51.9857 37.6413C52.0077 37.8266 51.9716 38.014 51.8822 38.1788C51.7927 38.3435 51.6542 38.4779 51.4848 38.5639C51.3155 38.65 51.1234 38.6837 50.934 38.6606C50.7446 38.6376 50.5669 38.5588 50.4243 38.4348C50.2818 38.3107 50.1812 38.1473 50.1358 37.9661C50.0905 37.7849 50.1026 37.5945 50.1704 37.4202C50.2383 37.2459 50.3588 37.0958 50.5159 36.9899C50.673 36.884 50.8593 36.8273 51.0502 36.8272C51.2842 36.8159 51.5134 36.8949 51.6884 37.0472C51.8634 37.1994 51.9702 37.4128 51.9857 37.6413Z" fill="#DA840D"/>
<path d="M52.3413 42.5493C52.3413 42.9268 51.8946 43.2336 51.3393 43.2336C50.784 43.2336 50.3374 42.9268 50.3374 42.5493C50.3374 42.1718 50.784 41.8945 51.3393 41.8945C51.8946 41.8945 52.3413 42.1777 52.3413 42.5493Z" fill="#DA840D"/>
<path d="M48.3464 35.2278C48.3464 35.414 48.2707 35.5926 48.136 35.7242C48.0013 35.8558 47.8187 35.9298 47.6282 35.9298C47.4377 35.9298 47.255 35.8558 47.1203 35.7242C46.9856 35.5926 46.9099 35.414 46.9099 35.2278C46.9099 35.0417 46.9856 34.8631 47.1203 34.7315C47.255 34.5998 47.4377 34.5259 47.6282 34.5259C47.8187 34.5259 48.0013 34.5998 48.136 34.7315C48.2707 34.8631 48.3464 35.0417 48.3464 35.2278Z" fill="#DA840D"/>
<path d="M58.7394 36.6671C58.7394 37.0446 58.3048 37.3514 57.7676 37.3514C57.2305 37.3514 56.7959 37.0446 56.7959 36.6671C56.7959 36.2896 57.2305 35.9946 57.7676 35.9946C58.3048 35.9946 58.7394 36.2896 58.7394 36.6671Z" fill="#DA840D"/>
<path d="M58.7394 40.2005C58.7394 40.4246 58.3048 40.6075 57.7676 40.6075C57.2305 40.6075 56.7959 40.4246 56.7959 40.2005C56.7959 39.9763 57.2305 39.7935 57.7676 39.7935C58.3048 39.7935 58.7394 39.9763 58.7394 40.2005Z" fill="#DA840D"/>
<path d="M65.3117 37.9006C65.3117 38.2074 64.9194 38.4551 64.4305 38.4551C63.9416 38.4551 63.5493 38.2074 63.5493 37.9006C63.5493 37.5939 63.9477 37.3521 64.4305 37.3521C64.9134 37.3521 65.3117 37.5998 65.3117 37.9006Z" fill="#DA840D"/>
<path d="M64.2621 41.8401C64.3059 42.025 64.2899 42.2185 64.2161 42.394C64.1424 42.5695 64.0146 42.7182 63.8505 42.8195C63.6864 42.9209 63.4941 42.9698 63.3003 42.9596C63.1065 42.9494 62.9207 42.8805 62.7687 42.7624C62.6168 42.6444 62.5062 42.4831 62.4522 42.3008C62.3982 42.1186 62.4036 41.9245 62.4675 41.7454C62.5315 41.5662 62.6508 41.411 62.8091 41.3011C62.9674 41.1913 63.1567 41.1323 63.3508 41.1323C63.5675 41.109 63.7848 41.1703 63.9555 41.3029C64.1262 41.4355 64.2364 41.6286 64.2621 41.8401Z" fill="#DA840D"/>
<path d="M71.5774 40.7139C71.5334 40.8859 71.4411 41.0424 71.3109 41.1657C71.1806 41.2891 71.0177 41.3743 70.8404 41.4119C70.6632 41.4494 70.4787 41.4377 70.3079 41.3782C70.1371 41.3186 69.9868 41.2135 69.8739 41.0747C69.7611 40.936 69.6902 40.7692 69.6693 40.5931C69.6484 40.417 69.6784 40.2388 69.7558 40.0785C69.8331 39.9182 69.9549 39.7823 70.1072 39.6861C70.2595 39.5899 70.4364 39.5373 70.6177 39.5342C70.7608 39.548 70.8996 39.5898 71.0259 39.657C71.1522 39.7243 71.2634 39.8156 71.3529 39.9257C71.4424 40.0357 71.5084 40.1621 71.5469 40.2975C71.5855 40.4329 71.5958 40.5745 71.5774 40.7139Z" fill="#DA840D"/>
<path d="M71.0525 35.5638C71.0525 35.7939 70.7447 35.9827 70.3644 35.9827C69.9842 35.9827 69.6824 35.7939 69.6824 35.5638C69.6824 35.3338 69.9842 35.145 70.3644 35.145C70.7447 35.145 71.0525 35.3338 71.0525 35.5638Z" fill="#DA840D"/>
<path d="M76.8466 36.7967C76.8466 37.711 76.4301 38.4543 75.9171 38.4543C75.4041 38.4543 74.9937 37.711 74.9937 36.7967C74.9937 35.8824 75.4101 35.145 75.9171 35.145C76.4241 35.145 76.8466 35.8824 76.8466 36.7967Z" fill="#DA840D"/>
<path d="M79.1645 35.1216C79.1633 35.2077 79.1361 35.2915 79.0863 35.3625C79.0365 35.4335 78.9663 35.4885 78.8846 35.5207C78.8029 35.5528 78.7133 35.5606 78.6271 35.5431C78.5408 35.5256 78.4618 35.4836 78.4 35.4223C78.3381 35.361 78.2961 35.2832 78.2794 35.1987C78.2626 35.1142 78.2718 35.0267 78.3058 34.9473C78.3398 34.8679 78.397 34.8001 78.4703 34.7524C78.5437 34.7047 78.6298 34.6792 78.7179 34.6792C78.8369 34.6808 78.9505 34.728 79.0341 34.8108C79.1176 34.8936 79.1645 35.0053 79.1645 35.1216Z" fill="#DA840D"/>
<path d="M63.9421 33.7063C63.9421 34.131 63.3808 34.4732 62.6867 34.4732C61.9926 34.4732 61.4253 34.131 61.4253 33.7063C61.4253 33.2816 61.9866 32.9395 62.6867 32.9395C63.3869 32.9395 63.9421 33.2816 63.9421 33.7063Z" fill="#DA840D"/>
<path d="M40.2825 29.7356C40.2825 29.9951 39.8419 30.2075 39.2987 30.2075C38.7555 30.2075 38.3088 29.9951 38.3088 29.7356C38.3088 29.4761 38.7494 29.2578 39.2987 29.2578C39.8479 29.2578 40.2825 29.4702 40.2825 29.7356Z" fill="#DA840D"/>
<path d="M46.0764 28.7868C46.0764 29.0523 45.5754 29.2588 44.9538 29.2588C44.3321 29.2588 43.8372 29.0523 43.8372 28.7868C43.8372 28.5214 44.3381 28.3149 44.9538 28.3149C45.5694 28.3149 46.0764 28.5273 46.0764 28.7868Z" fill="#DA840D"/>
<path d="M53.3673 29.9421C53.3673 30.3196 52.6913 30.6263 51.8524 30.6263C51.0134 30.6263 50.3374 30.3196 50.3374 29.9421C50.3374 29.5646 51.0194 29.2578 51.8524 29.2578C52.6853 29.2578 53.3673 29.5646 53.3673 29.9421Z" fill="#DA840D"/>
<path d="M58.7393 28.7856C58.726 28.9025 58.6691 29.0104 58.5794 29.0887C58.4898 29.1671 58.3737 29.2104 58.2535 29.2104C58.1332 29.2104 58.0171 29.1671 57.9275 29.0887C57.8379 29.0104 57.7809 28.9025 57.7676 28.7856C57.7809 28.6688 57.8379 28.5609 57.9275 28.4825C58.0171 28.4042 58.1332 28.3608 58.2535 28.3608C58.3737 28.3608 58.4898 28.4042 58.5794 28.4825C58.6691 28.5609 58.726 28.6688 58.7393 28.7856Z" fill="#DA840D"/>
<path d="M57.7676 32.514C57.7676 32.75 57.3089 32.9388 56.7355 32.9388C56.1621 32.9388 55.7034 32.75 55.7034 32.514C55.7034 32.2781 56.1681 32.0952 56.7355 32.0952C57.3028 32.0952 57.7676 32.284 57.7676 32.514Z" fill="#DA840D"/>
<path d="M65.8376 28.5794C65.8388 28.7161 65.7984 28.8501 65.7215 28.9644C65.6447 29.0787 65.5348 29.168 65.4059 29.2212C65.277 29.2743 65.1348 29.2888 64.9974 29.2629C64.86 29.2369 64.7336 29.1717 64.6343 29.0754C64.5349 28.9791 64.4671 28.8561 64.4393 28.7221C64.4116 28.5881 64.4252 28.449 64.4785 28.3225C64.5317 28.1961 64.6222 28.088 64.7385 28.0119C64.8547 27.9358 64.9915 27.8951 65.1314 27.8951C65.2241 27.8935 65.3162 27.9101 65.4022 27.9439C65.4882 27.9776 65.5664 28.0279 65.6322 28.0917C65.698 28.1554 65.7501 28.2314 65.7854 28.3152C65.8207 28.399 65.8384 28.4888 65.8376 28.5794Z" fill="#DA840D"/>
<path d="M69.6815 31.3647C69.6815 31.4768 69.3193 31.5712 68.8787 31.5712C68.4381 31.5712 68.082 31.4768 68.082 31.3647C68.082 31.2526 68.4381 31.1523 68.8787 31.1523C69.3193 31.1523 69.6815 31.2762 69.6815 31.3647Z" fill="#DA840D"/>
<path d="M72.1871 29.9725C72.1684 30.0366 72.1288 30.093 72.0744 30.1331C72.0199 30.1733 71.9535 30.195 71.8853 30.195C71.8171 30.195 71.7507 30.1733 71.6963 30.1331C71.6418 30.093 71.6022 30.0366 71.5835 29.9725C71.6022 29.9084 71.6418 29.852 71.6963 29.8119C71.7507 29.7717 71.8171 29.75 71.8853 29.75C71.9535 29.75 72.0199 29.7717 72.0744 29.8119C72.1288 29.852 72.1684 29.9084 72.1871 29.9725Z" fill="#DA840D"/>
<path d="M69.6825 31.3638C69.6685 31.4917 69.6169 31.613 69.534 31.7129C69.4511 31.8128 69.3403 31.8872 69.2152 31.9269C69.09 31.9667 68.9557 31.9702 68.8285 31.9371C68.7013 31.9039 68.5866 31.8355 68.4984 31.74C68.4101 31.6446 68.3519 31.5262 68.331 31.3992C68.31 31.2722 68.3271 31.142 68.3802 31.0242C68.4333 30.9065 68.5201 30.8063 68.6301 30.7357C68.7402 30.6651 68.8688 30.6272 69.0004 30.6265C69.0948 30.631 69.1873 30.6537 69.2727 30.6932C69.3581 30.7327 69.4346 30.7883 69.498 30.8568C69.5614 30.9253 69.6103 31.0054 69.6419 31.0924C69.6736 31.1794 69.6874 31.2716 69.6825 31.3638Z" fill="#DA840D"/>
<path d="M73.5571 30.1787C73.5571 30.4265 73.1829 30.6271 72.7181 30.6271C72.2534 30.6271 71.8792 30.4265 71.8792 30.1787C71.8792 29.931 72.2534 29.7363 72.7181 29.7363C73.1829 29.7363 73.5571 29.931 73.5571 30.1787Z" fill="#DA840D"/>
<path d="M93.3539 30.9511C93.3539 38.5724 76.792 45.6569 56.8561 45.6569C36.9202 45.6569 20.2375 38.0474 20.2375 30.4261C20.2375 22.8048 36.9202 18.0386 56.8561 18.0386C76.792 18.0386 93.3539 23.3298 93.3539 30.9511Z" fill="#E3AC8A"/>
<path d="M92.9491 29.5064C92.9491 37.1218 76.7855 43.3038 56.8496 43.3038C36.9137 43.3038 20.7622 37.0982 20.7622 29.5064C20.7622 21.9146 36.9198 15.7031 56.8556 15.7031C76.7915 15.7031 92.9491 21.8379 92.9491 29.5064Z" fill="#DA840D"/>
<path d="M83.1176 28.173C83.1176 33.8241 71.1247 38.4075 56.3372 38.4075C41.5498 38.4075 29.575 33.8241 29.575 28.173C29.575 22.5219 41.5498 17.9326 56.3372 17.9326C71.1247 17.9326 83.1176 22.516 83.1176 28.173Z" fill="#F0A508"/>
<path d="M38.3086 31.9483C38.3086 32.5382 37.6326 33.0514 36.7876 33.0514C35.9426 33.0514 35.2666 32.5559 35.2666 31.9483C35.2666 31.3407 35.9486 30.8452 36.7876 30.8452C37.6266 30.8452 38.3086 31.3407 38.3086 31.9483Z" fill="#DA840D"/>
<path d="M35.2665 27.2997C35.2594 27.462 35.2038 27.6188 35.1066 27.7506C35.0094 27.8824 34.8749 27.9834 34.7196 28.0414C34.5643 28.0993 34.395 28.1115 34.2327 28.0764C34.0704 28.0414 33.9221 27.9607 33.8062 27.8442C33.6903 27.7278 33.6118 27.5807 33.5805 27.4212C33.5491 27.2616 33.5662 27.0966 33.6298 26.9465C33.6933 26.7963 33.8004 26.6677 33.9379 26.5764C34.0753 26.485 34.2372 26.4351 34.4034 26.4326C34.5185 26.4334 34.6324 26.4565 34.7383 26.5006C34.8443 26.5448 34.9402 26.609 35.0205 26.6897C35.1008 26.7704 35.1639 26.8659 35.2061 26.9706C35.2484 27.0753 35.2689 27.1872 35.2665 27.2997Z" fill="#DA840D"/>
<path d="M44.3925 34.6258C45.1992 34.6258 45.8532 34.0263 45.8532 33.2868C45.8532 32.5473 45.1992 31.9478 44.3925 31.9478C43.5858 31.9478 42.9319 32.5473 42.9319 33.2868C42.9319 34.0263 43.5858 34.6258 44.3925 34.6258Z" fill="#DA840D"/>
<path d="M42.654 27.9728C42.654 28.3385 42.2375 28.6393 41.7245 28.6393C41.2115 28.6393 40.801 28.3267 40.801 27.9728C40.801 27.6188 41.2175 27.3003 41.7245 27.3003C42.2315 27.3003 42.654 27.6011 42.654 27.9728Z" fill="#DA840D"/>
<path d="M51.9857 31.1344C52.0077 31.3197 51.9716 31.5072 51.8822 31.6719C51.7927 31.8367 51.6542 31.971 51.4848 32.0571C51.3155 32.1431 51.1234 32.1768 50.934 32.1538C50.7446 32.1307 50.5669 32.0519 50.4243 31.9279C50.2818 31.8039 50.1812 31.6404 50.1358 31.4593C50.0905 31.2781 50.1026 31.0877 50.1704 30.9134C50.2383 30.739 50.3588 30.589 50.5159 30.4831C50.673 30.3772 50.8593 30.3205 51.0502 30.3204C51.2842 30.3091 51.5134 30.388 51.6884 30.5403C51.8634 30.6926 51.9702 30.906 51.9857 31.1344Z" fill="#DA840D"/>
<path d="M52.3413 36.0412C52.3413 36.4187 51.8946 36.7254 51.3393 36.7254C50.784 36.7254 50.3374 36.4187 50.3374 36.0412C50.3374 35.6636 50.784 35.3628 51.3393 35.3628C51.8946 35.3628 52.3413 35.6695 52.3413 36.0412Z" fill="#DA840D"/>
<path d="M48.346 28.7267C48.3355 28.8628 48.2846 28.993 48.1995 29.1012C48.1144 29.2094 47.9989 29.2911 47.8671 29.3362C47.7353 29.3813 47.5929 29.3878 47.4573 29.355C47.3218 29.3222 47.1989 29.2515 47.1038 29.1516C47.0087 29.0516 46.9455 28.9267 46.9219 28.7922C46.8984 28.6577 46.9154 28.5194 46.971 28.3942C47.0266 28.269 47.1183 28.1623 47.235 28.0873C47.3516 28.0122 47.4882 27.9721 47.6278 27.9717C47.8253 27.9794 48.0116 28.0631 48.1462 28.2045C48.2807 28.346 48.3526 28.5337 48.346 28.7267Z" fill="#DA840D"/>
<path d="M58.7394 30.1611C58.7394 30.5386 58.3048 30.8454 57.7676 30.8454C57.2305 30.8454 56.7959 30.5386 56.7959 30.1611C56.7959 29.7836 57.2305 29.5063 57.7676 29.5063C58.3048 29.5063 58.7394 29.7836 58.7394 30.1611Z" fill="#DA840D"/>
<path d="M58.7394 33.6936C58.7394 33.9178 58.3048 34.1006 57.7676 34.1006C57.2305 34.1006 56.7959 33.9178 56.7959 33.6936C56.7959 33.4695 57.2305 33.2866 57.7676 33.2866C58.3048 33.2866 58.7394 33.4695 58.7394 33.6936Z" fill="#DA840D"/>
<path d="M65.3117 31.3938C65.3117 31.7005 64.9194 31.9483 64.4305 31.9483C63.9416 31.9483 63.5493 31.7005 63.5493 31.3938C63.5493 31.0871 63.9477 30.8452 64.4305 30.8452C64.9134 30.8452 65.3117 31.093 65.3117 31.3938Z" fill="#DA840D"/>
<path d="M64.2621 35.3343C64.3059 35.5191 64.2899 35.7126 64.2161 35.8881C64.1424 36.0636 64.0146 36.2123 63.8505 36.3137C63.6864 36.415 63.4941 36.4639 63.3003 36.4537C63.1065 36.4435 62.9207 36.3746 62.7687 36.2565C62.6168 36.1385 62.5062 35.9772 62.4522 35.795C62.3982 35.6127 62.4036 35.4186 62.4675 35.2395C62.5315 35.0604 62.6508 34.9051 62.8091 34.7953C62.9674 34.6854 63.1567 34.6264 63.3508 34.6264C63.5675 34.6032 63.7848 34.6645 63.9555 34.797C64.1262 34.9296 64.2364 35.1227 64.2621 35.3343Z" fill="#DA840D"/>
<path d="M71.5773 34.2252C71.5334 34.3971 71.4411 34.5537 71.3108 34.677C71.1806 34.8004 71.0176 34.8856 70.8404 34.9232C70.6632 34.9607 70.4787 34.949 70.3079 34.8894C70.1371 34.8299 69.9868 34.7248 69.8739 34.586C69.7611 34.4473 69.6902 34.2804 69.6693 34.1044C69.6484 33.9283 69.6784 33.75 69.7558 33.5897C69.8331 33.4294 69.9549 33.2935 70.1072 33.1973C70.2595 33.1011 70.4363 33.0485 70.6177 33.0454C70.7611 33.0585 70.9004 33.0997 71.0271 33.1667C71.1538 33.2337 71.2653 33.3251 71.3549 33.4353C71.4446 33.5455 71.5105 33.6723 71.5487 33.808C71.5869 33.9438 71.5967 34.0857 71.5773 34.2252Z" fill="#DA840D"/>
<path d="M71.0525 29.0585C71.0525 29.2944 70.7447 29.4832 70.3644 29.4832C69.9842 29.4832 69.6824 29.2944 69.6824 29.0585C69.6824 28.8225 69.9842 28.6396 70.3644 28.6396C70.7447 28.6396 71.0525 28.8284 71.0525 29.0585Z" fill="#DA840D"/>
<path d="M76.8466 30.2913C76.8466 31.2056 76.4301 31.9489 75.9171 31.9489C75.4041 31.9489 74.9937 31.2056 74.9937 30.2913C74.9937 29.377 75.4101 28.6396 75.9171 28.6396C76.4241 28.6396 76.8466 29.3829 76.8466 30.2913Z" fill="#DA840D"/>
<path d="M79.1646 28.6163C79.1634 28.7023 79.1362 28.7861 79.0864 28.8572C79.0366 28.9282 78.9664 28.9832 78.8847 29.0153C78.803 29.0475 78.7133 29.0553 78.6271 29.0378C78.5409 29.0203 78.4618 28.9782 78.4 28.917C78.3381 28.8557 78.2961 28.7779 78.2794 28.6934C78.2626 28.6089 78.2718 28.5214 78.3058 28.442C78.3398 28.3625 78.397 28.2947 78.4704 28.247C78.5437 28.1993 78.6298 28.1738 78.7179 28.1738C78.777 28.1738 78.8356 28.1853 78.8902 28.2076C78.9448 28.2299 78.9943 28.2626 79.0359 28.3038C79.0774 28.3449 79.1102 28.3937 79.1323 28.4474C79.1544 28.501 79.1654 28.5584 79.1646 28.6163Z" fill="#DA840D"/>
<path d="M63.9421 27.1995C63.9421 27.6242 63.3808 27.9722 62.6867 27.9722C61.9926 27.9722 61.4253 27.6242 61.4253 27.1995C61.4253 26.7748 61.9866 26.4326 62.6867 26.4326C63.3869 26.4326 63.9421 26.7748 63.9421 27.1995Z" fill="#DA840D"/>
<path d="M40.2825 23.2297C40.2825 23.4893 39.8419 23.7016 39.2987 23.7016C38.7555 23.7016 38.3088 23.4893 38.3088 23.2297C38.3088 22.9702 38.7494 22.7578 39.2987 22.7578C39.8479 22.7578 40.2825 22.9702 40.2825 23.2297Z" fill="#DA840D"/>
<path d="M46.0764 22.2795C46.0764 22.545 45.5754 22.7573 44.9538 22.7573C44.3321 22.7573 43.8372 22.545 43.8372 22.2795C43.8372 22.0141 44.3381 21.8076 44.9538 21.8076C45.5694 21.8076 46.0764 22.02 46.0764 22.2795Z" fill="#DA840D"/>
<path d="M53.3673 23.4362C53.3673 23.8137 52.6913 24.1204 51.8524 24.1204C51.0134 24.1204 50.3374 23.8137 50.3374 23.4362C50.3374 23.0587 51.0194 22.7578 51.8524 22.7578C52.6853 22.7578 53.3673 23.0587 53.3673 23.4362Z" fill="#DA840D"/>
<path d="M58.739 22.28C58.7402 22.375 58.7123 22.4682 58.6591 22.5477C58.6058 22.6272 58.5295 22.6893 58.44 22.7262C58.3504 22.7631 58.2516 22.7731 58.1562 22.7548C58.0608 22.7366 57.9732 22.6909 57.9044 22.6238C57.8357 22.5566 57.789 22.4709 57.7703 22.3777C57.7517 22.2845 57.7619 22.1879 57.7996 22.1004C57.8373 22.0128 57.9009 21.9383 57.9823 21.8862C58.0636 21.8342 58.1589 21.807 58.2561 21.8081C58.3842 21.8081 58.507 21.8579 58.5975 21.9464C58.6881 22.0349 58.739 22.1549 58.739 22.28Z" fill="#DA840D"/>
<path d="M57.7676 26.0136C57.7676 26.2436 57.3089 26.4324 56.7355 26.4324C56.1621 26.4324 55.7034 26.2436 55.7034 26.0136C55.7034 25.7835 56.1681 25.5889 56.7355 25.5889C57.3028 25.5889 57.7676 25.7776 57.7676 26.0136Z" fill="#DA840D"/>
<path d="M65.8376 22.0739C65.8388 22.2107 65.7984 22.3447 65.7215 22.459C65.6447 22.5732 65.5348 22.6626 65.4059 22.7158C65.277 22.7689 65.1348 22.7834 64.9974 22.7575C64.86 22.7315 64.7336 22.6662 64.6343 22.57C64.5349 22.4737 64.4671 22.3507 64.4393 22.2167C64.4116 22.0826 64.4252 21.9436 64.4785 21.8171C64.5317 21.6906 64.6222 21.5825 64.7385 21.5064C64.8547 21.4303 64.9915 21.3897 65.1314 21.3897C65.2239 21.3889 65.3156 21.406 65.4012 21.4401C65.4869 21.4741 65.5647 21.5244 65.6304 21.588C65.6961 21.6516 65.7482 21.7273 65.7837 21.8107C65.8193 21.8941 65.8376 21.9836 65.8376 22.0739Z" fill="#DA840D"/>
<path d="M69.6815 24.8579C69.6815 24.9699 69.3193 25.0643 68.8787 25.0643C68.4381 25.0643 68.082 24.9699 68.082 24.8579C68.082 24.7458 68.4381 24.6455 68.8787 24.6455C69.3193 24.6455 69.6815 24.7399 69.6815 24.8579Z" fill="#DA840D"/>
<path d="M72.1873 23.4657C72.2024 23.5276 72.1973 23.5926 72.1729 23.6515C72.1485 23.7105 72.106 23.7606 72.0511 23.7949C71.9963 23.8292 71.9319 23.846 71.8669 23.8429C71.8019 23.8399 71.7395 23.8171 71.6883 23.7779C71.6371 23.7386 71.5996 23.6848 71.5811 23.6238C71.5626 23.5628 71.5639 23.4977 71.5849 23.4375C71.6059 23.3773 71.6456 23.325 71.6983 23.2878C71.7511 23.2505 71.8144 23.2303 71.8795 23.2298C71.952 23.223 72.0244 23.2437 72.0817 23.2876C72.139 23.3315 72.1768 23.3953 72.1873 23.4657Z" fill="#DA840D"/>
<path d="M69.6825 24.857C69.6685 24.9849 69.6169 25.1061 69.534 25.2061C69.4511 25.306 69.3403 25.3803 69.2152 25.4201C69.09 25.4599 68.9557 25.4634 68.8285 25.4302C68.7013 25.397 68.5866 25.3286 68.4984 25.2332C68.4101 25.1377 68.3519 25.0194 68.331 24.8924C68.31 24.7654 68.3271 24.6351 68.3802 24.5174C68.4333 24.3997 68.5201 24.2995 68.6301 24.2289C68.7402 24.1583 68.8688 24.1204 69.0004 24.1196C69.0948 24.1242 69.1873 24.1468 69.2727 24.1864C69.3581 24.2259 69.4346 24.2815 69.498 24.35C69.5614 24.4185 69.6103 24.4985 69.6419 24.5855C69.6736 24.6725 69.6874 24.7648 69.6825 24.857Z" fill="#DA840D"/>
<path d="M73.5571 23.6719C73.5571 23.9197 73.1829 24.1202 72.7181 24.1202C72.2534 24.1202 71.8792 23.9197 71.8792 23.6719C71.8792 23.4242 72.2534 23.2295 72.7181 23.2295C73.1829 23.2295 73.5571 23.4301 73.5571 23.6719Z" fill="#DA840D"/>
<path d="M91.9595 24.2506C91.1146 16.9242 75.977 11.0962 57.4233 11.0962C40.0647 11.0962 25.6997 16.1987 23.2251 22.8467C22.6534 23.7451 22.3445 24.7795 22.3318 25.8374C22.3318 33.4587 38.3264 41.0741 57.4233 41.0741C76.5202 41.0741 92.382 33.9955 92.382 26.3624C92.3808 25.6385 92.2373 24.9216 91.9595 24.2506Z" fill="#C66720"/>
<path d="M94.0908 22.9295C94.0908 30.5508 77.5288 37.6412 57.5929 37.6412C37.657 37.6412 20.9744 30.0258 20.9744 22.4281C20.9744 14.8304 37.657 10.0405 57.5929 10.0405C77.5288 10.0405 94.0908 15.3082 94.0908 22.9295Z" fill="#E3AC8A"/>
<path d="M93.7704 21.4608C93.7704 29.0821 78.0776 34.8394 58.1599 34.8394C38.2421 34.8394 22.0664 28.6633 22.0664 21.042C22.0664 13.4207 38.224 7.24463 58.1599 7.24463C78.0957 7.24463 93.7704 13.8395 93.7704 21.4608Z" fill="#DA840D"/>
<path d="M57.0736 30.3855C71.864 30.3855 83.854 25.8033 83.854 20.151C83.854 14.4986 71.864 9.9165 57.0736 9.9165C42.2832 9.9165 30.2932 14.4986 30.2932 20.151C30.2932 25.8033 42.2832 30.3855 57.0736 30.3855Z" fill="#F0A508"/>
<path d="M39.0449 23.9254C39.0449 24.5152 38.3629 25.0343 37.5239 25.0343C36.685 25.0343 36.0029 24.5388 36.0029 23.9254C36.0029 23.3119 36.685 22.8223 37.5239 22.8223C38.3629 22.8223 39.0449 23.3178 39.0449 23.9254Z" fill="#DA840D"/>
<path d="M36.0028 19.2827C35.9945 19.4452 35.9377 19.6018 35.8393 19.733C35.7409 19.8642 35.6053 19.9644 35.4492 20.0211C35.2932 20.0777 35.1235 20.0884 34.9613 20.0518C34.7991 20.0152 34.6515 19.9329 34.5366 19.8151C34.4218 19.6973 34.3448 19.5492 34.3153 19.3891C34.2857 19.229 34.3049 19.0639 34.3703 18.9143C34.4358 18.7647 34.5447 18.6372 34.6836 18.5475C34.8225 18.4578 34.9853 18.4099 35.1518 18.4097C35.2664 18.412 35.3795 18.4364 35.4845 18.4816C35.5894 18.5268 35.6842 18.5919 35.7633 18.673C35.8424 18.7542 35.9043 18.8498 35.9454 18.9545C35.9865 19.0591 36.006 19.1707 36.0028 19.2827Z" fill="#DA840D"/>
<path d="M46.5895 25.2699C46.6064 25.5552 46.5353 25.8388 46.3854 26.0842C46.2356 26.3296 46.0138 26.5253 45.7488 26.6461C45.4839 26.767 45.1879 26.8073 44.8992 26.7619C44.6106 26.7165 44.3425 26.5875 44.1297 26.3915C43.9169 26.1955 43.7691 25.9417 43.7056 25.6628C43.642 25.3838 43.6656 25.0927 43.7732 24.827C43.8808 24.5613 44.0676 24.3333 44.3093 24.1725C44.5509 24.0117 44.8365 23.9254 45.1288 23.9249C45.3151 23.9194 45.5007 23.9499 45.6749 24.0145C45.8492 24.0791 46.0087 24.1767 46.1443 24.3016C46.28 24.4265 46.3891 24.5763 46.4655 24.7424C46.5419 24.9086 46.584 25.0878 46.5895 25.2699Z" fill="#DA840D"/>
<path d="M43.391 19.9493C43.391 20.3209 42.9746 20.6159 42.4615 20.6159C41.9485 20.6159 41.5381 20.3209 41.5381 19.9493C41.5381 19.5777 41.9545 19.2827 42.4615 19.2827C42.9685 19.2827 43.391 19.5836 43.391 19.9493Z" fill="#DA840D"/>
<path d="M52.7213 23.1118C52.7433 23.2971 52.7072 23.4845 52.6178 23.6493C52.5283 23.8141 52.3898 23.9484 52.2204 24.0344C52.0511 24.1205 51.859 24.1542 51.6696 24.1311C51.4802 24.1081 51.3025 24.0293 51.1599 23.9053C51.0174 23.7812 50.9168 23.6178 50.8714 23.4366C50.8261 23.2554 50.8382 23.0651 50.906 22.8907C50.9739 22.7164 51.0944 22.5663 51.2515 22.4604C51.4086 22.3545 51.5949 22.2978 51.7858 22.2978C52.0202 22.2849 52.2503 22.3633 52.4256 22.5159C52.601 22.6685 52.7073 22.8828 52.7213 23.1118Z" fill="#DA840D"/>
<path d="M53.0783 28.0251C53.0783 28.4026 52.6317 28.7094 52.0764 28.7094C51.5211 28.7094 51.0745 28.4026 51.0745 28.0251C51.0745 27.6476 51.5211 27.3408 52.0764 27.3408C52.6317 27.3408 53.0783 27.6476 53.0783 28.0251Z" fill="#DA840D"/>
<path d="M49.0829 20.7048C49.0723 20.8409 49.0214 20.971 48.9363 21.0792C48.8512 21.1875 48.7357 21.2692 48.6039 21.3142C48.4721 21.3593 48.3297 21.3659 48.1941 21.3331C48.0586 21.3003 47.9357 21.2296 47.8407 21.1296C47.7456 21.0297 47.6824 20.9048 47.6588 20.7703C47.6352 20.6357 47.6522 20.4974 47.7078 20.3722C47.7634 20.247 47.8552 20.1403 47.9718 20.0653C48.0885 19.9903 48.225 19.9501 48.3646 19.9497C48.4626 19.9527 48.5591 19.9747 48.6484 20.0144C48.7377 20.0541 48.818 20.1107 48.8848 20.1809C48.9516 20.2511 49.0035 20.3335 49.0375 20.4235C49.0715 20.5134 49.0869 20.609 49.0829 20.7048Z" fill="#DA840D"/>
<path d="M59.476 22.1437C59.476 22.5213 59.0414 22.8221 58.5042 22.8221C57.967 22.8221 57.5325 22.5213 57.5325 22.1437C57.5325 21.7662 57.967 21.4595 58.5042 21.4595C59.0414 21.4595 59.476 21.7662 59.476 22.1437Z" fill="#DA840D"/>
<path d="M59.476 25.6775C59.476 25.9017 59.0414 26.0845 58.5042 26.0845C57.967 26.0845 57.5325 25.9017 57.5325 25.6775C57.5325 25.4534 57.967 25.2705 58.5042 25.2705C59.0414 25.2705 59.476 25.4534 59.476 25.6775Z" fill="#DA840D"/>
<path d="M66.0488 23.3768C66.0488 23.6835 65.6505 23.9254 65.1676 23.9254C64.6847 23.9254 64.2864 23.6835 64.2864 23.3768C64.2864 23.07 64.6847 22.8223 65.1676 22.8223C65.6505 22.8223 66.0488 23.07 66.0488 23.3768Z" fill="#DA840D"/>
<path d="M64.9985 27.3181C65.0424 27.5029 65.0263 27.6965 64.9525 27.8719C64.8788 28.0474 64.751 28.1961 64.5869 28.2975C64.4228 28.3988 64.2305 28.4478 64.0367 28.4375C63.8428 28.4273 63.6571 28.3584 63.5051 28.2404C63.3531 28.1223 63.2425 27.961 63.1885 27.7788C63.1345 27.5965 63.1399 27.4024 63.2038 27.2233C63.2678 27.0442 63.3872 26.8889 63.5454 26.7791C63.7037 26.6692 63.893 26.6102 64.0871 26.6102C64.3035 26.5885 64.52 26.6504 64.6904 26.7827C64.8607 26.915 64.9713 27.1071 64.9985 27.3181Z" fill="#DA840D"/>
<path d="M72.3135 26.1731C72.2759 26.3475 72.1885 26.5079 72.0615 26.6358C71.9345 26.7637 71.773 26.8538 71.5958 26.8958C71.4186 26.9377 71.2328 26.9298 71.06 26.8728C70.8872 26.8159 70.7345 26.7123 70.6194 26.5741C70.5043 26.4358 70.4317 26.2685 70.4098 26.0916C70.3879 25.9147 70.4178 25.7353 70.4959 25.5743C70.574 25.4132 70.6971 25.2771 70.8511 25.1816C71.005 25.0861 71.1835 25.0352 71.3659 25.0347C71.6447 25.0659 71.8999 25.2025 72.077 25.4152C72.2541 25.628 72.3389 25.9 72.3135 26.1731Z" fill="#DA840D"/>
<path d="M71.7823 21.0409C71.7823 21.271 71.4805 21.4597 71.1002 21.4597C70.72 21.4597 70.4182 21.271 70.4182 21.0409C70.4182 20.8109 70.72 20.6162 71.1002 20.6162C71.4805 20.6162 71.7823 20.805 71.7823 21.0409Z" fill="#DA840D"/>
<path d="M77.5829 22.2738C77.5829 23.1881 77.1664 23.9255 76.6534 23.9255C76.1404 23.9255 75.73 23.1881 75.73 22.2738C75.73 21.3595 76.1464 20.6162 76.6534 20.6162C77.1604 20.6162 77.5829 21.3595 77.5829 22.2738Z" fill="#DA840D"/>
<path d="M79.9007 20.5987C79.8983 20.6845 79.8701 20.7677 79.8196 20.8379C79.7691 20.9081 79.6986 20.9622 79.6168 20.9935C79.535 21.0247 79.4456 21.0317 79.3597 21.0135C79.2739 20.9954 79.1955 20.9529 79.1342 20.8914C79.0729 20.8299 79.0316 20.7522 79.0153 20.6678C78.999 20.5835 79.0085 20.4963 79.0427 20.4172C79.0768 20.3382 79.134 20.2707 79.2072 20.2232C79.2804 20.1758 79.3662 20.1504 79.454 20.1504C79.5135 20.1512 79.5722 20.1634 79.6268 20.1863C79.6815 20.2093 79.7309 20.2425 79.7724 20.2841C79.8139 20.3258 79.8465 20.375 79.8686 20.4289C79.8906 20.4829 79.9015 20.5406 79.9007 20.5987Z" fill="#DA840D"/>
<path d="M64.6783 19.1824C64.6783 19.6071 64.117 19.9493 63.4229 19.9493C62.7288 19.9493 62.1675 19.6071 62.1675 19.1824C62.1675 18.7577 62.7288 18.4097 63.4289 18.4097C64.129 18.4097 64.6783 18.7577 64.6783 19.1824Z" fill="#DA840D"/>
<path d="M41.0428 15.2082C41.0428 15.4678 40.6022 15.6801 40.0589 15.6801C39.5157 15.6801 39.0691 15.4678 39.0691 15.2082C39.0691 14.9487 39.5097 14.7363 40.0589 14.7363C40.6082 14.7363 41.0428 14.9487 41.0428 15.2082Z" fill="#DA840D"/>
<path d="M46.813 14.2634C46.813 14.523 46.312 14.7353 45.6903 14.7353C45.0687 14.7353 44.5737 14.523 44.5737 14.2634C44.5737 14.0039 45.0747 13.7915 45.6903 13.7915C46.306 13.7915 46.813 14.0039 46.813 14.2634Z" fill="#DA840D"/>
<path d="M54.1044 15.4195C54.1044 15.797 53.4284 16.1037 52.5894 16.1037C51.7505 16.1037 51.0745 15.797 51.0745 15.4195C51.0745 15.0419 51.7505 14.7588 52.5894 14.7588C53.4284 14.7588 54.1044 15.0419 54.1044 15.4195Z" fill="#DA840D"/>
<path d="M59.4753 14.2625C59.4765 14.3572 59.4488 14.4502 59.3959 14.5295C59.3429 14.6089 59.2669 14.671 59.1777 14.7081C59.0885 14.7452 58.99 14.7555 58.8948 14.7377C58.7996 14.7199 58.7119 14.6749 58.6429 14.6083C58.5739 14.5417 58.5268 14.4566 58.5074 14.3638C58.488 14.2709 58.4974 14.1746 58.5342 14.0869C58.571 13.9993 58.6337 13.9243 58.7142 13.8715C58.7947 13.8187 58.8895 13.7906 58.9864 13.7906C59.0503 13.7898 59.1138 13.8014 59.173 13.8248C59.2323 13.8481 59.2863 13.8828 59.3317 13.9267C59.3772 13.9706 59.4133 14.0229 59.438 14.0805C59.4626 14.1381 59.4753 14.2 59.4753 14.2625Z" fill="#DA840D"/>
<path d="M58.5039 17.9916C58.5039 18.2275 58.0452 18.4104 57.4718 18.4104C56.8984 18.4104 56.4397 18.2275 56.4397 17.9916C56.4397 17.7556 56.9044 17.5728 57.4718 17.5728C58.0391 17.5728 58.5039 17.7615 58.5039 17.9916Z" fill="#DA840D"/>
<path d="M66.5738 14.0505C66.5762 14.1874 66.5369 14.322 66.4607 14.4371C66.3846 14.5521 66.2752 14.6424 66.1464 14.6964C66.0176 14.7505 65.8752 14.7659 65.7375 14.7406C65.5997 14.7153 65.4727 14.6505 65.3728 14.5545C65.2728 14.4584 65.2043 14.3355 65.1761 14.2013C65.1479 14.0671 65.1611 13.9277 65.2142 13.8009C65.2673 13.6741 65.3578 13.5657 65.4741 13.4893C65.5905 13.4129 65.7275 13.3721 65.8677 13.3721C65.9596 13.3713 66.0508 13.3882 66.1361 13.4219C66.2213 13.4556 66.2989 13.5053 66.3645 13.5683C66.4301 13.6313 66.4823 13.7063 66.5182 13.7891C66.5541 13.8718 66.573 13.9606 66.5738 14.0505Z" fill="#DA840D"/>
<path d="M70.4186 16.8349C70.4186 16.9529 70.0564 17.0472 69.6158 17.0472C69.1752 17.0472 68.8191 16.9529 68.8191 16.8349C68.8191 16.7169 69.1752 16.6284 69.6158 16.6284C70.0564 16.6284 70.4186 16.7228 70.4186 16.8349Z" fill="#DA840D"/>
<path d="M72.9234 15.4438C72.9384 15.5057 72.9334 15.5706 72.909 15.6296C72.8846 15.6885 72.842 15.7386 72.7872 15.7729C72.7324 15.8072 72.668 15.824 72.603 15.8209C72.538 15.8179 72.4756 15.7952 72.4244 15.7559C72.3731 15.7167 72.3357 15.6628 72.3172 15.6018C72.2987 15.5408 72.3 15.4757 72.321 15.4155C72.342 15.3553 72.3816 15.303 72.4344 15.2658C72.4872 15.2286 72.5505 15.2083 72.6156 15.2078C72.6881 15.201 72.7605 15.2217 72.8178 15.2656C72.8751 15.3096 72.9129 15.3733 72.9234 15.4438Z" fill="#DA840D"/>
<path d="M70.4182 16.8352C70.4271 16.9276 70.4162 17.0208 70.3861 17.1088C70.3561 17.1969 70.3075 17.2778 70.2436 17.3464C70.1797 17.4151 70.1018 17.4699 70.0149 17.5075C69.9281 17.545 69.8341 17.5644 69.7392 17.5644C69.6442 17.5644 69.5503 17.545 69.4634 17.5075C69.3766 17.4699 69.2987 17.4151 69.2347 17.3464C69.1708 17.2778 69.1223 17.1969 69.0922 17.1088C69.0621 17.0208 69.0512 16.9276 69.0601 16.8352C69.0512 16.7428 69.0621 16.6495 69.0922 16.5615C69.1223 16.4735 69.1708 16.3925 69.2347 16.3239C69.2987 16.2552 69.3766 16.2004 69.4634 16.1629C69.5503 16.1253 69.6442 16.106 69.7392 16.106C69.8341 16.106 69.9281 16.1253 70.0149 16.1629C70.1018 16.2004 70.1797 16.2552 70.2436 16.3239C70.3075 16.3925 70.3561 16.4735 70.3861 16.5615C70.4162 16.6495 70.4271 16.7428 70.4182 16.8352Z" fill="#DA840D"/>
<path d="M74.2871 15.6563C74.2871 15.9041 73.9189 16.1046 73.4542 16.1046C72.9894 16.1046 72.6152 15.9041 72.6152 15.6563C72.6152 15.4086 72.9894 15.208 73.4542 15.208C73.9189 15.208 74.2871 15.4086 74.2871 15.6563Z" fill="#DA840D"/>
<path d="M93.9335 15.5795C93.9335 20.2278 87.7771 24.6755 78.452 27.4362C71.624 29.3725 64.5451 30.3322 57.4357 30.2853C50.0299 30.2853 43.9459 28.38 37.8016 27.9258C27.553 27.1472 20.8171 19.8444 20.8171 15.0545C20.8171 7.43325 37.5058 2.66699 57.4357 2.66699C77.3656 2.66699 93.9335 7.95825 93.9335 15.5795Z" fill="#E3AC8A"/>
<path d="M93.4752 14.5703C93.4752 22.1916 77.3116 28.3677 57.3757 28.3677C37.4398 28.3677 21.2822 22.1916 21.2822 14.5703C21.2822 6.94903 37.4217 0.772949 57.3757 0.772949C77.3297 0.772949 93.4752 6.94903 93.4752 14.5703Z" fill="#DA840D"/>
<path d="M83.6369 13.2663C83.6369 18.9173 71.644 23.5007 56.8565 23.5007C42.0691 23.5007 30.0762 18.9173 30.0762 13.2663C30.0762 7.61517 42.0631 3.02588 56.8565 3.02588C71.65 3.02588 83.6369 7.60927 83.6369 13.2663Z" fill="#F0A508"/>
<path d="M38.8279 17.042C38.8279 17.6319 38.1459 18.1451 37.3069 18.1451C36.4679 18.1451 35.7859 17.6496 35.7859 17.042C35.7859 16.4345 36.4679 15.939 37.3069 15.939C38.1459 15.939 38.8279 16.4286 38.8279 17.042Z" fill="#DA840D"/>
<path d="M35.7853 12.4003C35.7782 12.5631 35.7223 12.7203 35.6246 12.8524C35.5269 12.9844 35.3916 13.0855 35.2356 13.1431C35.0796 13.2006 34.9098 13.2121 34.7471 13.1761C34.5845 13.1402 34.4363 13.0583 34.3208 12.9407C34.2054 12.8231 34.1279 12.6749 34.0979 12.5146C34.0679 12.3543 34.0867 12.1889 34.1521 12.039C34.2174 11.8891 34.3264 11.7612 34.4654 11.6713C34.6045 11.5814 34.7675 11.5334 34.9343 11.5332C35.0484 11.5355 35.161 11.5598 35.2655 11.6046C35.3701 11.6494 35.4646 11.7139 35.5436 11.7945C35.6226 11.875 35.6847 11.9699 35.7261 12.0739C35.7676 12.1778 35.7877 12.2888 35.7853 12.4003Z" fill="#DA840D"/>
<path d="M46.3721 18.3807C46.3902 18.6661 46.3202 18.9503 46.1712 19.1964C46.0221 19.4425 45.8008 19.6392 45.536 19.7609C45.2712 19.8826 44.9751 19.9238 44.6861 19.8792C44.397 19.8345 44.1284 19.706 43.915 19.5103C43.7015 19.3147 43.5532 19.0609 43.4891 18.7818C43.425 18.5028 43.4481 18.2114 43.5555 17.9453C43.6629 17.6793 43.8496 17.4509 44.0913 17.2898C44.3331 17.1286 44.6188 17.0422 44.9115 17.0417C45.2867 17.0305 45.6511 17.1652 45.9249 17.4162C46.1987 17.6672 46.3595 18.014 46.3721 18.3807Z" fill="#DA840D"/>
<path d="M43.1738 13.066C43.1738 13.4317 42.7573 13.7325 42.2443 13.7325C41.7312 13.7325 41.3208 13.4317 41.3208 13.066C41.3208 12.7003 41.7373 12.3994 42.2503 12.3994C42.7633 12.3994 43.1738 12.6944 43.1738 13.066Z" fill="#DA840D"/>
<path d="M52.5107 16.2267C52.5315 16.4107 52.4946 16.5966 52.405 16.7597C52.3153 16.9228 52.1771 17.0554 52.0087 17.1401C51.8402 17.2248 51.6494 17.2575 51.4615 17.2339C51.2737 17.2103 51.0975 17.1315 50.9565 17.0079C50.8154 16.8844 50.716 16.7219 50.6715 16.5419C50.627 16.362 50.6394 16.1731 50.7071 16.0002C50.7748 15.8273 50.8946 15.6785 51.0507 15.5736C51.2068 15.4687 51.3918 15.4126 51.5812 15.4127C51.8146 15.4014 52.0431 15.4806 52.2172 15.633C52.3912 15.7854 52.4967 15.9987 52.5107 16.2267Z" fill="#DA840D"/>
<path d="M52.8608 21.1349C52.8608 21.5124 52.4141 21.8192 51.8589 21.8192C51.3036 21.8192 50.8569 21.5124 50.8569 21.1349C50.8569 20.7574 51.3036 20.4565 51.8589 20.4565C52.4141 20.4565 52.8608 20.7633 52.8608 21.1349Z" fill="#DA840D"/>
<path d="M48.8895 13.8156C48.8801 13.952 48.8301 14.0828 48.7457 14.1919C48.6612 14.3009 48.546 14.3835 48.4143 14.4295C48.2825 14.4755 48.1398 14.4828 48.0038 14.4506C47.8678 14.4184 47.7444 14.3481 47.6487 14.2483C47.553 14.1485 47.4893 14.0236 47.4653 13.8889C47.4412 13.7542 47.458 13.6155 47.5135 13.49C47.569 13.3644 47.6608 13.2575 47.7776 13.1822C47.8945 13.107 48.0313 13.0667 48.1712 13.0664C48.2687 13.0695 48.3647 13.0913 48.4535 13.1306C48.5424 13.1699 48.6225 13.2259 48.6892 13.2955C48.7559 13.3651 48.8079 13.4468 48.8423 13.536C48.8767 13.6253 48.8927 13.7203 48.8895 13.8156Z" fill="#DA840D"/>
<path d="M59.2587 15.2546C59.2587 15.6321 58.8241 15.9388 58.287 15.9388C57.7498 15.9388 57.3394 15.6321 57.3394 15.2546C57.3394 14.8771 57.7739 14.5703 58.3111 14.5703C58.8483 14.5703 59.2587 14.8771 59.2587 15.2546Z" fill="#DA840D"/>
<path d="M59.2587 18.7874C59.2587 19.0115 58.8241 19.1944 58.287 19.1944C57.7498 19.1944 57.3394 19.0115 57.3394 18.7874C57.3394 18.5632 57.7739 18.3804 58.3111 18.3804C58.8483 18.3804 59.2587 18.5632 59.2587 18.7874Z" fill="#DA840D"/>
<path d="M65.8315 16.4876C65.8315 16.7943 65.4332 17.0421 64.9503 17.0421C64.4674 17.0421 64.0691 16.7943 64.0691 16.4876C64.0691 16.1808 64.4674 15.939 64.9503 15.939C65.4332 15.939 65.8315 16.1867 65.8315 16.4876Z" fill="#DA840D"/>
<path d="M64.7814 20.4271C64.7292 20.623 64.612 20.7964 64.4482 20.9202C64.2844 21.0439 64.0831 21.1111 63.8761 21.1111C63.669 21.1111 63.4677 21.0439 63.3039 20.9202C63.1401 20.7964 63.0229 20.623 62.9707 20.4271C63.0229 20.2313 63.1401 20.0579 63.3039 19.9341C63.4677 19.8103 63.669 19.7432 63.8761 19.7432C64.0831 19.7432 64.2844 19.8103 64.4482 19.9341C64.612 20.0579 64.7292 20.2313 64.7814 20.4271Z" fill="#DA840D"/>
<path d="M72.0964 19.2895C72.1238 19.4262 72.12 19.5672 72.0851 19.7024C72.0502 19.8375 71.9851 19.9634 71.8945 20.071C71.8039 20.1786 71.6901 20.2653 71.5611 20.3248C71.4322 20.3844 71.2913 20.4152 71.1488 20.4152C71.0062 20.4152 70.8653 20.3844 70.7364 20.3248C70.6074 20.2653 70.4936 20.1786 70.403 20.071C70.3124 19.9634 70.2473 19.8375 70.2124 19.7024C70.1775 19.5672 70.1737 19.4262 70.2011 19.2895C70.1688 19.1504 70.169 19.0061 70.2015 18.8671C70.2341 18.7281 70.2983 18.598 70.3893 18.4866C70.4803 18.3752 70.5959 18.2852 70.7273 18.2233C70.8588 18.1615 71.0028 18.1294 71.1488 18.1294C71.2947 18.1294 71.4387 18.1615 71.5702 18.2233C71.7016 18.2852 71.8172 18.3752 71.9082 18.4866C71.9992 18.598 72.0634 18.7281 72.096 18.8671C72.1285 19.0061 72.1287 19.1504 72.0964 19.2895Z" fill="#DA840D"/>
<path d="M71.565 14.1688C71.565 14.3989 71.2632 14.5876 70.883 14.5876C70.5027 14.5876 70.2009 14.3989 70.2009 14.1688C70.2009 13.9388 70.5027 13.75 70.883 13.75C71.2632 13.75 71.565 13.9211 71.565 14.1688Z" fill="#DA840D"/>
<path d="M77.3651 15.3846C77.3651 16.2989 76.9487 17.0422 76.4357 17.0422C75.9226 17.0422 75.5122 16.2989 75.5122 15.3846C75.5122 14.4703 75.9226 13.7329 76.4357 13.7329C76.9487 13.7329 77.3651 14.4703 77.3651 15.3846Z" fill="#DA840D"/>
<path d="M79.6711 13.7095C79.6699 13.7956 79.6427 13.8794 79.5929 13.9504C79.5431 14.0214 79.4729 14.0764 79.3912 14.1086C79.3095 14.1407 79.2199 14.1485 79.1337 14.131C79.0474 14.1135 78.9684 14.0715 78.9065 14.0102C78.8447 13.9489 78.8027 13.8711 78.786 13.7866C78.7692 13.7021 78.7784 13.6146 78.8124 13.5352C78.8464 13.4558 78.9036 13.388 78.9769 13.3403C79.0502 13.2926 79.1364 13.2671 79.2244 13.2671C79.3434 13.2686 79.457 13.3159 79.5406 13.3987C79.6242 13.4815 79.6711 13.5932 79.6711 13.7095Z" fill="#DA840D"/>
<path d="M64.4612 12.2932C64.4612 12.7179 63.8999 13.066 63.1998 13.066C62.4996 13.066 61.9443 12.7179 61.9443 12.2932C61.9443 11.8685 62.5057 11.5264 63.1998 11.5264C63.8939 11.5264 64.4612 11.8685 64.4612 12.2932Z" fill="#DA840D"/>
<path d="M40.8016 8.32351C40.8016 8.58306 40.3609 8.79542 39.8117 8.79542C39.2624 8.79542 38.8279 8.58306 38.8279 8.32351C38.8279 8.06396 39.2685 7.8457 39.8117 7.8457C40.3549 7.8457 40.8016 8.05806 40.8016 8.32351Z" fill="#DA840D"/>
<path d="M46.5956 7.37328C46.5956 7.63872 46.0946 7.84518 45.473 7.84518C44.8513 7.84518 44.3503 7.63872 44.3503 7.37328C44.3503 7.10783 44.8573 6.90137 45.473 6.90137C46.0886 6.90137 46.5956 7.09013 46.5956 7.37328Z" fill="#DA840D"/>
<path d="M53.8868 8.52997C53.8868 8.90749 53.2108 9.21423 52.3719 9.21423C51.5329 9.21423 50.8569 8.90749 50.8569 8.52997C50.8569 8.15244 51.5329 7.8457 52.3719 7.8457C53.2108 7.8457 53.8868 8.15244 53.8868 8.52997Z" fill="#DA840D"/>
<path d="M59.2583 7.3738C59.2595 7.46854 59.2318 7.56149 59.1788 7.64084C59.1258 7.72019 59.0499 7.78234 58.9607 7.81941C58.8715 7.85648 58.773 7.86679 58.6777 7.84903C58.5825 7.83126 58.4948 7.78623 58.4259 7.71965C58.3569 7.65307 58.3097 7.56794 58.2904 7.4751C58.271 7.38226 58.2803 7.28589 58.3171 7.19824C58.354 7.11059 58.4166 7.03561 58.4971 6.98284C58.5777 6.93008 58.6724 6.9019 58.7694 6.90189C58.8333 6.90111 58.8967 6.91274 58.956 6.93611C59.0153 6.95947 59.0692 6.99411 59.1147 7.03801C59.1602 7.08191 59.1963 7.13419 59.2209 7.19183C59.2456 7.24948 59.2583 7.31133 59.2583 7.3738Z" fill="#DA840D"/>
<path d="M58.2864 11.1073C58.2864 11.3374 57.8216 11.5262 57.2543 11.5262C56.6869 11.5262 56.2222 11.3374 56.2222 11.1073C56.2222 10.8773 56.6869 10.6826 57.2543 10.6826C57.8216 10.6826 58.2864 10.8714 58.2864 11.1073Z" fill="#DA840D"/>
<path d="M66.3507 7.16757C66.3543 7.3036 66.3164 7.4376 66.2417 7.55243C66.1669 7.66726 66.0589 7.75771 65.9313 7.81222C65.8037 7.86674 65.6624 7.88284 65.5254 7.85847C65.3885 7.8341 65.262 7.77036 65.1623 7.67541C65.0625 7.58046 64.994 7.4586 64.9655 7.3254C64.937 7.19221 64.9498 7.05373 65.0022 6.92766C65.0546 6.8016 65.1443 6.69367 65.2598 6.61767C65.3753 6.54167 65.5114 6.50105 65.6506 6.501C65.8337 6.49942 66.0099 6.56858 66.1411 6.69342C66.2722 6.81827 66.3476 6.98868 66.3507 7.16757Z" fill="#DA840D"/>
<path d="M70.2007 9.95162C70.2007 10.0637 69.8386 10.1581 69.398 10.1581C68.9574 10.1581 68.5952 10.0637 68.5952 9.95162C68.5952 9.83954 68.9574 9.73926 69.398 9.73926C69.8386 9.73926 70.2007 9.83364 70.2007 9.95162Z" fill="#DA840D"/>
<path d="M72.7059 8.559C72.7209 8.62089 72.7159 8.68582 72.6915 8.74479C72.6671 8.80376 72.6245 8.85385 72.5697 8.88814C72.5149 8.92243 72.4505 8.93921 72.3855 8.93616C72.3205 8.93312 72.258 8.91039 72.2068 8.87113C72.1556 8.83188 72.1182 8.77803 72.0996 8.71705C72.0811 8.65607 72.0825 8.59097 72.1035 8.53076C72.1245 8.47056 72.1641 8.41823 72.2169 8.38101C72.2697 8.3438 72.333 8.32354 72.3981 8.32305C72.4706 8.31624 72.543 8.33695 72.6003 8.38087C72.6576 8.4248 72.6954 8.48857 72.7059 8.559Z" fill="#DA840D"/>
<path d="M70.201 9.95171C70.187 10.0796 70.1355 10.2009 70.0525 10.3008C69.9696 10.4007 69.8589 10.4751 69.7337 10.5148C69.6085 10.5546 69.4742 10.5581 69.347 10.525C69.2198 10.4918 69.1052 10.4234 69.0169 10.3279C68.9286 10.2325 68.8705 10.1141 68.8495 9.9871C68.8286 9.86009 68.8456 9.72985 68.8987 9.61212C68.9518 9.49439 69.0386 9.39419 69.1487 9.32361C69.2587 9.25303 69.3873 9.21508 69.519 9.21436C69.6133 9.21889 69.7059 9.24157 69.7912 9.2811C69.8766 9.32063 69.9532 9.37624 70.0165 9.44473C70.0799 9.51323 70.1288 9.59327 70.1604 9.68026C70.1921 9.76726 70.2059 9.8595 70.201 9.95171Z" fill="#DA840D"/>
<path d="M74.0696 8.76566C74.0696 9.01341 73.6954 9.21397 73.2367 9.21397C72.778 9.21397 72.3977 9.01341 72.3977 8.76566C72.3977 8.5179 72.7719 8.32324 73.2367 8.32324C73.7014 8.32324 74.0696 8.5179 74.0696 8.76566Z" fill="#DA840D"/>
<path d="M62.8555 45.6279C62.7188 45.1184 62.4005 44.6733 61.9579 44.3727C61.5153 44.0721 60.9775 43.9357 60.4412 43.988C56.8198 44.2417 56.518 50.17 57.7915 52.7596C58.1707 53.0461 58.6476 53.1801 59.1245 53.134C59.6015 53.088 60.0423 52.8653 60.3567 52.5118C61.5156 51.2436 61.8838 49.409 62.2942 47.7927C62.4954 47.077 62.6825 46.3554 62.8555 45.6279Z" fill="#EEBE30"/>
<path d="M89.7387 14.8238C88.4795 14.3482 87.3182 13.6548 86.3105 12.7769C85.1061 11.6355 83.9961 10.4028 82.9908 9.09016C81.488 7.28512 79.303 6.57726 77.0095 6.31181C74.4564 6.01097 71.8188 6.56546 69.2476 6.43569C67.8687 6.39899 66.5173 6.04964 65.3002 5.41519C64.0931 4.74272 63.1455 3.64554 62.1134 2.69582C60.0914 0.926174 57.5263 0.926174 54.9732 0.525053C53.282 0.23329 51.5714 0.0617741 49.8549 0.0118546C48.0985 -0.0294372 45.0263 -0.0530325 43.8494 1.58094C42.5457 2.17083 42.087 3.73992 41.7912 5.06126C41.6246 6.15154 41.36 7.22534 41.0005 8.27022C40.4643 9.45856 39.6347 10.4983 38.5863 11.2963C36.2867 13.1663 33.4438 14.1691 30.8425 15.4727C28.73 16.5286 26.1407 18.0269 25.0059 20.1446C24.3239 21.4128 24.4024 23.5836 25.6095 24.5215C27.1003 25.6423 28.235 23.5305 28.5549 22.4628C28.8507 21.4954 28.9593 20.5103 29.7621 19.7847C30.8435 18.8672 32.1289 18.2088 33.5163 17.8617C34.6812 17.5432 35.9305 17.5432 37.0773 17.1952C38.4539 16.6887 39.7487 15.9914 40.9221 15.1247C42.2982 14.228 43.6381 13.355 45.2738 12.9657C46.6318 12.659 48.7323 12.7061 49.8006 13.7207C50.3865 14.4143 50.8906 15.1702 51.3035 15.9741C51.854 16.7239 52.5833 17.3313 53.428 17.7438C55.1301 18.6935 57.0796 19.1123 58.8601 19.9735C59.4555 20.276 59.9687 20.7128 60.357 21.2477C60.4174 21.3361 60.4717 21.4246 60.526 21.519C60.5698 21.5858 60.6101 21.6547 60.6467 21.7255C62.5902 25.2294 60.1457 28.9397 60.2121 32.6383C60.2121 34.6321 61.6909 37.8942 64.1897 36.2956C64.3587 36.1894 64.5156 36.0714 64.6725 35.9535C64.9562 33.3698 65.1855 30.7212 66.103 28.285C66.9661 26.0198 68.143 23.9257 68.0163 21.4305C67.9439 20.0561 67.2739 18.7937 67.1109 17.437C66.8816 15.5494 68.6199 14.6941 70.1831 14.3224C72.4135 13.7423 74.7777 13.9 76.9069 14.7707C80.9146 16.3811 84.1497 19.7022 88.604 20.2508C90.3665 20.469 92.9196 20.1977 93.6197 18.3159C94.3198 16.4342 90.9942 15.3488 89.7387 14.8238Z" fill="#EEBE30"/>
<path opacity="0.5" d="M65.2155 17.2845C65.0327 16.6487 64.6951 16.0655 64.2315 15.5847C63.768 15.104 63.1924 14.74 62.5538 14.5239C61.6363 14.2879 60.1878 14.8837 60.3024 15.9691C60.3041 15.9908 60.3103 16.012 60.3207 16.0312C60.3311 16.0505 60.3454 16.0675 60.3628 16.0812C59.7592 17.3376 61.5096 19.5025 62.1132 20.4227C62.5552 21.0119 62.8339 21.7028 62.9219 22.4283C63.0246 23.3662 62.7167 24.2923 62.8073 25.2185C62.8435 25.6314 63.1634 27.3951 64.0144 26.6873C64.9862 25.885 65.0888 24.0682 65.288 22.9238C65.6895 21.0618 65.6647 19.1361 65.2155 17.2845Z" fill="white"/>
<path opacity="0.5" d="M82.7673 11.1782C81.7804 9.57812 80.2071 8.40541 78.3672 7.89842C76.5082 7.37343 72.0479 6.80714 71.5771 9.46751C71.5732 9.52122 71.5869 9.57475 71.6162 9.62036C71.6455 9.66596 71.6888 9.70126 71.74 9.72116C71.8591 9.806 71.9648 9.90734 72.0539 10.022C72.0792 10.0701 72.1193 10.1093 72.1686 10.1341C72.2173 10.1512 72.2707 10.1512 72.3195 10.1341C72.6641 10.4427 73.0773 10.6689 73.5266 10.7948C74.6331 11.0343 75.7614 11.1647 76.8945 11.1841C78.4638 11.3315 79.339 11.9922 80.4314 13.0186C81.035 13.6085 82.6888 14.8473 83.5398 13.9093C84.1917 13.2487 83.1234 11.7209 82.7673 11.1782Z" fill="white"/>
<path opacity="0.5" d="M29.1286 18.5879C28.864 18.5556 28.5964 18.5556 28.3318 18.5879C28.3329 18.5763 28.3313 18.5646 28.327 18.5537C28.3227 18.5428 28.316 18.533 28.3072 18.525C28.2985 18.5171 28.288 18.5111 28.2766 18.5077C28.2652 18.5043 28.2531 18.5035 28.2413 18.5054C27.8002 18.5741 27.3814 18.742 27.0179 18.9959C26.6545 19.2497 26.3563 19.5826 26.1469 19.9683C26.0021 20.2632 25.7184 21.2955 26.3401 21.3486C26.9618 21.4017 27.4506 20.7587 27.8007 20.4225C28.3081 19.9107 28.7876 19.3731 29.2372 18.8121C29.2505 18.7911 29.2583 18.7672 29.2597 18.7426C29.2612 18.718 29.2563 18.6934 29.2455 18.671C29.2346 18.6487 29.2183 18.6294 29.1979 18.6149C29.1774 18.6004 29.1536 18.5911 29.1286 18.5879Z" fill="white"/>
<path opacity="0.5" d="M101.931 52.6002C101.396 52.4889 100.844 52.4837 100.307 52.5849C99.7696 52.686 99.2589 52.8915 98.8047 53.1891C98.3505 53.4867 97.962 53.8704 97.6623 54.3174C97.3626 54.7644 97.1577 55.2656 97.0599 55.7914C97.0563 55.8104 97.057 55.8298 97.0621 55.8484C97.0671 55.867 97.0763 55.8842 97.0891 55.8989C97.1018 55.9136 97.1176 55.9253 97.1356 55.9332C97.1535 55.9412 97.173 55.9451 97.1926 55.9448C97.1955 55.9841 97.1955 56.0235 97.1926 56.0628C96.9814 56.983 95.8648 57.4077 95.1586 57.797C94.6335 58.0802 94.0903 58.3338 93.5471 58.5934C91.7364 59.49 88.8875 60.6462 88.3262 63.0234C88.3172 63.0493 88.3164 63.0772 88.324 63.1035C88.3315 63.1298 88.347 63.1533 88.3684 63.1709C89.4549 63.9023 90.7043 62.811 91.5553 62.1268C93.2727 60.7968 95.2868 59.8813 97.4341 59.4546C99.8121 58.9473 104.248 59.1007 105.105 55.9153C105.625 53.9392 103.325 52.842 101.931 52.6002Z" fill="white"/>
<path d="M63.0306 6.84825C62.8194 6.55921 62.2822 5.93983 61.92 5.89854C61.7148 5.89854 61.6364 5.49742 61.4432 5.55641C61.2501 5.61539 60.9543 5.76287 60.6887 5.55641C60.5996 5.47532 60.5049 5.40042 60.4051 5.33225C60.3496 5.29422 60.2862 5.26867 60.2194 5.25746C60.1526 5.24624 60.0841 5.24962 60.0188 5.26736C59.8498 5.33225 59.7834 5.58 59.5782 5.42073C59.373 5.26146 58.8841 5.50332 58.7634 5.73927C58.7227 5.80399 58.6902 5.87332 58.6668 5.94573C57.9485 6.04601 57.2242 7.1255 56.9526 7.6269C56.6987 8.10942 56.5801 8.64904 56.6087 9.19091C56.6373 9.73278 56.8122 10.2576 57.1156 10.712C57.7735 11.8092 59.1134 11.9566 60.2964 11.992C60.7626 12.0448 61.2348 12.0047 61.6846 11.8741C62.1007 11.6957 62.461 11.4128 62.7288 11.0541C63.9239 9.61481 64.1532 8.36425 63.0306 6.84825Z" fill="#48264C"/>
<path d="M63.0308 6.84884C62.8248 6.56505 62.5813 6.30918 62.3065 6.08789C62.3317 7.06264 62.0096 8.01566 61.3952 8.78393C60.7809 9.55221 59.9125 10.088 58.9386 10.2997C58.2518 10.4472 57.5381 10.4249 56.8623 10.2348C56.9346 10.4056 57.0193 10.5712 57.1158 10.7303C57.7737 11.8275 59.1136 11.9749 60.2966 12.0103C60.7628 12.0631 61.235 12.023 61.6848 11.8923C62.1009 11.714 62.4612 11.4311 62.729 11.0724C63.9241 9.61539 64.1534 8.36484 63.0308 6.84884Z" fill="#300D33"/>
<path d="M64.0929 65.565C63.8989 65.0779 63.586 64.6446 63.1816 64.3026C63.1152 63.9369 63.0307 63.5771 62.9522 63.2114C62.9459 63.1756 62.9315 63.1417 62.9101 63.1122C62.8886 63.0826 62.8606 63.0581 62.8281 63.0406C62.7957 63.023 62.7596 63.0128 62.7226 63.0107C62.6855 63.0086 62.6485 63.0147 62.6142 63.0285C62.071 63.2762 61.9503 62.9577 61.5761 62.6687C61.5162 62.6327 61.4472 62.6136 61.3769 62.6136C61.3066 62.6136 61.2376 62.6327 61.1777 62.6687C60.5741 63.0698 59.9344 62.1201 59.4636 62.6687C59.1882 63.0821 58.8837 63.4763 58.5522 63.8484C58.1603 64.0905 57.7997 64.3777 57.4778 64.7038C57.2465 64.9047 57.0436 65.1348 56.8743 65.388C56.806 65.4949 56.7436 65.6051 56.6872 65.7184C56.6389 65.8245 56.5966 65.9366 56.5604 66.0428C56.5578 66.0545 56.5578 66.0665 56.5604 66.0782C56.3161 66.8489 56.3309 67.6758 56.6027 68.4377C57.0614 69.8004 58.5099 70.2841 59.8076 70.5967C60.3096 70.7655 60.8413 70.8337 61.3708 70.7973C61.8774 70.6957 62.3478 70.4658 62.7349 70.1307C64.4008 68.8329 64.956 67.5057 64.0929 65.565Z" fill="#48264C"/>
<path d="M64.0931 65.5649C63.9388 65.2038 63.7358 64.8646 63.4895 64.5562C63.2765 65.6402 62.6842 66.618 61.8143 67.3219C60.9443 68.0258 59.8508 68.4119 58.7214 68.414C57.9223 68.4155 57.1358 68.2208 56.4338 67.8477C56.472 68.0477 56.5245 68.2448 56.5908 68.4376C57.0495 69.8002 58.498 70.2839 59.7957 70.5966C60.2977 70.7653 60.8294 70.8335 61.3589 70.7971C61.8655 70.6956 62.3359 70.4657 62.723 70.1306C64.4009 68.8328 64.9562 67.5056 64.0931 65.5649Z" fill="#300D33"/>
<path d="M53.1803 5.8222C52.9932 5.46237 52.5104 4.67783 52.112 4.56575C51.9068 4.51266 51.9068 4.14103 51.7076 4.10564C51.6473 3.57474 51.3998 3.02025 50.7661 3.13233C50.6212 3.13233 50.2349 3.52755 50.084 3.3034C50.01 3.17096 49.8902 3.06853 49.746 3.01435C49.4503 2.90228 49.1908 3.15593 49.0218 3.35059C48.7381 3.67502 48.3759 3.19722 48.0078 3.35059C47.8315 3.45225 47.6879 3.6 47.593 3.77718C47.4981 3.95436 47.4557 4.15393 47.4706 4.35339C47.4706 4.38878 47.4706 4.41238 47.4706 4.44777C47.0151 4.78541 46.6089 5.18234 46.2635 5.62754C45.8898 6.11879 45.6561 6.69805 45.5862 7.30631C45.5162 7.91457 45.6124 8.53009 45.8651 9.09016C46.3962 10.4292 47.8689 10.8598 49.1787 11.0899C49.6729 11.2259 50.1888 11.2699 50.6997 11.2196C51.1975 11.0914 51.6529 10.8394 52.0215 10.4882C53.6572 9.06656 54.14 7.71573 53.1803 5.8222Z" fill="#48264C"/>
<path d="M53.1805 5.82149C52.9992 5.46939 52.7742 5.1405 52.5105 4.84229C52.3596 5.9406 51.8224 6.95335 50.9909 7.70678C50.1594 8.46022 49.0855 8.90735 47.9536 8.97147C47.1589 9.01168 46.3664 8.85759 45.6479 8.52316C45.6959 8.72389 45.7584 8.92101 45.8351 9.11304C46.3662 10.4521 47.8389 10.8827 49.1486 11.1127C49.654 11.2446 50.1806 11.2806 50.6998 11.2189C51.1976 11.0907 51.653 10.8387 52.0216 10.4875C53.6573 9.06585 54.1401 7.71502 53.1805 5.82149Z" fill="#300D33"/>
<path d="M76.6529 10.5888C76.4658 10.1346 75.9527 9.13767 75.494 8.9725C75.2345 8.88402 75.2466 8.34722 74.981 8.38261C74.6188 8.41801 74.2748 8.51239 73.9911 8.17616C73.9013 8.04209 73.8025 7.914 73.6954 7.79273C73.6367 7.72379 73.5627 7.66884 73.4791 7.63204C73.3954 7.59524 73.3042 7.57757 73.2125 7.58037C72.9711 7.62166 72.8081 7.9402 72.609 7.65706C72.3253 7.27953 71.6795 7.56268 71.4501 7.84582C71.3792 7.92188 71.3165 8.0049 71.263 8.09357C70.2973 8.01689 69.0238 9.27334 68.5228 9.86322C68.0451 10.4481 67.7279 11.1423 67.6012 11.8803C67.4744 12.6183 67.5424 13.3757 67.7985 14.0809C68.3176 15.7621 70.0257 16.3696 71.5467 16.7767C72.1266 16.9795 72.7425 17.0657 73.3574 17.0303C73.9593 16.9112 74.5164 16.6338 74.9689 16.2281C76.9969 14.6 77.6729 12.9896 76.6529 10.5888Z" fill="#48264C"/>
<path d="M76.6532 10.5889C76.4706 10.1462 76.2313 9.728 75.941 9.34424C75.7056 10.6483 75.0105 11.8306 73.9764 12.6861C72.9423 13.5416 71.6343 14.0164 70.2795 14.0279C69.3406 14.0218 68.4194 13.7779 67.6057 13.3201C67.6461 13.5696 67.7046 13.816 67.7807 14.0574C68.2998 15.7386 70.0079 16.3462 71.5289 16.7532C72.1089 16.956 72.7247 17.0423 73.3396 17.0068C73.9415 16.8877 74.4987 16.6103 74.9511 16.2046C76.9972 14.6001 77.6732 12.9897 76.6532 10.5889Z" fill="#300D33"/>
<path d="M75.7661 60.5215C75.5307 59.9965 74.909 58.8522 74.3598 58.6693C74.0459 58.569 74.0459 57.9437 73.7562 57.9791C73.3277 58.0263 72.9172 58.1384 72.5491 57.755C72.4403 57.5985 72.3192 57.4506 72.1869 57.3126C72.111 57.2314 72.0172 57.168 71.9127 57.1272C71.8082 57.0863 71.6956 57.069 71.5834 57.0766C71.2937 57.1238 71.1005 57.4895 70.841 57.171C70.4909 56.7345 69.7244 57.0707 69.4467 57.3951C69.3637 57.487 69.289 57.5856 69.2234 57.6901C68.0646 57.6075 66.5496 59.0822 65.9521 59.7429C65.388 60.4123 65.015 61.2155 64.8708 62.0712C64.7267 62.9268 64.8165 63.8045 65.1312 64.6153C65.777 66.5502 67.8352 67.2285 69.664 67.6768C70.3776 67.9149 71.1332 68.0092 71.8851 67.9541C72.6006 67.8135 73.265 67.4898 73.8105 67.0162C76.2007 65.1403 76.9853 63.2645 75.7661 60.5215Z" fill="#48264C"/>
<path d="M75.7664 60.5223C75.5428 60.009 75.2505 59.527 74.8972 59.0889C74.594 60.6228 73.7556 62.0065 72.525 63.0037C71.2944 64.0009 69.7479 64.5499 68.1493 64.5571C67.0238 64.5587 65.9158 64.285 64.9263 63.7607C64.9743 64.0513 65.047 64.3373 65.1436 64.6161C65.7894 66.5509 67.8475 67.2293 69.6764 67.6776C70.39 67.9156 71.1456 68.01 71.8975 67.9548C72.6129 67.8142 73.2773 67.4906 73.8229 67.0169C76.2009 65.1411 76.9856 63.2652 75.7664 60.5223Z" fill="#300D33"/>
<path d="M48.473 56.2751C48.473 56.2751 50.0845 55.6852 51.0201 57.7675C51.9556 59.8498 52.2936 61.8967 53.2291 62.87C53.4863 63.0885 53.689 63.3615 53.8218 63.6682C53.9546 63.9749 54.0141 64.3071 53.9957 64.6396C53.9957 64.6396 51.3581 63.2298 50.6821 62.4807C49.679 61.4629 48.8203 60.3181 48.129 59.077C47.3685 57.5787 46.8313 56.1748 46.8313 56.1748L48.473 56.2751Z" fill="#5F825C"/>
<path d="M47.8393 55.9085C47.8393 55.9085 48.2437 54.2746 46.0286 53.608C43.8135 52.9414 41.6829 52.8412 40.5965 52.0448C40.3422 51.8181 40.0378 51.6517 39.707 51.5586C39.3762 51.4655 39.028 51.4482 38.6892 51.508C38.6892 51.508 40.4215 53.9088 41.2604 54.4574C42.4118 55.3112 43.6743 56.0114 45.0146 56.5397C46.6201 57.1296 48.1109 57.4717 48.1109 57.4717L47.8393 55.9085Z" fill="#5F825C"/>
<path d="M47.5255 56.7062C47.5255 56.7062 50.5011 58.7826 50.4166 61.6081C50.3321 64.4337 50.3321 65.8435 48.6059 67.4185C46.8797 68.9935 43.5963 69.0819 41.8942 69.8252C40.1921 70.5684 38.1581 71.2409 37.6692 71.6538C37.1803 72.0667 36.1422 72.4856 34.6151 71.6538C33.0881 70.8221 32.2009 70.9106 32.4906 68.5805C32.9237 65.582 33.6638 62.6335 34.6996 59.7795C35.5446 57.6205 36.2931 55.957 38.6832 55.2964C40.9744 54.7208 43.3956 54.8948 45.576 55.7919C47.0789 56.541 47.5255 56.7062 47.5255 56.7062Z" fill="#ED6366"/>
<path d="M32.8462 66.3335C34.1969 66.8294 35.6282 67.0832 37.0711 67.0826C42.9861 67.0826 47.7784 63.0183 47.7784 58.0102C47.78 57.5974 47.7477 57.1851 47.6819 56.7773C48.3217 57.2787 50.4643 59.1369 50.3919 61.5436C50.3074 64.3633 50.3074 65.779 48.5812 67.354C46.855 68.929 43.5716 69.0175 41.8695 69.7607C40.1674 70.504 38.1334 71.1764 37.6445 71.5893C37.1556 72.0023 36.1175 72.4211 34.5905 71.5893C33.0634 70.7576 32.1762 70.8402 32.4659 68.516C32.5564 67.9026 32.6832 67.1534 32.8462 66.3335Z" fill="#C73A54"/>
<path d="M48.8466 62.8994C49.251 62.9525 49.3476 62.2741 49.3778 61.7786C49.4085 61.6545 49.4085 61.5251 49.3778 61.4011V61.3598C49.3778 61.3126 49.3114 61.3008 49.3054 61.3598C49.2917 61.3609 49.2785 61.3652 49.2669 61.3724C49.2554 61.3796 49.2458 61.3894 49.239 61.4011C49.1665 61.5603 48.2853 62.8286 48.8466 62.8994Z" fill="#E7D8C8"/>
<path d="M48.0018 60.3397C48.0074 60.347 48.0147 60.353 48.0231 60.357C48.0315 60.3611 48.0407 60.3633 48.0501 60.3633C48.0595 60.3633 48.0687 60.3611 48.0771 60.357C48.0855 60.353 48.0928 60.347 48.0984 60.3397C48.2169 60.2452 48.3129 60.1266 48.3796 59.9921C48.4463 59.8576 48.4822 59.7105 48.4847 59.561C48.5171 59.48 48.5355 59.3943 48.539 59.3073C48.5402 59.2949 48.538 59.2825 48.5327 59.2712C48.5273 59.2599 48.519 59.2501 48.5086 59.2429C48.4982 59.2358 48.4861 59.2314 48.4734 59.2303C48.4607 59.2291 48.4479 59.2313 48.4364 59.2366C48.4364 59.2366 48.364 59.2366 48.37 59.2366C48.1971 59.3587 48.0683 59.5313 48.0021 59.7295C47.9359 59.9278 47.9358 60.1414 48.0018 60.3397Z" fill="#E7D8C8"/>
<path d="M46.2577 58.9991C46.6078 59.2704 46.7708 58.651 46.8613 58.244C46.913 58.1209 46.9494 57.9922 46.9699 57.8606C46.9714 57.8457 46.9679 57.8307 46.9601 57.8178C46.9523 57.8049 46.9405 57.7948 46.9264 57.7889C46.9123 57.783 46.8966 57.7816 46.8817 57.785C46.8667 57.7883 46.8533 57.7962 46.8432 57.8075C46.6742 58.0022 45.9137 58.7513 46.2577 58.9991Z" fill="#E7D8C8"/>
<path d="M46.0344 61.6311C46.0395 61.6372 46.0459 61.6422 46.0533 61.6456C46.0606 61.649 46.0686 61.6508 46.0767 61.6508C46.0848 61.6508 46.0928 61.649 46.1001 61.6456C46.1074 61.6422 46.1138 61.6372 46.1189 61.6311C46.2342 61.5215 46.3355 61.3987 46.4207 61.2653C46.6307 61.0351 46.7616 60.7463 46.7949 60.4395C46.7949 60.3923 46.7466 60.3333 46.6923 60.3569L46.5836 60.4277C46.1974 60.705 45.7387 61.2417 46.0344 61.6311Z" fill="#E7D8C8"/>
<path d="M46.6375 64.2689C46.8608 64.4046 46.9936 64.092 47.066 63.7675C47.1647 63.6019 47.2226 63.4161 47.235 63.2248C47.2362 63.2124 47.234 63.1999 47.2287 63.1886C47.2234 63.1773 47.2151 63.1676 47.2047 63.1604C47.1943 63.1532 47.1821 63.1489 47.1694 63.1477C47.1567 63.1466 47.144 63.1488 47.1324 63.154H47.06C47.06 63.154 47.06 63.154 47.06 63.1953C46.9012 63.3547 46.7761 63.5431 46.6918 63.7498C46.6315 63.8855 46.4745 64.1804 46.6375 64.2689Z" fill="#E7D8C8"/>
<path d="M47.7785 65.7302C48.02 65.8836 48.2735 65.6653 48.3821 65.453C48.4418 65.3083 48.4863 65.1581 48.5149 65.0047C48.5868 64.886 48.6302 64.7528 48.6416 64.6154C48.6561 64.6001 48.6641 64.5801 48.6641 64.5593C48.6641 64.5386 48.6561 64.5185 48.6416 64.5033V64.462C48.6416 64.4148 48.5632 64.3676 48.5149 64.4089C48.3157 64.5505 47.4104 65.4884 47.7785 65.7302Z" fill="#E7D8C8"/>
<path d="M45.4371 66.5443C45.6424 66.8216 45.8415 66.5443 45.9804 66.273C46.0655 66.1991 46.1332 66.1082 46.1791 66.0064C46.2249 65.9046 46.2477 65.7943 46.2459 65.6831C46.2457 65.6726 46.2429 65.6624 46.2378 65.6533C46.2326 65.6441 46.2253 65.6363 46.2164 65.6305C46.2075 65.6247 46.1973 65.6211 46.1867 65.62C46.1761 65.6189 46.1654 65.6203 46.1554 65.6241C45.8717 65.7303 45.1836 66.2022 45.4371 66.5443Z" fill="#E7D8C8"/>
<path d="M44.3012 63.1294C44.4762 62.9225 44.6793 62.7399 44.9048 62.5867C44.9171 62.5771 44.932 62.5713 44.9477 62.5701C44.9634 62.5689 44.9791 62.5723 44.9928 62.5799C45.0065 62.5876 45.0175 62.599 45.0244 62.6129C45.0313 62.6267 45.0338 62.6422 45.0315 62.6575C45.0252 62.7452 45.0027 62.8312 44.9651 62.9111V62.9996C44.9345 63.2462 44.8294 63.4782 44.6633 63.6662C44.5366 63.8078 44.2409 63.8785 44.1201 63.6662C43.9994 63.4538 44.1926 63.2297 44.3012 63.1294Z" fill="#E7D8C8"/>
<path d="M43.9641 61.0474C44.0124 61.2303 44.2538 61.2126 44.3745 61.1182C44.4552 61.0468 44.5208 60.9607 44.5676 60.8646C44.6798 60.7302 44.7472 60.5656 44.7608 60.3927C44.7613 60.3795 44.7587 60.3664 44.753 60.3545C44.7474 60.3426 44.7388 60.3321 44.7282 60.324C44.7176 60.316 44.7051 60.3105 44.6919 60.3081C44.6787 60.3056 44.665 60.3063 44.6521 60.3101C44.4804 60.3761 44.3273 60.4813 44.2055 60.6168C44.0969 60.7171 43.9158 60.8823 43.9641 61.0474Z" fill="#E7D8C8"/>
<path d="M45.0021 56.6413C45.0221 56.6353 45.0437 56.6368 45.0627 56.6456C45.0816 56.6543 45.0966 56.6696 45.1047 56.6885C45.1501 56.8644 45.1424 57.0494 45.0824 57.2211C45.0224 57.3928 44.9127 57.5439 44.7667 57.6559C44.7553 57.664 44.7422 57.6695 44.7283 57.6718C44.7144 57.6741 44.7001 57.6733 44.6867 57.6692C44.6732 57.6652 44.6608 57.6582 44.6506 57.6487C44.6404 57.6392 44.6326 57.6275 44.6278 57.6146C44.6094 57.5733 44.5972 57.5296 44.5916 57.4848C44.5365 57.3196 44.5483 57.14 44.6246 56.983C44.701 56.8261 44.8361 56.7037 45.0021 56.6413Z" fill="#E7D8C8"/>
<path d="M42.9194 59.885C43.1004 60.0324 43.2513 59.885 43.36 59.649C43.4979 59.5147 43.5994 59.3489 43.6552 59.1666C43.7111 58.9843 43.7196 58.7912 43.6798 58.6049C43.6717 58.5884 43.6587 58.5746 43.6427 58.5652C43.6266 58.5558 43.608 58.5511 43.5893 58.5518C43.3177 58.5872 43.0884 58.9588 42.9857 59.1417C42.8831 59.3246 42.69 59.708 42.9194 59.885Z" fill="#E7D8C8"/>
<path d="M42.8534 56.4982C42.8885 56.4561 42.9268 56.4166 42.9681 56.3802C42.9817 56.371 42.9975 56.3653 43.0139 56.3637C43.0304 56.3622 43.047 56.3648 43.0622 56.3713C43.0773 56.3778 43.0905 56.388 43.1004 56.4009C43.1104 56.4139 43.1168 56.4291 43.119 56.4451C43.136 56.5815 43.1209 56.7199 43.0749 56.8497C43.0289 56.9795 42.9531 57.0974 42.8534 57.1943C42.8545 57.21 42.8545 57.2257 42.8534 57.2415C42.835 57.2777 42.8074 57.3087 42.7733 57.3315C42.7391 57.3543 42.6996 57.3681 42.6584 57.3716C42.6172 57.3752 42.5757 57.3683 42.538 57.3517C42.5003 57.3351 42.4676 57.3094 42.443 57.2769C42.1834 57.0173 42.5516 56.6398 42.8534 56.4982Z" fill="#E7D8C8"/>
<path d="M40.8011 58.658C40.9217 58.4135 41.1125 58.2085 41.3503 58.0682C41.3641 58.0584 41.3805 58.0528 41.3975 58.0523C41.4145 58.0518 41.4312 58.0562 41.4456 58.0652C41.4599 58.0741 41.4712 58.087 41.4779 58.1023C41.4846 58.1176 41.4864 58.1344 41.4831 58.1507C41.4757 58.2605 41.4492 58.3682 41.4047 58.4693C41.4047 58.5047 41.4047 58.5401 41.4047 58.5696C41.3916 58.7001 41.3633 58.8288 41.3202 58.953C41.2814 59.0732 41.1972 59.1744 41.0848 59.2361C41.0764 59.2509 41.0642 59.2632 41.0493 59.2717C41.0345 59.2803 41.0175 59.2848 41.0003 59.2848C40.983 59.2848 40.9661 59.2803 40.9512 59.2717C40.9364 59.2632 40.9241 59.2509 40.9158 59.2361C40.6804 59.1123 40.7528 58.8055 40.8011 58.658Z" fill="#E7D8C8"/>
<path d="M40.3722 57.2308C40.382 57.2371 40.3936 57.2405 40.4054 57.2405C40.4172 57.2405 40.4287 57.2371 40.4386 57.2308C40.5191 57.1557 40.5937 57.0749 40.6619 56.989C40.8143 56.8645 40.943 56.7147 41.0422 56.5466C41.0834 56.4728 41.1003 56.3883 41.0904 56.3047V56.2634C41.0904 56.2221 41.0904 56.1926 41.0301 56.2103C41.0076 56.1836 40.9789 56.1627 40.9462 56.1493C40.9136 56.136 40.8782 56.1306 40.843 56.1336C40.4386 56.1395 40.0161 56.9418 40.3722 57.2308Z" fill="#E7D8C8"/>
<path d="M37.9345 57.9688C38.0552 58.1929 38.3389 57.9688 38.4415 57.8449C38.6059 57.6591 38.72 57.436 38.7734 57.196C38.8156 57.1156 38.8383 57.0268 38.8398 56.9365C38.8417 56.9234 38.8405 56.9101 38.8364 56.8975C38.8323 56.8849 38.8253 56.8734 38.8161 56.8638C38.8068 56.8542 38.7955 56.8467 38.7829 56.8419C38.7703 56.8371 38.7567 56.8352 38.7433 56.8362C38.6023 56.8557 38.4684 56.909 38.3536 56.9914C38.2388 57.0737 38.1467 57.1825 38.0854 57.3081C37.9827 57.4792 37.8258 57.7682 37.9345 57.9688Z" fill="#E7D8C8"/>
<path d="M38.5318 60.34C38.6042 60.5229 38.7973 60.4344 38.8698 60.34C38.9422 60.2456 38.9362 60.2161 38.9663 60.1572C39.0858 60.0295 39.1705 59.8745 39.2127 59.7065C39.2549 59.5385 39.2532 59.3628 39.2078 59.1956C39.2036 59.1844 39.1968 59.1742 39.1879 59.166C39.179 59.1578 39.1683 59.1517 39.1565 59.1483C39.1448 59.1448 39.1324 59.1441 39.1203 59.1462C39.1083 59.1483 39.0969 59.1531 39.087 59.1602C38.9179 59.3102 38.7858 59.4958 38.7008 59.7029C38.6283 59.8563 38.4473 60.1277 38.5318 60.34Z" fill="#E7D8C8"/>
<path d="M40.9883 61.3599C41.0528 61.0634 41.2215 60.7983 41.4651 60.6107C41.4758 60.5995 41.4894 60.5915 41.5045 60.5874C41.5196 60.5834 41.5355 60.5835 41.5506 60.5878C41.5656 60.5921 41.5791 60.6003 41.5896 60.6117C41.6001 60.623 41.6071 60.637 41.61 60.652C41.6201 60.7619 41.6057 60.8726 41.5677 60.9764C41.5527 61.1068 41.5014 61.2307 41.4195 61.3347C41.3376 61.4387 41.2281 61.5188 41.103 61.5663H41.0426C41.0279 61.5683 41.0129 61.5669 40.9988 61.5622C40.9847 61.5576 40.9719 61.5498 40.9614 61.5396C40.9509 61.5293 40.9429 61.5168 40.9382 61.503C40.9334 61.4892 40.932 61.4746 40.934 61.4602L40.9883 61.3599Z" fill="#E7D8C8"/>
<path d="M42.7509 62.0555C42.7635 62.0474 42.7779 62.0426 42.7928 62.0413C42.8078 62.0401 42.8228 62.0425 42.8366 62.0484C42.8504 62.0542 42.8624 62.0633 42.8717 62.0749C42.881 62.0864 42.8872 62.1 42.8897 62.1145C42.8897 62.1145 42.8897 62.1145 42.8897 62.1558C42.8897 62.4861 42.6543 63.017 42.2862 63.0465C42.2762 63.0482 42.266 63.0478 42.2561 63.0453C42.2463 63.0429 42.2371 63.0385 42.2292 63.0324C42.2212 63.0263 42.2146 63.0186 42.2099 63.0098C42.2052 63.0011 42.2024 62.9915 42.2017 62.9816C42.212 62.7958 42.2672 62.6151 42.3626 62.4541C42.4581 62.2932 42.5911 62.1566 42.7509 62.0555Z" fill="#E7D8C8"/>
<path d="M40.6803 63.1282C40.7559 63.0546 40.8411 62.9911 40.9338 62.9395C40.9821 62.9395 41.0666 62.9395 41.0666 62.9925C41.0545 63.2287 40.956 63.4527 40.7889 63.6237C40.7198 63.7326 40.6189 63.8189 40.4992 63.8714C40.4832 63.8773 40.4654 63.8769 40.4497 63.8703C40.4339 63.8637 40.4214 63.8514 40.4147 63.836C40.4147 63.836 40.4147 63.7947 40.4147 63.7711C40.4113 63.7556 40.4113 63.7395 40.4147 63.724C40.3944 63.6101 40.4088 63.493 40.456 63.3871C40.5032 63.2812 40.5812 63.1912 40.6803 63.1282Z" fill="#E7D8C8"/>
<path d="M39.0929 61.4719C39.1176 61.4702 39.142 61.4778 39.1611 61.4932C39.1801 61.5086 39.1925 61.5305 39.1955 61.5545C39.2045 61.6052 39.2045 61.6571 39.1955 61.7079C39.2069 61.7939 39.1987 61.8813 39.1716 61.9639C39.1445 62.0465 39.0991 62.1222 39.0386 62.1857C38.9581 62.3294 38.8336 62.4449 38.6825 62.516C38.6462 62.516 38.604 62.516 38.5859 62.4747C38.4531 62.168 38.6583 61.466 39.0929 61.4719Z" fill="#E7D8C8"/>
<path d="M36.3711 61.1008C36.3751 61.113 36.3817 61.1243 36.3903 61.134C36.399 61.1436 36.4096 61.1515 36.4215 61.157C36.4333 61.1625 36.4462 61.1656 36.4593 61.1661C36.4725 61.1666 36.4856 61.1644 36.4978 61.1598C36.6849 61.0744 36.8361 60.9287 36.9263 60.7472C37.0164 60.5656 37.0398 60.3593 36.9927 60.1629C36.9871 60.1506 36.9788 60.1397 36.9685 60.1309C36.9582 60.122 36.946 60.1154 36.9329 60.1115C36.9197 60.1076 36.9059 60.1065 36.8923 60.1082C36.8787 60.1099 36.8656 60.1145 36.8539 60.1216C36.7174 60.2154 36.6023 60.336 36.5159 60.4755C36.4436 60.5615 36.3928 60.6628 36.3676 60.7714C36.3425 60.8799 36.3437 60.9928 36.3711 61.1008Z" fill="#E7D8C8"/>
<path d="M36.637 63.3776C36.6361 63.2562 36.6694 63.137 36.7333 63.0329C36.7972 62.9289 36.8891 62.844 36.9991 62.7877C37.0125 62.782 37.0272 62.7795 37.0418 62.7805C37.0565 62.7815 37.0706 62.786 37.0831 62.7935C37.0956 62.8011 37.106 62.8115 37.1134 62.8238C37.1209 62.8361 37.1251 62.8501 37.1259 62.8644C37.1423 62.9817 37.1301 63.1011 37.0903 63.2128C37.0504 63.3246 36.984 63.4255 36.8965 63.5074C36.8705 63.5427 36.8377 63.5727 36.7999 63.5958C36.7885 63.6019 36.7759 63.6057 36.763 63.6069C36.75 63.6081 36.7369 63.6067 36.7245 63.6028C36.7121 63.599 36.7007 63.5927 36.6908 63.5844C36.6809 63.5761 36.6729 63.566 36.6672 63.5545C36.6643 63.548 36.6629 63.541 36.6629 63.5339C36.6629 63.5268 36.6643 63.5198 36.6672 63.5133C36.6508 63.4696 36.6406 63.4239 36.637 63.3776Z" fill="#E7D8C8"/>
<path d="M42.1658 64.2326C42.1766 64.2318 42.1875 64.2332 42.1977 64.2367C42.2079 64.2402 42.2173 64.2457 42.2252 64.2529C42.2332 64.2601 42.2395 64.2688 42.2438 64.2786C42.2481 64.2883 42.2503 64.2987 42.2503 64.3093C42.2496 64.4666 42.2033 64.6205 42.1168 64.7531C42.0303 64.8857 41.907 64.9916 41.7614 65.0585C41.7418 65.0644 41.7207 65.0644 41.7011 65.0585H41.6166C41.6069 65.0602 41.5969 65.0599 41.5874 65.0574C41.5779 65.0549 41.5691 65.0504 41.5616 65.0442C41.5541 65.038 41.5481 65.0302 41.544 65.0215C41.54 65.0127 41.5379 65.0032 41.5381 64.9936C41.5713 64.8263 41.6458 64.6695 41.7552 64.5369C41.8646 64.4043 42.0056 64.2998 42.1658 64.2326Z" fill="#E7D8C8"/>
<path d="M42.8056 65.8778C42.8037 65.8936 42.8059 65.9096 42.8121 65.9243C42.8182 65.939 42.8281 65.952 42.8407 65.962C42.8534 65.972 42.8684 65.9787 42.8844 65.9815C42.9004 65.9844 42.9169 65.9832 42.9323 65.9781H42.9746C42.9835 65.9839 42.994 65.987 43.0048 65.987C43.0155 65.987 43.026 65.9839 43.0349 65.9781L43.0772 65.9368C43.1944 65.8567 43.2938 65.7542 43.3695 65.6356C43.4452 65.517 43.4957 65.3847 43.5178 65.2466C43.52 65.233 43.5185 65.2191 43.5133 65.2063C43.5082 65.1935 43.4996 65.1823 43.4885 65.1739C43.4774 65.1654 43.4642 65.1601 43.4502 65.1583C43.4362 65.1566 43.4221 65.1586 43.4091 65.164C43.2161 65.2518 43.0558 65.3961 42.9504 65.577C42.8818 65.6666 42.8325 65.769 42.8056 65.8778Z" fill="#E7D8C8"/>
<path d="M42.4486 67.9553C42.5251 67.7977 42.6364 67.6587 42.7745 67.5483C42.8332 67.4854 42.8978 67.4281 42.9677 67.3772C42.9873 67.3709 43.0084 67.3709 43.028 67.3772C43.0403 67.3676 43.0553 67.3618 43.071 67.3606C43.0867 67.3594 43.1024 67.3628 43.116 67.3705C43.1297 67.3781 43.1407 67.3896 43.1476 67.4034C43.1545 67.4172 43.157 67.4328 43.1548 67.448C43.1314 67.5877 43.0671 67.7178 42.9696 67.8225C42.8721 67.9272 42.7456 68.002 42.6055 68.0379H42.5572C42.5446 68.0462 42.5295 68.0504 42.5143 68.0499C42.499 68.0494 42.4843 68.0442 42.4723 68.035C42.4603 68.0259 42.4515 68.0132 42.4472 67.9989C42.443 67.9846 42.4434 67.9693 42.4486 67.9553Z" fill="#E7D8C8"/>
<path d="M40.4931 66.9398C40.4985 66.8543 40.5229 66.7709 40.5646 66.6956C40.6063 66.6202 40.6643 66.5546 40.7346 66.5033C40.8279 66.4093 40.9442 66.3403 41.0726 66.3027C41.1269 66.3027 41.1993 66.3027 41.1993 66.3735C41.1898 66.5412 41.1264 66.7017 41.018 66.832C40.9096 66.9623 40.7618 67.0558 40.5957 67.0991C40.583 67.1008 40.5701 67.0999 40.5578 67.0966C40.5454 67.0934 40.5338 67.0877 40.5237 67.08C40.5136 67.0724 40.5052 67.0628 40.4989 67.0519C40.4926 67.041 40.4886 67.029 40.4871 67.0165C40.4812 67.0117 40.4765 67.0056 40.4735 66.9986C40.4705 66.9917 40.4693 66.9842 40.4699 66.9767C40.4705 66.9691 40.4729 66.9619 40.4769 66.9555C40.481 66.9491 40.4865 66.9437 40.4931 66.9398Z" fill="#E7D8C8"/>
<path d="M39.0992 64.5222H39.1475C39.1669 64.5147 39.1879 64.5118 39.2087 64.5138C39.2294 64.5157 39.2495 64.5224 39.2671 64.5333C39.2847 64.5442 39.2995 64.5591 39.3102 64.5766C39.3208 64.5942 39.3271 64.6139 39.3285 64.6343C39.2923 64.9351 39.0328 65.3244 38.725 65.3421C38.6767 65.3421 38.6103 65.3067 38.6164 65.2536C38.614 65.0987 38.6585 64.9466 38.7445 64.8165C38.8304 64.6863 38.9538 64.5839 39.0992 64.5222Z" fill="#E7D8C8"/>
<path d="M38.1214 67.2588C38.2438 67.0835 38.4188 66.9495 38.6223 66.8754C38.6381 66.869 38.6552 66.8668 38.6721 66.869C38.689 66.8712 38.705 66.8777 38.7185 66.8879C38.732 66.898 38.7425 66.9115 38.7489 66.927C38.7554 66.9424 38.7575 66.9592 38.7551 66.9757C38.6433 67.3194 38.4015 67.6084 38.0791 67.7838C38.0655 67.7946 38.0492 67.8015 38.0318 67.8039C38.0145 67.8063 37.9968 67.8041 37.9807 67.7974C37.9646 67.7907 37.9506 67.7799 37.9403 67.7661C37.93 67.7523 37.9237 67.736 37.9222 67.7189C37.9162 67.6324 37.9311 67.5456 37.9657 67.4657C38.0003 67.3858 38.0536 67.315 38.1214 67.2588Z" fill="#E7D8C8"/>
<path d="M36.5278 65.3712C36.5322 65.2523 36.5664 65.1364 36.6275 65.0335C36.6885 64.9306 36.7745 64.844 36.8778 64.7813C36.9261 64.7813 37.0167 64.7812 37.0348 64.8225C37.0569 64.9787 37.0329 65.1377 36.9655 65.2809C36.8981 65.4241 36.7902 65.5455 36.6545 65.6307C36.6374 65.6441 36.6164 65.6521 36.5945 65.6537C36.5726 65.6552 36.5507 65.6502 36.5317 65.6394C36.5128 65.6285 36.4976 65.6123 36.4883 65.5928C36.479 65.5734 36.4759 65.5516 36.4795 65.5304C36.4922 65.4764 36.5084 65.4232 36.5278 65.3712Z" fill="#E7D8C8"/>
<path d="M35.0066 63.5369C35.0262 63.4667 35.0686 63.4046 35.1273 63.3599L35.1635 63.3186C35.2058 63.2655 35.3205 63.2832 35.3205 63.3599C35.3163 63.4887 35.2744 63.6135 35.1998 63.7197C35.1957 63.7974 35.1747 63.8733 35.1383 63.9425C35.1019 64.0116 35.0508 64.0724 34.9885 64.1208C34.9771 64.128 34.9639 64.1322 34.9503 64.1329C34.9367 64.1336 34.9232 64.1309 34.911 64.1249C34.8988 64.119 34.8884 64.11 34.8808 64.099C34.8733 64.0879 34.8688 64.0751 34.8678 64.0618C34.8523 63.8766 34.9012 63.6916 35.0066 63.5369Z" fill="#E7D8C8"/>
<path d="M36.5097 58.4401L36.5881 58.3399C36.6304 58.2986 36.727 58.3399 36.727 58.3811C36.7383 58.4988 36.7219 58.6173 36.679 58.7278C36.6361 58.8382 36.5678 58.9376 36.4795 59.0182V59.0536C36.4702 59.0623 36.4588 59.0684 36.4463 59.0713C36.4339 59.0742 36.4209 59.0739 36.4086 59.0703C36.3963 59.0667 36.3852 59.06 36.3765 59.0508C36.3677 59.0417 36.3616 59.0304 36.3588 59.0182C36.3528 58.9811 36.3528 58.9433 36.3588 58.9061C36.3343 58.8226 36.3356 58.7338 36.3624 58.6509C36.3892 58.5681 36.4405 58.4947 36.5097 58.4401Z" fill="#E7D8C8"/>
<path d="M35.7854 68.1616C35.7917 68.1726 35.8009 68.1819 35.812 68.1883C35.8232 68.1947 35.8359 68.1981 35.8488 68.1981C35.8617 68.1981 35.8744 68.1947 35.8856 68.1883C35.8967 68.1819 35.9059 68.1726 35.9122 68.1616L35.9605 68.1085C36.0827 68.0153 36.1831 67.8976 36.255 67.7632C36.3268 67.6289 36.3684 67.4812 36.3769 67.3298C36.3784 67.3134 36.3752 67.2968 36.3676 67.2821C36.36 67.2673 36.3483 67.2549 36.3338 67.2463C36.3194 67.2377 36.3027 67.2332 36.2858 67.2334C36.2689 67.2336 36.2524 67.2384 36.2381 67.2473C35.9786 67.4301 35.6707 67.8489 35.7854 68.1616Z" fill="#E7D8C8"/>
<path d="M34.3428 66.9228C34.3576 66.8455 34.3979 66.775 34.4575 66.7222C34.4807 66.6833 34.5091 66.6476 34.542 66.616C34.5509 66.6038 34.5627 66.5939 34.5764 66.5871C34.59 66.5802 34.6051 66.5767 34.6204 66.5767C34.6358 66.5767 34.6509 66.5802 34.6645 66.5871C34.6782 66.5939 34.69 66.6038 34.6989 66.616C34.7468 66.7456 34.7468 66.8875 34.6989 67.0171C34.667 67.1503 34.5956 67.2714 34.4937 67.3652C34.4839 67.3723 34.4725 67.3771 34.4604 67.3792C34.4484 67.3813 34.436 67.3806 34.4242 67.3772C34.4125 67.3737 34.4018 67.3676 34.3929 67.3594C34.384 67.3512 34.3772 67.341 34.373 67.3298C34.3379 67.2682 34.3171 67.1998 34.3118 67.1295C34.3066 67.0592 34.3172 66.9887 34.3428 66.9228Z" fill="#E7D8C8"/>
<path d="M34.5906 68.9339C34.6036 68.9242 34.6191 68.9183 34.6353 68.9165C34.6515 68.9148 34.668 68.9174 34.6828 68.9241C34.6977 68.9307 34.7104 68.9412 34.7197 68.9543C34.7289 68.9675 34.7344 68.9828 34.7354 68.9987C34.7507 69.1409 34.7344 69.2847 34.6875 69.4201C34.6406 69.5555 34.5643 69.6794 34.4638 69.7833C34.4638 69.7833 34.4638 69.8187 34.4638 69.8305C34.4579 69.8444 34.4478 69.8564 34.4349 69.8648C34.422 69.8732 34.4069 69.8777 34.3914 69.8777C34.3759 69.8777 34.3608 69.8732 34.3479 69.8648C34.335 69.8564 34.3249 69.8444 34.319 69.8305C34.2788 69.6709 34.2828 69.5038 34.3305 69.3462C34.3782 69.1886 34.468 69.0463 34.5906 68.9339Z" fill="#E7D8C8"/>
<path d="M36.8177 69.8014C36.8379 69.7958 36.8595 69.7968 36.8791 69.8043C36.8987 69.8117 36.9153 69.8252 36.9263 69.8427C36.9328 69.8524 36.9363 69.8637 36.9363 69.8752C36.9363 69.8867 36.9328 69.898 36.9263 69.9076C36.9283 69.9213 36.9283 69.9352 36.9263 69.9489C36.9256 70.0639 36.8974 70.1771 36.844 70.2795C36.7905 70.3819 36.7133 70.4707 36.6185 70.5388C36.6075 70.5471 36.5948 70.5528 36.5812 70.5555C36.5676 70.5583 36.5536 70.5579 36.5402 70.5545C36.5268 70.5511 36.5143 70.5447 36.5039 70.5358C36.4934 70.527 36.4851 70.5159 36.4797 70.5034C36.4769 70.4918 36.4769 70.4797 36.4797 70.468C36.4686 70.4691 36.4574 70.4676 36.4469 70.4638C36.4365 70.4599 36.4271 70.4537 36.4195 70.4457C36.4119 70.4377 36.4063 70.4281 36.4031 70.4177C36.4 70.4072 36.3993 70.3962 36.4012 70.3854C36.4167 70.2623 36.4627 70.1447 36.5353 70.0429C36.6079 69.9411 36.7048 69.8582 36.8177 69.8014Z" fill="#E7D8C8"/>
<path d="M39.6906 68.3797C39.7032 68.3717 39.7176 68.3668 39.7326 68.3656C39.7475 68.3643 39.7626 68.3667 39.7763 68.3726C39.7901 68.3784 39.8022 68.3875 39.8114 68.3991C39.8207 68.4106 39.8269 68.4242 39.8294 68.4387C39.8354 68.6178 39.7878 68.7947 39.6923 68.9477C39.5969 69.1007 39.4579 69.2231 39.2923 69.2999C39.2631 69.3108 39.2309 69.3108 39.2017 69.2999L39.1293 69.3471C39.1185 69.3509 39.107 69.352 39.0957 69.3506C39.0843 69.3491 39.0735 69.3451 39.0641 69.3387C39.0547 69.3324 39.0469 69.324 39.0415 69.3142C39.036 69.3044 39.033 69.2934 39.0327 69.2823C39.0584 69.0907 39.1318 68.9082 39.2465 68.7508C39.3612 68.5934 39.5137 68.466 39.6906 68.3797Z" fill="#E7D8C8"/>
<path d="M44.5916 67.9721C44.6041 67.9445 44.6204 67.9187 44.6399 67.8954C44.6302 67.8526 44.6302 67.8083 44.6399 67.7656C44.7079 67.6372 44.8186 67.5353 44.9538 67.4766C45.0021 67.4766 45.0685 67.4766 45.0866 67.512C45.1106 67.5949 45.1106 67.6827 45.0866 67.7656C45.0675 67.8615 45.0122 67.9469 44.9317 68.0048C44.8512 68.0627 44.7513 68.0889 44.652 68.0782C44.6307 68.0703 44.613 68.0553 44.602 68.0359C44.591 68.0165 44.5873 67.9939 44.5916 67.9721Z" fill="#E7D8C8"/>
</svg>
