<svg width="184" height="291" viewBox="0 0 184 291" fill="none" xmlns="http://www.w3.org/2000/svg">
<path d="M95.4463 120.464C95.2661 124.041 94.8029 128.184 94.1339 132.764C92.9244 140.845 91.0716 150.057 88.9871 159.013C84.4066 179.548 78.951 198.488 78.951 198.488C78.4842 210.584 77.0991 222.628 74.8079 234.515C74.5763 235.827 74.3447 237.088 74.0874 238.375C73.3154 242.518 72.4919 246.507 71.7199 250.187C68.8635 263.259 66.2644 272.703 66.2644 272.703L53.7321 270.542C53.1403 263.439 52.9087 256.646 52.9344 250.29C52.9344 246.327 52.9344 242.569 53.1917 238.915C53.1917 237.011 53.3976 235.158 53.5263 233.383C54.9931 211.715 58.673 197.356 58.673 194.499C58.673 180.011 59.6251 167.376 60.7831 156.594C64.0256 126.871 69.7642 111.38 69.7642 111.38C77.8702 92.7485 90.0165 94.0352 94.0309 107.751C95.1916 111.883 95.6696 116.177 95.4463 120.464Z" fill="#FFEDE5"/>
<path d="M135.307 254.252C135.307 259.399 134.998 264.829 134.535 270.439L122.003 272.832C122.003 272.832 119.79 264.726 117.191 253.094C116.238 248.823 115.235 244.088 114.283 239.095C114.025 237.68 113.742 236.213 113.485 234.772C111.18 222.8 109.787 210.671 109.316 198.488C109.316 198.488 103.809 179.368 99.177 158.729C97.1698 149.877 95.317 140.716 94.0303 132.713C93.3355 128.158 92.898 123.963 92.7179 120.412C92.4426 116.08 92.8861 111.733 94.0303 107.545C98.0962 93.8294 110.217 92.5684 118.323 111.174C118.323 111.174 124.036 126.614 127.252 156.156C128.61 168.824 129.323 181.553 129.388 194.293C129.388 197.15 133.094 211.226 134.535 232.585C134.535 234.386 134.767 236.213 134.869 238.092C135.281 243.213 135.384 248.565 135.307 254.252Z" fill="#FFEDE5"/>
<path d="M134.715 232.688C127.671 233.755 120.576 234.45 113.459 234.772C111.163 222.799 109.778 210.67 109.316 198.488C109.316 198.488 103.809 179.368 99.1773 158.729C97.1701 149.877 95.3173 140.716 94.0306 132.713C92.8211 140.793 90.9683 150.006 88.8839 158.961C84.4062 179.548 78.9507 198.488 78.9507 198.488C78.4838 210.584 77.0988 222.628 74.8076 234.515C67.0875 234.155 59.702 233.666 53.5259 233.151C54.9927 211.483 58.6726 197.124 58.6726 194.268C58.6726 179.78 59.6248 167.144 60.7828 156.362C64.0252 126.64 69.7638 111.148 69.7638 111.148C77.8699 92.5169 90.0161 93.8036 94.0306 107.52C97.1186 97.0461 104.916 93.8294 112.044 101.189C114.705 104.115 116.83 107.486 118.323 111.148C119.924 115.879 121.247 120.699 122.286 125.585C124.555 135.705 126.248 145.946 127.356 156.259C128.713 168.927 129.426 181.656 129.491 194.396C129.517 197.253 133.197 211.355 134.715 232.688Z" fill="#AB8DA8"/>
<path d="M122.389 125.713C115.338 118.019 84.432 116.14 84.432 116.14L112.147 101.447C114.808 104.372 116.933 107.743 118.426 111.405C120.022 116.094 121.345 120.872 122.389 125.713Z" fill="#826B80"/>
<path d="M67.9109 285.467C67.9251 285.596 67.9251 285.725 67.9109 285.853C67.4992 291.643 62.7642 290.768 55.7647 291C50.1805 291 47.1954 287.886 47.5299 284.515C47.6396 283.494 48.012 282.519 48.6107 281.684C50.2043 279.194 51.3698 276.454 52.059 273.578C52.362 272.277 53.0966 271.116 54.1434 270.284C58.5439 266.733 62.7642 269.461 64.8743 271.417C65.8174 272.259 66.4741 273.374 66.7529 274.608C67.546 278.173 67.9345 281.815 67.9109 285.467Z" fill="#3B2645"/>
<path d="M132.579 290.871C125.4 290.871 120.51 291.695 120.382 285.467V284.927C120.368 281.515 120.748 278.113 121.514 274.788C121.81 273.376 122.549 272.096 123.624 271.134C124.833 269.745 126.498 268.834 128.32 268.565C130.141 268.296 131.999 268.687 133.557 269.667C134.947 270.628 135.936 272.065 136.336 273.707C137.033 276.451 138.181 279.06 139.733 281.427C140.07 281.912 140.338 282.44 140.531 282.997C141.766 286.908 138.858 290.974 132.579 290.871Z" fill="#3B2645"/>
<path d="M107.051 20.9261C107.738 20.1251 108.176 19.1415 108.312 18.0954C108.385 16.4318 108.688 14.7864 109.213 13.2061C109.677 12.5065 110.057 11.7551 110.345 10.9672C110.44 10.5481 110.429 10.1119 110.312 9.69836C110.195 9.28481 109.977 8.90712 109.676 8.59975C109.239 8.16228 108.621 7.85347 108.415 7.2616C108.363 6.88598 108.363 6.50495 108.415 6.12932C108.336 5.57276 108.117 5.04523 107.78 4.59545C107.443 4.14568 106.997 3.78817 106.485 3.55597C105.436 3.0439 104.318 2.68842 103.166 2.50089C102.032 2.35995 100.948 1.95445 100.001 1.31715C99.6108 0.953569 99.1887 0.626257 98.7395 0.33927C97.8865 -0.0264118 96.9362 -0.0988145 96.0375 0.133401C94.331 0.429253 92.6644 0.92146 91.0709 1.60021C90.4962 1.90182 89.8808 2.11852 89.2439 2.24355C88.2917 2.24355 87.2881 2.06342 86.336 2.24355C85.6227 2.47104 84.9677 2.85138 84.4166 3.35806C83.8655 3.86474 83.4315 4.48554 83.145 5.17718C82.9717 5.57596 82.7073 5.92852 82.373 6.20653C81.9523 6.42082 81.5009 6.5684 81.0349 6.644C80.4458 6.87547 79.9223 7.2473 79.5097 7.72717C79.0971 8.20704 78.8079 8.78043 78.6674 9.39749C78.424 10.6727 78.424 11.9824 78.6674 13.2575C78.7141 14.5182 78.8517 15.7738 79.0791 17.0146C81.6525 27.3081 82.3987 24.4516 82.3987 24.4516L90.1188 23.6539C93.6186 23.2679 97.0926 22.8561 100.567 22.3672C101.956 22.1613 103.346 21.8783 104.735 21.6467C105.57 21.6997 106.394 21.4431 107.051 20.9261Z" fill="#3B2645"/>
<path d="M81.6786 19.974C81.4231 19.6231 81.0882 19.3376 80.7014 19.1407C80.3146 18.9439 79.8867 18.8413 79.4526 18.8413C79.0186 18.8413 78.5907 18.9439 78.2038 19.1407C77.817 19.3376 77.4821 19.6231 77.2266 19.974C75.0908 22.7275 79.028 27.6941 81.9359 27.8485C82.0086 25.2209 81.9227 22.5913 81.6786 19.974Z" fill="#E0855C"/>
<path d="M124.113 49.6962C121.306 56.9636 119.044 64.4298 117.345 72.033C117.139 73.0109 116.985 73.963 116.805 74.8894C116.625 75.8158 116.547 76.5106 116.445 77.2569C116.342 78.0032 116.445 78.312 116.239 79.0325C115.441 86.7526 113.948 108.189 113.665 111.843C113.665 112.203 113.665 112.383 113.665 112.383C93.6703 118.534 72.4916 113.644 72.4916 113.644L72.3371 112.512C71.8739 108.961 67.5507 70.9779 67.3963 69.4596C66.4956 60.4271 65.8523 52.1152 65.8008 46.9427C65.8008 46.1707 66.4699 45.7333 67.4735 45.4502C69.0947 44.987 71.385 44.9098 73.1864 44.601C76.541 44.0402 79.9272 43.6879 83.3254 43.5459H84.1489C84.3203 43.5357 84.4921 43.5357 84.6635 43.5459H85.2811L85.9245 33.2525H86.9281C87.5837 33.3541 88.2461 33.4057 88.9096 33.4069C89.7007 33.4182 90.4918 33.3752 91.2771 33.2782L92.3836 33.1495C92.924 33.1495 93.413 32.9694 93.9019 32.8407C94.6908 32.6588 95.465 32.418 96.2179 32.1202C96.4495 32.0703 96.6741 31.9925 96.887 31.8886H97.0929L97.6075 31.657C98.5521 31.2468 99.464 30.765 100.335 30.2159L101.545 29.3924L101.751 29.2123C101.915 29.1049 102.069 28.9844 102.214 28.852L102.497 28.6204C102.497 29.0064 102.497 29.1608 102.497 29.3152C102.272 31.3148 102.152 33.3248 102.137 35.3369C102.137 36.8037 102.137 38.2705 102.137 39.5572C102.137 41.7446 102.137 43.34 102.137 43.34H103.578C103.604 43.3212 103.635 43.311 103.668 43.311C103.7 43.311 103.732 43.3212 103.758 43.34C105.844 43.3682 107.925 43.5488 109.985 43.8804C113.899 44.3946 117.747 45.3263 121.463 46.6597C122.029 46.8913 122.44 47.0971 122.801 47.2773C123.161 47.4574 124.293 49.233 124.113 49.6962Z" fill="#FFEDE5"/>
<path d="M102.6 28.6463C102.308 30.4986 101.609 32.2633 100.553 33.8131C99.4977 35.363 98.1115 36.6596 96.4947 37.6095C94.8778 38.5594 93.0705 39.1391 91.2028 39.3068C89.335 39.4745 87.4533 39.2261 85.6931 38.5794L86.0276 33.2526C88.9587 33.7132 91.9545 33.5404 94.8132 32.7459C97.6719 31.9513 100.327 30.5534 102.6 28.6463Z" fill="#E0855C"/>
<path d="M81.9614 12.2282C80.5203 13.8237 80.4945 17.3749 80.4945 21.1063C80.4945 32.6607 84.0458 36.1604 89.9645 36.5464C95.8832 36.9324 102.008 34.5392 102.831 23.6796C103.32 18.3013 103.835 13.3862 101.828 11.0702C98.9198 7.90496 86.3361 7.36456 81.9614 12.2282Z" fill="#FFEDE5"/>
<path d="M102.085 22.3414C102.085 22.3414 103.732 17.5035 106.665 19.9482C109.599 22.3929 105.868 29.7527 101.519 29.341C101.493 29.341 100.747 24.0141 102.085 22.3414Z" fill="#FFEDE5"/>
<path d="M105.405 22.1613C104.743 22.3962 104.156 22.8051 103.706 23.3451C103.181 23.8092 102.76 24.3793 102.471 25.0177C102.471 25.1979 102.677 25.3008 102.806 25.1979C102.934 25.0949 103.449 24.4001 103.784 24.0399C104.012 24.3116 104.304 24.5236 104.633 24.6575C104.691 24.6834 104.756 24.6889 104.818 24.6732C104.88 24.6575 104.934 24.6214 104.973 24.5708C105.012 24.5203 105.032 24.4581 105.031 24.3945C105.03 24.3308 105.008 24.2693 104.967 24.22C104.788 23.9551 104.55 23.735 104.273 23.5767C104.746 23.2514 105.193 22.8901 105.611 22.4958C105.639 22.4627 105.657 22.4214 105.66 22.3777C105.664 22.334 105.654 22.2903 105.631 22.253C105.608 22.2157 105.573 22.1867 105.533 22.1702C105.492 22.1537 105.447 22.1506 105.405 22.1613Z" fill="#E0855C"/>
<path d="M85.5645 20.6687C85.5645 20.6687 84.5866 21.0548 84.6638 19.3049C84.741 17.555 85.4873 17.8895 85.4873 17.8895C85.4873 17.8895 86.1821 17.8895 86.1049 19.2534C86.0277 20.6173 85.5645 20.6687 85.5645 20.6687Z" fill="#3B2645"/>
<path d="M95.6779 20.36C95.6779 20.36 94.7 20.746 94.8029 18.9704C94.9059 17.1947 95.6007 17.5807 95.6007 17.5807C95.6007 17.5807 96.2955 17.5807 96.244 18.9446C96.1925 20.3085 95.6779 20.36 95.6779 20.36Z" fill="#3B2645"/>
<path d="M90.2989 25.2494C89.7842 25.2494 88.6262 25.5068 88.3689 24.9663C88.4377 23.7355 88.6537 22.5174 89.0122 21.3379C89.4294 19.7522 89.7644 18.146 90.0158 16.5257C90.0158 16.5257 90.0158 16.5257 89.8357 16.5257C88.8975 19.3893 88.1919 22.3239 87.7255 25.3009C87.7127 25.3369 87.709 25.3755 87.7148 25.4133C87.7205 25.4511 87.7355 25.4869 87.7585 25.5174C87.7814 25.548 87.8115 25.5724 87.8462 25.5885C87.8809 25.6046 87.919 25.6119 87.9571 25.6097C88.7034 25.6097 89.4239 25.6097 90.1702 25.6097C90.4533 25.6869 90.5048 25.2751 90.2989 25.2494Z" fill="#E0855C"/>
<path d="M87.546 15.3419C86.9294 15.2901 86.3097 15.2901 85.6931 15.3419C85.0598 15.1931 84.4133 15.107 83.7631 15.0846C83.689 15.0855 83.6167 15.1077 83.5549 15.1486C83.493 15.1894 83.4443 15.2473 83.4144 15.3151C83.3846 15.383 83.3749 15.458 83.3865 15.5312C83.3982 15.6044 83.4306 15.6727 83.48 15.7279C84.0782 16.1505 84.7695 16.4226 85.4952 16.5212C86.2209 16.6197 86.9597 16.5418 87.6489 16.2941C87.756 16.2596 87.8479 16.1893 87.9092 16.0949C87.9705 16.0005 87.9974 15.8879 87.9853 15.7761C87.9732 15.6642 87.9229 15.5599 87.8428 15.4808C87.7628 15.4018 87.658 15.3527 87.546 15.3419Z" fill="#3B2645"/>
<path d="M98.4051 13.9781C97.5385 14.4646 96.5861 14.7791 95.6002 14.9045C94.9568 14.9045 94.1848 14.7758 93.6702 15.2133C93.638 15.2632 93.6209 15.3213 93.6209 15.3806C93.6209 15.4399 93.638 15.498 93.6702 15.5479C94.6738 17.0147 97.9677 15.2905 98.8169 14.2612C98.8426 14.081 98.5853 13.9009 98.4051 13.9781Z" fill="#3B2645"/>
<path d="M94.0815 28.2601C92.9976 28.1056 91.8972 28.1056 90.8133 28.2601C90.0671 28.2601 89.012 28.1315 88.4716 28.7491C89.0635 29.2895 90.0671 29.0579 90.8133 29.0321C91.9003 29.1353 92.9946 29.1353 94.0815 29.0321C94.1839 29.0321 94.2821 28.9915 94.3544 28.9191C94.4268 28.8467 94.4675 28.7485 94.4675 28.6461C94.4675 28.5438 94.4268 28.4456 94.3544 28.3732C94.2821 28.3008 94.1839 28.2601 94.0815 28.2601Z" fill="#E0855C"/>
<path d="M182.194 162.255H1.67268C1.22906 162.255 0.803605 162.079 0.489916 161.765C0.176227 161.451 0 161.026 0 160.582C0 160.139 0.176227 159.713 0.489916 159.399C0.803605 159.086 1.22906 158.91 1.67268 158.91H182.194C182.637 158.91 183.063 159.086 183.376 159.399C183.69 159.713 183.866 160.139 183.866 160.582C183.866 161.026 183.69 161.451 183.376 161.765C183.063 162.079 182.637 162.255 182.194 162.255Z" fill="#3B2645"/>
<path d="M7.38564 169.203C6.62806 169.203 5.90152 168.902 5.36584 168.366C4.83015 167.831 4.52921 167.104 4.52921 166.347V154.741C4.52921 153.983 4.83015 153.257 5.36584 152.721C5.90152 152.185 6.62806 151.884 7.38564 151.884C8.14321 151.884 8.86975 152.185 9.40543 152.721C9.94112 153.257 10.2421 153.983 10.2421 154.741V166.295C10.2525 166.675 10.1861 167.054 10.0468 167.408C9.90763 167.762 9.69846 168.085 9.43182 168.356C9.16518 168.628 8.84655 168.842 8.49498 168.988C8.14341 169.133 7.76611 169.207 7.38564 169.203Z" fill="#3B2645"/>
<path d="M13.0983 179.316C12.3407 179.316 11.6142 179.015 11.0785 178.48C10.5428 177.944 10.2419 177.218 10.2419 176.46V144.705C10.3096 143.991 10.6411 143.327 11.1717 142.845C11.7024 142.362 12.3939 142.095 13.1112 142.095C13.8285 142.095 14.52 142.362 15.0506 142.845C15.5812 143.327 15.9128 143.991 15.9805 144.705V176.46C15.9737 177.22 15.667 177.946 15.1273 178.481C14.5875 179.016 13.8583 179.316 13.0983 179.316Z" fill="#291B30"/>
<path d="M18.8368 184.103C18.4607 184.106 18.0878 184.035 17.7397 183.892C17.3915 183.75 17.0753 183.54 16.8094 183.274C16.5434 183.008 16.3332 182.692 16.1908 182.343C16.0485 181.995 15.977 181.622 15.9804 181.246V140.87C15.9804 140.113 16.2813 139.386 16.817 138.851C17.3527 138.315 18.0792 138.014 18.8368 138.014C19.5944 138.014 20.3209 138.315 20.8566 138.851C21.3923 139.386 21.6932 140.113 21.6932 140.87V181.246C21.6932 182.004 21.3923 182.73 20.8566 183.266C20.3209 183.802 19.5944 184.103 18.8368 184.103Z" fill="#3B2645"/>
<path d="M173.984 169.203C174.742 169.203 175.468 168.902 176.004 168.366C176.54 167.831 176.841 167.104 176.841 166.347V154.741C176.841 153.983 176.54 153.257 176.004 152.721C175.468 152.185 174.742 151.884 173.984 151.884C173.227 151.884 172.5 152.185 171.965 152.721C171.429 153.257 171.128 153.983 171.128 154.741V166.295C171.121 166.675 171.19 167.051 171.33 167.404C171.471 167.757 171.68 168.078 171.946 168.348C172.212 168.619 172.529 168.834 172.879 168.981C173.229 169.128 173.605 169.203 173.984 169.203Z" fill="#3B2645"/>
<path d="M168.272 179.316C169.03 179.316 169.756 179.015 170.292 178.48C170.828 177.944 171.129 177.218 171.129 176.46V144.705C171.061 143.991 170.729 143.327 170.199 142.845C169.668 142.362 168.977 142.095 168.259 142.095C167.542 142.095 166.85 142.362 166.32 142.845C165.789 143.327 165.458 143.991 165.39 144.705V176.46C165.397 177.22 165.703 177.946 166.243 178.481C166.783 179.016 167.512 179.316 168.272 179.316Z" fill="#291B30"/>
<path d="M162.533 184.103C162.909 184.106 163.282 184.035 163.63 183.892C163.979 183.75 164.295 183.54 164.561 183.274C164.827 183.008 165.037 182.692 165.179 182.343C165.322 181.995 165.393 181.622 165.39 181.246V140.87C165.39 140.113 165.089 139.386 164.553 138.851C164.017 138.315 163.291 138.014 162.533 138.014C161.776 138.014 161.049 138.315 160.513 138.851C159.978 139.386 159.677 140.113 159.677 140.87V181.246C159.677 182.004 159.978 182.73 160.513 183.266C161.049 183.802 161.776 184.103 162.533 184.103Z" fill="#3B2645"/>
<path d="M76.9689 66.3716C75.9146 70.0471 74.4561 73.5942 72.6199 76.9481C71.8737 78.4922 68.8628 85.0285 68.7342 85.2858C64.0506 95.5535 57.4371 110.711 56.8452 112.512C55.3784 118.328 52.2389 152.167 52.2132 152.167C48.9965 157.005 42.8719 154.741 42.8719 154.741C42.8719 154.741 42.8719 153.711 42.5888 151.962C41.894 144.473 40.2471 123.423 42.1514 110.968C42.6918 107.52 44.7247 99.1562 47.2981 89.712C49.3568 81.9919 50.2574 74.6579 52.7021 67.1436C54.7613 60.6782 57.8646 54.5933 61.889 49.1301C63.3966 47.4102 65.3729 46.1671 67.5761 45.5532C68.5283 45.5532 68.94 46.7884 69.7378 47.1487C72.0043 48.2068 73.8263 50.0288 74.8845 52.2954C77.1268 56.6246 77.8604 61.5783 76.9689 66.3716Z" fill="#FFEDE5"/>
<path d="M42.2546 158.215C42.2546 157.082 42.4862 155.924 42.5119 154.792C42.5119 153.017 42.5119 151.859 42.5119 151.859C43.6126 150.789 45.0172 150.087 46.5329 149.847C48.0487 149.608 49.6014 149.843 50.9783 150.52C51.5981 150.973 52.1675 151.49 52.6767 152.064C53.706 153.042 54.8898 153.814 55.8676 154.844C56.3765 155.334 56.7663 155.935 57.0071 156.6C57.248 157.264 57.3336 157.975 57.2572 158.678C56.0374 158.812 54.9057 159.378 54.0663 160.273C53.1141 161.457 53.5259 162.538 53.0627 163.85C52.5995 165.163 51.4672 165.292 50.4893 165.446C47.1954 165.935 42.4862 166.089 42.2031 161.843C42.1312 160.634 42.1484 159.421 42.2546 158.215Z" fill="#FFEDE5"/>
<path d="M145.266 151.781C145.111 153.531 144.983 154.561 144.983 154.561C144.983 154.561 138.858 156.902 135.616 151.987C135.616 151.987 132.476 118.251 130.906 112.435C130.649 111.457 128.642 106.696 126.12 100.932C123.598 95.1676 115.492 77.5401 115.235 76.9482C113.388 73.5994 111.929 70.051 110.886 66.3717C109.909 61.5155 110.607 56.4718 112.867 52.0638C113.939 49.8073 115.757 47.9895 118.014 46.9171C118.81 46.5172 119.697 46.331 120.587 46.3767C120.869 46.3759 121.148 46.4283 121.411 46.5311C121.887 46.663 122.339 46.8715 122.749 47.1487C123.379 47.5887 123.965 48.0886 124.499 48.6412C129.112 53.5569 132.521 59.4766 134.458 65.9342C137.031 73.6543 138.549 81.9662 140.505 89.4032C143.078 98.8475 145.085 107.211 145.652 110.659C147.607 123.243 145.935 144.293 145.266 151.781Z" fill="#FFEDE5"/>
<path d="M145.498 158.241C145.498 156.954 145.343 155.667 145.318 154.792C145.318 153.017 145.318 151.859 145.318 151.859C144.223 150.788 142.823 150.084 141.311 149.845C139.798 149.605 138.249 149.841 136.877 150.52C136.255 150.979 135.677 151.496 135.153 152.064C134.149 153.042 132.94 153.814 131.988 154.844C131.474 155.331 131.081 155.931 130.84 156.597C130.599 157.262 130.516 157.975 130.598 158.678C131.778 158.989 132.931 159.393 134.046 159.887C134.999 160.865 134.278 161.74 134.278 162.873C134.278 164.442 135.359 164.983 136.851 165.24L139.734 165.755C141.262 166.122 142.869 165.987 144.314 165.369C144.522 165.25 144.705 165.093 144.855 164.906C144.977 164.717 145.064 164.508 145.112 164.288C145.604 162.312 145.735 160.263 145.498 158.241Z" fill="#FFEDE5"/>
<path d="M117.345 72.0331L118.786 112.306C95.0081 121.596 69.3003 112.924 69.3003 112.924L68.7341 74.3234L67.9621 74.0918C66.8041 73.7315 65.5689 73.3455 64.308 72.8308C63.5874 72.5478 62.8411 72.2647 62.0949 71.9044C58.8745 70.4334 55.7387 68.7839 52.7021 66.9636C54.7613 60.4982 57.8646 54.4133 61.889 48.9501C63.4033 47.238 65.3771 45.9965 67.5761 45.3731C69.1973 44.9356 71.4876 44.8327 73.289 44.5239C76.6436 43.9631 80.0298 43.6108 83.428 43.4688L92.7693 66.629C96.7691 59.08 100.285 51.2842 103.294 43.2887H103.552C103.578 43.2698 103.609 43.2597 103.642 43.2597C103.674 43.2597 103.706 43.2698 103.732 43.2887C105.818 43.3169 107.899 43.4975 109.959 43.8291C113.883 44.3616 117.739 45.3105 121.462 46.6598C121.939 46.7916 122.391 47.0002 122.8 47.2774C123.43 47.7174 124.016 48.2173 124.55 48.7699C129.164 53.6855 132.573 59.6053 134.509 66.0629C131.413 67.4827 128.243 68.7368 125.013 69.82C120.742 71.1581 117.345 72.0331 117.345 72.0331Z" fill="#3B2645"/>
<path d="M68.7343 61.0191V74.3233L67.9623 74.0917C66.8043 73.7315 65.5691 73.3455 64.3081 72.8308C65.9855 68.9722 67.4629 65.0298 68.7343 61.0191Z" fill="#27192E"/>
<path d="M62.1725 276.589C60.1395 275.457 56.331 274.582 54.4524 276.152C54.4163 276.214 54.3973 276.285 54.3973 276.358C54.3973 276.43 54.4163 276.501 54.4524 276.563V276.718C54.4524 276.924 54.7355 276.975 54.8899 276.898C55.0443 276.821 54.8899 276.898 55.07 276.898C55.5101 276.618 56.0158 276.458 56.5368 276.435C57.2025 276.404 57.8692 276.465 58.5183 276.615C59.7249 276.97 60.9682 277.186 62.224 277.258C62.3127 277.251 62.3951 277.21 62.453 277.142C62.5109 277.075 62.5396 276.987 62.5328 276.898C62.5259 276.809 62.4841 276.727 62.4166 276.669C62.349 276.611 62.2612 276.582 62.1725 276.589Z" fill="#27192E"/>
<path d="M63.485 280.218C62.3348 279.286 60.8994 278.777 59.419 278.777C57.9532 278.425 56.4117 278.58 55.0443 279.214C54.8642 279.368 54.7613 279.754 55.0443 279.883C56.2453 280.192 57.4853 280.322 58.7242 280.269C60.2032 280.678 61.7214 280.928 63.2533 281.015C63.3384 281 63.4176 280.962 63.4818 280.904C63.5461 280.846 63.593 280.772 63.6171 280.689C63.6411 280.606 63.6415 280.517 63.6182 280.434C63.5949 280.351 63.5487 280.276 63.485 280.218Z" fill="#27192E"/>
<path d="M132.759 275.2C131.377 274.439 129.795 274.12 128.226 274.286C126.657 274.451 125.177 275.094 123.984 276.126C123.727 276.461 123.984 277.104 124.37 277.052C125.682 277.052 126.943 276.28 128.23 276.152C129.517 276.023 130.932 276.512 132.27 276.358C132.785 276.306 133.248 275.689 132.759 275.2Z" fill="#27192E"/>
<path d="M133.84 278.571C132.156 278.169 130.412 278.074 128.694 278.288C128.087 278.209 127.47 278.26 126.885 278.438C126.299 278.615 125.758 278.915 125.297 279.317C124.937 279.78 125.297 280.655 125.94 280.424C128.514 279.523 131.421 280.861 133.969 279.935C134.109 279.874 134.225 279.771 134.303 279.64C134.38 279.509 134.414 279.357 134.399 279.206C134.385 279.055 134.323 278.912 134.223 278.798C134.123 278.684 133.989 278.604 133.84 278.571Z" fill="#27192E"/>
<path d="M45.0338 26.742C36.3616 28.3375 27.3548 26.9994 18.9142 30.2418C18.3481 30.4734 18.3738 31.4255 19.0686 31.3741C24.2153 31.091 29.2334 30.0616 34.3544 29.7528C38.06 29.5212 42.409 30.319 45.7801 28.4919C46.7579 27.9258 46.0374 26.5619 45.0338 26.742Z" fill="#F7F8F8"/>
<path d="M48.1729 14.6729C43.9441 12.4941 39.5772 10.5943 35.1003 8.98577C34.3282 8.72843 33.8908 9.88645 34.5599 10.2982C38.6015 12.6278 42.7777 14.7159 47.0664 16.5514C48.3273 17.0918 49.4596 15.2905 48.1729 14.6729Z" fill="#F7F8F8"/>
</svg>
