<svg width="13" height="7" viewBox="0 0 13 7" fill="none" xmlns="http://www.w3.org/2000/svg">
<path d="M9.56297 6.37733L9.56311 6.37743C9.57534 6.38661 9.59297 6.38428 9.6024 6.37173L9.60244 6.37168L12.4778 2.54635L12.4779 2.54622C12.4823 2.54035 12.4843 2.53292 12.4832 2.5255L12.4832 2.52508C12.4822 2.51803 12.4782 2.51117 12.472 2.5065C10.7354 1.20416 8.67181 0.516449 6.50001 0.516449C4.32822 0.516449 2.26466 1.20415 0.528003 2.5065C0.521702 2.51123 0.51773 2.51809 0.516672 2.5255L9.56297 6.37733ZM9.56297 6.37733C8.67325 5.71012 7.61245 5.35659 6.50001 5.35659C5.38746 5.35659 4.32682 5.7101 3.43713 6.37727L9.56297 6.37733ZM9.18653 6.0534L9.5869 6.29841L9.86894 5.92319L12.0958 2.96058L12.4246 2.52311L11.9688 2.22016C10.3449 1.14078 8.46463 0.572936 6.50001 0.572936C4.5354 0.572936 2.65513 1.14078 1.03118 2.22016L0.575405 2.52311L0.904231 2.96058L3.13109 5.92319L3.41312 6.29841L3.8135 6.0534C4.48099 5.64491 5.22412 5.39766 6.00395 5.32391L6.47177 5.27966V4.80975V3.14957C6.47177 3.13394 6.48438 3.12133 6.50001 3.12133C6.51564 3.12133 6.52826 3.13394 6.52826 3.14957V4.80975V5.27966L6.99608 5.32391C7.7759 5.39766 8.51904 5.64491 9.18653 6.0534ZM0.522212 2.54655C0.522196 2.54652 0.522179 2.5465 0.522162 2.54648L3.43706 6.37733C3.43383 6.37973 3.43116 6.38096 3.4289 6.3817C3.42644 6.38251 3.42362 6.38299 3.42051 6.38299C3.41568 6.38299 3.41101 6.38185 3.40722 6.38C3.40397 6.37841 3.40075 6.37607 3.39738 6.37159L0.522212 2.54655Z" stroke="#7B6F72"/>
</svg>
