<svg width="60" height="60" viewBox="0 0 60 60" fill="none" xmlns="http://www.w3.org/2000/svg">
<rect opacity="0.2" width="60" height="60" rx="12" fill="url(#paint0_linear_430_732)"/>
<g clip-path="url(#clip0_430_732)">
<path d="M10.0183 24.0762C10.1939 26.96 17.3929 29.4963 29.5785 29.4963C42.1855 29.4963 49.0334 27.5854 49.1387 24.0762C49.2441 20.5669 42.4314 18.0305 29.8594 18.0653C19.3243 18.1 10.4748 18.8297 10.0183 24.0762Z" fill="#F7D3B0"/>
<path d="M10.8611 24.0417C11.0367 26.6128 17.9196 28.8712 29.5785 28.8712C41.6236 28.8712 48.1905 27.1687 48.2959 24.0417C48.4012 20.9147 41.8694 18.6215 29.8594 18.691C19.7457 18.7257 11.2825 19.3859 10.8611 24.0417Z" fill="#E2BFA3"/>
<path d="M10.8611 24.0417C11.0016 26.0916 15.4263 27.9679 23.2223 28.628C22.8009 28.35 22.4146 28.0373 21.9932 27.7246C19.6052 25.8137 17.6738 23.312 16.4447 20.4977C16.3393 20.2545 16.234 20.0113 16.1286 19.7681C13.0383 20.5325 11.0718 21.8528 10.8611 24.0417Z" fill="#CEAD97"/>
<path d="M19.6053 27.0296C19.4648 26.8906 19.2892 26.7516 19.1839 26.5432C19.0785 26.3347 19.0434 26.1262 19.0083 25.9178C18.8678 25.3271 18.4113 24.8407 17.8143 24.6322C17.6739 24.5627 17.4983 24.528 17.3929 24.4237C17.2876 24.2847 17.2876 24.1458 17.2876 23.972C17.2173 23.3466 16.7608 22.8255 16.1638 22.617C15.9882 22.5475 15.7775 22.5128 15.6371 22.4085C15.2859 22.1653 15.3561 21.6441 15.1454 21.2619C15.0401 21.0535 14.8294 20.9145 14.6538 20.7408C14.3377 20.4976 14.0217 20.2196 13.7056 19.9764C13.3896 19.6984 13.0384 19.4552 12.617 19.3857C12.4063 19.351 12.1605 19.3857 11.9849 19.2467C11.8093 19.1425 11.7742 18.934 11.6688 18.7603C11.2826 17.9959 10.1237 17.7875 9.45647 18.3434C8.78925 18.8993 8.78925 20.0459 9.45647 20.6018C8.99995 20.984 8.96483 21.7136 9.21065 22.2348C9.45647 22.756 9.94811 23.1729 10.4398 23.5204C10.5451 23.6246 10.6856 23.6941 10.7558 23.8331C10.8612 24.0415 10.826 24.25 10.826 24.4585C10.826 25.4313 11.5635 26.3694 12.5468 26.5779L20.0618 29.4617C20.413 28.6626 20.2023 27.655 19.6053 27.0296Z" fill="#6FB56B"/>
<path d="M17.8495 21.5745C17.4281 21.0533 17.0418 20.5321 16.7959 19.9415C16.5501 19.3508 16.4799 18.6212 16.7257 18.0305C16.7959 17.8915 16.9013 17.7178 16.9013 17.5788C16.9364 17.3704 16.8662 17.1966 16.8311 16.9882C16.6906 16.2933 16.9715 15.5636 17.4983 15.1119C18.025 14.6603 18.7976 14.5213 19.4648 14.7645C19.8862 14.417 20.5184 14.3476 21.01 14.5908C21.5016 14.834 21.8177 15.3899 21.7826 15.9111C22.3093 15.7721 22.8361 16.1195 23.117 16.5712C23.398 17.0229 23.4331 17.5788 23.4682 18.1C24.2408 18.0652 25.0133 18.4127 25.505 19.0034C25.9615 19.594 26.1371 20.4626 25.8913 21.1923C26.6287 21.7829 27.3311 22.4778 27.5067 23.416C27.6822 24.3193 27.0852 25.4312 26.1371 25.4659C26.6638 25.5006 26.9097 26.1955 26.6638 26.682C26.4531 27.1337 25.9264 27.4116 25.4699 27.6201C24.4866 28.037 23.4682 28.315 22.4147 28.454C21.7826 28.5234 21.1505 28.5582 20.5535 28.3497C19.2541 27.8633 18.6572 26.4735 18.2006 25.2922C17.7441 24.2498 16.4448 22.4431 17.8495 21.5745Z" fill="#81CC7A"/>
<path d="M36.1807 18.7603C36.5318 18.2392 37.2342 17.996 37.8312 18.1697C37.9014 17.4053 38.5335 16.7451 39.271 16.6409C40.0084 16.5367 40.8161 16.9884 41.1322 17.6832C41.6238 17.3011 42.3964 17.7527 42.5369 18.3434C42.6773 18.9341 42.3613 19.5595 41.975 20.0459C42.4666 20.1849 42.7124 20.8103 42.6422 21.2967C42.572 21.7831 42.2559 22.2348 41.9399 22.6865C42.6071 23.1729 42.7124 24.1805 42.3261 24.8754C41.9399 25.5703 41.0971 25.9873 40.2894 26.022C39.4465 26.0568 38.7442 25.7093 37.9716 25.3619C35.3379 28.5584 31.8613 21.0882 36.2158 20.5323C35.8997 19.9764 35.8295 19.2815 36.1807 18.7603Z" fill="#6FB56B"/>
<path d="M39.8327 21.8522C40.1838 21.2615 40.6052 20.7404 41.132 20.3234C41.5183 20.0107 41.9748 19.8023 42.4313 19.5938C43.6604 19.0031 45.1704 18.3777 46.3293 19.0726C46.54 19.2116 46.7507 19.3506 46.9614 19.4896C47.4531 19.7328 48.05 19.6633 48.6119 19.6633C49.1738 19.6633 49.7708 19.7328 50.2273 20.0455C50.7189 20.3582 51.035 20.8793 50.9999 21.4353C50.9648 21.7132 50.8243 21.9912 50.8243 22.3039C50.8243 22.5471 50.9296 22.7903 50.9648 23.0683C51.0701 23.6937 50.6487 24.4233 49.9815 24.5276C49.7708 24.5623 49.525 24.5276 49.2791 24.5623C48.2607 24.7013 47.8393 25.9868 46.9263 26.369C46.6454 26.4733 46.3644 26.508 46.0835 26.5775C45.8025 26.6817 45.5216 26.8207 45.2407 26.9597C43.4848 27.7588 41.2022 27.3419 39.8678 25.9521C38.6738 24.6665 39.025 23.1725 39.8327 21.8522Z" fill="#81CC7A"/>
<path d="M36.4966 26.5428C36.602 26.5775 36.6722 26.6123 36.7776 26.5775C36.8829 26.5428 36.918 26.4038 36.9532 26.2996C37.1639 25.6742 37.9364 25.292 38.6037 25.5005C38.7441 25.5352 38.8846 25.6047 39.0251 25.6047C39.2358 25.5699 39.3762 25.3962 39.5518 25.292C39.9732 24.9793 40.6053 25.014 40.9916 25.3615C41.097 25.4657 41.2023 25.5699 41.3077 25.6394C41.4481 25.7089 41.6237 25.6742 41.7642 25.7437C42.2909 25.8827 42.3963 26.647 42.9231 26.786C43.2742 26.2301 44.117 26.1259 44.6789 26.5081C45.2408 26.8903 45.4515 27.5852 45.4164 28.2453C45.311 29.7046 43.8712 30.9207 42.4314 30.8164C41.7642 30.7817 41.1321 30.469 40.4649 30.469C39.8328 30.469 39.2358 30.7469 38.6388 30.9554C37.199 31.5113 35.7592 31.3376 35.3378 29.7046C35.0568 28.7665 34.6706 26.1259 36.4966 26.5428Z" fill="#6FB56B"/>
<path d="M37.7257 18.7603C37.7257 18.7603 36.1455 21.7831 40.2542 23.555C44.3629 25.327 45.5217 21.8873 45.5217 21.8873L37.7257 18.7603Z" fill="#E24C24"/>
<path d="M45.4503 21.9556C45.8019 21.1236 44.3609 19.7349 42.2315 18.8539C40.1022 17.9729 38.091 17.9333 37.7393 18.7654C37.3876 19.5974 38.8287 20.9861 40.958 21.8671C43.0873 22.7481 45.0986 22.7877 45.4503 21.9556Z" fill="#FF5A27"/>
<path d="M45.1263 21.8213C45.4331 21.0954 44.1006 19.8529 42.1503 19.0459C40.1999 18.239 38.3701 18.1732 38.0633 18.8991C37.7565 19.625 39.0889 20.8675 41.0393 21.6745C42.9897 22.4814 44.8195 22.5471 45.1263 21.8213Z" fill="#FF8B78"/>
<path d="M40.4297 19.2812C40.2541 19.2812 40.0434 19.316 40.0083 19.4897C39.9732 19.5592 39.9732 19.6287 39.9381 19.6982C39.9029 19.7677 39.8327 19.7677 39.7976 19.8372C39.7625 19.8719 39.7976 19.9414 39.7976 19.9761C39.8678 20.2889 40.219 20.4278 40.535 20.4973C41.3076 20.7405 42.0802 21.0185 42.8528 21.2617C43.0635 21.3312 43.3093 21.4007 43.4498 21.2617C43.5902 21.1575 43.5902 20.949 43.52 20.7753C43.4498 20.6016 43.3093 20.4973 43.1688 20.3931C42.7474 20.0804 42.2909 19.7677 41.7993 19.594C41.3779 19.455 40.9565 19.2812 40.4297 19.2812Z" fill="#FF5A27"/>
<path d="M38.744 19.2118C38.8845 19.2466 39.025 19.3161 39.1654 19.3508C39.2005 19.3508 39.2357 19.3508 39.2357 19.3161C39.2708 19.3161 39.2708 19.2813 39.2708 19.2466C39.2708 19.1771 39.2357 19.1424 39.1654 19.1076C39.1303 19.1076 39.0601 19.0729 39.025 19.0729H39.0601C38.9547 19.0381 38.8845 19.0381 38.7791 19.0034C38.7089 18.9686 38.6387 19.0034 38.6387 19.0729C38.6738 19.1076 38.6738 19.2118 38.744 19.2118Z" fill="#FFB164"/>
<path d="M39.2358 18.9339C39.3762 19.0034 39.4816 18.7949 39.3411 18.7254C39.2006 18.6559 39.0953 18.8644 39.2358 18.9339Z" fill="#FFB164"/>
<path d="M39.2358 18.9336C39.306 18.9684 39.3762 19.0031 39.4816 19.0379C39.5167 19.0379 39.5518 19.0379 39.5869 19.0379C39.622 19.0379 39.6572 19.0031 39.6572 18.9684C39.6572 18.9336 39.6572 18.8989 39.6572 18.8642C39.6572 18.8294 39.622 18.8294 39.5869 18.7947C39.5167 18.7599 39.4465 18.7252 39.3411 18.6904C39.306 18.6904 39.2709 18.6904 39.2358 18.6904C39.2006 18.6904 39.1655 18.7252 39.1655 18.7599C39.1655 18.7947 39.1655 18.8294 39.1655 18.8642C39.2006 18.8989 39.2006 18.8989 39.2358 18.9336Z" fill="#FFB164"/>
<path d="M40.1487 18.6903C40.1487 18.7251 40.1487 18.7251 40.1487 18.7598C40.1487 18.7946 40.1487 18.7946 40.1838 18.8293C40.2189 18.8641 40.2189 18.8988 40.2891 18.9335C40.2891 18.9335 40.3243 18.9335 40.3243 18.9683H40.3594H40.3945C40.3945 18.9683 40.4296 18.9683 40.4296 18.9335V18.8988C40.4296 18.8641 40.4296 18.8641 40.4296 18.8293C40.4296 18.7946 40.3945 18.7598 40.3945 18.7598C40.3945 18.7598 40.3945 18.7598 40.4296 18.7946L40.3945 18.7598C40.3945 18.7598 40.3945 18.7598 40.3945 18.7946C40.3945 18.7946 40.3945 18.7598 40.3594 18.7598V18.7946V18.7598V18.7946V18.7598C40.3594 18.7598 40.3594 18.7251 40.3243 18.7251L40.2891 18.6903H40.254C40.2189 18.6903 40.1838 18.6903 40.1838 18.7251C40.1838 18.6556 40.1487 18.6903 40.1487 18.6903Z" fill="#FFB164"/>
<path d="M40.9565 18.8992C40.9565 18.934 40.9214 18.9687 40.9214 19.0382V19.073C40.9214 19.073 40.9214 19.1077 40.9565 19.1077L40.9916 19.1424H41.0267C41.0619 19.1424 41.097 19.1424 41.097 19.1077C41.097 19.1077 41.097 19.1077 41.1321 19.073C41.1321 19.073 41.1672 19.0382 41.1672 19.0035C41.1672 18.9687 41.2023 18.934 41.2023 18.8645V18.8297C41.2023 18.8297 41.2023 18.795 41.1672 18.795L41.1321 18.7603H41.097C41.0619 18.7603 41.0267 18.7603 41.0267 18.795C41.0267 18.795 41.0267 18.795 40.9916 18.8297C40.9565 18.8645 40.9565 18.8645 40.9565 18.8992Z" fill="#FFB164"/>
<path d="M42.326 19.6285C42.3611 19.5938 42.4314 19.5938 42.4665 19.5591C42.4665 19.5591 42.5016 19.5591 42.5016 19.5243L42.5367 19.4896V19.4548V19.4201C42.5367 19.4201 42.5367 19.4201 42.5367 19.3853L42.5016 19.3506H42.4665C42.4314 19.3506 42.4314 19.3506 42.3963 19.3506C42.3611 19.3853 42.2909 19.3853 42.2558 19.4201C42.2558 19.4201 42.2207 19.4201 42.2207 19.4548L42.1855 19.4896V19.5243V19.5591C42.1855 19.5591 42.1855 19.5591 42.1855 19.5938L42.2207 19.6285H42.2558C42.2909 19.6285 42.326 19.6285 42.326 19.6285Z" fill="#FFB164"/>
<path d="M43.2389 20.185C43.3091 20.185 43.3794 20.2198 43.4847 20.2198C43.5198 20.2198 43.5549 20.2198 43.5549 20.185C43.5901 20.185 43.5901 20.1503 43.5901 20.1155C43.5901 20.0808 43.5901 20.0461 43.5549 20.0461C43.5198 20.0113 43.5198 20.0113 43.4847 20.0113C43.4145 20.0113 43.3442 19.9766 43.2389 19.9766C43.2038 19.9766 43.1687 19.9766 43.1687 20.0113C43.1335 20.0113 43.1335 20.0461 43.1335 20.0808C43.1335 20.1155 43.1335 20.1503 43.1687 20.1503C43.2038 20.1503 43.2038 20.185 43.2389 20.185Z" fill="#FFB164"/>
<path d="M43.8711 20.7753C43.9765 20.8448 44.1169 20.8796 44.2223 20.8796C44.2574 20.8796 44.2925 20.8796 44.2925 20.8448C44.3276 20.8448 44.3276 20.8101 44.3276 20.7753C44.3276 20.7406 44.3276 20.7058 44.2925 20.7058C44.2574 20.6711 44.2574 20.6711 44.2223 20.6711C44.1872 20.6711 44.1872 20.6711 44.1521 20.6711H44.1872C44.1169 20.6363 44.0116 20.6016 43.9414 20.5669C43.8711 20.5321 43.8009 20.5669 43.8009 20.6363C43.7658 20.6711 43.8009 20.7406 43.8711 20.7753Z" fill="#FFB164"/>
<path d="M44.0819 21.4355C44.1872 21.505 44.2574 21.5745 44.3628 21.644C44.3979 21.6787 44.433 21.6787 44.433 21.6787C44.4682 21.6787 44.5033 21.644 44.5033 21.644C44.5384 21.6092 44.5384 21.505 44.4682 21.4703C44.3628 21.4008 44.2926 21.3313 44.1872 21.2618C44.1521 21.2271 44.117 21.2271 44.117 21.2271C44.0819 21.2271 44.0467 21.2618 44.0467 21.2618C44.0116 21.3313 44.0116 21.4008 44.0819 21.4355Z" fill="#FFB164"/>
<path d="M43.4497 21.6093C43.4848 21.6788 43.5199 21.7483 43.555 21.8177C43.555 21.8177 43.555 21.8525 43.5902 21.8525L43.6253 21.8872C43.6604 21.8872 43.6955 21.8872 43.7306 21.8872C43.7657 21.8872 43.7657 21.8525 43.8009 21.8177C43.8009 21.783 43.8009 21.7483 43.8009 21.7135C43.7657 21.644 43.7306 21.5745 43.6955 21.505C43.6955 21.505 43.6955 21.4703 43.6604 21.4703L43.6253 21.4355C43.5902 21.4355 43.555 21.4355 43.5199 21.4355C43.4848 21.4355 43.4848 21.4703 43.4497 21.505C43.4497 21.5398 43.4146 21.5745 43.4497 21.6093Z" fill="#FFB164"/>
<path d="M42.5366 21.6093V21.644C42.5366 21.644 42.5366 21.644 42.5366 21.6093C42.5366 21.644 42.5366 21.6788 42.5366 21.6788V21.644C42.5366 21.644 42.5366 21.644 42.5366 21.6788V21.7135V21.7483C42.5366 21.7483 42.5366 21.783 42.5717 21.783L42.6068 21.8177C42.642 21.8177 42.6771 21.8177 42.7122 21.8177C42.7473 21.8177 42.7824 21.783 42.7824 21.7483C42.7824 21.7135 42.8175 21.6788 42.8175 21.644C42.8175 21.6093 42.8175 21.5745 42.8175 21.5398C42.8175 21.505 42.7824 21.4703 42.7824 21.4703C42.7824 21.4703 42.7473 21.4703 42.7473 21.4355H42.7122C42.6771 21.4355 42.642 21.4703 42.642 21.4703V21.505C42.5366 21.5745 42.5015 21.6093 42.5366 21.6093Z" fill="#FFB164"/>
<path d="M41.3076 21.2965C41.3076 21.3313 41.3076 21.3313 41.3076 21.366V21.3313C41.3076 21.366 41.2725 21.4008 41.2725 21.4008V21.4355V21.4703C41.2725 21.505 41.3076 21.5398 41.3427 21.5398C41.3778 21.5398 41.4129 21.5398 41.448 21.5398C41.448 21.5398 41.448 21.5398 41.4832 21.5398L41.5183 21.505C41.5183 21.4703 41.5534 21.4355 41.5534 21.4355C41.5534 21.4008 41.5885 21.366 41.5885 21.3313C41.5885 21.2965 41.5885 21.2618 41.5534 21.2618L41.5183 21.2271H41.4832C41.448 21.2271 41.4129 21.2271 41.4129 21.2618C41.3076 21.2271 41.3076 21.2618 41.3076 21.2965Z" fill="#FFB164"/>
<path d="M40.4647 20.9144V20.9491V20.9144C40.4647 20.9491 40.4296 20.9491 40.4296 20.9491C40.4296 20.9491 40.4647 20.9491 40.4647 20.9144C40.4296 20.9491 40.4296 20.9839 40.3945 20.9839C40.3945 20.9839 40.3945 20.9839 40.4296 20.9839C40.4296 20.9839 40.3945 20.9839 40.3945 21.0186C40.3945 21.0186 40.3593 21.0186 40.3593 21.0534L40.3242 21.0881C40.3242 21.1228 40.3242 21.1576 40.3242 21.1923C40.3242 21.2271 40.3593 21.2271 40.3945 21.2618H40.4296C40.4647 21.2618 40.4647 21.2618 40.4998 21.2618C40.5349 21.2618 40.5349 21.2271 40.57 21.2271L40.6052 21.1923C40.6403 21.1576 40.6403 21.1576 40.6403 21.1228C40.6403 21.0881 40.6754 21.0881 40.6754 21.0534C40.6754 21.0186 40.6754 20.9839 40.6754 20.9491C40.6754 20.9144 40.6403 20.8796 40.6052 20.8796C40.57 20.8796 40.5349 20.8796 40.4998 20.8796C40.4998 20.8449 40.4647 20.8796 40.4647 20.9144Z" fill="#FFB164"/>
<path d="M39.7274 20.1847C39.6923 20.1847 39.6572 20.2195 39.622 20.2195H39.6572C39.5869 20.2195 39.5518 20.2542 39.4816 20.2542C39.4465 20.2542 39.4113 20.289 39.4113 20.289C39.3762 20.3237 39.3762 20.3584 39.3762 20.3584C39.3762 20.3932 39.4113 20.4279 39.4113 20.4279H39.4465C39.4816 20.4279 39.4816 20.4279 39.5167 20.4279C39.622 20.4279 39.7274 20.3932 39.8327 20.3584C39.8679 20.3584 39.8679 20.3237 39.903 20.289C39.903 20.2542 39.903 20.2195 39.903 20.1847C39.903 20.15 39.8679 20.15 39.8327 20.1152C39.7976 20.1847 39.7625 20.1847 39.7274 20.1847Z" fill="#FFB164"/>
<path d="M38.7791 19.837C38.8143 19.837 38.8494 19.8022 38.8845 19.8022C38.8845 19.8022 38.9196 19.8022 38.9196 19.7675L38.9547 19.7327V19.698V19.6632C38.9547 19.6632 38.9547 19.6632 38.9547 19.6285L38.9196 19.5938H38.8845C38.8494 19.5938 38.8494 19.5938 38.8143 19.5938C38.7791 19.5938 38.744 19.6285 38.7089 19.6285C38.7089 19.6285 38.6738 19.6285 38.6738 19.6632L38.6387 19.698V19.7327V19.7675C38.6387 19.7675 38.6387 19.7675 38.6387 19.8022L38.6738 19.837H38.7089C38.744 19.837 38.744 19.837 38.7791 19.837Z" fill="#FFB164"/>
<path opacity="0.24" d="M38.1472 21.5743C38.3228 21.8175 38.4633 22.0607 38.7442 22.165C38.8496 22.1997 38.9549 22.2345 39.0252 22.1302C39.0603 22.0607 39.0252 21.9565 38.99 21.887C38.8847 21.748 38.7793 21.5743 38.7442 21.4006C38.674 21.0879 38.6037 20.4277 38.1121 20.4277C37.5853 20.4625 38.0068 21.4006 38.1472 21.5743Z" fill="white"/>
<path d="M25.3997 24.0065C25.0485 23.2769 25.0134 22.3735 25.505 21.7134C25.9264 21.1574 26.6288 20.8447 27.296 20.5668C26.4181 19.7676 26.2074 18.4126 26.8044 17.405C27.4013 16.3974 28.7358 15.8415 29.9298 16.0847C29.6488 15.2161 30.3863 14.2432 31.3696 14.0347C32.3177 13.8263 33.3712 14.3127 33.898 15.0771C34.5652 14.6949 35.5485 14.8339 36.0401 15.3898C36.5318 15.9805 36.4967 16.8838 35.9348 17.405C36.8829 18.2041 36.9883 19.6982 36.1455 20.6015C36.6722 21.0185 36.9532 21.6439 36.8478 22.2693C36.7776 22.8947 36.3562 23.4506 35.7592 23.7633C35.8997 24.1802 36.005 24.6319 35.7943 25.0141C35.5485 25.4658 34.9515 25.6395 34.4248 25.6395C33.898 25.6395 33.3361 25.5353 32.8094 25.6395C33.0201 26.126 32.5987 26.6819 32.0719 26.8903C31.5452 27.0988 30.9482 27.0293 30.3863 26.9946C29.7542 26.9251 29.1221 26.8556 28.4549 26.8208C28.1037 26.7861 27.7174 26.7514 27.4365 26.5429C27.0853 26.2997 26.9799 25.7438 26.6639 25.4311C26.2074 24.9794 25.7157 24.6319 25.3997 24.0065Z" fill="#89E269"/>
<path d="M37.3041 24.0066L37.2339 25.2574C37.2339 25.2574 37.866 27.0294 40.6051 27.3768C43.6603 27.759 45.9078 26.7862 45.9429 24.9794C45.9429 24.6667 45.5566 23.9023 45.5566 23.9023L37.269 23.9718L37.3041 24.0066Z" fill="#59B24F"/>
<path d="M45.6002 24.3523C45.6614 23.1833 43.8582 22.1406 41.5726 22.0233C39.2871 21.9061 37.3846 22.7587 37.3233 23.9278C37.2621 25.0968 39.0652 26.1395 41.3508 26.2567C43.6364 26.3739 45.5389 25.5213 45.6002 24.3523Z" fill="#84D17D"/>
<path d="M45.346 24.2847C45.3812 25.188 43.6955 25.9872 41.5534 25.9177C39.4464 25.8482 37.5852 24.8753 37.55 23.972C37.5149 23.0686 39.3761 22.1652 41.4832 22.2347C43.6253 22.339 45.3109 23.3813 45.346 24.2847Z" fill="#B0EDA9"/>
<path d="M39.095 23.798C39.0248 23.7285 38.9546 23.659 38.9194 23.5895C38.9194 23.4505 39.095 23.3811 39.2355 23.3811C39.5515 23.3463 39.8325 23.4158 40.1134 23.52C40.0081 23.4158 39.9378 23.2768 39.9027 23.1726C39.9027 23.1378 39.8676 23.1031 39.9027 23.1031C39.9378 23.0336 40.0081 23.0336 40.0783 23.0684C40.3944 23.2073 40.7104 23.3811 41.0265 23.5895C40.9562 23.4505 40.886 23.3116 40.8509 23.1726C40.8509 23.0336 40.886 22.8599 41.0265 22.7904C41.202 22.6862 41.4127 22.7904 41.5532 22.9294C41.6937 23.0684 41.7639 23.2768 41.799 23.4505C42.0449 23.2421 42.396 23.1378 42.7472 23.1726C42.8174 23.1726 42.9228 23.2073 42.9579 23.2768C43.0281 23.3811 42.9228 23.4853 42.8174 23.5548C43.2037 23.4505 43.6602 23.5548 43.9763 23.8327C44.0114 23.8675 44.0465 23.9022 44.0465 23.9717C44.0465 24.0065 44.0114 24.0412 44.0114 24.0412C43.8709 24.2149 43.6602 24.3192 43.4495 24.3539C43.2388 24.3887 42.993 24.3887 42.7823 24.3887C42.993 24.4581 43.2037 24.5624 43.4144 24.7014C43.4495 24.7014 43.4495 24.7361 43.4847 24.7708C43.4847 24.8056 43.4847 24.8056 43.4495 24.8403C43.3091 25.0836 42.993 25.153 42.7121 25.0488C42.4311 24.9793 42.2204 24.8056 41.9746 24.6319C42.08 24.7708 42.1853 24.9446 42.1502 25.1183C42.1151 25.292 41.9746 25.431 41.799 25.3963C41.7288 25.3615 41.6586 25.3268 41.6234 25.2573C41.4479 25.0836 41.3074 24.8751 41.2372 24.6666C41.2372 24.9446 40.9913 25.1878 40.6753 25.2225C40.6051 25.2225 40.5348 25.2225 40.4646 25.153C40.3944 25.0836 40.3944 24.9793 40.4295 24.9098C40.4646 24.8403 40.5348 24.7708 40.6051 24.7014C40.3944 24.8403 40.1485 24.9446 39.9378 24.8056C39.8676 24.7708 39.8325 24.7014 39.8325 24.6319C39.8325 24.5971 39.9027 24.5624 39.9378 24.5276C40.0432 24.4581 40.289 24.3887 40.3241 24.2844C39.8325 24.1454 39.4462 24.076 39.095 23.798Z" fill="#C1FFB8"/>
<path d="M23.6788 30.5384L25.0484 31.5807C25.0484 31.5807 27.8226 32.4494 31.0885 30.4342C34.7758 28.1758 36.0751 25.5351 34.0032 24.0759C33.652 23.8326 32.3176 23.5547 32.3176 23.5547L23.5383 30.5037L23.6788 30.5384Z" fill="#59B24F"/>
<path d="M29.6665 29.5448C32.452 27.9476 34.0873 25.5896 33.3191 24.2781C32.5508 22.9665 29.67 23.198 26.8844 24.7951C24.0989 26.3923 22.4636 28.7503 23.2318 30.0618C24.0001 31.3734 26.8809 31.1419 29.6665 29.5448Z" fill="#84D17D"/>
<path d="M32.5635 24.0411C33.617 24.736 32.7742 26.786 30.4214 28.4885C28.0685 30.1909 24.9782 30.9901 23.8896 30.2952C22.8361 29.6003 23.7491 27.3766 26.0668 25.6741C28.3846 23.9716 31.51 23.3462 32.5635 24.0411Z" fill="#B0EDA9"/>
<path d="M25.3293 28.9051C25.1888 28.9399 25.0132 28.9399 24.9079 28.8704C24.7323 28.7662 24.8377 28.5577 24.9781 28.4187C25.2591 28.1408 25.6454 27.9323 26.0668 27.7586C25.8561 27.7586 25.6102 27.7238 25.4347 27.6543C25.3995 27.6543 25.3293 27.6196 25.3293 27.5848C25.2591 27.5153 25.3995 27.4459 25.5049 27.4111C25.9965 27.2374 26.5584 27.0984 27.0852 27.0289C26.8393 26.9942 26.6286 26.9594 26.453 26.8552C26.2775 26.751 26.1721 26.5772 26.2072 26.4035C26.2775 26.195 26.5935 26.0561 26.9096 26.0561C27.2256 26.0561 27.5066 26.1603 27.7875 26.2645C27.8226 25.8823 28.0684 25.5002 28.4547 25.2569C28.5601 25.1874 28.6654 25.1527 28.8059 25.1527C28.9815 25.1874 29.0166 25.3612 28.9815 25.5001C29.2624 25.0832 29.8945 24.8053 30.5266 24.7705C30.5969 24.7705 30.7022 24.7705 30.7724 24.8053C30.8076 24.84 30.8076 24.8747 30.8427 24.9095C30.9129 25.1527 30.8076 25.4307 30.5969 25.6391C30.4213 25.8476 30.1755 26.0561 29.9296 26.2298C30.2457 26.0908 30.5969 26.0213 30.9831 25.9518C31.0183 25.9518 31.0885 25.9518 31.1236 25.9518C31.1587 25.9518 31.1587 25.9866 31.1939 26.0213C31.2992 26.334 31.0534 26.6467 30.6671 26.8205C30.2808 26.9942 29.8243 27.0289 29.4029 27.0984C29.6838 27.0984 29.9648 27.1679 30.1403 27.3416C30.3159 27.4806 30.2808 27.7586 30.0701 27.8628C29.9648 27.8975 29.8243 27.9323 29.7189 27.9323C29.3326 27.9323 28.9815 27.8975 28.6303 27.7933C28.9464 28.0365 28.9815 28.4187 28.6654 28.6967C28.5952 28.7662 28.4898 28.8357 28.3494 28.8357C28.2089 28.8357 28.0684 28.7662 28.0333 28.6619C27.9631 28.5577 27.9982 28.4535 27.9982 28.3492C27.928 28.6272 27.7875 28.9399 27.4012 29.0094C27.2959 29.0441 27.1554 29.0094 27.0852 28.9399C27.05 28.9051 27.05 28.8357 27.0852 28.8009C27.1203 28.6619 27.2959 28.384 27.2256 28.2797C26.5233 28.523 26.0316 28.8009 25.3293 28.9051Z" fill="#C1FFB8"/>
<path d="M25.5049 16.05L24.2407 16.6059C24.2407 16.6059 22.7658 18.0999 23.6437 20.9142C24.627 24.076 26.5935 25.8133 28.3845 24.9446C28.6654 24.8057 29.2624 24.0065 29.2624 24.0065L25.54 15.9805L25.5049 16.05Z" fill="#59B24F"/>
<path d="M28.7997 24.3829C29.9998 23.9425 30.2675 21.7041 29.3976 19.3831C28.5277 17.0622 26.8496 15.5377 25.6494 15.9781C24.4492 16.4184 24.1815 18.6569 25.0514 20.9778C25.9213 23.2987 27.5995 24.8232 28.7997 24.3829Z" fill="#84D17D"/>
<path d="M28.8058 24.0411C27.9278 24.4928 26.3827 23.2419 25.5048 21.1573C24.6268 19.0726 24.7673 16.7447 25.6452 16.293C26.5232 15.8413 28.2088 17.1963 29.0867 19.281C29.9646 21.3657 29.6837 23.5894 28.8058 24.0411Z" fill="#B0EDA9"/>
<path d="M26.4881 17.6827C26.5232 17.5784 26.5232 17.4742 26.6286 17.4047C26.7691 17.3352 26.9095 17.4742 26.9798 17.6132C27.1202 17.8911 27.2256 18.2038 27.2607 18.5513C27.3309 18.4123 27.4012 18.2733 27.5065 18.1691C27.5416 18.1344 27.5416 18.1344 27.5768 18.0996C27.647 18.0996 27.6821 18.1691 27.6821 18.2733C27.7172 18.6555 27.6821 19.0377 27.5768 19.4547C27.647 19.3157 27.7523 19.1767 27.8928 19.1072C28.0333 19.0377 28.2089 19.003 28.3493 19.1072C28.5249 19.2114 28.5249 19.4894 28.4547 19.6979C28.3844 19.9063 28.2089 20.0453 28.0684 20.1843C28.3844 20.3233 28.6654 20.6012 28.7707 20.9487C28.8059 21.0182 28.8059 21.1224 28.7707 21.1919C28.7005 21.2961 28.5249 21.2614 28.4196 21.1919C28.7005 21.5046 28.8059 22.0258 28.6654 22.4427C28.6654 22.5122 28.6303 22.547 28.56 22.5817C28.5249 22.5817 28.4898 22.5817 28.4547 22.5817C28.2089 22.547 28.0333 22.3732 27.8928 22.1995C27.7523 21.991 27.647 21.7826 27.5768 21.5394C27.6119 21.7826 27.5768 22.0605 27.5416 22.3037C27.5416 22.3385 27.5416 22.3732 27.5065 22.408C27.4714 22.408 27.4714 22.408 27.4363 22.408C27.1554 22.3732 26.9446 22.0953 26.8744 21.7826C26.8393 21.4699 26.9095 21.1572 26.9798 20.8445C26.9095 21.0182 26.7691 21.1919 26.5935 21.2614C26.4179 21.3309 26.2072 21.2266 26.1721 21.0529C26.1721 20.9834 26.1721 20.8792 26.2072 20.8097C26.3125 20.5665 26.4179 20.3233 26.5935 20.1496C26.3125 20.2885 25.9614 20.1496 25.8209 19.8716C25.7858 19.8021 25.7507 19.6979 25.7858 19.6284C25.8209 19.5241 25.9263 19.4894 26.0316 19.4894C26.137 19.4894 26.2072 19.5241 26.3125 19.5589C26.1018 19.4199 25.856 19.2114 25.8911 18.9335C25.8911 18.864 25.9614 18.7598 26.0316 18.7598C26.0667 18.7598 26.137 18.7598 26.1721 18.7945C26.2774 18.864 26.4881 19.0725 26.5935 19.0725C26.4881 18.586 26.3828 18.1691 26.4881 17.6827Z" fill="#C1FFB8"/>
<path d="M19.8511 25.7438C19.8511 25.7438 20.0969 29.1488 24.5216 28.5234C28.9815 27.898 28.1387 24.354 28.1387 24.354L19.8511 25.7438Z" fill="#E24C24"/>
<path d="M24.2504 26.6984C26.5304 26.3445 28.2642 25.3353 28.1229 24.4443C27.9816 23.5533 26.0188 23.118 23.7387 23.4719C21.4587 23.8259 19.7249 24.8351 19.8662 25.726C20.0075 26.617 21.9703 27.0524 24.2504 26.6984Z" fill="#FF5A27"/>
<path d="M24.2178 26.4922C26.3062 26.168 27.8993 25.2752 27.776 24.4979C27.6528 23.7207 25.8599 23.3534 23.7714 23.6776C21.683 24.0018 20.0899 24.8947 20.2132 25.672C20.3364 26.4492 22.1293 26.8164 24.2178 26.4922Z" fill="#FF8B78"/>
<path d="M22.4498 24.7715C22.3093 24.8758 22.1688 25.0147 22.2039 25.1885C22.2039 25.258 22.2742 25.3274 22.2742 25.3969C22.2742 25.4664 22.2391 25.5359 22.2391 25.6054C22.2391 25.6401 22.2742 25.7096 22.3093 25.7444C22.5551 25.9528 22.9063 25.8834 23.2223 25.8139C24.03 25.6401 24.8026 25.4317 25.6103 25.258C25.821 25.2232 26.0668 25.119 26.1019 24.9452C26.1722 24.7715 26.0668 24.5978 25.8912 24.4936C25.7508 24.3893 25.5752 24.3546 25.3996 24.3546C24.8728 24.2851 24.3461 24.2851 23.8193 24.3893C23.3277 24.4241 22.8712 24.4936 22.4498 24.7715Z" fill="#FF5A27"/>
<path d="M20.9747 25.6053C21.1152 25.5705 21.2556 25.5358 21.3961 25.501C21.4312 25.501 21.4312 25.4663 21.4663 25.4315C21.4663 25.3968 21.4663 25.362 21.4663 25.3273C21.4312 25.2578 21.361 25.2578 21.3259 25.2578C21.2907 25.2578 21.2556 25.2926 21.1854 25.2926H21.2205C21.1152 25.3273 21.0449 25.3273 20.9396 25.362C20.8693 25.362 20.8342 25.4315 20.8342 25.501C20.8693 25.5705 20.9045 25.6053 20.9747 25.6053Z" fill="#FFB164"/>
<path d="M21.2558 25.084C21.3962 25.0493 21.3611 24.8408 21.2207 24.8408C21.0451 24.8756 21.0802 25.1188 21.2558 25.084Z" fill="#FFB164"/>
<path d="M21.2557 25.084C21.3611 25.084 21.4313 25.084 21.5367 25.0493C21.5718 25.0493 21.6069 25.0145 21.6069 25.0145C21.6069 24.9798 21.642 24.9451 21.642 24.9451C21.642 24.9103 21.6069 24.8756 21.6069 24.8756C21.5718 24.8408 21.5367 24.8408 21.5367 24.8408C21.4313 24.8408 21.3611 24.8408 21.2557 24.8756C21.2206 24.8756 21.1855 24.9103 21.1855 24.9103C21.1855 24.9451 21.1504 24.9798 21.1504 24.9798C21.1504 25.0145 21.1855 25.0493 21.1855 25.0493C21.1855 25.084 21.2206 25.084 21.2557 25.084Z" fill="#FFB164"/>
<path d="M21.9231 24.4237C21.9231 24.4585 21.9582 24.4585 21.9582 24.4932C21.9582 24.528 21.9933 24.528 22.0284 24.528C22.0635 24.5627 22.1338 24.5627 22.1689 24.5974H22.204C22.204 24.5974 22.2391 24.5974 22.2391 24.5627L22.2742 24.528V24.4932V24.4585C22.2742 24.4237 22.2742 24.4237 22.2391 24.389C22.204 24.3542 22.204 24.3542 22.1689 24.3542C22.1689 24.3542 22.1689 24.3542 22.1338 24.3542H22.1689C22.1689 24.3542 22.1338 24.3542 22.1338 24.3195C22.1338 24.3195 22.1338 24.3195 22.1689 24.3195L22.1338 24.2847C22.1338 24.2847 22.1338 24.2847 22.1689 24.3195L22.1338 24.2847C22.1338 24.2847 22.1338 24.2847 22.1338 24.3195C22.1338 24.3195 22.1338 24.2847 22.0987 24.2847L22.0635 24.25H22.0284H21.9933C21.9582 24.25 21.9582 24.2847 21.9231 24.3195C21.8879 24.3542 21.8879 24.389 21.9231 24.4237Z" fill="#FFB164"/>
<path d="M22.6604 24.1806C22.6604 24.2153 22.6955 24.2501 22.6955 24.3195C22.6955 24.3195 22.6955 24.3543 22.7306 24.3543L22.7658 24.389H22.8009H22.836C22.8711 24.389 22.8711 24.3543 22.9062 24.3195V24.2848C22.9062 24.2501 22.9062 24.2501 22.9062 24.2153C22.9062 24.1806 22.8711 24.1458 22.8711 24.0763C22.8711 24.0763 22.8711 24.0416 22.836 24.0416L22.8009 24.0068H22.7658H22.7306C22.6955 24.0068 22.6955 24.0416 22.6604 24.0763V24.1111C22.6604 24.1458 22.6604 24.1458 22.6604 24.1806Z" fill="#FFB164"/>
<path d="M24.2407 24.0763C24.2759 24.0416 24.311 24.0068 24.3461 23.9373C24.3461 23.9373 24.3461 23.9026 24.3812 23.9026V23.8678V23.8331C24.3812 23.8331 24.3812 23.7983 24.3461 23.7983C24.3461 23.7983 24.3461 23.7983 24.311 23.7983C24.2758 23.7983 24.2759 23.7983 24.2407 23.7983H24.2056C24.1705 23.7983 24.1705 23.8331 24.1705 23.8331C24.1354 23.8678 24.1003 23.9026 24.0651 23.9721C24.0651 23.9721 24.0651 24.0068 24.03 24.0068V24.0416V24.0763C24.03 24.0763 24.03 24.111 24.0651 24.111C24.0651 24.111 24.0651 24.111 24.1003 24.111C24.1354 24.111 24.1354 24.111 24.1705 24.111H24.2056L24.2407 24.0763Z" fill="#FFB164"/>
<path d="M25.3294 24.0765C25.3996 24.0417 25.4699 24.007 25.5401 23.9722C25.5752 23.9722 25.5752 23.9375 25.6103 23.9027C25.6103 23.868 25.6103 23.8332 25.6103 23.7985C25.6103 23.7637 25.5752 23.7637 25.5401 23.729C25.505 23.729 25.4699 23.729 25.4347 23.729C25.3645 23.7637 25.2943 23.7985 25.224 23.8332C25.1889 23.8332 25.1889 23.868 25.1538 23.9027C25.1538 23.9375 25.1538 23.9722 25.1538 24.007C25.1538 24.0417 25.1889 24.0417 25.224 24.0765C25.2592 24.0765 25.2943 24.0765 25.3294 24.0765Z" fill="#FFB164"/>
<path d="M26.1722 24.2502C26.3126 24.2502 26.418 24.2155 26.5233 24.1807C26.5585 24.1807 26.5585 24.146 26.5936 24.1112C26.5936 24.0765 26.5936 24.0417 26.5936 24.007C26.5936 23.9722 26.5585 23.9722 26.5233 23.9375C26.4882 23.9375 26.4531 23.9375 26.418 23.9375C26.3829 23.9375 26.3829 23.9375 26.3478 23.9722H26.3829C26.3126 24.007 26.2073 24.007 26.1019 24.007C26.0317 24.007 25.9966 24.0765 25.9966 24.146C26.0317 24.2502 26.1019 24.2849 26.1722 24.2502Z" fill="#FFB164"/>
<path d="M26.6989 24.7364C26.8042 24.7364 26.9447 24.7364 27.05 24.7711C27.0851 24.7711 27.1203 24.7711 27.1203 24.7364C27.1554 24.7016 27.1554 24.7016 27.1554 24.6669C27.1554 24.5974 27.1203 24.5279 27.05 24.5279C26.9447 24.5279 26.8042 24.5279 26.6989 24.4932C26.6637 24.4932 26.6286 24.4932 26.6286 24.5279C26.5935 24.5627 26.5935 24.5627 26.5935 24.5974C26.5935 24.6669 26.6286 24.7364 26.6989 24.7364Z" fill="#FFB164"/>
<path d="M26.2424 25.1884C26.3126 25.2231 26.3829 25.2579 26.4531 25.2926C26.4531 25.2926 26.4882 25.2926 26.4882 25.3274H26.5233C26.5584 25.3274 26.5936 25.2926 26.5936 25.2926C26.5936 25.2579 26.6287 25.2231 26.6287 25.2231C26.6287 25.1884 26.5936 25.1536 26.5936 25.1536C26.5233 25.1189 26.4531 25.0841 26.3829 25.0494C26.3829 25.0494 26.3477 25.0494 26.3477 25.0146H26.3126C26.2775 25.0146 26.2424 25.0494 26.2424 25.0494C26.2424 25.0841 26.2073 25.1189 26.2073 25.1189C26.2073 25.1536 26.2073 25.1884 26.2424 25.1884Z" fill="#FFB164"/>
<path d="M25.4699 25.6746L25.505 25.7094C25.4699 25.7094 25.4699 25.7094 25.4699 25.6746C25.505 25.7094 25.505 25.7441 25.505 25.7441V25.7094C25.505 25.7094 25.505 25.7094 25.505 25.7441V25.7789C25.505 25.7789 25.505 25.8136 25.5402 25.8136C25.5402 25.8136 25.5753 25.8136 25.5753 25.8483H25.6104C25.6455 25.8483 25.6806 25.8136 25.6806 25.8136C25.6806 25.7789 25.7157 25.7441 25.7157 25.7441C25.7157 25.7094 25.7158 25.6746 25.6806 25.6399C25.6806 25.6051 25.6455 25.5704 25.6104 25.5704C25.5753 25.5356 25.5753 25.5356 25.5402 25.5356H25.505C25.505 25.5356 25.4699 25.5356 25.4699 25.5704C25.4348 25.6051 25.4348 25.6051 25.4348 25.6399V25.6746C25.4348 25.6399 25.4348 25.6746 25.4699 25.6746Z" fill="#FFB164"/>
<path d="M24.2407 26.0223C24.2407 26.057 24.2758 26.057 24.2758 26.0918V26.057C24.2758 26.0918 24.2758 26.1265 24.2758 26.1613V26.196C24.2758 26.196 24.2758 26.2307 24.3109 26.2307C24.346 26.2307 24.3812 26.2655 24.3812 26.2655C24.4163 26.2655 24.4514 26.2307 24.4514 26.2307C24.4514 26.2307 24.4514 26.2307 24.4514 26.196C24.4514 26.1613 24.4514 26.1613 24.4514 26.1265C24.4514 26.0918 24.4514 26.057 24.4514 26.057C24.4514 26.0223 24.4163 25.9875 24.4163 25.9528C24.4163 25.918 24.3812 25.918 24.346 25.8833H24.3109H24.2758C24.2407 25.8833 24.2407 25.918 24.2056 25.9528C24.2407 25.9528 24.2407 25.9875 24.2407 26.0223Z" fill="#FFB164"/>
<path d="M23.3276 26.1263V26.161C23.3276 26.161 23.3276 26.161 23.3276 26.1263C23.3276 26.161 23.3276 26.161 23.3276 26.1958C23.3276 26.1958 23.3276 26.1958 23.3276 26.1263C23.3276 26.161 23.3276 26.1958 23.3276 26.1958C23.3276 26.1958 23.3276 26.1958 23.3276 26.161C23.3276 26.161 23.3276 26.1958 23.2924 26.1958C23.2924 26.1958 23.2924 26.2305 23.2573 26.2305V26.2653C23.2573 26.3 23.2924 26.3348 23.2924 26.3348C23.3276 26.3348 23.3627 26.3695 23.3627 26.3695H23.3978C23.4329 26.3695 23.4329 26.3348 23.4329 26.3348C23.468 26.3 23.468 26.3 23.468 26.2653C23.468 26.2653 23.468 26.2305 23.5031 26.2305C23.5031 26.1958 23.5031 26.1958 23.5031 26.161C23.5031 26.1263 23.5031 26.0915 23.5031 26.0915C23.5031 26.0568 23.468 26.022 23.468 26.022C23.4329 26.022 23.3978 25.9873 23.3978 25.9873C23.3627 25.9873 23.3276 26.022 23.3276 26.022C23.3276 26.0915 23.3276 26.1263 23.3276 26.1263Z" fill="#FFB164"/>
<path d="M22.3093 25.9177C22.2742 25.9525 22.2742 25.9872 22.2391 26.0219C22.2391 26.0219 22.2391 26.0219 22.2742 25.9872C22.2391 26.0219 22.1689 26.0567 22.1338 26.0914C22.0986 26.0914 22.0986 26.1262 22.0986 26.1609C22.0986 26.1957 22.0986 26.2304 22.1338 26.2304C22.1689 26.2652 22.1689 26.2652 22.204 26.2652H22.2391C22.2742 26.2652 22.2742 26.2652 22.3093 26.2304C22.4147 26.1609 22.4849 26.0914 22.5552 25.9872C22.5552 25.9525 22.5903 25.9177 22.5903 25.9177C22.5903 25.883 22.5552 25.8482 22.5552 25.8482C22.52 25.8482 22.4849 25.8135 22.4849 25.8135C22.3796 25.883 22.3445 25.883 22.3093 25.9177Z" fill="#FFB164"/>
<path d="M21.3259 26.0918C21.3611 26.057 21.3611 26.0223 21.3962 26.0223C21.3962 26.0223 21.3962 25.9875 21.4313 25.9875V25.9528V25.918C21.4313 25.918 21.4313 25.8833 21.3962 25.8833C21.3962 25.8833 21.3962 25.8833 21.3611 25.8833C21.3259 25.8833 21.3259 25.8833 21.2908 25.8833H21.2557C21.2206 25.8833 21.2206 25.918 21.2206 25.918C21.1855 25.9528 21.1855 25.9875 21.1504 25.9875C21.1504 25.9875 21.1504 26.0223 21.1152 26.0223V26.057V26.0918C21.1152 26.0918 21.1152 26.1265 21.1504 26.1265C21.1504 26.1265 21.1504 26.1265 21.1855 26.1265C21.2206 26.1265 21.2206 26.1265 21.2557 26.1265H21.2908C21.2908 26.1265 21.2908 26.1265 21.3259 26.0918Z" fill="#FFB164"/>
<path opacity="0.24" d="M21.7123 27.9331C21.9581 28.0373 22.239 28.1763 22.52 28.1416C22.6253 28.1416 22.7307 28.0721 22.7307 27.9678C22.7307 27.8984 22.6253 27.8289 22.5551 27.7941C22.3795 27.7246 22.2039 27.6551 22.0986 27.5162C21.8879 27.3077 21.4665 26.7518 21.0451 26.995C20.6588 27.2729 21.5016 27.8289 21.7123 27.9331Z" fill="white"/>
<path d="M29.2273 23.3116C29.2273 23.3116 31.3694 25.9522 34.6704 22.9641C37.9714 19.9761 35.2674 17.5439 35.2674 17.5439L29.2273 23.3116Z" fill="#E24C24"/>
<path d="M33.4057 21.6428C35.0829 20.074 35.9349 18.271 35.3086 17.6156C34.6824 16.9602 32.8151 17.7006 31.1379 19.2694C29.4607 20.8381 28.6087 22.6412 29.235 23.2966C29.8612 23.952 31.7285 23.2115 33.4057 21.6428Z" fill="#FF5A27"/>
<path d="M33.2609 21.4911C34.7971 20.0542 35.5997 18.4258 35.0534 17.8541C34.5071 17.2823 32.8189 17.9837 31.2826 19.4207C29.7464 20.8576 28.9438 22.4859 29.4901 23.0577C30.0364 23.6294 31.7246 22.928 33.2609 21.4911Z" fill="#FF8B78"/>
<path d="M30.8075 21.0879C30.7373 21.2269 30.7022 21.4354 30.8427 21.5744C30.8778 21.6091 30.948 21.6438 31.0183 21.7133C31.0534 21.7828 31.0534 21.8523 31.0885 21.8871C31.1236 21.9218 31.1587 21.9565 31.229 21.9565C31.545 21.9913 31.7908 21.7481 32.0015 21.5049C32.5634 20.9142 33.0902 20.3235 33.652 19.6981C33.7925 19.5592 33.933 19.3507 33.8979 19.1422C33.8627 18.9685 33.652 18.8643 33.4764 18.8643C33.3009 18.8643 33.1253 18.9337 32.9848 19.038C32.5283 19.2812 32.0718 19.5592 31.6855 19.9413C31.3343 20.3235 31.0183 20.6362 30.8075 21.0879Z" fill="#FF5A27"/>
<path d="M30.0701 22.5819C30.1754 22.4776 30.2808 22.3734 30.351 22.2344C30.351 22.1997 30.3861 22.1649 30.351 22.1649C30.351 22.1302 30.3159 22.0954 30.2808 22.0954C30.2106 22.0607 30.1754 22.0954 30.1052 22.1302C30.0701 22.1649 30.035 22.1997 30.035 22.2344C30.035 22.2344 30.035 22.2344 30.0701 22.1997C29.9999 22.2692 29.9647 22.3387 29.8945 22.4082C29.8594 22.4429 29.8594 22.5124 29.8945 22.5819C29.9296 22.6166 30.035 22.6166 30.0701 22.5819Z" fill="#FFB164"/>
<path d="M29.9998 22.0262C30.1052 21.9219 29.9647 21.7482 29.8242 21.8525C29.7189 21.9567 29.8945 22.1304 29.9998 22.0262Z" fill="#FFB164"/>
<path d="M29.9998 22.0257C30.07 21.9562 30.1403 21.9214 30.2105 21.8519C30.2456 21.8172 30.2456 21.7825 30.2456 21.7825C30.2456 21.7477 30.2456 21.713 30.2105 21.713C30.1754 21.6782 30.1754 21.6782 30.1403 21.6782C30.1052 21.6782 30.07 21.6782 30.07 21.713C29.9998 21.7825 29.9296 21.8172 29.8593 21.8867C29.8242 21.9214 29.8242 21.9562 29.8242 21.9562C29.8242 21.9909 29.8242 22.0257 29.8593 22.0257C29.8945 22.0604 29.8945 22.0604 29.9296 22.0604C29.9296 22.0604 29.9647 22.0257 29.9998 22.0257Z" fill="#FFB164"/>
<path d="M30.1755 21.0879C30.2106 21.0879 30.2106 21.1226 30.2457 21.1226C30.2808 21.1226 30.2808 21.1226 30.3159 21.1226C30.351 21.1226 30.4213 21.1226 30.4564 21.0879C30.4564 21.0879 30.4915 21.0879 30.4915 21.0531L30.5266 21.0184V20.9836V20.9489C30.5266 20.9489 30.5266 20.9489 30.4915 20.9141L30.4564 20.8794C30.4213 20.8794 30.3862 20.8794 30.3862 20.8794C30.3862 20.8794 30.3862 20.8794 30.351 20.8794H30.3862H30.351H30.3862H30.351H30.3862H30.351H30.3862H30.351H30.3159C30.3159 20.8794 30.2808 20.8794 30.2808 20.9141L30.2457 20.9489C30.2457 20.9836 30.2106 21.0184 30.2457 21.0184C30.1052 21.0531 30.1403 21.0879 30.1755 21.0879Z" fill="#FFB164"/>
<path d="M30.632 20.4624C30.6671 20.4971 30.7023 20.5319 30.7374 20.5319H30.7725H30.8076C30.8076 20.5319 30.8427 20.5319 30.8427 20.4971L30.8778 20.4624C30.8778 20.4276 30.913 20.3929 30.8778 20.3929V20.3581C30.8778 20.3234 30.8427 20.3234 30.8427 20.3234C30.8076 20.2887 30.7725 20.2539 30.7374 20.2539H30.7023H30.6671C30.6671 20.2539 30.632 20.2539 30.632 20.2887L30.5969 20.3234C30.5969 20.3581 30.5618 20.3929 30.5969 20.3929V20.4276C30.632 20.4276 30.632 20.4624 30.632 20.4624Z" fill="#FFB164"/>
<path d="M31.8962 19.4894C31.8962 19.4199 31.8962 19.3852 31.8962 19.3157V19.2809C31.8962 19.2809 31.8962 19.2462 31.8611 19.2462L31.826 19.2114H31.7909H31.7557C31.7206 19.2114 31.7206 19.2114 31.6855 19.2462C31.6855 19.2462 31.6855 19.2462 31.6504 19.2809C31.6504 19.3157 31.6504 19.3157 31.6504 19.3504C31.6504 19.4199 31.6504 19.4546 31.6504 19.5241V19.5589C31.6504 19.5589 31.6504 19.5936 31.6855 19.5936L31.7206 19.6284H31.7557H31.7909C31.826 19.6284 31.826 19.6284 31.8611 19.5936C31.8611 19.5936 31.8611 19.5936 31.8962 19.5589C31.8962 19.5589 31.8962 19.5241 31.8962 19.4894Z" fill="#FFB164"/>
<path d="M32.7742 18.899C32.8093 18.8295 32.8444 18.76 32.8795 18.6906C32.8795 18.6558 32.9146 18.6211 32.8795 18.6211C32.8795 18.5863 32.8444 18.5516 32.8093 18.5516C32.7742 18.5516 32.739 18.5168 32.739 18.5516C32.7039 18.5516 32.6688 18.5863 32.6688 18.6211C32.6337 18.6906 32.5986 18.76 32.5635 18.8295C32.5635 18.8643 32.5283 18.899 32.5635 18.899C32.5635 18.9338 32.5986 18.9685 32.6337 18.9685C32.6688 18.9685 32.7039 19.0033 32.7039 18.9685C32.739 18.9338 32.7742 18.9338 32.7742 18.899Z" fill="#FFB164"/>
<path d="M33.5818 18.5862C33.6872 18.5167 33.7574 18.4125 33.8277 18.3082C33.8277 18.2735 33.8628 18.2387 33.8277 18.2387C33.8277 18.204 33.7925 18.1693 33.7574 18.1693C33.7223 18.1693 33.6872 18.1345 33.6872 18.1693C33.6521 18.1693 33.617 18.204 33.617 18.2387C33.617 18.2735 33.5818 18.2735 33.5818 18.3082C33.5818 18.3082 33.5818 18.3082 33.617 18.2735C33.5467 18.343 33.5116 18.4125 33.4414 18.4472C33.4063 18.482 33.4063 18.5862 33.4414 18.6209C33.4765 18.6209 33.5116 18.6209 33.5818 18.5862Z" fill="#FFB164"/>
<path d="M34.2843 18.6558C34.3896 18.5863 34.495 18.5516 34.5652 18.4821C34.6003 18.4821 34.6003 18.4473 34.6354 18.4126C34.6354 18.3778 34.6354 18.3431 34.6354 18.3431C34.6003 18.3083 34.5301 18.2736 34.495 18.3083C34.3896 18.3778 34.2843 18.4126 34.214 18.4821C34.1789 18.4821 34.1789 18.5168 34.1438 18.5516C34.1438 18.5863 34.1438 18.621 34.1438 18.621C34.1438 18.6558 34.2491 18.6905 34.2843 18.6558Z" fill="#FFB164"/>
<path d="M34.1788 19.3159C34.2491 19.3159 34.3544 19.3159 34.4247 19.3159H34.4598C34.4598 19.3159 34.4949 19.3159 34.4949 19.2811C34.53 19.2464 34.53 19.2464 34.53 19.2117C34.53 19.1769 34.53 19.1422 34.4949 19.1422C34.4598 19.1074 34.4598 19.1074 34.4247 19.1074C34.3544 19.1074 34.2491 19.1074 34.1788 19.1074H34.1437C34.1437 19.1074 34.1086 19.1074 34.1086 19.1422C34.0735 19.1769 34.0735 19.1769 34.0735 19.2117C34.0735 19.2464 34.0735 19.2811 34.1086 19.2811C34.1086 19.2811 34.1437 19.3159 34.1788 19.3159Z" fill="#FFB164"/>
<path d="M33.8275 20.1495H33.8626H33.8275C33.8626 20.1495 33.8977 20.1842 33.8977 20.1842C33.8977 20.1842 33.8977 20.1842 33.8626 20.1495L33.8977 20.1842H33.9328H33.9679C33.9679 20.1842 34.0031 20.1842 34.0031 20.1495C34.0382 20.1147 34.0382 20.1147 34.0382 20.08C34.0382 20.0452 34.0382 20.0105 34.0031 20.0105C33.9679 19.9757 33.9679 19.9757 33.9328 19.941C33.8977 19.941 33.8626 19.9062 33.8275 19.9062C33.7924 19.9062 33.7572 19.9062 33.7572 19.9062C33.7572 19.9062 33.7221 19.9063 33.7221 19.941L33.687 19.9757C33.687 20.0105 33.687 20.0452 33.687 20.0452C33.687 20.0452 33.687 20.0452 33.7221 20.08C33.7572 20.1147 33.7924 20.1495 33.8275 20.1495Z" fill="#FFB164"/>
<path d="M33.0199 21.1229C33.055 21.1229 33.055 21.1577 33.0902 21.1577C33.0902 21.1577 33.0902 21.1577 33.055 21.1229C33.0902 21.1577 33.0902 21.1577 33.1253 21.1924L33.1604 21.2271H33.1955C33.2306 21.2271 33.2657 21.2271 33.2657 21.1924C33.3009 21.1577 33.3009 21.1577 33.3009 21.1229V21.0882C33.3009 21.0534 33.3009 21.0534 33.2657 21.0187C33.2306 20.9839 33.2306 20.9839 33.1955 20.9492C33.1604 20.9144 33.1253 20.9144 33.0902 20.8797C33.055 20.8797 33.0199 20.845 33.0199 20.8797C33.0199 20.8797 32.9848 20.8797 32.9848 20.9144L32.9497 20.9492C32.9497 20.9839 32.9146 21.0187 32.9497 21.0187C32.9497 21.0882 32.9848 21.0882 33.0199 21.1229Z" fill="#FFB164"/>
<path d="M32.3176 21.7134C32.3176 21.7134 32.3527 21.7482 32.3176 21.7134C32.3527 21.7134 32.3527 21.7482 32.3176 21.7134C32.3527 21.7482 32.3527 21.7482 32.3527 21.7482C32.3527 21.7482 32.3527 21.7482 32.3176 21.7134C32.3527 21.7482 32.3527 21.7829 32.3527 21.7829V21.7482V21.7829V21.8177C32.3527 21.8177 32.3527 21.8524 32.3878 21.8524C32.423 21.8872 32.423 21.8872 32.4581 21.8872C32.4932 21.8872 32.5283 21.8872 32.5283 21.8524C32.5283 21.8524 32.5283 21.8524 32.5634 21.8177C32.5634 21.7829 32.5634 21.7829 32.5634 21.7482C32.5634 21.7134 32.5634 21.7134 32.5634 21.6787V21.6439C32.5634 21.6092 32.5634 21.6092 32.5283 21.5744C32.5283 21.5397 32.4932 21.5397 32.4932 21.505C32.4581 21.4702 32.4581 21.4702 32.423 21.4702C32.3878 21.4702 32.3527 21.4702 32.3527 21.505C32.3176 21.5397 32.3176 21.5397 32.3176 21.5744C32.2825 21.6787 32.3176 21.6787 32.3176 21.7134Z" fill="#FFB164"/>
<path d="M31.3696 22.0954C31.3696 22.1302 31.3696 22.1649 31.3696 22.2344V22.1997C31.3696 22.2692 31.3345 22.3039 31.3345 22.3734C31.3345 22.4081 31.3345 22.4429 31.3345 22.4429C31.3345 22.4776 31.3696 22.4776 31.4047 22.5124C31.4398 22.5124 31.4749 22.5124 31.4749 22.5124C31.4749 22.5124 31.4749 22.5124 31.5101 22.4776L31.5452 22.4429C31.5803 22.3387 31.6154 22.2344 31.6154 22.1302C31.6154 22.0954 31.6154 22.0607 31.5803 22.0607C31.5452 21.9912 31.5101 21.9912 31.4749 21.9912C31.4398 21.9912 31.4047 21.9912 31.4047 22.026C31.3696 22.026 31.3696 22.0607 31.3696 22.0954Z" fill="#FFB164"/>
<path d="M30.632 22.8252C30.632 22.7904 30.632 22.7557 30.632 22.7209V22.6862C30.632 22.6862 30.632 22.6514 30.5969 22.6514L30.5618 22.6167H30.5267H30.4916C30.4565 22.6167 30.4565 22.6167 30.4213 22.6514C30.4213 22.6514 30.4213 22.6514 30.3862 22.6862C30.3862 22.7209 30.3862 22.7209 30.3862 22.7557C30.3862 22.7904 30.3862 22.8252 30.3862 22.8599V22.8947C30.3862 22.8947 30.3862 22.9294 30.4213 22.9294L30.4565 22.9641H30.4916H30.5267C30.5618 22.9641 30.5618 22.9641 30.5969 22.9294C30.5969 22.9294 30.5969 22.9294 30.632 22.8947C30.632 22.8599 30.632 22.8252 30.632 22.8252Z" fill="#FFB164"/>
<path opacity="0.24" d="M32.0014 24.0757C32.2823 24.041 32.5633 23.9715 32.8091 23.7977C32.8793 23.7283 32.9495 23.624 32.9144 23.5198C32.8793 23.4503 32.774 23.4503 32.6686 23.485C32.493 23.5198 32.3174 23.5545 32.1067 23.5198C31.7907 23.485 31.1235 23.2418 30.9479 23.6935C30.7372 24.1452 31.7907 24.1104 32.0014 24.0757Z" fill="white"/>
<path d="M33.2659 27.2032C33.2659 27.2032 34.2491 30.4692 38.4632 28.9057C42.6772 27.3422 41.0267 24.0762 41.0267 24.0762L33.2659 27.2032Z" fill="#E24C24"/>
<path d="M37.7666 27.1969C39.9151 26.3629 41.3869 25.0063 41.054 24.1667C40.7211 23.3272 38.7095 23.3226 36.5611 24.1565C34.4126 24.9905 32.9408 26.3471 33.2737 27.1867C33.6066 28.0262 35.6181 28.0308 37.7666 27.1969Z" fill="#FF5A27"/>
<path d="M37.6898 27.003C39.6578 26.2392 41.0177 25.0262 40.7273 24.2938C40.4369 23.5614 38.6061 23.587 36.6382 24.3508C34.6703 25.1147 33.3104 26.3276 33.6008 27.06C33.8912 27.7924 35.7219 27.7669 37.6898 27.003Z" fill="#FF8B78"/>
<path d="M35.5837 25.7092C35.4783 25.8134 35.3378 25.9872 35.4081 26.1609C35.4432 26.2304 35.4783 26.2651 35.5134 26.3346C35.5134 26.4041 35.4783 26.4736 35.5134 26.5431C35.5134 26.5778 35.5837 26.6126 35.6188 26.6473C35.8997 26.7863 36.2158 26.6821 36.5318 26.5431C37.2693 26.1956 38.0067 25.8482 38.7442 25.5007C38.9198 25.3965 39.1656 25.2923 39.1656 25.0838C39.1656 24.9101 39.0602 24.7364 38.8847 24.7016C38.7091 24.6321 38.5335 24.6321 38.3579 24.6669C37.8311 24.7364 37.3044 24.8058 36.8127 25.0491C36.3562 25.188 35.9348 25.3618 35.5837 25.7092Z" fill="#FF5A27"/>
<path d="M34.3192 26.8211C34.4597 26.7516 34.6002 26.6821 34.7055 26.6126C34.7407 26.6126 34.7407 26.5779 34.7407 26.5431C34.7407 26.5084 34.7407 26.4737 34.7055 26.4389C34.6704 26.3694 34.6002 26.3694 34.5299 26.4042C34.4948 26.4389 34.4597 26.4389 34.4246 26.4737H34.4597C34.3895 26.5084 34.2841 26.5779 34.2139 26.6126C34.1437 26.6474 34.1085 26.7169 34.1437 26.7516C34.2139 26.8211 34.2841 26.8559 34.3192 26.8211Z" fill="#FFB164"/>
<path d="M34.4598 26.2654C34.6002 26.1959 34.53 25.9875 34.3896 26.057C34.2491 26.0917 34.3193 26.3349 34.4598 26.2654Z" fill="#FFB164"/>
<path d="M34.4598 26.2649C34.53 26.2301 34.6353 26.2301 34.7056 26.1954C34.7407 26.1954 34.7758 26.1606 34.7758 26.1259C34.7758 26.0911 34.7758 26.0564 34.7758 26.0216C34.7758 25.9869 34.7407 25.9521 34.7056 25.9521C34.6705 25.9521 34.6353 25.9521 34.6002 25.9521C34.53 25.9869 34.4246 25.9869 34.3544 26.0216C34.3193 26.0216 34.2842 26.0564 34.2842 26.0911C34.2842 26.1259 34.2842 26.1606 34.2842 26.1954C34.2842 26.2301 34.3193 26.2649 34.3544 26.2649C34.4246 26.2649 34.4246 26.2649 34.4598 26.2649Z" fill="#FFB164"/>
<path d="M34.9868 25.4662C34.9868 25.5009 35.0219 25.5009 35.057 25.5009C35.0921 25.5009 35.0921 25.5357 35.1273 25.5357C35.1624 25.5704 35.2326 25.5704 35.2677 25.5704H35.3028C35.3028 25.5704 35.338 25.5704 35.338 25.5357C35.338 25.5357 35.338 25.5009 35.3731 25.5009V25.4662V25.4315C35.3731 25.3967 35.338 25.3967 35.338 25.3967C35.3028 25.362 35.2677 25.362 35.2677 25.362C35.2677 25.362 35.2677 25.362 35.2326 25.362H35.2677H35.2326H35.2677C35.2677 25.362 35.2326 25.362 35.2326 25.3272C35.2326 25.3272 35.2326 25.3272 35.2677 25.3272L35.2326 25.2925C35.2326 25.2925 35.2326 25.2925 35.2677 25.3272L35.2326 25.2925H35.1975H35.1624C35.1624 25.2925 35.1273 25.2925 35.1273 25.3272C35.0921 25.362 35.0921 25.362 35.0921 25.3967C34.9517 25.4315 34.9517 25.4662 34.9868 25.4662Z" fill="#FFB164"/>
<path d="M35.6538 25.0835C35.6889 25.1182 35.6889 25.153 35.724 25.1877L35.7591 25.2224H35.7942H35.8294C35.8294 25.2224 35.8645 25.2224 35.8645 25.1877C35.8996 25.153 35.8996 25.153 35.8996 25.1182V25.0835C35.8996 25.0487 35.8996 25.0487 35.8645 25.014C35.8294 24.9792 35.8294 24.9445 35.7942 24.9097L35.7591 24.875H35.724H35.6889C35.6889 24.875 35.6538 24.875 35.6538 24.9097C35.6187 24.9445 35.6187 24.9445 35.6187 24.9792V25.014C35.6538 25.0487 35.6538 25.0487 35.6538 25.0835Z" fill="#FFB164"/>
<path d="M37.1989 24.632C37.2341 24.5972 37.2341 24.5277 37.2692 24.493V24.4582V24.4235C37.2692 24.4235 37.2692 24.3887 37.2341 24.3887L37.1989 24.354H37.1638C37.1287 24.354 37.1287 24.354 37.0936 24.354H37.0585L37.0234 24.3887C36.9882 24.4235 36.9882 24.493 36.9531 24.5277V24.5625V24.5972C36.9531 24.5972 36.9531 24.632 36.9882 24.632L37.0234 24.6667H37.0585C37.0936 24.6667 37.0936 24.6667 37.1287 24.6667H37.1638C37.1638 24.6667 37.1638 24.6667 37.1989 24.632Z" fill="#FFB164"/>
<path d="M38.2173 24.3885C38.2875 24.3537 38.3578 24.2842 38.3929 24.2495C38.428 24.2147 38.428 24.2147 38.428 24.18C38.428 24.1453 38.428 24.1105 38.3929 24.0758C38.3578 24.041 38.3578 24.041 38.3226 24.041C38.2875 24.041 38.2524 24.041 38.2173 24.0758C38.1471 24.1105 38.0768 24.18 38.0417 24.2147C38.0066 24.2495 38.0066 24.2495 38.0066 24.2842C38.0066 24.319 38.0066 24.3537 38.0417 24.3885C38.0768 24.4232 38.0768 24.4232 38.1119 24.4232C38.1822 24.4232 38.2173 24.4232 38.2173 24.3885Z" fill="#FFB164"/>
<path d="M39.0951 24.4236C39.2005 24.3889 39.3409 24.3194 39.4463 24.2846C39.4814 24.2846 39.4814 24.2499 39.4814 24.2152C39.4814 24.1804 39.4814 24.1457 39.4463 24.1109C39.4112 24.0762 39.4112 24.0762 39.3761 24.0762C39.3409 24.0762 39.3058 24.0762 39.2707 24.1109C39.2356 24.1109 39.2356 24.1457 39.2005 24.1457H39.2356C39.1654 24.1804 39.06 24.2152 38.9898 24.2499C38.9195 24.2846 38.8844 24.3541 38.9195 24.3889C38.9547 24.3889 39.0249 24.4236 39.0951 24.4236Z" fill="#FFB164"/>
<path d="M39.7274 24.7365C39.8327 24.7017 39.9732 24.7017 40.0786 24.667C40.1137 24.667 40.1488 24.6322 40.1488 24.6322C40.1488 24.5975 40.1839 24.5627 40.1839 24.5627C40.1839 24.4932 40.1137 24.4585 40.0434 24.4585C39.9381 24.4932 39.7976 24.4932 39.6923 24.528C39.6571 24.528 39.622 24.5627 39.622 24.5627C39.622 24.5975 39.5869 24.6322 39.5869 24.6322C39.5869 24.7017 39.6571 24.7712 39.7274 24.7365Z" fill="#FFB164"/>
<path d="M39.3761 25.292C39.4464 25.3268 39.5166 25.3268 39.622 25.3615H39.6571H39.6922C39.7273 25.3615 39.7624 25.3268 39.7624 25.292C39.7624 25.2573 39.7624 25.2226 39.7624 25.1878C39.7624 25.1531 39.7273 25.1183 39.6922 25.1183C39.622 25.0836 39.5517 25.0836 39.4464 25.0488H39.4113H39.3761C39.341 25.0488 39.3059 25.0836 39.3059 25.1183C39.3059 25.1531 39.3059 25.1878 39.3059 25.2226C39.341 25.2573 39.341 25.292 39.3761 25.292Z" fill="#FFB164"/>
<path d="M38.709 25.9521L38.7441 25.9869C38.7441 25.9521 38.7441 25.9521 38.709 25.9521C38.7441 25.9869 38.7441 25.9869 38.7792 26.0216V25.9869C38.7792 25.9869 38.7792 25.9869 38.7792 26.0216C38.7792 26.0216 38.7792 26.0564 38.8143 26.0564L38.8495 26.0911H38.8846H38.9197C38.9548 26.0911 38.9899 26.0564 38.9899 26.0216C38.9899 25.9869 38.9899 25.9521 38.9899 25.9174C38.9899 25.8826 38.9548 25.8479 38.9548 25.8479C38.9197 25.8131 38.9197 25.8131 38.8846 25.7784C38.8495 25.7437 38.8143 25.7437 38.8143 25.7437H38.7792C38.7792 25.7437 38.7441 25.7437 38.7441 25.7784C38.7441 25.8131 38.709 25.8479 38.709 25.8479V25.8826C38.709 25.9174 38.709 25.9174 38.709 25.9521Z" fill="#FFB164"/>
<path d="M37.6205 26.5429C37.6205 26.5777 37.6556 26.5777 37.6556 26.6124V26.5777C37.6556 26.6124 37.6907 26.6472 37.6907 26.6472C37.6907 26.6472 37.6907 26.6819 37.7258 26.6819L37.7609 26.7167C37.7961 26.7167 37.8312 26.7167 37.8663 26.7167C37.9014 26.7167 37.9365 26.6819 37.9365 26.6472V26.6124C37.9365 26.5777 37.9365 26.5777 37.9365 26.5429C37.9365 26.5082 37.9014 26.4735 37.9014 26.4735C37.8663 26.4387 37.8663 26.404 37.8312 26.3692C37.7961 26.3345 37.7961 26.3345 37.7609 26.3345H37.7258C37.7258 26.3345 37.6907 26.3345 37.6907 26.3692C37.6556 26.404 37.6556 26.404 37.6556 26.4387C37.5854 26.4735 37.5854 26.5082 37.6205 26.5429Z" fill="#FFB164"/>
<path d="M36.7426 26.8558V26.8905C36.7426 26.8558 36.7426 26.8558 36.7426 26.8558C36.7426 26.8905 36.7426 26.8905 36.7426 26.9253C36.7778 26.8905 36.7778 26.8905 36.7426 26.8558C36.7426 26.8905 36.7426 26.9253 36.7426 26.9253V26.8905C36.7426 26.8905 36.7426 26.9253 36.7075 26.9253V26.96V26.9948C36.7075 27.0295 36.7426 27.0642 36.7778 27.0642C36.8129 27.0642 36.848 27.0642 36.8831 27.0642H36.9182L36.9533 27.0295C36.9533 26.9948 36.9885 26.9948 36.9885 26.96V26.9253C36.9885 26.8905 36.9885 26.8905 36.9885 26.8558C36.9885 26.821 36.9885 26.821 36.9533 26.7863C36.9533 26.7515 36.9182 26.7515 36.8831 26.7168C36.848 26.7168 36.8129 26.7168 36.7778 26.7168C36.7426 26.7168 36.7075 26.7515 36.7075 26.7863C36.7426 26.7863 36.7426 26.821 36.7426 26.8558Z" fill="#FFB164"/>
<path d="M35.7241 26.8557C35.7241 26.8904 35.689 26.9252 35.6539 26.9599C35.6539 26.9599 35.6539 26.9599 35.6539 26.9252C35.6188 26.9947 35.5837 27.0294 35.5485 27.0642C35.5134 27.0989 35.5134 27.1337 35.5134 27.1337C35.5134 27.1684 35.5485 27.2031 35.5485 27.2031C35.5837 27.2031 35.6188 27.2379 35.6188 27.2379H35.6539C35.689 27.2379 35.689 27.2031 35.689 27.2031C35.7592 27.1337 35.8295 27.0294 35.8646 26.9252C35.8646 26.8904 35.8646 26.8557 35.8646 26.821C35.8646 26.7862 35.8295 26.7515 35.7944 26.7515C35.7592 26.7515 35.7241 26.7515 35.689 26.7515C35.7592 26.7862 35.7241 26.821 35.7241 26.8557Z" fill="#FFB164"/>
<path d="M34.7759 27.2378C34.7759 27.2031 34.811 27.1684 34.811 27.1336V27.0989V27.0641C34.811 27.0641 34.811 27.0294 34.7759 27.0294L34.7407 26.9946H34.7056C34.6705 26.9946 34.6705 26.9946 34.6354 26.9946H34.6003L34.5651 27.0294C34.5651 27.0641 34.53 27.0989 34.53 27.1336V27.1684V27.2031C34.53 27.2031 34.53 27.2378 34.5651 27.2378L34.6003 27.2726H34.6354C34.6705 27.2726 34.6705 27.2726 34.7056 27.2726H34.7407C34.7407 27.2726 34.7407 27.2726 34.7759 27.2378Z" fill="#FFB164"/>
<path opacity="0.24" d="M35.5484 28.9401C35.8293 29.0096 36.1103 29.0444 36.3912 28.9749C36.4966 28.9401 36.6019 28.8707 36.5668 28.7664C36.5317 28.6969 36.4614 28.6622 36.3561 28.6274C36.1805 28.5927 36.0049 28.558 35.8293 28.4537C35.5484 28.28 35.0216 27.8283 34.6705 28.1758C34.3544 28.5232 35.3377 28.8707 35.5484 28.9401Z" fill="white"/>
<path d="M14.1622 21.5044C14.1622 21.5044 10.9314 22.7205 12.7926 26.7509C14.6538 30.7465 17.8495 28.9398 17.8495 28.9398L14.1622 21.5044Z" fill="#E24C24"/>
<path d="M17.7688 28.954C18.5927 28.568 18.4598 26.5821 17.472 24.5182C16.4842 22.4544 15.0155 21.0943 14.1917 21.4803C13.3678 21.8663 13.5007 23.8523 14.4885 25.9161C15.4763 27.9799 16.945 29.34 17.7688 28.954Z" fill="#FF5A27"/>
<path d="M17.6186 28.6398C18.3373 28.3031 18.1864 26.4977 17.2816 24.6073C16.3768 22.7169 15.0607 21.4574 14.3421 21.7941C13.6234 22.1308 13.7743 23.9363 14.6791 25.8267C15.5839 27.7171 16.8999 28.9766 17.6186 28.6398Z" fill="#FF8B78"/>
<path d="M15.8477 23.6937C15.7072 23.5895 15.5316 23.4852 15.3912 23.5547C15.3209 23.5895 15.2858 23.659 15.2156 23.659C15.1454 23.659 15.0751 23.659 15.0049 23.659C14.9698 23.6937 14.9347 23.7285 14.8995 23.7632C14.7591 24.0412 14.9347 24.3539 15.0751 24.6318C15.4965 25.3267 15.8828 26.0216 16.3042 26.7165C16.4096 26.8902 16.55 27.0987 16.7607 27.0987C16.9363 27.0987 17.0768 26.9597 17.147 26.786C17.2173 26.6123 17.1821 26.4385 17.147 26.2648C17.0417 25.7437 16.9012 25.2225 16.6554 24.7708C16.4096 24.4233 16.1989 24.0064 15.8477 23.6937Z" fill="#FF5A27"/>
<path d="M14.6188 22.5121C14.689 22.6511 14.7593 22.7553 14.8646 22.8943C14.8646 22.929 14.8997 22.929 14.9348 22.929C14.97 22.929 15.0051 22.929 15.0051 22.8943C15.0402 22.8596 15.0402 22.7901 15.0051 22.7206C14.97 22.6858 14.97 22.6511 14.9348 22.6163C14.9348 22.6163 14.9348 22.6163 14.9348 22.6511C14.8997 22.5816 14.8295 22.4774 14.7944 22.4079C14.7593 22.3384 14.689 22.3384 14.6539 22.3384C14.6188 22.3731 14.5837 22.4426 14.6188 22.5121Z" fill="#FFB164"/>
<path d="M15.1806 22.6166C15.2509 22.7556 15.4616 22.6514 15.3913 22.5124C15.3211 22.3734 15.1104 22.4777 15.1806 22.6166Z" fill="#FFB164"/>
<path d="M15.1807 22.6166C15.2158 22.6861 15.2509 22.7903 15.286 22.8598C15.286 22.8946 15.3211 22.8946 15.3562 22.9293C15.3914 22.9293 15.4265 22.9293 15.4616 22.9293C15.4967 22.9293 15.4967 22.8946 15.5318 22.8598C15.5318 22.8251 15.5318 22.7903 15.5318 22.7556C15.4967 22.6861 15.4616 22.5819 15.4265 22.5124C15.4265 22.4776 15.3914 22.4776 15.3562 22.4429C15.3211 22.4429 15.286 22.4429 15.2509 22.4429C15.2158 22.4429 15.2158 22.4776 15.1807 22.5124C15.1807 22.5471 15.1807 22.5819 15.1807 22.6166Z" fill="#FFB164"/>
<path d="M16.0233 23.0681C16.0233 23.0681 15.9882 23.1029 15.9882 23.1376C15.9882 23.1724 15.9531 23.1724 15.9531 23.2071C15.9531 23.2419 15.918 23.3114 15.9531 23.3461C15.9531 23.3461 15.9531 23.3808 15.9882 23.3808L16.0233 23.4156H16.0585H16.0936H16.1287C16.1638 23.4156 16.1638 23.3808 16.1638 23.3808C16.1638 23.3461 16.1989 23.3114 16.1989 23.3114C16.1989 23.3114 16.1989 23.3114 16.1989 23.2766V23.3114V23.2766V23.3114V23.2766V23.3114C16.1989 23.3114 16.1989 23.2766 16.234 23.2766C16.234 23.2766 16.234 23.2766 16.1989 23.3114L16.234 23.2766V23.2419V23.2071C16.234 23.2071 16.234 23.1724 16.1989 23.1724C16.1638 23.1376 16.1638 23.1376 16.1287 23.1376C16.0936 23.0334 16.0585 23.0334 16.0233 23.0681Z" fill="#FFB164"/>
<path d="M16.4798 23.7286C16.4447 23.7633 16.4096 23.7633 16.3745 23.7981L16.3394 23.8328V23.8676V23.9023C16.3394 23.9023 16.3394 23.9371 16.3745 23.9371C16.4096 23.9718 16.4096 23.9718 16.4447 23.9718H16.4798C16.5149 23.9718 16.5149 23.9718 16.5501 23.9371C16.5852 23.9023 16.6203 23.9023 16.6554 23.8676L16.6905 23.8328V23.7981V23.7633C16.6905 23.7633 16.6905 23.7286 16.6554 23.7286C16.6203 23.6938 16.6203 23.6938 16.5852 23.6938H16.5501C16.5149 23.6938 16.4798 23.6938 16.4798 23.7286Z" fill="#FFB164"/>
<path d="M17.0066 25.1876C17.0417 25.2223 17.1119 25.2223 17.147 25.257H17.1821H17.2173C17.2173 25.257 17.2524 25.257 17.2524 25.2223L17.2875 25.1876V25.1528C17.2875 25.1181 17.2875 25.1181 17.2875 25.0833C17.2875 25.0833 17.2875 25.0833 17.2875 25.0486L17.2524 25.0138C17.2173 24.9791 17.147 24.9791 17.1119 24.9443H17.0768H17.0417C17.0417 24.9443 17.0066 24.9443 17.0066 24.9791L16.9714 25.0138V25.0486C16.9714 25.0833 16.9714 25.0833 16.9714 25.1181C16.9714 25.1181 16.9714 25.1181 16.9714 25.1528L17.0066 25.1876Z" fill="#FFB164"/>
<path d="M17.3227 26.1952C17.3578 26.2647 17.4281 26.2994 17.4632 26.3689C17.4983 26.4037 17.4983 26.4037 17.5334 26.4037C17.5685 26.4037 17.6037 26.4037 17.6037 26.3689C17.6388 26.3342 17.6388 26.3342 17.6388 26.2994C17.6388 26.2647 17.6388 26.23 17.6037 26.23C17.5685 26.1605 17.4983 26.1257 17.4632 26.0562C17.4281 26.0215 17.4281 26.0215 17.3929 26.0215C17.3578 26.0215 17.3227 26.0215 17.3227 26.0562C17.2876 26.091 17.2876 26.091 17.2876 26.1257C17.2876 26.1605 17.3227 26.1952 17.3227 26.1952Z" fill="#FFB164"/>
<path d="M17.3929 27.0639C17.4281 27.1681 17.4983 27.2723 17.5685 27.3766C17.5685 27.4113 17.6036 27.4113 17.6388 27.4113C17.6739 27.4113 17.709 27.4113 17.709 27.3766C17.7441 27.3418 17.7441 27.3418 17.7441 27.3071C17.7441 27.2723 17.7441 27.2376 17.709 27.2376C17.709 27.2028 17.6739 27.2028 17.6739 27.1681C17.6739 27.1681 17.6739 27.1681 17.6739 27.2028C17.6388 27.1334 17.5685 27.0639 17.5685 26.9596C17.5334 26.8901 17.4632 26.8901 17.4281 26.8901C17.3578 26.9249 17.3578 26.9944 17.3929 27.0639Z" fill="#FFB164"/>
<path d="M17.0769 27.6893C17.112 27.7935 17.1471 27.8977 17.1471 28.0367C17.1471 28.0715 17.1823 28.1062 17.1823 28.1062C17.2174 28.1062 17.2525 28.141 17.2525 28.141C17.3227 28.141 17.3578 28.0715 17.3578 28.002C17.3227 27.8977 17.2876 27.7935 17.2876 27.6545C17.2876 27.6198 17.2525 27.585 17.2525 27.585C17.2174 27.585 17.1823 27.5503 17.1823 27.5503C17.112 27.585 17.0769 27.6198 17.0769 27.6893Z" fill="#FFB164"/>
<path d="M16.4799 27.4113C16.4448 27.4808 16.4448 27.5503 16.4097 27.6545V27.6892V27.724C16.4097 27.7587 16.4448 27.7587 16.4799 27.7935C16.515 27.7935 16.5501 27.7935 16.5853 27.7935C16.6204 27.7935 16.6204 27.7587 16.6555 27.724C16.6906 27.6545 16.6906 27.585 16.7257 27.4808V27.446V27.4113C16.7257 27.3765 16.6906 27.3765 16.6555 27.3418C16.6204 27.3418 16.5853 27.3418 16.5501 27.3418C16.515 27.3418 16.515 27.3765 16.4799 27.4113Z" fill="#FFB164"/>
<path d="M15.8128 26.7857L15.7777 26.8205C15.7777 26.8205 15.7777 26.8205 15.8128 26.7857C15.7777 26.8205 15.7777 26.8205 15.7426 26.8552C15.7426 26.8552 15.7426 26.8552 15.7777 26.8552C15.7777 26.8552 15.7777 26.8552 15.7426 26.8552C15.7426 26.8552 15.7075 26.8552 15.7075 26.89L15.6724 26.9247V26.9594V26.9942C15.6724 27.0289 15.7075 27.0289 15.7426 27.0637C15.7777 27.0637 15.8128 27.0637 15.8479 27.0637C15.8831 27.0637 15.9182 27.0289 15.9182 26.9942C15.9533 26.9594 15.9533 26.9594 15.9884 26.9247C15.9884 26.89 16.0235 26.8552 16.0235 26.8552C16.0235 26.8552 16.0235 26.8205 15.9884 26.8205L15.9533 26.7857C15.9182 26.7857 15.8831 26.751 15.8831 26.751H15.8479C15.8479 26.751 15.8128 26.7857 15.8128 26.7857Z" fill="#FFB164"/>
<path d="M15.1104 25.7435C15.0753 25.7783 15.0753 25.7783 15.0402 25.7783C15.0753 25.7783 15.0753 25.7783 15.1104 25.7435C15.0402 25.7783 15.005 25.813 15.005 25.813C15.005 25.813 14.9699 25.813 14.9699 25.8478L14.9348 25.8825C14.9348 25.9173 14.9348 25.952 14.9348 25.9867C14.9348 26.0215 14.9699 26.0215 15.005 26.0562H15.0402C15.0753 26.0562 15.0753 26.0562 15.1104 26.0562C15.1455 26.0562 15.1806 26.0215 15.1806 26.0215C15.2158 25.9867 15.2509 25.9867 15.286 25.952C15.3211 25.9173 15.3211 25.9173 15.3211 25.8825V25.8478C15.3211 25.8478 15.3211 25.813 15.286 25.813C15.2509 25.7783 15.2509 25.7783 15.2158 25.7783C15.1806 25.7088 15.1455 25.7088 15.1104 25.7435Z" fill="#FFB164"/>
<path d="M14.7593 24.9094H14.7242H14.7593C14.7242 24.9094 14.7242 24.9094 14.6891 24.9094C14.7242 24.9094 14.7242 24.9094 14.7593 24.9094C14.7242 24.9094 14.6891 24.9094 14.6891 24.9094H14.7242H14.6891H14.6539H14.6188C14.5837 24.9094 14.5837 24.9441 14.5486 24.9788C14.5486 25.0136 14.5486 25.0483 14.5486 25.0831C14.5486 25.0831 14.5486 25.0831 14.5486 25.1178L14.5837 25.1526C14.6188 25.1526 14.6188 25.1526 14.6539 25.1873H14.6891C14.7242 25.1873 14.7242 25.1873 14.7593 25.1873C14.7944 25.1873 14.7944 25.1873 14.8295 25.1526C14.8646 25.1526 14.8646 25.1178 14.8998 25.0831C14.8998 25.0483 14.8998 25.0136 14.8998 24.9788C14.8998 24.9441 14.8646 24.9441 14.8295 24.9094C14.8295 24.8746 14.7944 24.8746 14.7593 24.9094Z" fill="#FFB164"/>
<path d="M14.689 23.8675C14.6539 23.8675 14.6187 23.8327 14.5836 23.8327H14.6187C14.5485 23.798 14.5134 23.7633 14.4783 23.7285C14.4432 23.7285 14.408 23.7285 14.3729 23.7285C14.3378 23.7285 14.3027 23.7633 14.3027 23.7633C14.3027 23.798 14.2676 23.8327 14.2676 23.8327V23.8675C14.2676 23.9022 14.3027 23.9022 14.3027 23.9022C14.3729 23.9717 14.4783 24.0412 14.5836 24.076C14.6187 24.076 14.6539 24.076 14.689 24.076C14.7241 24.076 14.7241 24.0412 14.7592 24.0065C14.7592 23.9717 14.7592 23.937 14.7592 23.9022C14.7592 23.9022 14.7241 23.9022 14.689 23.8675Z" fill="#FFB164"/>
<path d="M14.2324 22.9639C14.2675 22.9639 14.3026 22.9987 14.3377 22.9987H14.3728H14.408C14.408 22.9987 14.4431 22.9987 14.4431 22.9639L14.4782 22.9292V22.8944C14.4782 22.8597 14.4782 22.8597 14.4782 22.8249C14.4782 22.8249 14.4782 22.8249 14.4782 22.7902L14.4431 22.7554C14.408 22.7554 14.3728 22.7207 14.3377 22.7207H14.3026H14.2675C14.2675 22.7207 14.2324 22.7207 14.2324 22.7554L14.1973 22.7902V22.8249C14.1973 22.8597 14.1973 22.8597 14.1973 22.8944C14.1973 22.8944 14.1973 22.8944 14.1973 22.9292C14.1973 22.9639 14.1973 22.9639 14.2324 22.9639Z" fill="#FFB164"/>
<path opacity="0.24" d="M12.582 23.8675C12.5469 24.1455 12.5118 24.4582 12.6171 24.7014C12.6522 24.8056 12.7576 24.9099 12.8278 24.8751C12.898 24.8404 12.9332 24.7362 12.9332 24.6667C12.9683 24.4929 12.9683 24.2845 13.0736 24.1455C13.2141 23.8675 13.6355 23.3116 13.2843 22.9989C12.898 22.6862 12.6171 23.6591 12.582 23.8675Z" fill="white"/>
<path d="M16.4449 25.0834C16.9014 24.8055 17.6037 24.9097 17.9198 25.3266C18.3061 24.7707 19.184 24.6665 19.7459 25.0139C20.3429 25.3614 20.6589 26.0563 20.6589 26.7164C21.6071 26.4037 22.6255 27.0986 23.1874 27.9325C23.2927 28.0715 23.3629 28.2105 23.5034 28.3147C23.679 28.4189 23.8897 28.4537 24.1004 28.4537C25.786 28.6621 27.2609 30.0519 27.577 31.7197C27.6823 32.2409 27.6472 32.7968 27.3663 33.2137C27.1205 33.5612 26.7342 33.7696 26.383 33.9434C25.9616 34.1518 25.5402 34.395 25.0486 34.4298C23.679 34.534 22.766 33.04 21.5369 32.4841C20.5185 32.0324 19.3245 32.2061 18.3061 31.7544C17.4984 31.407 16.7258 30.7121 16.0235 30.1909C15.4265 29.7392 15.0402 29.2875 14.8295 28.5926C14.5486 27.724 14.689 26.0563 16.0586 26.4732C15.8479 25.9868 15.9884 25.3614 16.4449 25.0834Z" fill="#89E269"/>
<path d="M49.1388 24.2148H48.296C48.1555 27.3071 41.5886 29.0096 29.5786 29.0096C17.9549 29.0096 11.0719 26.786 10.8612 24.2148H10.0184C10.0184 24.2148 9.70235 28.1758 11.9498 32.9705C15.3211 40.1627 19.9916 41.483 19.9916 41.483L29.5084 41.6568L39.0251 41.483C39.0251 41.483 43.6605 40.1975 47.0318 33.0053C49.2442 28.1758 49.1388 24.2148 49.1388 24.2148Z" fill="#EDCEB9"/>
<path d="M39.1655 43.0468V41.3791L29.5786 40.1978L19.9916 41.4833V43.0468C19.9916 43.0468 19.9214 43.8112 22.8361 44.7841C26.8043 46.1391 33.301 45.6874 36.3913 44.7841C39.306 43.9154 39.1655 43.0468 39.1655 43.0468Z" fill="#EDCEB9"/>
<path d="M36.3562 44.7837C39.306 43.915 39.2006 43.0464 39.2006 43.0464V41.3787L34.811 40.8228C34.811 40.8228 34.811 40.8228 34.7759 40.8228C34.2842 41.1355 33.7926 41.3787 33.7575 42.0041C33.7224 42.6642 34.0735 43.4634 33.7926 44.0888C33.617 44.471 33.1605 44.6099 32.7391 44.7142C29.5083 45.4438 26.2073 44.9921 23.0468 44.2278C22.0635 43.9845 21.0451 43.7066 20.2374 43.1507C20.1672 43.1159 20.097 43.0464 19.9916 43.0117C19.9916 43.0117 19.9214 43.7761 22.8361 44.7489C26.7692 46.1387 33.2659 45.687 36.3562 44.7837Z" fill="#EABFAC"/>
<path opacity="0.38" d="M14.724 30.3302C14.5133 30.8514 14.6889 31.442 14.8996 31.998C15.4615 33.4572 16.2341 34.8123 17.112 36.1326C17.7441 37.0707 18.5167 38.0436 19.6404 38.252C20.0267 38.3215 20.4481 38.2868 20.7993 38.1131C21.1504 37.9393 21.3963 37.5571 21.4314 37.1749C21.4314 36.758 21.2207 36.4106 21.01 36.0631C20.4832 35.2292 20.0618 34.3259 19.816 33.3878C19.6755 32.7623 19.6053 32.0675 19.2892 31.5115C18.6922 30.4692 15.3561 28.6277 14.724 30.3302Z" fill="white"/>
<path opacity="0.38" d="M21.4665 42.1087C21.3612 42.1087 21.291 42.1087 21.1856 42.1782C21.01 42.2824 21.01 42.5256 21.0803 42.6994C21.1856 42.8731 21.3612 42.9773 21.5017 43.0468C22.204 43.3943 22.9766 43.6027 23.7843 43.7417C24.1003 43.8112 24.4164 43.8459 24.6973 43.707C24.9782 43.6027 25.189 43.2553 25.0485 42.9773C24.908 42.7341 24.5568 42.6646 24.2759 42.6646C23.3629 42.5604 22.3796 42.074 21.4665 42.1087Z" fill="white"/>
<path d="M49.1038 24.2148H48.2609C48.1907 25.9521 46.0837 27.2376 42.1506 28.0715C41.9399 29.4961 41.4834 31.1638 40.5703 32.9358C37.7961 38.1128 35.1974 39.5721 32.0369 40.6144C28.1038 41.9347 23.5034 41.622 23.5034 41.622C23.5034 41.622 28.1389 42.6644 31.8262 42.6644C35.5135 42.6644 38.9549 41.483 38.9549 41.483C38.9549 41.483 43.5904 40.1975 46.9616 33.0053C49.2091 28.1758 49.1038 24.2148 49.1038 24.2148Z" fill="#EABFAC"/>
<path d="M49.1394 23.937H48.2966C48.2966 24.0412 48.2966 24.1107 48.2966 24.215C48.1913 27.342 41.6244 29.0445 29.5792 29.0445C17.9204 29.0445 11.0374 26.7861 10.8619 24.215C10.8619 24.1107 10.897 24.0412 10.897 23.937H10.0542C10.0542 24.0412 10.019 24.1455 10.019 24.2497C10.1946 27.0988 17.3936 29.6352 29.5792 29.6352C42.1863 29.6352 49.0341 27.7242 49.1394 24.215C49.1394 24.1107 49.1394 24.0065 49.1394 23.937Z" fill="#FFDFCA"/>
<path d="M13.5298 20.7404L13.3542 22.0954C13.3542 22.0954 13.881 24.1106 16.7957 24.8403C20.0616 25.6394 22.5549 24.9098 22.7305 22.9293C22.7656 22.6166 22.4144 21.7132 22.4144 21.7132L13.4947 20.6709L13.5298 20.7404Z" fill="#59B24F"/>
<path d="M22.4551 22.2956C22.6997 21.0524 20.9071 19.6611 18.4512 19.1881C15.9954 18.715 13.8062 19.3394 13.5616 20.5825C13.317 21.8257 15.1095 23.217 17.5654 23.69C20.0213 24.1631 22.2104 23.5388 22.4551 22.2956Z" fill="#84D17D"/>
<path d="M22.1686 22.0959C22.0984 23.0687 20.2372 23.7289 17.9546 23.3814C15.672 23.034 13.7757 21.7137 13.8108 20.7408C13.881 19.768 15.9178 19.0383 18.2004 19.3858C20.4479 19.7332 22.2038 21.123 22.1686 22.0959Z" fill="#B0EDA9"/>
<path d="M15.4615 20.7405C15.3913 20.671 15.321 20.6015 15.321 20.4973C15.321 20.3235 15.5317 20.2888 15.6722 20.2888C15.9883 20.3235 16.3394 20.393 16.6204 20.532C16.515 20.393 16.4448 20.2541 16.4097 20.1151C16.4097 20.0803 16.3746 20.0456 16.4097 20.0108C16.4448 19.9414 16.5501 19.9761 16.6204 20.0108C16.9715 20.1846 17.2876 20.4278 17.5685 20.7057C17.4632 20.5668 17.4281 20.393 17.4281 20.2541C17.4281 20.0803 17.4983 19.9414 17.6388 19.8719C17.8144 19.8024 18.0602 19.9066 18.2006 20.0803C18.3411 20.2541 18.3762 20.4625 18.4113 20.671C18.6923 20.4625 19.0786 20.393 19.4297 20.4973C19.5 20.532 19.6053 20.5668 19.6404 20.6363C19.7107 20.7752 19.5702 20.8795 19.4649 20.949C19.8863 20.8795 20.3779 21.0532 20.694 21.4006C20.7291 21.4354 20.7642 21.5049 20.7642 21.5396C20.7642 21.5744 20.7291 21.6091 20.7291 21.6091C20.5535 21.7828 20.3428 21.8523 20.097 21.8871C19.8511 21.9218 19.6053 21.8523 19.3595 21.8176C19.6053 21.9218 19.816 22.0608 20.0267 22.2345C20.0618 22.2693 20.0618 22.2693 20.097 22.304C20.097 22.3387 20.097 22.3387 20.0618 22.3735C19.8863 22.6167 19.5351 22.6515 19.2542 22.5125C18.9732 22.4082 18.7274 22.165 18.5167 21.9566C18.622 22.1303 18.6923 22.304 18.6572 22.5125C18.622 22.6862 18.4113 22.8252 18.2358 22.7557C18.1655 22.7209 18.0953 22.6515 18.0251 22.582C17.8495 22.3735 17.7441 22.1303 17.6739 21.8871C17.6388 22.1998 17.3578 22.443 17.0418 22.4082C16.9715 22.4082 16.8662 22.3735 16.8311 22.304C16.7608 22.2345 16.7608 22.0955 16.8311 22.026C16.8662 21.9566 16.9364 21.8871 17.0418 21.8176C16.796 21.9218 16.515 22.026 16.3043 21.8523C16.2341 21.7828 16.199 21.7133 16.2341 21.6439C16.2692 21.6091 16.3043 21.5744 16.3394 21.5396C16.4448 21.4701 16.7608 21.4354 16.796 21.3311C16.2341 21.2269 15.8478 21.0532 15.4615 20.7405Z" fill="#C1FFB8"/>
<path d="M28.9464 25.4652C29.5083 25.222 30.2107 25.222 30.7374 25.5C30.8428 25.5695 31.0184 25.639 31.0886 25.5347C31.1237 25.5 31.1237 25.4305 31.1237 25.361C31.0184 24.7008 30.4214 24.1797 29.719 24.1449C29.2274 24.1102 28.7357 24.3534 28.2792 24.5966C27.9632 24.7703 27.6471 24.9788 27.3662 25.1873C26.9799 25.4652 26.5936 25.7779 26.418 26.2296C26.2775 26.5423 26.2073 27.2372 26.6638 27.3415C27.1204 27.4457 27.3311 26.7855 27.5769 26.5076C27.9632 26.0559 28.4197 25.6737 28.9464 25.4652Z" fill="#0A0B0C"/>
<path d="M30.2458 24.0758C29.5083 23.9715 28.7709 24.18 28.1036 24.5274C27.4715 24.8749 26.9097 25.3613 26.3478 25.8477C25.7508 26.3689 25.7859 27.3765 26.1371 28.0019C26.4531 28.5926 27.1204 28.9748 27.7876 29.0443C28.4548 29.1138 29.0869 28.8358 29.6839 28.5578C30.316 28.2451 30.9481 27.8977 31.3695 27.3418C31.826 26.7859 32.0367 26.0562 31.826 25.3961C31.6505 24.6664 30.9832 24.18 30.2458 24.0758ZM30.4916 25.9867C30.316 26.3342 29.9648 26.6121 29.6137 26.8206C29.2625 27.0291 28.9113 27.168 28.5602 27.307C28.2441 27.4113 27.928 27.5155 27.612 27.4807C27.2959 27.446 26.9448 27.307 26.8043 27.0291C26.1371 25.952 27.8578 25.1181 28.5953 24.8054C29.0167 24.6317 29.4732 24.5622 29.8946 24.6664C30.0702 24.7012 30.2107 24.7706 30.3511 24.8749C30.6672 25.1528 30.7023 25.6393 30.4916 25.9867Z" fill="#36383F"/>
<path d="M20.2726 18.4477C20.8345 18.2044 21.5368 18.2044 22.0636 18.4824C22.1689 18.5519 22.3445 18.6214 22.4148 18.5171C22.4499 18.4824 22.4499 18.4129 22.4499 18.3434C22.3445 17.6833 21.7475 17.1621 21.0452 17.1274C20.5536 17.0926 20.0619 17.3358 19.6054 17.579C19.2893 17.7528 18.9733 17.9612 18.6923 18.1697C18.3061 18.4477 17.9198 18.7604 17.7442 19.212C17.6037 19.5247 17.5335 20.2196 17.99 20.3239C18.4465 20.4281 18.6572 19.768 18.903 19.49C19.2893 19.0383 19.7459 18.6561 20.2726 18.4477Z" fill="#0A0B0C"/>
<path d="M21.5719 17.023C20.8345 16.9188 20.097 17.1273 19.4298 17.4747C18.7977 17.8221 18.2358 18.3086 17.674 18.795C17.077 19.3162 17.1121 20.3238 17.4633 20.9492C17.7793 21.5398 18.4465 21.922 19.1138 21.9915C19.781 22.061 20.4131 21.7831 21.0101 21.5051C21.6422 21.1924 22.2743 20.845 22.6957 20.289C23.1522 19.7331 23.3629 19.0035 23.1522 18.3433C22.9766 17.6137 22.3094 17.1273 21.5719 17.023ZM21.8178 18.9687C21.6422 19.3162 21.291 19.5594 20.9398 19.7679C20.5887 19.9763 20.2375 20.1153 19.8863 20.2543C19.5703 20.3585 19.2542 20.4628 18.9382 20.428C18.6221 20.3933 18.2709 20.2543 18.1305 19.9763C17.4633 18.8992 19.184 18.0654 19.9214 17.7527C20.3428 17.5789 20.7994 17.5094 21.2208 17.6137C21.3964 17.6484 21.5368 17.7179 21.6773 17.8221C21.9933 18.1001 22.0285 18.5865 21.8178 18.9687Z" fill="#36383F"/>
<path d="M45.2405 20.6013C45.6971 21.0182 46.0131 21.6089 46.0131 22.1996C46.0131 22.3385 46.0131 22.5123 46.1536 22.547C46.2238 22.547 46.2941 22.5123 46.3292 22.4775C46.891 22.0953 47.1017 21.2962 46.8208 20.7055C46.6101 20.2539 46.1887 19.9064 45.7673 19.6285C45.4512 19.42 45.1352 19.2463 44.8191 19.0725C44.3977 18.8641 43.9412 18.6556 43.4496 18.6903C43.0984 18.7251 42.4312 18.9683 42.5365 19.42C42.6419 19.8717 43.3442 19.7674 43.6954 19.8717C44.2924 19.9759 44.8191 20.2191 45.2405 20.6013Z" fill="#0A0B0C"/>
<path d="M47.1018 21.1227C46.8911 20.4278 46.3643 19.8371 45.7674 19.4202C45.1704 19.0033 44.468 18.7253 43.8008 18.4473C43.0985 18.1694 42.1503 18.6211 41.764 19.2117C41.3777 19.7676 41.3075 20.4973 41.5533 21.1227C41.7991 21.7481 42.3259 22.1998 42.8526 22.6167C43.4145 23.0337 44.0115 23.4159 44.7138 23.5896C45.3811 23.7286 46.1888 23.6243 46.6804 23.1726C47.172 22.6515 47.3125 21.8523 47.1018 21.1227ZM45.4513 22.1998C45.0299 22.1998 44.6436 21.9913 44.3276 21.7828C44.0115 21.5744 43.6954 21.3312 43.4145 21.0532C43.1687 20.8447 42.958 20.6015 42.8526 20.2888C42.7473 19.9761 42.7122 19.6287 42.8878 19.3507C43.5901 18.3084 45.1001 19.4202 45.6971 19.9761C46.0483 20.2888 46.2941 20.6363 46.3995 21.0879C46.4346 21.2617 46.4346 21.4354 46.3995 21.5744C46.2941 21.9913 45.8727 22.2345 45.4513 22.1998Z" fill="#36383F"/>
<path d="M31.7207 23.1029C31.7207 23.1029 33.1956 26.7164 37.4448 25.674C41.694 24.6317 43.4147 22.0258 43.801 21.5742C44.6087 20.6013 44.5736 19.1768 44.5736 19.1768L31.7207 23.1029Z" fill="#FFECD7"/>
<path d="M33.6522 22.5121C33.617 22.5121 34.7408 24.979 36.7425 24.5968C40.7107 23.8324 40.0786 20.5664 40.0786 20.5664L33.6522 22.5121Z" fill="#FFDC31"/>
<path opacity="0.52" d="M42.5368 21.0181C42.291 21.852 41.4482 22.3384 40.8512 22.9291C40.7459 23.0333 40.6054 23.2071 40.6756 23.346C40.7108 23.4503 40.8512 23.5198 40.9917 23.485C41.097 23.485 41.2024 23.4155 41.3078 23.346C41.7994 22.9986 42.2208 22.5816 42.6071 22.13C43.0285 21.6435 43.485 21.1224 43.5552 20.4622C43.5552 20.3927 43.5552 20.3232 43.5552 20.2537C43.4499 19.9758 43.0636 20.1148 42.888 20.2537C42.6773 20.4622 42.6071 20.7402 42.5368 21.0181Z" fill="white"/>
</g>
<defs>
<linearGradient id="paint0_linear_430_732" x1="60" y1="60" x2="-19.9676" y2="53.812" gradientUnits="userSpaceOnUse">
<stop stop-color="#92A3FD"/>
<stop offset="1" stop-color="#9DCEFF"/>
</linearGradient>
<clipPath id="clip0_430_732">
<rect width="42" height="32" fill="white" transform="translate(9 14)"/>
</clipPath>
</defs>
</svg>
