<svg width="129" height="184" viewBox="0 0 129 184" fill="none" xmlns="http://www.w3.org/2000/svg">
<path d="M62.2665 184C59.3517 184.005 56.4447 183.696 53.5958 183.078C48.6162 182.051 43.9256 179.93 39.8617 176.867C35.7979 173.804 32.462 169.875 30.0944 165.363C28.2156 161.142 26.82 156.722 25.9342 152.186L25.7298 151.322C22.8104 138.849 19.1319 125.657 12.3442 113.74C11.2494 111.822 10.0524 109.904 8.89927 108.06C6.10938 103.883 3.74725 99.4338 1.84884 94.7807C-1.07059 86.8016 -0.530497 78.8664 3.45453 73.6398C3.97947 72.8277 4.66248 72.1304 5.46262 71.5895C6.26277 71.0486 7.16357 70.6753 8.11103 70.4921C8.68836 70.4221 9.27387 70.4717 9.83129 70.6379C10.3887 70.8041 10.9062 71.0834 11.3516 71.4583C11.6991 71.7362 11.984 72.0847 12.1878 72.4808C12.3916 72.877 12.5095 73.3118 12.534 73.7569H11.5852C11.5623 73.4465 11.4752 73.1443 11.3295 72.8695C11.1837 72.5948 10.9824 72.3535 10.7385 72.1611C10.3919 71.8724 9.99122 71.6563 9.55999 71.5255C9.12876 71.3948 8.67578 71.352 8.2278 71.3998C6.58328 71.7757 5.14595 72.7717 4.21358 74.1815C0.432915 79.1739 -0.165569 86.743 2.75386 94.4147C4.6362 99.0345 6.98392 103.45 9.76051 107.591C10.9137 109.45 12.1107 111.368 13.22 113.301C20.0223 125.306 23.7446 138.57 26.664 151.117L26.8684 151.981C27.7357 156.442 29.1069 160.789 30.9556 164.938C33.2564 169.323 36.4991 173.14 40.4497 176.115C44.4003 179.09 48.9602 181.148 53.8002 182.141C63.5871 184.086 73.7414 182.705 82.6588 178.217C86.2293 176.621 89.4529 174.338 92.1469 171.497C94.8874 168.17 96.9997 164.37 98.3799 160.282C100.818 153.87 102.759 147.106 104.511 140.591C107.211 130.87 109.999 120.811 114.729 111.705C116.188 109.041 117.648 106.42 119.195 103.887C122.093 99.3413 124.537 94.521 126.494 89.4954C128.173 84.7226 128.246 80.7111 126.728 77.783C126.195 76.8066 125.454 75.9595 124.559 75.3017C123.663 74.6439 122.635 74.1915 121.546 73.9765C120.785 73.7962 119.994 73.7962 119.233 73.9767C118.473 74.1571 117.765 74.513 117.166 75.016L116.539 74.2986C117.243 73.6942 118.078 73.2631 118.978 73.0394C119.877 72.8157 120.817 72.8057 121.721 73.0102C122.956 73.266 124.12 73.7924 125.13 74.5516C126.139 75.3108 126.969 76.2843 127.56 77.4024C129.209 80.6233 129.136 84.8105 127.37 89.8468C125.393 94.9357 122.909 99.8114 119.955 104.399C118.495 106.932 116.889 109.538 115.575 112.174C110.904 121.192 108.131 131.206 105.445 140.869C103.62 147.428 101.737 154.206 99.2703 160.648C97.8591 164.849 95.6921 168.754 92.8768 172.17C90.0943 175.102 86.7669 177.459 83.0821 179.11C76.5943 182.278 69.4819 183.948 62.2665 184Z" fill="#AB8DA8"/>
<path d="M72.9803 13.5253C73.7351 12.3237 74.1675 10.947 74.2357 9.52846C74.3181 8.8914 74.2601 8.24396 74.0659 7.63179C73.8717 7.01963 73.546 6.45764 73.1117 5.98546C72.7468 5.63409 72.2943 5.35592 71.9585 4.97526C71.6228 4.59461 71.4622 4.19932 71.1849 3.8333C70.8842 3.44064 70.4973 3.12277 70.0543 2.90441C69.6113 2.68604 69.124 2.57306 68.6304 2.57422C67.6232 2.57422 66.5576 3.04272 65.711 2.57422C65.1855 2.31069 64.8351 1.78363 64.2512 1.49082C63.7017 1.2103 63.0713 1.13257 62.4704 1.27122C61.9454 1.45485 61.3911 1.53924 60.8355 1.5201C60.0473 1.40298 59.5072 0.700236 58.8065 0.304942C58.4463 0.120249 58.0502 0.0168115 57.646 0.00188368C57.2417 -0.0130441 56.8391 0.0608987 56.4664 0.218527C56.0937 0.376156 55.7598 0.613654 55.4883 0.91437C55.2167 1.21508 55.014 1.57174 54.8945 1.95932C54.7993 2.32903 54.7993 2.71693 54.8945 3.08664C55.055 3.97971 55.6681 4.69709 55.7119 5.59016C55.7557 6.48324 55.2156 7.25918 55.7119 8.04977C56.2082 8.84036 56.9381 8.86964 57.2884 9.61631C57.7555 10.6265 57.2884 11.9441 57.7117 13.0275C57.9307 13.7156 58.0474 14.6966 58.6897 15.1358C59.5801 15.7507 61.5216 15.2383 62.5872 15.1358L66.7182 14.799C68.5428 14.6234 70.7908 14.799 72.4402 13.8913C72.6394 13.8005 72.822 13.6768 72.9803 13.5253Z" fill="#3B2645"/>
<path d="M58.9676 12.8809C58.8227 12.6812 58.6328 12.5188 58.4134 12.4068C58.1939 12.2948 57.9512 12.2364 57.705 12.2364C57.4588 12.2364 57.216 12.2948 56.9966 12.4068C56.7772 12.5188 56.5873 12.6812 56.4423 12.8809C55.1724 14.3449 57.3182 17.273 58.9676 17.4487C59.0637 15.9276 59.0637 14.402 58.9676 12.8809Z" fill="#E0855C"/>
<path d="M79.4766 37.4044C79.0919 39.8705 78.5754 42.3141 77.9293 44.7247C77.8271 45.1785 77.7395 45.6177 77.6812 46.0423C77.6228 46.4669 77.5644 46.789 77.4914 47.3307C77.4914 47.4332 77.4914 47.5503 77.4914 47.6528C77.4914 48.0041 77.3892 48.3701 77.3454 48.7654L75.5062 65.968C64.0766 69.1158 52.1507 65.968 52.1507 65.968C52.1507 65.968 52.1507 65.7484 52.1507 65.3239C51.961 63.3767 51.3771 57.1837 50.7932 50.2002C50.7932 50.2002 50.7932 50.0977 50.7932 50.0538C50.7991 49.9465 50.7991 49.839 50.7932 49.7317C50.545 46.8036 50.3115 43.6998 50.1217 40.7424C49.7714 35.6036 49.5524 30.8601 49.5962 27.9174C49.5962 26.834 52.1215 26.9511 53.844 26.7168C55.1139 26.5411 56.4131 26.424 57.5371 26.3655C58.6611 26.3069 59.5077 26.2776 60.077 26.2776H60.7193C60.7193 26.2776 60.8652 24.594 60.8652 24.5793L61.2594 20.4507C61.451 20.5003 61.6462 20.5345 61.8432 20.5532C62.2045 20.6211 62.5706 20.6602 62.938 20.6703C63.4197 20.6703 63.8722 20.6703 64.2956 20.6703L64.9232 20.5971H65.2882C65.6969 20.5239 66.091 20.4361 66.4559 20.3336C66.8209 20.2311 66.9376 20.1872 67.1712 20.114C68.2376 19.7712 69.2501 19.2783 70.1782 18.6499L70.3096 18.5621L70.5577 18.3717L70.7329 18.24C70.7329 18.4449 70.7329 18.5328 70.7329 18.6206C70.6161 19.5869 70.4848 20.8167 70.4264 22.0319C70.4264 22.881 70.3388 23.7155 70.3096 24.4329C70.2804 25.1503 70.0468 26.1898 70.5577 26.5558C70.74 26.6585 70.937 26.7326 71.1416 26.7754C71.9428 26.9023 72.7539 26.9562 73.5648 26.9364C73.8129 26.9364 74.0611 26.9364 74.3092 26.9364C74.9315 26.9001 75.5554 26.9001 76.1776 26.9364C76.6125 26.9352 77.0433 27.0213 77.4444 27.1898C77.8456 27.3583 78.209 27.6057 78.5132 27.9174C78.8915 28.4667 79.1319 29.0995 79.2139 29.7621L79.389 30.9626C79.6669 33.0992 79.6963 35.261 79.4766 37.4044Z" fill="#FFEDE5"/>
<path d="M70.6744 18.137C70.477 19.1847 70.0506 20.1756 69.4258 21.0383C68.801 21.9011 67.9935 22.6142 67.0611 23.1266C66.1287 23.639 65.0948 23.9378 64.0336 24.0015C62.9723 24.0653 61.9102 23.8924 60.9235 23.4954L61.2009 20.4648C62.8539 20.7846 64.5564 20.7422 66.1916 20.3404C67.8267 19.9386 69.356 19.187 70.6744 18.137Z" fill="#E0855C"/>
<path d="M59.2597 8.48937C58.4131 9.3678 58.3401 11.3296 58.2817 13.4964C58.0627 20.0847 60.0333 22.1343 63.3761 22.5003C66.7188 22.8663 70.2368 21.5633 70.952 15.4729C71.317 12.413 71.6965 9.61669 70.5871 8.28441C68.996 6.32258 61.8288 5.79552 59.2597 8.48937Z" fill="#FFEDE5"/>
<path d="M70.4559 14.58C70.4559 14.58 71.4777 11.8569 73.098 13.3063C74.7182 14.7557 72.4849 18.8697 70.0034 18.5623C70.0325 18.5623 69.6968 15.517 70.4559 14.58Z" fill="#FFEDE5"/>
<path d="M72.3823 14.5503C71.9992 14.6703 71.6559 14.8931 71.3897 15.1945C71.0883 15.447 70.8443 15.7616 70.6745 16.1168C70.6745 16.2193 70.7767 16.2925 70.8497 16.2193C71.0554 16.015 71.2503 15.8 71.4335 15.5751C71.5667 15.7224 71.7314 15.8375 71.9152 15.9118C72.0612 15.9118 72.178 15.7801 72.1196 15.663C72.0185 15.5079 71.8838 15.3778 71.7255 15.2823C71.998 15.1073 72.2566 14.9115 72.4991 14.6967C72.5037 14.6791 72.5041 14.6606 72.5003 14.6428C72.4965 14.625 72.4886 14.6084 72.4773 14.5942C72.4659 14.58 72.4514 14.5686 72.435 14.561C72.4185 14.5534 72.4005 14.5497 72.3823 14.5503Z" fill="#E0855C"/>
<path d="M61.1571 13.3496C61.1571 13.3496 60.5878 13.5545 60.6753 12.5443C60.7629 11.5341 61.1571 11.7684 61.1571 11.7684C61.1571 11.7684 61.5512 11.7684 61.4928 12.559C61.4344 13.3496 61.1571 13.3496 61.1571 13.3496Z" fill="#3B2645"/>
<path d="M66.8939 13.3496C66.8939 13.3496 66.3392 13.5545 66.4268 12.5443C66.5144 11.5341 66.8939 11.7684 66.8939 11.7684C66.8939 11.7684 67.288 11.7684 67.2296 12.559C67.1712 13.3496 66.8939 13.3496 66.8939 13.3496Z" fill="#3B2645"/>
<path d="M61.7701 10.2898C61.5407 10.1595 61.2763 10.105 61.0143 10.1339C60.7523 10.1628 60.506 10.2737 60.3104 10.4508C60.3005 10.4709 60.2958 10.4931 60.2968 10.5154C60.2978 10.5377 60.3045 10.5594 60.3162 10.5785C60.3278 10.5975 60.3442 10.6132 60.3636 10.6242C60.383 10.6352 60.4049 10.641 60.4271 10.6412C60.6315 10.6412 60.8067 10.524 61.011 10.5094C61.2251 10.4992 61.4389 10.5341 61.6387 10.6119C61.8285 10.6704 61.9598 10.3776 61.7701 10.2898Z" fill="#3B2645"/>
<path d="M67.7549 10.7881C67.5213 10.2025 66.5141 10.1585 66.0762 10.5099C66.055 10.5263 66.0378 10.5474 66.026 10.5715C66.0142 10.5956 66.0081 10.6221 66.0081 10.649C66.0081 10.6759 66.0142 10.7024 66.026 10.7265C66.0378 10.7506 66.055 10.7717 66.0762 10.7881C66.3385 10.81 66.6022 10.81 66.8645 10.7881C67.0767 10.8224 67.2831 10.8864 67.4775 10.9784C67.5027 11.0153 67.5415 11.0406 67.5853 11.0489C67.6291 11.0571 67.6743 11.0476 67.7111 11.0223C67.7479 10.9971 67.7732 10.9582 67.7814 10.9143C67.7896 10.8704 67.7801 10.825 67.7549 10.7881Z" fill="#3B2645"/>
<path d="M62.3101 18.0638C63.5415 18.2257 64.7929 18.0114 65.901 17.4489C65.7353 17.8396 65.49 18.1912 65.1808 18.4811C64.8716 18.7711 64.5053 18.993 64.1056 19.1326C62.8356 19.484 62.3101 18.0638 62.3101 18.0638Z" fill="white"/>
<path d="M54.9384 27.9024C58.2958 30.2595 58.6023 34.842 56.9674 38.5021C55.858 40.9471 53.7998 42.66 52.5883 44.9732C51.3257 47.2167 49.8598 49.3388 48.2091 51.3126C44.589 55.9243 41.1441 60.0969 39.8157 61.6781C35.2468 67.1536 25.6419 74.386 22.1824 76.9042C21.3941 77.4898 20.927 77.8119 20.927 77.8119C20.927 77.8119 17.6134 76.0697 18.4893 72.8488C18.4893 72.8488 31.6267 58.8524 33.5681 55.9975C35.7136 52.2868 37.6626 48.4652 39.407 44.5487C41.6452 40.2053 43.9759 35.9205 46.3991 31.6943C47.5084 29.7471 48.9244 27.3021 51.3621 26.8629C52.3459 26.752 53.339 26.9626 54.1939 27.4632C54.4522 27.5916 54.701 27.7384 54.9384 27.9024Z" fill="#FFEDE5"/>
<path d="M18.4897 72.8638C18.8493 72.8361 19.2104 72.8361 19.5699 72.8638C19.5699 72.8638 22.7229 74.6206 22.1828 76.9046C22.1828 76.9046 21.8471 77.212 21.3216 77.6805C20.7961 78.149 20.2268 78.7053 19.5407 79.4081C18.8547 80.1108 17.2928 82.3362 16.6213 82.1459C16.4648 82.0879 16.3281 81.9863 16.2272 81.8531L14.8696 80.389C14.1106 79.5398 12.8406 78.1051 13.804 76.9778C13.1034 77.4023 11.4685 78.4418 10.6656 77.944L10.3299 77.4023C10.3299 77.4023 12.7384 75.6015 13.7311 74.7085C15.0701 73.5825 16.7437 72.9337 18.4897 72.8638Z" fill="#FFEDE5"/>
<path d="M58.9236 50.3319C58.9186 50.41 58.9186 50.4883 58.9236 50.5664C58.9236 50.5664 59.0552 50.5664 59.0259 50.5664L58.9236 50.3319Z" fill="#D6BED3"/>
<path d="M64.339 97.7817C62.996 108.572 61.4195 117.956 61.4195 117.956C61.6385 120.562 61.7407 123.388 61.7407 126.287C61.7407 131.967 61.3611 137.999 60.8794 143.314C60.2664 150.092 59.4197 155.861 59.0548 158.759V159.125C59.5949 178.348 54.1355 180.896 51.581 176.694C49.0265 172.492 51.581 160.106 51.581 160.106C51.5892 159.994 51.5892 159.882 51.581 159.77C50.5063 154.017 49.7897 148.204 49.4353 142.362C48.5594 128.219 50.0629 118.542 49.8878 116.785C46.837 86.0401 51.0993 69.0864 51.0993 69.0864C51.7648 66.6229 52.9662 64.3379 54.6173 62.3956C57.7265 59.0283 61.4633 59.8775 63.8135 63.9915C64.0606 64.4133 64.2847 64.8483 64.4849 65.2945C65.4426 67.6574 65.9858 70.1686 66.0906 72.7172C66.3242 79.0858 65.4338 88.9096 64.339 97.7817Z" fill="#FFEDE5"/>
<path d="M79.4182 141.615C79.0787 147.579 78.3669 153.515 77.287 159.389L77.1557 160.106C77.1557 160.106 79.7102 172.536 77.1557 176.694C74.6012 180.852 69.2002 178.422 69.6819 159.389C69.6819 159.301 69.6819 159.213 69.6819 159.14C69.2732 156.388 68.4557 150.429 67.8135 143.372C67.3172 138.014 66.9376 132.011 66.9376 126.331C66.9376 123.403 67.0544 120.592 67.2734 117.971C67.2734 117.971 65.6531 108.586 64.3539 97.8109C63.2592 88.9241 62.3541 79.1003 62.7337 72.7902C62.8429 70.2408 63.391 67.7295 64.3539 65.3675C64.5452 64.9076 64.7696 64.4624 65.0254 64.0352C67.7259 59.3356 72.2218 58.9257 75.5354 64.2255C76.4846 65.7618 77.2304 67.4154 77.7541 69.1448C77.7541 69.1448 82.0165 86.0546 78.9657 116.844C78.7467 118.571 80.1919 127.912 79.4182 141.615Z" fill="#FFEDE5"/>
<path d="M18.1391 82.3654C18.4299 82.703 18.7911 82.9725 19.1972 83.1546C19.6033 83.3368 20.0444 83.4272 20.4892 83.4195C20.693 83.3719 20.885 83.2834 21.0537 83.1593C21.2224 83.0352 21.3642 82.8781 21.4706 82.6975C21.5771 82.5168 21.6459 82.3164 21.6729 82.1084C21.6999 81.9003 21.6845 81.6889 21.6278 81.4869C21.458 81.0416 21.1824 80.6446 20.8249 80.3303C18.6208 78.1343 16.3582 75.9382 14.0664 73.9032C13.6835 73.4702 13.1716 73.1724 12.6067 73.054C12.0814 73.0538 11.573 73.2405 11.172 73.581C10.7711 73.9215 10.5036 74.3936 10.4172 74.9134C10.4172 75.8503 11.22 76.2017 11.8769 76.7288C13.9497 78.5735 16.0225 80.506 18.1391 82.3654Z" fill="#3B2645"/>
<path d="M17.8178 79.7734C17.9087 79.6794 17.9828 79.5705 18.0368 79.4513C18.0738 79.3001 18.0759 79.1423 18.043 78.9901C18.0102 78.8379 17.9431 78.6952 17.847 78.5729C17.3069 77.6798 16.1976 76.245 15.1028 76.1133C14.7413 76.0948 14.3813 76.1716 14.0587 76.336C13.736 76.5004 13.4619 76.7466 13.2635 77.0503C12.9359 77.5229 12.7276 78.0683 12.6564 78.6395C12.5852 79.2107 12.6533 79.7907 12.8548 80.3297C13.1752 81.2994 13.8334 82.1206 14.7086 82.6429C15.1454 82.8286 15.6368 82.8378 16.0802 82.6686C16.5236 82.4995 16.8846 82.1651 17.088 81.7352C17.3069 81.1935 17.234 80.5347 17.5843 80.0809C17.6507 79.9701 17.729 79.867 17.8178 79.7734Z" fill="#FFEDE5"/>
<path d="M73.6813 27.9027C70.3094 30.2598 70.0028 34.8423 71.6523 38.5024C72.7471 40.9474 74.8053 42.6603 76.0314 44.9735C77.3043 47.2105 78.7696 49.3317 80.4106 51.3129C84.0307 55.9246 87.4902 60.0972 88.804 61.6783C93.3875 67.1832 102.992 74.3863 106.452 76.9045L107.722 77.8122C107.722 77.8122 111.021 76.07 110.145 72.849C110.145 72.849 97.0076 58.8527 95.0662 55.9978C92.9148 52.2903 90.9657 48.4683 89.2273 44.5489C86.9793 40.1568 84.6584 35.9257 82.2207 31.6946C81.1113 29.7474 79.7099 27.3024 77.2576 26.8632C76.2739 26.7534 75.2811 26.9638 74.4258 27.4635C74.1671 27.5912 73.9183 27.738 73.6813 27.9027Z" fill="#FFEDE5"/>
<path d="M110.131 72.8636C109.766 72.8361 109.4 72.8361 109.036 72.8636C109.036 72.8636 105.883 74.6205 106.423 76.9044C106.423 76.9044 106.773 77.2118 107.284 77.6803C107.795 78.1488 108.394 78.7052 109.065 79.4079C109.736 80.1107 111.328 82.336 111.984 82.1457C112.139 82.0838 112.275 81.983 112.379 81.8529L113.722 80.3888C114.495 79.5397 115.751 78.1049 114.802 76.9776C115.488 77.4022 117.123 78.4416 117.94 77.9439L118.217 77.4022C118.217 77.4022 115.809 75.6014 114.802 74.7083C113.488 73.5964 111.847 72.9483 110.131 72.8636Z" fill="#FFEDE5"/>
<path d="M110.466 82.3652C110.176 82.7029 109.814 82.9723 109.408 83.1545C109.002 83.3366 108.561 83.4271 108.116 83.4193C107.91 83.3751 107.715 83.289 107.543 83.1664C107.371 83.0437 107.226 82.887 107.116 82.706C107.007 82.525 106.936 82.3235 106.907 82.1138C106.878 81.9041 106.892 81.6908 106.949 81.4868C107.131 81.0611 107.411 80.6848 107.766 80.3888C109.975 78.1927 112.233 76.0503 114.539 73.9616C114.92 73.5261 115.433 73.2278 115.999 73.1124C116.522 73.1127 117.029 73.3 117.427 73.6407C117.826 73.9814 118.091 74.4532 118.174 74.9718C118.174 75.9088 117.386 76.2601 116.714 76.7872C114.656 78.5733 112.583 80.5059 110.466 82.3652Z" fill="#3B2645"/>
<path d="M110.802 79.7734C110.703 79.6838 110.623 79.574 110.569 79.4513C110.538 79.2988 110.54 79.1413 110.575 78.9897C110.611 78.8382 110.678 78.696 110.773 78.5729C111.299 77.6798 112.408 76.245 113.503 76.1133C113.864 76.0948 114.224 76.1716 114.547 76.336C114.87 76.5004 115.144 76.7466 115.342 77.0503C115.666 77.5251 115.869 78.0725 115.932 78.6444C115.996 79.2162 115.918 79.7949 115.707 80.3297C115.396 81.3046 114.736 82.129 113.853 82.6429C113.416 82.8286 112.925 82.8378 112.482 82.6686C112.038 82.4995 111.677 82.1651 111.474 81.7352C111.269 81.1935 111.342 80.5347 110.977 80.0809L110.802 79.7734Z" fill="#FFEDE5"/>
<path d="M79.6371 132.23V133.694C79.6371 134.675 79.6371 135.686 79.6371 136.725V137.911C79.6371 139.111 79.5495 140.356 79.4911 141.63C75.7116 142.675 71.8201 143.26 67.901 143.372C67.7404 141.732 67.4193 137.369 67.4047 136.886C67.4047 135.89 67.1857 133.08 67.1711 132.699C67.0835 130.561 67.0252 128.424 67.0252 126.33C67.0252 123.607 67.1273 120.943 67.3317 118.468C67.3317 118.293 67.3317 118.132 67.3317 117.971C67.3317 117.809 65.7114 108.601 64.4123 97.8105C64.2663 98.9525 64.1203 100.094 63.9743 101.192C62.7482 110.475 61.449 117.971 61.449 117.971C61.668 120.577 61.7702 123.402 61.7702 126.301C61.7702 128.512 61.7702 130.693 61.6096 133.006C61.6096 133.387 61.3177 138.277 61.2739 138.745C61.1717 140.312 61.0403 141.849 60.9089 143.328C58.8653 143.24 56.8509 143.108 54.8511 142.933C53.2746 142.801 51.2894 142.713 49.3626 142.435C49.275 141.117 49.2166 139.858 49.1728 138.628C49.1728 138.321 49.1728 138.013 49.1728 137.706C49.1728 136.359 49.1728 135.085 49.1728 133.855V132.889C49.1728 124.017 50.034 118.175 49.9027 116.785C46.8519 86.0396 51.1142 69.0859 51.1142 69.0859C51.7797 66.6224 52.9811 64.3374 54.6322 62.3952C55.8834 62.5895 57.1113 62.9133 58.296 63.3614C60.1009 63.8344 61.9638 64.0464 63.8284 63.991H65.1713C66.7916 63.991 68.4119 63.8007 70.0176 63.7567H71.0978C72.637 63.7338 74.1742 63.8811 75.6813 64.1959C76.5821 65.7489 77.2788 67.4122 77.7541 69.1444C78.9333 74.6704 79.6269 80.2895 79.8269 85.9371C80.3213 96.2461 80.0334 106.578 78.9656 116.843C78.7905 118.146 79.5641 123.724 79.6371 132.23Z" fill="#3B2645"/>
<path d="M58.9675 159.125C59.1719 166.694 58.4566 171.672 57.3472 174.673C55.6539 179.314 52.9681 179.256 51.5083 176.752C51.1141 176.058 50.8425 175.3 50.7055 174.512C49.6399 169.286 51.5083 160.165 51.5083 160.165C51.5166 160.053 51.5166 159.94 51.5083 159.828C52.2346 160.359 53.0579 160.742 53.9315 160.955C54.9116 161.197 55.9434 161.113 56.8723 160.717C57.8012 160.321 58.5772 159.634 59.0843 158.759L58.9675 159.125Z" fill="#AB8DA8"/>
<path d="M78.0312 174.103C77.9066 175.033 77.6095 175.932 77.1554 176.753C75.5789 179.329 72.8638 179.315 71.1851 174.322C70.1633 171.394 69.5064 166.519 69.7254 159.374C70.8185 160.359 72.2267 160.92 73.6958 160.955C75.0064 160.834 76.2514 160.325 77.2721 159.491C77.2991 159.72 77.2991 159.951 77.2721 160.179C77.2721 160.179 78.9362 168.817 78.0312 174.103Z" fill="#AB8DA8"/>
<path d="M56.7631 163.62C56.0238 163.178 55.1789 162.944 54.3181 162.944C53.4572 162.944 52.6124 163.178 51.873 163.62C51.8456 163.65 51.8273 163.688 51.8201 163.728C51.8129 163.769 51.8172 163.81 51.8324 163.849C51.8476 163.887 51.8731 163.92 51.9061 163.944C51.9391 163.968 51.9782 163.983 52.019 163.986C52.7489 163.986 53.4787 163.679 54.1648 163.693C54.9678 163.762 55.7609 163.919 56.5295 164.162C56.5953 164.17 56.662 164.156 56.7195 164.123C56.7771 164.09 56.8224 164.04 56.8487 163.979C56.875 163.918 56.8809 163.85 56.8655 163.785C56.85 163.72 56.8141 163.662 56.7631 163.62Z" fill="#291B30"/>
<path d="M56.5295 165.962C55.283 165.234 53.8202 164.969 52.3985 165.216C51.9168 165.216 51.9022 166.021 52.3985 165.977C53.0854 165.911 53.778 165.94 54.4567 166.065C55.0844 166.182 55.6537 166.445 56.2814 166.577C56.3586 166.594 56.4392 166.582 56.509 166.545C56.5788 166.508 56.6333 166.448 56.663 166.374C56.6926 166.301 56.6955 166.219 56.6711 166.144C56.6467 166.068 56.5966 166.004 56.5295 165.962Z" fill="#291B30"/>
<path d="M75.8563 163.62C74.747 163.24 72.3384 163.093 71.4772 164.118C71.3604 164.25 71.4772 164.528 71.6378 164.513C72.3238 164.425 72.9223 164.147 73.6376 164.118C74.3528 164.089 75.0973 164.279 75.7688 164.235C75.809 164.241 75.85 164.239 75.8894 164.229C75.9288 164.218 75.9658 164.201 75.9983 164.176C76.0309 164.152 76.0583 164.121 76.079 164.086C76.0997 164.051 76.1133 164.012 76.1191 163.972C76.1248 163.931 76.1226 163.89 76.1125 163.851C76.1024 163.811 76.0847 163.774 76.0603 163.741C76.0359 163.709 76.0053 163.681 75.9703 163.66C75.9353 163.64 75.8966 163.626 75.8563 163.62Z" fill="#291B30"/>
<path d="M76.3967 166.094C75.1851 165.552 72.1635 165.157 71.5504 166.797C71.4628 167.016 71.7402 167.192 71.9153 167.09C72.546 166.737 73.2489 166.534 73.97 166.496C74.6912 166.457 75.4114 166.586 76.0755 166.87C76.5134 167.046 76.8492 166.284 76.3967 166.094Z" fill="#291B30"/>
<path d="M21.1316 26.1601C21.1316 26.0722 20.9564 26.0722 20.9418 26.1601C20.212 31.1525 20.6353 36.4085 20.6353 41.518C20.6353 46.9203 20.4601 52.3666 20.7813 57.7543C20.7951 57.8119 20.8278 57.863 20.8741 57.8996C20.9204 57.9363 20.9777 57.9562 21.0367 57.9562C21.0957 57.9562 21.153 57.9363 21.1993 57.8996C21.2456 57.863 21.2783 57.8119 21.2922 57.7543C21.5987 52.3666 21.4235 46.9203 21.4235 41.518C21.4235 36.5256 21.8468 31.1964 21.1316 26.1601Z" fill="#F7F8F8"/>
<path d="M27.5107 27.8585C27.4952 27.7866 27.4556 27.7223 27.3985 27.6761C27.3414 27.6299 27.2702 27.6047 27.1969 27.6047C27.1236 27.6047 27.0524 27.6299 26.9953 27.6761C26.9382 27.7223 26.8986 27.7866 26.8831 27.8585C26.8831 32.6606 26.5765 37.5505 26.8831 42.338C26.8831 42.4195 26.9154 42.4977 26.9728 42.5554C27.0303 42.6131 27.1083 42.6454 27.1896 42.6454C27.2709 42.6454 27.3489 42.6131 27.4064 42.5554C27.4638 42.4977 27.4961 42.4195 27.4961 42.338C27.8319 37.5505 27.5399 32.6606 27.5107 27.8585Z" fill="#F7F8F8"/>
<path d="M92.7741 78.1338C92.7623 78.0905 92.7366 78.0523 92.701 78.0251C92.6654 77.9979 92.6218 77.9831 92.5771 77.9831C92.5323 77.9831 92.4888 77.9979 92.4532 78.0251C92.4176 78.0523 92.3919 78.0905 92.38 78.1338C91.9688 84.4206 91.886 90.7246 92.1319 97.0201C92.1319 103.315 92.1319 109.596 92.3654 115.892C92.3778 115.939 92.4053 115.98 92.4435 116.01C92.4818 116.039 92.5288 116.055 92.5771 116.055C92.6254 116.055 92.6723 116.039 92.7106 116.01C92.7489 115.98 92.7764 115.939 92.7887 115.892C92.9931 109.596 92.9931 103.315 93.0223 97.0201C93.2608 90.7245 93.178 84.4209 92.7741 78.1338Z" fill="#F7F8F8"/>
<path d="M104.029 41.3133C103.984 37.124 103.711 32.9404 103.212 28.781C103.212 28.5321 102.818 28.6053 102.803 28.781C102.691 33.2795 102.822 37.7808 103.197 42.2649C103.387 46.4374 103.343 50.7125 103.898 54.8411C103.898 55.2217 104.54 55.1046 104.555 54.7532C104.759 50.2879 104.292 45.7347 104.029 41.3133Z" fill="#F7F8F8"/>
<path d="M106.948 43.6409C106.938 43.6081 106.918 43.5795 106.89 43.5592C106.863 43.5388 106.829 43.5279 106.795 43.5279C106.761 43.5279 106.727 43.5388 106.7 43.5592C106.672 43.5795 106.652 43.6081 106.642 43.6409C106.255 49.6559 106.226 55.6888 106.554 61.7073C106.545 61.744 106.544 61.7822 106.552 61.8192C106.56 61.8561 106.576 61.8908 106.6 61.9206C106.623 61.9503 106.652 61.9744 106.686 61.9909C106.72 62.0075 106.757 62.0161 106.795 62.0161C106.833 62.0161 106.87 62.0075 106.904 61.9909C106.938 61.9744 106.967 61.9503 106.99 61.9206C107.014 61.8908 107.03 61.8561 107.038 61.8192C107.046 61.7822 107.045 61.744 107.036 61.7073C107.364 55.6888 107.335 49.6559 106.948 43.6409Z" fill="#F7F8F8"/>
<path d="M63.9013 101.178C63.9235 100.038 64.0704 98.9042 64.3392 97.7963C64.1932 98.9383 64.0472 100.08 63.9013 101.178Z" fill="#291B30"/>
<path d="M79.7831 85.9376C77.8124 74.0641 61.5366 73.5078 61.5366 73.5078C60.5294 68.6179 67.0981 67.1538 67.0981 67.1538L70.9372 63.8304C72.4765 63.8074 74.0136 63.9547 75.5207 64.2696C76.4715 65.7914 77.2222 67.4301 77.754 69.1449C78.9092 74.6738 79.588 80.292 79.7831 85.9376Z" fill="#291B30"/>
<path d="M77.9873 70.4184C64.8498 76.6114 50.5738 70.9309 50.5738 70.9309C51.6102 68.0028 50.8365 53.0694 50.7636 50.2292C50.7636 50.2292 50.7636 50.1267 50.7636 50.0828C50.7695 49.9755 50.7695 49.868 50.7636 49.7607C53.5224 43.3481 53.829 30.9915 53.8436 26.7458C55.0843 26.5555 56.3835 26.453 57.5075 26.3944C57.9454 31.138 59.5073 43.3042 63.8572 42.7772C68.2072 42.2501 70.28 31.4161 71.039 26.6726C71.8394 26.8072 72.6511 26.8612 73.4622 26.8336C73.7103 26.8336 73.9585 26.8336 74.2066 26.8336C73.8271 33.3194 77.418 46.9497 77.5202 47.3304C77.5202 47.4328 77.5202 47.55 77.5202 47.6524C77.5202 48.0038 77.418 48.3698 77.3742 48.7651C77.3742 48.7651 77.3742 48.9262 77.3742 49.014C76.4546 57.2713 77.9873 70.4184 77.9873 70.4184Z" fill="#AB8DA8"/>
</svg>
