<svg width="27" height="17" viewBox="0 0 27 17" fill="none" xmlns="http://www.w3.org/2000/svg">
<path fill-rule="evenodd" clip-rule="evenodd" d="M24.906 14.4309C24.906 15.5956 19.6124 16.8724 13.9975 16.8724C8.38263 16.8724 3.79177 14.8485 3.79177 13.6838C3.79177 12.5192 9.12697 12.3232 14.7404 12.3232C20.3538 12.3232 24.906 13.2663 24.906 14.4309Z" fill="#E2CAB3"/>
<path fill-rule="evenodd" clip-rule="evenodd" d="M25.7749 15.6201C25.7907 16.2422 24.4382 16.7819 22.753 16.8245C21.0679 16.8671 19.6882 16.3984 19.6724 15.7749C19.6566 15.1514 21.0091 14.6131 22.6942 14.5705C24.3794 14.5279 25.7591 14.9966 25.7749 15.6201Z" fill="#E2CAB3"/>
<path fill-rule="evenodd" clip-rule="evenodd" d="M1.2387 11.1928C0.340891 13.3006 1.43375 14.4041 2.88945 14.5859C3.46313 14.6569 4.32365 14.2635 4.96043 14.0178C5.47854 13.7899 5.97042 13.5075 6.42761 13.1756C6.64417 12.9554 6.89946 12.6557 6.95109 12.3234C6.95803 12.195 6.93031 12.067 6.87078 11.9527C6.88697 11.9048 6.91068 11.8597 6.94105 11.8192C7.0185 11.6772 6.80911 11.5678 6.9138 11.4087C7.08017 11.1545 6.86074 10.8804 6.75317 10.6545C6.71732 10.5821 5.79226 9.76827 5.74924 9.69016C4.97764 8.88201 4.76968 8.50137 3.70838 8.33519C2.37601 8.12499 1.0838 8.60647 1.2387 11.1928Z" fill="#5F825C"/>
<g style="mix-blend-mode:multiply" opacity="0.4">
<path fill-rule="evenodd" clip-rule="evenodd" d="M1.72063 10.4145C1.87266 10.433 1.94723 10.8406 1.88413 11.3292C1.82103 11.8178 1.64892 12.1927 1.49546 12.1743C1.342 12.1558 1.27029 11.7482 1.33197 11.2596C1.39364 10.771 1.56 10.3946 1.72063 10.4145Z" fill="#5F825C"/>
</g>
<path fill-rule="evenodd" clip-rule="evenodd" d="M1.86407 12.6998C1.53851 12.8418 1.56863 13.2579 1.70058 13.5278C1.70382 13.5321 1.70625 13.5369 1.70775 13.542C1.73873 13.6042 1.77726 13.6624 1.82248 13.7153C1.98231 13.9168 2.20287 14.0626 2.45209 14.1314C2.76475 14.2095 3.1233 14.157 3.30401 13.9113C3.30843 13.9037 3.31562 13.8981 3.32408 13.8957V13.8644C3.28393 13.7053 3.03725 13.6741 2.9053 13.6542C2.61846 13.6102 2.53384 13.3602 2.44636 13.1287C2.35887 12.8972 2.15091 12.5691 1.86407 12.6998Z" fill="#8DB54F"/>
<g style="mix-blend-mode:multiply" opacity="0.4">
<path fill-rule="evenodd" clip-rule="evenodd" d="M4.80985 9.56929C4.54453 9.71132 4.79121 10.0323 4.91885 10.1843C5.20569 10.5365 5.59866 10.7893 5.83817 11.1898C6.07768 11.5904 5.76503 12.211 6.14796 12.5491C6.16641 12.5654 6.18797 12.5779 6.21137 12.5859C6.23476 12.5939 6.25953 12.5972 6.28423 12.5956C6.30892 12.594 6.33305 12.5876 6.35521 12.5767C6.37737 12.5658 6.39711 12.5506 6.41328 12.532C6.43006 12.5052 6.44263 12.476 6.45057 12.4454C6.49718 12.3864 6.53354 12.3202 6.55814 12.2494C6.62266 12.0272 6.61412 11.7904 6.53376 11.5733C6.47352 11.3787 6.60833 11.1898 6.54953 10.9953C6.52259 10.9228 6.47944 10.8572 6.42332 10.8035C6.36449 10.7359 6.29699 10.6762 6.22254 10.626C6.08372 10.5117 5.95556 10.3852 5.83961 10.2482C5.70071 10.0852 5.54814 9.93408 5.38353 9.79653C5.20999 9.6332 4.98483 9.47413 4.80985 9.56929Z" fill="#5F825C"/>
</g>
<path fill-rule="evenodd" clip-rule="evenodd" d="M1.48265 11.3234C1.33924 11.2993 1.24888 11.2425 0.785637 11.1289C0.322392 11.0152 0.0871842 10.9897 0.0154745 10.9471C-0.0562352 10.9044 0.144552 10.6815 0.144552 10.6815C0.144552 10.6815 0.491627 10.8135 0.777032 10.9186C1.06244 11.0238 1.58448 11.1629 1.58448 11.1629C1.58448 11.1629 1.66623 11.2084 1.63325 11.2822C1.60026 11.3561 1.48265 11.3234 1.48265 11.3234Z" fill="#300D33"/>
<path fill-rule="evenodd" clip-rule="evenodd" d="M25.8152 7.21763C25.4265 7.30711 25.0981 7.54004 24.6936 7.55992C24.2634 7.58123 23.8331 7.40369 23.4129 7.32273C22.4993 7.14662 21.5642 7.04861 20.6406 6.94777C18.7761 6.74325 16.8873 6.65519 15.0157 6.44215C13.1441 6.2291 11.2868 5.98623 9.41372 5.99475C8.51136 5.997 7.61082 6.07492 6.72174 6.22768C5.98887 6.35409 5.24309 6.5018 4.62925 6.93783C4.15681 7.28198 3.80078 7.75985 3.60811 8.30842C3.35856 8.97596 4.67658 13.0636 4.87593 13.332C6.60844 15.6045 9.51699 16.1016 14.3029 16.0064C19.4172 15.9042 21.3935 15.3403 22.8421 14.0734C23.6208 13.3931 24.2763 11.6433 24.3939 11.301C24.5932 10.6974 24.8141 10.1023 25.0206 9.50147C25.1511 9.12083 25.2874 8.74445 25.4509 8.37659C25.6239 8.03101 25.7678 7.67187 25.8811 7.30285C25.8844 7.2928 25.8851 7.28212 25.8833 7.27172C25.8815 7.26132 25.8772 7.25151 25.8707 7.24314C25.8642 7.23476 25.8558 7.22807 25.8461 7.22362C25.8364 7.21918 25.8258 7.21713 25.8152 7.21763Z" fill="#DA840D"/>
<path fill-rule="evenodd" clip-rule="evenodd" d="M25.0407 7.49726C24.3881 7.95175 23.4487 7.97022 22.6843 8.11935C20.7969 8.48863 18.9153 8.74286 16.9891 8.69741C15.1046 8.6548 13.2186 8.43465 11.3413 8.28126C9.42233 8.12503 7.49907 8.01283 5.57438 8.09946C5.1492 8.11486 4.72741 8.18066 4.31803 8.29547C4.10864 8.35512 3.79598 8.4375 3.69129 8.65054C3.66546 8.70583 3.65131 8.76576 3.6497 8.82666V8.8366C3.55504 9.15191 3.66547 9.41608 3.77447 9.69588C3.80029 9.81376 3.82897 9.93165 3.85622 10.0495C3.80746 10.0495 3.80029 10.1234 3.85622 10.1248H3.872C3.87792 10.1315 3.8852 10.1368 3.89336 10.1404C3.90152 10.1441 3.91037 10.146 3.91933 10.146C3.92828 10.146 3.93713 10.1441 3.94529 10.1404C3.95345 10.1368 3.96073 10.1315 3.96665 10.1248C4.30512 10.1248 4.64073 10.0623 4.98063 10.0538C5.4912 10.0396 5.92433 10.2981 6.37036 10.5111C7.17064 10.8889 7.92646 11.3306 8.73678 11.6658C9.09832 11.8156 9.47025 11.9395 9.84972 12.0365C10.2281 12.1171 10.6113 12.1731 10.9971 12.2041C11.4073 12.2567 11.8131 12.3462 12.2219 12.4015C12.6797 12.4553 13.1412 12.47 13.6016 12.4456C15.4297 12.4137 17.2523 12.2355 19.0515 11.913C20.6865 11.609 22.3215 11.1517 23.7456 10.2782C24.3087 9.93917 24.7857 9.47656 25.1397 8.92608C25.3032 8.67184 25.4423 8.39773 25.5943 8.13639C25.7062 7.94181 25.841 7.7103 25.8209 7.48448C25.7879 6.99305 25.2415 7.35949 25.0407 7.49726Z" fill="#C66720"/>
<path opacity="0.4" fill-rule="evenodd" clip-rule="evenodd" d="M14.0432 15.0521C6.94397 16.0463 4.8185 13.2156 4.88304 13.2994C6.61554 15.5719 9.52552 16.069 14.31 15.9739C19.4243 15.873 21.5025 15.2751 22.9525 14.0082C23.6868 13.3648 24.4999 10.9915 24.662 10.5299C21.1095 13.4244 20.0955 14.1999 14.0432 15.0521Z" fill="#C66720"/>
<path fill-rule="evenodd" clip-rule="evenodd" d="M26.994 4.90239C26.9122 4.40387 26.1334 4.33427 25.7491 4.19224C25.4092 4.06726 25.1754 3.76615 24.8986 3.54032C24.5999 3.29579 24.2677 3.09446 23.9119 2.94238C23.1015 2.59583 22.2898 2.31887 21.5512 1.82887C20.8714 1.37579 20.0367 1.31756 19.2565 1.19115C18.7742 1.11658 18.3021 0.987437 17.8495 0.806251C17.4475 0.619146 17.0228 0.484055 16.586 0.404306C16.1357 0.344654 15.6724 0.446915 15.2221 0.465379C14.723 0.485263 14.264 0.323349 13.7951 0.181319C13.4122 0.0440098 13.0056 -0.0163454 12.5989 0.00378213C12.2203 0.0350287 11.8818 0.23387 11.5635 0.429872C11.5555 0.434267 11.5488 0.440629 11.544 0.448343C11.5392 0.456056 11.5365 0.46486 11.5362 0.473901C11.1762 0.65996 10.8306 0.867323 10.4692 1.0548C10.1676 1.21953 9.84412 1.34145 9.50826 1.41698C9.09664 1.5022 8.70941 1.43402 8.30066 1.38147C7.58357 1.28915 6.90519 1.27211 6.22539 1.53202C5.4165 1.84165 4.77255 2.47226 3.97083 2.81029C3.28099 3.09435 2.68006 3.43096 2.2498 4.06015C2.07072 4.32422 1.94865 4.62208 1.89125 4.93506C1.83819 5.27167 1.91994 5.57703 1.99164 5.90654C2.0863 6.33263 2.00168 6.6735 1.87834 7.08397C1.77324 7.35462 1.78098 7.65552 1.89986 7.92052C2.01172 8.13641 2.2498 8.2756 2.45776 8.38638C2.66572 8.49716 3.19637 8.61647 3.24083 8.87496C3.43014 9.97143 4.67502 9.45729 5.40789 9.72714C5.76788 9.86207 6.10061 10.0666 6.46633 10.1987C6.88655 10.3507 7.32685 10.4643 7.75711 10.5793C8.61762 10.8094 9.44659 11.1162 10.2827 11.4315C10.6513 11.5735 10.9998 11.7496 11.3942 11.8207C11.7886 11.8917 12.1959 11.8278 12.586 11.7937C13.3964 11.7212 15.9593 11.9357 16.2992 11.7639C16.7395 11.5494 17.1482 11.5693 17.6244 11.609C17.9958 11.6403 18.3171 11.3676 18.69 11.3378C19.1186 11.2959 19.5413 11.2078 19.9506 11.075C20.3157 10.9353 20.6876 10.814 21.065 10.7114C21.4953 10.6163 21.871 10.308 22.3056 10.2498C23.1503 10.1348 23.7699 9.66607 24.4239 9.1221C25.0176 8.62925 26.4217 6.93058 26.5436 6.59397C26.6655 6.25735 26.7559 5.88382 26.8548 5.53584C26.9093 5.34126 27.0284 5.10975 26.994 4.90239Z" fill="#F0A508"/>
<g opacity="0.5">
<path opacity="0.5" fill-rule="evenodd" clip-rule="evenodd" d="M13.7435 2.39845C13.6244 2.55327 13.481 2.59588 13.4939 3.55884C13.5068 4.5218 13.6001 4.8854 13.2257 5.61543C12.8514 6.34546 12.1257 7.05419 11.869 7.83109C11.6123 8.608 11.2881 9.88342 11.6166 10.3791C11.945 10.8748 13.1411 11.1191 14.7718 11.1631C16.4025 11.2071 18.1909 10.943 19.1963 10.6333C20.2017 10.3237 20.7825 10.1959 21.0105 9.92319C21.2386 9.6505 20.1013 7.32121 19.3053 6.41222C18.5093 5.50323 18.1278 5.20212 17.23 4.44936C16.3322 3.69661 15.9392 3.39692 15.4961 2.78904C15.0529 2.18115 14.9382 2.14848 14.4721 2.15558C14.2088 2.15484 13.9527 2.24022 13.7435 2.39845Z" fill="#E2CAB3"/>
<path opacity="0.5" fill-rule="evenodd" clip-rule="evenodd" d="M4.68515 8.51857C5.31763 7.07413 6.15233 6.41653 6.3861 6.08986C7.03006 5.19081 7.41155 4.79739 8.2649 4.66957C9.11824 4.54174 8.65069 4.546 9.62021 4.41107C10.5897 4.27614 11.4029 4.06736 12.0583 3.55889C12.7138 3.05043 13.0522 2.65416 13.4007 2.5306C13.7493 2.40703 14.2871 2.13149 13.9056 2.52065C13.5241 2.90982 14.0332 3.05753 13.3161 4.11281C12.599 5.16809 12.2577 5.71348 12.0024 6.52731C11.7471 7.34115 11.4832 9.88064 10.8995 10.0809C10.3158 10.2812 8.92319 10.3167 7.62955 9.84087C6.62573 9.45064 5.64295 9.00929 4.68515 8.51857Z" fill="#E2CAB3"/>
<path opacity="0.5" fill-rule="evenodd" clip-rule="evenodd" d="M22.168 9.16776C22.168 9.16776 23.367 8.79707 24.0554 8.2048C24.7438 7.61254 25.4323 7.06004 25.6503 6.24621C25.8683 5.43238 26.1149 5.22928 25.8482 4.98783C25.5814 4.74638 24.1544 3.46385 22.9798 2.83181C21.8052 2.19978 20.3122 1.80068 18.9841 1.52372C17.6561 1.24676 16.9519 1.40868 16.2592 1.38169C15.5664 1.3547 14.4693 2.14581 14.4851 2.15433C14.8686 2.5196 15.2952 2.83768 15.7558 3.10167C16.3782 3.4255 17.8296 3.97373 18.5381 4.37994C19.2466 4.78614 19.8088 5.68377 19.9723 6.10418C20.1358 6.52459 20.3653 6.65526 20.599 7.46057C20.8328 8.26587 21.4811 9.56261 21.4811 9.56261L22.168 9.16776Z" fill="#E2CAB3"/>
<path opacity="0.5" fill-rule="evenodd" clip-rule="evenodd" d="M2.73197 4.27463C2.73197 4.27463 2.17838 5.74748 2.46521 6.45621C2.66414 6.92108 2.93512 7.35237 3.26836 7.73447C3.26836 7.73447 3.98546 8.41338 4.47452 7.71033C4.96358 7.00728 6.02345 5.36542 6.86532 4.73196C7.70719 4.09851 8.75559 3.96216 9.53292 3.86984C10.3103 3.77752 12.136 3.46648 12.6408 3.05885C13.1457 2.65123 14.4852 2.15412 14.4852 2.15412C13.9057 1.89064 13.302 1.6828 12.6824 1.53345C11.7444 1.32041 10.2443 1.88995 9.02665 1.60589C7.80902 1.32183 6.62151 1.96238 5.27337 2.64413C4.37813 3.1103 3.52751 3.65605 2.73197 4.27463Z" fill="#E2CAB3"/>
<path opacity="0.5" fill-rule="evenodd" clip-rule="evenodd" d="M10.7633 1.25933C10.7633 1.25933 12.024 0.0819069 12.8802 0.103211C13.963 0.131617 14.3144 0.367387 14.8321 0.529301C15.4216 0.711099 15.6568 0.783534 15.5048 1.01788C15.3528 1.25223 14.6357 2.29615 14.6357 2.29615C14.6357 2.29615 12.9146 1.4596 12.2836 1.36302C11.7802 1.29029 11.272 1.25563 10.7633 1.25933Z" fill="#E2CAB3"/>
</g>
<path opacity="0.4" fill-rule="evenodd" clip-rule="evenodd" d="M23.1618 2.56317C22.8219 2.42114 22.4806 2.30325 22.1464 2.1456C21.755 1.94661 21.3529 1.76927 20.9417 1.61441C20.5707 1.50169 20.1899 1.42324 19.8044 1.38006C18.9324 1.23803 18.1321 0.881536 17.2959 0.625883C16.8166 0.47982 16.3156 0.415465 15.8144 0.435563C15.3784 0.463968 14.941 0.463968 14.505 0.435563C14.0747 0.390113 13.6961 0.192692 13.2773 0.083329C12.7682 -0.0501791 12.3451 0.0833289 11.8933 0.323359C11.2264 0.665651 10.561 1.08322 9.83814 1.30194C9.45209 1.42664 9.04806 1.48804 8.64202 1.48374C8.21176 1.46954 7.80158 1.38432 7.3785 1.35592C6.91241 1.30663 6.44185 1.39145 6.02318 1.60021C5.70543 1.76698 5.40599 1.96594 5.12968 2.19389C5.12825 2.21896 5.12825 2.2441 5.12968 2.26917C5.04628 2.51046 5.01644 2.76674 5.0422 3.02051C5.05481 3.27945 5.12329 3.53271 5.24303 3.76325C5.36277 3.99378 5.53098 4.19624 5.73635 4.35701C6.03466 4.60698 6.34731 4.79872 6.59686 5.0984C6.84641 5.39808 7.02712 5.71055 7.31396 5.95058C7.78151 6.34542 8.40251 6.37667 8.99053 6.37667C9.30032 6.37667 9.60867 6.36105 9.91702 6.37667C10.3402 6.4208 10.7564 6.5162 11.1562 6.66073C11.9823 6.91638 12.7926 7.27004 13.6459 7.43621C14.4993 7.60239 15.3454 7.40213 16.1744 7.18198C17.0034 6.96183 17.8209 6.81412 18.6326 6.60108C19.3665 6.42241 20.0631 6.11763 20.6907 5.70061C21.3604 5.21877 21.9661 4.6552 22.4935 4.02324C22.6957 3.79031 22.8879 3.54886 23.0872 3.31309C23.2645 3.13542 23.3831 2.90855 23.4271 2.66259C23.3371 2.63389 23.2485 2.60071 23.1618 2.56317Z" fill="#E2CAB3"/>
<path fill-rule="evenodd" clip-rule="evenodd" d="M11.7185 3.53902C11.6525 3.55322 11.5865 3.56459 11.5248 3.57311H11.5048C11.0544 3.65975 10.6084 3.76769 10.1452 3.73218C9.8325 3.70946 8.61057 3.74212 8.8974 4.3003C8.90079 4.30996 8.90079 4.32047 8.8974 4.33013C9.14982 4.4892 9.71059 4.42387 9.90134 4.40966C10.0631 4.39872 10.2237 4.37546 10.3818 4.34007C10.8316 4.1634 11.2594 3.93608 11.6568 3.66259C11.6825 3.62411 11.7032 3.5826 11.7185 3.53902Z" fill="#C66720"/>
<path fill-rule="evenodd" clip-rule="evenodd" d="M13.4969 4.68347C13.5265 4.38609 13.5159 4.08612 13.4653 3.79152C13.2737 4.24224 13.0281 4.66854 12.7339 5.06127C12.5618 5.27573 12.3337 5.46179 12.1946 5.7004C12.12 5.82823 12.0168 6.01855 12.0713 6.17478C12.1573 6.42049 12.3093 6.41907 12.4714 6.3864C12.7496 6.21597 13.0049 5.81828 13.1426 5.61376C13.27 5.42431 13.3735 5.22017 13.451 5.00587C13.4667 4.89935 13.4811 4.79283 13.4969 4.68347Z" fill="#C66720"/>
<path fill-rule="evenodd" clip-rule="evenodd" d="M18.082 3.83153C17.7457 3.6959 17.4025 3.57785 17.0537 3.47787C16.8407 3.42303 16.6326 3.35131 16.4313 3.26341C16.2767 3.17152 16.1021 3.11792 15.9221 3.10717C15.9113 3.10646 15.9004 3.10855 15.8906 3.11324C15.8808 3.11793 15.8723 3.12505 15.8661 3.13392C15.8599 3.14278 15.8561 3.15309 15.8551 3.16384C15.8541 3.17458 15.856 3.1854 15.8605 3.19523C15.8747 3.24043 15.9028 3.28013 15.9408 3.30886C16.1546 3.60505 16.3915 3.88428 16.6493 4.14399C16.8802 4.40249 17.0795 4.68086 17.3377 4.92089C17.6876 5.25466 18.3201 5.45777 18.6786 4.99759C19.0745 4.48486 18.5352 4.02043 18.082 3.83153Z" fill="#C66720"/>
<path fill-rule="evenodd" clip-rule="evenodd" d="M16.6363 1.31451C16.5144 1.05459 16.1185 1.0617 15.8561 1.12277C15.8348 1.12552 15.8137 1.12979 15.793 1.13555C15.4297 1.32059 15.148 1.6315 15.0013 2.00904C15.4316 1.88263 15.7485 1.58295 16.2032 1.53039C16.2763 1.52187 16.7195 1.48921 16.6363 1.31451Z" fill="#C66720"/>
<path fill-rule="evenodd" clip-rule="evenodd" d="M10.5668 1.78636C10.6244 1.80454 10.6842 1.81505 10.7446 1.81761C10.8867 1.79353 11.0308 1.78401 11.1749 1.7892C11.2308 1.78641 11.2868 1.78641 11.3427 1.7892C11.5305 1.79666 11.7177 1.81467 11.9034 1.84317L11.9766 1.86305C12.0787 1.87376 12.1812 1.84586 12.2634 1.78494C11.8432 1.60172 10.6858 1.16711 10.528 1.72813C10.5259 1.74088 10.5286 1.75399 10.5358 1.76479C10.543 1.7756 10.5541 1.78331 10.5668 1.78636Z" fill="#C66720"/>
<path fill-rule="evenodd" clip-rule="evenodd" d="M2.70039 7.93349C2.66681 8.00738 2.64271 8.08516 2.62868 8.165C2.60722 8.22441 2.59466 8.28662 2.5914 8.34964C2.59207 8.3536 2.59368 8.35736 2.5961 8.36059C2.59852 8.36382 2.60167 8.36645 2.60531 8.36825C2.60894 8.37004 2.61295 8.37097 2.61701 8.37094C2.62108 8.37092 2.62507 8.36994 2.62868 8.3681C2.67171 8.34395 2.67314 8.27152 2.68032 8.22607C2.69332 8.12955 2.71541 8.03445 2.74629 7.94201C2.75776 7.92071 2.7133 7.9065 2.70039 7.93349Z" fill="#C66720"/>
<path fill-rule="evenodd" clip-rule="evenodd" d="M2.96995 8.15354C2.93333 8.22388 2.90678 8.29893 2.89107 8.37652C2.87959 8.41771 2.84661 8.48305 2.85952 8.51855C2.86033 8.52316 2.86256 8.5274 2.86589 8.5307C2.86923 8.53401 2.87351 8.53621 2.87816 8.53702C2.93266 8.53702 2.9384 8.466 2.947 8.42765C2.96708 8.34386 2.98429 8.25722 3.01297 8.17484C3.02301 8.1507 2.98429 8.12797 2.96995 8.15354Z" fill="#C66720"/>
<path fill-rule="evenodd" clip-rule="evenodd" d="M4.26645 9.1222C4.25355 9.26422 4.20765 9.40625 4.20909 9.55681C4.20909 9.59941 4.27649 9.60652 4.27793 9.55681C4.2996 9.41039 4.31349 9.26295 4.31952 9.11509C4.31809 9.08669 4.26932 9.09379 4.26645 9.1222Z" fill="#C66720"/>
<path fill-rule="evenodd" clip-rule="evenodd" d="M4.62217 9.19588C4.57527 9.30785 4.55279 9.42836 4.55619 9.54953C4.55619 9.59498 4.62934 9.6035 4.63077 9.54953C4.635 9.43229 4.64795 9.31551 4.66949 9.20014C4.67523 9.17742 4.6322 9.17032 4.62217 9.19588Z" fill="#C66720"/>
<path fill-rule="evenodd" clip-rule="evenodd" d="M10.4177 11.1346C10.3961 11.1881 10.3807 11.2439 10.3718 11.3008C10.3583 11.3518 10.3525 11.4044 10.3546 11.4571C10.3565 11.4627 10.3601 11.4677 10.365 11.4712C10.3699 11.4747 10.3758 11.4766 10.3818 11.4766C10.3879 11.4766 10.3938 11.4747 10.3987 11.4712C10.4036 11.4677 10.4072 11.4627 10.4091 11.4571C10.4212 11.4107 10.4275 11.3629 10.4277 11.315C10.4363 11.2554 10.4392 11.1957 10.4507 11.1361C10.4536 11.1233 10.4249 11.119 10.4177 11.1346Z" fill="#C66720"/>
<path fill-rule="evenodd" clip-rule="evenodd" d="M10.8249 11.1844C10.8025 11.2562 10.7871 11.3299 10.779 11.4046C10.7629 11.4672 10.7581 11.5321 10.7647 11.5963C10.7669 11.6019 10.7708 11.6066 10.7758 11.61C10.7807 11.6133 10.7866 11.6151 10.7926 11.6151C10.7987 11.6151 10.8045 11.6133 10.8095 11.61C10.8145 11.6066 10.8184 11.6019 10.8206 11.5963C10.8359 11.5404 10.8427 11.4824 10.8407 11.4245C10.8407 11.3449 10.8536 11.2654 10.8608 11.1873C10.86 11.1833 10.858 11.1797 10.8549 11.177C10.8519 11.1743 10.848 11.1726 10.8439 11.1723C10.8399 11.172 10.8358 11.173 10.8324 11.1752C10.8289 11.1774 10.8263 11.1806 10.8249 11.1844Z" fill="#C66720"/>
<path fill-rule="evenodd" clip-rule="evenodd" d="M12.4442 11.4273C12.4442 11.4045 12.4169 11.3847 12.4055 11.406C12.3685 11.4762 12.3489 11.554 12.3481 11.6332C12.3481 11.673 12.3381 11.7752 12.3883 11.7852C12.3915 11.7863 12.3949 11.7868 12.3982 11.7866C12.4016 11.7864 12.405 11.7856 12.408 11.7841C12.4111 11.7827 12.4138 11.7807 12.4161 11.7782C12.4184 11.7757 12.4201 11.7727 12.4212 11.7696C12.4236 11.7253 12.4202 11.6809 12.4112 11.6375C12.4106 11.5661 12.4217 11.4951 12.4442 11.4273Z" fill="#C66720"/>
<path fill-rule="evenodd" clip-rule="evenodd" d="M12.8473 11.4129C12.8463 11.4097 12.8443 11.4069 12.8416 11.405C12.8389 11.403 12.8356 11.4019 12.8322 11.4019C12.8289 11.4019 12.8256 11.403 12.8229 11.405C12.8202 11.4069 12.8182 11.4097 12.8172 11.4129C12.7855 11.5343 12.7729 11.6598 12.7799 11.785C12.7799 11.8234 12.8415 11.8276 12.8401 11.785C12.8334 11.661 12.8358 11.5366 12.8473 11.4129Z" fill="#C66720"/>
<path fill-rule="evenodd" clip-rule="evenodd" d="M13.2889 11.4569C13.2889 11.452 13.2869 11.4473 13.2834 11.4439C13.2799 11.4404 13.2752 11.4384 13.2703 11.4384C13.2653 11.4384 13.2606 11.4404 13.2571 11.4439C13.2536 11.4473 13.2516 11.452 13.2516 11.4569C13.2459 11.5137 13.2416 11.5705 13.2387 11.6273C13.2387 11.6685 13.21 11.7225 13.2387 11.758C13.241 11.7597 13.2437 11.7607 13.2466 11.7607C13.2494 11.7607 13.2522 11.7597 13.2545 11.758C13.3032 11.758 13.3004 11.6799 13.3032 11.643C13.3059 11.5806 13.301 11.5182 13.2889 11.4569Z" fill="#C66720"/>
<path fill-rule="evenodd" clip-rule="evenodd" d="M21.1455 10.5693C21.1455 10.5778 21.1455 10.5551 21.1455 10.5522C21.1368 10.5319 21.1296 10.5111 21.124 10.4897C21.1096 10.4344 21.1068 10.3747 21.0896 10.3193C21.0896 10.3037 21.058 10.2952 21.0537 10.3193C21.0494 10.3435 21.0537 10.6559 21.1426 10.6034C21.1458 10.6019 21.1485 10.5996 21.1504 10.5967C21.1524 10.5939 21.1536 10.5906 21.1539 10.5871C21.1542 10.5837 21.1535 10.5802 21.1521 10.5771C21.1506 10.574 21.1483 10.5713 21.1455 10.5693Z" fill="#C66720"/>
<path fill-rule="evenodd" clip-rule="evenodd" d="M21.656 10.4417C21.6276 10.3547 21.5931 10.2697 21.5528 10.1874C21.5508 10.1816 21.5467 10.1767 21.5412 10.1739C21.5357 10.1711 21.5292 10.1706 21.5234 10.1725C21.5175 10.1744 21.5126 10.1785 21.5097 10.184C21.5069 10.1894 21.5064 10.1958 21.5083 10.2016C21.5297 10.2934 21.5575 10.3835 21.5915 10.4715C21.6073 10.5141 21.6732 10.4843 21.656 10.4417Z" fill="#C66720"/>
<path fill-rule="evenodd" clip-rule="evenodd" d="M22.1464 10.1901C22.0965 10.1191 22.0628 10.0381 22.0474 9.95295C22.0461 9.94771 22.0431 9.94306 22.0388 9.93974C22.0345 9.93642 22.0292 9.93461 22.0238 9.93461C22.0183 9.93461 22.013 9.93642 22.0088 9.93974C22.0045 9.94306 22.0014 9.94771 22.0001 9.95295C21.9935 10.0548 22.0241 10.1556 22.0862 10.237C22.1134 10.2825 22.1751 10.2313 22.1464 10.1901Z" fill="#C66720"/>
<path fill-rule="evenodd" clip-rule="evenodd" d="M22.7574 10.1204C22.7092 10.0803 22.6697 10.0309 22.6414 9.97523C22.613 9.91957 22.5964 9.85878 22.5925 9.79655C22.5928 9.79313 22.5921 9.7897 22.5904 9.7867C22.5887 9.7837 22.5862 9.78128 22.5831 9.77974C22.58 9.77821 22.5765 9.77763 22.573 9.7781C22.5696 9.77856 22.5664 9.78005 22.5638 9.78235C22.4376 9.87041 22.6269 10.0977 22.6972 10.1644C22.7331 10.2042 22.7933 10.1559 22.7574 10.1204Z" fill="#C66720"/>
<path fill-rule="evenodd" clip-rule="evenodd" d="M23.4489 9.79684C23.3731 9.66962 23.2893 9.54723 23.1979 9.4304C23.1879 9.41336 23.1549 9.41904 23.1621 9.44176C23.2065 9.58379 23.3328 9.68463 23.3944 9.8224C23.4102 9.86075 23.4647 9.83519 23.4489 9.79684Z" fill="#C66720"/>
<path fill-rule="evenodd" clip-rule="evenodd" d="M24.0194 9.35793C24.0065 9.33095 23.972 9.31532 23.9491 9.29828L23.8358 9.2159C23.8071 9.1946 23.777 9.17471 23.7469 9.15483C23.7167 9.13495 23.7153 9.14631 23.7024 9.13921C23.6895 9.13211 23.6909 9.13921 23.6952 9.13921C23.6995 9.13921 23.7024 9.16193 23.7124 9.17187C23.7378 9.19794 23.7646 9.2226 23.7928 9.24573C23.8286 9.27698 23.8659 9.30538 23.9032 9.33379C23.9405 9.36219 23.9606 9.38634 23.9935 9.38634C23.9972 9.38636 24.0008 9.38562 24.0041 9.38416C24.0075 9.3827 24.0105 9.38056 24.0129 9.37788C24.0153 9.37519 24.0172 9.37203 24.0183 9.36859C24.0194 9.36515 24.0198 9.36152 24.0194 9.35793Z" fill="#C66720"/>
<path fill-rule="evenodd" clip-rule="evenodd" d="M24.5058 9.0027C24.5031 8.99444 24.4982 8.98705 24.4917 8.9813C24.4851 8.97555 24.4771 8.97166 24.4685 8.97003C24.4418 8.95775 24.4171 8.94147 24.3954 8.92174C24.3448 8.87788 24.3012 8.82663 24.2663 8.76977C24.2505 8.74563 24.2132 8.76977 24.2247 8.79676C24.2553 8.86468 24.2997 8.9256 24.3552 8.97571C24.3896 9.00696 24.4542 9.05951 24.4986 9.02968C24.5025 9.02647 24.5052 9.02216 24.5065 9.01732C24.5078 9.01249 24.5076 9.00738 24.5058 9.0027Z" fill="#C66720"/>
<path fill-rule="evenodd" clip-rule="evenodd" d="M26.125 7.17627C26.1184 7.16859 26.1103 7.16235 26.1012 7.15795C26.0921 7.15355 26.0821 7.15108 26.0719 7.1507C26.0401 7.14524 26.0098 7.13314 25.983 7.11519C25.926 7.07613 25.8832 7.01983 25.8611 6.9547C25.8611 6.9334 25.8238 6.94618 25.8253 6.96606C25.8342 7.04271 25.8727 7.11297 25.9328 7.16206C25.9744 7.19615 26.0763 7.25154 26.1236 7.20183C26.1268 7.19842 26.1287 7.19399 26.129 7.18931C26.1293 7.18463 26.1279 7.18001 26.125 7.17627Z" fill="#C66720"/>
<path fill-rule="evenodd" clip-rule="evenodd" d="M26.4418 6.81428C26.3206 6.75221 26.2186 6.659 26.1463 6.54443C26.1334 6.52312 26.0961 6.54443 26.109 6.56289C26.175 6.69401 26.2829 6.79987 26.416 6.86399C26.4447 6.87536 26.4705 6.82707 26.4418 6.81428Z" fill="#C66720"/>
<path fill-rule="evenodd" clip-rule="evenodd" d="M26.6384 6.31277C26.5834 6.27729 26.5307 6.23839 26.4806 6.19631C26.4318 6.15228 26.386 6.10825 26.3372 6.06848C26.3185 6.05428 26.2942 6.08127 26.3099 6.09973C26.3846 6.2147 26.4885 6.30824 26.6111 6.37101C26.6186 6.37286 26.6264 6.37208 26.6334 6.3688C26.6403 6.36552 26.6459 6.35996 26.6491 6.35306C26.6523 6.34616 26.653 6.33836 26.6511 6.33101C26.6491 6.32365 26.6446 6.31721 26.6384 6.31277Z" fill="#C66720"/>
<path fill-rule="evenodd" clip-rule="evenodd" d="M2.34458 7.55844C2.22041 7.72696 2.13654 7.92122 2.09933 8.12656C2.09933 8.1436 2.12371 8.14502 2.12801 8.12656C2.17724 7.93154 2.26498 7.74811 2.38617 7.58684C2.40338 7.55986 2.36179 7.53145 2.34458 7.55844Z" fill="#C66720"/>
<path fill-rule="evenodd" clip-rule="evenodd" d="M2.12105 7.41767C2.08949 7.43188 2.07659 7.45886 2.05507 7.48727C2.03356 7.51567 1.99627 7.56964 1.97046 7.61367C1.93387 7.66417 1.9143 7.7248 1.91452 7.78695C1.91452 7.80825 1.94751 7.80399 1.94894 7.78695C1.96561 7.72266 1.99593 7.66262 2.03786 7.61083C2.07228 7.55828 2.13969 7.49863 2.14686 7.43614C2.14711 7.43298 2.14654 7.42981 2.14519 7.42694C2.14385 7.42406 2.14178 7.42158 2.13919 7.41972C2.1366 7.41787 2.13357 7.41671 2.13039 7.41635C2.12721 7.41599 2.12399 7.41644 2.12105 7.41767Z" fill="#C66720"/>
<path fill-rule="evenodd" clip-rule="evenodd" d="M2.53543 7.87916C2.49508 7.94339 2.46236 8.01202 2.43791 8.08369C2.40599 8.15056 2.38286 8.2212 2.36907 8.29389C2.36907 8.31235 2.39632 8.31803 2.40062 8.29389C2.419 8.22388 2.44547 8.15621 2.4795 8.09221C2.52138 8.02766 2.55058 7.95586 2.56555 7.88058C2.56574 7.87663 2.56434 7.87276 2.56165 7.86983C2.55896 7.8669 2.5552 7.86515 2.55121 7.86496C2.54721 7.86477 2.54331 7.86616 2.54035 7.86883C2.53739 7.87149 2.53562 7.87521 2.53543 7.87916Z" fill="#C66720"/>
<path fill-rule="evenodd" clip-rule="evenodd" d="M3.31271 8.37653C3.20515 8.4092 3.15495 8.54981 3.12627 8.64781C3.12519 8.65285 3.12599 8.65812 3.12853 8.66262C3.13107 8.66712 3.13517 8.67056 3.14008 8.6723C3.14498 8.67403 3.15036 8.67394 3.1552 8.67205C3.16005 8.67016 3.16403 8.66659 3.16643 8.66201C3.18361 8.61238 3.20622 8.56476 3.23383 8.51998C3.26108 8.47737 3.29981 8.44186 3.32849 8.39926C3.33423 8.39073 3.32562 8.37653 3.31271 8.37653Z" fill="#C66720"/>
<path fill-rule="evenodd" clip-rule="evenodd" d="M3.55084 8.80276C3.49491 8.82264 3.46479 8.89224 3.43897 8.94479C3.40968 9.00587 3.39636 9.07327 3.40025 9.14079C3.40025 9.16351 3.43467 9.16777 3.43611 9.14079C3.44091 9.08431 3.45547 9.02906 3.47913 8.97745C3.50208 8.92206 3.55801 8.87945 3.57379 8.82406C3.57488 8.82095 3.57504 8.81759 3.57425 8.81439C3.57345 8.81118 3.57173 8.80828 3.56931 8.80603C3.56688 8.80377 3.56384 8.80226 3.56056 8.80168C3.55729 8.8011 3.55391 8.80148 3.55084 8.80276Z" fill="#C66720"/>
<path fill-rule="evenodd" clip-rule="evenodd" d="M3.78158 8.95143C3.73561 9.02404 3.70081 9.10302 3.67832 9.18578C3.64762 9.26291 3.62456 9.34283 3.60948 9.42439C3.60834 9.42928 3.60921 9.43443 3.6119 9.43869C3.61459 9.44295 3.61888 9.44598 3.62382 9.44711C3.62877 9.44824 3.63396 9.44738 3.63827 9.44472C3.64257 9.44205 3.64563 9.43781 3.64677 9.43291C3.66812 9.35382 3.69544 9.27643 3.72852 9.2014C3.76901 9.12603 3.79801 9.04515 3.81457 8.96137C3.81523 8.95923 3.81546 8.95697 3.81524 8.95474C3.81502 8.95251 3.81436 8.95034 3.81329 8.94836C3.81222 8.94639 3.81078 8.94464 3.80903 8.94321C3.80728 8.94179 3.80526 8.94072 3.8031 8.94007C3.80093 8.93941 3.79866 8.93919 3.7964 8.93941C3.79415 8.93962 3.79196 8.94028 3.78996 8.94134C3.78797 8.94239 3.7862 8.94382 3.78476 8.94556C3.78332 8.94729 3.78224 8.94928 3.78158 8.95143Z" fill="#C66720"/>
<path fill-rule="evenodd" clip-rule="evenodd" d="M3.99257 9.18031C3.94257 9.29124 3.92185 9.41293 3.93234 9.53396C3.93234 9.55811 3.96962 9.56095 3.96962 9.53396C3.96962 9.41608 4.02269 9.29961 4.01552 9.18315C4.01473 9.1809 4.01331 9.17892 4.01144 9.17742C4.00957 9.17593 4.00732 9.17498 4.00493 9.17468C4.00255 9.17439 4.00013 9.17476 3.99794 9.17575C3.99576 9.17675 3.9939 9.17833 3.99257 9.18031Z" fill="#C66720"/>
<path fill-rule="evenodd" clip-rule="evenodd" d="M11.2422 11.2938C11.1915 11.4254 11.1724 11.5669 11.1863 11.7071C11.1863 11.7255 11.2193 11.7241 11.2207 11.7071C11.2207 11.6389 11.2308 11.5651 11.2394 11.504C11.2559 11.4366 11.2641 11.3674 11.2638 11.298C11.2638 11.2838 11.2465 11.2853 11.2422 11.2938Z" fill="#C66720"/>
<path fill-rule="evenodd" clip-rule="evenodd" d="M11.6167 11.5663C11.6167 11.501 11.6483 11.4427 11.654 11.3774C11.6532 11.3752 11.6517 11.3734 11.6498 11.372C11.6479 11.3707 11.6456 11.37 11.6432 11.37C11.6409 11.37 11.6386 11.3707 11.6367 11.372C11.6348 11.3734 11.6333 11.3752 11.6325 11.3774C11.5908 11.4439 11.5665 11.5196 11.5618 11.5977C11.557 11.6758 11.5719 11.7538 11.6052 11.8248C11.6153 11.8461 11.644 11.8248 11.6368 11.8106C11.6112 11.7318 11.6043 11.6482 11.6167 11.5663Z" fill="#C66720"/>
<path fill-rule="evenodd" clip-rule="evenodd" d="M11.961 11.6146C11.9654 11.5497 11.9596 11.4845 11.9437 11.4214C11.9422 11.4185 11.9398 11.416 11.9369 11.4142C11.934 11.4125 11.9306 11.4116 11.9273 11.4116C11.9239 11.4116 11.9205 11.4125 11.9176 11.4142C11.9147 11.416 11.9123 11.4185 11.9108 11.4214C11.8986 11.4857 11.8986 11.5517 11.9108 11.616C11.9149 11.6902 11.9279 11.7636 11.9495 11.8347C11.9495 11.8589 11.9939 11.8532 11.9882 11.8347C11.9731 11.7622 11.964 11.6886 11.961 11.6146Z" fill="#C66720"/>
<path fill-rule="evenodd" clip-rule="evenodd" d="M24.8672 8.37636C24.8672 8.36073 24.8457 8.35221 24.8385 8.36499C24.8266 8.38346 24.8203 8.40489 24.8203 8.42678C24.8203 8.44866 24.8266 8.4701 24.8385 8.48856C24.8614 8.53259 24.9174 8.59792 24.9719 8.59082C24.9762 8.5898 24.98 8.58716 24.9824 8.58345C24.9848 8.57975 24.9856 8.57526 24.9848 8.57094C24.9704 8.49424 24.8485 8.46299 24.8672 8.37636Z" fill="#C66720"/>
<path fill-rule="evenodd" clip-rule="evenodd" d="M25.3851 8.14801C25.3708 8.12529 25.3578 8.12245 25.332 8.11392C25.2968 8.10298 25.2654 8.08228 25.2417 8.05427C25.1958 8.00066 25.1638 7.9368 25.1485 7.86821C25.1479 7.86541 25.1468 7.86275 25.1452 7.86038C25.1436 7.85801 25.1415 7.85598 25.1391 7.8544C25.1367 7.85281 25.134 7.85171 25.1312 7.85116C25.1284 7.85061 25.1255 7.85061 25.1226 7.85117C25.1198 7.85173 25.1171 7.85283 25.1147 7.85442C25.1123 7.85601 25.1103 7.85805 25.1087 7.86042C25.1071 7.8628 25.106 7.86546 25.1054 7.86826C25.1049 7.87106 25.1049 7.87394 25.1054 7.87673C25.1184 7.95511 25.1504 8.0292 25.1986 8.09262C25.2345 8.13665 25.3292 8.20908 25.3865 8.16932C25.3885 8.16605 25.3895 8.16225 25.3892 8.15844C25.389 8.15462 25.3875 8.15098 25.3851 8.14801Z" fill="#C66720"/>
<path fill-rule="evenodd" clip-rule="evenodd" d="M25.6286 7.66627C25.5841 7.62224 25.5368 7.57821 25.4952 7.53134C25.478 7.51146 25.4421 7.53134 25.4551 7.55549C25.4875 7.61265 25.527 7.6656 25.5727 7.71314C25.6114 7.75291 25.6544 7.81682 25.7161 7.82108C25.7191 7.82133 25.7221 7.8209 25.7249 7.81982C25.7278 7.81875 25.7303 7.81705 25.7324 7.81487C25.7344 7.81268 25.736 7.81006 25.7369 7.8072C25.7378 7.80434 25.738 7.80132 25.7376 7.79836C25.729 7.74297 25.6716 7.70604 25.6286 7.66627Z" fill="#C66720"/>
<path opacity="0.4" fill-rule="evenodd" clip-rule="evenodd" d="M15.1477 2.72202C15.1477 3.1126 14.5439 3.43217 13.7967 3.43217C13.0494 3.43217 12.4456 3.11544 12.4456 2.72202C12.4456 2.32859 13.0494 2.01187 13.7967 2.01187C14.5439 2.01187 15.1477 2.33144 15.1477 2.72202Z" fill="#DA840D"/>
<path fill-rule="evenodd" clip-rule="evenodd" d="M22.5451 8.66029C19.4988 7.89475 18.2238 9.57496 18.274 11.552C18.2941 12.3247 19.0055 13.3899 19.473 14.1952C19.8878 14.8386 20.3715 15.4358 20.9158 15.9762C21.26 16.2191 21.719 16.4989 22.1793 16.4989C22.3558 16.4817 22.5246 16.4185 22.6684 16.3157C22.7358 16.3287 22.801 16.3512 22.862 16.3824C23.08 16.4563 23.1761 16.1552 23.4142 16.2617C23.7942 16.4336 24.1227 16.0842 24.4066 15.8939C24.4984 15.8328 25.4106 14.4324 25.5095 14.3585C26.4489 13.1641 26.9222 12.8118 26.9323 11.3617C26.9437 9.54939 26.0244 7.92599 22.5451 8.66029Z" fill="#C73A54"/>
<g style="mix-blend-mode:multiply">
<path fill-rule="evenodd" clip-rule="evenodd" d="M23.6998 9.13514C23.6998 9.3425 23.1634 9.5243 22.4907 9.54134C21.8181 9.55838 21.2688 9.39931 21.2631 9.19621C21.2573 8.99311 21.7995 8.80279 22.4721 8.79C23.1447 8.77722 23.694 8.92777 23.6998 9.13514Z" fill="#ED6366"/>
</g>
<path fill-rule="evenodd" clip-rule="evenodd" d="M20.6263 9.80515C20.3581 9.40321 19.8088 9.5211 19.4689 9.75686L19.4517 9.76965C19.3728 9.82244 19.3014 9.8855 19.2394 9.95713C18.9977 10.2112 18.8444 10.5352 18.802 10.8817C18.7604 11.3078 18.9053 11.7808 19.2767 11.9697C19.2872 11.975 19.2957 11.9834 19.3011 11.9938C19.3153 11.9909 19.3293 11.9866 19.3427 11.9811C19.5521 11.8958 19.542 11.555 19.5435 11.3817C19.5435 10.9968 19.8662 10.8263 20.1616 10.6616C20.4327 10.5068 20.8615 10.1588 20.6263 9.80515Z" fill="#ED6366"/>
<g style="mix-blend-mode:multiply">
<path fill-rule="evenodd" clip-rule="evenodd" d="M25.4794 13.0861C25.227 12.7637 24.8484 13.1571 24.6676 13.356C24.2474 13.8175 23.985 14.3871 23.4887 14.7876C22.9925 15.1881 22.0918 14.897 21.706 15.4793C21.688 15.5074 21.6757 15.5387 21.6699 15.5714C21.6642 15.6042 21.6649 15.6377 21.6723 15.6702C21.6796 15.7027 21.6933 15.7334 21.7126 15.7606C21.732 15.7878 21.7565 15.8109 21.7849 15.8287C21.825 15.8442 21.8669 15.8547 21.9097 15.8599C21.9989 15.9095 22.0959 15.9441 22.1965 15.9622C22.5111 16.0029 22.8307 15.9432 23.1087 15.7918C23.3611 15.6725 23.6465 15.8116 23.8975 15.6938C23.9903 15.6437 24.0702 15.5732 24.1313 15.4878C24.2117 15.3954 24.2793 15.2927 24.332 15.1825C24.4583 14.9756 24.6022 14.7798 24.7623 14.5973C24.9569 14.3786 25.1329 14.1444 25.2887 13.8971C25.4751 13.6315 25.6443 13.2991 25.4794 13.0861Z" fill="#ED6366"/>
</g>
<path fill-rule="evenodd" clip-rule="evenodd" d="M25.3993 5.96213C25.2301 5.90532 24.9189 6.16098 24.7869 6.23909C24.4858 6.41805 24.1803 6.59843 23.8906 6.79443C23.4505 7.10008 23.0858 7.50012 22.8235 7.96476C22.7142 8.16261 22.6409 8.378 22.607 8.60105C22.5624 8.71814 22.5401 8.84236 22.541 8.96749C22.5402 8.97626 22.5412 8.9851 22.5439 8.9935C22.5465 9.00189 22.5509 9.00968 22.5566 9.01642C22.5623 9.02315 22.5694 9.02869 22.5773 9.03273C22.5852 9.03676 22.5938 9.03921 22.6027 9.03992C23.337 9.04844 24.0885 8.57264 24.6019 8.094C24.871 7.85912 25.084 7.56807 25.2258 7.24182C25.2965 7.05784 25.3493 6.86761 25.3836 6.6737C25.4237 6.46634 25.3635 6.21495 25.4309 6.02321C25.4346 6.01096 25.4333 5.99779 25.4275 5.98642C25.4216 5.97505 25.4115 5.96635 25.3993 5.96213Z" fill="#8DB54F"/>
<path fill-rule="evenodd" clip-rule="evenodd" d="M22.4175 9.01392C22.4175 8.81082 22.4792 8.68441 22.538 8.04528C22.5968 7.40614 22.5853 7.08657 22.6283 6.98147C22.6714 6.87637 23.0156 7.09936 23.0156 7.09936C23.0156 7.09936 22.9051 7.58936 22.8234 7.9913C22.7417 8.39325 22.6599 9.11618 22.6599 9.11618C22.6599 9.11618 22.6154 9.23407 22.5079 9.20424C22.4003 9.17441 22.4175 9.01392 22.4175 9.01392Z" fill="#300D33"/>
</svg>
