<svg width="50" height="50" viewBox="0 0 50 50" fill="none" xmlns="http://www.w3.org/2000/svg">
<circle opacity="0.3" cx="25" cy="25" r="25" fill="url(#paint0_linear_414_5559)"/>
<mask id="mask0_414_5559" style="mask-type:alpha" maskUnits="userSpaceOnUse" x="0" y="0" width="50" height="50">
<circle cx="25" cy="25" r="25" fill="#C4C4C4"/>
</mask>
<g mask="url(#mask0_414_5559)">
<g clip-path="url(#clip0_414_5559)">
<path d="M19.0849 21.1347C19.0849 21.1347 20.111 12.8521 19.8793 9.82721C19.7605 8.27568 19.0047 7.92467 17.8493 8.01316C16.694 8.10165 10.0872 11.5896 10.0872 11.5896L11.0287 13.8461L16.5232 12.1294C16.5232 12.1294 15.9634 15.3519 15.8342 15.964C15.705 16.576 15.4347 17.4005 15.2194 18.1394C15.1139 18.5036 14.9669 18.9756 14.9669 19.2042C14.9699 19.744 19.0849 21.1347 19.0849 21.1347Z" fill="#FFEDE5"/>
<path d="M16.523 12.1295C17.2893 11.982 18.0541 11.5322 18.2947 11.1738C18.1711 11.5768 17.8984 11.9183 17.5314 12.1295C17.1821 12.3532 16.8121 12.5433 16.4265 12.6973L16.523 12.1295Z" fill="#F28F8F"/>
<path d="M29.4858 20.9873C29.3715 20.5655 28.626 20.1216 26.4044 19.7514C24.1828 19.3812 22.1617 19.7514 22.1498 20.0125C22.138 20.2735 22.6978 22.0182 25.2595 22.3368C27.8211 22.6554 29.7204 21.9135 29.4858 20.9873Z" fill="#263238"/>
<path d="M22.8034 24.5725C22.8034 24.5725 21.3555 15.2457 21.5634 13.3417C21.7787 11.3742 22.5301 10.4613 23.7909 10.333C25.4378 11.2828 26.3154 13.5526 27.3683 15.7899C28.4212 18.0272 29.5617 22.8263 29.6226 25.1197C29.6835 27.4131 27.8569 29.0472 25.7883 29.3451C23.7196 29.643 22.8034 24.5725 22.8034 24.5725Z" fill="#FFEDE5"/>
<path d="M25.0783 17.2707C24.4102 16.7373 23.9587 15.982 23.8071 15.144L25.8787 14.4272L27.2761 15.582L27.3177 15.672C27.3355 15.7104 27.3533 15.7487 27.3726 15.787C27.4127 15.8726 27.4528 15.9625 27.4929 16.054C27.5033 16.0805 27.5152 16.1071 27.5271 16.1351C27.5583 16.2059 27.588 16.2826 27.6192 16.3563L27.6503 16.433C27.6919 16.5348 27.732 16.6395 27.7736 16.7472C27.8137 16.8548 27.8538 16.9654 27.8939 17.0775C27.9028 17.1026 27.9117 17.1262 27.9191 17.1498L28.0261 17.4595C28.0261 17.4742 28.0365 17.4905 28.0424 17.5052C28.1256 17.7559 28.2087 18.0155 28.2889 18.281L28.3023 18.3238C28.3424 18.455 28.381 18.5877 28.4196 18.722C28.4196 18.722 26.495 18.4476 25.0783 17.2707Z" fill="#F28F8F"/>
<path d="M23.3542 10.4128C24.1412 10.1046 25.0991 10.8258 25.6054 11.1503C26.6346 11.8051 32.9266 16.675 34.3938 17.8165C34.7116 18.0082 35.0353 18.1926 35.365 18.3666L33.6364 21.0508C33.4945 20.6651 33.2723 20.3133 32.9845 20.0184C31.4163 18.9064 28.3809 18.3003 26.4267 17.5451C24.906 16.9552 24.5882 16.6248 24.0759 15.7621C23.6838 15.0792 22.2686 10.9231 23.3542 10.4128Z" fill="#FFEDE5"/>
<path d="M22.7721 24.6243L22.1499 20.0125C22.1499 20.0125 22.7083 21.2838 25.5833 21.6185C28.4582 21.9533 29.5586 21.4711 29.4859 20.9873C29.4859 20.9873 30.2373 23.875 29.9462 25.751C29.6552 27.627 26.7698 29.6254 26.7698 29.6254L22.7721 24.6243Z" fill="#37474F"/>
<path opacity="0.15" d="M24.0448 25.2554C23.7804 25.2554 23.5324 25.2716 23.3022 25.2864L26.498 29.2788H27.2405C28.0691 28.6254 29.7309 27.1565 29.9477 25.7554C30.1615 24.3794 29.814 22.4621 29.6136 21.5359C29.7279 22.6007 27.3296 25.1861 24.0448 25.2554Z" fill="black"/>
<path d="M38.4376 14.4643C37.3981 14.2726 36.9154 15.0174 36.5323 15.6324C36.1492 16.2474 35.5076 17.3756 35.221 17.5659C34.9344 17.7561 34.7755 17.5659 34.3672 17.8712C33.9588 18.1764 33.6603 18.7561 33.7865 18.967L34.0835 19.4802C33.9123 19.4616 33.739 19.4832 33.5778 19.5434C33.4165 19.6037 33.2718 19.7007 33.1554 19.8268C32.7099 20.2692 32.9415 20.343 33.1925 20.5937C33.4435 20.8444 34.033 21.9771 34.6241 22.2853C34.6241 22.2853 36.216 21.8119 37.3698 20.0185C38.5237 18.2251 38.4376 14.4643 38.4376 14.4643Z" fill="url(#paint1_linear_414_5559)"/>
<path d="M34.9522 22.5226C34.8913 22.5118 34.8334 22.4886 34.782 22.4544C34.7306 22.4202 34.687 22.3757 34.6539 22.3238C34.6208 22.2719 34.5989 22.2137 34.5897 22.153C34.5805 22.0923 34.5841 22.0303 34.6003 21.971C34.7762 21.418 35.0404 20.8966 35.3829 20.4269C35.7824 19.8635 36.5308 18.8045 36.657 18.2249C36.7833 17.6453 37.055 16.0215 37.499 15.3416C37.9431 14.6617 38.399 14.2694 38.9841 14.4892C39.5692 14.7089 37.7218 19.0612 37.1798 19.7986C36.6377 20.536 34.9522 22.5226 34.9522 22.5226Z" fill="#37474F"/>
<path d="M35.2938 22.4282C36.7565 21.6539 37.2377 20.9018 37.6698 19.921C38.1019 18.9402 39.1118 18.0362 39.3731 17.1557C39.6345 16.2752 39.6612 14.0172 38.6559 14.5644C37.6505 15.1116 37.4411 17.1306 37.0001 18.2972C36.559 19.4638 33.8593 23.1907 35.2938 22.4282Z" fill="#263238"/>
<path d="M26.5026 24.8129C27.1708 24.7112 28.4554 24.9855 29.6211 26.6019C30.873 28.3378 31.1061 31.3671 30.3205 31.6163C30.3205 31.6163 28.4999 31.4039 27.2495 30.7535C25.9991 30.1031 23.8978 25.7096 26.5026 24.8129Z" fill="#263238"/>
<path d="M47.8571 39.2663C45.9177 38.5097 44.3302 37.2089 42.9566 35.7547C41.8517 34.2651 37.1175 27.8865 36.2963 26.9883C35.9993 26.6697 35.2954 25.8497 34.3197 25.6447C30.8656 24.9073 24.4696 25.0165 24.4696 25.0165L22.0104 24.605L17.1099 29.1858C17.7855 29.9011 18.6335 30.525 19.8735 31.1665C21.1135 31.8081 22.4544 32.2741 24.2632 32.1222C27.8836 31.8184 30.0547 30.8022 31.9927 30.3524C32.554 30.2226 33.1361 30.1032 33.5772 31.0176C34.0182 31.932 34.0539 32.3906 35.3592 33.3625C37.0328 34.6102 39.7964 36.0054 41.0023 37.4921C41.2009 37.8565 41.3193 38.2587 41.3498 38.6719C41.4641 40.2397 42.7887 39.9314 43.8565 40.6128C44.4386 40.9845 44.8707 41.4358 45.5717 41.5892C46.2099 41.7196 46.8693 41.7075 47.5022 41.5538C48.0724 41.4195 48.8892 41.011 49.1699 40.4594C49.5381 39.725 48.4155 39.4831 47.8571 39.2663Z" fill="#FFEDE5"/>
<path d="M47.8571 39.2663C45.9177 38.5097 44.3302 37.2089 42.9566 35.7547C41.8517 34.2651 37.1175 27.8865 36.2963 26.9883C35.9993 26.6697 35.2954 25.8497 34.3197 25.6447C30.8656 24.9073 24.4696 25.0165 24.4696 25.0165L22.0104 24.605L17.1099 29.1858C17.7855 29.9011 18.6335 30.525 19.8735 31.1665C21.1135 31.8081 22.4544 32.2741 24.2632 32.1222C27.8836 31.8184 30.0547 30.8022 31.9927 30.3524C32.554 30.2226 33.1361 30.1032 33.5772 31.0176C34.0182 31.932 34.0539 32.3906 35.3592 33.3625C37.0328 34.6102 39.7964 36.0054 41.0023 37.4921C41.2009 37.8565 41.3193 38.2587 41.3498 38.6719C41.4641 40.2397 42.7887 39.9314 43.8565 40.6128C44.4386 40.9845 44.8707 41.4358 45.5717 41.5892C46.2099 41.7196 46.8693 41.7075 47.5022 41.5538C48.0724 41.4195 48.8892 41.011 49.1699 40.4594C49.5381 39.725 48.4155 39.4831 47.8571 39.2663Z" fill="#FFEDE5"/>
<path d="M35.2477 32.6192C34.8801 32.2145 34.6009 31.7384 34.428 31.2211C34.2951 30.7887 34.1242 30.3687 33.9171 29.966C33.3142 28.9336 29.3136 30.2507 27.542 30.7905C27.4425 30.9379 27.0267 31.3804 26.8782 31.7491C29.024 31.314 30.5684 30.6813 31.9896 30.351C32.5509 30.2212 33.1331 30.1017 33.5741 31.0161C34.0152 31.9305 34.0508 32.3892 35.3561 33.3611C36.0363 33.8684 36.8961 34.3935 37.7589 34.9524C36.7951 34.2091 36.0689 33.4643 35.2477 32.6192Z" fill="#F28F8F"/>
<path d="M22.3904 24.605C22.3904 24.605 25.9054 24.7761 26.5024 24.8188C26.5024 24.8188 25.1792 25.1728 26.789 28.4042C28.3987 31.6355 30.3218 31.6178 30.3218 31.6178C27.7973 32.4201 26.486 33.3212 23.268 32.9452C19.4322 32.3951 17.1067 29.5427 17.1067 29.5427L22.3904 24.605Z" fill="#455A64"/>
<path opacity="0.15" d="M30.3129 31.618C30.2837 31.6199 30.2545 31.6199 30.2253 31.618C29.9387 31.5856 29.0863 31.3998 28.1314 30.3895C27.3735 30.5903 26.6044 30.7474 25.8282 30.86C22.9591 31.2774 20.8073 30.7744 17.6012 29.0769L17.1067 29.54C18.3791 30.9651 20.0113 32.0271 21.835 32.6165C21.9464 32.6504 22.0607 32.6843 22.1765 32.7153C22.2849 32.7433 22.3948 32.7714 22.5047 32.7964L22.5344 32.8038C22.6354 32.8274 22.7393 32.8481 22.8433 32.8687L22.8982 32.879C23.02 32.9026 23.1418 32.9233 23.2665 32.941C23.4685 32.9646 23.6615 32.9823 23.8487 32.997C24.0358 33.0118 24.2155 33.0191 24.3907 33.025H24.6476C24.7322 33.025 24.8154 33.025 24.8971 33.025C25.1421 33.025 25.3752 33.0059 25.5995 32.9837C25.748 32.969 25.8935 32.9513 26.0361 32.9306C26.3794 32.879 26.7195 32.8081 27.0548 32.7183C27.1855 32.6829 27.3147 32.646 27.4424 32.6062C27.7646 32.5088 28.0824 32.3997 28.4091 32.2817L28.8056 32.1342C29.2749 31.9632 29.7679 31.7832 30.3203 31.6077L30.3129 31.618Z" fill="black"/>
<path d="M10.6366 20.2057C9.20804 20.6983 7.85816 21.5596 9.00311 24.0801C10.6366 27.72 18.0409 31.7611 21.8426 32.6194C19.912 29.7184 21.5188 26.6434 22.7796 24.6243L22.4395 22.1584C22.4395 22.1584 21.299 21.6142 19.4101 20.1644C17.5212 18.7147 16.7371 18.3209 13.9259 19.1704C11.9939 19.7544 10.6366 20.2057 10.6366 20.2057Z" fill="url(#paint2_linear_414_5559)"/>
<path opacity="0.05" d="M16.4238 28.4323C12.536 26.22 11.3138 24.2496 9.7887 22.3574L8.79077 23.5668C8.8175 23.645 8.8472 23.7246 8.87987 23.8072C8.87931 23.8116 8.87931 23.816 8.87987 23.8205C8.91254 23.9045 8.94967 23.9915 8.98976 24.08C9.71445 25.6728 11.5336 27.3424 13.672 28.7951C13.969 29.0015 14.2898 29.2036 14.6046 29.3997C14.7635 29.4986 14.9224 29.5959 15.0828 29.6947C16.1703 30.3414 17.296 30.9225 18.4538 31.435C19.54 31.933 20.6712 32.3281 21.8322 32.6149C21.4093 31.9907 21.1267 31.2835 21.0035 30.5413C19.6522 30.1372 18.2028 29.4455 16.4238 28.4323Z" fill="black"/>
<path d="M9.5644 20.6996C9.5644 20.6996 4.76928 18.1541 4.01044 17.8104L8.20709 15.3637L7.31608 13.0674C7.31608 13.0674 1.07902 15.2693 -0.108991 15.902C-0.731212 16.2368 -1 16.5126 -1 16.9875C-1 17.7795 -0.241157 18.806 0.810233 19.6953C3.04518 21.5875 6.07758 23.3499 9.03128 24.9604C9.70844 25.4589 10.4123 26.0857 10.4123 26.0857C11.189 26.4721 12.3191 22.906 9.5644 20.6996Z" fill="#FFEDE5"/>
<path d="M14.0535 11.8524C13.754 11.1618 13.1905 10.6177 12.4871 10.3398C11.7836 10.0618 10.9977 10.0727 10.3024 10.3702C9.60706 10.6677 9.05918 11.2273 8.77929 11.926C8.49941 12.6246 8.51044 13.4051 8.80996 14.0956C8.82927 14.1428 8.85303 14.1856 8.8753 14.2299L8.15061 15.7961L7.07992 13.8361C7.08036 13.6817 7.023 13.5326 6.91899 13.4179C6.81498 13.3032 6.67174 13.2309 6.5171 13.2152C6.43867 13.2085 6.3597 13.2178 6.28499 13.2424C6.21028 13.267 6.14138 13.3064 6.08249 13.3583C6.0236 13.4102 5.97594 13.4734 5.94242 13.5441C5.90889 13.6148 5.89019 13.6916 5.88745 13.7697L6.70569 13.8405C6.52614 13.9588 6.3885 14.13 6.31217 14.3301C6.11763 14.8345 6.79479 15.8625 7.70214 16.7651C7.70214 16.7651 8.98668 18.5659 9.29853 18.8181C9.49947 18.9699 9.75136 19.0396 10.0024 19.0127L10.0796 15.4731C10.6012 15.7527 11.1975 15.864 11.7857 15.7915C12.3739 15.7191 12.9248 15.4664 13.3618 15.0688C13.7988 14.6711 14.1002 14.1481 14.2242 13.5725C14.3481 12.9969 14.2885 12.3973 14.0535 11.8568V11.8524Z" fill="#263238"/>
<path d="M8.78166 16.4064C8.66285 16.5701 8.30051 16.3622 8.0139 16.2412C7.7273 16.1203 6.95954 16.1159 6.92984 16.9285C6.90014 17.7411 7.9055 18.4033 8.48317 18.3429C9.47813 18.2411 9.37418 17.6261 9.37418 17.6261L10.8354 20.8397C12.5269 21.76 15.6751 20.3118 13.7862 19.4018L13.3689 18.4476C13.7299 18.3512 14.0787 18.2141 14.4084 18.039C15.0024 17.6644 15.1969 16.986 15.0915 16.2088C14.9237 14.9625 14.646 14.0127 13.4372 11.9318C12.1007 9.65756 9.27914 10.8345 8.17725 12.4317C7.07537 14.029 8.78166 16.4064 8.78166 16.4064Z" fill="#FFEDE5"/>
<path d="M8.89905 16.6793C8.81885 16.7162 8.29167 16.3416 8.00804 16.2457C7.62342 16.1145 6.99823 13.6972 6.99823 13.6972C6.99823 13.6972 6.48738 13.2474 6.76805 12.4362C6.99823 11.7711 7.84765 11.3257 8.43572 11.0307C9.49602 10.4983 10.6825 9.89214 11.2023 8.77717C11.2439 8.68868 11.3033 8.58839 11.4013 8.58691C11.4317 8.58961 11.4613 8.5983 11.4884 8.61248C11.5154 8.62666 11.5393 8.64605 11.5587 8.6695C11.8035 8.94247 11.9416 9.29362 11.9478 9.65912C11.9478 9.69304 11.9582 9.73581 11.9923 9.74613C12.0265 9.75646 12.0517 9.72843 12.0725 9.70336C12.1804 9.57221 12.2625 9.42213 12.3146 9.26091C12.3859 9.04116 12.7601 9.60012 12.7868 9.67682C12.8744 9.91945 12.9121 10.177 12.8978 10.4344C12.8836 10.6917 12.8175 10.9436 12.7037 11.1752C12.472 11.6369 11.9953 11.923 11.5587 12.1752C10.586 12.7386 8.92281 13.2754 8.69114 13.3388C8.37632 13.4258 8.43721 13.74 8.61541 14.591C8.77876 15.3431 9.16783 16.554 8.89905 16.6793Z" fill="#263238"/>
<path d="M13.369 18.4475C13.369 18.4475 11.6315 18.8118 11.0137 18.766C10.6513 18.7399 10.3054 18.6052 10.0217 18.3796C10.2234 18.6396 10.4759 18.8564 10.7642 19.0168C11.3345 19.3265 13.5323 18.8324 13.5323 18.8324L13.369 18.4475Z" fill="#F28F8F"/>
<path d="M10.6545 13.9568L10.1377 14.5173C10.0633 14.4453 10.0197 14.3476 10.0161 14.2446C10.0125 14.1415 10.0492 14.041 10.1184 13.9642C10.1528 13.9282 10.1941 13.8993 10.2398 13.8794C10.2856 13.8595 10.3349 13.8489 10.3849 13.8482C10.4349 13.8475 10.4845 13.8568 10.5308 13.8754C10.5771 13.8941 10.6192 13.9217 10.6545 13.9568Z" fill="#263238"/>
<path d="M12.3191 16.8196L13.0839 16.7842C13.0885 16.8341 13.083 16.8845 13.0676 16.9323C13.0522 16.9801 13.0273 17.0243 12.9943 17.0623C12.9613 17.1003 12.9209 17.1313 12.8756 17.1535C12.8303 17.1756 12.7809 17.1885 12.7304 17.1912C12.6268 17.1941 12.526 17.157 12.4493 17.0877C12.3726 17.0184 12.326 16.9223 12.3191 16.8196Z" fill="#F28F8F"/>
<path d="M13.7999 13.0674L13.0574 12.8787C13.0675 12.8295 13.0875 12.783 13.1163 12.7418C13.145 12.7006 13.1819 12.6656 13.2247 12.639C13.2674 12.6124 13.3152 12.5947 13.3651 12.587C13.4149 12.5792 13.4659 12.5816 13.5148 12.594C13.614 12.6221 13.6988 12.6866 13.7518 12.7746C13.8048 12.8626 13.822 12.9673 13.7999 13.0674Z" fill="#263238"/>
<path d="M12.2151 14.2222L12.7215 16.0318L13.6125 15.4949L12.2151 14.2222Z" fill="#F28F8F"/>
<path d="M10.8059 15.0335C10.8062 15.0988 10.826 15.1625 10.8627 15.2166C10.8994 15.2708 10.9515 15.3129 11.0123 15.3377C11.0731 15.3624 11.1399 15.3688 11.2044 15.3559C11.2688 15.3429 11.3279 15.3114 11.3743 15.2651C11.4207 15.2188 11.4522 15.16 11.4649 15.0959C11.4776 15.0319 11.471 14.9655 11.4457 14.9053C11.4205 14.845 11.3779 14.7935 11.3232 14.7572C11.2685 14.721 11.2043 14.7017 11.1386 14.7017C11.0947 14.7017 11.0514 14.7103 11.0109 14.7269C10.9705 14.7436 10.9337 14.7681 10.9028 14.7989C10.8719 14.8298 10.8474 14.8664 10.8308 14.9066C10.8142 14.9469 10.8057 14.99 10.8059 15.0335Z" fill="#263238"/>
<path d="M13.2131 14.0969C13.2128 14.1603 13.2315 14.2224 13.2668 14.2752C13.3021 14.3281 13.3524 14.3693 13.4114 14.3938C13.4703 14.4182 13.5352 14.4246 13.5979 14.4123C13.6605 14.4 13.7181 14.3695 13.7632 14.3247C13.8084 14.2798 13.8391 14.2227 13.8515 14.1604C13.8639 14.0982 13.8574 14.0337 13.8328 13.9752C13.8082 13.9167 13.7667 13.8667 13.7135 13.8316C13.6603 13.7966 13.5978 13.778 13.5339 13.7783C13.449 13.7787 13.3676 13.8124 13.3075 13.8721C13.2474 13.9317 13.2135 14.0125 13.2131 14.0969Z" fill="#263238"/>
<path d="M41.1566 39.001C41.0304 39.0865 41.2264 39.6263 41.3407 39.759C41.5789 39.989 41.8732 40.1536 42.1946 40.2369C42.7793 40.4147 43.3256 40.6988 43.8059 41.0746C44.3982 41.5509 45.0871 41.8945 45.8255 42.0819C46.7016 42.2751 47.7144 42.0288 48.598 41.5082C49.5247 40.964 49.4385 40.4419 49.3123 40.0938L41.1566 39.001Z" fill="#37474F"/>
<path d="M43.1612 35.9717C43.4582 36.2843 45.0739 37.8713 46.3139 38.2754C47.3014 38.5969 48.586 38.9036 49.1488 39.501C49.7339 40.1233 48.8622 40.9197 47.6638 41.3769C46.4134 41.8518 45.564 41.4684 44.7338 41.054C44.1502 40.759 43.2904 40.1691 42.8583 39.9316C42.4261 39.6942 41.6257 39.5644 41.2916 39.2119C41.1074 39.0172 40.9753 38.4745 40.8951 37.9981C40.8223 37.5557 40.5283 37.156 40.6783 37.1324L40.9218 37.3964C42.0504 37.6028 43.2266 36.5675 43.1612 35.9717Z" fill="url(#paint3_linear_414_5559)"/>
<path d="M4.01041 17.8105C3.29875 18.1924 2.53022 18.4587 1.73389 18.5996C1.73389 18.5996 2.99466 18.9137 4.49453 18.0509L4.01041 17.8105Z" fill="#F28F8F"/>
</g>
</g>
<defs>
<linearGradient id="paint0_linear_414_5559" x1="50" y1="50" x2="-16.6397" y2="44.8434" gradientUnits="userSpaceOnUse">
<stop stop-color="#92A3FD"/>
<stop offset="1" stop-color="#9DCEFF"/>
</linearGradient>
<linearGradient id="paint1_linear_414_5559" x1="38.439" y1="22.2853" x2="31.0392" y2="21.8816" gradientUnits="userSpaceOnUse">
<stop stop-color="#92A3FD"/>
<stop offset="1" stop-color="#9DCEFF"/>
</linearGradient>
<linearGradient id="paint2_linear_414_5559" x1="22.7796" y1="32.6194" x2="3.85094" y2="31.1216" gradientUnits="userSpaceOnUse">
<stop stop-color="#92A3FD"/>
<stop offset="1" stop-color="#9DCEFF"/>
</linearGradient>
<linearGradient id="paint3_linear_414_5559" x1="49.3355" y1="41.5964" x2="37.8365" y2="40.2202" gradientUnits="userSpaceOnUse">
<stop stop-color="#92A3FD"/>
<stop offset="1" stop-color="#9DCEFF"/>
</linearGradient>
<clipPath id="clip0_414_5559">
<rect width="50.3895" height="34.1483" fill="white" transform="translate(-1 8)"/>
</clipPath>
</defs>
</svg>
