<svg width="60" height="60" viewBox="0 0 60 60" fill="none" xmlns="http://www.w3.org/2000/svg">
<rect opacity="0.2" width="60" height="60" rx="12" fill="url(#paint0_linear_430_728)"/>
<g clip-path="url(#clip0_430_728)">
<path d="M26.2698 19.8851C26.2698 19.8851 30.3258 15.151 37.4525 17.801C37.4525 17.801 33.3941 24.6836 26.2698 19.8851Z" fill="#5C7732"/>
<path d="M26.2698 19.8851C26.2698 19.8851 30.3258 15.151 37.4525 17.801C37.4525 17.801 30.6431 19.379 26.2698 19.8851Z" fill="#69893E"/>
<path d="M24.8503 24.2329L26.153 15.6802L27.6753 16.5796L25.5852 24.4698C25.3343 24.4092 25.0886 24.33 24.8503 24.2329Z" fill="#69893E"/>
<path d="M37.3237 34.2462C37.3237 40.3651 28.4076 45.2327 21.4121 45.2327C14.4166 45.2327 11 39.8936 11 33.7746C11 27.6557 16.6737 22.6938 23.6715 22.6938C30.6694 22.6938 37.3237 28.1273 37.3237 34.2462Z" fill="#E87F18"/>
<path d="M22.9296 25.3785C24.5711 23.3243 28.8705 23.9155 31.2183 25.6592C33.566 27.4029 33.2821 30.0506 31.6406 32.1002C29.9991 34.1498 26.7614 34.4005 24.4137 32.6592C22.0659 30.9178 21.2834 27.4351 22.9296 25.3785Z" fill="#E89B34"/>
<path d="M37.8964 44.8806C35.5936 44.8806 33.3425 44.2222 31.4278 42.9887C29.5131 41.7552 28.0207 40.002 27.1395 37.9508C26.2582 35.8996 26.0276 33.6425 26.4769 31.4649C26.9262 29.2873 28.0351 27.2871 29.6634 25.7171C31.2917 24.1472 33.3664 23.078 35.6249 22.6449C37.8835 22.2118 40.2245 22.4341 42.3521 23.2837C44.4796 24.1334 46.298 25.5722 47.5774 27.4182C48.8567 29.2643 49.5396 31.4347 49.5396 33.6549C49.5364 36.6312 48.3087 39.4847 46.1259 41.5893C43.9431 43.6939 40.9834 44.8776 37.8964 44.8806Z" fill="#FFB506"/>
<path d="M37.8963 23.0049C35.6945 23.0049 33.5421 23.6344 31.7113 24.8138C29.8806 25.9932 28.4537 27.6695 27.6111 29.6308C26.7685 31.5921 26.548 33.7502 26.9776 35.8323C27.4071 37.9144 28.4674 39.8269 30.0243 41.328C31.5813 42.8291 33.5649 43.8514 35.7244 44.2655C37.884 44.6797 40.1224 44.4671 42.1566 43.6547C44.1908 42.8423 45.9295 41.4666 47.1528 39.7015C48.376 37.9364 49.0289 35.8612 49.0289 33.7383C49.0258 30.8926 47.8519 28.1642 45.7648 26.152C43.6777 24.1397 40.8479 23.0079 37.8963 23.0049ZM29.2546 29.2526C29.2856 29.1675 30.1373 27.0581 31.4878 26.6716C31.5894 26.6439 31.6946 26.6299 31.8003 26.6302C31.9585 26.6306 32.1147 26.6634 32.2587 26.7264C32.4027 26.7895 32.5311 26.8814 32.6354 26.996L36.5697 32.3351C36.6127 32.3903 36.8322 32.6894 36.7368 32.8688C36.7134 32.9087 36.6782 32.9409 36.6357 32.9614C36.5932 32.9819 36.5453 32.9897 36.4982 32.9838C36.3337 32.972 36.1724 32.934 36.021 32.8711L29.579 30.8008C29.4758 30.7711 29.3805 30.7202 29.2997 30.6515C29.219 30.5827 29.1547 30.4979 29.1114 30.4028C28.9683 30.1245 29.016 29.7311 29.2546 29.2526ZM28.4815 35.6936C27.625 34.617 28.2238 32.4294 28.2429 32.3351C28.429 31.3805 28.9134 31.2355 29.1973 31.2355C29.2851 31.2359 29.3723 31.2507 29.455 31.2792L35.9303 33.2483C36.3264 33.3542 36.5125 33.4784 36.5149 33.6302C36.5149 33.8464 36.126 33.9752 36.0377 34.0006L29.6101 36.0916C29.5245 36.1084 29.4373 36.1169 29.35 36.1169C29.1811 36.1162 29.0147 36.0775 28.8639 36.0041C28.7132 35.9306 28.5823 35.8243 28.4815 35.6936ZM31.8003 40.8004C31.6945 40.801 31.5891 40.7863 31.4878 40.7567C30.1373 40.3725 29.2856 38.2631 29.2522 38.1734C29.0136 37.6949 28.9683 37.3016 29.1114 37.0232C29.1591 36.9321 29.2263 36.8518 29.3086 36.7876C29.3908 36.7233 29.4863 36.6766 29.5886 36.6506L36.0305 34.5687C36.1821 34.5066 36.3434 34.4693 36.5077 34.4583C36.5548 34.4524 36.6027 34.4602 36.6452 34.4807C36.6877 34.5012 36.7229 34.5334 36.7463 34.5733C36.8417 34.7528 36.6222 35.0518 36.5793 35.1093L32.6425 40.4369C32.5374 40.5529 32.408 40.646 32.2628 40.7102C32.1177 40.7745 31.96 40.8083 31.8003 40.8096V40.8004ZM37.641 42.2496C37.6457 42.3418 37.6314 42.4339 37.5991 42.5207C37.5667 42.6076 37.5169 42.6874 37.4525 42.7557C37.3356 42.8619 37.1968 42.943 37.045 42.9938C36.8933 43.0445 36.7321 43.0637 36.5721 43.0501C36.4572 43.0488 36.3425 43.0411 36.2286 43.0271C36.1355 43.0271 33.7902 42.9167 32.9837 41.8056C32.8637 41.6379 32.7955 41.4408 32.787 41.2372C32.7786 41.0336 32.8303 40.8319 32.936 40.6555L36.9348 35.3647C36.9753 35.3118 37.1734 35.038 37.3786 35.038C37.4059 35.0385 37.4328 35.0442 37.4578 35.0549C37.4828 35.0656 37.5054 35.0809 37.5241 35.1001C37.6172 35.1921 37.6529 35.3831 37.641 35.7028V42.2496ZM37.5241 32.3213C37.5052 32.3402 37.4826 32.3552 37.4576 32.3654C37.4326 32.3757 37.4057 32.381 37.3786 32.3811C37.1829 32.3811 36.9753 32.1097 36.9348 32.0545L32.9503 26.7798C32.8442 26.6037 32.7918 26.4022 32.7994 26.1987C32.807 25.9951 32.8742 25.7978 32.9933 25.6296C33.7997 24.5185 36.1451 24.4104 36.2453 24.4081C36.3568 24.3939 36.4692 24.3862 36.5817 24.3851C36.7417 24.3715 36.9028 24.3907 37.0546 24.4415C37.2063 24.4922 37.3452 24.5733 37.4621 24.6795C37.527 24.7488 37.5771 24.8298 37.6094 24.9179C37.6418 25.0059 37.6558 25.0993 37.6506 25.1925V31.7301C37.6529 32.0476 37.6172 32.2431 37.5241 32.3305V32.3213ZM44.0758 26.6164C44.1815 26.616 44.2867 26.6299 44.3884 26.6578C45.7388 27.0443 46.5905 29.1537 46.6263 29.2434C46.8649 29.7219 46.9079 30.1153 46.7647 30.3936C46.7176 30.4854 46.6507 30.5664 46.5684 30.631C46.486 30.6957 46.3903 30.7426 46.2875 30.7686L39.8456 32.8389C39.694 32.901 39.5327 32.9383 39.3684 32.9493C39.3213 32.9552 39.2734 32.9474 39.2309 32.9269C39.1884 32.9064 39.1532 32.8742 39.1298 32.8343C39.0368 32.6548 39.2539 32.3558 39.2992 32.2983L43.236 26.9983C43.3403 26.8821 43.4693 26.7887 43.6141 26.7244C43.7589 26.6602 43.9164 26.6265 44.0758 26.6256V26.6164ZM38.0657 31.852L38.2089 25.3167C38.2344 25.1124 38.3197 24.9192 38.4549 24.76C38.5901 24.6007 38.7696 24.4818 38.9723 24.4173C39.1595 24.3624 39.3542 24.3352 39.5497 24.3368C40.8143 24.3368 42.2673 25.3052 42.3293 25.3466C42.8065 25.6135 43.0689 25.9125 43.1191 26.23C43.1339 26.3296 43.1266 26.4311 43.0979 26.5279C43.0691 26.6246 43.0194 26.7144 42.952 26.7913L38.8364 31.9992C38.6336 32.2799 38.4713 32.411 38.3329 32.411C38.3055 32.4111 38.2784 32.4056 38.2533 32.3949C38.2282 32.3842 38.2058 32.3685 38.1874 32.3489C38.0915 32.2006 38.0488 32.026 38.0657 31.852ZM43.1191 41.2144C43.0689 41.5319 42.8017 41.8309 42.3222 42.1024C42.2673 42.1392 40.8143 43.1076 39.5497 43.1076C39.3542 43.1092 39.1595 43.082 38.9723 43.0271C38.7713 42.9638 38.593 42.8468 38.4583 42.6896C38.3235 42.5324 38.2379 42.3415 38.2112 42.1392L38.0657 35.5901C38.0491 35.4168 38.0918 35.2431 38.1874 35.0955C38.2058 35.0759 38.2282 35.0602 38.2533 35.0496C38.2784 35.0388 38.3055 35.0334 38.3329 35.0334C38.4713 35.0334 38.6336 35.1645 38.8387 35.4475L42.9568 40.6578C43.0229 40.7343 43.0716 40.8235 43.0995 40.9194C43.1275 41.0153 43.1341 41.1159 43.1191 41.2144ZM46.6239 38.1964C46.5905 38.2815 45.7388 40.3909 44.3907 40.7751C44.2886 40.8047 44.1825 40.8195 44.0758 40.8188C43.9181 40.818 43.7623 40.785 43.6188 40.7219C43.4753 40.6589 43.3472 40.5672 43.2431 40.453L39.3064 35.1139C39.2634 35.0587 39.0463 34.7597 39.1394 34.5802C39.1627 34.5403 39.1979 34.5081 39.2404 34.4876C39.2829 34.4671 39.3308 34.4593 39.378 34.4652C39.5424 34.477 39.7037 34.5151 39.8551 34.5779L46.2971 36.6483C46.396 36.6757 46.4879 36.7229 46.5668 36.7867C46.6457 36.8504 46.7099 36.9295 46.7552 37.0186C46.9079 37.3039 46.8625 37.7041 46.6239 38.1872V38.1964ZM46.5214 36.2917C46.4412 36.2905 46.3613 36.2821 46.2828 36.2664L39.8408 34.1823C39.7645 34.1593 39.3636 34.0282 39.3756 33.8119C39.3756 33.6578 39.5664 33.5359 39.9625 33.4324L46.4426 31.4587C46.5191 31.4319 46.5998 31.4179 46.6812 31.4173C46.9532 31.4173 47.4399 31.5622 47.6356 32.5237C47.6594 32.6111 48.2583 34.7988 47.397 35.8776C47.2931 36.0055 47.1601 36.1085 47.0083 36.1788C46.8564 36.249 46.6898 36.2845 46.5214 36.2825V36.2917Z" fill="#FFFFCF"/>
<path d="M37.8868 22.3809C31.4687 22.3809 26.1362 27.0046 26.1362 33.1925C26.1362 39.3804 30.8221 45.3199 37.245 45.3199C43.6679 45.3199 50.0024 40.0038 50.0024 33.8182C50.0024 27.6326 44.3073 22.3809 37.8868 22.3809ZM37.8868 44.4642C35.6851 44.4624 33.5334 43.8312 31.7037 42.6503C29.8741 41.4695 28.4487 39.7922 27.6077 37.8303C26.7668 35.8685 26.5481 33.7103 26.9793 31.6286C27.4105 29.547 28.4723 27.6353 30.0303 26.1354C31.5883 24.6355 33.5727 23.6147 35.7324 23.2021C37.8921 22.7895 40.1302 23.0035 42.1638 23.8173C44.1973 24.631 45.935 26.0078 47.1569 27.7736C48.3789 29.5394 49.0304 31.6149 49.029 33.7377C49.0258 36.5834 47.8519 39.3118 45.7648 41.324C43.6777 43.3362 40.8479 44.4681 37.8964 44.4711L37.8868 44.4642Z" fill="#F38E1C"/>
<path d="M37.4527 24.6698C37.3358 24.5636 37.1969 24.4824 37.0452 24.4317C36.8934 24.3809 36.7323 24.3617 36.5723 24.3753C36.4598 24.3764 36.3474 24.3841 36.2359 24.3983C36.1357 24.3983 33.7903 24.5088 32.9839 25.6198C32.8648 25.7881 32.7976 25.9854 32.79 26.1889C32.7824 26.3925 32.8347 26.5939 32.9409 26.77L36.9349 32.0608C36.9755 32.116 37.1735 32.3874 37.3787 32.3874C37.4059 32.3874 37.4328 32.3821 37.4578 32.3718C37.4828 32.3615 37.5054 32.3465 37.5243 32.3276C37.6173 32.2356 37.6531 32.0447 37.6412 31.7272V25.1828C37.6464 25.0895 37.6324 24.9962 37.6 24.9081C37.5677 24.8201 37.5176 24.7391 37.4527 24.6698Z" fill="#FFB506"/>
<path d="M43.119 26.2297C43.0689 25.9122 42.8017 25.6132 42.3293 25.3463C42.2672 25.3049 40.8142 24.3365 39.5497 24.3365C39.3541 24.3349 39.1594 24.3621 38.9723 24.417C38.7696 24.4815 38.5901 24.6004 38.4549 24.7597C38.3197 24.919 38.2343 25.1121 38.2088 25.3164L38.0656 31.8517C38.0487 32.0257 38.0914 32.2003 38.1873 32.3486C38.2057 32.3682 38.2282 32.3839 38.2532 32.3946C38.2783 32.4053 38.3054 32.4108 38.3329 32.4107C38.4712 32.4107 38.6335 32.2796 38.8363 31.999L42.952 26.791C43.0193 26.7141 43.069 26.6243 43.0978 26.5276C43.1266 26.4308 43.1338 26.3293 43.119 26.2297Z" fill="#FFB506"/>
<path d="M46.6264 29.2524C46.5906 29.1626 45.7388 27.0532 44.3884 26.6668C44.1835 26.6105 43.9663 26.6118 43.7621 26.6705C43.558 26.7291 43.3755 26.8428 43.236 26.998L39.3088 32.3279C39.2635 32.3854 39.0463 32.6845 39.1394 32.8639C39.1628 32.9038 39.198 32.9361 39.2405 32.9566C39.283 32.9771 39.3309 32.9848 39.378 32.9789C39.5423 32.9679 39.7036 32.9306 39.8552 32.8685L46.2971 30.7982C46.3998 30.7723 46.4956 30.7254 46.5779 30.6607C46.6603 30.596 46.7272 30.515 46.7743 30.4232C46.9079 30.1242 46.8626 29.7308 46.6264 29.2524Z" fill="#FFB506"/>
<path d="M36.5696 32.3299L32.6353 26.9908C32.531 26.8761 32.4026 26.7843 32.2586 26.7212C32.1146 26.6581 31.9583 26.6253 31.8002 26.625C31.6945 26.6247 31.5893 26.6387 31.4876 26.6664C30.1372 27.0529 29.2855 29.1623 29.2544 29.252C29.0158 29.7351 28.9681 30.1284 29.1113 30.416C29.1566 30.5054 29.2207 30.5847 29.2996 30.6489C29.3784 30.7131 29.4703 30.7607 29.5694 30.7886L36.0113 32.859C36.1628 32.9218 36.3241 32.9599 36.4885 32.9717C36.5356 32.9776 36.5835 32.9698 36.626 32.9493C36.6685 32.9288 36.7037 32.8966 36.7271 32.8566C36.8321 32.6841 36.6126 32.3851 36.5696 32.3299Z" fill="#FFB506"/>
<path d="M37.6408 42.2582V35.7068C37.6408 35.387 37.6169 35.1961 37.5239 35.1041C37.5051 35.0849 37.4826 35.0696 37.4576 35.0589C37.4326 35.0482 37.4056 35.0425 37.3783 35.042C37.1827 35.042 36.9751 35.3157 36.9345 35.3686L32.9358 40.6594C32.83 40.8359 32.7783 41.0376 32.7868 41.2412C32.7952 41.4448 32.8634 41.6419 32.9835 41.8096C33.7899 42.9207 36.1353 43.0288 36.2283 43.0311C36.3423 43.0451 36.457 43.0528 36.5719 43.0541C36.7319 43.0677 36.893 43.0485 37.0448 42.9977C37.1965 42.947 37.3354 42.8659 37.4523 42.7597C37.5811 42.6229 37.6489 42.4428 37.6408 42.2582Z" fill="#FFB506"/>
<path d="M42.9566 40.6483L38.8385 35.438C38.6334 35.155 38.4711 35.0239 38.3327 35.0239C38.3053 35.0239 38.2782 35.0294 38.2531 35.0401C38.228 35.0508 38.2056 35.0664 38.1872 35.086C38.0917 35.2336 38.0489 35.4074 38.0655 35.5806L38.2111 42.1297C38.2377 42.332 38.3233 42.5229 38.4581 42.6801C38.5928 42.8373 38.7711 42.9543 38.9722 43.0176C39.1593 43.0726 39.354 43.0997 39.5495 43.0982C40.8141 43.0982 42.2671 42.1297 42.322 42.0929C42.7991 41.8215 43.0688 41.5224 43.1189 41.205C43.1339 41.1064 43.1273 41.0059 43.0993 40.9099C43.0714 40.814 43.0227 40.7249 42.9566 40.6483Z" fill="#FFB506"/>
<path d="M46.7646 37.0206C46.7198 36.932 46.6564 36.8532 46.5784 36.7895C46.5003 36.7257 46.4094 36.6783 46.3113 36.6503L39.8693 34.58C39.7179 34.5171 39.5566 34.479 39.3922 34.4673C39.345 34.4613 39.2971 34.4691 39.2546 34.4896C39.2121 34.5101 39.1769 34.5424 39.1536 34.5823C39.0605 34.7617 39.2776 35.0607 39.3206 35.116L43.2573 40.4551C43.3615 40.5693 43.4895 40.6609 43.633 40.724C43.7765 40.787 43.9323 40.82 44.09 40.8208C44.1967 40.8215 44.3028 40.8068 44.4049 40.7771C45.753 40.393 46.6047 38.2835 46.6382 38.1984C46.8624 37.7039 46.9078 37.3036 46.7646 37.0206Z" fill="#FFB506"/>
<path d="M47.6306 32.5142C47.4445 31.5526 46.9578 31.4077 46.6762 31.4077C46.5949 31.4083 46.5142 31.4223 46.4377 31.4491L39.9575 33.4228C39.5615 33.5263 39.3754 33.6529 39.3706 33.8024C39.3706 34.0186 39.7595 34.1497 39.8359 34.1727L46.2778 36.2569C46.3563 36.2725 46.4362 36.281 46.5164 36.2822C46.6856 36.2831 46.8527 36.2461 47.0046 36.1743C47.1566 36.1024 47.2892 35.9976 47.392 35.8681C48.2533 34.7892 47.6545 32.6016 47.6306 32.5142Z" fill="#FFB506"/>
<path d="M36.7368 34.5706C36.7134 34.5307 36.6782 34.4984 36.6357 34.4779C36.5932 34.4574 36.5453 34.4496 36.4982 34.4555C36.3339 34.4665 36.1726 34.5038 36.021 34.566L29.5791 36.6478C29.4767 36.6739 29.3813 36.7206 29.2991 36.7848C29.2168 36.849 29.1496 36.9293 29.1019 37.0204C28.9587 37.3103 29.0065 37.7105 29.2427 38.1706C29.2761 38.2603 30.1278 40.3697 31.4783 40.7539C31.5796 40.7835 31.6849 40.7982 31.7908 40.7976C31.9505 40.7964 32.1082 40.7625 32.2533 40.6983C32.3985 40.634 32.5279 40.5409 32.633 40.4249L36.5602 35.095C36.6127 35.049 36.8322 34.75 36.7368 34.5706Z" fill="#FFB506"/>
<path d="M35.9256 33.2569L29.4503 31.2878C29.3676 31.2593 29.2804 31.2445 29.1926 31.2441C28.9206 31.2441 28.4363 31.3891 28.2382 32.3437C28.212 32.438 27.6131 34.6257 28.4768 35.7022C28.5793 35.8322 28.7118 35.9373 28.8638 36.0091C29.0158 36.081 29.1831 36.1177 29.3524 36.1163C29.439 36.1161 29.5253 36.1077 29.6101 36.091L36.0377 34.0207C36.1141 33.9954 36.5149 33.8665 36.5149 33.6503C36.5078 33.4847 36.3217 33.3628 35.9256 33.2569Z" fill="#FFB506"/>
</g>
<defs>
<linearGradient id="paint0_linear_430_728" x1="60" y1="60" x2="-19.9676" y2="53.812" gradientUnits="userSpaceOnUse">
<stop stop-color="#92A3FD"/>
<stop offset="1" stop-color="#9DCEFF"/>
</linearGradient>
<clipPath id="clip0_430_728">
<rect width="39" height="29.64" fill="white" transform="translate(11 15.6802)"/>
</clipPath>
</defs>
</svg>
