<svg width="20" height="20" viewBox="0 0 20 20" fill="none" xmlns="http://www.w3.org/2000/svg">
<path fill-rule="evenodd" clip-rule="evenodd" d="M12.5334 3.37625C13.3751 3.71125 13.6326 4.87792 13.9767 5.25292C14.3209 5.62792 14.8134 5.75542 15.0859 5.75542C16.5342 5.75542 17.7084 6.92958 17.7084 8.37708V13.2063C17.7084 15.1479 16.1334 16.7229 14.1917 16.7229H5.80841C3.86591 16.7229 2.29175 15.1479 2.29175 13.2063V8.37708C2.29175 6.92958 3.46591 5.75542 4.91425 5.75542C5.18591 5.75542 5.67842 5.62792 6.02342 5.25292C6.36758 4.87792 6.62425 3.71125 7.46592 3.37625C8.30842 3.04125 11.6917 3.04125 12.5334 3.37625Z" stroke="white" stroke-width="1.5" stroke-linecap="round" stroke-linejoin="round"/>
<path d="M14.5794 7.91667H14.5869" stroke="white" stroke-width="2" stroke-linecap="round" stroke-linejoin="round"/>
<path fill-rule="evenodd" clip-rule="evenodd" d="M12.6489 10.9402C12.6489 9.47685 11.4631 8.29102 9.99975 8.29102C8.53642 8.29102 7.35059 9.47685 7.35059 10.9402C7.35059 12.4035 8.53642 13.5893 9.99975 13.5893C11.4631 13.5893 12.6489 12.4035 12.6489 10.9402Z" stroke="white" stroke-width="1.5" stroke-linecap="round" stroke-linejoin="round"/>
</svg>
