<svg width="73" height="90" viewBox="0 0 73 90" fill="none" xmlns="http://www.w3.org/2000/svg">
<g opacity="0.3">
<path opacity="0.3" d="M18.2929 55.055H18.2485L16.5456 54.5601C16.4872 54.5419 16.4381 54.501 16.4089 54.4463C16.3796 54.3915 16.3726 54.3273 16.3892 54.2673C16.4058 54.2072 16.4448 54.1563 16.4978 54.1253C16.5509 54.0943 16.6137 54.0857 16.6728 54.1014L18.3638 54.5903C18.4175 54.6082 18.4629 54.6454 18.4918 54.6949C18.5207 54.7443 18.531 54.8028 18.5209 54.8595C18.5108 54.9162 18.481 54.9672 18.4369 55.0031C18.3928 55.0391 18.3374 55.0575 18.2811 55.055H18.2929Z" fill="black"/>
<path opacity="0.3" d="M16.5457 56.395C16.4975 56.3905 16.4518 56.371 16.4148 56.3392C16.3778 56.3074 16.3512 56.2647 16.3387 56.217C16.3294 56.1857 16.3265 56.1527 16.3302 56.1202C16.3338 56.0877 16.3441 56.0563 16.3601 56.028C16.3762 55.9997 16.3978 55.9751 16.4237 55.9557C16.4495 55.9363 16.4789 55.9225 16.5102 55.9152L18.2131 55.4746C18.2722 55.4616 18.3339 55.4725 18.3853 55.5049C18.4367 55.5374 18.4738 55.589 18.4887 55.6488C18.5036 55.7085 18.4953 55.7719 18.4654 55.8255C18.4355 55.8792 18.3864 55.9189 18.3284 55.9363L16.6225 56.3769C16.5981 56.3874 16.5721 56.3935 16.5457 56.395Z" fill="black"/>
<path opacity="0.3" d="M17.4149 58.0001C17.3588 57.9945 17.3064 57.9688 17.2671 57.9277C17.2239 57.8831 17.1997 57.8229 17.1997 57.7602C17.1997 57.6975 17.2239 57.6373 17.2671 57.5927L18.5265 56.3404C18.5479 56.3163 18.574 56.2969 18.603 56.2835C18.632 56.27 18.6635 56.2628 18.6954 56.2622C18.7272 56.2617 18.7589 56.2678 18.7884 56.2802C18.8179 56.2926 18.8445 56.311 18.8668 56.3343C18.889 56.3576 18.9063 56.3854 18.9177 56.4158C18.929 56.4462 18.9342 56.4787 18.9327 56.5112C18.9313 56.5437 18.9234 56.5756 18.9095 56.6048C18.8955 56.6341 18.8759 56.6601 18.8517 56.6814L17.5982 57.9397C17.5734 57.9622 17.5443 57.9792 17.5127 57.9896C17.4812 58 17.4479 58.0035 17.4149 58.0001Z" fill="black"/>
<path opacity="0.3" d="M18.9432 58.951H18.8989C18.8687 58.9424 18.8405 58.9276 18.816 58.9077C18.7915 58.8877 18.7712 58.8629 18.7563 58.8347C18.7414 58.8065 18.7322 58.7756 18.7293 58.7437C18.7264 58.7119 18.7297 58.6797 18.7392 58.6492L19.2064 56.9231C19.2242 56.8635 19.2643 56.8133 19.3179 56.7835C19.3715 56.7536 19.4345 56.7464 19.4933 56.7634C19.5521 56.7804 19.602 56.8202 19.6324 56.8743C19.6627 56.9284 19.6711 56.9925 19.6557 57.0529L19.1768 58.779C19.1623 58.8302 19.1314 58.8749 19.0891 58.9061C19.0467 58.9373 18.9954 58.9531 18.9432 58.951Z" fill="black"/>
</g>
<path d="M65.1288 32.1535L60.8922 34.6431L51.615 36.0131C51.615 36.0131 44.8418 25.6262 43.8041 23.9936C42.7664 22.361 41.5513 21.3139 38.7397 21.3169L39.2719 29.6035C39.3606 29.8721 44.9689 36.9245 48.6674 40.769C49.9741 42.124 50.7753 42.471 52.8064 41.8916C58.0186 40.416 64.3365 36.0433 64.845 34.9509C65.5279 33.5235 65.0785 32.1837 65.1288 32.1535Z" fill="#FFEDE5"/>
<path d="M63.3872 26.9C63.943 25.0472 66.2135 23.5383 68.3215 24.1418C68.6553 24.236 68.9754 24.375 69.2734 24.5553C71.3429 25.7624 72.9896 28.7046 72.9896 31.1248C72.9964 31.5335 72.9405 31.9408 72.8241 32.3319C72.2712 34.1818 70.0066 35.7027 67.8898 35.0961C67.5564 35.0006 67.2365 34.8616 66.9378 34.6827C64.8861 33.4756 63.2216 30.5303 63.2216 28.1101C63.2157 27.7005 63.2715 27.2923 63.3872 26.9Z" fill="#455A64"/>
<path d="M66.9408 34.6647C64.8891 33.4576 63.2246 30.5124 63.2246 28.0922C63.2246 25.672 64.8891 24.6942 66.9408 25.9013C68.9926 27.1084 70.6482 30.0507 70.6482 32.4709C70.6482 34.8911 68.9926 35.8718 66.9408 34.6647Z" fill="#37474F"/>
<path d="M66.9409 28.5837C66.1516 28.119 65.51 28.4962 65.51 29.4257C65.5369 29.9323 65.6804 30.4254 65.9291 30.8648C66.1777 31.3042 66.5244 31.6776 66.9409 31.9545C67.7303 32.4192 68.3689 32.042 68.3689 31.1126C68.3426 30.6061 68.1996 30.1131 67.9514 29.6737C67.7033 29.2343 67.3571 28.8608 66.9409 28.5837Z" fill="#455A64"/>
<path d="M66.4502 29.9811C66.4597 30.1547 66.5091 30.3235 66.5943 30.4739C66.6796 30.6244 66.7983 30.7523 66.941 30.8472C66.9878 30.8816 67.0423 30.9038 67.0995 30.9117C67.1567 30.9196 67.215 30.913 67.2691 30.8925L67.3046 30.8713C67.3469 30.8344 67.3801 30.7878 67.4017 30.7354C67.4232 30.6831 67.4325 30.6263 67.4288 30.5696C67.4194 30.3963 67.3704 30.2278 67.2857 30.0774C67.201 29.927 67.0829 29.7989 66.941 29.7035C66.8941 29.669 66.8397 29.6469 66.7824 29.639C66.7252 29.6311 66.6669 29.6377 66.6128 29.6582L66.5773 29.6793C66.5343 29.7159 66.5004 29.7622 66.4783 29.8147C66.4562 29.8671 66.4466 29.9241 66.4502 29.9811Z" fill="#37474F"/>
<path d="M58.6007 34.6072C58.6099 34.7805 58.6588 34.9492 58.7435 35.0996C58.8283 35.2501 58.9465 35.3781 59.0886 35.4733C59.1521 35.5152 59.2258 35.5382 59.3014 35.5397C59.3588 35.5386 59.4149 35.5219 59.464 35.4914L67.269 30.8925L67.3045 30.8713C67.3467 30.8344 67.38 30.7878 67.4015 30.7354C67.4231 30.6831 67.4324 30.6263 67.4286 30.5696C67.4192 30.3963 67.3702 30.2278 67.2855 30.0774C67.2008 29.927 67.0828 29.7989 66.9408 29.7035C66.894 29.669 66.8395 29.6469 66.7823 29.639C66.725 29.6311 66.6668 29.6377 66.6127 29.6582L66.5772 29.6793L58.7722 34.2783C58.7162 34.3111 58.6704 34.3594 58.64 34.4176C58.6097 34.4758 58.5961 34.5415 58.6007 34.6072Z" fill="#FAFAFA"/>
<path d="M50.9408 34.2363C51.4936 32.3864 53.7582 30.8564 55.875 31.463C56.2092 31.559 56.5301 31.6979 56.83 31.8764C58.8817 33.0835 60.5462 36.0288 60.5462 38.449C60.5512 38.8576 60.4954 39.2646 60.3806 39.6561C59.8248 41.5059 57.5632 43.0269 55.4464 42.4233C55.1131 42.3273 54.7932 42.1883 54.4944 42.0099C52.4426 40.8028 50.7782 37.8575 50.7782 35.4403C50.7713 35.0328 50.8262 34.6267 50.9408 34.2363Z" fill="#455A64"/>
<path d="M54.4914 41.9976C52.4396 40.7905 50.7751 37.8452 50.7751 35.428C50.7751 33.0108 52.4396 32.0271 54.4914 33.2341C56.5431 34.4412 58.2076 37.3865 58.2076 39.8067C58.2076 42.2269 56.5461 43.2077 54.4914 41.9976Z" fill="#37474F"/>
<path d="M54.4914 35.9108C53.7021 35.443 53.0635 35.8203 53.0635 36.7527C53.0902 37.2587 53.2335 37.7511 53.4816 38.1899C53.7297 38.6288 54.0757 39.0017 54.4914 39.2785C55.2808 39.7433 55.9223 39.3661 55.9223 38.4366C55.895 37.9304 55.7512 37.438 55.5026 36.9991C55.254 36.5603 54.9076 36.1874 54.4914 35.9108Z" fill="#455A64"/>
<path d="M54.0034 37.3143C54.0126 37.4876 54.0615 37.6563 54.1462 37.8067C54.231 37.9571 54.3491 38.0852 54.4912 38.1804C54.5381 38.2149 54.5925 38.237 54.6498 38.2449C54.707 38.2528 54.7653 38.2462 54.8194 38.2257C54.8325 38.2211 54.8446 38.2139 54.8549 38.2046C54.8977 38.1679 54.9315 38.1215 54.9536 38.0691C54.9756 38.0167 54.9854 37.9597 54.982 37.9028C54.9723 37.7293 54.9228 37.5606 54.8376 37.4101C54.7524 37.2597 54.6337 37.1318 54.4912 37.0367C54.4445 37.0032 54.3904 36.9819 54.3338 36.9746C54.2771 36.9672 54.2195 36.974 54.166 36.9945L54.1306 37.0156C54.0876 37.0515 54.0537 37.0973 54.0316 37.1492C54.0095 37.2012 53.9998 37.2578 54.0034 37.3143Z" fill="#37474F"/>
<path d="M52.821 38.0231C52.8294 38.1966 52.878 38.3655 52.9628 38.5161C53.0476 38.6666 53.1662 38.7945 53.3088 38.8892C53.3723 38.9311 53.446 38.954 53.5216 38.9556C53.579 38.9542 53.6351 38.9375 53.6842 38.9073L54.8195 38.2374C54.8326 38.2328 54.8447 38.2257 54.855 38.2163C54.8978 38.1796 54.9316 38.1332 54.9537 38.0808C54.9757 38.0284 54.9855 37.9714 54.9821 37.9145C54.9724 37.741 54.9229 37.5723 54.8377 37.4219C54.7525 37.2714 54.6338 37.1435 54.4913 37.0484C54.4446 37.015 54.3905 36.9936 54.3339 36.9863C54.2772 36.9789 54.2196 36.9857 54.1661 37.0062L54.1307 37.0273L52.9924 37.6942C52.9364 37.727 52.8906 37.7753 52.8603 37.8335C52.8299 37.8916 52.8163 37.9574 52.821 38.0231Z" fill="#FAFAFA"/>
<path d="M52.821 38.0234C52.8297 38.1972 52.8784 38.3665 52.9631 38.5175C53.0479 38.6685 53.1663 38.797 53.3088 38.8925C53.3561 38.926 53.4107 38.9473 53.4678 38.9547C53.5249 38.962 53.583 38.9552 53.6369 38.9348L53.6724 38.9136C53.7156 38.8773 53.7497 38.8309 53.7718 38.7785C53.7939 38.726 53.8034 38.6689 53.7995 38.6119C53.7896 38.438 53.7401 38.2689 53.6549 38.1181C53.5697 37.9672 53.4512 37.8387 53.3088 37.7428C53.2615 37.7093 53.2069 37.688 53.1498 37.6806C53.0926 37.6732 53.0346 37.6801 52.9806 37.7005L52.9451 37.7216C52.9027 37.7585 52.8693 37.805 52.8477 37.8574C52.8262 37.9098 52.817 37.9667 52.821 38.0234Z" fill="#E0E0E0"/>
<path d="M62.4205 37.0753C64.2151 35.6781 65.9357 35.6872 65.6253 32.2712C65.3622 30.7623 64.9956 30.6537 63.5558 30.0803C62.9231 29.8298 62.0776 29.6397 61.572 30.2312C61.5165 30.3055 61.4552 30.3751 61.3887 30.4394C61.2396 30.5364 61.0686 30.5925 60.8921 30.6024C60.555 30.6192 60.2345 30.757 59.9874 30.9916C59.8189 31.1878 59.7538 31.4564 59.5883 31.6525C59.4292 31.8063 59.2582 31.9465 59.0768 32.072C58.9469 32.187 58.8421 32.3287 58.7692 32.4878C58.6964 32.6469 58.6572 32.8198 58.6541 32.9954C58.666 33.1961 58.7209 33.3918 58.8149 33.5685C58.9088 33.7452 59.0396 33.8988 59.198 34.0184L60.1027 33.4873C60.4723 33.2278 61.235 34.1542 60.9068 34.6431C60.3836 35.4216 62.4205 37.0753 62.4205 37.0753Z" fill="#FFEDE5"/>
<path d="M41.5187 43.9436C42.0922 41.5777 42.2578 35.666 42.2578 35.666L25.4712 36.179L26.3847 39.9119C26.5354 40.7534 26.6156 41.6065 26.6242 42.4619C26.6242 42.4619 28.2532 45.543 33.084 46.0831C36.0523 46.3719 39.0281 45.6171 41.5187 43.9436Z" fill="#FFEDE5"/>
<path d="M42.2665 35.6662C42.2872 35.8533 42.169 37.6428 42.169 37.6428C40.0226 39.4867 33.1371 40.4191 25.9086 37.9657L24.3772 31.9303C24.3772 31.9303 29.5746 29.6007 26.0624 21.7848L29.8377 21.483L36.5399 21.311H38.7395C40.5481 23.1046 42.0766 25.1706 43.2717 27.437C44.1498 29.1088 45.2673 31.5592 42.2665 35.6662Z" fill="#455A64"/>
<path d="M32.7676 35.7207C29.7432 34.9331 28.9863 33.0047 28.7705 31.5864C28.7705 31.5864 28.1999 35.7207 32.5222 36.6833C37.081 37.6973 38.9554 34.0127 38.9554 34.0127C38.9554 34.0127 36.4158 36.6713 32.7676 35.7207Z" fill="#37474F"/>
<path d="M7.02309 81.7256C6.13616 82.3865 4.09327 82.5464 2.29281 81.6833C0.492348 80.8203 -0.258584 78.3639 0.0784485 76.4657C0.486435 74.1512 1.60692 72.8867 1.89074 71.4926C2.17455 70.0984 1.89074 68.1731 2.32237 66.9298C2.5003 66.4519 2.77736 66.0189 3.13457 65.6606C3.49178 65.3022 3.92068 65.0269 4.39187 64.8536C4.69228 64.7351 5.01529 64.6885 5.33611 64.7172C5.65693 64.746 5.96702 64.8494 6.24259 65.0196L6.77475 65.3395L7.02309 81.7256Z" fill="#263238"/>
<path d="M9.13682 72.8985L7.73548 77.1897C7.73548 77.1897 8.62241 80.2496 8.12277 81.0644C7.38662 82.2715 6.08875 82.4827 3.90395 81.8007C1.40578 81.0252 0.81745 78.7166 0.947532 76.9241C1.12492 74.3681 3.4398 72.4458 3.17372 69.9834C3.04364 68.7763 3.20624 67.4274 3.8537 66.3893C4.57802 65.2305 5.7665 65.0132 6.99933 65.3904C8.05773 65.7163 8.98605 66.3953 9.88184 67.0321C10.139 67.1992 10.3719 67.4023 10.5736 67.6356C10.7341 67.8541 10.8543 68.1005 10.9284 68.3629C11.0905 68.8903 11.1389 69.4472 11.0703 69.9955C11.0053 70.5085 10.683 70.8072 10.3844 71.2025L9.13682 72.8985Z" fill="url(#paint0_linear_326_5010)"/>
<path d="M15.177 70.868C15.0912 70.8348 10.8103 68.0404 10.3491 67.8291C9.88791 67.6179 8.75265 67.3191 7.65582 69.9114C6.87236 71.7552 7.99876 72.4372 7.99876 72.4372L13.0247 75.4851L15.177 70.868Z" fill="#FFEDE5"/>
<path d="M7.73567 77.1899C6.82987 76.7278 5.82708 76.4988 4.81472 76.523C4.73955 76.5302 4.66381 76.5184 4.59413 76.4887C4.52446 76.459 4.46299 76.4124 4.41512 76.3528C4.36724 76.2932 4.33444 76.2225 4.31957 76.147C4.30471 76.0714 4.30824 75.9933 4.32987 75.9194C4.35832 75.8315 4.41172 75.7541 4.4833 75.6972C4.55489 75.6402 4.64142 75.6063 4.73194 75.5996C5.40896 75.5453 7.05273 75.5241 8.14365 76.4415C8.43338 77.039 7.73567 77.1899 7.73567 77.1899Z" fill="url(#paint1_linear_326_5010)"/>
<path d="M8.25007 75.2282C7.36923 74.719 6.37946 74.4382 5.36756 74.4104C5.29135 74.4143 5.2154 74.3987 5.14652 74.3653C5.07763 74.3318 5.01795 74.2814 4.97283 74.2186C4.92771 74.1558 4.89856 74.0826 4.88799 74.0054C4.87742 73.9283 4.88576 73.8497 4.91227 73.7767C4.94487 73.69 5.00183 73.6152 5.076 73.5615C5.15017 73.5078 5.23823 73.4777 5.32912 73.4749C6.0091 73.4568 7.65287 73.5262 8.69649 74.4979C8.9537 75.1165 8.25007 75.2282 8.25007 75.2282Z" fill="url(#paint2_linear_326_5010)"/>
<path opacity="0.3" d="M7.73567 77.1899C6.82987 76.7278 5.82708 76.4988 4.81472 76.523C4.73955 76.5302 4.66381 76.5184 4.59413 76.4887C4.52446 76.459 4.46299 76.4124 4.41512 76.3528C4.36724 76.2932 4.33444 76.2225 4.31957 76.147C4.30471 76.0714 4.30824 75.9933 4.32987 75.9194C4.35832 75.8315 4.41172 75.7541 4.4833 75.6972C4.55489 75.6402 4.64142 75.6063 4.73194 75.5996C5.40896 75.5453 7.05273 75.5241 8.14365 76.4415C8.43338 77.039 7.73567 77.1899 7.73567 77.1899Z" fill="black"/>
<path opacity="0.3" d="M8.25007 75.2282C7.36923 74.719 6.37946 74.4382 5.36756 74.4104C5.29135 74.4143 5.2154 74.3987 5.14652 74.3653C5.07763 74.3318 5.01795 74.2814 4.97283 74.2186C4.92771 74.1558 4.89856 74.0826 4.88799 74.0054C4.87742 73.9283 4.88576 73.8497 4.91227 73.7767C4.94487 73.69 5.00183 73.6152 5.076 73.5615C5.15017 73.5078 5.23823 73.4777 5.32912 73.4749C6.0091 73.4568 7.65287 73.5262 8.69649 74.4979C8.9537 75.1165 8.25007 75.2282 8.25007 75.2282Z" fill="black"/>
<path d="M51.8778 82.1901L57.4389 79.9389C57.3443 78.4753 56.9895 76.5258 57.359 72.6964L51.05 71.4712V77.917L51.8778 82.1901Z" fill="#FFEDE5"/>
<path d="M67.7451 87.1756C67.8929 87.6326 67.8654 88.1297 67.6682 88.5668C67.479 88.9742 65.3948 90.1722 62.5832 89.9791C60.4983 89.83 58.4904 89.1141 56.7679 87.9059C55.6977 87.1817 54.5802 87.0459 53.1906 86.9644C51.8011 86.8829 49.9681 86.1737 49.6636 85.5098C49.3591 84.8459 49.7109 83.6992 49.7109 83.6992L67.7451 87.1756Z" fill="#263238"/>
<path d="M56.4013 78.2189L56.623 78.1706C56.7435 78.1376 56.8695 78.1314 56.9926 78.1525C57.1291 78.1955 57.2504 78.2784 57.3414 78.3909C57.6166 78.749 57.8563 79.1341 58.0569 79.5406C58.6482 80.5214 59.8839 81.3362 61.235 82.0755C62.1545 82.5795 63.0532 82.9808 64.0022 83.4063C64.9513 83.8318 66.2521 84.1215 67.0089 84.6436C68.1117 85.401 68.2565 87.3082 67.0089 88.0596C65.9269 88.7114 63.0739 89.4146 60.082 88.5485C58.4501 88.0777 56.6408 86.3003 54.5033 86.1343C53.1433 86.0257 50.5683 85.6364 49.6932 84.5832C49.3709 84.1155 49.8025 82.6307 50.1573 81.3512C50.5446 79.954 50.6865 77.4916 51.1418 77.6153C51.1418 77.6153 51.0176 77.9624 51.195 78.1495C51.3724 78.3366 51.9962 78.7108 52.1795 78.8677C52.4861 79.1868 52.7335 79.56 52.9097 79.9691C52.983 80.1539 53.1196 80.3051 53.2941 80.3946C53.5247 80.4821 53.6962 80.3343 53.8854 80.2407C54.1412 80.1239 54.4293 80.1036 54.6984 80.1834C54.6724 79.9062 54.624 79.6316 54.5535 79.3626C54.5233 79.2776 54.5161 79.1858 54.5328 79.097C54.57 79.0142 54.6308 78.9448 54.7073 78.8979C55.2192 78.5532 55.7963 78.3219 56.4013 78.2189Z" fill="url(#paint3_linear_326_5010)"/>
<path d="M59.9638 81.3211C59.9638 81.3211 59.7687 80.7869 58.9616 80.6361C58.3408 80.5184 57.2469 80.9831 56.5669 81.5414C56.503 81.5953 56.4528 81.6643 56.4208 81.7424C56.3887 81.8205 56.3758 81.9054 56.3831 81.9897C56.3903 82.0741 56.4176 82.1553 56.4625 82.2265C56.5074 82.2977 56.5686 82.3567 56.6408 82.3984C56.7336 82.4525 56.8408 82.4753 56.9471 82.4634C57.0533 82.4514 57.1531 82.4054 57.2321 82.332C57.9806 81.6476 58.9595 81.2853 59.9638 81.3211Z" fill="url(#paint4_linear_326_5010)"/>
<path d="M61.8825 82.4166C61.7486 82.2238 61.5713 82.0664 61.3656 81.9578C61.1598 81.8491 60.9316 81.7922 60.7 81.792C60.7 81.792 59.0828 81.8403 58.0806 82.7909C58.0195 82.8433 57.9717 82.9099 57.9413 82.9851C57.9108 83.0604 57.8985 83.142 57.9055 83.2231C57.9124 83.3042 57.9384 83.3824 57.9812 83.4511C58.0241 83.5198 58.0825 83.5769 58.1515 83.6177C58.2393 83.6675 58.3402 83.6879 58.4399 83.676C58.5397 83.6641 58.6332 83.6205 58.7073 83.5513C59.1201 83.1323 59.6195 82.8128 60.1689 82.6165C60.7183 82.4202 61.3039 82.3519 61.8825 82.4166Z" fill="url(#paint5_linear_326_5010)"/>
<path d="M64.0021 83.4062C63.8478 83.2272 63.6576 83.0841 63.4444 82.9868C63.2311 82.8894 62.9999 82.84 62.7663 82.8418C62.7663 82.8418 61.2585 82.8992 60.2593 83.8498C60.1975 83.9016 60.1489 83.9679 60.1178 84.0431C60.0867 84.1183 60.0739 84.2001 60.0806 84.2814C60.0873 84.3628 60.1132 84.4412 60.1562 84.5101C60.1992 84.5789 60.2579 84.6361 60.3273 84.6766C60.4156 84.7262 60.5169 84.7465 60.6171 84.7346C60.7172 84.7227 60.8112 84.6792 60.886 84.6102C61.2778 84.1758 61.7635 83.8408 62.3045 83.6318C62.8454 83.4227 63.4267 83.3455 64.0021 83.4062Z" fill="url(#paint6_linear_326_5010)"/>
<path opacity="0.3" d="M59.9638 81.3211C59.9638 81.3211 59.7687 80.7869 58.9616 80.6361C58.3408 80.5184 57.2469 80.9831 56.5669 81.5414C56.503 81.5953 56.4528 81.6643 56.4208 81.7424C56.3887 81.8205 56.3758 81.9054 56.3831 81.9897C56.3903 82.0741 56.4176 82.1553 56.4625 82.2265C56.5074 82.2977 56.5686 82.3567 56.6408 82.3984C56.7336 82.4525 56.8408 82.4753 56.9471 82.4634C57.0533 82.4514 57.1531 82.4054 57.2321 82.332C57.9806 81.6476 58.9595 81.2853 59.9638 81.3211Z" fill="black"/>
<path opacity="0.3" d="M61.8825 82.4166C61.7486 82.2238 61.5713 82.0664 61.3656 81.9578C61.1598 81.8491 60.9316 81.7922 60.7 81.792C60.7 81.792 59.0828 81.8403 58.0806 82.7909C58.0195 82.8433 57.9717 82.9099 57.9413 82.9851C57.9108 83.0604 57.8985 83.142 57.9055 83.2231C57.9124 83.3042 57.9384 83.3824 57.9812 83.4511C58.0241 83.5198 58.0825 83.5769 58.1515 83.6177C58.2393 83.6675 58.3402 83.6879 58.4399 83.676C58.5397 83.6641 58.6332 83.6205 58.7073 83.5513C59.1201 83.1323 59.6195 82.8128 60.1689 82.6165C60.7183 82.4202 61.3039 82.3519 61.8825 82.4166Z" fill="black"/>
<path opacity="0.3" d="M64.0021 83.4062C63.8478 83.2272 63.6576 83.0841 63.4444 82.9868C63.2311 82.8894 62.9999 82.84 62.7663 82.8418C62.7663 82.8418 61.2585 82.8992 60.2593 83.8498C60.1975 83.9016 60.1489 83.9679 60.1178 84.0431C60.0867 84.1183 60.0739 84.2001 60.0806 84.2814C60.0873 84.3628 60.1132 84.4412 60.1562 84.5101C60.1992 84.5789 60.2579 84.6361 60.3273 84.6766C60.4156 84.7262 60.5169 84.7465 60.6171 84.7346C60.7172 84.7227 60.8112 84.6792 60.886 84.6102C61.2778 84.1758 61.7635 83.8408 62.3045 83.6318C62.8454 83.4227 63.4267 83.3455 64.0021 83.4062Z" fill="black"/>
<path d="M55.6799 49.8191C51.4522 48.8504 41.356 46.6958 41.356 46.6958L41.5186 43.9436C37.8674 45.8749 30.1719 45.3287 26.6242 42.4619L26.0654 45.38C24.7203 47.0238 23.5554 48.8129 22.5916 50.7153C21.7815 52.3539 20.4275 54.9099 21.7756 60.8639C22.568 64.3614 23.6234 73.5684 23.6234 73.5684L13.2759 69.6756C13.2759 69.6756 12.389 69.8295 11.6381 71.8091C11.1946 72.9799 11.0468 74.1055 11.4962 74.688C15.2804 77.7389 21.412 82.7211 27.6087 85.5155C31.7477 87.133 33.9472 83.5811 34.1483 82.2654C34.9258 77.2258 35.8216 61.0329 35.8216 61.0329L49.6577 60.5832C49.1994 63.2569 51.062 73.7042 51.062 73.7042C51.062 73.7042 54.4678 75.213 57.2882 73.668C57.2882 73.668 59.1744 61.6455 59.3577 57.6349C59.5439 53.1627 59.7686 50.7576 55.6799 49.8191Z" fill="url(#paint7_linear_326_5010)"/>
<path opacity="0.15" d="M49.6577 60.5834C49.6577 59.8622 50.1277 57.3424 51.7272 55.9995C51.7272 55.9995 49.5335 56.4009 48.5283 60.6196L49.6577 60.5834Z" fill="black"/>
<path opacity="0.15" d="M23.6233 73.5686C23.6233 73.5686 23.919 77.5429 24.664 79.4803C24.664 79.4803 22.7985 76.0401 22.5945 73.1763L23.6233 73.5686Z" fill="black"/>
<path opacity="0.15" d="M41.3531 46.6961L41.5157 43.947C37.8645 45.8753 30.1719 45.3291 26.6271 42.4653L26.0684 45.3804C26.0979 45.4076 28.3744 47.8097 34.2931 48.1205C40.2119 48.4313 41.3531 46.6961 41.3531 46.6961Z" fill="black"/>
<path opacity="0.15" d="M35.8335 61.0333C35.7845 59.5396 35.4384 58.0716 34.8164 56.7187C34.1943 55.3657 33.3092 54.156 32.2148 53.1631C32.2148 53.1631 35.396 54.6719 36.4603 59.449C36.4603 59.449 38.8254 58.3234 40.0612 54.9496C40.0612 54.9496 39.6828 58.3234 37.7788 60.2426L43.5173 60.7828L35.8335 61.0333Z" fill="black"/>
<path d="M33.9887 1.20688e-05C32.7741 -0.00197107 31.571 0.240466 30.4482 0.713459C29.3254 1.18645 28.305 1.88072 27.4453 2.75657C26.5856 3.63241 25.9035 4.67265 25.4379 5.81779C24.9724 6.96293 24.7326 8.19052 24.7322 9.43034C24.7322 10.6704 24.9717 11.8983 25.4371 13.0438C25.9024 14.1893 26.5845 15.2299 27.4443 16.1061C28.304 16.9822 29.3246 17.6768 30.4475 18.1499C31.5705 18.6231 32.7738 18.8657 33.9887 18.8637C36.437 18.8597 38.7836 17.864 40.5131 16.0952C42.2426 14.3265 43.2136 11.9293 43.2128 9.43034C43.2128 6.93187 42.2414 4.53551 40.512 2.76742C38.7826 0.999323 36.4365 0.00400961 33.9887 1.20688e-05Z" fill="#263238"/>
<path d="M24.3358 5.73377C24.67 5.71816 25.0048 5.73737 25.3351 5.79111C25.447 5.79862 25.5523 5.84805 25.6307 5.92992C25.6762 5.99763 25.7019 6.0772 25.7046 6.15926C25.7809 6.68318 25.7333 7.21813 25.5657 7.71942C25.4356 8.06947 25.0306 8.24752 24.7734 8.501C23.7741 9.49081 23.6943 11.1294 24.0875 12.4904C24.4807 13.8514 25.27 15.0645 25.7815 16.3802C26.293 17.6959 26.565 19.2802 25.8406 20.605C25.5598 21.112 25.0483 21.5103 25.1104 22.1139C25.1814 22.8532 25.814 23.5593 26.086 24.2263C26.3846 25.0163 26.4862 25.8698 26.3817 26.7098C26.3068 27.7543 25.9268 28.7519 25.2907 29.5736C24.8045 30.152 24.1768 30.5885 23.4716 30.8387C22.7664 31.0889 22.0087 31.1439 21.2759 30.998C20.9669 30.9429 20.6746 30.8159 20.4215 30.6268C19.9869 30.2707 19.8125 29.6883 19.576 29.1723C18.8162 27.5035 17.2108 26.2904 16.723 24.519C16.1938 22.6329 17.0748 20.6714 18.1569 19.069C18.6624 18.3206 19.2271 17.5873 19.4755 16.7122C19.8095 15.5323 19.5168 14.2769 19.44 13.0487C19.3666 11.849 19.5018 10.6455 19.8391 9.49383C20.0815 8.66094 20.457 7.70131 21.0926 7.10381C21.9847 6.27599 23.1315 5.7915 24.3358 5.73377Z" fill="#263238"/>
<path d="M39.7655 4.31543C40.7766 4.93406 42.0212 7.54437 41.8764 13.0064C41.7522 17.6356 40.277 18.7733 39.5379 19.1022C38.7987 19.4311 37.3737 19.2199 35.9901 18.9785V21.7578C35.9901 21.7578 37.8941 24.0331 37.764 25.3096C37.6339 26.5861 34.9968 26.8728 33.2111 25.6114C31.4254 24.35 29.9265 21.9268 29.9265 21.9268L29.9856 15.5353C29.9856 15.5353 29.1608 16.35 27.7802 15.1128C26.6478 14.0898 26.2694 12.3727 27.1623 11.4674C28.0551 10.5621 29.6959 10.8065 30.3227 12.1222C30.3227 12.1222 32.5282 12.2128 35.4757 10.5772C36.6224 9.95078 37.6083 9.05742 38.3536 7.96951C39.0989 6.8816 39.5826 5.62975 39.7655 4.31543Z" fill="#FFEDE5"/>
<path d="M36.815 11.8235C36.8155 11.9379 36.783 12.05 36.7215 12.1456C36.6601 12.2413 36.5723 12.3163 36.4693 12.3614C36.3663 12.4065 36.2526 12.4197 36.1423 12.3992C36.032 12.3787 35.9301 12.3256 35.8493 12.2463C35.7684 12.1671 35.7122 12.0653 35.6877 11.9537C35.6631 11.8421 35.6713 11.7255 35.7113 11.6186C35.7512 11.5117 35.8211 11.4192 35.9123 11.3526C36.0034 11.286 36.1117 11.2483 36.2237 11.2441C36.3765 11.244 36.5234 11.3043 36.6337 11.4123C36.7439 11.5203 36.8089 11.6677 36.815 11.8235Z" fill="#263238"/>
<g style="mix-blend-mode:multiply" opacity="0.5">
<g style="mix-blend-mode:multiply" opacity="0.5">
<path d="M36.9449 15.7495L38.2665 16.1841C38.2424 16.2746 38.2007 16.3593 38.1438 16.433C38.087 16.5067 38.0161 16.5679 37.9355 16.613C37.8549 16.6581 37.7662 16.6861 37.6747 16.6954C37.5833 16.7046 37.4909 16.6949 37.4032 16.6669C37.225 16.6048 37.0774 16.4743 36.9919 16.303C36.9063 16.1318 36.8895 15.9332 36.9449 15.7495Z" fill="#F28F8F"/>
</g>
</g>
<path d="M41.5009 10.0551L40.3508 9.23431C40.399 9.15482 40.4626 9.08623 40.5377 9.03277C40.6128 8.97931 40.6979 8.94211 40.7876 8.92345C40.8773 8.9048 40.9699 8.90508 41.0595 8.92429C41.1491 8.9435 41.2339 8.98122 41.3087 9.03514C41.4615 9.1486 41.5663 9.31706 41.602 9.50643C41.6376 9.6958 41.6015 9.89193 41.5009 10.0551Z" fill="#263238"/>
<path d="M41.2288 11.4192C41.2299 11.5337 41.1979 11.646 41.1368 11.742C41.0756 11.8381 40.9881 11.9136 40.8852 11.9592C40.7822 12.0047 40.6684 12.0183 40.558 11.9982C40.4475 11.978 40.3453 11.9251 40.2642 11.846C40.183 11.7669 40.1265 11.6651 40.1017 11.5534C40.077 11.4417 40.085 11.3251 40.1248 11.218C40.1647 11.1109 40.2346 11.0182 40.3258 10.9515C40.4169 10.8847 40.5254 10.8469 40.6375 10.8428C40.7898 10.8426 40.9363 10.9025 41.0465 11.0098C41.1566 11.1172 41.2219 11.2638 41.2288 11.4192Z" fill="#263238"/>
<g style="mix-blend-mode:multiply" opacity="0.5">
<g style="mix-blend-mode:multiply" opacity="0.5">
<path d="M38.5386 11.0752L38.6154 14.5818L40.4248 14.0175L38.5386 11.0752Z" fill="#F28F8F"/>
</g>
</g>
<g style="mix-blend-mode:multiply" opacity="0.5">
<g style="mix-blend-mode:multiply" opacity="0.5">
<path d="M35.993 18.9784C34.5325 18.7792 31.5347 17.886 31.0735 16.6729C31.2593 17.2859 31.6245 17.8261 32.1201 18.2209C33.0129 19.0116 35.9871 19.9169 35.9871 19.9169L35.993 18.9784Z" fill="#F28F8F"/>
</g>
</g>
<path d="M26.0623 21.7876C23.2005 21.9958 22.0209 22.367 20.4274 25.9762C18.9935 29.2202 15.5641 37.6155 14.7067 39.4864C13.8493 41.3574 13.6867 42.1088 14.4111 44.0673C15.0023 45.6637 19.8331 54.8345 20.3623 56.1713C20.8915 57.5082 21.1251 58.8601 22.0268 60.4172C22.9285 61.9744 24.3535 63.4953 25.4799 63.8544C27.1503 64.3885 29.3233 63.6462 29.3853 62.6171C29.4474 61.5881 26.9345 59.871 26.2515 57.5866C26.706 57.8914 27.1846 58.1569 27.6824 58.3803C28.3595 58.6639 29.1163 58.6006 29.341 58.2083C29.5657 57.816 28.8887 57.5776 28.2855 56.965C27.9249 56.5998 27.2863 55.779 26.4703 55.0548C25.9175 54.5659 25.0128 54.4211 24.6048 53.8839C24.386 53.5972 23.3927 51.1136 22.6447 48.9017C21.7223 46.1586 20.5072 42.5072 20.5072 42.5072L25.4799 31.9452C25.4799 31.9452 29.3794 27.9739 26.0623 21.7876Z" fill="#FFEDE5"/>
<path d="M20.3536 56.1717C20.3536 56.1717 21.4978 53.8089 24.5961 53.8843L23.7772 52.0254C23.7772 52.0254 20.7527 52.2427 19.4785 54.3339L20.3536 56.1717Z" fill="#37474F"/>
<path d="M20.0196 54.1648L20.6848 55.1274C20.733 55.1974 20.7945 55.2568 20.8656 55.302C20.9367 55.3472 21.016 55.3773 21.0988 55.3906C21.1816 55.4038 21.2661 55.3999 21.3474 55.3791C21.4286 55.3582 21.5049 55.3209 21.5718 55.2693L22.7543 54.364C22.8918 54.2565 22.9839 54.0996 23.0119 53.9252C23.04 53.7508 23.0018 53.5721 22.9051 53.4255L22.2872 52.496C22.2407 52.4243 22.1804 52.363 22.11 52.3158C22.0395 52.2686 21.9604 52.2365 21.8774 52.2216C21.7944 52.2066 21.7093 52.209 21.6273 52.2287C21.5453 52.2484 21.468 52.2849 21.4003 52.3361L20.1468 53.2414C20.0103 53.3469 19.9203 53.5032 19.8964 53.6763C19.8726 53.8494 19.9169 54.025 20.0196 54.1648Z" fill="#263238"/>
<path d="M19.7978 54.1406L20.4689 55.1032C20.5173 55.1729 20.5789 55.2319 20.65 55.2769C20.7211 55.3219 20.8004 55.3518 20.883 55.3651C20.9657 55.3783 21.0501 55.3745 21.1313 55.3539C21.2125 55.3332 21.2888 55.2962 21.3558 55.245L22.5384 54.3397C22.6757 54.2323 22.768 54.0756 22.7965 53.9014C22.825 53.7272 22.7877 53.5484 22.6921 53.4012L22.0742 52.4718C22.0274 52.4004 21.967 52.3394 21.8965 52.2924C21.8261 52.2455 21.747 52.2136 21.6642 52.1987C21.5813 52.1837 21.4964 52.1861 21.4144 52.2055C21.3324 52.225 21.2552 52.2611 21.1873 52.3118L19.9338 53.2322C19.7995 53.3356 19.7101 53.4884 19.6846 53.6582C19.6592 53.8279 19.6998 54.001 19.7978 54.1406Z" fill="#455A64"/>
<path d="M22.571 53.8238C22.556 53.9432 22.4955 54.0516 22.4025 54.1256L21.2199 55.0309C21.1788 55.0644 21.1311 55.0884 21.0801 55.1014C21.0291 55.1145 20.9759 55.1161 20.9242 55.1063C20.8736 55.0983 20.8249 55.0801 20.7813 55.0526C20.7376 55.0251 20.6998 54.989 20.67 54.9464L19.9959 53.9807C19.939 53.9005 19.9137 53.8014 19.925 53.7031C19.929 53.6434 19.9459 53.5854 19.9746 53.5332C20.0032 53.4811 20.0428 53.436 20.0905 53.4013L21.3441 52.496C21.386 52.4643 21.4339 52.4417 21.4848 52.4297C21.5356 52.4178 21.5884 52.4167 21.6397 52.4266C21.6903 52.4357 21.7387 52.4551 21.7818 52.4836C21.825 52.5121 21.8621 52.5492 21.891 52.5926L22.5089 53.522C22.5669 53.6108 22.592 53.7178 22.5798 53.8238H22.571Z" fill="url(#paint8_linear_326_5010)"/>
<defs>
<linearGradient id="paint0_linear_326_5010" x1="11.1006" y1="82.1857" x2="-2.50569" y2="81.5546" gradientUnits="userSpaceOnUse">
<stop stop-color="#92A3FD"/>
<stop offset="1" stop-color="#9DCEFF"/>
</linearGradient>
<linearGradient id="paint1_linear_326_5010" x1="8.21409" y1="77.1899" x2="3.1579" y2="76.2423" gradientUnits="userSpaceOnUse">
<stop stop-color="#92A3FD"/>
<stop offset="1" stop-color="#9DCEFF"/>
</linearGradient>
<linearGradient id="paint2_linear_326_5010" x1="8.75304" y1="75.2282" x2="3.71158" y2="74.3683" gradientUnits="userSpaceOnUse">
<stop stop-color="#92A3FD"/>
<stop offset="1" stop-color="#9DCEFF"/>
</linearGradient>
<linearGradient id="paint3_linear_326_5010" x1="67.8911" y1="88.9515" x2="43.7172" y2="85.9311" gradientUnits="userSpaceOnUse">
<stop stop-color="#92A3FD"/>
<stop offset="1" stop-color="#9DCEFF"/>
</linearGradient>
<linearGradient id="paint4_linear_326_5010" x1="59.9638" y1="82.4665" x2="55.2658" y2="81.762" gradientUnits="userSpaceOnUse">
<stop stop-color="#92A3FD"/>
<stop offset="1" stop-color="#9DCEFF"/>
</linearGradient>
<linearGradient id="paint5_linear_326_5010" x1="61.8825" y1="83.6793" x2="56.6859" y2="82.8315" gradientUnits="userSpaceOnUse">
<stop stop-color="#92A3FD"/>
<stop offset="1" stop-color="#9DCEFF"/>
</linearGradient>
<linearGradient id="paint6_linear_326_5010" x1="64.0021" y1="84.7379" x2="58.8734" y2="83.9168" gradientUnits="userSpaceOnUse">
<stop stop-color="#92A3FD"/>
<stop offset="1" stop-color="#9DCEFF"/>
</linearGradient>
<linearGradient id="paint7_linear_326_5010" x1="59.4399" y1="85.9297" x2="-4.7344" y2="80.4213" gradientUnits="userSpaceOnUse">
<stop stop-color="#92A3FD"/>
<stop offset="1" stop-color="#9DCEFF"/>
</linearGradient>
<linearGradient id="paint8_linear_326_5010" x1="22.5828" y1="55.1126" x2="19.0365" y2="54.8415" gradientUnits="userSpaceOnUse">
<stop stop-color="#92A3FD"/>
<stop offset="1" stop-color="#9DCEFF"/>
</linearGradient>
</defs>
</svg>
